*
G04 Mass Parameters ***
*
G04 Image ***
*
%IND:\SOUND LEVEL METER PROJECT\MO PHONG_SOUND LEVEL METER_V3\SOUND LEVEL METER_OK\BOARD_NOISE LEVEL METER\GERBER\NOISE LEVEL METER-15.SST*%
%ICAS*%
%MOIN*%
%IPPOS*%
%ASAXBY*%
G74*%FSLAN2X34Y34*%
*
G04 Aperture Definitions ***
*
%ADD10C,0.0600*%
%ADD11R,0.0600X0.0600*%
%ADD12C,0.0800*%
%ADD13R,0.0800X0.0800*%
%ADD14R,0.1000X0.1000*%
%ADD15C,0.1000*%
%ADD16O,0.0950X0.0650*%
%ADD17R,0.0950X0.0650*%
%ADD18O,0.0800X0.0600*%
%ADD19R,0.0800X0.0600*%
%ADD20R,0.1400X0.1900*%
%ADD21C,0.0700*%
%ADD22R,0.0700X0.0700*%
%ADD23C,0.1575*%
%ADD24O,0.0750X0.0900*%
%ADD25R,0.0750X0.0900*%
%ADD26O,0.0900X0.0800*%
%ADD27O,0.0800X0.0900*%
%ADD28R,0.0900X0.0800*%
%ADD29O,0.4000X0.3000*%
%ADD30R,0.4000X0.3000*%
%ADD31R,0.0650X0.0950*%
%ADD32C,0.1180*%
%ADD33O,0.0650X0.0950*%
%ADD34R,0.0590X0.0394*%
%ADD35R,0.0394X0.0590*%
%ADD36C,0.0790*%
%ADD37O,0.1181X0.1575*%
%ADD38R,0.1181X0.1575*%
%ADD39O,0.0700X0.0850*%
%ADD40R,0.0700X0.0850*%
%ADD41C,0.0500*%
%ADD42R,0.0500X0.0500*%
%ADD43R,0.0480X0.0740*%
%ADD44R,0.0512X0.0590*%
%ADD45O,0.1500X0.0800*%
%ADD46O,0.0850X0.0650*%
%ADD47R,0.0850X0.0650*%
%ADD48O,0.0149X0.0590*%
%ADD49C,0.0300*%
%ADD50C,0.0200*%
%ADD51C,0.0100*%
%ADD52C,0.0350*%
%ADD53C,0.0500*%
%ADD54C,0.0250*%
%ADD55C,0.0150*%
%ADD56C,0.0500*%
%ADD57C,0.0787*%
%ADD58C,0.0400*%
%ADD59C,0.0065*%
%ADD60C,0.0060*%
%ADD61C,0.0070*%
%ADD62C,0.0080*%
%ADD63C,0.0830*%
%ADD64R,0.0830X0.0830*%
%ADD65R,0.0590X0.0669*%
%ADD66O,0.1600X0.0900*%
%ADD67C,0.0500*%
%ADD68C,0.0680*%
%ADD69R,0.0680X0.0680*%
%ADD70C,0.0880*%
%ADD71R,0.0880X0.0880*%
%ADD72R,0.1080X0.1080*%
%ADD73C,0.1080*%
%ADD74O,0.1030X0.0730*%
%ADD75R,0.1030X0.0730*%
%ADD76O,0.0880X0.0680*%
%ADD77R,0.0880X0.0680*%
%ADD78R,0.1480X0.1980*%
%ADD79C,0.0780*%
%ADD80R,0.0780X0.0780*%
%ADD81C,0.1650*%
%ADD82O,0.0830X0.0980*%
%ADD83R,0.0830X0.0980*%
%ADD84O,0.0980X0.0880*%
%ADD85O,0.0880X0.0980*%
%ADD86R,0.0980X0.0880*%
%ADD87O,0.4080X0.3080*%
%ADD88R,0.4080X0.3080*%
%ADD89R,0.0730X0.1030*%
%ADD90O,0.0730X0.1030*%
%ADD91R,0.0680X0.0480*%
%ADD92R,0.0480X0.0680*%
%ADD93C,0.0870*%
%ADD94O,0.1260X0.1650*%
%ADD95R,0.1260X0.1650*%
%ADD96O,0.0780X0.0950*%
%ADD97R,0.0780X0.0930*%
%ADD98C,0.0550*%
%ADD99R,0.0580X0.0580*%
%ADD100R,0.0560X0.0820*%
%ADD101O,0.1580X0.0880*%
%ADD102O,0.0930X0.0730*%
%ADD103R,0.0930X0.0730*%
%ADD104O,0.0230X0.0670*%
%ADD105C,0.0550*%
%ADD106C,0.0004*%
%ADD107C,0.0050*%
%ADD108C,0.0020*%
%ADD109C,0.0079*%
%ADD110C,0.0118*%
%ADD111C,0.0039*%
%ADD112C,0.0010*%
%ADD113C,0.0012*%
%ADD114C,0.0394*%
*
G04 Plot Data ***
*
G54D51*
G01X0020788Y0011333D02*
X0020872Y0011417D01*
X0020955Y0011458D01*
X0021122D01*
X0021205Y0011417D01*
X0021288Y0011333D01*
Y0011250D01*
X0021205Y0011167D01*
X0021122Y0011125D01*
X0020955D01*
X0020872Y0011167D01*
X0020788Y0011250D01*
Y0011333D01*
Y0011908D02*
X0020872Y0011992D01*
X0020955Y0012033D01*
X0021122D01*
X0021205Y0011992D01*
X0021288Y0011908D01*
Y0011825D01*
X0021205Y0011742D01*
X0021122Y0011700D01*
X0020955D01*
X0020872Y0011742D01*
X0020788Y0011825D01*
Y0011908D01*
Y0012483D02*
X0020872Y0012567D01*
X0020955Y0012608D01*
X0021122D01*
X0021205Y0012567D01*
X0021288Y0012483D01*
Y0012400D01*
X0021205Y0012317D01*
X0021122Y0012275D01*
X0020955D01*
X0020872Y0012317D01*
X0020788Y0012400D01*
Y0012483D01*
Y0012850D02*
Y0013183D01*
X0021122Y0012850D01*
X0021205D01*
X0021288Y0012892D01*
Y0013142D01*
X0021205Y0013183D01*
X0021288Y0013425D02*
X0020872D01*
X0020788Y0013467D01*
Y0013717D01*
X0020872Y0013758D01*
X0021288D01*
X0019955Y0008500D02*
Y0008833D01*
X0019788Y0008500D02*
X0020038D01*
X0020288Y0008625D01*
Y0008708D01*
X0020038Y0008833D01*
X0019788D01*
X0020038Y0009075D02*
Y0009408D01*
Y0009733D02*
Y0009983D01*
X0019788Y0009650D02*
Y0009983D01*
X0020288D01*
Y0009650D01*
X0020038Y0010558D02*
Y0010308D01*
X0020122Y0010225D01*
X0020205D01*
X0020288Y0010308D01*
Y0010558D01*
X0019788D01*
Y0010967D02*
X0020038D01*
X0020288Y0010800D02*
X0020038Y0010925D01*
Y0011008D01*
X0020288Y0011133D01*
X0019788Y0011542D02*
X0020288D01*
Y0011375D02*
Y0011708D01*
X0019622Y0011950D02*
Y0012283D01*
X0019788Y0012817D02*
X0020288D01*
X0019788Y0012858D02*
Y0012608D01*
X0019872Y0012525D01*
X0019955D01*
X0020038Y0012567D01*
Y0012817D02*
Y0012567D01*
X0020122Y0012525D01*
X0020205D01*
X0020288Y0012608D01*
Y0012858D01*
X0020205Y0013100D02*
X0020288Y0013142D01*
Y0013392D01*
X0020205Y0013433D01*
X0020122D01*
X0020038Y0013392D01*
Y0013142D01*
X0019955Y0013100D01*
X0019872D01*
X0019788Y0013142D01*
Y0013392D01*
X0019872Y0013433D01*
X0020288Y0013675D02*
X0019872D01*
X0019788Y0013717D01*
Y0013967D01*
X0019872Y0014008D01*
X0020288D01*
X0017872Y0011117D02*
Y0011367D01*
X0017955Y0011408D01*
X0018122D01*
X0018205Y0011367D01*
Y0011117D01*
X0018122Y0011075D01*
X0018038D01*
Y0011408D01*
X0017872Y0011650D02*
Y0011817D01*
Y0011733D02*
X0018372D01*
Y0011817D01*
X0018205Y0012392D02*
Y0012142D01*
X0018122Y0012100D01*
X0017955D01*
X0017872Y0012142D01*
Y0012392D01*
X0018372D01*
X0018205Y0012883D02*
Y0012717D01*
X0018122Y0012675D01*
X0017955D01*
X0017872Y0012633D01*
Y0012925D01*
X0017955Y0012967D01*
X0018038Y0012925D01*
Y0012675D01*
X0017955Y0013208D02*
X0017872Y0013250D01*
Y0013500D01*
X0017955Y0013542D01*
X0018288D01*
X0018372Y0013500D01*
Y0013250D01*
X0018288Y0013208D01*
X0020788Y0001508D02*
X0020872Y0001592D01*
X0020955Y0001633D01*
X0021122D01*
X0021205Y0001592D01*
X0021288Y0001508D01*
Y0001425D01*
X0021205Y0001342D01*
X0021122Y0001300D01*
X0020955D01*
X0020872Y0001342D01*
X0020788Y0001425D01*
Y0001508D01*
Y0002083D02*
X0020872Y0002167D01*
X0020955Y0002208D01*
X0021122D01*
X0021205Y0002167D01*
X0021288Y0002083D01*
Y0002000D01*
X0021205Y0001917D01*
X0021122Y0001875D01*
X0020955D01*
X0020872Y0001917D01*
X0020788Y0002000D01*
Y0002083D01*
Y0002658D02*
X0020872Y0002742D01*
X0020955Y0002783D01*
X0021122D01*
X0021205Y0002742D01*
X0021288Y0002658D01*
Y0002575D01*
X0021205Y0002492D01*
X0021122Y0002450D01*
X0020955D01*
X0020872Y0002492D01*
X0020788Y0002575D01*
Y0002658D01*
Y0003233D02*
X0020872Y0003317D01*
X0020955Y0003358D01*
X0021122D01*
X0021205Y0003317D01*
X0021288Y0003233D01*
Y0003150D01*
X0021205Y0003067D01*
X0021122Y0003025D01*
X0020955D01*
X0020872Y0003067D01*
X0020788Y0003150D01*
Y0003233D01*
Y0003808D02*
X0020872Y0003892D01*
X0020955Y0003933D01*
X0021122D01*
X0021205Y0003892D01*
X0021288Y0003808D01*
Y0003725D01*
X0021205Y0003642D01*
X0021122Y0003600D01*
X0020955D01*
X0020872Y0003642D01*
X0020788Y0003725D01*
Y0003808D01*
Y0004383D02*
X0020872Y0004467D01*
X0020955Y0004508D01*
X0021122D01*
X0021205Y0004467D01*
X0021288Y0004383D01*
Y0004300D01*
X0021205Y0004217D01*
X0021122Y0004175D01*
X0020955D01*
X0020872Y0004217D01*
X0020788Y0004300D01*
Y0004383D01*
Y0004750D02*
Y0005083D01*
X0021122Y0004750D01*
X0021205D01*
X0021288Y0004792D01*
Y0005042D01*
X0021205Y0005083D01*
X0021288Y0005325D02*
X0020872D01*
X0020788Y0005367D01*
Y0005617D01*
X0020872Y0005658D01*
X0021288D01*
X0019955Y0000400D02*
Y0000733D01*
X0019788Y0000400D02*
X0020038D01*
X0020288Y0000525D01*
Y0000608D01*
X0020038Y0000733D01*
X0019788D01*
X0020038Y0000975D02*
Y0001308D01*
Y0001633D02*
Y0001883D01*
X0019788Y0001550D02*
Y0001883D01*
X0020288D01*
Y0001550D01*
X0020038Y0002458D02*
Y0002208D01*
X0020122Y0002125D01*
X0020205D01*
X0020288Y0002208D01*
Y0002458D01*
X0019788D01*
Y0002867D02*
X0020038D01*
X0020288Y0002700D02*
X0020038Y0002825D01*
Y0002908D01*
X0020288Y0003033D01*
X0019788Y0003442D02*
X0020288D01*
Y0003275D02*
Y0003608D01*
X0019622Y0003850D02*
Y0004183D01*
X0019788Y0004717D02*
X0020288D01*
X0019788Y0004758D02*
Y0004508D01*
X0019872Y0004425D01*
X0019955D01*
X0020038Y0004467D01*
Y0004717D02*
Y0004467D01*
X0020122Y0004425D01*
X0020205D01*
X0020288Y0004508D01*
Y0004758D01*
X0020205Y0005000D02*
X0020288Y0005042D01*
Y0005292D01*
X0020205Y0005333D01*
X0020122D01*
X0020038Y0005292D01*
Y0005042D01*
X0019955Y0005000D01*
X0019872D01*
X0019788Y0005042D01*
Y0005292D01*
X0019872Y0005333D01*
X0020288Y0005575D02*
X0019872D01*
X0019788Y0005617D01*
Y0005867D01*
X0019872Y0005908D01*
X0020288D01*
X0017872Y0003017D02*
Y0003267D01*
X0017955Y0003308D01*
X0018122D01*
X0018205Y0003267D01*
Y0003017D01*
X0018122Y0002975D01*
X0018038D01*
Y0003308D01*
X0017872Y0003550D02*
Y0003717D01*
Y0003633D02*
X0018372D01*
Y0003717D01*
X0018205Y0004292D02*
Y0004042D01*
X0018122Y0004000D01*
X0017955D01*
X0017872Y0004042D01*
Y0004292D01*
X0018372D01*
X0018205Y0004783D02*
Y0004617D01*
X0018122Y0004575D01*
X0017955D01*
X0017872Y0004533D01*
Y0004825D01*
X0017955Y0004867D01*
X0018038Y0004825D01*
Y0004575D01*
X0017955Y0005108D02*
X0017872Y0005150D01*
Y0005400D01*
X0017955Y0005442D01*
X0018288D01*
X0018372Y0005400D01*
Y0005150D01*
X0018288Y0005108D01*
X0001352Y0059876D02*
X0001394Y0059793D01*
X0001644D01*
X0001686Y0059876D01*
Y0060043D01*
X0001602Y0060126D01*
X0001352D01*
Y0060293D01*
X0001686D01*
X0000819Y0059959D02*
Y0059876D01*
X0000861Y0059793D01*
X0001027D01*
X0001069Y0059876D01*
Y0060293D01*
X0001111D02*
X0000944D01*
X0031131Y0019783D02*
X0030864D01*
X0030820Y0019872D01*
Y0019961D01*
X0030864Y0020049D01*
X0031131D01*
X0031175Y0019961D01*
Y0019872D01*
X0030997Y0019516D01*
X0030575D02*
X0030398D01*
X0030486D02*
Y0020049D01*
X0030398Y0019961D01*
X0029753Y0019694D02*
Y0019605D01*
X0029798Y0019516D01*
X0029975D01*
X0030020Y0019605D01*
Y0020049D01*
X0030064D02*
X0029886D01*
X0005675Y0063016D02*
X0005320D01*
X0005675Y0063372D01*
Y0063461D01*
X0005631Y0063549D01*
X0005364D01*
X0005320Y0063461D01*
X0005075Y0063016D02*
X0004898D01*
X0004986D02*
Y0063549D01*
X0004898Y0063461D01*
X0004253Y0063194D02*
Y0063105D01*
X0004298Y0063016D01*
X0004475D01*
X0004520Y0063105D01*
Y0063549D01*
X0004564D02*
X0004386D01*
X0016320Y0070605D02*
X0016409Y0070516D01*
X0016586D01*
X0016675Y0070605D01*
Y0070694D01*
X0016497Y0070872D01*
X0016675Y0071049D01*
X0016320D01*
X0016075Y0070516D02*
X0015898D01*
X0015986D02*
Y0071049D01*
X0015898Y0070961D01*
X0015253Y0070694D02*
Y0070605D01*
X0015298Y0070516D01*
X0015475D01*
X0015520Y0070605D01*
Y0071049D01*
X0015564D02*
X0015386D01*
X0016364Y0027783D02*
X0016631D01*
X0016675Y0027694D01*
Y0027605D01*
X0016631Y0027516D01*
X0016364D01*
X0016320Y0027605D01*
Y0027694D01*
X0016497Y0028049D01*
X0016075Y0027516D02*
X0015898D01*
X0015986D02*
Y0028049D01*
X0015898Y0027961D01*
X0015253Y0027694D02*
Y0027605D01*
X0015298Y0027516D01*
X0015475D01*
X0015520Y0027605D01*
Y0028049D01*
X0015564D02*
X0015386D01*
X0027586Y0063016D02*
X0027409D01*
X0027497D02*
Y0063549D01*
X0027409Y0063461D01*
X0027075Y0063016D02*
X0026898D01*
X0026986D02*
Y0063549D01*
X0026898Y0063461D01*
X0026253Y0063194D02*
Y0063105D01*
X0026298Y0063016D01*
X0026475D01*
X0026520Y0063105D01*
Y0063549D01*
X0026564D02*
X0026386D01*
X0011724Y0037236D02*
Y0037486D01*
X0011807Y0037527D01*
X0011974D01*
X0012057Y0037486D01*
Y0037236D01*
X0011974Y0037194D01*
X0011890D01*
Y0037527D01*
X0012057Y0037811D02*
X0011724D01*
Y0037769D02*
Y0038061D01*
X0011807Y0038102D01*
X0012057D01*
X0011724Y0038344D02*
Y0038511D01*
Y0038427D02*
X0012224D01*
Y0038511D01*
X0012057Y0039044D02*
Y0038877D01*
X0011974Y0038836D01*
X0011807D01*
X0011724Y0038794D01*
Y0039086D01*
X0011807Y0039127D01*
X0011890Y0039086D01*
Y0038836D01*
X0012224Y0039369D02*
X0012057D01*
X0011724Y0039536D01*
X0012057Y0039702D01*
X0012224D01*
X0011974Y0039944D02*
X0011807Y0040027D01*
X0011724Y0040111D01*
Y0040194D01*
X0011807Y0040277D01*
X0011890D01*
X0011974Y0040194D01*
X0012140Y0040111D01*
X0012224Y0040152D01*
Y0040236D01*
X0012140Y0040277D01*
X0011974Y0040194D01*
X0011724Y0039944D01*
X0002042Y0019516D02*
X0001953Y0019605D01*
X0001909Y0019694D01*
Y0019872D01*
X0001953Y0019961D01*
X0002042Y0020049D01*
X0002131D01*
X0002220Y0019961D01*
X0002264Y0019872D01*
Y0019694D01*
X0002220Y0019605D01*
X0002131Y0019516D01*
X0002042D01*
X0001664D02*
X0001309D01*
X0001664Y0019872D01*
Y0019961D01*
X0001620Y0020049D01*
X0001353D01*
X0001309Y0019961D01*
X0000753Y0019694D02*
Y0019605D01*
X0000798Y0019516D01*
X0000975D01*
X0001020Y0019605D01*
Y0020049D01*
X0001064D02*
X0000886D01*
X0002050Y0014350D02*
X0005050D01*
Y0015350D01*
X0002050D01*
Y0014350D01*
X0009141Y0012785D02*
Y0010816D01*
X0013276D01*
Y0012785D01*
X0009141D01*
X0018080Y0009750D02*
Y0010250D01*
X0017080D01*
Y0009750D01*
X0016080Y0012250D02*
Y0009750D01*
X0021580D01*
Y0014750D01*
X0016080D01*
Y0012250D01*
X0018080Y0014750D02*
Y0014250D01*
X0017080D01*
Y0014750D01*
X0010950Y0015150D02*
Y0014150D01*
X0010350Y0015150D02*
Y0014150D01*
X0011200Y0014650D02*
X0011100D01*
X0010350D02*
X0010100D01*
X0010950D02*
X0011050D01*
X0010720Y0015000D02*
Y0014300D01*
X0010630Y0015000D02*
Y0014300D01*
X0010540Y0015000D02*
Y0014300D01*
X0010800Y0014970D02*
X0010500D01*
X0010800Y0014880D02*
X0010500D01*
X0010800Y0014790D02*
X0010500D01*
X0010800Y0014700D02*
X0010500D01*
X0010800Y0014610D02*
X0010500D01*
X0010800Y0014520D02*
X0010500D01*
X0010800Y0014430D02*
X0010500D01*
X0010800Y0014340D02*
X0010500D01*
X0010800Y0015000D02*
X0010500D01*
Y0014300D01*
X0010800D02*
X0010500D01*
X0010800Y0015000D02*
Y0014300D01*
X0002050Y0013550D02*
Y0009550D01*
X0003050D01*
Y0013550D01*
X0002050D01*
X0018080Y0001650D02*
Y0002150D01*
X0017080D01*
Y0001650D01*
X0016080Y0004150D02*
Y0001650D01*
X0021580D01*
Y0006650D01*
X0016080D01*
Y0004150D01*
X0018080Y0006650D02*
Y0006150D01*
X0017080D01*
Y0006650D01*
X0010950Y0007050D02*
Y0006050D01*
X0010350Y0007050D02*
Y0006050D01*
X0011200Y0006550D02*
X0011100D01*
X0010350D02*
X0010100D01*
X0010950D02*
X0011050D01*
X0010720Y0006900D02*
Y0006200D01*
X0010630Y0006900D02*
Y0006200D01*
X0010540Y0006900D02*
Y0006200D01*
X0010800Y0006870D02*
X0010500D01*
X0010800Y0006780D02*
X0010500D01*
X0010800Y0006690D02*
X0010500D01*
X0010800Y0006600D02*
X0010500D01*
X0010800Y0006510D02*
X0010500D01*
X0010800Y0006420D02*
X0010500D01*
X0010800Y0006330D02*
X0010500D01*
X0010800Y0006240D02*
X0010500D01*
X0010800Y0006900D02*
X0010500D01*
Y0006200D01*
X0010800D02*
X0010500D01*
X0010800Y0006900D02*
Y0006200D01*
X0002050Y0005450D02*
Y0001450D01*
X0003050D01*
Y0005450D01*
X0002050D01*
Y0006250D02*
X0005050D01*
Y0007250D01*
X0002050D01*
Y0006250D01*
X0009141Y0004685D02*
Y0002716D01*
X0013276D01*
Y0004685D01*
X0009141D01*
X0014600Y0018000D02*
X0018600D01*
Y0019000D01*
X0014600D01*
Y0018000D01*
X0025459Y0050894D02*
Y0051894D01*
X0026459D01*
Y0050894D01*
X0025459D01*
X0014959Y0071794D02*
Y0072794D01*
X0015959D01*
Y0071794D01*
X0014959D01*
X0015959D02*
Y0072794D01*
X0016959D01*
Y0071794D01*
X0015959D01*
X0029109Y0053894D02*
Y0056894D01*
X0028109D01*
Y0053894D01*
X0029109D01*
X0012689Y0017463D02*
Y0019825D01*
X0007571D01*
Y0017463D01*
X0012689D01*
X0029109Y0047494D02*
Y0053494D01*
X0028109D01*
Y0047494D01*
X0029109D01*
X0027959Y0029794D02*
Y0026794D01*
X0028959D01*
Y0029794D01*
X0027959D01*
X0014959Y0076794D02*
X0017959D01*
Y0077794D01*
X0014959D01*
Y0076794D01*
X0018959Y0049994D02*
X0017959D01*
X0018959Y0050594D02*
X0017959D01*
X0018459Y0049744D02*
Y0049844D01*
Y0050594D02*
Y0050844D01*
Y0049994D02*
Y0049894D01*
X0018779Y0050444D02*
Y0050144D01*
X0018689Y0050444D02*
Y0050144D01*
X0018599Y0050444D02*
Y0050144D01*
X0018509Y0050444D02*
Y0050144D01*
X0018419Y0050444D02*
Y0050144D01*
X0018329Y0050444D02*
Y0050144D01*
X0018239Y0050444D02*
Y0050144D01*
X0018149Y0050444D02*
Y0050144D01*
X0018809Y0050364D02*
X0018109D01*
X0018809Y0050274D02*
X0018109D01*
X0018809Y0050184D02*
X0018109D01*
X0018809Y0050444D02*
Y0050144D01*
Y0050444D02*
X0018109D01*
Y0050144D01*
X0018809D02*
X0018109D01*
X0027959Y0026294D02*
Y0023294D01*
X0028959D01*
Y0026294D01*
X0027959D01*
X0024959Y0029794D02*
X0024459Y0030294D01*
Y0032294D01*
X0030959D01*
Y0029794D01*
X0024959D01*
X0027959Y0022794D02*
Y0019794D01*
X0028959D01*
Y0022794D01*
X0027959D01*
G54D60*
G01X0015191Y0012033D02*
X0015135Y0012088D01*
X0015107Y0012144D01*
Y0012255D01*
X0015135Y0012310D01*
X0015191Y0012366D01*
X0015246D01*
X0015302Y0012310D01*
X0015330Y0012255D01*
Y0012144D01*
X0015302Y0012088D01*
X0015246Y0012033D01*
X0015191D01*
X0014821D02*
X0014765Y0012088D01*
X0014737Y0012144D01*
Y0012255D01*
X0014765Y0012310D01*
X0014821Y0012366D01*
X0014876D01*
X0014932Y0012310D01*
X0014960Y0012255D01*
Y0012144D01*
X0014932Y0012088D01*
X0014876Y0012033D01*
X0014821D01*
X0014451D02*
X0014395Y0012088D01*
X0014367Y0012144D01*
Y0012255D01*
X0014395Y0012310D01*
X0014451Y0012366D01*
X0014506D01*
X0014562Y0012310D01*
X0014590Y0012255D01*
Y0012144D01*
X0014562Y0012088D01*
X0014506Y0012033D01*
X0014451D01*
X0014220D02*
X0014109D01*
X0014164D02*
Y0012366D01*
X0014109Y0012310D01*
X0013822Y0012199D02*
X0013905Y0012033D01*
X0013683Y0012199D02*
X0013850D01*
X0013905Y0012255D01*
Y0012310D01*
X0013850Y0012366D01*
X0013683D01*
Y0012033D01*
X0007354Y0011667D02*
X0007577D01*
X0007354Y0011445D01*
Y0011389D01*
X0007382Y0011334D01*
X0007549D01*
X0007577Y0011389D01*
X0007808Y0011501D02*
X0007724Y0011667D01*
X0007947Y0011501D02*
X0007780D01*
X0007724Y0011445D01*
Y0011389D01*
X0007780Y0011334D01*
X0007947D01*
Y0011667D01*
X0007577Y0010612D02*
X0007521Y0010667D01*
X0007410D01*
X0007354Y0010612D01*
Y0010556D01*
X0007466Y0010445D01*
X0007354Y0010334D01*
X0007577D01*
X0007808Y0010501D02*
X0007724Y0010667D01*
X0007947Y0010501D02*
X0007780D01*
X0007724Y0010445D01*
Y0010389D01*
X0007780Y0010334D01*
X0007947D01*
Y0010667D01*
X0007354Y0009556D02*
X0007577D01*
X0007466Y0009334D01*
X0007410D01*
Y0009667D01*
X0007808Y0009501D02*
X0007724Y0009667D01*
X0007947Y0009501D02*
X0007780D01*
X0007724Y0009445D01*
Y0009389D01*
X0007780Y0009334D01*
X0007947D01*
Y0009667D01*
X0015207Y0009012D02*
X0015179Y0009067D01*
X0015012D01*
X0014984Y0009012D01*
Y0008901D01*
X0015040Y0008845D01*
X0015207D01*
Y0008734D01*
X0014984D01*
X0015438Y0008901D02*
X0015354Y0009067D01*
X0015577Y0008901D02*
X0015410D01*
X0015354Y0008845D01*
Y0008789D01*
X0015410Y0008734D01*
X0015577D01*
Y0009067D01*
X0015179Y0009801D02*
X0015012D01*
X0014984Y0009856D01*
Y0009912D01*
X0015012Y0009967D01*
X0015179D01*
X0015207Y0009912D01*
Y0009856D01*
X0015096Y0009634D01*
X0015438Y0009801D02*
X0015354Y0009967D01*
X0015577Y0009801D02*
X0015410D01*
X0015354Y0009745D01*
Y0009689D01*
X0015410Y0009634D01*
X0015577D01*
Y0009967D01*
X0014109Y0012933D02*
X0014275Y0013266D01*
X0014053D01*
X0013822Y0013099D02*
X0013905Y0012933D01*
X0013683Y0013099D02*
X0013850D01*
X0013905Y0013155D01*
Y0013210D01*
X0013850Y0013266D01*
X0013683D01*
Y0012933D01*
X0014248Y0013999D02*
X0014275Y0014055D01*
Y0014110D01*
X0014248Y0014166D01*
X0014081D01*
X0014053Y0014110D01*
Y0014055D01*
X0014081Y0013999D01*
X0014248D01*
X0014275Y0013944D01*
Y0013888D01*
X0014248Y0013833D01*
X0014081D01*
X0014053Y0013888D01*
Y0013944D01*
X0014081Y0013999D01*
X0013822D02*
X0013905Y0013833D01*
X0013683Y0013999D02*
X0013850D01*
X0013905Y0014055D01*
Y0014110D01*
X0013850Y0014166D01*
X0013683D01*
Y0013833D01*
X0011102Y0011792D02*
X0011158Y0011736D01*
X0011269D01*
X0011325Y0011792D01*
Y0011847D01*
X0011213Y0011958D01*
X0011325Y0012069D01*
X0011102D01*
X0010955D02*
Y0011792D01*
X0010927Y0011736D01*
X0010760D01*
X0010732Y0011792D01*
Y0012069D01*
X0005949Y0015432D02*
X0006115Y0015766D01*
X0005893D01*
X0005745Y0015488D02*
X0005718Y0015432D01*
X0005551D01*
X0005523Y0015488D01*
Y0015710D01*
X0005551Y0015766D01*
X0005718D01*
X0005745Y0015710D01*
X0012467Y0015316D02*
X0012412Y0015261D01*
X0012356Y0015233D01*
X0012245D01*
X0012189Y0015261D01*
X0012134Y0015316D01*
Y0015372D01*
X0012189Y0015428D01*
X0012245Y0015455D01*
X0012356D01*
X0012412Y0015428D01*
X0012467Y0015372D01*
Y0015316D01*
Y0014946D02*
X0012412Y0014891D01*
X0012356Y0014863D01*
X0012245D01*
X0012189Y0014891D01*
X0012134Y0014946D01*
Y0015002D01*
X0012189Y0015058D01*
X0012245Y0015085D01*
X0012356D01*
X0012412Y0015058D01*
X0012467Y0015002D01*
Y0014946D01*
Y0014576D02*
X0012412Y0014521D01*
X0012356Y0014493D01*
X0012245D01*
X0012189Y0014521D01*
X0012134Y0014576D01*
Y0014632D01*
X0012189Y0014688D01*
X0012245Y0014715D01*
X0012356D01*
X0012412Y0014688D01*
X0012467Y0014632D01*
Y0014576D01*
Y0014345D02*
Y0014123D01*
X0012245Y0014345D01*
X0012189D01*
X0012134Y0014318D01*
Y0014151D01*
X0012189Y0014123D01*
X0012412Y0013975D02*
X0012467Y0013948D01*
Y0013781D01*
X0012412Y0013753D01*
X0012189D01*
X0012134Y0013781D01*
Y0013948D01*
X0012189Y0013975D01*
X0008833Y0013783D02*
X0008888Y0013839D01*
X0008944Y0013867D01*
X0009055D01*
X0009110Y0013839D01*
X0009166Y0013783D01*
Y0013728D01*
X0009110Y0013672D01*
X0009055Y0013644D01*
X0008944D01*
X0008888Y0013672D01*
X0008833Y0013728D01*
Y0013783D01*
Y0014153D02*
X0008888Y0014209D01*
X0008944Y0014237D01*
X0009055D01*
X0009110Y0014209D01*
X0009166Y0014153D01*
Y0014098D01*
X0009110Y0014042D01*
X0009055Y0014014D01*
X0008944D01*
X0008888Y0014042D01*
X0008833Y0014098D01*
Y0014153D01*
Y0014523D02*
X0008888Y0014579D01*
X0008944Y0014607D01*
X0009055D01*
X0009110Y0014579D01*
X0009166Y0014523D01*
Y0014468D01*
X0009110Y0014412D01*
X0009055Y0014384D01*
X0008944D01*
X0008888Y0014412D01*
X0008833Y0014468D01*
Y0014523D01*
X0008888Y0014977D02*
X0008833Y0014921D01*
Y0014810D01*
X0008888Y0014754D01*
X0008944D01*
X0009055Y0014866D01*
X0009166Y0014754D01*
Y0014977D01*
X0008888Y0015124D02*
X0008833Y0015152D01*
Y0015319D01*
X0008888Y0015347D01*
X0009110D01*
X0009166Y0015319D01*
Y0015152D01*
X0009110Y0015124D01*
X0007016Y0014133D02*
X0006961Y0014188D01*
X0006933Y0014244D01*
Y0014355D01*
X0006961Y0014410D01*
X0007016Y0014466D01*
X0007072D01*
X0007128Y0014410D01*
X0007155Y0014355D01*
Y0014244D01*
X0007128Y0014188D01*
X0007072Y0014133D01*
X0007016D01*
X0006646D02*
X0006591Y0014188D01*
X0006563Y0014244D01*
Y0014355D01*
X0006591Y0014410D01*
X0006646Y0014466D01*
X0006702D01*
X0006758Y0014410D01*
X0006785Y0014355D01*
Y0014244D01*
X0006758Y0014188D01*
X0006702Y0014133D01*
X0006646D01*
X0006276D02*
X0006221Y0014188D01*
X0006193Y0014244D01*
Y0014355D01*
X0006221Y0014410D01*
X0006276Y0014466D01*
X0006332D01*
X0006388Y0014410D01*
X0006415Y0014355D01*
Y0014244D01*
X0006388Y0014188D01*
X0006332Y0014133D01*
X0006276D01*
X0005851Y0014299D02*
X0006018D01*
X0006045Y0014244D01*
Y0014188D01*
X0006018Y0014133D01*
X0005851D01*
X0005823Y0014188D01*
Y0014244D01*
X0005934Y0014466D01*
X0005675Y0014188D02*
X0005648Y0014133D01*
X0005481D01*
X0005453Y0014188D01*
Y0014410D01*
X0005481Y0014466D01*
X0005648D01*
X0005675Y0014410D01*
X0016301Y0003933D02*
X0016245Y0003988D01*
X0016217Y0004044D01*
Y0004155D01*
X0016245Y0004210D01*
X0016301Y0004266D01*
X0016356D01*
X0016412Y0004210D01*
X0016440Y0004155D01*
Y0004044D01*
X0016412Y0003988D01*
X0016356Y0003933D01*
X0016301D01*
X0015931D02*
X0015875Y0003988D01*
X0015847Y0004044D01*
Y0004155D01*
X0015875Y0004210D01*
X0015931Y0004266D01*
X0015986D01*
X0016042Y0004210D01*
X0016070Y0004155D01*
Y0004044D01*
X0016042Y0003988D01*
X0015986Y0003933D01*
X0015931D01*
X0015561D02*
X0015505Y0003988D01*
X0015477Y0004044D01*
Y0004155D01*
X0015505Y0004210D01*
X0015561Y0004266D01*
X0015616D01*
X0015672Y0004210D01*
X0015700Y0004155D01*
Y0004044D01*
X0015672Y0003988D01*
X0015616Y0003933D01*
X0015561D01*
X0015191D02*
X0015135Y0003988D01*
X0015107Y0004044D01*
Y0004155D01*
X0015135Y0004210D01*
X0015191Y0004266D01*
X0015246D01*
X0015302Y0004210D01*
X0015330Y0004155D01*
Y0004044D01*
X0015302Y0003988D01*
X0015246Y0003933D01*
X0015191D01*
X0014821D02*
X0014765Y0003988D01*
X0014737Y0004044D01*
Y0004155D01*
X0014765Y0004210D01*
X0014821Y0004266D01*
X0014876D01*
X0014932Y0004210D01*
X0014960Y0004155D01*
Y0004044D01*
X0014932Y0003988D01*
X0014876Y0003933D01*
X0014821D01*
X0014451D02*
X0014395Y0003988D01*
X0014367Y0004044D01*
Y0004155D01*
X0014395Y0004210D01*
X0014451Y0004266D01*
X0014506D01*
X0014562Y0004210D01*
X0014590Y0004155D01*
Y0004044D01*
X0014562Y0003988D01*
X0014506Y0003933D01*
X0014451D01*
X0014220D02*
X0014109D01*
X0014164D02*
Y0004266D01*
X0014109Y0004210D01*
X0013822Y0004099D02*
X0013905Y0003933D01*
X0013683Y0004099D02*
X0013850D01*
X0013905Y0004155D01*
Y0004210D01*
X0013850Y0004266D01*
X0013683D01*
Y0003933D01*
X0006383Y0003567D02*
X0006439Y0003512D01*
X0006467Y0003456D01*
Y0003345D01*
X0006439Y0003289D01*
X0006383Y0003234D01*
X0006328D01*
X0006272Y0003289D01*
X0006244Y0003345D01*
Y0003456D01*
X0006272Y0003512D01*
X0006328Y0003567D01*
X0006383D01*
X0006753D02*
X0006809Y0003512D01*
X0006837Y0003456D01*
Y0003345D01*
X0006809Y0003289D01*
X0006753Y0003234D01*
X0006698D01*
X0006642Y0003289D01*
X0006614Y0003345D01*
Y0003456D01*
X0006642Y0003512D01*
X0006698Y0003567D01*
X0006753D01*
X0007123D02*
X0007179Y0003512D01*
X0007207Y0003456D01*
Y0003345D01*
X0007179Y0003289D01*
X0007123Y0003234D01*
X0007068D01*
X0007012Y0003289D01*
X0006984Y0003345D01*
Y0003456D01*
X0007012Y0003512D01*
X0007068Y0003567D01*
X0007123D01*
X0007354D02*
X0007577D01*
X0007354Y0003345D01*
Y0003289D01*
X0007382Y0003234D01*
X0007549D01*
X0007577Y0003289D01*
X0007808Y0003401D02*
X0007724Y0003567D01*
X0007947Y0003401D02*
X0007780D01*
X0007724Y0003345D01*
Y0003289D01*
X0007780Y0003234D01*
X0007947D01*
Y0003567D01*
X0006383Y0002567D02*
X0006439Y0002512D01*
X0006467Y0002456D01*
Y0002345D01*
X0006439Y0002289D01*
X0006383Y0002234D01*
X0006328D01*
X0006272Y0002289D01*
X0006244Y0002345D01*
Y0002456D01*
X0006272Y0002512D01*
X0006328Y0002567D01*
X0006383D01*
X0006753D02*
X0006809Y0002512D01*
X0006837Y0002456D01*
Y0002345D01*
X0006809Y0002289D01*
X0006753Y0002234D01*
X0006698D01*
X0006642Y0002289D01*
X0006614Y0002345D01*
Y0002456D01*
X0006642Y0002512D01*
X0006698Y0002567D01*
X0006753D01*
X0007123D02*
X0007179Y0002512D01*
X0007207Y0002456D01*
Y0002345D01*
X0007179Y0002289D01*
X0007123Y0002234D01*
X0007068D01*
X0007012Y0002289D01*
X0006984Y0002345D01*
Y0002456D01*
X0007012Y0002512D01*
X0007068Y0002567D01*
X0007123D01*
X0007577Y0002512D02*
X0007521Y0002567D01*
X0007410D01*
X0007354Y0002512D01*
Y0002456D01*
X0007466Y0002345D01*
X0007354Y0002234D01*
X0007577D01*
X0007808Y0002401D02*
X0007724Y0002567D01*
X0007947Y0002401D02*
X0007780D01*
X0007724Y0002345D01*
Y0002289D01*
X0007780Y0002234D01*
X0007947D01*
Y0002567D01*
X0006383Y0001567D02*
X0006439Y0001512D01*
X0006467Y0001456D01*
Y0001345D01*
X0006439Y0001289D01*
X0006383Y0001234D01*
X0006328D01*
X0006272Y0001289D01*
X0006244Y0001345D01*
Y0001456D01*
X0006272Y0001512D01*
X0006328Y0001567D01*
X0006383D01*
X0006753D02*
X0006809Y0001512D01*
X0006837Y0001456D01*
Y0001345D01*
X0006809Y0001289D01*
X0006753Y0001234D01*
X0006698D01*
X0006642Y0001289D01*
X0006614Y0001345D01*
Y0001456D01*
X0006642Y0001512D01*
X0006698Y0001567D01*
X0006753D01*
X0007123D02*
X0007179Y0001512D01*
X0007207Y0001456D01*
Y0001345D01*
X0007179Y0001289D01*
X0007123Y0001234D01*
X0007068D01*
X0007012Y0001289D01*
X0006984Y0001345D01*
Y0001456D01*
X0007012Y0001512D01*
X0007068Y0001567D01*
X0007123D01*
X0007354Y0001456D02*
X0007577D01*
X0007466Y0001234D01*
X0007410D01*
Y0001567D01*
X0007808Y0001401D02*
X0007724Y0001567D01*
X0007947Y0001401D02*
X0007780D01*
X0007724Y0001345D01*
Y0001289D01*
X0007780Y0001234D01*
X0007947D01*
Y0001567D01*
X0014013Y0000967D02*
X0014069Y0000912D01*
X0014097Y0000856D01*
Y0000745D01*
X0014069Y0000689D01*
X0014013Y0000634D01*
X0013958D01*
X0013902Y0000689D01*
X0013874Y0000745D01*
Y0000856D01*
X0013902Y0000912D01*
X0013958Y0000967D01*
X0014013D01*
X0014383D02*
X0014439Y0000912D01*
X0014467Y0000856D01*
Y0000745D01*
X0014439Y0000689D01*
X0014383Y0000634D01*
X0014328D01*
X0014272Y0000689D01*
X0014244Y0000745D01*
Y0000856D01*
X0014272Y0000912D01*
X0014328Y0000967D01*
X0014383D01*
X0014753D02*
X0014809Y0000912D01*
X0014837Y0000856D01*
Y0000745D01*
X0014809Y0000689D01*
X0014753Y0000634D01*
X0014698D01*
X0014642Y0000689D01*
X0014614Y0000745D01*
Y0000856D01*
X0014642Y0000912D01*
X0014698Y0000967D01*
X0014753D01*
X0015207Y0000912D02*
X0015179Y0000967D01*
X0015012D01*
X0014984Y0000912D01*
Y0000801D01*
X0015040Y0000745D01*
X0015207D01*
Y0000634D01*
X0014984D01*
X0015438Y0000801D02*
X0015354Y0000967D01*
X0015577Y0000801D02*
X0015410D01*
X0015354Y0000745D01*
Y0000689D01*
X0015410Y0000634D01*
X0015577D01*
Y0000967D01*
X0014013Y0001867D02*
X0014069Y0001812D01*
X0014097Y0001756D01*
Y0001645D01*
X0014069Y0001589D01*
X0014013Y0001534D01*
X0013958D01*
X0013902Y0001589D01*
X0013874Y0001645D01*
Y0001756D01*
X0013902Y0001812D01*
X0013958Y0001867D01*
X0014013D01*
X0014383D02*
X0014439Y0001812D01*
X0014467Y0001756D01*
Y0001645D01*
X0014439Y0001589D01*
X0014383Y0001534D01*
X0014328D01*
X0014272Y0001589D01*
X0014244Y0001645D01*
Y0001756D01*
X0014272Y0001812D01*
X0014328Y0001867D01*
X0014383D01*
X0014753D02*
X0014809Y0001812D01*
X0014837Y0001756D01*
Y0001645D01*
X0014809Y0001589D01*
X0014753Y0001534D01*
X0014698D01*
X0014642Y0001589D01*
X0014614Y0001645D01*
Y0001756D01*
X0014642Y0001812D01*
X0014698Y0001867D01*
X0014753D01*
X0015179Y0001701D02*
X0015012D01*
X0014984Y0001756D01*
Y0001812D01*
X0015012Y0001867D01*
X0015179D01*
X0015207Y0001812D01*
Y0001756D01*
X0015096Y0001534D01*
X0015438Y0001701D02*
X0015354Y0001867D01*
X0015577Y0001701D02*
X0015410D01*
X0015354Y0001645D01*
Y0001589D01*
X0015410Y0001534D01*
X0015577D01*
Y0001867D01*
X0015246Y0004833D02*
X0015191Y0004888D01*
X0015163Y0004944D01*
Y0005055D01*
X0015191Y0005110D01*
X0015246Y0005166D01*
X0015302D01*
X0015358Y0005110D01*
X0015385Y0005055D01*
Y0004944D01*
X0015358Y0004888D01*
X0015302Y0004833D01*
X0015246D01*
X0014876D02*
X0014821Y0004888D01*
X0014793Y0004944D01*
Y0005055D01*
X0014821Y0005110D01*
X0014876Y0005166D01*
X0014932D01*
X0014988Y0005110D01*
X0015015Y0005055D01*
Y0004944D01*
X0014988Y0004888D01*
X0014932Y0004833D01*
X0014876D01*
X0014506D02*
X0014451Y0004888D01*
X0014423Y0004944D01*
Y0005055D01*
X0014451Y0005110D01*
X0014506Y0005166D01*
X0014562D01*
X0014618Y0005110D01*
X0014645Y0005055D01*
Y0004944D01*
X0014618Y0004888D01*
X0014562Y0004833D01*
X0014506D01*
X0014109D02*
X0014275Y0005166D01*
X0014053D01*
X0013822Y0004999D02*
X0013905Y0004833D01*
X0013683Y0004999D02*
X0013850D01*
X0013905Y0005055D01*
Y0005110D01*
X0013850Y0005166D01*
X0013683D01*
Y0004833D01*
X0015246Y0005733D02*
X0015191Y0005788D01*
X0015163Y0005844D01*
Y0005955D01*
X0015191Y0006010D01*
X0015246Y0006066D01*
X0015302D01*
X0015358Y0006010D01*
X0015385Y0005955D01*
Y0005844D01*
X0015358Y0005788D01*
X0015302Y0005733D01*
X0015246D01*
X0014876D02*
X0014821Y0005788D01*
X0014793Y0005844D01*
Y0005955D01*
X0014821Y0006010D01*
X0014876Y0006066D01*
X0014932D01*
X0014988Y0006010D01*
X0015015Y0005955D01*
Y0005844D01*
X0014988Y0005788D01*
X0014932Y0005733D01*
X0014876D01*
X0014506D02*
X0014451Y0005788D01*
X0014423Y0005844D01*
Y0005955D01*
X0014451Y0006010D01*
X0014506Y0006066D01*
X0014562D01*
X0014618Y0006010D01*
X0014645Y0005955D01*
Y0005844D01*
X0014618Y0005788D01*
X0014562Y0005733D01*
X0014506D01*
X0014248Y0005899D02*
X0014275Y0005955D01*
Y0006010D01*
X0014248Y0006066D01*
X0014081D01*
X0014053Y0006010D01*
Y0005955D01*
X0014081Y0005899D01*
X0014248D01*
X0014275Y0005844D01*
Y0005788D01*
X0014248Y0005733D01*
X0014081D01*
X0014053Y0005788D01*
Y0005844D01*
X0014081Y0005899D01*
X0013822D02*
X0013905Y0005733D01*
X0013683Y0005899D02*
X0013850D01*
X0013905Y0005955D01*
Y0006010D01*
X0013850Y0006066D01*
X0013683D01*
Y0005733D01*
X0011316Y0009933D02*
X0011261Y0009988D01*
X0011233Y0010044D01*
Y0010155D01*
X0011261Y0010210D01*
X0011316Y0010266D01*
X0011372D01*
X0011428Y0010210D01*
X0011455Y0010155D01*
Y0010044D01*
X0011428Y0009988D01*
X0011372Y0009933D01*
X0011316D01*
X0010946D02*
X0010891Y0009988D01*
X0010863Y0010044D01*
Y0010155D01*
X0010891Y0010210D01*
X0010946Y0010266D01*
X0011002D01*
X0011058Y0010210D01*
X0011085Y0010155D01*
Y0010044D01*
X0011058Y0009988D01*
X0011002Y0009933D01*
X0010946D01*
X0010576D02*
X0010521Y0009988D01*
X0010493Y0010044D01*
Y0010155D01*
X0010521Y0010210D01*
X0010576Y0010266D01*
X0010632D01*
X0010688Y0010210D01*
X0010715Y0010155D01*
Y0010044D01*
X0010688Y0009988D01*
X0010632Y0009933D01*
X0010576D01*
X0010123Y0009988D02*
X0010151Y0009933D01*
X0010318D01*
X0010345Y0009988D01*
Y0010099D01*
X0010290Y0010155D01*
X0010123D01*
Y0010266D01*
X0010345D01*
X0009975Y0009988D02*
X0009948Y0009933D01*
X0009781D01*
X0009753Y0009988D01*
Y0010210D01*
X0009781Y0010266D01*
X0009948D01*
X0009975Y0010210D01*
X0014027Y0015346D02*
X0013972Y0015291D01*
X0013916Y0015263D01*
X0013805D01*
X0013749Y0015291D01*
X0013694Y0015346D01*
Y0015402D01*
X0013749Y0015458D01*
X0013805Y0015485D01*
X0013916D01*
X0013972Y0015458D01*
X0014027Y0015402D01*
Y0015346D01*
Y0014976D02*
X0013972Y0014921D01*
X0013916Y0014893D01*
X0013805D01*
X0013749Y0014921D01*
X0013694Y0014976D01*
Y0015032D01*
X0013749Y0015088D01*
X0013805Y0015115D01*
X0013916D01*
X0013972Y0015088D01*
X0014027Y0015032D01*
Y0014976D01*
Y0014606D02*
X0013972Y0014551D01*
X0013916Y0014523D01*
X0013805D01*
X0013749Y0014551D01*
X0013694Y0014606D01*
Y0014662D01*
X0013749Y0014718D01*
X0013805Y0014745D01*
X0013916D01*
X0013972Y0014718D01*
X0014027Y0014662D01*
Y0014606D01*
X0013916Y0014375D02*
Y0014153D01*
X0013694Y0014264D01*
Y0014320D01*
X0014027D01*
X0013972Y0014005D02*
X0014027Y0013978D01*
Y0013811D01*
X0013972Y0013783D01*
X0013749D01*
X0013694Y0013811D01*
Y0013978D01*
X0013749Y0014005D01*
X0012296Y0003636D02*
X0012240Y0003692D01*
X0012212Y0003747D01*
Y0003858D01*
X0012240Y0003914D01*
X0012296Y0003969D01*
X0012351D01*
X0012407Y0003914D01*
X0012435Y0003858D01*
Y0003747D01*
X0012407Y0003692D01*
X0012351Y0003636D01*
X0012296D01*
X0011926D02*
X0011870Y0003692D01*
X0011842Y0003747D01*
Y0003858D01*
X0011870Y0003914D01*
X0011926Y0003969D01*
X0011981D01*
X0012037Y0003914D01*
X0012065Y0003858D01*
Y0003747D01*
X0012037Y0003692D01*
X0011981Y0003636D01*
X0011926D01*
X0011556D02*
X0011500Y0003692D01*
X0011472Y0003747D01*
Y0003858D01*
X0011500Y0003914D01*
X0011556Y0003969D01*
X0011611D01*
X0011667Y0003914D01*
X0011695Y0003858D01*
Y0003747D01*
X0011667Y0003692D01*
X0011611Y0003636D01*
X0011556D01*
X0011102Y0003692D02*
X0011158Y0003636D01*
X0011269D01*
X0011325Y0003692D01*
Y0003747D01*
X0011213Y0003858D01*
X0011325Y0003969D01*
X0011102D01*
X0010955D02*
Y0003692D01*
X0010927Y0003636D01*
X0010760D01*
X0010732Y0003692D01*
Y0003969D01*
X0007086Y0007332D02*
X0007031Y0007388D01*
X0007003Y0007444D01*
Y0007555D01*
X0007031Y0007610D01*
X0007086Y0007666D01*
X0007142D01*
X0007198Y0007610D01*
X0007225Y0007555D01*
Y0007444D01*
X0007198Y0007388D01*
X0007142Y0007332D01*
X0007086D01*
X0006716D02*
X0006661Y0007388D01*
X0006633Y0007444D01*
Y0007555D01*
X0006661Y0007610D01*
X0006716Y0007666D01*
X0006772D01*
X0006828Y0007610D01*
X0006855Y0007555D01*
Y0007444D01*
X0006828Y0007388D01*
X0006772Y0007332D01*
X0006716D01*
X0006346D02*
X0006291Y0007388D01*
X0006263Y0007444D01*
Y0007555D01*
X0006291Y0007610D01*
X0006346Y0007666D01*
X0006402D01*
X0006458Y0007610D01*
X0006485Y0007555D01*
Y0007444D01*
X0006458Y0007388D01*
X0006402Y0007332D01*
X0006346D01*
X0005949D02*
X0006115Y0007666D01*
X0005893D01*
X0005745Y0007388D02*
X0005718Y0007332D01*
X0005551D01*
X0005523Y0007388D01*
Y0007610D01*
X0005551Y0007666D01*
X0005718D01*
X0005745Y0007610D01*
X0012467Y0008326D02*
X0012412Y0008271D01*
X0012356Y0008243D01*
X0012245D01*
X0012189Y0008271D01*
X0012134Y0008326D01*
Y0008382D01*
X0012189Y0008438D01*
X0012245Y0008465D01*
X0012356D01*
X0012412Y0008438D01*
X0012467Y0008382D01*
Y0008326D01*
Y0007956D02*
X0012412Y0007901D01*
X0012356Y0007873D01*
X0012245D01*
X0012189Y0007901D01*
X0012134Y0007956D01*
Y0008012D01*
X0012189Y0008068D01*
X0012245Y0008095D01*
X0012356D01*
X0012412Y0008068D01*
X0012467Y0008012D01*
Y0007956D01*
Y0007586D02*
X0012412Y0007531D01*
X0012356Y0007503D01*
X0012245D01*
X0012189Y0007531D01*
X0012134Y0007586D01*
Y0007642D01*
X0012189Y0007698D01*
X0012245Y0007725D01*
X0012356D01*
X0012412Y0007698D01*
X0012467Y0007642D01*
Y0007586D01*
Y0007216D02*
X0012412Y0007161D01*
X0012356Y0007133D01*
X0012245D01*
X0012189Y0007161D01*
X0012134Y0007216D01*
Y0007272D01*
X0012189Y0007328D01*
X0012245Y0007355D01*
X0012356D01*
X0012412Y0007328D01*
X0012467Y0007272D01*
Y0007216D01*
Y0006846D02*
X0012412Y0006791D01*
X0012356Y0006763D01*
X0012245D01*
X0012189Y0006791D01*
X0012134Y0006846D01*
Y0006902D01*
X0012189Y0006958D01*
X0012245Y0006985D01*
X0012356D01*
X0012412Y0006958D01*
X0012467Y0006902D01*
Y0006846D01*
Y0006476D02*
X0012412Y0006421D01*
X0012356Y0006393D01*
X0012245D01*
X0012189Y0006421D01*
X0012134Y0006476D01*
Y0006532D01*
X0012189Y0006588D01*
X0012245Y0006615D01*
X0012356D01*
X0012412Y0006588D01*
X0012467Y0006532D01*
Y0006476D01*
Y0006245D02*
Y0006023D01*
X0012245Y0006245D01*
X0012189D01*
X0012134Y0006218D01*
Y0006051D01*
X0012189Y0006023D01*
X0012412Y0005875D02*
X0012467Y0005848D01*
Y0005681D01*
X0012412Y0005653D01*
X0012189D01*
X0012134Y0005681D01*
Y0005848D01*
X0012189Y0005875D01*
X0008833Y0004573D02*
X0008888Y0004629D01*
X0008944Y0004657D01*
X0009055D01*
X0009110Y0004629D01*
X0009166Y0004573D01*
Y0004518D01*
X0009110Y0004462D01*
X0009055Y0004434D01*
X0008944D01*
X0008888Y0004462D01*
X0008833Y0004518D01*
Y0004573D01*
Y0004943D02*
X0008888Y0004999D01*
X0008944Y0005027D01*
X0009055D01*
X0009110Y0004999D01*
X0009166Y0004943D01*
Y0004888D01*
X0009110Y0004832D01*
X0009055Y0004804D01*
X0008944D01*
X0008888Y0004832D01*
X0008833Y0004888D01*
Y0004943D01*
Y0005313D02*
X0008888Y0005369D01*
X0008944Y0005397D01*
X0009055D01*
X0009110Y0005369D01*
X0009166Y0005313D01*
Y0005258D01*
X0009110Y0005202D01*
X0009055Y0005174D01*
X0008944D01*
X0008888Y0005202D01*
X0008833Y0005258D01*
Y0005313D01*
Y0005683D02*
X0008888Y0005739D01*
X0008944Y0005767D01*
X0009055D01*
X0009110Y0005739D01*
X0009166Y0005683D01*
Y0005628D01*
X0009110Y0005572D01*
X0009055Y0005544D01*
X0008944D01*
X0008888Y0005572D01*
X0008833Y0005628D01*
Y0005683D01*
Y0006053D02*
X0008888Y0006109D01*
X0008944Y0006137D01*
X0009055D01*
X0009110Y0006109D01*
X0009166Y0006053D01*
Y0005998D01*
X0009110Y0005942D01*
X0009055Y0005914D01*
X0008944D01*
X0008888Y0005942D01*
X0008833Y0005998D01*
Y0006053D01*
Y0006423D02*
X0008888Y0006479D01*
X0008944Y0006507D01*
X0009055D01*
X0009110Y0006479D01*
X0009166Y0006423D01*
Y0006368D01*
X0009110Y0006312D01*
X0009055Y0006284D01*
X0008944D01*
X0008888Y0006312D01*
X0008833Y0006368D01*
Y0006423D01*
X0008888Y0006877D02*
X0008833Y0006821D01*
Y0006710D01*
X0008888Y0006654D01*
X0008944D01*
X0009055Y0006766D01*
X0009166Y0006654D01*
Y0006877D01*
X0008888Y0007024D02*
X0008833Y0007052D01*
Y0007219D01*
X0008888Y0007247D01*
X0009110D01*
X0009166Y0007219D01*
Y0007052D01*
X0009110Y0007024D01*
X0008126Y0006033D02*
X0008071Y0006088D01*
X0008043Y0006144D01*
Y0006255D01*
X0008071Y0006310D01*
X0008126Y0006366D01*
X0008182D01*
X0008238Y0006310D01*
X0008265Y0006255D01*
Y0006144D01*
X0008238Y0006088D01*
X0008182Y0006033D01*
X0008126D01*
X0007756D02*
X0007701Y0006088D01*
X0007673Y0006144D01*
Y0006255D01*
X0007701Y0006310D01*
X0007756Y0006366D01*
X0007812D01*
X0007868Y0006310D01*
X0007895Y0006255D01*
Y0006144D01*
X0007868Y0006088D01*
X0007812Y0006033D01*
X0007756D01*
X0007386D02*
X0007331Y0006088D01*
X0007303Y0006144D01*
Y0006255D01*
X0007331Y0006310D01*
X0007386Y0006366D01*
X0007442D01*
X0007498Y0006310D01*
X0007525Y0006255D01*
Y0006144D01*
X0007498Y0006088D01*
X0007442Y0006033D01*
X0007386D01*
X0007016D02*
X0006961Y0006088D01*
X0006933Y0006144D01*
Y0006255D01*
X0006961Y0006310D01*
X0007016Y0006366D01*
X0007072D01*
X0007128Y0006310D01*
X0007155Y0006255D01*
Y0006144D01*
X0007128Y0006088D01*
X0007072Y0006033D01*
X0007016D01*
X0006646D02*
X0006591Y0006088D01*
X0006563Y0006144D01*
Y0006255D01*
X0006591Y0006310D01*
X0006646Y0006366D01*
X0006702D01*
X0006758Y0006310D01*
X0006785Y0006255D01*
Y0006144D01*
X0006758Y0006088D01*
X0006702Y0006033D01*
X0006646D01*
X0006276D02*
X0006221Y0006088D01*
X0006193Y0006144D01*
Y0006255D01*
X0006221Y0006310D01*
X0006276Y0006366D01*
X0006332D01*
X0006388Y0006310D01*
X0006415Y0006255D01*
Y0006144D01*
X0006388Y0006088D01*
X0006332Y0006033D01*
X0006276D01*
X0005851Y0006199D02*
X0006018D01*
X0006045Y0006144D01*
Y0006088D01*
X0006018Y0006033D01*
X0005851D01*
X0005823Y0006088D01*
Y0006144D01*
X0005934Y0006366D01*
X0005675Y0006088D02*
X0005648Y0006033D01*
X0005481D01*
X0005453Y0006088D01*
Y0006310D01*
X0005481Y0006366D01*
X0005648D01*
X0005675Y0006310D01*
X0012426Y0001833D02*
X0012371Y0001888D01*
X0012343Y0001944D01*
Y0002055D01*
X0012371Y0002110D01*
X0012426Y0002166D01*
X0012482D01*
X0012538Y0002110D01*
X0012565Y0002055D01*
Y0001944D01*
X0012538Y0001888D01*
X0012482Y0001833D01*
X0012426D01*
X0012056D02*
X0012001Y0001888D01*
X0011973Y0001944D01*
Y0002055D01*
X0012001Y0002110D01*
X0012056Y0002166D01*
X0012112D01*
X0012168Y0002110D01*
X0012195Y0002055D01*
Y0001944D01*
X0012168Y0001888D01*
X0012112Y0001833D01*
X0012056D01*
X0011686D02*
X0011631Y0001888D01*
X0011603Y0001944D01*
Y0002055D01*
X0011631Y0002110D01*
X0011686Y0002166D01*
X0011742D01*
X0011798Y0002110D01*
X0011825Y0002055D01*
Y0001944D01*
X0011798Y0001888D01*
X0011742Y0001833D01*
X0011686D01*
X0011316D02*
X0011261Y0001888D01*
X0011233Y0001944D01*
Y0002055D01*
X0011261Y0002110D01*
X0011316Y0002166D01*
X0011372D01*
X0011428Y0002110D01*
X0011455Y0002055D01*
Y0001944D01*
X0011428Y0001888D01*
X0011372Y0001833D01*
X0011316D01*
X0010946D02*
X0010891Y0001888D01*
X0010863Y0001944D01*
Y0002055D01*
X0010891Y0002110D01*
X0010946Y0002166D01*
X0011002D01*
X0011058Y0002110D01*
X0011085Y0002055D01*
Y0001944D01*
X0011058Y0001888D01*
X0011002Y0001833D01*
X0010946D01*
X0010576D02*
X0010521Y0001888D01*
X0010493Y0001944D01*
Y0002055D01*
X0010521Y0002110D01*
X0010576Y0002166D01*
X0010632D01*
X0010688Y0002110D01*
X0010715Y0002055D01*
Y0001944D01*
X0010688Y0001888D01*
X0010632Y0001833D01*
X0010576D01*
X0010123Y0001888D02*
X0010151Y0001833D01*
X0010318D01*
X0010345Y0001888D01*
Y0001999D01*
X0010290Y0002055D01*
X0010123D01*
Y0002166D01*
X0010345D01*
X0009975Y0001888D02*
X0009948Y0001833D01*
X0009781D01*
X0009753Y0001888D01*
Y0002110D01*
X0009781Y0002166D01*
X0009948D01*
X0009975Y0002110D01*
X0014027Y0008356D02*
X0013972Y0008301D01*
X0013916Y0008273D01*
X0013805D01*
X0013749Y0008301D01*
X0013694Y0008356D01*
Y0008412D01*
X0013749Y0008468D01*
X0013805Y0008495D01*
X0013916D01*
X0013972Y0008468D01*
X0014027Y0008412D01*
Y0008356D01*
Y0007986D02*
X0013972Y0007931D01*
X0013916Y0007903D01*
X0013805D01*
X0013749Y0007931D01*
X0013694Y0007986D01*
Y0008042D01*
X0013749Y0008098D01*
X0013805Y0008125D01*
X0013916D01*
X0013972Y0008098D01*
X0014027Y0008042D01*
Y0007986D01*
Y0007616D02*
X0013972Y0007561D01*
X0013916Y0007533D01*
X0013805D01*
X0013749Y0007561D01*
X0013694Y0007616D01*
Y0007672D01*
X0013749Y0007728D01*
X0013805Y0007755D01*
X0013916D01*
X0013972Y0007728D01*
X0014027Y0007672D01*
Y0007616D01*
Y0007246D02*
X0013972Y0007191D01*
X0013916Y0007163D01*
X0013805D01*
X0013749Y0007191D01*
X0013694Y0007246D01*
Y0007302D01*
X0013749Y0007358D01*
X0013805Y0007385D01*
X0013916D01*
X0013972Y0007358D01*
X0014027Y0007302D01*
Y0007246D01*
Y0006876D02*
X0013972Y0006821D01*
X0013916Y0006793D01*
X0013805D01*
X0013749Y0006821D01*
X0013694Y0006876D01*
Y0006932D01*
X0013749Y0006988D01*
X0013805Y0007015D01*
X0013916D01*
X0013972Y0006988D01*
X0014027Y0006932D01*
Y0006876D01*
Y0006506D02*
X0013972Y0006451D01*
X0013916Y0006423D01*
X0013805D01*
X0013749Y0006451D01*
X0013694Y0006506D01*
Y0006562D01*
X0013749Y0006618D01*
X0013805Y0006645D01*
X0013916D01*
X0013972Y0006618D01*
X0014027Y0006562D01*
Y0006506D01*
X0013916Y0006275D02*
Y0006053D01*
X0013694Y0006164D01*
Y0006220D01*
X0014027D01*
X0013972Y0005905D02*
X0014027Y0005878D01*
Y0005711D01*
X0013972Y0005683D01*
X0013749D01*
X0013694Y0005711D01*
Y0005878D01*
X0013749Y0005905D01*
X0019541Y0022967D02*
X0019597Y0023023D01*
X0019653Y0023051D01*
X0019764D01*
X0019819Y0023023D01*
X0019875Y0022967D01*
Y0022912D01*
X0019819Y0022856D01*
X0019764Y0022828D01*
X0019653D01*
X0019597Y0022856D01*
X0019541Y0022912D01*
Y0022967D01*
Y0023198D02*
Y0023421D01*
X0019764Y0023198D01*
X0019819D01*
X0019875Y0023226D01*
Y0023393D01*
X0019819Y0023421D01*
X0019708Y0023652D02*
X0019541Y0023568D01*
X0019708Y0023791D02*
Y0023624D01*
X0019764Y0023568D01*
X0019819D01*
X0019875Y0023624D01*
Y0023791D01*
X0019541D01*
X0020620Y0020569D02*
X0020287Y0020736D01*
Y0020514D01*
X0020509Y0020172D02*
X0020564D01*
X0020620Y0020199D01*
Y0020311D01*
X0020564Y0020338D01*
X0020287D01*
Y0020366D02*
Y0020255D01*
X0018541Y0056254D02*
Y0056365D01*
Y0056310D02*
X0018875D01*
X0018819Y0056365D01*
X0018708Y0056652D02*
X0018541Y0056568D01*
X0018708Y0056791D02*
Y0056624D01*
X0018764Y0056568D01*
X0018819D01*
X0018875Y0056624D01*
Y0056791D01*
X0018541D01*
X0021597Y0060606D02*
X0021541Y0060551D01*
Y0060440D01*
X0021597Y0060384D01*
X0021653D01*
X0021764Y0060495D01*
X0021875Y0060384D01*
Y0060606D01*
X0021541Y0060754D02*
Y0060865D01*
Y0060810D02*
X0021875D01*
X0021819Y0060865D01*
X0021708Y0061152D02*
X0021541Y0061068D01*
X0021708Y0061291D02*
Y0061124D01*
X0021764Y0061068D01*
X0021819D01*
X0021875Y0061124D01*
Y0061291D01*
X0021541D01*
X0009208Y0029579D02*
Y0029412D01*
X0009153Y0029384D01*
X0009097D01*
X0009041Y0029412D01*
Y0029579D01*
X0009097Y0029606D01*
X0009153D01*
X0009375Y0029495D01*
X0009041Y0029754D02*
Y0029865D01*
Y0029810D02*
X0009375D01*
X0009319Y0029865D01*
X0009208Y0030152D02*
X0009041Y0030068D01*
X0009208Y0030291D02*
Y0030124D01*
X0009264Y0030068D01*
X0009319D01*
X0009375Y0030124D01*
Y0030291D01*
X0009041D01*
X0012769Y0029944D02*
X0012936Y0030277D01*
X0012713D01*
X0012566Y0029944D02*
X0012455D01*
X0012510D02*
Y0030277D01*
X0012455Y0030221D01*
X0012168Y0030110D02*
X0012251Y0029944D01*
X0012029Y0030110D02*
X0012196D01*
X0012251Y0030166D01*
Y0030221D01*
X0012196Y0030277D01*
X0012029D01*
Y0029944D01*
X0023708Y0026912D02*
X0023764Y0026884D01*
X0023819D01*
X0023875Y0026912D01*
Y0027079D01*
X0023819Y0027106D01*
X0023764D01*
X0023708Y0027079D01*
Y0026912D01*
X0023653Y0026884D01*
X0023597D01*
X0023541Y0026912D01*
Y0027079D01*
X0023597Y0027106D01*
X0023653D01*
X0023708Y0027079D01*
X0023541Y0027254D02*
Y0027365D01*
Y0027310D02*
X0023875D01*
X0023819Y0027365D01*
X0023708Y0027652D02*
X0023541Y0027568D01*
X0023708Y0027791D02*
Y0027624D01*
X0023764Y0027568D01*
X0023819D01*
X0023875Y0027624D01*
Y0027791D01*
X0023541D01*
X0019708Y0030912D02*
Y0031079D01*
X0019764Y0031106D01*
X0019819D01*
X0019875Y0031079D01*
Y0030912D01*
X0019819Y0030884D01*
X0019764D01*
X0019541Y0030995D01*
Y0031254D02*
Y0031365D01*
Y0031310D02*
X0019875D01*
X0019819Y0031365D01*
X0019708Y0031652D02*
X0019541Y0031568D01*
X0019708Y0031791D02*
Y0031624D01*
X0019764Y0031568D01*
X0019819D01*
X0019875Y0031624D01*
Y0031791D01*
X0019541D01*
X0007170Y0013175D02*
Y0013925D01*
X0005570D01*
Y0013175D01*
X0007170D01*
X0011470Y0008975D02*
Y0009725D01*
X0009870D01*
Y0008975D01*
X0011470D01*
X0014985Y0015500D02*
X0014235D01*
Y0013900D01*
X0014985D01*
Y0015500D01*
X0007430Y0014325D02*
Y0015375D01*
X0005450D01*
Y0014325D01*
X0007430D01*
X0013425Y0015470D02*
X0012675D01*
Y0013870D01*
X0013425D01*
Y0015470D01*
X0007875Y0013630D02*
X0008625D01*
Y0015230D01*
X0007875D01*
Y0013630D01*
X0007430Y0006225D02*
Y0007275D01*
X0005450D01*
Y0006225D01*
X0007430D01*
X0013425Y0007370D02*
X0012675D01*
Y0005770D01*
X0013425D01*
Y0007370D01*
X0007875Y0005530D02*
X0008625D01*
Y0007130D01*
X0007875D01*
Y0005530D01*
X0007170Y0005075D02*
Y0005825D01*
X0005570D01*
Y0005075D01*
X0007170D01*
X0011470Y0000875D02*
Y0001625D01*
X0009870D01*
Y0000875D01*
X0011470D01*
X0014985Y0007400D02*
X0014235D01*
Y0005800D01*
X0014985D01*
Y0007400D01*
G54D62*
G01X0003189Y0011918D02*
Y0012140D01*
X0003411Y0011918D01*
X0003467D01*
X0003522Y0011946D01*
Y0012112D01*
X0003467Y0012140D01*
X0003300Y0012522D02*
X0003244D01*
X0003189Y0012494D01*
Y0012383D01*
X0003244Y0012356D01*
X0003522D01*
Y0012328D02*
Y0012439D01*
X0004217Y0015489D02*
X0004162Y0015544D01*
X0004134Y0015600D01*
Y0015711D01*
X0004162Y0015767D01*
X0004217Y0015822D01*
X0004273D01*
X0004329Y0015767D01*
X0004356Y0015711D01*
Y0015600D01*
X0004329Y0015544D01*
X0004273Y0015489D01*
X0004217D01*
X0003807D02*
X0003752Y0015544D01*
X0003724Y0015600D01*
Y0015711D01*
X0003752Y0015767D01*
X0003807Y0015822D01*
X0003863D01*
X0003919Y0015767D01*
X0003946Y0015711D01*
Y0015600D01*
X0003919Y0015544D01*
X0003863Y0015489D01*
X0003807D01*
X0003397D02*
X0003342Y0015544D01*
X0003314Y0015600D01*
Y0015711D01*
X0003342Y0015767D01*
X0003397Y0015822D01*
X0003453D01*
X0003509Y0015767D01*
X0003536Y0015711D01*
Y0015600D01*
X0003509Y0015544D01*
X0003453Y0015489D01*
X0003397D01*
X0003126D02*
X0003015D01*
X0003071D02*
Y0015822D01*
X0003015Y0015767D01*
X0002578Y0015600D02*
Y0015544D01*
X0002605Y0015489D01*
X0002717D01*
X0002744Y0015544D01*
Y0015822D01*
X0002772D02*
X0002661D01*
X0003189Y0002727D02*
X0003244Y0002782D01*
X0003300Y0002810D01*
X0003411D01*
X0003467Y0002782D01*
X0003522Y0002727D01*
Y0002671D01*
X0003467Y0002616D01*
X0003411Y0002588D01*
X0003300D01*
X0003244Y0002616D01*
X0003189Y0002671D01*
Y0002727D01*
Y0003137D02*
X0003244Y0003192D01*
X0003300Y0003220D01*
X0003411D01*
X0003467Y0003192D01*
X0003522Y0003137D01*
Y0003081D01*
X0003467Y0003026D01*
X0003411Y0002998D01*
X0003300D01*
X0003244Y0003026D01*
X0003189Y0003081D01*
Y0003137D01*
Y0003547D02*
X0003244Y0003602D01*
X0003300Y0003630D01*
X0003411D01*
X0003467Y0003602D01*
X0003522Y0003547D01*
Y0003491D01*
X0003467Y0003436D01*
X0003411Y0003408D01*
X0003300D01*
X0003244Y0003436D01*
X0003189Y0003491D01*
Y0003547D01*
Y0003818D02*
Y0004040D01*
X0003411Y0003818D01*
X0003467D01*
X0003522Y0003846D01*
Y0004012D01*
X0003467Y0004040D01*
X0003300Y0004422D02*
X0003244D01*
X0003189Y0004394D01*
Y0004283D01*
X0003244Y0004256D01*
X0003522D01*
Y0004228D02*
Y0004339D01*
X0005447Y0007389D02*
X0005392Y0007444D01*
X0005364Y0007500D01*
Y0007611D01*
X0005392Y0007667D01*
X0005447Y0007722D01*
X0005503D01*
X0005559Y0007667D01*
X0005586Y0007611D01*
Y0007500D01*
X0005559Y0007444D01*
X0005503Y0007389D01*
X0005447D01*
X0005037D02*
X0004982Y0007444D01*
X0004954Y0007500D01*
Y0007611D01*
X0004982Y0007667D01*
X0005037Y0007722D01*
X0005093D01*
X0005149Y0007667D01*
X0005176Y0007611D01*
Y0007500D01*
X0005149Y0007444D01*
X0005093Y0007389D01*
X0005037D01*
X0004627D02*
X0004572Y0007444D01*
X0004544Y0007500D01*
Y0007611D01*
X0004572Y0007667D01*
X0004627Y0007722D01*
X0004683D01*
X0004739Y0007667D01*
X0004766Y0007611D01*
Y0007500D01*
X0004739Y0007444D01*
X0004683Y0007389D01*
X0004627D01*
X0004217D02*
X0004162Y0007444D01*
X0004134Y0007500D01*
Y0007611D01*
X0004162Y0007667D01*
X0004217Y0007722D01*
X0004273D01*
X0004329Y0007667D01*
X0004356Y0007611D01*
Y0007500D01*
X0004329Y0007444D01*
X0004273Y0007389D01*
X0004217D01*
X0003807D02*
X0003752Y0007444D01*
X0003724Y0007500D01*
Y0007611D01*
X0003752Y0007667D01*
X0003807Y0007722D01*
X0003863D01*
X0003919Y0007667D01*
X0003946Y0007611D01*
Y0007500D01*
X0003919Y0007444D01*
X0003863Y0007389D01*
X0003807D01*
X0003397D02*
X0003342Y0007444D01*
X0003314Y0007500D01*
Y0007611D01*
X0003342Y0007667D01*
X0003397Y0007722D01*
X0003453D01*
X0003509Y0007667D01*
X0003536Y0007611D01*
Y0007500D01*
X0003509Y0007444D01*
X0003453Y0007389D01*
X0003397D01*
X0003126D02*
X0003015D01*
X0003071D02*
Y0007722D01*
X0003015Y0007667D01*
X0002578Y0007500D02*
Y0007444D01*
X0002605Y0007389D01*
X0002717D01*
X0002744Y0007444D01*
Y0007722D01*
X0002772D02*
X0002661D01*
X0016204Y0019139D02*
X0016093D01*
X0016149D02*
Y0019472D01*
X0016093Y0019417D01*
X0015628Y0019194D02*
X0015655Y0019139D01*
X0015822D01*
X0015850Y0019194D01*
Y0019305D01*
X0015794Y0019361D01*
X0015628D01*
Y0019472D01*
X0015850D01*
X0027803Y0053337D02*
Y0053503D01*
X0027748Y0053559D01*
X0027692D01*
X0027637Y0053503D01*
Y0053337D01*
X0027970D01*
X0027859Y0053149D02*
Y0052927D01*
X0027970Y0053149D02*
X0027803D01*
X0027637Y0053066D01*
Y0053010D01*
X0027803Y0052927D01*
X0027970D01*
X0027637Y0052739D02*
X0027970D01*
X0027914Y0052683D01*
X0027692Y0052572D01*
X0027637Y0052517D01*
X0027970D01*
X0027803Y0051711D02*
X0027970Y0051794D01*
X0027803Y0051572D02*
Y0051738D01*
X0027748Y0051794D01*
X0027692D01*
X0027637Y0051738D01*
Y0051572D01*
X0027970D01*
X0027803Y0051328D02*
Y0051162D01*
X0027970Y0051384D02*
Y0051162D01*
X0027637D01*
Y0051384D01*
X0027970Y0050779D02*
X0027637D01*
X0027970Y0050752D02*
Y0050918D01*
X0027859Y0050974D01*
X0027748D01*
X0027637Y0050918D01*
Y0050752D01*
X0027859Y0050564D02*
Y0050342D01*
X0027970Y0050564D02*
X0027803D01*
X0027637Y0050481D01*
Y0050425D01*
X0027803Y0050342D01*
X0027970D01*
X0027803Y0050098D02*
Y0049932D01*
X0027970Y0050154D02*
Y0049932D01*
X0027637D01*
Y0050154D01*
X0027803Y0049744D02*
Y0049522D01*
X0027970Y0049744D02*
X0027637D01*
X0027970Y0049522D02*
X0027637D01*
X0019991Y0053275D02*
Y0053497D01*
X0020214Y0053275D01*
X0020269D01*
X0020325Y0053303D01*
Y0053470D01*
X0020269Y0053497D01*
X0019991Y0053685D02*
Y0053796D01*
Y0053741D02*
X0020325D01*
X0020269Y0053796D01*
X0020047Y0054039D02*
X0019991Y0054067D01*
Y0054234D01*
X0020047Y0054262D01*
X0020269D01*
X0020325Y0054234D01*
Y0054067D01*
X0020269Y0054039D01*
X0019047Y0053497D02*
X0018991Y0053442D01*
Y0053331D01*
X0019047Y0053275D01*
X0019103D01*
X0019214Y0053386D01*
X0019325Y0053275D01*
Y0053497D01*
X0018991Y0053685D02*
Y0053796D01*
Y0053741D02*
X0019325D01*
X0019269Y0053796D01*
X0019047Y0054039D02*
X0018991Y0054067D01*
Y0054234D01*
X0019047Y0054262D01*
X0019269D01*
X0019325Y0054234D01*
Y0054067D01*
X0019269Y0054039D01*
X0008693Y0025587D02*
X0008748Y0025643D01*
Y0025754D01*
X0008693Y0025810D01*
X0008637D01*
X0008526Y0025698D01*
X0008415Y0025810D01*
Y0025587D01*
X0008637Y0025205D02*
X0008693D01*
X0008748Y0025233D01*
Y0025344D01*
X0008693Y0025372D01*
X0008415D01*
Y0025400D02*
Y0025288D01*
X0003561Y0021281D02*
X0003228D01*
Y0021392D02*
Y0021170D01*
X0003561Y0020982D02*
X0003394Y0020816D01*
X0003228Y0020982D01*
Y0020760D02*
X0003561D01*
X0003283Y0020572D02*
X0003228Y0020544D01*
Y0020378D01*
X0003283Y0020350D01*
X0003339D01*
X0003394Y0020378D01*
Y0020544D01*
X0003450Y0020572D01*
X0003506D01*
X0003561Y0020544D01*
Y0020378D01*
X0003506Y0020350D01*
X0007061Y0023919D02*
Y0023808D01*
Y0023864D02*
X0006728D01*
X0006783Y0023808D01*
X0004144Y0024406D02*
Y0024572D01*
X0004200Y0024600D01*
X0004256D01*
X0004311Y0024572D01*
Y0024406D01*
X0004256Y0024378D01*
X0004200D01*
X0003978Y0024489D01*
X0026063Y0052199D02*
X0025896D01*
X0025869Y0052255D01*
Y0052311D01*
X0025896Y0052366D01*
X0026063D01*
X0026091Y0052311D01*
Y0052255D01*
X0025980Y0052033D01*
X0025486Y0052144D02*
Y0052088D01*
X0025514Y0052033D01*
X0025625D01*
X0025653Y0052088D01*
Y0052366D01*
X0025681D02*
X0025570D01*
X0015806Y0072933D02*
X0015751Y0072988D01*
X0015723Y0073044D01*
Y0073155D01*
X0015751Y0073211D01*
X0015806Y0073266D01*
X0015862D01*
X0015917Y0073211D01*
X0015945Y0073155D01*
Y0073044D01*
X0015917Y0072988D01*
X0015862Y0072933D01*
X0015806D01*
X0015535D02*
X0015424D01*
X0015480D02*
Y0073266D01*
X0015424Y0073211D01*
X0014986Y0073044D02*
Y0072988D01*
X0015014Y0072933D01*
X0015125D01*
X0015153Y0072988D01*
Y0073266D01*
X0015181D02*
X0015070D01*
X0016779Y0072933D02*
X0016945Y0073266D01*
X0016723D01*
X0016535Y0072933D02*
X0016424D01*
X0016480D02*
Y0073266D01*
X0016424Y0073211D01*
X0015986Y0073044D02*
Y0072988D01*
X0016014Y0072933D01*
X0016125D01*
X0016153Y0072988D01*
Y0073266D01*
X0016181D02*
X0016070D01*
X0024903Y0057901D02*
Y0058124D01*
X0025125Y0058012D01*
Y0057957D01*
X0024791D01*
X0024958Y0058534D02*
Y0058367D01*
X0025014Y0058311D01*
X0025069D01*
X0025125Y0058367D01*
Y0058534D01*
X0024791D01*
X0024903Y0058916D02*
X0024847D01*
X0024791Y0058888D01*
Y0058777D01*
X0024847Y0058749D01*
X0025125D01*
Y0058721D02*
Y0058832D01*
X0022371Y0049336D02*
X0022426Y0049364D01*
Y0049531D01*
X0022371Y0049558D01*
X0022259D01*
X0022204Y0049503D01*
Y0049336D01*
X0022093D01*
Y0049558D01*
X0022371Y0049148D02*
X0022426Y0049121D01*
Y0048954D01*
X0022371Y0048926D01*
X0022148D01*
X0022093Y0048954D01*
Y0049121D01*
X0022148Y0049148D01*
X0022903Y0052129D02*
Y0052352D01*
X0023125Y0052241D01*
Y0052185D01*
X0022791D01*
X0022847Y0052539D02*
X0022791Y0052567D01*
Y0052734D01*
X0022847Y0052762D01*
X0023069D01*
X0023125Y0052734D01*
Y0052567D01*
X0023069Y0052539D01*
X0010249Y0020255D02*
X0010082Y0019922D01*
X0010304D01*
X0010492D02*
Y0020200D01*
X0010520Y0020255D01*
X0010603Y0020088D01*
Y0020033D02*
Y0020088D01*
X0010686Y0020255D01*
X0010714Y0020200D01*
Y0019922D01*
X0010902Y0019977D02*
X0010930Y0019922D01*
X0011096D01*
X0011124Y0019977D01*
Y0020033D01*
X0011096Y0020088D01*
X0010930D01*
X0010902Y0020144D01*
Y0020200D01*
X0010930Y0020255D01*
X0011096D01*
X0011124Y0020200D01*
X0027803Y0055353D02*
X0027748Y0055380D01*
X0027692D01*
X0027637Y0055353D01*
Y0055186D01*
X0027692Y0055158D01*
X0027748D01*
X0027803Y0055186D01*
Y0055353D01*
X0027859Y0055380D01*
X0027914D01*
X0027970Y0055353D01*
Y0055186D01*
X0027914Y0055158D01*
X0027859D01*
X0027803Y0055186D01*
X0027970Y0054970D02*
Y0054859D01*
Y0054915D02*
X0027637D01*
X0027692Y0054859D01*
X0027859Y0054422D02*
X0027914D01*
X0027970Y0054449D01*
Y0054561D01*
X0027914Y0054588D01*
X0027637D01*
Y0054616D02*
Y0054505D01*
X0029098Y0027091D02*
X0029431D01*
X0029098Y0027119D02*
Y0026952D01*
X0029209Y0026897D01*
X0029320D01*
X0029431Y0026952D01*
Y0027119D01*
X0029153Y0027307D02*
X0029098Y0027335D01*
Y0027501D01*
X0029153Y0027529D01*
X0029375D01*
X0029431Y0027501D01*
Y0027335D01*
X0029375Y0027307D01*
X0029098Y0027717D02*
Y0027911D01*
X0029431D01*
X0029264Y0028717D02*
X0029098Y0028634D01*
X0029264Y0028856D02*
Y0028690D01*
X0029320Y0028634D01*
X0029375D01*
X0029431Y0028690D01*
Y0028856D01*
X0029098D01*
X0029431Y0029044D02*
X0029320D01*
X0029098Y0029155D01*
X0029320Y0029266D01*
X0029431D01*
X0016279Y0077988D02*
X0016334Y0077933D01*
X0016445D01*
X0016501Y0077988D01*
Y0078044D01*
X0016390Y0078155D01*
X0016501Y0078266D01*
X0016279D01*
X0015869Y0078099D02*
X0016035D01*
X0016091Y0078155D01*
Y0078211D01*
X0016035Y0078266D01*
X0015869D01*
Y0077933D01*
X0015486Y0078044D02*
Y0077988D01*
X0015514Y0077933D01*
X0015625D01*
X0015653Y0077988D01*
Y0078266D01*
X0015681D02*
X0015570D01*
X0029153Y0025002D02*
X0029098Y0024974D01*
Y0024807D01*
X0029153Y0024780D01*
X0029264D01*
X0029320Y0024835D01*
Y0025002D01*
X0029431D01*
Y0024780D01*
X0029098Y0025190D02*
Y0025301D01*
Y0025245D02*
X0029431D01*
X0029375Y0025301D01*
X0029264Y0025627D02*
X0029098Y0025544D01*
X0029264Y0025766D02*
Y0025600D01*
X0029320Y0025544D01*
X0029375D01*
X0029431Y0025600D01*
Y0025766D01*
X0029098D01*
X0004144Y0027822D02*
Y0027656D01*
X0004089Y0027628D01*
X0004033D01*
X0003978Y0027656D01*
Y0027822D01*
X0004033Y0027850D01*
X0004089D01*
X0004311Y0027739D01*
X0007006Y0028253D02*
X0007061Y0028281D01*
Y0028447D01*
X0007006Y0028475D01*
X0006895D01*
X0006839Y0028419D01*
Y0028253D01*
X0006728D01*
Y0028475D01*
X0013385Y0039186D02*
X0013440Y0039158D01*
X0013496D01*
X0013551Y0039186D01*
Y0039352D01*
X0013496Y0039380D01*
X0013440D01*
X0013385Y0039352D01*
Y0039186D01*
X0013329Y0039158D01*
X0013273D01*
X0013218Y0039186D01*
Y0039352D01*
X0013273Y0039380D01*
X0013329D01*
X0013385Y0039352D01*
X0013329Y0039762D02*
X0013273D01*
X0013218Y0039734D01*
Y0039623D01*
X0013273Y0039596D01*
X0013551D01*
Y0039568D02*
Y0039679D01*
X0012391Y0054467D02*
Y0054578D01*
Y0054522D02*
X0012725D01*
X0012669Y0054578D01*
X0012503Y0055016D02*
X0012447D01*
X0012391Y0054988D01*
Y0054877D01*
X0012447Y0054849D01*
X0012725D01*
Y0054821D02*
Y0054932D01*
X0029209Y0021280D02*
Y0021502D01*
X0029431Y0021391D01*
Y0021335D01*
X0029098D01*
Y0021690D02*
Y0021801D01*
Y0021745D02*
X0029431D01*
X0029375Y0021801D01*
X0029264Y0022127D02*
X0029098Y0022044D01*
X0029264Y0022266D02*
Y0022100D01*
X0029320Y0022044D01*
X0029375D01*
X0029431Y0022100D01*
Y0022266D01*
X0029098D01*
X0002509Y0056294D02*
X0030405D01*
Y0046904D01*
X0002509D01*
Y0056294D01*
X0018809Y0052394D02*
Y0054394D01*
X0017809D01*
Y0052394D01*
X0018809D01*
X0023609Y0048794D02*
Y0050794D01*
X0022609D02*
Y0048794D01*
X0023609D01*
Y0050794D01*
X0022609D01*
X0010509Y0021744D02*
Y0024744D01*
X0007509D01*
Y0021744D01*
X0010509D01*
X0013959Y0024794D02*
Y0027794D01*
X0010959D01*
Y0024794D01*
X0013959D01*
X0021609Y0052894D02*
Y0050894D01*
X0021959Y0024794D02*
Y0027794D01*
X0018959D01*
Y0024794D01*
X0021959D01*
X0022609Y0050894D02*
Y0052894D01*
X0021609D01*
Y0050894D01*
X0022609D01*
X0017959Y0028794D02*
Y0031794D01*
X0014959D01*
Y0028794D01*
X0017959D01*
Y0020794D02*
Y0023794D01*
X0014959D01*
Y0020794D01*
X0017959D01*
X0002894Y0032239D02*
Y0019989D01*
X0003019Y0019864D02*
X0008019D01*
X0008144Y0019989D02*
Y0032239D01*
X0008019Y0032364D02*
X0003019D01*
X0003769Y0028864D02*
X0007269Y0029364D01*
Y0022864D01*
X0003769Y0023364D01*
Y0028864D01*
X0009709Y0054994D02*
X0011209D01*
Y0046994D01*
X0009209D01*
Y0054994D01*
X0009709D01*
Y0054744D01*
X0010709D01*
Y0054994D01*
X0022109Y0058894D02*
X0023609D01*
Y0045144D01*
X0021609D01*
Y0058894D01*
X0022109D01*
Y0058644D01*
X0023109D01*
Y0058894D01*
X0018809Y0054394D02*
Y0052394D01*
X0019809D02*
Y0054394D01*
X0018809D01*
Y0052394D01*
X0019809D01*
X0017809Y0054394D02*
Y0052394D01*
G01X0018959Y0060794D02*
G03X0016459Y0063294I0002500J0000000D01*
G03X0013959Y0060794I0000000J0002500D01*
G03X0016459Y0058294I0002500J0000000D01*
G03X0018959Y0060794I0000000J0002500D01*
G01X0002894Y0019989D02*
G03X0003019Y0019864I0000125J0000000D01*
G01X0008019D02*
G03X0008144Y0019989I0000000J0000125D01*
Y0032239D02*
G03X0008019Y0032364I0000125J0000000D01*
G01X0003019D02*
G03X0002894Y0032239I0000000J0000125D01*
G01X0018959Y0060794D02*
G03X0016459Y0063294I0002500J0000000D01*
G03X0013959Y0060794I0000000J0002500D01*
G03X0016459Y0058294I0002500J0000000D01*
G03X0018959Y0060794I0000000J0002500D01*
G54D107*
G01X0020959Y0018444D02*
Y0021944D01*
X0022959D01*
Y0017444D01*
X0020959D01*
Y0018444D01*
X0029959Y0019294D02*
Y0017294D01*
X0031959D01*
Y0019294D01*
X0029959D01*
X0004459Y0062794D02*
Y0060794D01*
X0006459D01*
Y0062794D01*
X0004459D01*
X0015459Y0070294D02*
Y0068294D01*
X0017459D01*
Y0070294D01*
X0015459D01*
Y0027294D02*
Y0025294D01*
X0017459D01*
Y0027294D01*
X0015459D01*
X0026459Y0062794D02*
Y0060794D01*
X0028459D01*
Y0062794D01*
X0026459D01*
X0000959Y0019294D02*
Y0017294D01*
X0002959D01*
Y0019294D01*
X0000959D01*
G54D108*
G01X0005763Y0052921D02*
X0005645D01*
X0007772D02*
X0005763D01*
X0006709Y0050421D02*
X0005956Y0049669D01*
X0005763Y0050421D02*
X0005645D01*
X0007772D02*
X0005763D01*
X0005686D02*
X0005646Y0050381D01*
X0005765Y0050421D02*
X0005651Y0050308D01*
X0005843Y0050421D02*
X0005661Y0050239D01*
X0005922Y0050421D02*
X0005674Y0050173D01*
X0006001Y0050421D02*
X0005691Y0050112D01*
X0006079Y0050421D02*
X0005711Y0050053D01*
X0006158Y0050421D02*
X0005733Y0049997D01*
X0006237Y0050421D02*
X0005758Y0049943D01*
X0006315Y0050421D02*
X0005786Y0049892D01*
X0006394Y0050421D02*
X0005816Y0049843D01*
X0006473Y0050421D02*
X0005848Y0049796D01*
X0006551Y0050421D02*
X0005882Y0049752D01*
X0006630Y0050421D02*
X0005918Y0049709D01*
X0007541Y0049759D02*
X0007371Y0049589D01*
X0007670Y0049967D02*
X0007163Y0049459D01*
X0007722Y0050097D02*
X0007033Y0049408D01*
X0007750Y0050204D02*
X0006926Y0049380D01*
X0007765Y0050298D02*
X0006832Y0049365D01*
X0007771Y0050383D02*
X0006747Y0049358D01*
X0007731Y0050421D02*
X0006668Y0049358D01*
X0007653Y0050421D02*
X0006595Y0049364D01*
X0007574Y0050421D02*
X0006526Y0049373D01*
X0007495Y0050421D02*
X0006461Y0049387D01*
X0007417Y0050421D02*
X0006399Y0049404D01*
X0007338Y0050421D02*
X0006340Y0049423D01*
X0007259Y0050421D02*
X0006284Y0049446D01*
X0007181Y0050421D02*
X0006230Y0049471D01*
X0007102Y0050421D02*
X0006179Y0049499D01*
X0007023Y0050421D02*
X0006130Y0049528D01*
X0006945Y0050421D02*
X0006084Y0049560D01*
X0006866Y0050421D02*
X0006039Y0049594D01*
X0006787Y0050421D02*
X0005997Y0049631D01*
X0005763Y0050421D02*
X0005645D01*
X0007772D02*
X0005763D01*
X0006681Y0047794D02*
X0005929Y0047042D01*
X0005736Y0047794D02*
X0005618D01*
X0007745D02*
X0005736D01*
X0005659D02*
X0005618Y0047754D01*
X0005737Y0047794D02*
X0005624Y0047680D01*
X0005816Y0047794D02*
X0005633Y0047611D01*
X0005895Y0047794D02*
X0005647Y0047546D01*
X0005973Y0047794D02*
X0005664Y0047484D01*
X0006052Y0047794D02*
X0005683Y0047425D01*
X0006131Y0047794D02*
X0005706Y0047369D01*
X0006209Y0047794D02*
X0005731Y0047316D01*
X0006288Y0047794D02*
X0005759Y0047265D01*
X0006367Y0047794D02*
X0005788Y0047216D01*
X0006445Y0047794D02*
X0005820Y0047169D01*
X0006524Y0047794D02*
X0005854Y0047124D01*
X0006603Y0047794D02*
X0005891Y0047082D01*
X0007513Y0047131D02*
X0007344Y0046962D01*
X0007643Y0047340D02*
X0007135Y0046832D01*
X0007694Y0047470D02*
X0007005Y0046781D01*
X0007722Y0047576D02*
X0006899Y0046753D01*
X0007738Y0047670D02*
X0006805Y0046737D01*
X0007744Y0047755D02*
X0006720Y0046731D01*
X0007704Y0047794D02*
X0006641Y0046731D01*
X0007625Y0047794D02*
X0006568Y0046736D01*
X0007547Y0047794D02*
X0006499Y0046746D01*
X0007468Y0047794D02*
X0006433Y0046759D01*
X0007389Y0047794D02*
X0006372Y0046776D01*
X0007311Y0047794D02*
X0006313Y0046796D01*
X0007232Y0047794D02*
X0006257Y0046819D01*
X0007153Y0047794D02*
X0006203Y0046844D01*
X0007075Y0047794D02*
X0006152Y0046871D01*
X0006996Y0047794D02*
X0006103Y0046901D01*
X0006917Y0047794D02*
X0006056Y0046933D01*
X0006839Y0047794D02*
X0006012Y0046967D01*
X0006760Y0047794D02*
X0005969Y0047003D01*
X0005736Y0047794D02*
X0005618D01*
X0007745D02*
X0005736D01*
X0006636Y0056457D02*
X0005573Y0055394D01*
X0007700D02*
X0007581D01*
X0005573D01*
X0006095Y0056310D02*
X0005720Y0055934D01*
X0006248Y0056384D02*
X0005645Y0055781D01*
X0006365Y0056422D02*
X0005607Y0055665D01*
X0006465Y0056444D02*
X0005586Y0055565D01*
X0006554Y0056454D02*
X0005575Y0055475D01*
X0007697Y0055473D02*
X0007618Y0055394D01*
X0007689Y0055544D02*
X0007539Y0055394D01*
X0007677Y0055611D02*
X0007461Y0055394D01*
X0007662Y0055674D02*
X0007382Y0055394D01*
X0007644Y0055734D02*
X0007303Y0055394D01*
X0007622Y0055792D02*
X0007225Y0055394D01*
X0007598Y0055846D02*
X0007146Y0055394D01*
X0007572Y0055899D02*
X0007067Y0055394D01*
X0007543Y0055949D02*
X0006989Y0055394D01*
X0007512Y0055996D02*
X0006910Y0055394D01*
X0007479Y0056042D02*
X0006831Y0055394D01*
X0007444Y0056085D02*
X0006753Y0055394D01*
X0007407Y0056127D02*
X0006674Y0055394D01*
X0007367Y0056166D02*
X0006595Y0055394D01*
X0007326Y0056203D02*
X0006517Y0055394D01*
X0007282Y0056238D02*
X0006438Y0055394D01*
X0007237Y0056271D02*
X0006359Y0055394D01*
X0007189Y0056302D02*
X0006281Y0055394D01*
X0007139Y0056331D02*
X0006202Y0055394D01*
X0007087Y0056357D02*
X0006123Y0055394D01*
X0007032Y0056381D02*
X0006045Y0055394D01*
X0006974Y0056402D02*
X0005966Y0055394D01*
X0006914Y0056421D02*
X0005887Y0055394D01*
X0006850Y0056436D02*
X0005809Y0055394D01*
X0006783Y0056447D02*
X0005730Y0055394D01*
X0006712Y0056455D02*
X0005651Y0055394D01*
X0007581D02*
X0007700D01*
X0005573D02*
X0007581D01*
X0009664Y0023899D02*
X0008353Y0022588D01*
X0008562Y0024056D02*
X0008196Y0023690D01*
X0008704Y0024119D02*
X0008133Y0023548D01*
X0008813Y0024150D02*
X0008102Y0023439D01*
X0008907Y0024165D02*
X0008087Y0023345D01*
X0008991Y0024171D02*
X0008082Y0023261D01*
X0009068Y0024169D02*
X0008084Y0023184D01*
X0009139Y0024161D02*
X0008091Y0023113D01*
X0009206Y0024149D02*
X0008103Y0023046D01*
X0009269Y0024133D02*
X0008119Y0022984D01*
X0009328Y0024114D02*
X0008138Y0022924D01*
X0009384Y0024091D02*
X0008161Y0022868D01*
X0009437Y0024066D02*
X0008187Y0022815D01*
X0009487Y0024037D02*
X0008215Y0022765D01*
X0009535Y0024007D02*
X0008246Y0022717D01*
X0009581Y0023973D02*
X0008279Y0022672D01*
X0009623Y0023937D02*
X0008315Y0022629D01*
X0009821Y0022798D02*
X0009455Y0022431D01*
X0009884Y0022939D02*
X0009313Y0022368D01*
X0009915Y0023049D02*
X0009204Y0022338D01*
X0009930Y0023143D02*
X0009110Y0022322D01*
X0009935Y0023227D02*
X0009026Y0022317D01*
X0009933Y0023303D02*
X0008949Y0022319D01*
X0009926Y0023375D02*
X0008878Y0022326D01*
X0009914Y0023441D02*
X0008811Y0022338D01*
X0009898Y0023504D02*
X0008748Y0022354D01*
X0009879Y0023563D02*
X0008689Y0022374D01*
X0009856Y0023619D02*
X0008633Y0022396D01*
X0009830Y0023672D02*
X0008580Y0022422D01*
X0009802Y0023723D02*
X0008530Y0022450D01*
X0009771Y0023771D02*
X0008482Y0022481D01*
X0009738Y0023816D02*
X0008436Y0022514D01*
X0009702Y0023859D02*
X0008394Y0022550D01*
X0013114Y0026949D02*
X0011803Y0025638D01*
X0012012Y0027106D02*
X0011646Y0026740D01*
X0012154Y0027169D02*
X0011583Y0026598D01*
X0012263Y0027200D02*
X0011552Y0026489D01*
X0012357Y0027215D02*
X0011537Y0026395D01*
X0012441Y0027221D02*
X0011532Y0026311D01*
X0012518Y0027219D02*
X0011534Y0026234D01*
X0012589Y0027211D02*
X0011541Y0026163D01*
X0012656Y0027199D02*
X0011553Y0026096D01*
X0012719Y0027183D02*
X0011569Y0026034D01*
X0012778Y0027164D02*
X0011588Y0025974D01*
X0012834Y0027141D02*
X0011611Y0025918D01*
X0012887Y0027116D02*
X0011637Y0025865D01*
X0012937Y0027087D02*
X0011665Y0025815D01*
X0012985Y0027057D02*
X0011696Y0025767D01*
X0013031Y0027023D02*
X0011729Y0025722D01*
X0013073Y0026987D02*
X0011765Y0025679D01*
X0013271Y0025848D02*
X0012905Y0025481D01*
X0013334Y0025989D02*
X0012763Y0025418D01*
X0013365Y0026099D02*
X0012654Y0025388D01*
X0013380Y0026193D02*
X0012560Y0025372D01*
X0013385Y0026277D02*
X0012476Y0025367D01*
X0013383Y0026353D02*
X0012399Y0025369D01*
X0013376Y0026425D02*
X0012328Y0025376D01*
X0013364Y0026491D02*
X0012261Y0025388D01*
X0013348Y0026554D02*
X0012198Y0025404D01*
X0013329Y0026613D02*
X0012139Y0025424D01*
X0013306Y0026669D02*
X0012083Y0025446D01*
X0013280Y0026722D02*
X0012030Y0025472D01*
X0013252Y0026773D02*
X0011980Y0025500D01*
X0013221Y0026821D02*
X0011932Y0025531D01*
X0013188Y0026866D02*
X0011886Y0025564D01*
X0013152Y0026909D02*
X0011844Y0025600D01*
X0021114Y0026949D02*
X0019803Y0025638D01*
X0020012Y0027106D02*
X0019646Y0026740D01*
X0020154Y0027169D02*
X0019583Y0026598D01*
X0020263Y0027200D02*
X0019552Y0026489D01*
X0020357Y0027215D02*
X0019537Y0026395D01*
X0020441Y0027221D02*
X0019532Y0026311D01*
X0020518Y0027219D02*
X0019534Y0026234D01*
X0020589Y0027211D02*
X0019541Y0026163D01*
X0020656Y0027199D02*
X0019553Y0026096D01*
X0020719Y0027183D02*
X0019569Y0026034D01*
X0020778Y0027164D02*
X0019588Y0025974D01*
X0020834Y0027141D02*
X0019611Y0025918D01*
X0020887Y0027116D02*
X0019637Y0025865D01*
X0020937Y0027087D02*
X0019665Y0025815D01*
X0020985Y0027057D02*
X0019696Y0025767D01*
X0021031Y0027023D02*
X0019729Y0025722D01*
X0021073Y0026987D02*
X0019765Y0025679D01*
X0021271Y0025848D02*
X0020905Y0025481D01*
X0021334Y0025989D02*
X0020763Y0025418D01*
X0021365Y0026099D02*
X0020654Y0025388D01*
X0021380Y0026193D02*
X0020560Y0025372D01*
X0021385Y0026277D02*
X0020476Y0025367D01*
X0021383Y0026353D02*
X0020399Y0025369D01*
X0021376Y0026425D02*
X0020328Y0025376D01*
X0021364Y0026491D02*
X0020261Y0025388D01*
X0021348Y0026554D02*
X0020198Y0025404D01*
X0021329Y0026613D02*
X0020139Y0025424D01*
X0021306Y0026669D02*
X0020083Y0025446D01*
X0021280Y0026722D02*
X0020030Y0025472D01*
X0021252Y0026773D02*
X0019980Y0025500D01*
X0021221Y0026821D02*
X0019932Y0025531D01*
X0021188Y0026866D02*
X0019886Y0025564D01*
X0021152Y0026909D02*
X0019844Y0025600D01*
X0017114Y0030949D02*
X0015803Y0029638D01*
X0016012Y0031106D02*
X0015646Y0030740D01*
X0016154Y0031169D02*
X0015583Y0030598D01*
X0016263Y0031200D02*
X0015552Y0030489D01*
X0016357Y0031215D02*
X0015537Y0030395D01*
X0016441Y0031221D02*
X0015532Y0030311D01*
X0016518Y0031219D02*
X0015534Y0030234D01*
X0016589Y0031211D02*
X0015541Y0030163D01*
X0016656Y0031199D02*
X0015553Y0030096D01*
X0016719Y0031183D02*
X0015569Y0030034D01*
X0016778Y0031164D02*
X0015588Y0029974D01*
X0016834Y0031141D02*
X0015611Y0029918D01*
X0016887Y0031116D02*
X0015637Y0029865D01*
X0016937Y0031087D02*
X0015665Y0029815D01*
X0016985Y0031057D02*
X0015696Y0029767D01*
X0017031Y0031023D02*
X0015729Y0029722D01*
X0017073Y0030987D02*
X0015765Y0029679D01*
X0017271Y0029848D02*
X0016905Y0029481D01*
X0017334Y0029989D02*
X0016763Y0029418D01*
X0017365Y0030099D02*
X0016654Y0029388D01*
X0017380Y0030193D02*
X0016560Y0029372D01*
X0017385Y0030277D02*
X0016476Y0029367D01*
X0017383Y0030353D02*
X0016399Y0029369D01*
X0017376Y0030425D02*
X0016328Y0029376D01*
X0017364Y0030491D02*
X0016261Y0029388D01*
X0017348Y0030554D02*
X0016198Y0029404D01*
X0017329Y0030613D02*
X0016139Y0029424D01*
X0017306Y0030669D02*
X0016083Y0029446D01*
X0017280Y0030722D02*
X0016030Y0029472D01*
X0017252Y0030773D02*
X0015980Y0029500D01*
X0017221Y0030821D02*
X0015932Y0029531D01*
X0017188Y0030866D02*
X0015886Y0029564D01*
X0017152Y0030909D02*
X0015844Y0029600D01*
X0017114Y0022949D02*
X0015803Y0021638D01*
X0016012Y0023106D02*
X0015646Y0022740D01*
X0016154Y0023169D02*
X0015583Y0022598D01*
X0016263Y0023200D02*
X0015552Y0022489D01*
X0016357Y0023215D02*
X0015537Y0022395D01*
X0016441Y0023221D02*
X0015532Y0022311D01*
X0016518Y0023219D02*
X0015534Y0022234D01*
X0016589Y0023211D02*
X0015541Y0022163D01*
X0016656Y0023199D02*
X0015553Y0022096D01*
X0016719Y0023183D02*
X0015569Y0022034D01*
X0016778Y0023164D02*
X0015588Y0021974D01*
X0016834Y0023141D02*
X0015611Y0021918D01*
X0016887Y0023116D02*
X0015637Y0021865D01*
X0016937Y0023087D02*
X0015665Y0021815D01*
X0016985Y0023057D02*
X0015696Y0021767D01*
X0017031Y0023023D02*
X0015729Y0021722D01*
X0017073Y0022987D02*
X0015765Y0021679D01*
X0017271Y0021848D02*
X0016905Y0021481D01*
X0017334Y0021989D02*
X0016763Y0021418D01*
X0017365Y0022099D02*
X0016654Y0021388D01*
X0017380Y0022193D02*
X0016560Y0021372D01*
X0017385Y0022277D02*
X0016476Y0021367D01*
X0017383Y0022353D02*
X0016399Y0021369D01*
X0017376Y0022425D02*
X0016328Y0021376D01*
X0017364Y0022491D02*
X0016261Y0021388D01*
X0017348Y0022554D02*
X0016198Y0021404D01*
X0017329Y0022613D02*
X0016139Y0021424D01*
X0017306Y0022669D02*
X0016083Y0021446D01*
X0017280Y0022722D02*
X0016030Y0021472D01*
X0017252Y0022773D02*
X0015980Y0021500D01*
X0017221Y0022821D02*
X0015932Y0021531D01*
X0017188Y0022866D02*
X0015886Y0021564D01*
X0017152Y0022909D02*
X0015844Y0021600D01*
X0016513Y0058312D02*
Y0063275D01*
X0016459Y0060704D02*
X0014784Y0059029D01*
X0015429Y0058544D02*
X0016459Y0058294D01*
X0015429Y0058544D02*
X0015419D01*
X0015319Y0058644D02*
X0015419Y0058544D01*
X0015319Y0058644D02*
X0015249D01*
X0015179Y0058714D02*
X0015249Y0058644D01*
X0015179Y0058714D02*
X0015099D01*
X0014649Y0059164D02*
X0015099Y0058714D01*
X0014649Y0059194D02*
Y0059164D01*
X0014329Y0059514D02*
X0014649Y0059194D01*
X0014329Y0059604D02*
Y0059514D01*
X0014249Y0059684D02*
X0014329Y0059604D01*
X0014249Y0059764D02*
Y0059684D01*
X0014179Y0059834D02*
X0014249Y0059764D01*
X0014179Y0059904D02*
Y0059834D01*
X0014119Y0059964D02*
X0014179Y0059904D01*
X0014119Y0060144D02*
Y0059964D01*
X0014049Y0060214D02*
X0014119Y0060144D01*
X0014049Y0061264D02*
Y0060214D01*
X0014109Y0061324D02*
X0014049Y0061264D01*
X0014109Y0061494D02*
Y0061324D01*
X0014169Y0061554D02*
X0014109Y0061494D01*
X0014169Y0061714D02*
Y0061554D01*
X0014239Y0061714D02*
X0014169D01*
X0014239Y0061844D02*
Y0061714D01*
X0014389Y0061994D02*
X0014239Y0061844D01*
X0014389Y0061994D02*
X0014309D01*
X0014439Y0062124D02*
X0014309Y0061994D01*
X0014439Y0062164D02*
Y0062124D01*
Y0062164D02*
X0014479Y0062124D01*
Y0062254D02*
Y0062124D01*
X0014949Y0062724D02*
X0014479Y0062254D01*
X0014999Y0062724D02*
X0014949D01*
X0015169Y0062894D02*
X0014999Y0062724D01*
X0015219Y0062894D02*
X0015169D01*
X0015299Y0062974D02*
X0015219Y0062894D01*
X0015389Y0062974D02*
X0015299D01*
X0015449Y0063034D02*
X0015389Y0062974D01*
X0015549Y0063034D02*
X0015449D01*
X0015589Y0063074D02*
X0015549Y0063034D01*
X0015619Y0063074D02*
X0015589D01*
X0015679Y0063134D02*
X0015619Y0063074D01*
X0015789Y0063134D02*
X0015679D01*
X0015839Y0063184D02*
X0015789Y0063134D01*
X0016079Y0063184D02*
X0015839D01*
X0016129Y0063234D02*
X0016079Y0063184D01*
X0016459Y0063234D02*
X0016129D01*
X0016459D02*
Y0058294D01*
X0015187Y0062894D02*
X0014479Y0062185D01*
X0015346Y0062974D02*
X0014366Y0061994D01*
X0015485Y0063034D02*
X0014239Y0061788D01*
X0015603Y0063074D02*
X0014169Y0061639D01*
X0015742Y0063134D02*
X0014169Y0061561D01*
X0015871Y0063184D02*
X0014109Y0061422D01*
X0015949Y0063184D02*
X0014109Y0061343D01*
X0016028Y0063184D02*
X0014049Y0061205D01*
X0016157Y0063234D02*
X0014049Y0061126D01*
X0016235Y0063234D02*
X0014049Y0061047D01*
X0016314Y0063234D02*
X0014049Y0060969D01*
X0016393Y0063234D02*
X0014049Y0060890D01*
X0016459Y0063221D02*
X0014049Y0060811D01*
X0016459Y0063143D02*
X0014049Y0060733D01*
X0016459Y0063064D02*
X0014049Y0060654D01*
X0016459Y0062985D02*
X0014049Y0060575D01*
X0016459Y0062907D02*
X0014049Y0060497D01*
X0016459Y0062828D02*
X0014049Y0060418D01*
X0016459Y0062749D02*
X0014049Y0060339D01*
X0016459Y0062671D02*
X0014049Y0060261D01*
X0016459Y0062592D02*
X0014065Y0060198D01*
X0016459Y0062513D02*
X0014104Y0060159D01*
X0016459Y0062435D02*
X0014119Y0060095D01*
X0016459Y0062356D02*
X0014119Y0060016D01*
X0016459Y0062277D02*
X0014132Y0059951D01*
X0016459Y0062199D02*
X0014171Y0059911D01*
X0016459Y0062120D02*
X0014179Y0059840D01*
X0016459Y0062041D02*
X0014215Y0059798D01*
X0016459Y0061963D02*
X0014249Y0059753D01*
X0016459Y0061884D02*
X0014254Y0059679D01*
X0016459Y0061805D02*
X0014293Y0059640D01*
X0016459Y0061727D02*
X0014329Y0059597D01*
X0016459Y0061648D02*
X0014329Y0059518D01*
X0016459Y0061569D02*
X0014366Y0059477D01*
X0016459Y0061491D02*
X0014405Y0059437D01*
X0016459Y0061412D02*
X0014445Y0059398D01*
X0016459Y0061333D02*
X0014484Y0059359D01*
X0016459Y0061255D02*
X0014523Y0059319D01*
X0016459Y0061176D02*
X0014563Y0059280D01*
X0016459Y0061097D02*
X0014602Y0059241D01*
X0016459Y0061019D02*
X0014641Y0059201D01*
X0016459Y0060940D02*
X0014666Y0059147D01*
X0016459Y0060861D02*
X0014705Y0059108D01*
X0016459Y0060783D02*
X0014744Y0059068D01*
X0016459Y0058344D02*
X0016418Y0058304D01*
X0016459Y0058423D02*
X0016355Y0058319D01*
X0016459Y0058501D02*
X0016292Y0058334D01*
X0016459Y0058580D02*
X0016228Y0058350D01*
X0016459Y0058659D02*
X0016165Y0058365D01*
X0016459Y0058737D02*
X0016102Y0058380D01*
X0016459Y0058816D02*
X0016038Y0058396D01*
X0016459Y0058895D02*
X0015975Y0058411D01*
X0016459Y0058973D02*
X0015912Y0058427D01*
X0016459Y0059052D02*
X0015849Y0058442D01*
X0016459Y0059131D02*
X0015785Y0058457D01*
X0016459Y0059209D02*
X0015722Y0058473D01*
X0016459Y0059288D02*
X0015659Y0058488D01*
X0016459Y0059367D02*
X0015595Y0058503D01*
X0016459Y0059445D02*
X0015532Y0058519D01*
X0016459Y0059524D02*
X0015469Y0058534D01*
X0016459Y0059603D02*
X0015409Y0058553D01*
X0016459Y0059681D02*
X0015370Y0058593D01*
X0016459Y0059760D02*
X0015331Y0058632D01*
X0016459Y0059839D02*
X0015264Y0058644D01*
X0016459Y0059917D02*
X0015217Y0058676D01*
X0016459Y0059996D02*
X0015178Y0058715D01*
X0016459Y0060075D02*
X0015098Y0058714D01*
X0016459Y0060153D02*
X0015059Y0058754D01*
X0016459Y0060232D02*
X0015020Y0058793D01*
X0016459Y0060311D02*
X0014980Y0058832D01*
X0016459Y0060389D02*
X0014941Y0058872D01*
X0016459Y0060468D02*
X0014902Y0058911D01*
X0016459Y0060547D02*
X0014862Y0058950D01*
X0016459Y0060625D02*
X0014823Y0058990D01*
X0011459Y0063830D02*
X0010395Y0062767D01*
X0012522D02*
X0012404D01*
X0010395D01*
X0010918Y0063683D02*
X0010542Y0063307D01*
X0011071Y0063757D02*
X0010468Y0063154D01*
X0011188Y0063795D02*
X0010430Y0063037D01*
X0011288Y0063816D02*
X0010409Y0062937D01*
X0011377Y0063827D02*
X0010398Y0062848D01*
X0012519Y0062845D02*
X0012441Y0062767D01*
X0012512Y0062916D02*
X0012362Y0062767D01*
X0012500Y0062983D02*
X0012283Y0062767D01*
X0012485Y0063047D02*
X0012205Y0062767D01*
X0012466Y0063107D02*
X0012126Y0062767D01*
X0012445Y0063164D02*
X0012047Y0062767D01*
X0012421Y0063219D02*
X0011969Y0062767D01*
X0012395Y0063271D02*
X0011890Y0062767D01*
X0012366Y0063321D02*
X0011811Y0062767D01*
X0012335Y0063369D02*
X0011733Y0062767D01*
X0012302Y0063415D02*
X0011654Y0062767D01*
X0012267Y0063458D02*
X0011575Y0062767D01*
X0012229Y0063499D02*
X0011497Y0062767D01*
X0012190Y0063539D02*
X0011418Y0062767D01*
X0012149Y0063576D02*
X0011339Y0062767D01*
X0012105Y0063611D02*
X0011261Y0062767D01*
X0012059Y0063644D02*
X0011182Y0062767D01*
X0012012Y0063675D02*
X0011103Y0062767D01*
X0011962Y0063704D02*
X0011025Y0062767D01*
X0011909Y0063730D02*
X0010946Y0062767D01*
X0011854Y0063754D02*
X0010867Y0062767D01*
X0011797Y0063775D02*
X0010789Y0062767D01*
X0011737Y0063793D02*
X0010710Y0062767D01*
X0011673Y0063808D02*
X0010631Y0062767D01*
X0011606Y0063820D02*
X0010553Y0062767D01*
X0011535Y0063827D02*
X0010474Y0062767D01*
X0012404D02*
X0012522D01*
X0010395D02*
X0012404D01*
X0008695Y0027767D02*
X0009168Y0027294D01*
X0008695Y0026821D01*
Y0027767D02*
Y0026821D01*
X0008735Y0027727D02*
X0008695Y0027687D01*
X0008774D02*
X0008695Y0027608D01*
X0008814Y0027648D02*
X0008695Y0027529D01*
X0008853Y0027609D02*
X0008695Y0027451D01*
X0008892Y0027569D02*
X0008695Y0027372D01*
X0008932Y0027530D02*
X0008695Y0027293D01*
X0008971Y0027491D02*
X0008695Y0027215D01*
X0009010Y0027451D02*
X0008695Y0027136D01*
X0009050Y0027412D02*
X0008695Y0027057D01*
X0009089Y0027373D02*
X0008695Y0026979D01*
X0009128Y0027333D02*
X0008695Y0026900D01*
X0021459Y0063830D02*
X0020395Y0062767D01*
X0022522D02*
X0022404D01*
X0020395D01*
X0020918Y0063683D02*
X0020542Y0063307D01*
X0021071Y0063757D02*
X0020468Y0063154D01*
X0021188Y0063795D02*
X0020430Y0063037D01*
X0021288Y0063816D02*
X0020409Y0062937D01*
X0021377Y0063827D02*
X0020398Y0062848D01*
X0022519Y0062845D02*
X0022441Y0062767D01*
X0022512Y0062916D02*
X0022362Y0062767D01*
X0022500Y0062983D02*
X0022283Y0062767D01*
X0022485Y0063047D02*
X0022205Y0062767D01*
X0022466Y0063107D02*
X0022126Y0062767D01*
X0022445Y0063164D02*
X0022047Y0062767D01*
X0022421Y0063219D02*
X0021969Y0062767D01*
X0022395Y0063271D02*
X0021890Y0062767D01*
X0022366Y0063321D02*
X0021811Y0062767D01*
X0022335Y0063369D02*
X0021733Y0062767D01*
X0022302Y0063415D02*
X0021654Y0062767D01*
X0022267Y0063458D02*
X0021575Y0062767D01*
X0022229Y0063499D02*
X0021497Y0062767D01*
X0022190Y0063539D02*
X0021418Y0062767D01*
X0022149Y0063576D02*
X0021339Y0062767D01*
X0022105Y0063611D02*
X0021261Y0062767D01*
X0022059Y0063644D02*
X0021182Y0062767D01*
X0022012Y0063675D02*
X0021103Y0062767D01*
X0021962Y0063704D02*
X0021025Y0062767D01*
X0021909Y0063730D02*
X0020946Y0062767D01*
X0021854Y0063754D02*
X0020867Y0062767D01*
X0021797Y0063775D02*
X0020789Y0062767D01*
X0021737Y0063793D02*
X0020710Y0062767D01*
X0021673Y0063808D02*
X0020631Y0062767D01*
X0021606Y0063820D02*
X0020553Y0062767D01*
X0021535Y0063827D02*
X0020474Y0062767D01*
X0022404D02*
X0022522D01*
X0020395D02*
X0022404D01*
X0006709Y0052921D02*
X0005956Y0052169D01*
X0005763Y0052921D02*
X0005645D01*
X0007772D02*
X0005763D01*
X0005686D02*
X0005646Y0052881D01*
X0005765Y0052921D02*
X0005651Y0052808D01*
X0005843Y0052921D02*
X0005661Y0052739D01*
X0005922Y0052921D02*
X0005674Y0052673D01*
X0006001Y0052921D02*
X0005691Y0052612D01*
X0006079Y0052921D02*
X0005711Y0052553D01*
X0006158Y0052921D02*
X0005733Y0052497D01*
X0006237Y0052921D02*
X0005758Y0052443D01*
X0006315Y0052921D02*
X0005786Y0052392D01*
X0006394Y0052921D02*
X0005816Y0052343D01*
X0006473Y0052921D02*
X0005848Y0052296D01*
X0006551Y0052921D02*
X0005882Y0052252D01*
X0006630Y0052921D02*
X0005918Y0052209D01*
X0007541Y0052259D02*
X0007371Y0052089D01*
X0007670Y0052467D02*
X0007163Y0051959D01*
X0007722Y0052597D02*
X0007033Y0051908D01*
X0007750Y0052704D02*
X0006926Y0051880D01*
X0007765Y0052798D02*
X0006832Y0051865D01*
X0007771Y0052883D02*
X0006747Y0051858D01*
X0007731Y0052921D02*
X0006668Y0051858D01*
X0007653Y0052921D02*
X0006595Y0051864D01*
X0007574Y0052921D02*
X0006526Y0051873D01*
X0007495Y0052921D02*
X0006461Y0051887D01*
X0007417Y0052921D02*
X0006399Y0051904D01*
X0007338Y0052921D02*
X0006340Y0051923D01*
X0007259Y0052921D02*
X0006284Y0051946D01*
X0007181Y0052921D02*
X0006230Y0051971D01*
X0007102Y0052921D02*
X0006179Y0051999D01*
X0007023Y0052921D02*
X0006130Y0052028D01*
X0006945Y0052921D02*
X0006084Y0052060D01*
X0006866Y0052921D02*
X0006039Y0052094D01*
X0006787Y0052921D02*
X0005997Y0052131D01*
G01X0006709Y0051857D02*
G03X0007773Y0052921I0000000J0001064D01*
G01X0005645D02*
G03X0006709Y0051857I0001064J0000000D01*
G01X0005645Y0050421D02*
G03X0006709Y0049357I0001064J0000000D01*
Y0049358D02*
G03X0007772Y0050421I0000000J0001063D01*
G01X0006709Y0049357D02*
G03X0007773Y0050421I0000000J0001064D01*
G01X0005645D02*
G03X0006709Y0049357I0001064J0000000D01*
G01X0005618Y0047794D02*
G03X0006681Y0046731I0001063J0000000D01*
Y0046730D02*
G03X0007745Y0047794I0000000J0001064D01*
G01X0006681Y0046731D02*
G03X0007744Y0047794I0000000J0001063D01*
G01X0005618D02*
G03X0006681Y0046731I0001063J0000000D01*
G01X0007700Y0055394D02*
G03X0006636Y0056458I0001064J0000000D01*
G03X0005572Y0055394I0000000J0001064D01*
G01X0006636Y0056458D02*
G03X0005572Y0055394I0000000J0001064D01*
G01X0007700D02*
G03X0006636Y0056458I0001064J0000000D01*
G01X0009009Y0022317D02*
G03X0009936Y0023244I0000000J0000927D01*
G01X0008082D02*
G03X0009009Y0022317I0000927J0000000D01*
Y0024171D02*
G03X0008082Y0023244I0000000J0000927D01*
G01X0009935D02*
G03X0009009Y0024170I0000926J0000000D01*
G01X0012459Y0025367D02*
G03X0013386Y0026294I0000000J0000927D01*
G01X0011532D02*
G03X0012459Y0025367I0000927J0000000D01*
Y0027221D02*
G03X0011532Y0026294I0000000J0000927D01*
G01X0013385D02*
G03X0012459Y0027220I0000926J0000000D01*
G01X0020459Y0025367D02*
G03X0021386Y0026294I0000000J0000927D01*
G01X0019532D02*
G03X0020459Y0025367I0000927J0000000D01*
Y0027221D02*
G03X0019532Y0026294I0000000J0000927D01*
G01X0021385D02*
G03X0020459Y0027220I0000926J0000000D01*
G01X0016459Y0029367D02*
G03X0017386Y0030294I0000000J0000927D01*
G01X0015532D02*
G03X0016459Y0029367I0000927J0000000D01*
Y0031221D02*
G03X0015532Y0030294I0000000J0000927D01*
G01X0017385D02*
G03X0016459Y0031220I0000926J0000000D01*
Y0021367D02*
G03X0017386Y0022294I0000000J0000927D01*
G01X0015532D02*
G03X0016459Y0021367I0000927J0000000D01*
Y0023221D02*
G03X0015532Y0022294I0000000J0000927D01*
G01X0017385D02*
G03X0016459Y0023220I0000926J0000000D01*
G01X0016395Y0058310D02*
G03X0016513Y0058312I0000000J0002484D01*
G01X0013911Y0060794D02*
G03X0016395Y0058310I0002484J0000000D01*
Y0063278D02*
G03X0013911Y0060794I0000000J0002484D01*
G01X0016513Y0063275D02*
G03X0016395Y0063278I0000118J0002481D01*
G01X0012522Y0062767D02*
G03X0011459Y0063830I0001063J0000000D01*
G03X0010396Y0062767I0000000J0001063D01*
G01X0011459Y0063830D02*
G03X0010396Y0062767I0000000J0001063D01*
G01X0012522D02*
G03X0011459Y0063830I0001063J0000000D01*
G01X0022522Y0062767D02*
G03X0021459Y0063830I0001063J0000000D01*
G03X0020396Y0062767I0000000J0001063D01*
G01X0021459Y0063830D02*
G03X0020396Y0062767I0000000J0001063D01*
G01X0022522D02*
G03X0021459Y0063830I0001063J0000000D01*
G01X0005645Y0052921D02*
G03X0006709Y0051857I0001064J0000000D01*
Y0051858D02*
G03X0007772Y0052921I0000000J0001063D01*
G54D109*
G01X0002610Y0009630D02*
Y0009105D01*
X0002653Y0009630D02*
X0002391D01*
X0002303Y0009455D01*
Y0009280D01*
X0002391Y0009105D01*
X0002653D01*
X0002854Y0009630D02*
Y0009105D01*
X0002942Y0009192D01*
X0003029Y0009367D01*
X0003117Y0009192D01*
X0003204Y0009105D01*
Y0009630D01*
X0003405Y0009192D02*
X0003449Y0009105D01*
X0003712D01*
X0003755Y0009192D01*
Y0009280D01*
X0003712Y0009367D01*
X0003449D01*
X0003405Y0009455D01*
Y0009542D01*
X0003449Y0009630D01*
X0003712D01*
X0003755Y0009542D01*
X0003956Y0009805D02*
X0004306D01*
X0004814Y0009630D02*
Y0009105D01*
X0004857Y0009630D02*
X0004595D01*
X0004507Y0009455D01*
Y0009280D01*
X0004595Y0009105D01*
X0004857D01*
X0005146Y0009367D02*
X0005408D01*
X0005058Y0009630D02*
X0005408D01*
Y0009105D01*
X0005058D01*
X0005609Y0009630D02*
X0005915D01*
Y0009105D01*
X0005918Y0008824D02*
X0005830Y0008912D01*
X0005655D01*
X0005568Y0008824D01*
Y0008737D01*
X0005743Y0008562D01*
X0005568Y0008387D01*
X0005918D01*
X0006425Y0008912D02*
Y0008387D01*
X0006469Y0008912D02*
X0006206D01*
X0006119Y0008737D01*
Y0008562D01*
X0006206Y0008387D01*
X0006469D01*
X0002610Y0002530D02*
Y0002005D01*
X0002653Y0002530D02*
X0002391D01*
X0002303Y0002355D01*
Y0002180D01*
X0002391Y0002005D01*
X0002653D01*
X0002854Y0002530D02*
Y0002005D01*
X0002942Y0002092D01*
X0003029Y0002267D01*
X0003117Y0002092D01*
X0003204Y0002005D01*
Y0002530D01*
X0003405Y0002092D02*
X0003449Y0002005D01*
X0003712D01*
X0003755Y0002092D01*
Y0002180D01*
X0003712Y0002267D01*
X0003449D01*
X0003405Y0002355D01*
Y0002442D01*
X0003449Y0002530D01*
X0003712D01*
X0003755Y0002442D01*
X0003956Y0002705D02*
X0004306D01*
X0004814Y0002530D02*
Y0002005D01*
X0004857Y0002530D02*
X0004595D01*
X0004507Y0002355D01*
Y0002180D01*
X0004595Y0002005D01*
X0004857D01*
X0005146Y0002267D02*
X0005408D01*
X0005058Y0002530D02*
X0005408D01*
Y0002005D01*
X0005058D01*
X0005609Y0002530D02*
X0005915D01*
Y0002005D01*
X0002481Y0001812D02*
X0002568Y0001724D01*
X0002612Y0001637D01*
Y0001462D01*
X0002568Y0001375D01*
X0002481Y0001287D01*
X0002393D01*
X0002306Y0001375D01*
X0002262Y0001462D01*
Y0001637D01*
X0002306Y0001724D01*
X0002393Y0001812D01*
X0002481D01*
X0003032D02*
X0003119Y0001724D01*
X0003163Y0001637D01*
Y0001462D01*
X0003119Y0001375D01*
X0003032Y0001287D01*
X0002944D01*
X0002857Y0001375D01*
X0002813Y0001462D01*
Y0001637D01*
X0002857Y0001724D01*
X0002944Y0001812D01*
X0003032D01*
X0003583D02*
X0003670Y0001724D01*
X0003714Y0001637D01*
Y0001462D01*
X0003670Y0001375D01*
X0003583Y0001287D01*
X0003495D01*
X0003408Y0001375D01*
X0003364Y0001462D01*
Y0001637D01*
X0003408Y0001724D01*
X0003495Y0001812D01*
X0003583D01*
X0004134D02*
X0004221Y0001724D01*
X0004265Y0001637D01*
Y0001462D01*
X0004221Y0001375D01*
X0004134Y0001287D01*
X0004046D01*
X0003959Y0001375D01*
X0003915Y0001462D01*
Y0001637D01*
X0003959Y0001724D01*
X0004046Y0001812D01*
X0004134D01*
X0004685D02*
X0004772Y0001724D01*
X0004816Y0001637D01*
Y0001462D01*
X0004772Y0001375D01*
X0004685Y0001287D01*
X0004597D01*
X0004510Y0001375D01*
X0004466Y0001462D01*
Y0001637D01*
X0004510Y0001724D01*
X0004597Y0001812D01*
X0004685D01*
X0005236D02*
X0005323Y0001724D01*
X0005367Y0001637D01*
Y0001462D01*
X0005323Y0001375D01*
X0005236Y0001287D01*
X0005148D01*
X0005061Y0001375D01*
X0005017Y0001462D01*
Y0001637D01*
X0005061Y0001724D01*
X0005148Y0001812D01*
X0005236D01*
X0005568D02*
X0005918D01*
X0005568Y0001462D01*
Y0001375D01*
X0005612Y0001287D01*
X0005874D01*
X0005918Y0001375D01*
X0006425Y0001812D02*
Y0001287D01*
X0006469Y0001812D02*
X0006206D01*
X0006119Y0001637D01*
Y0001462D01*
X0006206Y0001287D01*
X0006469D01*
X0002610Y0001530D02*
Y0001005D01*
X0002653Y0001530D02*
X0002391D01*
X0002303Y0001355D01*
Y0001180D01*
X0002391Y0001005D01*
X0002653D01*
X0002854Y0001530D02*
Y0001005D01*
X0002942Y0001092D01*
X0003029Y0001267D01*
X0003117Y0001092D01*
X0003204Y0001005D01*
Y0001530D01*
X0003405Y0001092D02*
X0003449Y0001005D01*
X0003712D01*
X0003755Y0001092D01*
Y0001180D01*
X0003712Y0001267D01*
X0003449D01*
X0003405Y0001355D01*
Y0001442D01*
X0003449Y0001530D01*
X0003712D01*
X0003755Y0001442D01*
X0003956Y0001705D02*
X0004306D01*
X0004814Y0001530D02*
Y0001005D01*
X0004857Y0001530D02*
X0004595D01*
X0004507Y0001355D01*
Y0001180D01*
X0004595Y0001005D01*
X0004857D01*
X0005146Y0001267D02*
X0005408D01*
X0005058Y0001530D02*
X0005408D01*
Y0001005D01*
X0005058D01*
X0005609Y0001530D02*
X0005915D01*
Y0001005D01*
X0004134Y0000812D02*
X0004221Y0000724D01*
X0004265Y0000637D01*
Y0000462D01*
X0004221Y0000375D01*
X0004134Y0000287D01*
X0004046D01*
X0003959Y0000375D01*
X0003915Y0000462D01*
Y0000637D01*
X0003959Y0000724D01*
X0004046Y0000812D01*
X0004134D01*
X0004685D02*
X0004772Y0000724D01*
X0004816Y0000637D01*
Y0000462D01*
X0004772Y0000375D01*
X0004685Y0000287D01*
X0004597D01*
X0004510Y0000375D01*
X0004466Y0000462D01*
Y0000637D01*
X0004510Y0000724D01*
X0004597Y0000812D01*
X0004685D01*
X0005236D02*
X0005323Y0000724D01*
X0005367Y0000637D01*
Y0000462D01*
X0005323Y0000375D01*
X0005236Y0000287D01*
X0005148D01*
X0005061Y0000375D01*
X0005017Y0000462D01*
Y0000637D01*
X0005061Y0000724D01*
X0005148Y0000812D01*
X0005236D01*
X0005918Y0000724D02*
X0005830Y0000812D01*
X0005655D01*
X0005568Y0000724D01*
Y0000637D01*
X0005743Y0000462D01*
X0005568Y0000287D01*
X0005918D01*
X0006425Y0000812D02*
Y0000287D01*
X0006469Y0000812D02*
X0006206D01*
X0006119Y0000637D01*
Y0000462D01*
X0006206Y0000287D01*
X0006469D01*
X0002610Y0011630D02*
Y0011105D01*
X0002653Y0011630D02*
X0002391D01*
X0002303Y0011455D01*
Y0011280D01*
X0002391Y0011105D01*
X0002653D01*
X0002854Y0011630D02*
Y0011105D01*
X0002942Y0011192D01*
X0003029Y0011367D01*
X0003117Y0011192D01*
X0003204Y0011105D01*
Y0011630D01*
X0003405Y0011192D02*
X0003449Y0011105D01*
X0003712D01*
X0003755Y0011192D01*
Y0011280D01*
X0003712Y0011367D01*
X0003449D01*
X0003405Y0011455D01*
Y0011542D01*
X0003449Y0011630D01*
X0003712D01*
X0003755Y0011542D01*
X0003956Y0011805D02*
X0004306D01*
X0004814Y0011630D02*
Y0011105D01*
X0004857Y0011630D02*
X0004595D01*
X0004507Y0011455D01*
Y0011280D01*
X0004595Y0011105D01*
X0004857D01*
X0005146Y0011367D02*
X0005408D01*
X0005058Y0011630D02*
X0005408D01*
Y0011105D01*
X0005058D01*
X0005609Y0011630D02*
X0005915D01*
Y0011105D01*
X0004221Y0010912D02*
X0004309Y0010824D01*
X0004352Y0010737D01*
Y0010562D01*
X0004309Y0010475D01*
X0004221Y0010387D01*
X0004134D01*
X0004046Y0010475D01*
X0004002Y0010562D01*
Y0010737D01*
X0004046Y0010824D01*
X0004134Y0010912D01*
X0004221D01*
X0004772D02*
X0004860Y0010824D01*
X0004903Y0010737D01*
Y0010562D01*
X0004860Y0010475D01*
X0004772Y0010387D01*
X0004685D01*
X0004597Y0010475D01*
X0004553Y0010562D01*
Y0010737D01*
X0004597Y0010824D01*
X0004685Y0010912D01*
X0004772D01*
X0005323D02*
X0005411Y0010824D01*
X0005454Y0010737D01*
Y0010562D01*
X0005411Y0010475D01*
X0005323Y0010387D01*
X0005236D01*
X0005148Y0010475D01*
X0005104Y0010562D01*
Y0010737D01*
X0005148Y0010824D01*
X0005236Y0010912D01*
X0005323D01*
X0005655D02*
X0005830D01*
X0005743D02*
Y0010387D01*
X0005830Y0010475D01*
X0006425Y0010912D02*
Y0010387D01*
X0006469Y0010912D02*
X0006206D01*
X0006119Y0010737D01*
Y0010562D01*
X0006206Y0010387D01*
X0006469D01*
X0002610Y0010630D02*
Y0010105D01*
X0002653Y0010630D02*
X0002391D01*
X0002303Y0010455D01*
Y0010280D01*
X0002391Y0010105D01*
X0002653D01*
X0002854Y0010630D02*
Y0010105D01*
X0002942Y0010192D01*
X0003029Y0010367D01*
X0003117Y0010192D01*
X0003204Y0010105D01*
Y0010630D01*
X0003405Y0010192D02*
X0003449Y0010105D01*
X0003712D01*
X0003755Y0010192D01*
Y0010280D01*
X0003712Y0010367D01*
X0003449D01*
X0003405Y0010455D01*
Y0010542D01*
X0003449Y0010630D01*
X0003712D01*
X0003755Y0010542D01*
X0003956Y0010805D02*
X0004306D01*
X0004814Y0010630D02*
Y0010105D01*
X0004857Y0010630D02*
X0004595D01*
X0004507Y0010455D01*
Y0010280D01*
X0004595Y0010105D01*
X0004857D01*
X0005146Y0010367D02*
X0005408D01*
X0005058Y0010630D02*
X0005408D01*
Y0010105D01*
X0005058D01*
X0005609Y0010630D02*
X0005915D01*
Y0010105D01*
X0004134Y0009912D02*
X0004221Y0009824D01*
X0004265Y0009737D01*
Y0009562D01*
X0004221Y0009475D01*
X0004134Y0009387D01*
X0004046D01*
X0003959Y0009475D01*
X0003915Y0009562D01*
Y0009737D01*
X0003959Y0009824D01*
X0004046Y0009912D01*
X0004134D01*
X0004685D02*
X0004772Y0009824D01*
X0004816Y0009737D01*
Y0009562D01*
X0004772Y0009475D01*
X0004685Y0009387D01*
X0004597D01*
X0004510Y0009475D01*
X0004466Y0009562D01*
Y0009737D01*
X0004510Y0009824D01*
X0004597Y0009912D01*
X0004685D01*
X0005236D02*
X0005323Y0009824D01*
X0005367Y0009737D01*
Y0009562D01*
X0005323Y0009475D01*
X0005236Y0009387D01*
X0005148D01*
X0005061Y0009475D01*
X0005017Y0009562D01*
Y0009737D01*
X0005061Y0009824D01*
X0005148Y0009912D01*
X0005236D01*
X0005568D02*
X0005918D01*
X0005568Y0009562D01*
Y0009475D01*
X0005612Y0009387D01*
X0005874D01*
X0005918Y0009475D01*
X0006425Y0009912D02*
Y0009387D01*
X0006469Y0009912D02*
X0006206D01*
X0006119Y0009737D01*
Y0009562D01*
X0006206Y0009387D01*
X0006469D01*
X0002610Y0003530D02*
Y0003005D01*
X0002653Y0003530D02*
X0002391D01*
X0002303Y0003355D01*
Y0003180D01*
X0002391Y0003005D01*
X0002653D01*
X0002854Y0003530D02*
Y0003005D01*
X0002942Y0003092D01*
X0003029Y0003267D01*
X0003117Y0003092D01*
X0003204Y0003005D01*
Y0003530D01*
X0003405Y0003092D02*
X0003449Y0003005D01*
X0003712D01*
X0003755Y0003092D01*
Y0003180D01*
X0003712Y0003267D01*
X0003449D01*
X0003405Y0003355D01*
Y0003442D01*
X0003449Y0003530D01*
X0003712D01*
X0003755Y0003442D01*
X0003956Y0003705D02*
X0004306D01*
X0004814Y0003530D02*
Y0003005D01*
X0004857Y0003530D02*
X0004595D01*
X0004507Y0003355D01*
Y0003180D01*
X0004595Y0003005D01*
X0004857D01*
X0005146Y0003267D02*
X0005408D01*
X0005058Y0003530D02*
X0005408D01*
Y0003005D01*
X0005058D01*
X0005609Y0003530D02*
X0005915D01*
Y0003005D01*
X0002568Y0002812D02*
X0002656Y0002724D01*
X0002699Y0002637D01*
Y0002462D01*
X0002656Y0002375D01*
X0002568Y0002287D01*
X0002481D01*
X0002393Y0002375D01*
X0002349Y0002462D01*
Y0002637D01*
X0002393Y0002724D01*
X0002481Y0002812D01*
X0002568D01*
X0003119D02*
X0003207Y0002724D01*
X0003250Y0002637D01*
Y0002462D01*
X0003207Y0002375D01*
X0003119Y0002287D01*
X0003032D01*
X0002944Y0002375D01*
X0002900Y0002462D01*
Y0002637D01*
X0002944Y0002724D01*
X0003032Y0002812D01*
X0003119D01*
X0003670D02*
X0003758Y0002724D01*
X0003801Y0002637D01*
Y0002462D01*
X0003758Y0002375D01*
X0003670Y0002287D01*
X0003583D01*
X0003495Y0002375D01*
X0003451Y0002462D01*
Y0002637D01*
X0003495Y0002724D01*
X0003583Y0002812D01*
X0003670D01*
X0004221D02*
X0004309Y0002724D01*
X0004352Y0002637D01*
Y0002462D01*
X0004309Y0002375D01*
X0004221Y0002287D01*
X0004134D01*
X0004046Y0002375D01*
X0004002Y0002462D01*
Y0002637D01*
X0004046Y0002724D01*
X0004134Y0002812D01*
X0004221D01*
X0004772D02*
X0004860Y0002724D01*
X0004903Y0002637D01*
Y0002462D01*
X0004860Y0002375D01*
X0004772Y0002287D01*
X0004685D01*
X0004597Y0002375D01*
X0004553Y0002462D01*
Y0002637D01*
X0004597Y0002724D01*
X0004685Y0002812D01*
X0004772D01*
X0005323D02*
X0005411Y0002724D01*
X0005454Y0002637D01*
Y0002462D01*
X0005411Y0002375D01*
X0005323Y0002287D01*
X0005236D01*
X0005148Y0002375D01*
X0005104Y0002462D01*
Y0002637D01*
X0005148Y0002724D01*
X0005236Y0002812D01*
X0005323D01*
X0005655D02*
X0005830D01*
X0005743D02*
Y0002287D01*
X0005830Y0002375D01*
X0006425Y0002812D02*
Y0002287D01*
X0006469Y0002812D02*
X0006206D01*
X0006119Y0002637D01*
Y0002462D01*
X0006206Y0002287D01*
X0006469D01*
X0013821Y0010004D02*
X0015473D01*
Y0009296D01*
X0013821D01*
Y0010004D01*
Y0010904D02*
X0015473D01*
Y0010196D01*
X0013821D01*
Y0010904D01*
X0015439Y0011996D02*
X0013787D01*
Y0012704D01*
X0015439D01*
Y0011996D01*
Y0012896D02*
X0013787D01*
Y0013604D01*
X0015439D01*
Y0012896D01*
Y0011096D02*
X0013787D01*
Y0011804D01*
X0015439D01*
Y0011096D01*
X0006191Y0012604D02*
X0007843D01*
Y0011896D01*
X0006191D01*
Y0012604D01*
Y0011604D02*
X0007843D01*
Y0010896D01*
X0006191D01*
Y0011604D01*
X0015439Y0002996D02*
X0013787D01*
Y0003704D01*
X0015439D01*
Y0002996D01*
X0006191Y0004504D02*
X0007843D01*
Y0003796D01*
X0006191D01*
Y0004504D01*
Y0003504D02*
X0007843D01*
Y0002796D01*
X0006191D01*
Y0003504D01*
Y0002504D02*
X0007843D01*
Y0001796D01*
X0006191D01*
Y0002504D01*
X0013821Y0001904D02*
X0015473D01*
Y0001196D01*
X0013821D01*
Y0001904D01*
Y0002804D02*
X0015473D01*
Y0002096D01*
X0013821D01*
Y0002804D01*
X0015439Y0003896D02*
X0013787D01*
Y0004604D01*
X0015439D01*
Y0003896D01*
Y0004796D02*
X0013787D01*
Y0005504D01*
X0015439D01*
Y0004796D01*
X0006191Y0010604D02*
X0007843D01*
Y0009896D01*
X0006191D01*
Y0010604D01*
X0013784Y0029007D02*
X0012132D01*
Y0029715D01*
X0013784D01*
Y0029007D01*
X0022605Y0026035D02*
X0022604Y0027687D01*
X0023313D01*
Y0026035D01*
X0022605D01*
X0018605Y0030035D02*
X0018604Y0031687D01*
X0019313D01*
Y0030035D01*
X0018605D01*
Y0022035D02*
X0018604Y0023687D01*
X0019313D01*
Y0022035D01*
X0018605D01*
X0017605Y0055035D02*
X0017604Y0056687D01*
X0018313D01*
Y0055035D01*
X0017605D01*
X0020605Y0059535D02*
X0020604Y0061187D01*
X0021313D01*
Y0059535D01*
X0020605D01*
X0008105Y0028535D02*
X0008104Y0030187D01*
X0008813D01*
Y0028535D01*
X0008105D01*
X0017027Y0043862D02*
X0020964D01*
Y0034020D01*
X0003248D01*
X0002460D01*
Y0043862D01*
X0017027D01*
X0010509Y0021744D02*
X0007509D01*
Y0024744D01*
X0010509D01*
Y0021744D01*
X0013959Y0024794D02*
X0010959D01*
Y0027794D01*
X0013959D01*
Y0024794D01*
X0021959D02*
X0018959D01*
Y0027794D01*
X0021959D01*
Y0024794D01*
X0017959Y0028794D02*
X0014959D01*
Y0031794D01*
X0017959D01*
Y0028794D01*
Y0020794D02*
X0014959D01*
Y0023794D01*
X0017959D01*
Y0020794D01*
X0025459Y0041894D02*
Y0046794D01*
X0026159D01*
Y0045194D01*
X0026759D01*
Y0046794D01*
X0027359D01*
Y0045194D01*
X0028009D01*
Y0046744D01*
X0028709D01*
Y0045194D01*
X0029409D01*
Y0046744D01*
X0030109D01*
Y0045194D01*
X0030759D01*
Y0046794D01*
X0031409D01*
Y0041794D01*
X0030609D01*
Y0044144D01*
X0026309D01*
Y0041794D01*
X0025459D01*
Y0041894D01*
X0008695Y0027294D02*
X0008459D01*
X0008695Y0027767D02*
X0009168Y0027294D01*
X0008695Y0026821D01*
Y0027767D01*
X0009404Y0027294D02*
X0009168D01*
Y0026939D02*
Y0027648D01*
Y0027885D02*
X0008931Y0027648D01*
X0009168Y0027885D02*
X0009050D01*
X0009168D02*
Y0027767D01*
G01X0005645Y0050455D02*
G03X0005645Y0050421I0001064J0000000D01*
G01X0006709Y0051519D02*
G03X0005645Y0050455I0000000J0001064D01*
G01X0007773D02*
G03X0006709Y0051519I0001064J0000000D01*
G01X0007772Y0050421D02*
G03X0007773Y0050455I0001063J0000034D01*
G01X0006709Y0049357D02*
G03X0007773Y0050421I0000000J0001064D01*
G01X0005645D02*
G03X0006709Y0049357I0001064J0000000D01*
G01X0005616Y0047828D02*
G03X0005618Y0047794I0001065J0000000D01*
G01X0006681Y0048893D02*
G03X0005616Y0047828I0000000J0001065D01*
G01X0007746D02*
G03X0006681Y0048893I0001065J0000000D01*
G01X0007745Y0047794D02*
G03X0007746Y0047828I0001064J0000034D01*
G01X0006681Y0046731D02*
G03X0007744Y0047794I0000000J0001063D01*
G01X0005618D02*
G03X0006681Y0046731I0001063J0000000D01*
G01X0007700Y0055360D02*
G03X0007700Y0055394I0001064J0000000D01*
G01X0006636Y0054296D02*
G03X0007700Y0055360I0000000J0001064D01*
G01X0005572D02*
G03X0006636Y0054296I0001064J0000000D01*
G01X0005573Y0055394D02*
G03X0005572Y0055360I0001063J0000034D01*
G01X0006636Y0056458D02*
G03X0005572Y0055394I0000000J0001064D01*
G01X0007700D02*
G03X0006636Y0056458I0001064J0000000D01*
G01X0022524Y0062733D02*
G03X0022522Y0062767I0001065J0000000D01*
G01X0021459Y0061668D02*
G03X0022524Y0062733I0000000J0001065D01*
G01X0020394D02*
G03X0021459Y0061668I0001065J0000000D01*
G01X0020395Y0062767D02*
G03X0020394Y0062733I0001064J0000034D01*
G01X0021459Y0063830D02*
G03X0020396Y0062767I0000000J0001063D01*
G01X0022522D02*
G03X0021459Y0063830I0001063J0000000D01*
G01X0012524Y0062733D02*
G03X0012522Y0062767I0001065J0000000D01*
G01X0011459Y0061668D02*
G03X0012524Y0062733I0000000J0001065D01*
G01X0010394D02*
G03X0011459Y0061668I0001065J0000000D01*
G01X0010395Y0062767D02*
G03X0010394Y0062733I0001064J0000034D01*
G01X0011459Y0063830D02*
G03X0010396Y0062767I0000000J0001063D01*
G01X0012522D02*
G03X0011459Y0063830I0001063J0000000D01*
G01X0008931Y0026538D02*
G03X0009687Y0027294I0000000J0000756D01*
G01X0008175D02*
G03X0008931Y0026538I0000756J0000000D01*
Y0028051D02*
G03X0008174Y0027294I0000000J0000757D01*
G01X0009688D02*
G03X0008931Y0028051I0000757J0000000D01*
G01X0005645Y0052955D02*
G03X0005645Y0052921I0001064J0000000D01*
G01X0006709Y0054019D02*
G03X0005645Y0052955I0000000J0001064D01*
G01X0007773D02*
G03X0006709Y0054019I0001064J0000000D01*
G01X0007772Y0052921D02*
G03X0007773Y0052955I0001063J0000034D01*
G01X0006709Y0051857D02*
G03X0007773Y0052921I0000000J0001064D01*
G01X0005645D02*
G03X0006709Y0051857I0001064J0000000D01*
G54D110*
G01X0009517Y0013931D02*
X0009604Y0013844D01*
X0009648Y0013756D01*
Y0013581D01*
X0009604Y0013494D01*
X0009517Y0013406D01*
X0009429D01*
X0009342Y0013494D01*
X0009298Y0013581D01*
Y0013756D01*
X0009342Y0013844D01*
X0009429Y0013931D01*
X0009517D01*
X0010146D02*
X0010234Y0013844D01*
X0010277Y0013756D01*
Y0013581D01*
X0010234Y0013494D01*
X0010146Y0013406D01*
X0010059D01*
X0009971Y0013494D01*
X0009927Y0013581D01*
Y0013756D01*
X0009971Y0013844D01*
X0010059Y0013931D01*
X0010146D01*
X0010776D02*
X0010863Y0013844D01*
X0010907Y0013756D01*
Y0013581D01*
X0010863Y0013494D01*
X0010776Y0013406D01*
X0010688D01*
X0010601Y0013494D01*
X0010557Y0013581D01*
Y0013756D01*
X0010601Y0013844D01*
X0010688Y0013931D01*
X0010776D01*
X0011187D02*
X0011362D01*
X0011274D02*
Y0013406D01*
X0011362Y0013494D01*
X0011904Y0013931D02*
Y0013669D01*
X0011729Y0013406D02*
X0011860Y0013669D01*
X0011948D01*
X0012079Y0013406D01*
X0007890Y0015799D02*
X0008196D01*
Y0015275D01*
X0008476Y0015624D02*
X0008826D01*
X0008476Y0015799D02*
Y0015537D01*
X0008607Y0015275D01*
X0008695D01*
X0008826Y0015537D01*
Y0015799D01*
X0009281D02*
Y0015275D01*
X0009106D02*
X0009456D01*
X0009735Y0015362D02*
X0009779Y0015275D01*
X0010042D01*
X0010085Y0015362D01*
Y0015450D01*
X0010042Y0015537D01*
X0009779D01*
X0009735Y0015624D01*
Y0015712D01*
X0009779Y0015799D01*
X0010042D01*
X0010085Y0015712D01*
X0010540Y0015799D02*
Y0015537D01*
X0010365Y0015275D02*
X0010496Y0015537D01*
X0010584D01*
X0010715Y0015275D01*
X0011126Y0015537D02*
X0010995Y0015799D01*
X0011345Y0015537D02*
X0011082D01*
X0010995Y0015450D01*
Y0015362D01*
X0011082Y0015275D01*
X0011345D01*
Y0015799D01*
X0011624Y0015712D02*
X0011668Y0015799D01*
X0011931D01*
X0011974Y0015712D01*
Y0015362D01*
X0011931Y0015275D01*
X0011668D01*
X0011624Y0015362D01*
X0007628Y0005831D02*
X0007715Y0005744D01*
X0007759Y0005656D01*
Y0005481D01*
X0007715Y0005394D01*
X0007628Y0005306D01*
X0007540D01*
X0007453Y0005394D01*
X0007409Y0005481D01*
Y0005656D01*
X0007453Y0005744D01*
X0007540Y0005831D01*
X0007628D01*
X0008257D02*
X0008345Y0005744D01*
X0008388Y0005656D01*
Y0005481D01*
X0008345Y0005394D01*
X0008257Y0005306D01*
X0008170D01*
X0008082Y0005394D01*
X0008038Y0005481D01*
Y0005656D01*
X0008082Y0005744D01*
X0008170Y0005831D01*
X0008257D01*
X0008887D02*
X0008974Y0005744D01*
X0009018Y0005656D01*
Y0005481D01*
X0008974Y0005394D01*
X0008887Y0005306D01*
X0008799D01*
X0008712Y0005394D01*
X0008668Y0005481D01*
Y0005656D01*
X0008712Y0005744D01*
X0008799Y0005831D01*
X0008887D01*
X0009517D02*
X0009604Y0005744D01*
X0009648Y0005656D01*
Y0005481D01*
X0009604Y0005394D01*
X0009517Y0005306D01*
X0009429D01*
X0009342Y0005394D01*
X0009298Y0005481D01*
Y0005656D01*
X0009342Y0005744D01*
X0009429Y0005831D01*
X0009517D01*
X0010146D02*
X0010234Y0005744D01*
X0010277Y0005656D01*
Y0005481D01*
X0010234Y0005394D01*
X0010146Y0005306D01*
X0010059D01*
X0009971Y0005394D01*
X0009927Y0005481D01*
Y0005656D01*
X0009971Y0005744D01*
X0010059Y0005831D01*
X0010146D01*
X0010776D02*
X0010863Y0005744D01*
X0010907Y0005656D01*
Y0005481D01*
X0010863Y0005394D01*
X0010776Y0005306D01*
X0010688D01*
X0010601Y0005394D01*
X0010557Y0005481D01*
Y0005656D01*
X0010601Y0005744D01*
X0010688Y0005831D01*
X0010776D01*
X0011187D02*
X0011362D01*
X0011274D02*
Y0005306D01*
X0011362Y0005394D01*
X0011904Y0005831D02*
Y0005569D01*
X0011729Y0005306D02*
X0011860Y0005569D01*
X0011948D01*
X0012079Y0005306D01*
X0007890Y0007699D02*
X0008196D01*
Y0007175D01*
X0008476Y0007524D02*
X0008826D01*
X0008476Y0007699D02*
Y0007437D01*
X0008607Y0007175D01*
X0008695D01*
X0008826Y0007437D01*
Y0007699D01*
X0009281D02*
Y0007175D01*
X0009106D02*
X0009456D01*
X0009735Y0007262D02*
X0009779Y0007175D01*
X0010042D01*
X0010085Y0007262D01*
Y0007350D01*
X0010042Y0007437D01*
X0009779D01*
X0009735Y0007524D01*
Y0007612D01*
X0009779Y0007699D01*
X0010042D01*
X0010085Y0007612D01*
X0010540Y0007699D02*
Y0007437D01*
X0010365Y0007175D02*
X0010496Y0007437D01*
X0010584D01*
X0010715Y0007175D01*
X0011126Y0007437D02*
X0010995Y0007699D01*
X0011345Y0007437D02*
X0011082D01*
X0010995Y0007350D01*
Y0007262D01*
X0011082Y0007175D01*
X0011345D01*
Y0007699D01*
X0011624Y0007612D02*
X0011668Y0007699D01*
X0011931D01*
X0011974Y0007612D01*
Y0007262D01*
X0011931Y0007175D01*
X0011668D01*
X0011624Y0007262D01*
X0021740Y0024476D02*
X0021390D01*
X0021740Y0024214D02*
Y0024739D01*
X0021390Y0024214D02*
Y0024739D01*
X0021111Y0024301D02*
X0021067Y0024214D01*
X0020804D01*
X0020761Y0024301D01*
Y0024651D01*
X0020804Y0024739D01*
X0021067D01*
X0021111Y0024651D01*
X0020306Y0024214D02*
Y0024739D01*
X0020481D02*
X0020131D01*
X0019851Y0024389D02*
X0019501D01*
X0019851Y0024214D02*
Y0024476D01*
X0019720Y0024739D01*
X0019632D01*
X0019501Y0024476D01*
Y0024214D01*
X0019222D02*
X0018915D01*
Y0024739D01*
X0016353Y0032026D02*
X0016396Y0031938D01*
X0016659D01*
X0016703Y0032026D01*
Y0032201D01*
X0016615Y0032288D01*
X0016353D01*
Y0032463D01*
X0016703D01*
X0016073D02*
Y0032026D01*
X0016029Y0031938D01*
X0015898Y0032201D01*
Y0032288D02*
Y0032201D01*
X0015767Y0031938D01*
X0015723Y0032026D01*
Y0032463D01*
X0015443Y0032376D02*
X0015399Y0032463D01*
X0015137D01*
X0015093Y0032376D01*
Y0032288D01*
X0015137Y0032201D01*
X0015399D01*
X0015443Y0032113D01*
Y0032026D01*
X0015399Y0031938D01*
X0015137D01*
X0015093Y0032026D01*
X0015545Y0028476D02*
X0015808D01*
X0015895Y0028564D01*
Y0028651D01*
X0015808Y0028739D01*
X0015545D01*
Y0028214D01*
X0015265Y0028739D02*
Y0028301D01*
X0015222Y0028214D01*
X0014959D01*
X0014915Y0028301D01*
Y0028739D01*
X0016396Y0024201D02*
X0016659D01*
X0016703Y0024113D01*
Y0024026D01*
X0016659Y0023938D01*
X0016396D01*
X0016353Y0024026D01*
Y0024113D01*
X0016528Y0024463D01*
X0016073D02*
Y0024026D01*
X0016029Y0023938D01*
X0015898Y0024201D01*
Y0024288D02*
Y0024201D01*
X0015767Y0023938D01*
X0015723Y0024026D01*
Y0024463D01*
X0015443Y0024376D02*
X0015399Y0024463D01*
X0015137D01*
X0015093Y0024376D01*
Y0024288D01*
X0015137Y0024201D01*
X0015399D01*
X0015443Y0024113D01*
Y0024026D01*
X0015399Y0023938D01*
X0015137D01*
X0015093Y0024026D01*
X0017154Y0020739D02*
Y0020214D01*
X0017067Y0020301D01*
X0016892Y0020651D01*
X0016804Y0020739D01*
Y0020214D01*
X0016525Y0020739D02*
Y0020301D01*
X0016481Y0020214D01*
X0016350Y0020476D01*
Y0020564D02*
Y0020476D01*
X0016218Y0020214D01*
X0016175Y0020301D01*
Y0020739D01*
X0015589Y0020214D02*
X0015545Y0020301D01*
Y0020651D01*
X0015589Y0020739D01*
X0015851D01*
X0015895Y0020651D01*
Y0020301D01*
X0015851Y0020214D01*
X0015589D01*
X0014959D02*
Y0020739D01*
X0014915Y0020214D02*
X0015178D01*
X0015265Y0020389D01*
Y0020564D01*
X0015178Y0020739D01*
X0014915D01*
X0007880Y0052756D02*
Y0052931D01*
Y0052843D02*
X0008405D01*
X0008318Y0052931D01*
X0007968Y0053298D02*
X0007880Y0053342D01*
Y0053604D01*
X0007968Y0053648D01*
X0008318D01*
X0008405Y0053604D01*
Y0053342D01*
X0008318Y0053298D01*
X0005357Y0049019D02*
Y0049281D01*
X0005095D02*
X0005619D01*
Y0048931D01*
X0005444Y0049605D02*
X0005095D01*
Y0049561D02*
Y0049867D01*
X0005182Y0049911D01*
X0005444D01*
X0005095Y0050409D02*
X0005182Y0050497D01*
X0005270Y0050541D01*
X0005444D01*
X0005532Y0050497D01*
X0005619Y0050409D01*
Y0050322D01*
X0005532Y0050234D01*
X0005444Y0050191D01*
X0005270D01*
X0005182Y0050234D01*
X0005095Y0050322D01*
Y0050409D01*
Y0050820D02*
Y0050995D01*
Y0050908D02*
X0005619D01*
X0005532Y0050995D01*
X0007880Y0050168D02*
Y0050518D01*
X0008230Y0050168D01*
X0008318D01*
X0008405Y0050212D01*
Y0050475D01*
X0008318Y0050518D01*
X0007968Y0050798D02*
X0007880Y0050842D01*
Y0051104D01*
X0007968Y0051148D01*
X0008318D01*
X0008405Y0051104D01*
Y0050842D01*
X0008318Y0050798D01*
X0005330Y0046391D02*
Y0046654D01*
X0005067D02*
X0005592D01*
Y0046304D01*
X0005417Y0046977D02*
X0005067D01*
Y0046934D02*
Y0047240D01*
X0005155Y0047284D01*
X0005417D01*
X0005067Y0047782D02*
X0005155Y0047870D01*
X0005242Y0047913D01*
X0005417D01*
X0005505Y0047870D01*
X0005592Y0047782D01*
Y0047695D01*
X0005505Y0047607D01*
X0005417Y0047563D01*
X0005242D01*
X0005155Y0047607D01*
X0005067Y0047695D01*
Y0047782D01*
Y0048193D02*
Y0048368D01*
Y0048280D02*
X0005592D01*
X0005505Y0048368D01*
X0007941Y0047891D02*
X0007853Y0047804D01*
Y0047629D01*
X0007941Y0047541D01*
X0008028D01*
X0008203Y0047716D01*
X0008378Y0047541D01*
Y0047891D01*
X0007941Y0048171D02*
X0007853Y0048215D01*
Y0048477D01*
X0007941Y0048521D01*
X0008290D01*
X0008378Y0048477D01*
Y0048215D01*
X0008290Y0048171D01*
X0007988Y0056796D02*
Y0056534D01*
X0008250D02*
X0007725D01*
Y0056884D01*
X0007900Y0056210D02*
X0008250D01*
Y0056254D02*
Y0055948D01*
X0008163Y0055904D01*
X0007900D01*
X0008250Y0055406D02*
X0008163Y0055318D01*
X0008075Y0055275D01*
X0007900D01*
X0007813Y0055318D01*
X0007725Y0055406D01*
Y0055493D01*
X0007813Y0055581D01*
X0007900Y0055625D01*
X0008075D01*
X0008163Y0055581D01*
X0008250Y0055493D01*
Y0055406D01*
Y0054995D02*
Y0054820D01*
Y0054907D02*
X0007725D01*
X0007813Y0054820D01*
X0005202Y0055340D02*
Y0055603D01*
X0005289Y0055647D01*
X0005377D01*
X0005464Y0055603D01*
Y0055340D01*
X0005377Y0055297D01*
X0005289D01*
X0004940Y0055472D01*
X0005377Y0055017D02*
X0005464Y0054973D01*
Y0054711D01*
X0005377Y0054667D01*
X0005027D01*
X0004940Y0054711D01*
Y0054973D01*
X0005027Y0055017D01*
X0022811Y0070230D02*
Y0069967D01*
X0023073D02*
X0022548D01*
Y0070317D01*
X0022723Y0069644D02*
X0023073D01*
Y0069688D02*
Y0069381D01*
X0022985Y0069338D01*
X0022723D01*
X0023073Y0068839D02*
X0022985Y0068752D01*
X0022898Y0068708D01*
X0022723D01*
X0022636Y0068752D01*
X0022548Y0068839D01*
Y0068927D01*
X0022636Y0069014D01*
X0022723Y0069058D01*
X0022898D01*
X0022985Y0069014D01*
X0023073Y0068927D01*
Y0068839D01*
Y0068209D02*
X0022985Y0068122D01*
X0022898Y0068078D01*
X0022723D01*
X0022636Y0068122D01*
X0022548Y0068209D01*
Y0068297D01*
X0022636Y0068384D01*
X0022723Y0068428D01*
X0022898D01*
X0022985Y0068384D01*
X0023073Y0068297D01*
Y0068209D01*
Y0067799D02*
Y0067624D01*
Y0067711D02*
X0022548D01*
X0022636Y0067624D01*
X0022811Y0066299D02*
X0023073Y0066430D01*
X0022811Y0066080D02*
Y0066342D01*
X0022723Y0066430D01*
X0022636D01*
X0022548Y0066342D01*
Y0066080D01*
X0023073D01*
X0022811Y0065713D02*
Y0065450D01*
X0023073Y0065800D02*
Y0065450D01*
X0022548D01*
Y0065800D01*
Y0065171D02*
X0022985D01*
X0023073Y0065127D01*
X0022811Y0064996D01*
X0022723D02*
X0022811D01*
X0023073Y0064864D01*
X0022985Y0064821D01*
X0022548D01*
X0023073Y0064235D02*
X0022985Y0064191D01*
X0022636D01*
X0022548Y0064235D01*
Y0064497D01*
X0022636Y0064541D01*
X0022985D01*
X0023073Y0064497D01*
Y0064235D01*
X0022811Y0063561D02*
Y0063824D01*
X0022723Y0063911D01*
X0022636D01*
X0022548Y0063824D01*
Y0063561D01*
X0023073D01*
X0022985Y0062455D02*
X0023073Y0062411D01*
Y0062149D01*
X0022985Y0062105D01*
X0022636D01*
X0022548Y0062149D01*
Y0062411D01*
X0022636Y0062455D01*
X0020287Y0063474D02*
Y0063299D01*
Y0063387D02*
X0019762D01*
X0019850Y0063299D01*
X0020287Y0062932D02*
Y0062757D01*
Y0062844D02*
X0019762D01*
X0019850Y0062757D01*
X0020200Y0062390D02*
X0020287Y0062346D01*
Y0062083D01*
X0020200Y0062040D01*
X0019850D01*
X0019762Y0062083D01*
Y0062346D01*
X0019850Y0062390D01*
X0009253Y0024888D02*
X0008903D01*
X0009253Y0025238D01*
Y0025326D01*
X0009209Y0025413D01*
X0008946D01*
X0008903Y0025326D01*
X0008623Y0025413D02*
Y0024976D01*
X0008579Y0024888D01*
X0008448Y0025151D01*
Y0025238D02*
Y0025151D01*
X0008317Y0024888D01*
X0008273Y0024976D01*
Y0025413D01*
X0007993Y0025326D02*
X0007949Y0025413D01*
X0007687D01*
X0007643Y0025326D01*
Y0025238D01*
X0007687Y0025151D01*
X0007949D01*
X0007993Y0025063D01*
Y0024976D01*
X0007949Y0024888D01*
X0007687D01*
X0007643Y0024976D01*
X0010159Y0021164D02*
Y0021689D01*
X0010334D02*
X0009984D01*
X0009617Y0021426D02*
X0009354D01*
X0009704Y0021164D02*
X0009354D01*
Y0021689D01*
X0009704D01*
X0009075Y0021601D02*
X0009031Y0021689D01*
X0008768D01*
X0008725Y0021601D01*
Y0021514D01*
X0008768Y0021426D01*
X0009031D01*
X0009075Y0021339D01*
Y0021251D01*
X0009031Y0021164D01*
X0008768D01*
X0008725Y0021251D01*
X0008358Y0021426D02*
X0008095D01*
X0008445Y0021164D02*
X0008095D01*
Y0021689D01*
X0008445D01*
X0007684Y0021426D02*
X0007815Y0021164D01*
X0007465Y0021426D02*
X0007728D01*
X0007815Y0021514D01*
Y0021601D01*
X0007728Y0021689D01*
X0007465D01*
Y0021164D01*
X0012353Y0028026D02*
X0012440Y0027938D01*
X0012615D01*
X0012703Y0028026D01*
Y0028113D01*
X0012528Y0028288D01*
X0012703Y0028463D01*
X0012353D01*
X0012073D02*
Y0028026D01*
X0012029Y0027938D01*
X0011898Y0028201D01*
Y0028288D02*
Y0028201D01*
X0011767Y0027938D01*
X0011723Y0028026D01*
Y0028463D01*
X0011443Y0028376D02*
X0011399Y0028463D01*
X0011137D01*
X0011093Y0028376D01*
Y0028288D01*
X0011137Y0028201D01*
X0011399D01*
X0011443Y0028113D01*
Y0028026D01*
X0011399Y0027938D01*
X0011137D01*
X0011093Y0028026D01*
X0013073Y0070531D02*
X0012548D01*
Y0070706D02*
Y0070356D01*
X0012811Y0069989D02*
Y0069727D01*
X0013073Y0070077D02*
Y0069727D01*
X0012548D01*
Y0070077D01*
X0012636Y0069447D02*
X0012548Y0069403D01*
Y0069141D01*
X0012636Y0069097D01*
X0012723D01*
X0012811Y0069141D01*
Y0069403D01*
X0012898Y0069447D01*
X0012985D01*
X0013073Y0069403D01*
Y0069141D01*
X0012985Y0069097D01*
X0012811Y0068730D02*
Y0068467D01*
X0013073Y0068817D02*
Y0068467D01*
X0012548D01*
Y0068817D01*
X0012811Y0068056D02*
X0013073Y0068188D01*
X0012811Y0067838D02*
Y0068100D01*
X0012723Y0068188D01*
X0012636D01*
X0012548Y0068100D01*
Y0067838D01*
X0013073D01*
X0012723Y0066731D02*
X0013073Y0066556D01*
X0012723Y0066381D01*
X0012985Y0065752D02*
X0013073Y0065795D01*
Y0066058D01*
X0012985Y0066102D01*
X0012811D01*
X0012723Y0066014D01*
Y0065752D01*
X0012548D01*
Y0066102D01*
X0013073Y0065472D02*
Y0065122D01*
X0012723Y0065472D01*
X0012636D01*
X0012548Y0065428D01*
Y0065166D01*
X0012636Y0065122D01*
X0012548Y0064842D02*
X0013073Y0064580D01*
X0012811Y0064169D02*
Y0063907D01*
X0013073D02*
X0012548D01*
Y0064257D01*
X0012723Y0063583D02*
X0013073D01*
Y0063627D02*
Y0063321D01*
X0012985Y0063277D01*
X0012723D01*
X0013073Y0062778D02*
X0012985Y0062691D01*
X0012898Y0062647D01*
X0012723D01*
X0012636Y0062691D01*
X0012548Y0062778D01*
Y0062866D01*
X0012636Y0062953D01*
X0012723Y0062997D01*
X0012898D01*
X0012985Y0062953D01*
X0013073Y0062866D01*
Y0062778D01*
Y0062368D02*
Y0062193D01*
Y0062280D02*
X0012548D01*
X0012636Y0062193D01*
X0010025Y0062976D02*
Y0062713D01*
X0009937Y0062669D01*
X0009850D01*
X0009762Y0062713D01*
Y0062976D01*
X0009850Y0063019D01*
X0009937D01*
X0010287Y0062844D01*
X0010200Y0062390D02*
X0010287Y0062346D01*
Y0062083D01*
X0010200Y0062040D01*
X0009850D01*
X0009762Y0062083D01*
Y0062346D01*
X0009850Y0062390D01*
X0017740Y0049757D02*
Y0049582D01*
Y0049670D02*
X0017215D01*
X0017303Y0049582D01*
X0017740Y0049040D02*
X0017478D01*
X0017215Y0049215D02*
X0017478Y0049084D01*
Y0048996D01*
X0017215Y0048865D01*
X0019608Y0053054D02*
Y0052747D01*
X0019083D01*
X0019433Y0052468D02*
Y0052118D01*
X0019608Y0052468D02*
X0019346D01*
X0019083Y0052336D01*
Y0052249D01*
X0019346Y0052118D01*
X0019608D01*
Y0051663D02*
X0019083D01*
Y0051838D02*
Y0051488D01*
X0019171Y0051208D02*
X0019083Y0051165D01*
Y0050902D01*
X0019171Y0050858D01*
X0019258D01*
X0019346Y0050902D01*
Y0051165D01*
X0019433Y0051208D01*
X0019521D01*
X0019608Y0051165D01*
Y0050902D01*
X0019521Y0050858D01*
X0019608Y0050404D02*
X0019346D01*
X0019083Y0050579D02*
X0019346Y0050447D01*
Y0050360D01*
X0019083Y0050229D01*
X0019346Y0049818D02*
X0019608Y0049949D01*
X0019346Y0049599D02*
Y0049862D01*
X0019258Y0049949D01*
X0019171D01*
X0019083Y0049862D01*
Y0049599D01*
X0019608D01*
X0019521Y0049319D02*
X0019608Y0049276D01*
Y0049013D01*
X0019521Y0048969D01*
X0019171D01*
X0019083Y0049013D01*
Y0049276D01*
X0019171Y0049319D01*
X0013067Y0024476D02*
X0012804D01*
X0013154Y0024214D02*
X0012804D01*
Y0024739D01*
X0013154D01*
X0012218Y0024214D02*
Y0024739D01*
X0012175Y0024214D02*
X0012437D01*
X0012525Y0024389D01*
Y0024564D01*
X0012437Y0024739D01*
X0012175D01*
X0011589Y0024214D02*
X0011545Y0024301D01*
Y0024651D01*
X0011589Y0024739D01*
X0011851D01*
X0011895Y0024651D01*
Y0024301D01*
X0011851Y0024214D01*
X0011589D01*
X0011265D02*
Y0024739D01*
X0011178Y0024651D01*
X0011090Y0024476D01*
X0011003Y0024651D01*
X0010915Y0024739D01*
Y0024214D01*
X0020703Y0028113D02*
X0020353D01*
X0020528Y0028463D01*
X0020615D01*
Y0027938D01*
X0020073Y0028463D02*
Y0028026D01*
X0020029Y0027938D01*
X0019898Y0028201D01*
Y0028288D02*
Y0028201D01*
X0019767Y0027938D01*
X0019723Y0028026D01*
Y0028463D01*
X0019443Y0028376D02*
X0019399Y0028463D01*
X0019137D01*
X0019093Y0028376D01*
Y0028288D01*
X0019137Y0028201D01*
X0019399D01*
X0019443Y0028113D01*
Y0028026D01*
X0019399Y0027938D01*
X0019137D01*
X0019093Y0028026D01*
X0013716Y0026252D02*
X0013847Y0025990D01*
X0013497Y0026252D02*
X0013760D01*
X0013847Y0026340D01*
Y0026427D01*
X0013760Y0026515D01*
X0013497D01*
Y0025990D01*
X0013130Y0026252D02*
X0012868D01*
X0013218Y0025990D02*
X0012868D01*
Y0026515D01*
X0013218D01*
X0012588D02*
Y0026078D01*
X0012544Y0025990D01*
X0012413Y0026252D01*
Y0026340D02*
Y0026252D01*
X0012282Y0025990D01*
X0012238Y0026078D01*
Y0026515D01*
X0011652Y0025990D02*
X0011608Y0026078D01*
Y0026427D01*
X0011652Y0026515D01*
X0011915D01*
X0011958Y0026427D01*
Y0026078D01*
X0011915Y0025990D01*
X0011652D01*
X0010979Y0026252D02*
X0011241D01*
X0011329Y0026340D01*
Y0026427D01*
X0011241Y0026515D01*
X0010979D01*
Y0025990D01*
X0009566D02*
Y0026515D01*
X0009523Y0025990D02*
X0009785D01*
X0009873Y0026165D01*
Y0026340D01*
X0009785Y0026515D01*
X0009523D01*
X0009155Y0026252D02*
X0008893D01*
X0009243Y0025990D02*
X0008893D01*
Y0026515D01*
X0009243D01*
X0008613Y0025990D02*
X0008307D01*
Y0026515D01*
X0009287Y0028149D02*
X0008937D01*
X0009287Y0028499D01*
Y0028587D01*
X0009243Y0028674D01*
X0008980D01*
X0008937Y0028587D01*
X0008351Y0028149D02*
Y0028674D01*
X0008307Y0028149D02*
X0008570D01*
X0008657Y0028324D01*
Y0028499D01*
X0008570Y0028674D01*
X0008307D01*
X0017794Y0066329D02*
Y0066067D01*
X0018057D02*
X0017532D01*
Y0066417D01*
X0017707Y0065743D02*
X0018057D01*
Y0065787D02*
Y0065481D01*
X0017969Y0065437D01*
X0017707D01*
X0018057Y0064939D02*
X0017969Y0064851D01*
X0017882Y0064808D01*
X0017707D01*
X0017619Y0064851D01*
X0017532Y0064939D01*
Y0065026D01*
X0017619Y0065114D01*
X0017707Y0065158D01*
X0017882D01*
X0017969Y0065114D01*
X0018057Y0065026D01*
Y0064939D01*
Y0064309D02*
X0017969Y0064222D01*
X0017882Y0064178D01*
X0017707D01*
X0017619Y0064222D01*
X0017532Y0064309D01*
Y0064397D01*
X0017619Y0064484D01*
X0017707Y0064528D01*
X0017882D01*
X0017969Y0064484D01*
X0018057Y0064397D01*
Y0064309D01*
Y0063898D02*
Y0063548D01*
X0017707Y0063898D01*
X0017619D01*
X0017532Y0063854D01*
Y0063592D01*
X0017619Y0063548D01*
X0018057Y0063269D02*
Y0062919D01*
X0017707Y0063269D01*
X0017619D01*
X0017532Y0063225D01*
Y0062962D01*
X0017619Y0062919D01*
X0017794Y0061681D02*
X0018057Y0061812D01*
X0017794Y0061462D02*
Y0061725D01*
X0017707Y0061812D01*
X0017619D01*
X0017532Y0061725D01*
Y0061462D01*
X0018057D01*
X0017794Y0061095D02*
Y0060833D01*
X0018057Y0061183D02*
Y0060833D01*
X0017532D01*
Y0061183D01*
Y0060553D02*
X0017969D01*
X0018057Y0060509D01*
X0017794Y0060378D01*
X0017707D02*
X0017794D01*
X0018057Y0060247D01*
X0017969Y0060203D01*
X0017532D01*
X0018057Y0059617D02*
X0017969Y0059573D01*
X0017619D01*
X0017532Y0059617D01*
Y0059880D01*
X0017619Y0059923D01*
X0017969D01*
X0018057Y0059880D01*
Y0059617D01*
X0017794Y0058944D02*
Y0059206D01*
X0017707Y0059294D01*
X0017619D01*
X0017532Y0059206D01*
Y0058944D01*
X0018057D01*
X0017295Y0060188D02*
X0017207Y0060100D01*
X0017120Y0060056D01*
X0016945D01*
X0016857Y0060100D01*
X0016770Y0060188D01*
Y0060275D01*
X0016857Y0060363D01*
X0016945Y0060406D01*
X0017120D01*
X0017207Y0060363D01*
X0017295Y0060275D01*
Y0060188D01*
Y0059777D02*
Y0059602D01*
Y0059689D02*
X0016770D01*
X0016857Y0059602D01*
X0017207Y0059235D02*
X0017295Y0059191D01*
Y0058928D01*
X0017207Y0058885D01*
X0016857D01*
X0016770Y0058928D01*
Y0059191D01*
X0016857Y0059235D01*
X0005357Y0051519D02*
Y0051781D01*
X0005095D02*
X0005619D01*
Y0051431D01*
X0005444Y0052105D02*
X0005095D01*
Y0052061D02*
Y0052367D01*
X0005182Y0052411D01*
X0005444D01*
X0005095Y0052909D02*
X0005182Y0052997D01*
X0005270Y0053041D01*
X0005444D01*
X0005532Y0052997D01*
X0005619Y0052909D01*
Y0052822D01*
X0005532Y0052734D01*
X0005444Y0052691D01*
X0005270D01*
X0005182Y0052734D01*
X0005095Y0052822D01*
Y0052909D01*
Y0053320D02*
Y0053495D01*
Y0053408D02*
X0005619D01*
X0005532Y0053495D01*
X0011900Y0015150D02*
X0009400D01*
Y0014150D02*
X0011900D01*
Y0007050D02*
X0009400D01*
Y0006050D02*
X0011900D01*
X0026409Y0043294D02*
X0026909D01*
X0027159Y0041794D02*
X0026409Y0042544D01*
Y0044044D01*
X0030509D01*
Y0042544D01*
X0029759Y0041794D01*
X0027159D01*
X0030509Y0043294D02*
X0030009D01*
X0018959Y0049044D02*
Y0051544D01*
X0017959D02*
Y0049044D01*
G01X0012150Y0014650D02*
G03X0011900Y0015150I0000625J0000000D01*
Y0014150D02*
G03X0012150Y0014650I0000375J0000500D01*
G01X0009150D02*
G03X0009400Y0014150I0000625J0000000D01*
Y0015150D02*
G03X0009150Y0014650I0000375J0000500D01*
G01X0012150Y0006550D02*
G03X0011900Y0007050I0000625J0000000D01*
Y0006050D02*
G03X0012150Y0006550I0000375J0000500D01*
G01X0009150D02*
G03X0009400Y0006050I0000625J0000000D01*
Y0007050D02*
G03X0009150Y0006550I0000375J0000500D01*
G01X0018459Y0048794D02*
G03X0018959Y0049044I0000000J0000625D01*
G01X0017959D02*
G03X0018459Y0048794I0000500J0000375D01*
Y0051794D02*
G03X0017959Y0051544I0000000J0000625D01*
G01X0018959D02*
G03X0018459Y0051794I0000500J0000375D01*
G54D111*
G01X0028054Y0042393D02*
X0027921D01*
X0028054Y0042527D01*
Y0042560D01*
X0028037Y0042593D01*
X0027937D01*
X0027921Y0042560D01*
X0027825Y0042593D02*
Y0042427D01*
X0027809Y0042393D01*
X0027709D01*
X0027692Y0042427D01*
Y0042593D01*
X0029505Y0042043D02*
X0029488Y0042077D01*
Y0042210D01*
X0029505Y0042243D01*
X0029605D01*
X0029621Y0042210D01*
Y0042077D01*
X0029605Y0042043D01*
X0029505D01*
X0029326D02*
Y0042243D01*
X0029393D02*
X0029259D01*
X0029164D02*
X0029064Y0042043D01*
X0028819Y0042077D02*
X0028835Y0042043D01*
X0028935D01*
X0028952Y0042077D01*
Y0042143D01*
X0028919Y0042177D01*
X0028819D01*
Y0042243D01*
X0028952D01*
X0028640Y0042043D02*
X0028607Y0042077D01*
X0028590Y0042110D01*
Y0042177D01*
X0028607Y0042210D01*
X0028640Y0042243D01*
X0028673D01*
X0028707Y0042210D01*
X0028723Y0042177D01*
Y0042110D01*
X0028707Y0042077D01*
X0028673Y0042043D01*
X0028640D01*
X0028478Y0042143D02*
X0028495Y0042177D01*
Y0042210D01*
X0028478Y0042243D01*
X0028378D01*
X0028361Y0042210D01*
Y0042177D01*
X0028378Y0042143D01*
X0028478D01*
X0028495Y0042110D01*
Y0042077D01*
X0028478Y0042043D01*
X0028378D01*
X0028361Y0042077D01*
Y0042110D01*
X0028378Y0042143D01*
X0028166Y0042043D02*
X0028266Y0042243D01*
X0028133D01*
X0028037Y0042043D02*
Y0042243D01*
X0028004Y0042210D01*
X0027971Y0042143D01*
X0027937Y0042210D01*
X0027904Y0042243D01*
Y0042043D01*
X0027809D02*
X0027692D01*
Y0042243D01*
G01X0009009Y0022317D02*
G03X0009936Y0023244I0000000J0000927D01*
G01X0008082D02*
G03X0009009Y0022317I0000927J0000000D01*
Y0024171D02*
G03X0008082Y0023244I0000000J0000927D01*
G01X0009936D02*
G03X0009009Y0024171I0000927J0000000D01*
G01X0012459Y0025367D02*
G03X0013386Y0026294I0000000J0000927D01*
G01X0011532D02*
G03X0012459Y0025367I0000927J0000000D01*
Y0027221D02*
G03X0011532Y0026294I0000000J0000927D01*
G01X0013386D02*
G03X0012459Y0027221I0000927J0000000D01*
G01X0020459Y0025367D02*
G03X0021386Y0026294I0000000J0000927D01*
G01X0019532D02*
G03X0020459Y0025367I0000927J0000000D01*
Y0027221D02*
G03X0019532Y0026294I0000000J0000927D01*
G01X0021386D02*
G03X0020459Y0027221I0000927J0000000D01*
G01X0016459Y0029367D02*
G03X0017386Y0030294I0000000J0000927D01*
G01X0015532D02*
G03X0016459Y0029367I0000927J0000000D01*
Y0031221D02*
G03X0015532Y0030294I0000000J0000927D01*
G01X0017386D02*
G03X0016459Y0031221I0000927J0000000D01*
Y0021367D02*
G03X0017386Y0022294I0000000J0000927D01*
G01X0015532D02*
G03X0016459Y0021367I0000927J0000000D01*
Y0023221D02*
G03X0015532Y0022294I0000000J0000927D01*
G01X0017386D02*
G03X0016459Y0023221I0000927J0000000D01*
G54D112*
G01X0005310Y0012160D02*
Y0012380D01*
X0005200Y0012270D01*
X0005310Y0012160D01*
Y0011160D02*
Y0011380D01*
X0005200Y0011270D01*
X0005310Y0011160D01*
Y0010160D02*
Y0010380D01*
X0005200Y0010270D01*
X0005310Y0010160D01*
Y0002060D02*
Y0002280D01*
X0005200Y0002170D01*
X0005310Y0002060D01*
Y0004060D02*
Y0004280D01*
X0005200Y0004170D01*
X0005310Y0004060D01*
Y0003060D02*
Y0003280D01*
X0005200Y0003170D01*
X0005310Y0003060D01*
G54D113*
G01X0004529Y0011896D02*
Y0011876D01*
X0005984D01*
Y0012624D01*
X0004529D01*
Y0011896D01*
Y0010896D02*
Y0010876D01*
X0005984D01*
Y0011624D01*
X0004529D01*
Y0010896D01*
Y0009896D02*
Y0009876D01*
X0005984D01*
Y0010624D01*
X0004529D01*
Y0009896D01*
Y0002796D02*
Y0002776D01*
X0005984D01*
Y0003524D01*
X0004529D01*
Y0002796D01*
Y0001796D02*
Y0001776D01*
X0005984D01*
Y0002524D01*
X0004529D01*
Y0001796D01*
Y0003796D02*
Y0003776D01*
X0005984D01*
Y0004524D01*
X0004529D01*
Y0003796D01*
G54D114*
G01X0009641Y0011179D02*
G03X0009759Y0011297I0000000J0000118D01*
G01X0009523D02*
G03X0009641Y0011179I0000118J0000000D01*
Y0011416D02*
G03X0009522Y0011297I0000000J0000119D01*
G01X0009760D02*
G03X0009641Y0011416I0000119J0000000D01*
Y0003079D02*
G03X0009759Y0003197I0000000J0000118D01*
G01X0009523D02*
G03X0009641Y0003079I0000118J0000000D01*
Y0003316D02*
G03X0009522Y0003197I0000000J0000119D01*
G01X0009760D02*
G03X0009641Y0003316I0000119J0000000D01*
G54D106*
X0011650Y0014650D03*
X0009650D03*
X0011650Y0006550D03*
X0009650D03*
X0018459Y0049294D03*
Y0051294D03*
M02*
