*
G04 Mass Parameters ***
*
G04 Image ***
*
%IND:\SOUND LEVEL METER PROJECT\MO PHONG_SOUND LEVEL METER_V3\SOUND LEVEL METER_OK\BOARD_NOISE LEVEL METER\GERBER\NOISE LEVEL METER-18.TOP*%
%ICAS*%
%MOIN*%
%IPPOS*%
%ASAXBY*%
G74*%FSLAN2X34Y34*%
*
G04 Aperture Definitions ***
*
%ADD10C,0.0600*%
%ADD11R,0.0600X0.0600*%
%ADD12C,0.0800*%
%ADD13R,0.0800X0.0800*%
%ADD14R,0.1000X0.1000*%
%ADD15C,0.1000*%
%ADD16O,0.0950X0.0650*%
%ADD17R,0.0950X0.0650*%
%ADD18O,0.0800X0.0600*%
%ADD19R,0.0800X0.0600*%
%ADD20R,0.1400X0.1900*%
%ADD21C,0.0700*%
%ADD22R,0.0700X0.0700*%
%ADD23C,0.1575*%
%ADD24O,0.0750X0.0900*%
%ADD25R,0.0750X0.0900*%
%ADD26O,0.0900X0.0800*%
%ADD27O,0.0800X0.0900*%
%ADD28R,0.0900X0.0800*%
%ADD29O,0.4000X0.3000*%
%ADD30R,0.4000X0.3000*%
%ADD31R,0.0650X0.0950*%
%ADD32C,0.1180*%
%ADD33O,0.0650X0.0950*%
%ADD34R,0.0590X0.0394*%
%ADD35R,0.0394X0.0590*%
%ADD36C,0.0790*%
%ADD37O,0.1181X0.1575*%
%ADD38R,0.1181X0.1575*%
%ADD39O,0.0700X0.0850*%
%ADD40R,0.0700X0.0850*%
%ADD41C,0.0500*%
%ADD42R,0.0500X0.0500*%
%ADD43R,0.0480X0.0740*%
%ADD44R,0.0512X0.0590*%
%ADD45O,0.1500X0.0800*%
%ADD46O,0.0850X0.0650*%
%ADD47R,0.0850X0.0650*%
%ADD48O,0.0149X0.0590*%
%ADD49O,0.0787X0.0157*%
%ADD50O,0.0157X0.0787*%
%ADD51R,0.0157X0.0787*%
%ADD52C,0.0300*%
%ADD53C,0.0100*%
%ADD54C,0.0350*%
%ADD55C,0.0200*%
%ADD56C,0.0500*%
%ADD57C,0.0500*%
%ADD58C,0.0150*%
%ADD59C,0.0250*%
%ADD60C,0.0500*%
*
G04 Plot Data ***
*
G54D52*
G01X0047090Y0007010D02*
X0046310D01*
X0047090Y0014810D02*
X0046310D01*
X0039950Y0014550D02*
X0038730D01*
X0039950Y0006750D02*
X0038730D01*
X0034250Y0003950D02*
X0034320Y0004020D01*
X0036433D01*
X0036563Y0004150D01*
X0044750Y0006150D02*
X0045070D01*
X0045940Y0007020D01*
X0046310D01*
X0034250Y0011750D02*
X0034320Y0011820D01*
X0036433D01*
X0036563Y0011950D01*
X0044750Y0013950D02*
X0045070D01*
X0045940Y0014820D01*
X0046310D01*
X0038490Y0013250D02*
X0038500Y0013260D01*
Y0014270D01*
X0038730Y0014500D01*
Y0014550D01*
X0038490Y0005450D02*
X0038500Y0005460D01*
Y0006470D01*
X0038730Y0006700D01*
Y0006750D01*
X0045070Y0010850D02*
Y0010860D01*
Y0003050D02*
Y0003060D01*
X0040470Y0005200D02*
X0039410D01*
X0039160Y0005450D01*
X0038490D01*
X0040470Y0013000D02*
X0039410D01*
X0039160Y0013250D01*
X0038490D01*
X0036750Y0013050D02*
X0036600Y0012900D01*
X0036563D01*
Y0011950D01*
X0036750Y0005250D02*
X0036600Y0005100D01*
X0036563D01*
Y0004150D01*
X0038284Y0003150D02*
X0037350D01*
X0038284Y0002150D02*
X0037350D01*
X0048080Y0005650D02*
X0047530Y0006200D01*
X0046330D01*
X0041243Y0006443D02*
X0040780Y0005980D01*
X0040020D01*
X0039950Y0005910D01*
X0038284Y0009950D02*
X0037350D01*
X0048080Y0013450D02*
X0047530Y0014000D01*
X0046330D01*
X0039150Y0011950D02*
X0039510D01*
X0039660Y0011800D01*
X0039150Y0004150D02*
X0039510D01*
X0039660Y0004000D01*
X0046780Y0002450D02*
Y0001550D01*
X0037550Y0013350D02*
X0037650Y0013250D01*
X0039150Y0003150D02*
Y0002150D01*
X0044750Y0006990D02*
X0043790D01*
X0043350Y0006550D01*
X0041243Y0014243D02*
X0040780Y0013780D01*
X0040020D01*
X0039950Y0013710D01*
X0041350Y0014350D02*
X0041243Y0014243D01*
X0046780Y0010250D02*
Y0009350D01*
X0038284Y0010950D02*
X0037350D01*
X0037550Y0014550D02*
Y0013350D01*
X0037650Y0013250D01*
X0037550Y0005550D02*
X0037650Y0005450D01*
X0037550Y0006750D02*
Y0005550D01*
X0037650Y0005450D01*
X0034250Y0010750D02*
X0034370Y0010870D01*
X0036483D01*
X0036563Y0010950D01*
X0034250Y0009750D02*
X0034340Y0009840D01*
X0036453D01*
X0036563Y0009950D01*
X0034250Y0001950D02*
X0034340Y0002040D01*
X0036453D01*
X0036563Y0002150D01*
X0039150Y0010950D02*
Y0009950D01*
X0041350Y0006550D02*
X0041243Y0006443D01*
X0038284Y0004150D02*
X0037350D01*
X0038284Y0011950D02*
X0037350D01*
X0044750Y0014790D02*
X0043790D01*
X0043350Y0014350D01*
X0046746Y0004250D02*
Y0003350D01*
X0047260Y0011150D02*
X0046746D01*
X0047260Y0003350D02*
X0046746D01*
X0034250Y0002950D02*
X0034370Y0003070D01*
X0036483D01*
X0036563Y0003150D01*
X0046746Y0012050D02*
Y0011150D01*
X0047260D02*
X0046746D01*
X0000259Y0000344D02*
Y0042894D01*
X0014159Y0056794D01*
Y0062794D01*
X0018159D01*
Y0056794D01*
X0032159Y0042794D01*
Y0000294D01*
X0000259D01*
G54D53*
G01X0046492Y0018958D02*
X0046742Y0019458D01*
X0046408D01*
X0046167Y0018958D02*
X0046000D01*
X0046083D02*
Y0019458D01*
X0046000Y0019375D01*
X0035325Y0018625D02*
X0034992D01*
X0035158Y0018958D01*
X0035242D01*
Y0018458D01*
X0034458Y0018708D02*
X0034708D01*
X0034750Y0018625D01*
Y0018542D01*
X0034708Y0018458D01*
X0034458D01*
X0034417Y0018542D01*
Y0018625D01*
X0034583Y0018958D01*
X0034408Y0027833D02*
X0034158D01*
X0034117Y0027917D01*
Y0028000D01*
X0034158Y0028083D01*
X0034408D01*
X0034450Y0028000D01*
Y0027917D01*
X0034283Y0027583D01*
X0033875Y0027750D02*
X0033542D01*
X0033708Y0028083D01*
X0033792D01*
Y0027583D01*
X0035783Y0028708D02*
X0035825Y0028792D01*
Y0028875D01*
X0035783Y0028958D01*
X0035533D01*
X0035492Y0028875D01*
Y0028792D01*
X0035533Y0028708D01*
X0035783D01*
X0035825Y0028625D01*
Y0028542D01*
X0035783Y0028458D01*
X0035533D01*
X0035492Y0028542D01*
Y0028625D01*
X0035533Y0028708D01*
X0035250Y0028625D02*
X0034917D01*
X0035083Y0028958D01*
X0035167D01*
Y0028458D01*
X0044742Y0029542D02*
X0044825Y0029458D01*
X0044992D01*
X0045075Y0029542D01*
Y0029625D01*
X0044908Y0029792D01*
X0045075Y0029958D01*
X0044742D01*
X0044167Y0029542D02*
X0044250Y0029458D01*
X0044417D01*
X0044500Y0029542D01*
Y0029625D01*
X0044333Y0029792D01*
X0044500Y0029958D01*
X0044167D01*
X0045825Y0027958D02*
X0045492D01*
X0045825Y0028292D01*
Y0028375D01*
X0045783Y0028458D01*
X0045533D01*
X0045492Y0028375D01*
X0044917Y0028042D02*
X0045000Y0027958D01*
X0045167D01*
X0045250Y0028042D01*
Y0028125D01*
X0045083Y0028292D01*
X0045250Y0028458D01*
X0044917D01*
X0044950Y0034208D02*
X0045200D01*
X0045242Y0034125D01*
Y0034042D01*
X0045200Y0033958D01*
X0044950D01*
X0044908Y0034042D01*
Y0034125D01*
X0045075Y0034458D01*
X0044667Y0033958D02*
X0044500D01*
X0044583D02*
Y0034458D01*
X0044500Y0034375D01*
X0035917Y0032958D02*
X0035750D01*
X0035833D02*
Y0033458D01*
X0035750Y0033375D01*
X0046492Y0034958D02*
X0046742Y0035458D01*
X0046408D01*
X0046167Y0034958D02*
X0046000D01*
X0046083D02*
Y0035458D01*
X0046000Y0035375D01*
X0035325Y0034625D02*
X0034992D01*
X0035158Y0034958D01*
X0035242D01*
Y0034458D01*
X0034458Y0034708D02*
X0034708D01*
X0034750Y0034625D01*
Y0034542D01*
X0034708Y0034458D01*
X0034458D01*
X0034417Y0034542D01*
Y0034625D01*
X0034583Y0034958D01*
X0034408Y0043833D02*
X0034158D01*
X0034117Y0043917D01*
Y0044000D01*
X0034158Y0044083D01*
X0034408D01*
X0034450Y0044000D01*
Y0043917D01*
X0034283Y0043583D01*
X0033875Y0043750D02*
X0033542D01*
X0033708Y0044083D01*
X0033792D01*
Y0043583D01*
X0035783Y0044708D02*
X0035825Y0044792D01*
Y0044875D01*
X0035783Y0044958D01*
X0035533D01*
X0035492Y0044875D01*
Y0044792D01*
X0035533Y0044708D01*
X0035783D01*
X0035825Y0044625D01*
Y0044542D01*
X0035783Y0044458D01*
X0035533D01*
X0035492Y0044542D01*
Y0044625D01*
X0035533Y0044708D01*
X0035250Y0044625D02*
X0034917D01*
X0035083Y0044958D01*
X0035167D01*
Y0044458D01*
X0044742Y0045542D02*
X0044825Y0045458D01*
X0044992D01*
X0045075Y0045542D01*
Y0045625D01*
X0044908Y0045792D01*
X0045075Y0045958D01*
X0044742D01*
X0044167Y0045542D02*
X0044250Y0045458D01*
X0044417D01*
X0044500Y0045542D01*
Y0045625D01*
X0044333Y0045792D01*
X0044500Y0045958D01*
X0044167D01*
X0045825Y0043958D02*
X0045492D01*
X0045825Y0044292D01*
Y0044375D01*
X0045783Y0044458D01*
X0045533D01*
X0045492Y0044375D01*
X0044917Y0044042D02*
X0045000Y0043958D01*
X0045167D01*
X0045250Y0044042D01*
Y0044125D01*
X0045083Y0044292D01*
X0045250Y0044458D01*
X0044917D01*
X0044950Y0018208D02*
X0045200D01*
X0045242Y0018125D01*
Y0018042D01*
X0045200Y0017958D01*
X0044950D01*
X0044908Y0018042D01*
Y0018125D01*
X0045075Y0018458D01*
X0044667Y0017958D02*
X0044500D01*
X0044583D02*
Y0018458D01*
X0044500Y0018375D01*
X0035917Y0016958D02*
X0035750D01*
X0035833D02*
Y0017458D01*
X0035750Y0017375D01*
X0013370Y0027110D02*
X0013637Y0027244D01*
X0013370Y0026888D02*
Y0027155D01*
X0013281Y0027244D01*
X0013192D01*
X0013103Y0027155D01*
Y0026888D01*
X0013637D01*
X0013370Y0026555D02*
Y0026288D01*
X0013637Y0026644D02*
Y0026288D01*
X0013103D01*
Y0026644D01*
X0013637Y0025866D02*
X0013103D01*
Y0026044D02*
Y0025688D01*
X0013370Y0025355D02*
Y0025088D01*
X0013637Y0025444D02*
Y0025088D01*
X0013103D01*
Y0025444D01*
X0013637Y0024844D02*
X0013103D01*
X0013192Y0024755D01*
X0013370Y0024666D01*
X0013192Y0024577D01*
X0013103Y0024488D01*
X0013637D01*
Y0023444D02*
Y0023133D01*
X0013103D01*
X0013370Y0022799D02*
Y0022533D01*
X0013637Y0022888D02*
Y0022533D01*
X0013103D01*
Y0022888D01*
Y0022288D02*
X0013281D01*
X0013637Y0022110D01*
X0013281Y0021933D01*
X0013103D01*
X0013370Y0021599D02*
Y0021333D01*
X0013637Y0021688D02*
Y0021333D01*
X0013103D01*
Y0021688D01*
X0013637Y0021088D02*
Y0020777D01*
X0013103D01*
X0013370Y0019644D02*
Y0019377D01*
X0013637Y0019733D02*
Y0019377D01*
X0013103D01*
Y0019733D01*
X0013192Y0019133D02*
X0013103Y0019088D01*
Y0018822D01*
X0013192Y0018777D01*
X0013281D01*
X0013370Y0018822D01*
Y0019088D01*
X0013459Y0019133D01*
X0013548D01*
X0013637Y0019088D01*
Y0018822D01*
X0013548Y0018777D01*
X0013637Y0018533D02*
Y0018355D01*
Y0018444D02*
X0013103D01*
Y0018533D02*
Y0018355D01*
X0013637Y0017711D02*
X0013548Y0017666D01*
X0013192D01*
X0013103Y0017711D01*
Y0017977D01*
X0013192Y0018022D01*
X0013548D01*
X0013637Y0017977D01*
Y0017711D01*
X0013103Y0017422D02*
X0013637D01*
X0013548Y0017333D01*
X0013192Y0017155D01*
X0013103Y0017066D01*
X0013637D01*
X0044100Y0006150D02*
X0044750D01*
X0040959Y0004590D02*
X0040500Y0005050D01*
X0036290Y0004790D02*
X0036750Y0005250D01*
X0042779Y0005912D02*
Y0005217D01*
Y0004522D02*
Y0005217D01*
X0047455Y0002650D02*
X0048280D01*
X0049105D02*
X0048280D01*
X0035125Y0003950D02*
X0034250D01*
X0035907Y0004150D02*
X0036563D01*
X0039370Y0006750D02*
X0038730D01*
X0039140Y0005450D02*
X0038490D01*
X0045660Y0007020D02*
X0046310D01*
X0039300Y0006750D02*
X0039950D01*
X0044100Y0013950D02*
X0044750D01*
X0040959Y0012390D02*
X0040500Y0012850D01*
X0036290Y0012590D02*
X0036750Y0013050D01*
X0042779Y0013712D02*
Y0013017D01*
Y0012322D02*
Y0013017D01*
X0047455Y0010450D02*
X0048280D01*
X0049105D02*
X0048280D01*
X0035125Y0011750D02*
X0034250D01*
X0035907Y0011950D02*
X0036563D01*
X0039370Y0014550D02*
X0038730D01*
X0039140Y0013250D02*
X0038490D01*
X0045660Y0014820D02*
X0046310D01*
X0039300Y0014550D02*
X0039950D01*
X0027184Y0036494D02*
X0028309D01*
X0029434D02*
X0028309D01*
X0009830Y0010122D02*
X0009159Y0010794D01*
X0009830Y0011466D02*
X0009159Y0010794D01*
X0028845Y0015607D02*
X0029659Y0014794D01*
X0030472Y0013981D02*
X0029659Y0014794D01*
X0028845Y0013981D02*
X0029659Y0014794D01*
X0030472Y0015607D02*
X0029659Y0014794D01*
X0020209Y0046739D02*
X0021159D01*
X0022109D02*
X0021159D01*
X0015901Y0043551D02*
X0015159Y0044294D01*
X0014416Y0045036D02*
X0015159Y0044294D01*
X0015901Y0045036D02*
X0015159Y0044294D01*
X0014416Y0043551D02*
X0015159Y0044294D01*
X0011830Y0047411D02*
X0011159Y0046739D01*
X0010487Y0047411D02*
X0011159Y0046739D01*
X0021859Y0033794D02*
X0022809D01*
X0029284Y0010794D02*
X0028159D01*
X0027034D02*
X0028159D01*
Y0025719D02*
Y0026794D01*
X0014420Y0006533D02*
X0015159Y0005794D01*
X0015897Y0005055D02*
X0015159Y0005794D01*
X0015897Y0013055D02*
X0015159Y0013794D01*
X0018420Y0010533D02*
X0019159Y0009794D01*
X0019897Y0009055D02*
X0019159Y0009794D01*
X0018420Y0009055D02*
X0019159Y0009794D01*
X0019897Y0010533D02*
X0019159Y0009794D01*
X0010420Y0010533D02*
X0011159Y0009794D01*
X0011897Y0009055D02*
X0011159Y0009794D01*
X0011897Y0010533D02*
X0011159Y0009794D01*
X0006970Y0007483D02*
X0007709Y0006744D01*
X0008447Y0006005D02*
X0007709Y0006744D01*
X0006970Y0006005D02*
X0007709Y0006744D01*
X0008447Y0007483D02*
X0007709Y0006744D01*
X0029284Y0009294D02*
X0028159D01*
X0027034D02*
X0028159D01*
X0029284Y0005794D02*
X0028159D01*
X0021809Y0033944D02*
Y0034894D01*
X0017159Y0061919D02*
Y0060794D01*
Y0059669D02*
Y0060794D01*
X0023409Y0019894D02*
X0020759D01*
X0018109D02*
X0020759D01*
Y0022044D02*
Y0019894D01*
Y0017744D02*
Y0019894D01*
X0018614Y0042835D02*
Y0041735D01*
X0019639D02*
X0018614D01*
G54D54*
G01X0010895Y0026340D02*
Y0018542D01*
X0012370Y0012041D02*
X0011504D01*
X0018139Y0027025D02*
Y0022975D01*
X0023189D02*
X0018139D01*
X0017741Y0027512D02*
X0018124Y0027144D01*
X0021209Y0004019D02*
X0021109D01*
X0020345Y0004422D02*
Y0003869D01*
X0021209Y0005869D02*
X0021109D01*
X0020660Y0002019D02*
Y0000969D01*
X0021234Y0003994D02*
Y0003894D01*
X0027203Y0004065D02*
X0023081D01*
X0023084Y0003994D02*
Y0003894D01*
X0020184Y0003869D02*
Y0002019D01*
X0022134D02*
X0020184D01*
X0021234Y0003869D02*
X0020184D01*
X0024125Y0006169D02*
Y0000969D01*
X0005556Y0031785D02*
X0000934D01*
X0029613Y0044385D02*
X0027804D01*
X0031484Y0028005D02*
X0030731D01*
X0029795Y0044203D02*
Y0042315D01*
X0031484Y0039975D02*
X0029305D01*
X0015935Y0054794D02*
Y0053886D01*
X0002390Y0044071D02*
Y0043357D01*
X0017195Y0043369D02*
Y0042607D01*
X0019514Y0041810D02*
Y0041660D01*
X0019884Y0041219D02*
X0019398D01*
X0016565Y0051756D02*
Y0050919D01*
X0015305Y0043380D02*
Y0042655D01*
X0014990Y0043384D02*
Y0042628D01*
X0013950Y0001860D02*
X0012714D01*
X0016250Y0043369D02*
Y0042633D01*
X0020009Y0045330D02*
X0018956D01*
X0013730Y0045169D02*
Y0042703D01*
X0030740Y0043258D02*
Y0043024D01*
X0013100Y0045169D02*
Y0042568D01*
X0018140Y0001071D02*
Y0000969D01*
X0014360Y0043827D02*
Y0042674D01*
X0012785Y0054466D02*
Y0046419D01*
X0015935Y0043791D02*
Y0042651D01*
X0014803Y0043440D02*
X0009688D01*
X0009950Y0051631D02*
Y0045469D01*
X0030425Y0040538D02*
Y0030593D01*
X0011210Y0044961D02*
Y0042614D01*
X0008450Y0043969D02*
X0003259D01*
X0011525Y0044969D02*
Y0042706D01*
X0016880Y0043369D02*
Y0042670D01*
X0016234Y0045169D02*
Y0043369D01*
X0012785Y0045169D02*
Y0042694D01*
X0004595Y0044332D02*
Y0043969D01*
X0028535Y0045463D02*
Y0040740D01*
X0018588Y0055410D02*
X0017009D01*
X0009950Y0043701D02*
Y0042645D01*
X0006485Y0030003D02*
Y0029949D01*
X0012039Y0013944D02*
X0008979D01*
X0007115Y0042719D02*
Y0042559D01*
X0008060Y0042719D02*
Y0042592D01*
X0006800Y0042719D02*
Y0042691D01*
X0005540Y0042719D02*
Y0042707D01*
X0005855Y0013059D02*
Y0012665D01*
X0026215Y0012570D02*
X0022801D01*
X0002390Y0040580D02*
Y0030265D01*
X0005225Y0042719D02*
Y0042622D01*
X0006485Y0042719D02*
Y0042701D01*
X0003994Y0006169D02*
Y0003219D01*
X0006444D02*
X0003994D01*
X0006444Y0006169D02*
Y0003219D01*
Y0006169D02*
X0003994D01*
Y0016009D02*
Y0013059D01*
X0009880Y0017925D02*
X0007875D01*
X0005925Y0016665D02*
X0005088D01*
X0003784Y0009105D02*
X0000934D01*
X0005374Y0012570D02*
X0000934D01*
X0005540Y0013059D02*
Y0012636D01*
X0003829Y0008790D02*
X0000934D01*
X0012528Y0019500D02*
X0007875D01*
X0004595Y0016497D02*
Y0016009D01*
X0003790Y0010050D02*
X0000934D01*
X0003802Y0008160D02*
X0000934D01*
X0003965Y0009625D02*
Y0009602D01*
X0005855Y0003219D02*
Y0000969D01*
Y0006559D02*
Y0006169D01*
X0003965Y0008535D02*
Y0008512D01*
X0003994Y0014145D02*
X0000934D01*
X0022865Y0018661D02*
Y0012507D01*
X0009800Y0017610D02*
X0007875D01*
X0008065Y0009969D02*
X0008209Y0009825D01*
X0004595Y0026389D02*
Y0018542D01*
X0031484Y0017295D02*
X0017727D01*
X0004595Y0013059D02*
Y0012122D01*
X0003868Y0011625D02*
X0000934D01*
X0004122Y0011940D02*
X0000934D01*
X0012528Y0022020D02*
X0007875D01*
X0006654Y0006559D02*
X0004904D01*
X0012528Y0025485D02*
X0007875D01*
X0005855Y0044423D02*
Y0043969D01*
X0021605Y0017899D02*
Y0012744D01*
X0010604Y0035565D02*
X0009213D01*
X0014045Y0027975D02*
Y0027819D01*
X0010571Y0034625D02*
X0010450D01*
X0025700Y0037269D02*
Y0035894D01*
X0009635Y0038144D02*
Y0034054D01*
X0011525Y0053206D02*
Y0047478D01*
X0005925Y0016980D02*
X0005394D01*
X0016820Y0006891D02*
X0017011Y0006700D01*
X0004904Y0006585D02*
X0000934D01*
X0008509Y0030169D02*
X0008309D01*
X0009320Y0032844D02*
Y0032143D01*
X0009525Y0032415D02*
X0009218D01*
X0007115Y0030444D02*
Y0029725D01*
X0007498Y0030840D02*
X0007206D01*
X0011525Y0016774D02*
Y0013944D01*
X0007527Y0032730D02*
X0006814D01*
X0007510Y0031785D02*
X0007206D01*
X0007599Y0032415D02*
X0007206D01*
X0009596Y0033990D02*
X0009333D01*
X0007234Y0035219D02*
X0006793D01*
X0007485Y0033045D02*
X0007128D01*
X0007569Y0033360D02*
X0007229D01*
X0007524Y0035250D02*
X0006847D01*
X0009320Y0033844D02*
Y0033143D01*
X0007486Y0034935D02*
X0007234D01*
X0007544Y0034305D02*
X0007234D01*
X0009320Y0034844D02*
Y0034143D01*
X0015620Y0051818D02*
Y0051013D01*
X0010624Y0037455D02*
X0009334D01*
X0009320Y0035844D02*
Y0035143D01*
X0005225Y0006559D02*
Y0006169D01*
X0031484Y0036825D02*
X0029241D01*
X0031484Y0036195D02*
X0029254D01*
X0027510Y0037044D02*
X0027309D01*
X0031484Y0035250D02*
X0029273D01*
X0011840Y0017403D02*
Y0013944D01*
X0009005Y0030335D02*
Y0029725D01*
X0029165Y0034021D02*
Y0033967D01*
Y0035021D02*
Y0034967D01*
X0027275Y0030355D02*
Y0029999D01*
X0029309Y0032344D02*
Y0030644D01*
X0031484Y0033360D02*
X0029298D01*
X0026509Y0035894D02*
Y0035063D01*
X0010497Y0037140D02*
X0009320D01*
X0031484Y0036510D02*
X0029308D01*
X0026015Y0037269D02*
Y0035894D01*
X0031484Y0035880D02*
X0029216D01*
X0029165Y0033021D02*
Y0032967D01*
X0007234Y0036640D02*
Y0036069D01*
X0012467Y0012041D02*
Y0011411D01*
Y0011310D02*
X0009802D01*
X0026184Y0015819D02*
X0024134D01*
Y0013769D01*
X0026184D02*
X0024134D01*
X0026960Y0004245D02*
Y0000969D01*
X0026184Y0015819D02*
Y0015702D01*
X0003994Y0015720D02*
X0000934D01*
X0029480Y0025905D02*
Y0015803D01*
X0026184Y0013886D02*
Y0013769D01*
X0026284Y0026969D02*
Y0025844D01*
X0027905Y0013801D02*
Y0013644D01*
X0027810Y0013830D02*
X0027007D01*
X0026310D02*
X0026184D01*
X0029653Y0029265D02*
X0028523D01*
X0028535Y0025929D02*
Y0015747D01*
X0010501Y0036825D02*
X0009316D01*
X0017839Y0015516D02*
Y0015494D01*
X0019079Y0043440D02*
X0018084D01*
X0010488Y0047220D02*
X0005539D01*
X0031484Y0015405D02*
X0030481D01*
X0018234Y0027060D02*
X0017707D01*
X0012555Y0014460D02*
X0007875D01*
X0021479Y0044969D02*
Y0044894D01*
X0024039Y0046969D02*
X0021951D01*
X0020345D02*
Y0046875D01*
X0009635Y0012644D02*
Y0011467D01*
X0021984Y0046619D02*
Y0044969D01*
X0014675Y0047002D02*
Y0046419D01*
X0014360Y0045169D02*
Y0044760D01*
X0019715Y0046969D02*
Y0044571D01*
X0018084Y0043369D02*
X0016234D01*
X0014579Y0045015D02*
X0011984D01*
X0020334Y0045888D02*
X0020203Y0045757D01*
X0004629Y0046275D02*
X0004594D01*
X0005520Y0039246D02*
X0005511D01*
Y0038085D02*
X0000934D01*
X0005511Y0039246D02*
Y0037596D01*
X0012470Y0054151D02*
Y0046419D01*
X0030110Y0040741D02*
Y0030395D01*
X0008979Y0011706D02*
X0008784D01*
X0022865Y0031969D02*
Y0028719D01*
X0015420Y0007530D02*
X0012704D01*
X0021984Y0033619D02*
Y0031969D01*
X0005584Y0037596D02*
Y0036069D01*
X0022906Y0038085D02*
X0022609D01*
X0008052Y0030210D02*
X0006935D01*
X0005556Y0032592D02*
Y0030942D01*
X0004595Y0039769D02*
Y0030819D01*
X0007206Y0032592D02*
Y0030942D01*
Y0032592D02*
X0005556D01*
X0021605Y0029451D02*
Y0029336D01*
X0005584Y0034620D02*
X0000934D01*
X0005584Y0035219D02*
Y0033569D01*
Y0033675D02*
X0000934D01*
X0007234Y0035219D02*
Y0033569D01*
X0005584Y0036195D02*
X0000934D01*
X0005855Y0035337D02*
Y0035219D01*
X0005592Y0033569D02*
X0005584D01*
X0007499Y0031155D02*
X0007206D01*
X0005584Y0036510D02*
X0000934D01*
X0007508Y0036195D02*
X0007234D01*
X0007491Y0035880D02*
X0007231D01*
X0014211Y0027819D02*
Y0016491D01*
Y0027819D02*
X0012528D01*
Y0016491D01*
X0014211D02*
X0012528D01*
X0003020Y0019718D02*
Y0000969D01*
X0013395Y0015300D02*
X0012039Y0013944D01*
X0017484Y0059505D02*
X0014834D01*
X0001166Y0024855D02*
X0000934D01*
X0031484Y0003435D02*
X0029079D01*
X0031055Y0026528D02*
Y0002836D01*
X0003994Y0015405D02*
X0000934D01*
X0029795Y0013778D02*
Y0002499D01*
X0029611Y0002175D02*
X0022134D01*
X0031484Y0005955D02*
X0029159D01*
X0031484Y0005640D02*
X0029159D01*
X0029165Y0025844D02*
Y0015692D01*
X0027905Y0002950D02*
Y0000969D01*
X0025070Y0006099D02*
Y0000969D01*
X0004100Y0045645D02*
X0003964D01*
X0008690Y0009969D02*
Y0009825D01*
X0027590Y0003054D02*
Y0000969D01*
X0026789Y0004380D02*
X0022999D01*
X0026330Y0004839D02*
Y0000969D01*
X0026015Y0005154D02*
Y0000969D01*
X0025385Y0026969D02*
Y0015819D01*
X0024440Y0026969D02*
Y0015819D01*
X0022002Y0033619D02*
X0021984D01*
X0025070Y0010144D02*
Y0008919D01*
X0021984Y0032730D02*
X0021717D01*
X0023180Y0006019D02*
Y0000969D01*
X0021920Y0002019D02*
Y0000969D01*
X0021605Y0008984D02*
Y0008144D01*
X0031484Y0015090D02*
X0030640D01*
X0020975Y0008894D02*
Y0008144D01*
X0021920Y0006844D02*
Y0005535D01*
X0027905Y0030644D02*
Y0030155D01*
X0019715Y0017943D02*
Y0014882D01*
X0009320Y0005914D02*
Y0003456D01*
X0015620Y0054794D02*
Y0053770D01*
X0017510Y0001051D02*
Y0000969D01*
X0004490Y0026430D02*
X0000934D01*
X0018549Y0009105D02*
X0017035D01*
X0023479Y0011516D02*
Y0011444D01*
X0012470Y0004746D02*
Y0003041D01*
X0020218Y0004695D02*
X0015539D01*
X0009320Y0012644D02*
Y0011603D01*
Y0030844D02*
Y0029725D01*
X0006679Y0027512D02*
X0006112Y0026946D01*
X0018903Y0055095D02*
X0017009D01*
X0009950Y0010561D02*
Y0009825D01*
X0008375Y0006109D02*
Y0003410D01*
X0004595Y0007106D02*
Y0006169D01*
X0005584Y0033990D02*
X0000934D01*
X0005586Y0035880D02*
X0000934D01*
X0006170Y0032659D02*
Y0032592D01*
X0006024Y0035219D02*
X0005584D01*
X0006003Y0032730D02*
X0000934D01*
X0022822Y0036350D02*
X0022951Y0036221D01*
X0012836Y0004380D02*
X0006444D01*
X0006485Y0006559D02*
Y0000969D01*
X0003857Y0009420D02*
X0000934D01*
X0003994Y0013515D02*
X0000934D01*
X0005225Y0013059D02*
Y0012471D01*
X0003994Y0005325D02*
X0000934D01*
X0016009Y0061794D02*
Y0061780D01*
X0003650Y0029426D02*
Y0018058D01*
X0016009Y0059807D02*
Y0059794D01*
X0004079Y0045015D02*
X0003334D01*
X0017484Y0062119D02*
X0014834D01*
X0018455Y0055543D02*
Y0050919D01*
X0012470Y0045169D02*
Y0042699D01*
X0019839Y0045016D02*
Y0044448D01*
X0021290Y0052708D02*
Y0050919D01*
X0019400Y0046969D02*
Y0044886D01*
X0016565Y0048675D02*
Y0048219D01*
X0015935Y0045169D02*
Y0044797D01*
X0019394Y0043125D02*
X0009373D01*
X0012155Y0045169D02*
Y0042584D01*
X0002786Y0043755D02*
X0002074D01*
X0011840Y0044969D02*
Y0042681D01*
X0020342Y0046619D02*
X0020334D01*
X0018455Y0044064D02*
Y0042696D01*
X0002260Y0043125D02*
X0001444D01*
X0026960Y0037269D02*
Y0035514D01*
X0002984Y0030210D02*
X0002436D01*
X0008551Y0044070D02*
X0002389D01*
X0005511Y0039345D02*
X0000934D01*
X0005511Y0039030D02*
X0000934D01*
X0005511Y0038400D02*
X0000934D01*
X0007368Y0036510D02*
X0007234D01*
X0005511Y0037770D02*
X0000934D01*
X0005584Y0037455D02*
X0000934D01*
X0005584Y0036825D02*
X0000934D01*
X0007573Y0034620D02*
X0007234D01*
X0007484Y0033990D02*
X0007234D01*
X0005970Y0035250D02*
X0000934D01*
X0005584Y0034935D02*
X0000934D01*
X0004910Y0006559D02*
Y0006169D01*
X0005584Y0034305D02*
X0000934D01*
X0005588Y0033360D02*
X0000934D01*
X0007490Y0032100D02*
X0007206D01*
X0002994Y0039975D02*
X0000934D01*
X0002705Y0029190D02*
Y0025475D01*
X0005925Y0023910D02*
X0002912D01*
X0004910Y0039769D02*
Y0030819D01*
X0003884Y0029265D02*
X0002714D01*
X0005855Y0026950D02*
Y0016009D01*
X0005584Y0037596D02*
X0005511D01*
X0001304Y0025170D02*
X0000934D01*
X0003965Y0026981D02*
Y0018380D01*
X0001137Y0024540D02*
X0000934D01*
X0003945Y0027690D02*
X0000934D01*
X0003994Y0013830D02*
X0000934D01*
X0003937Y0027060D02*
X0000934D01*
X0001760Y0019332D02*
Y0002904D01*
X0004551Y0028320D02*
X0002163D01*
X0003650Y0016981D02*
Y0000969D01*
X0004118Y0028005D02*
X0000934D01*
X0001632Y0025485D02*
X0000934D01*
X0012528Y0025170D02*
X0007875D01*
X0001257Y0020760D02*
X0000934D01*
X0002705Y0023738D02*
Y0021144D01*
X0001146Y0020130D02*
X0000934D01*
X0001995Y0023595D02*
X0000934D01*
X0005925Y0022965D02*
X0000934D01*
X0005925Y0022650D02*
X0000934D01*
X0018455Y0022975D02*
Y0020814D01*
X0005925Y0025800D02*
X0000934D01*
X0003020Y0024048D02*
Y0020834D01*
X0001408Y0023910D02*
X0000934D01*
X0005925Y0022020D02*
X0000934D01*
X0019786Y0017925D02*
X0017669D01*
X0005925Y0021390D02*
X0000934D01*
X0005925Y0023595D02*
X0002325D01*
X0004904Y0007139D02*
Y0006559D01*
X0005925Y0019185D02*
X0000934D01*
X0003965Y0007445D02*
Y0000969D01*
X0005925Y0018555D02*
X0000934D01*
X0003793Y0018240D02*
X0000934D01*
X0005925Y0023280D02*
X0000934D01*
X0005925Y0013059D02*
X0003994D01*
X0022550Y0003056D02*
Y0000969D01*
X0025700Y0005469D02*
Y0000969D01*
X0003786Y0011310D02*
X0000934D01*
X0005925Y0016009D02*
X0003994D01*
X0004280Y0013059D02*
Y0012038D01*
X0005925Y0016035D02*
X0000934D01*
X0003994Y0014775D02*
X0000934D01*
X0003994Y0014460D02*
X0000934D01*
X0004280Y0016524D02*
Y0016009D01*
X0005925Y0016350D02*
X0000934D01*
X0031484Y0016665D02*
X0017292D01*
X0011840Y0009176D02*
Y0008394D01*
X0008979Y0014016D02*
X0007875D01*
X0005925Y0012885D02*
X0000934D01*
X0007430Y0008836D02*
Y0007621D01*
X0005925Y0017295D02*
X0005522D01*
X0003821Y0010995D02*
X0000934D01*
X0006170Y0003219D02*
Y0000969D01*
X0003994Y0003750D02*
X0000934D01*
X0004280Y0003219D02*
Y0000969D01*
X0003938Y0008475D02*
X0000934D01*
X0003794Y0007845D02*
X0000934D01*
X0006800Y0008140D02*
Y0006888D01*
X0005540Y0003219D02*
Y0000969D01*
X0007115Y0001352D02*
Y0000969D01*
X0004910Y0003219D02*
Y0000969D01*
X0006920Y0006270D02*
X0000934D01*
X0003994Y0005955D02*
X0000934D01*
X0003994Y0005640D02*
X0000934D01*
X0001130Y0028111D02*
Y0002776D01*
X0004280Y0007190D02*
Y0006169D01*
X0001188Y0002805D02*
X0000934D01*
X0007044D02*
X0002129D01*
X0030188D02*
X0022134D01*
X0015620Y0043492D02*
Y0042710D01*
X0015180Y0052260D02*
X0010579D01*
X0020499Y0005640D02*
X0019479D01*
X0030528Y0026430D02*
X0029984D01*
X0017825Y0056173D02*
Y0050919D01*
X0031370Y0028148D02*
Y0027501D01*
X0030110Y0026646D02*
Y0015714D01*
X0030700Y0028036D02*
X0030776Y0027960D01*
X0030425Y0014113D02*
Y0002884D01*
X0027461Y0010144D02*
X0027159D01*
X0018139Y0024540D02*
X0014211D01*
X0003501Y0017610D02*
X0000934D01*
X0031484Y0023910D02*
X0023189D01*
X0031370Y0026886D02*
Y0002652D01*
X0003891Y0027375D02*
X0000934D01*
X0016880Y0026349D02*
Y0018533D01*
X0010003Y0026745D02*
X0008879D01*
X0009842Y0027060D02*
X0009194D01*
X0013530Y0015405D02*
X0007875D01*
X0004251Y0028635D02*
X0002479D01*
X0016880Y0004920D02*
Y0004611D01*
X0005925Y0017610D02*
X0005543D01*
X0012528Y0027060D02*
X0011801D01*
X0004595Y0028497D02*
Y0028335D01*
X0011984Y0046619D02*
Y0046419D01*
X0015959Y0049110D02*
X0007429D01*
X0023479Y0011516D02*
X0023309D01*
X0025070Y0013769D02*
Y0011444D01*
X0024120Y0046905D02*
X0021967D01*
X0020030Y0053968D02*
Y0050919D01*
X0009525Y0030840D02*
X0009319D01*
X0029219Y0015720D02*
X0028598D01*
X0005584Y0037140D02*
X0000934D01*
X0009334Y0037169D02*
X0009315D01*
X0003330Y0030840D02*
X0000934D01*
X0007230Y0007530D02*
X0006654D01*
X0003808Y0010365D02*
X0000934D01*
X0018437D02*
X0017116D01*
X0010150Y0009825D02*
X0008209D01*
X0016162Y0016665D02*
X0014211D01*
X0012528Y0021390D02*
X0007875D01*
X0008984Y0009988D02*
Y0009969D01*
X0012528Y0020445D02*
X0007875D01*
X0009402Y0008475D02*
X0007099D01*
X0005925Y0026500D02*
Y0016009D01*
X0027275Y0010365D02*
X0025849D01*
X0012528Y0024225D02*
X0007875D01*
X0009278Y0027144D02*
X0007875Y0025741D01*
X0003994Y0013200D02*
X0000934D01*
X0006604Y0027690D02*
X0005887D01*
X0012528Y0024855D02*
X0007875D01*
X0007175Y0009091D02*
Y0008774D01*
X0012528Y0024540D02*
X0007875D01*
X0009480Y0008575D02*
X0007950D01*
X0012528Y0025800D02*
X0007934D01*
X0009320Y0027136D02*
Y0013944D01*
X0008060Y0030207D02*
Y0029725D01*
X0010265Y0016659D02*
Y0013944D01*
X0009950Y0016981D02*
Y0013944D01*
X0012528Y0018555D02*
X0007875D01*
X0010092Y0018240D02*
X0007875D01*
X0027582Y0040519D02*
X0024643D01*
X0023048Y0038400D02*
X0022609D01*
X0029795Y0028787D02*
Y0028219D01*
X0022609Y0043894D02*
Y0036719D01*
X0031484Y0038400D02*
X0029309D01*
X0022959Y0041550D02*
X0022609D01*
X0022235Y0051763D02*
Y0050919D01*
X0021984Y0033360D02*
X0021589D01*
X0012470Y0011350D02*
Y0010394D01*
X0021992Y0033675D02*
X0021704D01*
X0031484Y0027375D02*
X0031412D01*
X0009302Y0007845D02*
X0006654D01*
X0005356Y0030819D02*
X0004217D01*
X0031484Y0013515D02*
X0029159D01*
X0016250Y0005694D02*
Y0004625D01*
X0026695Y0035250D02*
X0026509D01*
X0031484Y0037770D02*
X0029309D01*
X0031484Y0035565D02*
X0029306D01*
X0031484Y0034620D02*
X0029299D01*
X0031484Y0034935D02*
X0029185D01*
X0027592Y0030644D02*
X0027402Y0030454D01*
X0030110Y0043888D02*
Y0042723D01*
X0009525Y0031155D02*
X0009318D01*
X0021984Y0032100D02*
X0021707D01*
X0009005Y0026871D02*
Y0013944D01*
X0020009Y0045294D02*
Y0045016D01*
X0029888Y0028635D02*
X0028384D01*
X0027134Y0028853D02*
X0027000Y0028719D01*
X0012528Y0022335D02*
X0007875D01*
X0029165Y0030644D02*
Y0028219D01*
X0010371Y0034620D02*
X0009244D01*
X0019400Y0043119D02*
Y0042249D01*
X0021423Y0052575D02*
X0017252D01*
X0010334Y0045853D02*
X0008450Y0043969D01*
X0012785Y0027975D02*
Y0027819D01*
X0017510Y0043369D02*
Y0042704D01*
X0009811Y0045330D02*
X0006273D01*
X0008715Y0003456D02*
Y0003243D01*
X0013415Y0008908D02*
Y0006819D01*
X0020660Y0017869D02*
Y0012744D01*
X0027159Y0010050D02*
X0023581D01*
X0023180Y0009206D02*
Y0008919D01*
X0012470Y0009194D02*
Y0007764D01*
X0015305Y0012886D02*
Y0012744D01*
X0024755Y0010144D02*
Y0008919D01*
X0015388Y0007215D02*
X0013019D01*
X0004280Y0028618D02*
Y0028166D01*
X0017839Y0006900D02*
X0016826D01*
X0013466Y0003750D02*
X0006444D01*
X0018240Y0009735D02*
X0017272D01*
X0021920Y0009206D02*
Y0008528D01*
X0015305Y0001000D02*
Y0000969D01*
X0014045Y0009517D02*
Y0006189D01*
X0008811Y0006900D02*
X0008615D01*
X0005556Y0031470D02*
X0000934D01*
X0020334Y0045960D02*
X0018326D01*
X0014689Y0006585D02*
X0013649D01*
X0015674Y0008790D02*
X0011444D01*
X0018455Y0005206D02*
Y0002692D01*
X0009635Y0010120D02*
Y0009825D01*
X0020184Y0002805D02*
X0018425D01*
X0018650Y0002150D02*
Y0001850D01*
X0013950Y0003000D02*
Y0001000D01*
X0015650D02*
X0013950D01*
X0020184Y0003435D02*
X0018199D01*
X0013950Y0001230D02*
X0012456D01*
X0011341Y0008892D02*
X0014257Y0005977D01*
X0015305Y0046894D02*
Y0046419D01*
X0016565Y0001033D02*
Y0000969D01*
X0016880Y0007010D02*
Y0006831D01*
X0020249Y0009735D02*
X0020077D01*
X0016250Y0001129D02*
Y0000969D01*
X0017839Y0007215D02*
X0016929D01*
X0029159Y0013644D02*
Y0011944D01*
Y0013644D02*
X0027159D01*
X0022235Y0009206D02*
Y0008943D01*
X0022865Y0003297D02*
Y0000969D01*
X0028850Y0014037D02*
Y0013644D01*
X0031484Y0011310D02*
X0029007D01*
X0026960Y0018895D02*
Y0015774D01*
X0031484Y0011940D02*
X0029146D01*
X0029795Y0026118D02*
Y0015810D01*
X0027167Y0029895D02*
X0024733D01*
X0031484Y0027690D02*
X0031254D01*
X0030740Y0026423D02*
Y0002906D01*
X0031484Y0027060D02*
X0031422D01*
X0028034Y0025844D02*
X0026284D01*
X0013730Y0003486D02*
Y0000969D01*
X0007430Y0001026D02*
Y0000969D01*
X0014675Y0001000D02*
Y0000969D01*
X0012717Y0002341D02*
Y0001947D01*
X0010580Y0006423D02*
Y0003456D01*
X0006943Y0002341D02*
Y0001947D01*
X0011525Y0005691D02*
Y0003454D01*
X0010946Y0003456D02*
X0008715D01*
X0012785Y0004431D02*
Y0000969D01*
X0017825Y0027432D02*
Y0015494D01*
X0019479Y0013206D02*
X0017875D01*
X0017026Y0012885D02*
X0015300D01*
X0029159Y0006644D02*
X0028856D01*
X0022550Y0006385D02*
Y0004832D01*
X0008375Y0009969D02*
Y0009825D01*
X0014045Y0010719D02*
Y0010071D01*
X0008984Y0011619D02*
Y0011600D01*
X0017825Y0010719D02*
Y0006553D01*
X0020009Y0045016D02*
X0019839D01*
X0009320Y0007790D02*
Y0007573D01*
X0022637Y0006270D02*
X0019479D01*
X0017839Y0006553D02*
X0017688D01*
X0019085Y0008877D02*
Y0008083D01*
X0018455Y0013206D02*
Y0012744D01*
X0017646Y0056355D02*
X0017009D01*
X0010275Y0010050D02*
X0009515D01*
X0019479Y0015516D02*
X0017839D01*
X0018318Y0009420D02*
X0017209D01*
X0016565Y0013099D02*
Y0012744D01*
X0024134Y0015405D02*
X0019479D01*
X0020345Y0010719D02*
Y0010206D01*
X0016317Y0014144D02*
X0016009D01*
X0023189Y0026969D02*
Y0022975D01*
X0025359Y0010144D02*
X0023565D01*
X0021839Y0010553D02*
X0021688D01*
X0023495Y0026969D02*
Y0011444D01*
X0015482Y0010680D02*
X0013717D01*
X0012467Y0012041D02*
X0012370D01*
X0014216Y0003000D02*
X0013950D01*
X0013185Y0015090D02*
X0007875D01*
X0008375Y0008575D02*
Y0007378D01*
X0013717Y0010719D02*
Y0010532D01*
X0022822Y0012550D02*
X0023114Y0012257D01*
X0031484Y0009735D02*
X0029159D01*
Y0010144D02*
Y0008444D01*
X0011504Y0012644D02*
Y0012041D01*
X0008375Y0050056D02*
Y0043969D01*
X0029572Y0001545D02*
X0018593D01*
X0011525Y0012041D02*
Y0010638D01*
X0031484Y0010365D02*
X0029042D01*
X0020366Y0046969D02*
X0015489D01*
X0018461Y0007516D02*
X0017839D01*
X0031484Y0009420D02*
X0029159D01*
X0027905Y0019435D02*
Y0015787D01*
X0029159Y0006644D02*
Y0004944D01*
X0015935Y0005300D02*
Y0004625D01*
X0028309Y0002944D02*
X0028009D01*
X0026895Y0013250D02*
X0025089Y0011444D01*
X0025529Y0005640D02*
X0021818D01*
X0026474Y0004695D02*
X0022762D01*
X0009005Y0050686D02*
Y0044524D01*
X0019884Y0041550D02*
X0019507D01*
X0019839Y0042814D02*
Y0042706D01*
X0029928Y0044070D02*
X0022584D01*
X0015884Y0049425D02*
X0007744D01*
X0012528Y0026745D02*
X0011640D01*
X0031484Y0016980D02*
X0017598D01*
X0026530Y0012885D02*
X0017309D01*
X0022917Y0039660D02*
X0022609D01*
X0023495Y0046969D02*
Y0042691D01*
X0023909Y0042719D02*
X0023709D01*
X0022887Y0039975D02*
X0022609D01*
X0031484Y0040290D02*
X0029211D01*
X0022936Y0040605D02*
X0022609D01*
X0022865Y0009206D02*
Y0009041D01*
X0005556Y0031155D02*
X0000934D01*
X0029665Y0041865D02*
X0024733D01*
X0029903Y0042495D02*
X0024474D01*
X0026330Y0044548D02*
Y0040519D01*
X0024809Y0035894D02*
Y0035519D01*
X0022921Y0037140D02*
X0022609D01*
X0015935Y0016870D02*
Y0015494D01*
X0024755Y0046794D02*
Y0040519D01*
X0022634Y0036719D02*
X0022609D01*
X0014990Y0027975D02*
Y0015494D01*
X0026330Y0037269D02*
Y0035894D01*
X0012155Y0027975D02*
Y0014059D01*
X0027309Y0036510D02*
X0024639D01*
X0023010Y0037455D02*
X0022609D01*
X0027309Y0037269D02*
X0024643D01*
X0027363Y0036195D02*
X0024677D01*
X0014675Y0010719D02*
Y0006576D01*
X0027325Y0035880D02*
X0026509D01*
X0024809D02*
X0024733D01*
X0020186Y0005010D02*
X0017649D01*
X0031484Y0030840D02*
X0029309D01*
X0012470Y0001246D02*
Y0000969D01*
X0017484Y0056985D02*
X0014834D01*
X0027159Y0009735D02*
X0023527D01*
X0011385Y0003435D02*
X0010946D01*
X0029940Y0040920D02*
X0024733D01*
X0008979Y0012644D02*
Y0012572D01*
X0028220Y0025846D02*
Y0015817D01*
X0024755Y0026969D02*
Y0015819D01*
X0022885Y0030840D02*
X0021732D01*
X0026994Y0029265D02*
X0024645D01*
X0022946Y0029580D02*
X0021671D01*
X0023001Y0031470D02*
X0021616D01*
X0020820Y0004065D02*
X0017569D01*
X0022902Y0028719D02*
X0021715D01*
X0026960Y0030269D02*
Y0028719D01*
X0025000Y0006169D02*
X0026815Y0004354D01*
X0028220Y0030644D02*
Y0030017D01*
X0027123Y0028950D02*
X0024732D01*
X0030259Y0028219D02*
X0028259D01*
X0021605Y0030451D02*
Y0030336D01*
X0029931Y0030210D02*
X0024671D01*
X0026645Y0030269D02*
Y0028719D01*
X0022972Y0029265D02*
X0021645D01*
X0023810Y0026969D02*
Y0011444D01*
X0022885Y0028950D02*
X0021732D01*
X0021984Y0032415D02*
X0021580D01*
X0022887Y0031969D02*
X0021984D01*
X0021605Y0033451D02*
Y0033336D01*
X0022891Y0031785D02*
X0021726D01*
X0024440Y0046778D02*
Y0042525D01*
X0021605Y0032451D02*
Y0032336D01*
X0025385Y0030269D02*
Y0028719D01*
X0022235Y0031969D02*
Y0028719D01*
X0026645Y0025844D02*
Y0020224D01*
X0027590Y0025844D02*
Y0020288D01*
X0031484Y0012255D02*
X0029159D01*
X0031484Y0021075D02*
X0022903D01*
X0031484Y0020130D02*
X0027762D01*
X0027905Y0025844D02*
Y0019853D01*
X0027119Y0018870D02*
X0023006D01*
X0029480Y0013785D02*
Y0000969D01*
X0020030Y0046969D02*
Y0045459D01*
X0022634Y0036719D02*
Y0036483D01*
X0020975Y0004029D02*
Y0003869D01*
X0031484Y0014775D02*
X0030683D01*
X0018084Y0044435D02*
X0019440Y0043078D01*
X0015137Y0050370D02*
X0008689D01*
X0024125Y0046902D02*
Y0042690D01*
X0019884Y0041865D02*
X0019512D01*
X0002417Y0040552D02*
X0003015Y0039954D01*
X0031484Y0009105D02*
X0029159D01*
X0031484Y0010995D02*
X0029134D01*
X0022884Y0041865D02*
X0022609D01*
X0002471Y0043440D02*
X0001759D01*
X0014309Y0055410D02*
X0013729D01*
X0016950Y0059820D02*
X0016367D01*
X0016250Y0059799D02*
Y0056794D01*
X0017484Y0062119D02*
Y0061729D01*
Y0059820D02*
X0017367D01*
X0017195Y0059795D02*
Y0053205D01*
X0003994Y0004065D02*
X0000934D01*
X0015305Y0062119D02*
Y0061794D01*
X0014834Y0062119D02*
Y0061794D01*
X0017484Y0059858D02*
Y0056794D01*
X0016565Y0062119D02*
Y0061690D01*
X0003994Y0004695D02*
X0000934D01*
X0026215Y0044700D02*
X0022072D01*
X0026015Y0047983D02*
Y0040519D01*
X0029165Y0036021D02*
Y0035967D01*
X0029309Y0038744D02*
Y0037044D01*
X0027723Y0046275D02*
X0027688D01*
X0028459Y0040744D02*
X0028159D01*
X0029165Y0039421D02*
Y0039367D01*
X0031484Y0038715D02*
X0029309D01*
X0031484Y0037140D02*
X0029309D01*
X0031484Y0028191D02*
Y0002544D01*
X0014990Y0059794D02*
Y0056794D01*
X0015620Y0045169D02*
Y0045096D01*
X0017009Y0056794D02*
Y0054794D01*
X0016250Y0013728D02*
Y0012744D01*
X0016880Y0010719D02*
Y0010644D01*
X0010008Y0034442D02*
X0009710Y0034144D01*
X0026330Y0047668D02*
Y0046040D01*
X0016880Y0062119D02*
Y0061747D01*
X0017484Y0059190D02*
X0014834D01*
X0022578Y0050919D02*
X0016367D01*
X0016009Y0054794D02*
X0015309D01*
X0026509Y0035894D02*
X0024809D01*
X0017484Y0058245D02*
X0014834D01*
X0031484Y0033045D02*
X0029180D01*
X0021259Y0017869D02*
X0020259D01*
X0021259Y0021919D02*
X0020259D01*
X0025833Y0048165D02*
X0025210D01*
X0021459Y0010680D02*
X0021415D01*
X0004910Y0013059D02*
Y0012087D01*
X0003965Y0010715D02*
Y0010692D01*
X0009244Y0005955D02*
X0008182D01*
X0012528Y0021075D02*
X0007875D01*
X0011210Y0052891D02*
Y0047563D01*
X0015589Y0051000D02*
X0009319D01*
X0015935Y0013300D02*
Y0012744D01*
X0017195Y0016608D02*
Y0015494D01*
X0014309Y0055725D02*
X0014044D01*
X0025385Y0010144D02*
Y0008919D01*
X0020334Y0046275D02*
X0018008D01*
X0025070Y0030269D02*
Y0028719D01*
X0012528Y0023595D02*
X0007875D01*
X0026629Y0046275D02*
X0021984D01*
X0030558Y0043440D02*
X0022609D01*
X0019839Y0044700D02*
X0019586D01*
X0028220Y0044952D02*
Y0040744D01*
X0018140Y0046969D02*
Y0046146D01*
X0012467Y0010680D02*
X0011406D01*
X0002705Y0044386D02*
Y0043674D01*
X0023479Y0009206D02*
X0021875D01*
X0021605Y0002019D02*
Y0000969D01*
X0015620Y0012998D02*
Y0012744D01*
X0031484Y0007530D02*
X0029125D01*
X0020030Y0013807D02*
Y0012744D01*
X0019839Y0045015D02*
X0019271D01*
X0031484Y0004695D02*
X0029153D01*
X0015620Y0049575D02*
Y0048226D01*
X0029756Y0041235D02*
X0024660D01*
X0021920Y0044969D02*
Y0044814D01*
X0017195Y0009382D02*
Y0006713D01*
X0009334Y0038144D02*
Y0037169D01*
X0008929Y0006270D02*
X0008497D01*
X0014990Y0001000D02*
Y0000969D01*
X0017195Y0004874D02*
Y0004439D01*
X0008715Y0003435D02*
X0008276D01*
X0008060Y0005894D02*
Y0003456D01*
X0008690Y0008575D02*
Y0003260D01*
X0014045Y0003171D02*
Y0003000D01*
Y0001000D02*
Y0000969D01*
X0008927Y0007215D02*
X0008499D01*
X0007430Y0005867D02*
Y0003262D01*
X0006918Y0007215D02*
X0006654D01*
X0011576Y0005640D02*
X0006444D01*
X0017195Y0001097D02*
Y0000969D01*
X0007430Y0036465D02*
Y0029725D01*
X0013950Y0002175D02*
X0012717D01*
X0020184D02*
X0018649D01*
X0011504Y0012255D02*
X0008979D01*
X0020184Y0003750D02*
X0017884D01*
X0020375Y0004380D02*
X0017254D01*
X0029545Y0001860D02*
X0018650D01*
X0012528Y0018870D02*
X0007875D01*
X0004229Y0045910D02*
X0001362Y0043042D01*
X0016565Y0043369D02*
Y0042709D01*
X0017681Y0056317D02*
X0022979Y0051019D01*
X0018770Y0055228D02*
Y0050919D01*
X0004044Y0045330D02*
X0003649D01*
X0015620Y0027975D02*
Y0015494D01*
X0029309Y0037044D02*
X0029107D01*
X0028535Y0030644D02*
Y0028219D01*
X0027275Y0025844D02*
Y0020410D01*
X0019479Y0013314D02*
Y0013206D01*
X0022946Y0030210D02*
X0021671D01*
X0012521Y0004695D02*
X0006444D01*
X0031484Y0020445D02*
X0023207D01*
X0026219Y0015720D02*
X0026184D01*
X0025070Y0026969D02*
Y0015819D01*
X0009005Y0006162D02*
Y0003456D01*
X0019479Y0015516D02*
Y0014959D01*
X0029671Y0041550D02*
X0024658D01*
X0031484Y0033675D02*
X0029289D01*
X0015935Y0008701D02*
Y0008036D01*
X0007745Y0030391D02*
Y0029725D01*
X0031484Y0038085D02*
X0029309D01*
X0023810Y0046969D02*
Y0042719D01*
X0031484Y0037455D02*
X0029309D01*
X0027309Y0037269D02*
Y0037044D01*
X0011504Y0012570D02*
X0008979D01*
X0008984Y0011619D02*
X0008784D01*
X0018770Y0005206D02*
Y0000969D01*
X0021290Y0022975D02*
Y0021919D01*
X0023495Y0009673D02*
Y0008919D01*
X0018770Y0013206D02*
Y0012744D01*
X0024134Y0014775D02*
X0019871D01*
X0013100Y0008876D02*
Y0007134D01*
X0023309Y0011794D02*
Y0011516D01*
X0015045Y0009735D02*
X0014086D01*
X0021839Y0010569D02*
Y0010553D01*
X0016376Y0005325D02*
X0015950D01*
X0025700Y0013769D02*
Y0012054D01*
X0016250Y0008683D02*
Y0008063D01*
X0010946Y0006270D02*
X0010506D01*
X0013415Y0016491D02*
Y0015319D01*
X0014096Y0003120D02*
X0012400D01*
X0017825Y0013150D02*
Y0012744D01*
X0020558Y0009105D02*
X0019768D01*
X0023479Y0009647D02*
Y0009206D01*
X0018275Y0010050D02*
X0017244D01*
X0010256Y0016665D02*
X0007875D01*
X0027159Y0009105D02*
X0021777D01*
X0023180Y0019254D02*
Y0012182D01*
X0026645Y0011161D02*
Y0008919D01*
X0020660Y0010719D02*
Y0010561D01*
X0027395Y0035950D02*
X0026509Y0035063D01*
X0020327Y0009420D02*
X0019999D01*
X0019085Y0013206D02*
Y0012744D01*
X0017825Y0046969D02*
Y0046380D01*
X0019715Y0054283D02*
Y0050919D01*
X0013730Y0055411D02*
Y0046419D01*
X0019085Y0054913D02*
Y0050919D01*
X0014045Y0055726D02*
Y0046419D01*
X0020975Y0010719D02*
Y0010693D01*
X0017495Y0056670D02*
X0017009D01*
X0016009Y0061794D02*
X0014834D01*
X0022053Y0051945D02*
X0016881D01*
X0020975Y0053023D02*
Y0050919D01*
X0022788Y0051000D02*
X0016228D01*
X0016880Y0051944D02*
Y0050919D01*
X0021738Y0052260D02*
X0017137D01*
X0015305Y0049808D02*
Y0048394D01*
X0002705Y0040264D02*
Y0029598D01*
X0020975Y0017869D02*
Y0012744D01*
X0021920Y0052078D02*
Y0050919D01*
X0017195Y0010719D02*
Y0010205D01*
X0010265Y0038118D02*
Y0034597D01*
X0031484Y0018555D02*
X0022778D01*
X0025844Y0005325D02*
X0022051D01*
X0027159Y0009420D02*
X0023479D01*
X0026159Y0005010D02*
X0022131D01*
X0021290Y0008882D02*
Y0008144D01*
X0027166Y0011682D02*
X0025822Y0010338D01*
X0026463Y0047535D02*
X0025333D01*
X0026044Y0045330D02*
X0021984D01*
X0025070Y0046961D02*
Y0040519D01*
X0027159Y0008919D02*
X0023117D01*
X0014990Y0046878D02*
Y0046419D01*
X0014535Y0048165D02*
X0006484D01*
X0016234Y0043440D02*
X0015514D01*
X0026148Y0047850D02*
X0025271D01*
X0025518Y0048480D02*
X0025283D01*
X0016235Y0048795D02*
X0007114D01*
X0014360Y0010719D02*
Y0006250D01*
X0014875Y0046905D02*
X0011967D01*
X0015305Y0052077D02*
Y0050780D01*
X0017195Y0046969D02*
Y0046419D01*
X0016684Y0048219D02*
X0015628D01*
X0010334Y0046590D02*
X0004909D01*
X0014460Y0047220D02*
X0011829D01*
X0014675Y0043505D02*
Y0042708D01*
X0024134Y0015720D02*
X0007875D01*
X0013100Y0016491D02*
Y0015004D01*
X0011210Y0016571D02*
Y0013944D01*
X0026960Y0011476D02*
Y0008919D01*
X0010265Y0012644D02*
Y0010012D01*
X0010895Y0012644D02*
Y0010675D01*
X0018299Y0027025D02*
X0018139D01*
X0009181Y0044700D02*
X0006102D01*
X0031484Y0003750D02*
X0029157D01*
X0014407Y0043755D02*
X0010003D01*
X0014360Y0047444D02*
Y0046419D01*
X0006170Y0047851D02*
Y0045763D01*
X0007522Y0000969D02*
X0002409D01*
X0012467Y0011411D02*
Y0010390D01*
X0007430Y0049111D02*
Y0043969D01*
X0004280Y0039769D02*
Y0030819D01*
X0009950Y0038144D02*
Y0034384D01*
X0010265Y0051946D02*
Y0045784D01*
X0011217Y0044969D02*
X0009152Y0042904D01*
X0002234Y0042944D02*
Y0042770D01*
X0009496Y0045015D02*
X0006238D01*
X0005540Y0039769D02*
Y0039583D01*
X0026778Y0047220D02*
X0025263D01*
X0004280Y0044607D02*
Y0043969D01*
X0014045Y0045169D02*
Y0042600D01*
X0020345Y0053653D02*
Y0050919D01*
X0009239Y0007530D02*
X0008187D01*
X0021290Y0017869D02*
Y0012744D01*
X0018455Y0018973D02*
Y0015516D01*
X0029159Y0010144D02*
X0028856D01*
X0024134Y0014460D02*
X0020086D01*
X0009005Y0008575D02*
Y0007326D01*
X0007235Y0005955D02*
X0006444D01*
X0005855Y0042719D02*
Y0042677D01*
X0020030Y0006844D02*
Y0000969D01*
X0024134Y0013830D02*
X0020043D01*
X0018425Y0002950D02*
Y0002726D01*
X0006802Y0006900D02*
X0006654D01*
X0018770Y0018521D02*
Y0015516D01*
X0031484Y0006270D02*
X0029159D01*
X0024755Y0013769D02*
Y0011444D01*
X0031484Y0012570D02*
X0029159D01*
X0026960Y0013814D02*
Y0013307D01*
X0025700Y0026969D02*
Y0015819D01*
X0027275Y0013975D02*
Y0013644D01*
X0028220Y0013771D02*
Y0013644D01*
X0027590Y0013941D02*
Y0013644D01*
X0031484Y0013830D02*
X0030007D01*
X0017510Y0012940D02*
Y0012744D01*
Y0016858D02*
Y0015494D01*
X0017195Y0052382D02*
Y0050919D01*
X0016317Y0014144D02*
X0016009D01*
X0016301Y0026430D02*
X0014211D01*
X0016465Y0013200D02*
X0015861D01*
X0016076Y0005868D02*
X0016253Y0005690D01*
X0031484Y0018240D02*
X0022427D01*
X0012870Y0014775D02*
X0007875D01*
X0016250Y0014144D02*
Y0013859D01*
X0012785Y0016491D02*
Y0014689D01*
X0018139Y0024225D02*
X0014211D01*
X0013395Y0015300D02*
X0012039Y0013944D01*
X0009320Y0009985D02*
Y0009825D01*
X0012249Y0009735D02*
X0012077D01*
X0012558Y0009105D02*
X0011768D01*
X0015073Y0010050D02*
X0014051D01*
X0013730Y0016491D02*
Y0015481D01*
X0024125Y0026969D02*
Y0011444D01*
X0016250Y0016613D02*
Y0015494D01*
X0012470Y0027975D02*
Y0014374D01*
X0003650Y0039769D02*
Y0030961D01*
X0003286Y0029580D02*
X0002708D01*
X0003044Y0029895D02*
X0002621D01*
X0002679Y0040290D02*
X0000934D01*
X0009708Y0029858D02*
X0009841Y0029725D01*
X0002369Y0040605D02*
X0002104D01*
X0007630Y0030525D02*
X0007151D01*
X0014675Y0027975D02*
Y0015494D01*
X0001130Y0040455D02*
Y0030676D01*
X0011840Y0012041D02*
Y0010412D01*
X0013730Y0027975D02*
Y0027819D01*
X0022971Y0030525D02*
X0021646D01*
X0022902Y0028719D02*
X0021715D01*
X0022903Y0038715D02*
X0022609D01*
X0023143Y0042495D02*
X0022609D01*
X0004215Y0044700D02*
X0003019D01*
X0029795Y0041149D02*
Y0030001D01*
X0029659Y0029580D02*
X0028511D01*
X0018139Y0026745D02*
X0017545D01*
X0021605Y0052393D02*
Y0050919D01*
X0002075Y0043756D02*
Y0042875D01*
X0003650Y0045331D02*
Y0043969D01*
X0001760Y0043441D02*
Y0043002D01*
X0010265Y0044016D02*
Y0042640D01*
X0008690Y0042719D02*
Y0042707D01*
X0004910Y0042719D02*
Y0042660D01*
X0006170Y0042719D02*
Y0042593D01*
X0001760Y0023663D02*
Y0021219D01*
X0006485Y0048166D02*
Y0043969D01*
X0010126Y0045645D02*
X0006217D01*
X0020334Y0046619D02*
Y0045888D01*
X0019715Y0042852D02*
Y0041219D01*
X0010334Y0046275D02*
X0005688D01*
X0009635Y0043386D02*
Y0042710D01*
X0022865Y0006099D02*
Y0004591D01*
X0025000Y0006169D02*
X0023667D01*
X0022435Y0006844D02*
X0019628D01*
X0022235Y0002972D02*
Y0000969D01*
X0027160Y0003750D02*
X0023072D01*
X0029159Y0004944D02*
X0029145D01*
X0025214Y0005955D02*
X0019479D01*
X0028850Y0003139D02*
Y0000969D01*
X0031484Y0008475D02*
X0029159D01*
X0031484Y0006585D02*
X0029159D01*
X0031484Y0004065D02*
X0029114D01*
X0026284Y0026115D02*
X0023189D01*
X0029159Y0011944D02*
X0029145D01*
X0020284Y0010050D02*
X0020042D01*
X0020446Y0010365D02*
X0019880D01*
X0020920Y0010680D02*
X0019406D01*
X0020345Y0006844D02*
Y0005466D01*
X0018770Y0010719D02*
Y0010628D01*
X0020660Y0009027D02*
Y0008144D01*
X0019400Y0010719D02*
Y0010682D01*
X0024134Y0015090D02*
X0019479D01*
X0014371Y0006270D02*
X0013964D01*
X0019715Y0010719D02*
Y0010527D01*
X0012467Y0011940D02*
X0008979D01*
X0020030Y0010719D02*
Y0010089D01*
X0021290Y0010719D02*
Y0010706D01*
X0009283Y0008160D02*
X0006820D01*
X0029795Y0001089D02*
Y0000969D01*
X0012467Y0011625D02*
X0008784D01*
X0013781Y0003435D02*
X0011819D01*
X0010334Y0046619D02*
Y0045853D01*
X0021984Y0033045D02*
X0021720D01*
X0029309Y0038744D02*
X0029295D01*
X0014327Y0044700D02*
X0010948D01*
X0014238Y0044385D02*
X0010633D01*
X0011984Y0044969D02*
X0011217D01*
X0031484Y0019185D02*
X0027783D01*
X0016750Y0004625D02*
X0015609D01*
X0021920Y0034076D02*
Y0028719D01*
X0009320Y0008575D02*
Y0008310D01*
X0004513Y0044385D02*
X0002704D01*
X0024755Y0030269D02*
Y0028719D01*
X0028535Y0013840D02*
Y0013644D01*
X0017839Y0006649D02*
Y0006553D01*
X0004514Y0042710D02*
X0003509D01*
X0009635Y0051316D02*
Y0045154D01*
X0010342Y0046619D02*
X0010334D01*
X0013415Y0045169D02*
Y0042688D01*
X0013950Y0001545D02*
X0012642D01*
X0005225Y0044181D02*
Y0043969D01*
X0016234Y0043755D02*
X0015910D01*
X0028668Y0045330D02*
X0028273D01*
X0019400Y0013206D02*
Y0012744D01*
X0006947Y0001860D02*
X0002772D01*
X0028220Y0002944D02*
Y0000969D01*
X0013730Y0009066D02*
Y0006504D01*
X0004595Y0046276D02*
Y0046256D01*
X0021984Y0044969D02*
X0021479D01*
X0022550Y0046969D02*
Y0044164D01*
X0026264Y0045960D02*
X0021984D01*
X0015305Y0009077D02*
Y0006702D01*
X0011840Y0053521D02*
Y0047204D01*
X0006485Y0032627D02*
Y0032592D01*
X0012284Y0010050D02*
X0012042D01*
X0028384Y0028936D02*
Y0028594D01*
X0031484Y0014460D02*
X0030628D01*
X0004280Y0026559D02*
Y0018515D01*
X0017484Y0057615D02*
X0014834D01*
X0016009Y0059794D02*
X0014834D01*
X0015309Y0056794D02*
X0014834D01*
X0018273Y0055725D02*
X0017009D01*
X0014990Y0062119D02*
Y0061794D01*
X0005225Y0039769D02*
Y0030819D01*
X0022926Y0031155D02*
X0021691D01*
X0022550Y0031969D02*
Y0028719D01*
X0017839Y0015494D02*
X0013959D01*
X0008984Y0009969D02*
X0008065D01*
X0019628Y0006844D02*
X0019479Y0006695D01*
X0020111Y0045645D02*
X0018641D01*
X0025270Y0011625D02*
X0023309D01*
X0009635Y0005828D02*
Y0003456D01*
X0009950Y0005854D02*
Y0003456D01*
X0010265Y0006004D02*
Y0003456D01*
X0007841Y0003435D02*
X0006444D01*
X0013415Y0003801D02*
Y0000969D01*
X0013950Y0002490D02*
X0012707D01*
X0013950Y0002805D02*
X0012616D01*
X0016880Y0008944D02*
Y0007577D01*
X0015491Y0006900D02*
X0013334D01*
X0015620Y0001000D02*
Y0000969D01*
X0010625Y0006591D02*
X0014216Y0003000D01*
X0011261Y0005955D02*
X0010191D01*
X0019715Y0006844D02*
Y0000969D01*
X0022550Y0009206D02*
Y0009061D01*
X0018475Y0007530D02*
X0016897D01*
X0018140Y0010719D02*
Y0007516D01*
X0016260Y0005640D02*
X0016066D01*
X0009320Y0037169D02*
Y0037143D01*
X0015534Y0006836D02*
Y0006669D01*
X0015367Y0049740D02*
X0008059D01*
X0015748Y0027060D02*
X0014211D01*
X0019218Y0054780D02*
X0013099D01*
X0007234Y0036069D02*
X0007225D01*
X0029746Y0029895D02*
X0028350D01*
X0015650Y0001013D02*
Y0001000D01*
X0027376Y0036825D02*
X0024731D01*
X0027275Y0044185D02*
Y0040519D01*
X0027310Y0011310D02*
X0026794D01*
X0023018Y0039345D02*
X0022609D01*
X0022895Y0039030D02*
X0022609D01*
X0031484Y0014145D02*
X0030452D01*
X0027000Y0028719D02*
X0024715D01*
X0027275Y0010365D02*
Y0010144D01*
X0010334Y0045853D02*
X0008450Y0043969D01*
X0005855Y0047536D02*
Y0046165D01*
X0016565Y0008756D02*
Y0007954D01*
X0028034Y0025853D02*
Y0025844D01*
X0018455Y0010719D02*
Y0010386D01*
X0003965Y0045646D02*
Y0043969D01*
X0015436Y0051945D02*
X0010264D01*
X0017510Y0056607D02*
Y0050919D01*
X0015935Y0051701D02*
Y0051068D01*
X0018770Y0043749D02*
Y0042697D01*
X0010580Y0036607D02*
Y0036381D01*
X0016565Y0005099D02*
Y0004625D01*
X0016250Y0054794D02*
Y0053905D01*
X0018140Y0005206D02*
Y0003494D01*
X0010580Y0052261D02*
Y0047327D01*
X0015759Y0053835D02*
X0012154D01*
X0017484Y0058560D02*
X0014834D01*
X0019479Y0006695D02*
Y0006649D01*
X0015239Y0050685D02*
X0009004D01*
X0015065Y0052575D02*
X0010894D01*
X0020660Y0053338D02*
Y0050919D01*
X0022865Y0051133D02*
Y0051013D01*
X0018455Y0001308D02*
Y0000969D01*
X0019085Y0018244D02*
Y0015516D01*
X0019479Y0006072D02*
Y0005206D01*
X0016291Y0013515D02*
X0016035D01*
X0015935Y0001011D02*
Y0000969D01*
X0014990Y0012889D02*
Y0012832D01*
X0021905Y0008475D02*
X0011759D01*
X0014915Y0012907D02*
X0015078Y0012744D01*
X0016248Y0013830D02*
X0016078D01*
X0003335Y0045016D02*
Y0043969D01*
X0010580Y0044331D02*
Y0042710D01*
X0017510Y0004940D02*
Y0004124D01*
X0022235Y0018120D02*
Y0012744D01*
X0015017Y0012885D02*
X0014937D01*
X0015305Y0010719D02*
Y0010511D01*
X0025900Y0012255D02*
X0023117D01*
X0025585Y0011940D02*
X0023292D01*
X0021920Y0017980D02*
Y0012744D01*
X0021898Y0008144D02*
X0019359D01*
X0025089Y0011444D02*
X0023479D01*
X0013730Y0010719D02*
Y0010522D01*
X0021605Y0010612D02*
Y0010603D01*
X0020660Y0006844D02*
Y0005753D01*
X0020975Y0006844D02*
Y0005859D01*
X0006800Y0006600D02*
Y0000969D01*
X0019400Y0008906D02*
Y0008144D01*
X0006802Y0006585D02*
X0006654D01*
X0020345Y0002019D02*
Y0000969D01*
X0023495Y0006074D02*
Y0000969D01*
X0027275Y0011365D02*
Y0011223D01*
X0031484Y0008160D02*
X0029148D01*
X0019715Y0009061D02*
Y0008144D01*
X0031484Y0007215D02*
X0029155D01*
X0031484Y0005010D02*
X0029159D01*
X0031484Y0006900D02*
X0029062D01*
X0027000Y0028719D02*
X0024715D01*
X0026330Y0013823D02*
Y0012684D01*
X0029159Y0008444D02*
X0029145D01*
X0004232Y0007215D02*
X0000934D01*
X0031484Y0007845D02*
X0029030D01*
X0008690Y0026556D02*
Y0014016D01*
X0027159Y0010144D02*
Y0008919D01*
X0009950Y0012644D02*
Y0011027D01*
X0019400Y0018060D02*
Y0015516D01*
X0016880Y0012920D02*
Y0012744D01*
X0017839Y0006585D02*
X0017637D01*
X0024134Y0014145D02*
X0020132D01*
X0020030Y0017882D02*
Y0014581D01*
X0029309Y0030644D02*
X0027592D01*
X0024440Y0010144D02*
Y0008919D01*
X0021605Y0006844D02*
Y0005780D01*
X0010580Y0016524D02*
Y0013944D01*
X0015305Y0027975D02*
Y0015494D01*
X0011504Y0012644D02*
X0008979D01*
X0031484Y0011625D02*
X0029142D01*
X0020184Y0002490D02*
X0018579D01*
X0010895Y0006321D02*
Y0003456D01*
Y0016497D02*
Y0013944D01*
X0015341Y0004892D02*
X0015609Y0004625D01*
X0016880Y0016506D02*
Y0015494D01*
X0012467Y0010995D02*
X0009959D01*
X0026015Y0026969D02*
Y0015819D01*
X0011984Y0046619D02*
X0011975D01*
X0024755Y0006169D02*
Y0000969D01*
X0025385Y0037269D02*
Y0035894D01*
X0023180Y0046969D02*
Y0042527D01*
X0009531Y0030210D02*
X0008765D01*
X0009320Y0043071D02*
Y0042661D01*
X0026513Y0044385D02*
X0022387D01*
X0015620Y0004998D02*
Y0004625D01*
X0024809Y0035519D02*
X0024643D01*
X0017195Y0012874D02*
Y0012744D01*
X0029737Y0042180D02*
X0024682D01*
X0015312Y0053520D02*
X0011839D01*
X0027590Y0030641D02*
Y0030150D01*
X0027175Y0011625D02*
X0027109D01*
X0027905Y0044465D02*
Y0040705D01*
X0030110Y0028393D02*
Y0028219D01*
X0029908Y0000969D02*
X0012138D01*
X0031484Y0010680D02*
X0029151D01*
X0031484Y0019815D02*
X0027914D01*
X0008060Y0025926D02*
Y0014016D01*
X0026015Y0013769D02*
Y0012369D01*
X0021895Y0008160D02*
X0012074D01*
X0015108Y0009420D02*
X0014008D01*
X0015122Y0053205D02*
X0011524D01*
X0015536Y0010719D02*
X0013717D01*
X0015620Y0008818D02*
Y0007851D01*
X0022683Y0051315D02*
X0009634D01*
X0031484Y0002805D02*
X0031129D01*
X0008784Y0011706D02*
Y0011619D01*
X0030243Y0043755D02*
X0022609D01*
X0022072Y0044700D02*
X0022414Y0044357D01*
X0010895Y0052576D02*
Y0047521D01*
X0027238Y0003435D02*
X0022962D01*
X0015282Y0009105D02*
X0013777D01*
X0025700Y0048298D02*
Y0040519D01*
X0019884Y0042706D02*
Y0041219D01*
X0012528Y0023280D02*
X0007875D01*
X0025385Y0013769D02*
Y0011739D01*
X0027166Y0010680D02*
X0026164D01*
X0017009Y0056794D02*
X0016009D01*
X0003020Y0039949D02*
Y0030428D01*
X0010514Y0037770D02*
X0009334D01*
X0019715Y0013414D02*
Y0012744D01*
X0027719Y0015720D02*
X0027098D01*
X0030873Y0043125D02*
X0022609D01*
X0012528Y0021705D02*
X0007875D01*
X0010298Y0038085D02*
X0009334D01*
X0020030Y0009499D02*
Y0008144D01*
X0019533Y0054465D02*
X0012784D01*
X0019479Y0006649D02*
Y0006072D01*
X0014309Y0055989D02*
Y0054794D01*
X0003020Y0044701D02*
Y0043921D01*
X0005540Y0017397D02*
Y0016009D01*
X0012528Y0022965D02*
X0007875D01*
X0010946Y0003456D02*
Y0003243D01*
X0002705Y0001409D02*
Y0000969D01*
X0009005Y0012644D02*
Y0011604D01*
X0012206Y0005010D02*
X0006444D01*
X0019085Y0005206D02*
Y0000969D01*
X0022063Y0008790D02*
X0016643D01*
X0019400Y0005206D02*
Y0000969D01*
X0016686Y0005010D02*
X0015640D01*
X0012155Y0012041D02*
Y0008079D01*
X0020184Y0003120D02*
X0018401D01*
X0017825Y0005150D02*
Y0003809D01*
X0005925Y0026430D02*
X0005342D01*
X0014360Y0001000D02*
Y0000969D01*
X0010911Y0010680D02*
X0009976D01*
X0011210Y0012644D02*
Y0010712D01*
X0012327Y0009420D02*
X0011999D01*
X0011210Y0006006D02*
Y0003385D01*
X0013151Y0004065D02*
X0006444D01*
X0009005Y0009983D02*
Y0009825D01*
X0005035Y0012255D02*
X0000934D01*
X0006654Y0008009D02*
Y0006559D01*
X0012528Y0020760D02*
X0007875D01*
X0012528Y0020130D02*
X0007875D01*
X0011525Y0008950D02*
Y0008709D01*
X0010265Y0026501D02*
Y0018381D01*
X0012528Y0019185D02*
X0007875D01*
X0007745Y0008609D02*
Y0007663D01*
X0006992Y0008332D02*
X0006744Y0008084D01*
X0007875Y0025741D02*
Y0014016D01*
X0009841Y0029725D02*
X0006709D01*
X0012528Y0026115D02*
X0008249D01*
X0009635Y0027147D02*
Y0013944D01*
X0005925Y0024540D02*
X0003183D01*
X0003965Y0028948D02*
Y0027744D01*
X0022550Y0051448D02*
Y0050919D01*
X0027159Y0013515D02*
X0019828D01*
X0008375Y0026241D02*
Y0014016D01*
X0009525Y0031470D02*
X0009182D01*
X0005925Y0024225D02*
X0003111D01*
X0009525Y0032730D02*
X0009290D01*
X0009525Y0031785D02*
X0009307D01*
X0009635Y0029946D02*
Y0029725D01*
X0027183Y0010995D02*
X0026479D01*
X0012155Y0005061D02*
Y0003309D01*
X0008375Y0030169D02*
Y0029725D01*
X0009320Y0031844D02*
Y0031143D01*
X0009525Y0033700D02*
Y0030300D01*
X0021605Y0031451D02*
Y0031336D01*
X0026079Y0045015D02*
X0021984D01*
X0009525Y0033360D02*
X0009248D01*
X0003994Y0005010D02*
X0000934D01*
X0010486Y0034935D02*
X0009331D01*
X0010524Y0035250D02*
X0009293D01*
X0010580Y0035607D02*
Y0035381D01*
X0009525Y0030525D02*
X0009187D01*
X0009320Y0036844D02*
Y0036143D01*
X0010640Y0036510D02*
X0009177D01*
X0002705Y0019408D02*
Y0002179D01*
X0010580Y0037607D02*
Y0037381D01*
X0009822Y0017295D02*
X0007875D01*
X0016634Y0048480D02*
X0006799D01*
X0022957Y0041235D02*
X0022609D01*
X0019884Y0042706D02*
X0019839D01*
X0022985Y0040290D02*
X0022609D01*
X0005540Y0044246D02*
Y0043969D01*
X0017609Y0046419D02*
X0011984D01*
X0019848Y0054150D02*
X0012469D01*
X0010940Y0047535D02*
X0005854D01*
X0009320Y0051001D02*
Y0044839D01*
X0010895Y0044646D02*
Y0042665D01*
X0001518Y0021075D02*
X0000934D01*
X0014261Y0044070D02*
X0010318D01*
X0007745Y0049426D02*
Y0043969D01*
X0008060Y0049741D02*
Y0043969D01*
X0008690Y0050371D02*
Y0044209D01*
X0005556Y0030840D02*
X0004187D01*
X0007745Y0042719D02*
Y0042701D01*
X0015620Y0059794D02*
Y0056794D01*
X0003965Y0016659D02*
Y0011782D01*
X0017825Y0043369D02*
Y0042685D01*
X0002817Y0043786D02*
X0002418Y0043388D01*
X0012155Y0053836D02*
Y0046419D01*
X0013415Y0027975D02*
Y0027819D01*
X0006800Y0030110D02*
Y0029725D01*
X0009871Y0034305D02*
X0009273D01*
X0022884Y0029895D02*
X0021733D01*
X0018895Y0007950D02*
X0018461Y0007516D01*
X0031484Y0024540D02*
X0023189D01*
X0026959Y0030269D02*
X0024643D01*
X0030204Y0028320D02*
X0028320D01*
X0029724Y0028950D02*
X0028394D01*
X0027134Y0028853D02*
X0027000Y0028719D01*
X0027006Y0029580D02*
X0024671D01*
X0031484Y0032100D02*
X0029309D01*
X0021605Y0044969D02*
Y0044894D01*
X0019085Y0043434D02*
Y0042577D01*
X0031484Y0008790D02*
X0029159D01*
X0018134Y0044385D02*
X0018084D01*
X0026015Y0010531D02*
Y0008919D01*
X0025385Y0048613D02*
Y0040519D01*
X0031484Y0005325D02*
X0029159D01*
X0016880Y0046969D02*
Y0046419D01*
X0018770Y0046969D02*
Y0045516D01*
X0019085Y0046969D02*
Y0045201D01*
X0031484Y0010050D02*
X0029159D01*
X0015048Y0052890D02*
X0011209D01*
X0031484Y0031155D02*
X0029309D01*
X0014360Y0054794D02*
Y0047844D01*
X0014990Y0054794D02*
Y0048410D01*
X0020334Y0046590D02*
X0011984D01*
X0019400Y0054598D02*
Y0050919D01*
X0018455Y0046969D02*
Y0045831D01*
X0013415Y0055096D02*
Y0046419D01*
X0011984Y0045169D02*
Y0044969D01*
X0016250Y0051683D02*
Y0050990D01*
X0015171Y0050055D02*
X0008374D01*
X0013100Y0054781D02*
Y0046419D01*
X0020266Y0005325D02*
X0019479D01*
X0030222Y0042810D02*
X0022609D01*
X0021609Y0044894D02*
X0021479D01*
X0022935Y0042180D02*
X0022609D01*
X0027408Y0046590D02*
X0021984D01*
X0016250Y0062119D02*
Y0061789D01*
X0015935Y0062119D02*
Y0061794D01*
X0015620Y0062119D02*
Y0061794D01*
X0017484Y0057930D02*
X0014834D01*
X0016790Y0061710D02*
X0016527D01*
X0017195Y0062119D02*
Y0061793D01*
X0017484Y0058875D02*
X0014834D01*
X0001445Y0023872D02*
Y0021010D01*
X0003964Y0028950D02*
X0002643D01*
X0005925Y0019815D02*
X0003076D01*
X0007204Y0001230D02*
X0002620D01*
X0002390Y0019277D02*
Y0002635D01*
X0002075Y0019254D02*
Y0002828D01*
X0001760Y0028129D02*
Y0025550D01*
X0003994Y0003435D02*
X0000934D01*
X0007018Y0001545D02*
X0002745D01*
X0000934Y0028170D02*
Y0002641D01*
X0004595Y0003219D02*
Y0000969D01*
X0006953Y0002490D02*
X0002530D01*
X0006943Y0002175D02*
X0002706D01*
X0005975Y0026745D02*
X0005734D01*
X0031484Y0004380D02*
X0029051D01*
X0007260Y0003120D02*
X0000934D01*
X0030298Y0040605D02*
X0028924D01*
X0029298Y0044700D02*
X0028102D01*
X0027309Y0037140D02*
X0024696D01*
X0027693Y0040605D02*
X0024681D01*
X0031484Y0039660D02*
X0029276D01*
X0027590Y0044266D02*
Y0040526D01*
X0029165Y0037044D02*
Y0036967D01*
X0031484Y0039030D02*
X0029298D01*
X0028983Y0045015D02*
X0028238D01*
X0031484Y0039345D02*
X0029179D01*
X0017484Y0062025D02*
X0014834D01*
X0029697Y0001230D02*
X0018381D01*
X0017192Y0004442D02*
X0018240Y0003394D01*
X0018790Y0007845D02*
X0016703D01*
X0017510Y0010719D02*
Y0006648D01*
X0022359Y0012744D02*
X0015078D01*
X0014990Y0010719D02*
Y0006698D01*
X0026845Y0013200D02*
X0017870D01*
X0008709Y0042719D02*
X0003517D01*
X0019479Y0005206D02*
X0017875D01*
X0023810Y0010144D02*
Y0008919D01*
X0018911Y0010680D02*
X0016835D01*
X0018455Y0009201D02*
Y0007516D01*
X0019884Y0041235D02*
X0019407D01*
X0016880Y0059841D02*
Y0056794D01*
X0017484Y0057300D02*
X0014834D01*
X0016009Y0056794D02*
X0015309D01*
X0014675Y0054794D02*
Y0048286D01*
X0014834Y0059794D02*
Y0056794D01*
X0016565Y0054794D02*
Y0053832D01*
X0022368Y0051630D02*
X0009949D01*
X0020163Y0053835D02*
X0016558D01*
X0020478Y0053520D02*
X0017005D01*
X0020793Y0053205D02*
X0017195D01*
X0021108Y0052890D02*
X0017269D01*
X0006800Y0048481D02*
Y0043969D01*
X0015305Y0054794D02*
Y0053511D01*
X0007115Y0048796D02*
Y0043969D01*
X0005225Y0046906D02*
Y0046407D01*
X0005540Y0047221D02*
Y0046342D01*
X0006170Y0044824D02*
Y0043969D01*
X0015305Y0059794D02*
Y0056794D01*
X0004910Y0046591D02*
Y0046381D01*
X0010350Y0046905D02*
X0005224D01*
X0014309Y0055989D02*
X0004542Y0046223D01*
X0014859Y0045169D02*
X0011984D01*
X0019839Y0042810D02*
X0009033D01*
X0010334Y0045960D02*
X0006053D01*
X0008375Y0042719D02*
Y0042678D01*
X0029480Y0044518D02*
Y0028219D01*
X0029165Y0044833D02*
Y0040367D01*
X0026960Y0044197D02*
Y0040519D01*
X0027590Y0046408D02*
Y0046322D01*
X0027275Y0046723D02*
Y0046403D01*
X0025236Y0048762D02*
X0027775Y0046223D01*
X0026960Y0047038D02*
Y0046391D01*
X0026645Y0047353D02*
Y0046283D01*
X0028088Y0045910D02*
X0030954Y0043044D01*
X0028220Y0045778D02*
Y0045636D01*
X0028353Y0045645D02*
X0028217D01*
X0016880Y0054794D02*
Y0053644D01*
X0016565Y0059897D02*
Y0056794D01*
X0017958Y0056040D02*
X0017009D01*
X0015935Y0059794D02*
Y0056794D01*
X0019884Y0042495D02*
X0019198D01*
X0026645Y0013769D02*
Y0012999D01*
X0027093Y0046905D02*
X0024997D01*
X0027275Y0037269D02*
Y0035829D01*
X0024755Y0037269D02*
Y0035519D01*
X0024809Y0035565D02*
X0024665D01*
X0026645Y0037269D02*
Y0035199D01*
X0017884Y0027375D02*
X0017752D01*
X0027010Y0035565D02*
X0026509D01*
X0023180Y0022975D02*
Y0020533D01*
X0022865Y0022975D02*
Y0021127D01*
X0031484Y0023595D02*
X0023189D01*
X0031484Y0020760D02*
X0023089D01*
X0021920Y0022975D02*
Y0021808D01*
X0021605Y0022975D02*
Y0021889D01*
X0020975Y0022975D02*
Y0021919D01*
X0020660Y0022975D02*
Y0021919D01*
X0018139Y0023280D02*
X0014211D01*
X0018739Y0018555D02*
X0014211D01*
X0020030Y0022975D02*
Y0021906D01*
X0019715Y0022975D02*
Y0021844D01*
X0019400Y0022975D02*
Y0021728D01*
X0019085Y0022975D02*
Y0021544D01*
X0031484Y0022650D02*
X0014211D01*
X0022235Y0022975D02*
Y0021668D01*
X0031484Y0022020D02*
X0014211D01*
X0031484Y0021705D02*
X0022165D01*
X0026645Y0019064D02*
Y0015819D01*
X0027275Y0018878D02*
Y0015613D01*
X0031484Y0021390D02*
X0022623D01*
X0022550Y0018334D02*
Y0012715D01*
X0026555Y0020130D02*
X0023270D01*
X0026403Y0019815D02*
X0023282D01*
X0031484Y0019500D02*
X0027920D01*
X0026534Y0019185D02*
X0023155D01*
X0031484Y0018870D02*
X0027198D01*
X0005925Y0022335D02*
X0000934D01*
X0001491Y0019500D02*
X0000934D01*
X0005925Y0021705D02*
X0000934D01*
X0005925Y0021075D02*
X0002802D01*
X0001445Y0028082D02*
Y0025341D01*
X0005925Y0020445D02*
X0003171D01*
X0005925Y0020130D02*
X0003175D01*
X0001149Y0020445D02*
X0000934D01*
X0002390Y0023608D02*
Y0021275D01*
X0002075Y0023585D02*
Y0021297D01*
X0005925Y0020760D02*
X0003064D01*
X0003335Y0029545D02*
Y0000969D01*
X0007234Y0036640D02*
X0007319Y0036554D01*
X0001245Y0019815D02*
X0000934D01*
X0005925Y0026115D02*
X0000934D01*
X0005925Y0025485D02*
X0002689D01*
X0005925Y0025170D02*
X0003016D01*
X0005925Y0024855D02*
X0003155D01*
X0006435Y0029998D02*
X0006709Y0029725D01*
X0001445Y0019542D02*
Y0002888D01*
X0001209Y0024225D02*
X0000934D01*
X0002390Y0028523D02*
Y0025605D01*
X0002075Y0028263D02*
Y0025628D01*
X0005925Y0018870D02*
X0000934D01*
X0015905Y0027975D02*
X0011643D01*
X0009950Y0016980D02*
X0007875D01*
X0011840Y0027245D02*
Y0017637D01*
X0011525Y0026617D02*
Y0018265D01*
X0011210Y0026414D02*
Y0018468D01*
X0012528Y0026430D02*
X0011247D01*
X0010580Y0026366D02*
Y0018516D01*
X0012528Y0019815D02*
X0007875D01*
X0009950Y0026823D02*
Y0018059D01*
X0012528Y0018240D02*
X0011551D01*
X0012528Y0017925D02*
X0011763D01*
X0012528Y0017610D02*
X0011843D01*
X0012528Y0017295D02*
X0011822D01*
X0018139Y0026430D02*
X0017153D01*
X0011840Y0027975D02*
Y0027479D01*
X0014045Y0016491D02*
Y0015494D01*
X0007476Y0008790D02*
X0007175D01*
X0013100Y0027975D02*
Y0027819D01*
X0012240Y0014145D02*
X0007875D01*
X0012528Y0027690D02*
X0011793D01*
X0012528Y0027375D02*
X0011846D01*
X0006226Y0027060D02*
X0005896D01*
X0005855Y0027975D02*
Y0027774D01*
X0005225Y0026385D02*
Y0018266D01*
X0010396Y0026430D02*
X0008564D01*
X0016317Y0014145D02*
X0016009D01*
X0005616Y0039769D02*
X0003459D01*
X0003335Y0039781D02*
Y0030843D01*
X0007175Y0009091D02*
X0007506Y0008760D01*
X0018139Y0023910D02*
X0014211D01*
X0016250Y0026455D02*
Y0018427D01*
X0016565Y0016508D02*
Y0015494D01*
X0004566Y0028524D02*
X0004731Y0028370D01*
X0017510Y0026700D02*
Y0018182D01*
X0017195Y0026450D02*
Y0018432D01*
X0003058Y0030525D02*
X0002074D01*
X0018362Y0019185D02*
X0014211D01*
X0016565Y0026350D02*
Y0018532D01*
X0020345Y0017869D02*
Y0012744D01*
X0019090Y0018240D02*
X0017457D01*
X0031484Y0017925D02*
X0021731D01*
X0031484Y0017610D02*
X0017748D01*
X0006170Y0027975D02*
Y0027004D01*
X0005925Y0017925D02*
X0005464D01*
X0005925Y0013059D02*
Y0012657D01*
X0004910Y0026337D02*
Y0018468D01*
X0004098Y0026745D02*
X0000934D01*
X0003651Y0016980D02*
X0000934D01*
X0010580Y0012644D02*
Y0010509D01*
X0003522Y0017295D02*
X0000934D01*
X0005225Y0016773D02*
Y0016009D01*
X0003956Y0016665D02*
X0000934D01*
X0005925Y0018240D02*
X0005251D01*
X0005540Y0026549D02*
Y0017642D01*
X0018140Y0027130D02*
Y0015516D01*
X0026330Y0025844D02*
Y0015765D01*
X0026284Y0026969D02*
X0023189D01*
X0028850Y0025900D02*
Y0015551D01*
X0026284Y0026430D02*
X0023189D01*
X0031484Y0026115D02*
X0029792D01*
X0031484Y0025800D02*
X0023189D01*
X0031484Y0025485D02*
X0023189D01*
X0031484Y0025170D02*
X0023189D01*
X0031484Y0024855D02*
X0023189D01*
X0021400Y0010719D02*
X0016781D01*
X0026015Y0030269D02*
Y0028719D01*
X0025700Y0030269D02*
Y0028719D01*
X0022007Y0033990D02*
X0021728D01*
X0026645Y0044304D02*
Y0040519D01*
X0010239Y0038144D02*
X0009334D01*
X0025070Y0037269D02*
Y0035894D01*
X0030034Y0026736D02*
Y0026719D01*
X0022550Y0022975D02*
Y0021454D01*
X0022235Y0006844D02*
Y0004916D01*
X0020345Y0009382D02*
Y0008144D01*
X0007115Y0006041D02*
Y0002935D01*
X0022462Y0006585D02*
X0019479D01*
X0025385Y0005784D02*
Y0000969D01*
X0026645Y0004524D02*
Y0000969D01*
X0022134Y0002969D02*
Y0002019D01*
X0020345Y0022975D02*
Y0021919D01*
X0024440Y0006169D02*
Y0000969D01*
X0020975Y0002019D02*
Y0000969D01*
X0021290Y0006844D02*
Y0005865D01*
X0027275Y0003365D02*
Y0000969D01*
X0005225Y0003219D02*
Y0000969D01*
X0020660Y0004135D02*
Y0003869D01*
X0031484Y0003120D02*
X0028826D01*
X0003965Y0039769D02*
Y0030941D01*
X0028850Y0045148D02*
Y0040648D01*
X0005556Y0032415D02*
X0000934D01*
X0001445Y0043126D02*
Y0043044D01*
X0000934Y0040518D02*
Y0030617D01*
X0002075Y0040588D02*
Y0030524D01*
X0001760Y0040461D02*
Y0030658D01*
X0003020Y0029959D02*
Y0025165D01*
X0027134Y0028936D02*
Y0028853D01*
X0031484Y0031470D02*
X0029309D01*
X0031484Y0040524D02*
Y0030597D01*
X0031370Y0040482D02*
Y0030640D01*
X0030740Y0040440D02*
Y0030688D01*
X0031055Y0040422D02*
Y0030703D01*
X0031484Y0026745D02*
X0031290D01*
X0030425Y0043573D02*
Y0042925D01*
X0030740Y0028100D02*
Y0027996D01*
X0012528Y0022650D02*
X0007875D01*
X0004910Y0044207D02*
Y0043969D01*
X0001445Y0040420D02*
Y0030706D01*
X0004904Y0006900D02*
X0000934D01*
X0011891Y0005325D02*
X0006444D01*
X0006170Y0006559D02*
Y0006169D01*
X0005540Y0006559D02*
Y0006169D01*
X0018770Y0022975D02*
Y0021267D01*
X0008060Y0008575D02*
Y0007594D01*
X0010625Y0006591D02*
X0014216Y0003000D01*
X0011840Y0005376D02*
Y0003430D01*
X0027491Y0003120D02*
X0022665D01*
X0013100Y0004116D02*
Y0000969D01*
X0021290Y0002019D02*
Y0000969D01*
X0003994Y0004380D02*
X0000934D01*
X0003907Y0007530D02*
X0000934D01*
X0009005Y0042794D02*
Y0042621D01*
X0015727Y0017295D02*
X0014211D01*
X0004910Y0016571D02*
Y0016009D01*
X0003893Y0009735D02*
X0000934D01*
X0003956Y0010680D02*
X0000934D01*
X0005925Y0019500D02*
X0002830D01*
X0008811Y0006585D02*
X0008615D01*
X0031484Y0016350D02*
X0007875D01*
X0031484Y0032730D02*
X0029275D01*
X0009525Y0033045D02*
X0009332D01*
X0009674Y0029895D02*
X0006539D01*
X0009525Y0033675D02*
X0009269D01*
X0010491Y0035880D02*
X0009326D01*
X0006485Y0027975D02*
Y0027318D01*
X0031484Y0034305D02*
X0029287D01*
X0031484Y0032415D02*
X0029305D01*
X0031484Y0033990D02*
X0029149D01*
X0029309Y0032344D02*
X0029295D01*
X0008979Y0014016D02*
Y0013944D01*
X0007604Y0035565D02*
X0007139D01*
X0010437Y0010365D02*
X0009863D01*
X0010508Y0036195D02*
X0009309D01*
X0012446Y0010365D02*
X0011880D01*
X0027134Y0028936D02*
Y0028853D01*
X0027159Y0013644D02*
Y0013412D01*
X0028535Y0002975D02*
Y0000969D01*
X0014361Y0047850D02*
X0006169D01*
X0029310Y0013830D02*
X0028507D01*
X0016880Y0001004D02*
Y0000969D01*
X0022884Y0040920D02*
X0022609D01*
X0027590Y0019000D02*
Y0015647D01*
X0003994Y0015090D02*
X0000934D01*
X0028850Y0030644D02*
Y0028219D01*
X0026960Y0025844D02*
Y0020393D01*
X0030110Y0013874D02*
Y0002764D01*
X0031055Y0028085D02*
Y0027860D01*
X0031484Y0016035D02*
X0007875D01*
X0018140Y0055858D02*
Y0050919D01*
X0031484Y0012885D02*
X0029159D01*
X0030425Y0026455D02*
Y0015475D01*
X0031484Y0013200D02*
X0029159D01*
X0031484Y0015720D02*
X0030098D01*
X0026397Y0019500D02*
X0023245D01*
X0019884Y0042180D02*
X0019434D01*
X0002234Y0042810D02*
X0002180D01*
X0015201Y0010365D02*
X0013889D01*
X0014309Y0055095D02*
X0013414D01*
X0025700Y0010241D02*
Y0008919D01*
X0024125Y0010144D02*
Y0008919D01*
X0021984Y0046619D02*
X0021975D01*
X0014675Y0045169D02*
Y0045082D01*
X0026330Y0010846D02*
Y0008919D01*
X0007430Y0042719D02*
Y0042691D01*
X0017510Y0046969D02*
Y0046419D01*
X0016250Y0046969D02*
Y0046419D01*
X0014341Y0047535D02*
X0011377D01*
X0015935Y0046969D02*
Y0046419D01*
X0020350Y0046905D02*
X0015342D01*
X0018764Y0043755D02*
X0018084D01*
X0015620Y0046969D02*
Y0046419D01*
X0016234Y0045169D02*
X0015459D01*
X0016234Y0045015D02*
X0015738D01*
X0016234Y0044700D02*
X0015990D01*
X0016234Y0044385D02*
X0016079D01*
X0016234Y0044070D02*
X0016056D01*
X0010334Y0045853D02*
X0008450Y0043969D01*
X0018770Y0008960D02*
Y0007824D01*
X0018084Y0044435D02*
Y0043369D01*
X0016565Y0046969D02*
Y0046419D01*
X0018140Y0044379D02*
Y0042575D01*
X0026100Y0045645D02*
X0021984D01*
X0022235Y0046969D02*
Y0044537D01*
X0022893Y0037770D02*
X0022609D01*
X0015614Y0007845D02*
X0012389D01*
X0016250Y0048785D02*
Y0048219D01*
X0029787Y0002490D02*
X0022134D01*
X0007206Y0030942D02*
X0007197D01*
X0005855Y0032837D02*
Y0032592D01*
X0007635Y0031470D02*
X0007206D01*
X0007234Y0033569D02*
X0007225D01*
X0009525Y0032100D02*
X0009327D01*
X0030293Y0030525D02*
X0027473D01*
X0005565Y0030942D02*
X0005556D01*
X0007115Y0033022D02*
Y0032592D01*
X0005689Y0033045D02*
X0000934D01*
X0005556Y0032100D02*
X0000934D01*
X0018449Y0044070D02*
X0018084D01*
X0008979Y0012572D02*
Y0011706D01*
X0026330Y0030269D02*
Y0028719D01*
X0008690Y0030189D02*
Y0029725D01*
X0005540Y0037596D02*
Y0030791D01*
X0006800Y0032722D02*
Y0032592D01*
X0005592Y0036069D02*
X0005584D01*
X0005678Y0035565D02*
X0000934D01*
X0007115Y0035522D02*
Y0035219D01*
X0022865Y0046969D02*
Y0036307D01*
X0007548Y0033675D02*
X0007234D01*
X0023810Y0006169D02*
Y0000969D01*
X0005565Y0039660D02*
X0000934D01*
X0005511Y0038715D02*
X0000934D01*
X0022886Y0036825D02*
X0022609D01*
X0010239Y0038144D02*
X0010490Y0037894D01*
X0014360Y0027975D02*
Y0015494D01*
X0012528Y0023910D02*
X0007875D01*
X0015935Y0026712D02*
Y0018170D01*
X0015756Y0027690D02*
X0014211D01*
X0015702Y0027375D02*
X0014211D01*
X0015909Y0026745D02*
X0014211D01*
X0031484Y0024225D02*
X0023189D01*
X0018139Y0026115D02*
X0014211D01*
X0018139Y0025800D02*
X0014211D01*
X0018139Y0025485D02*
X0014211D01*
X0018139Y0025170D02*
X0014211D01*
X0018139Y0024855D02*
X0014211D01*
X0012785Y0008957D02*
Y0007449D01*
X0018140Y0013206D02*
Y0012744D01*
X0017839Y0007516D02*
Y0006649D01*
X0012528Y0016980D02*
X0011693D01*
X0031484Y0026430D02*
X0030789D01*
X0018139Y0023595D02*
X0014211D01*
X0031484Y0023280D02*
X0023189D01*
X0031484Y0022965D02*
X0014211D01*
X0007115Y0008507D02*
Y0007447D01*
X0031484Y0022335D02*
X0014211D01*
X0019352Y0021705D02*
X0014211D01*
X0018894Y0021390D02*
X0014211D01*
X0018614Y0021075D02*
X0014211D01*
X0018428Y0020760D02*
X0014211D01*
X0018310Y0020445D02*
X0014211D01*
X0018247Y0020130D02*
X0014211D01*
X0018235Y0019815D02*
X0014211D01*
X0018272Y0019500D02*
X0014211D01*
X0018511Y0018870D02*
X0014211D01*
X0012528Y0016665D02*
X0011387D01*
X0015998Y0018240D02*
X0014211D01*
X0015786Y0017925D02*
X0014211D01*
X0015706Y0017610D02*
X0014211D01*
X0003581Y0017925D02*
X0000934D01*
X0007745Y0005825D02*
Y0003411D01*
X0017825Y0001000D02*
Y0000969D01*
X0015856Y0016980D02*
X0014211D01*
X0031484Y0031785D02*
X0029309D01*
X0026284Y0026745D02*
X0023189D01*
X0015935Y0049166D02*
Y0048219D01*
X0024440Y0013769D02*
Y0011444D01*
X0015309Y0054794D02*
X0014309D01*
X0006542Y0027375D02*
X0005941D01*
X0006578Y0027975D02*
X0005738D01*
X0029165Y0013896D02*
Y0000969D01*
X0017009Y0054794D02*
X0016009D01*
X0022978Y0036510D02*
X0022634D01*
X0018050Y0046236D02*
X0019839Y0044448D01*
X0008866Y0044385D02*
X0005804D01*
G01X0010822Y0016495D02*
G03X0011847Y0017520I0000000J0001025D01*
G03X0010822Y0018545I0001025J0000000D01*
G03X0009797Y0017520I0000000J0001025D01*
G01X0010822Y0026337D02*
G03X0011847Y0027362I0000000J0001025D01*
G01X0003891D02*
G03X0004916Y0026337I0001025J0000000D01*
G03X0005941Y0027362I0000000J0001025D01*
G01X0015702D02*
G03X0016727Y0026337I0001025J0000000D01*
G03X0017752Y0027362I0000000J0001025D01*
G01X0015702Y0017520D02*
G03X0016727Y0016495I0001025J0000000D01*
G03X0017752Y0017520I0000000J0001025D01*
G03X0016727Y0018545I0001025J0000000D01*
G03X0015702Y0017520I0000000J0001025D01*
G01X0003497D02*
G03X0004522Y0016495I0001025J0000000D01*
G03X0005547Y0017520I0000000J0001025D01*
G03X0004522Y0018545I0001025J0000000D01*
G03X0003497Y0017520I0000000J0001025D01*
G01X0024715Y0028719D02*
G03X0024734Y0028894I0000806J0000175D01*
G01X0021109Y0005869D02*
G03X0020184Y0004944I0000000J0000925D01*
G03X0021109Y0004019I0000925J0000000D01*
G01X0022134Y0004944D02*
G03X0021209Y0005869I0000925J0000000D01*
G01X0023084Y0003994D02*
G03X0022159Y0004919I0000925J0000000D01*
Y0002969D02*
G03X0023084Y0003894I0000000J0000925D01*
G01X0006435Y0029998D02*
G03X0007206Y0030821I0000054J0000823D01*
G01X0001409Y0028082D02*
G03X0002721Y0029394I0000000J0001312D01*
G03X0001409Y0030706I0001312J0000000D01*
G01X0030959D02*
G03X0029647Y0029394I0000000J0001312D01*
G01X0029658Y0041732D02*
G03X0030971Y0040419I0001313J0000000D01*
G01X0002288Y0040738D02*
G03X0002417Y0040552I0000571J0000256D01*
G01X0019514Y0041810D02*
G03X0018614Y0042710I0000900J0000000D01*
G01X0018114Y0042558D02*
G03X0017614Y0042710I0000500J0000748D01*
G01X0008709Y0042719D02*
G03X0009150Y0042902I0000000J0000625D01*
G01X0002234Y0042770D02*
G03X0001431Y0043044I0000803J0001038D01*
G01X0018614Y0042710D02*
G03X0018114Y0042558I0000000J0000900D01*
G01X0014114D02*
G03X0013614Y0042710I0000500J0000748D01*
G01X0014859Y0045169D02*
G03X0014234Y0044294I0000300J0000875D01*
G01X0014614Y0042710D02*
G03X0014114Y0042558I0000000J0000900D01*
G01X0010114D02*
G03X0009614Y0042710I0000500J0000748D01*
G01X0009114Y0042558D02*
G03X0008614Y0042710I0000500J0000748D01*
G01X0011614D02*
G03X0011114Y0042558I0000000J0000900D01*
G01X0010614Y0042710D02*
G03X0010114Y0042558I0000000J0000900D01*
G01X0015614Y0042710D02*
G03X0015114Y0042558I0000000J0000900D01*
G01X0007114D02*
G03X0006614Y0042710I0000500J0000748D01*
G01X0006114Y0042558D02*
G03X0005614Y0042710I0000500J0000748D01*
G01X0004659Y0012124D02*
G03X0003784Y0011249I0000000J0000875D01*
G01X0005925Y0012657D02*
G03X0005779Y0012669I0000146J0000863D01*
G01X0003784Y0007979D02*
G03X0004659Y0007104I0000875J0000000D01*
G01X0003784Y0011249D02*
G03X0003974Y0010704I0000875J0000000D01*
G01X0003784Y0010159D02*
G03X0003974Y0009614I0000875J0000000D01*
G01X0005941Y0027362D02*
G03X0005738Y0027975I0001025J0000000D01*
G01X0010484Y0036994D02*
G03X0010652Y0036494I0000825J0000000D01*
G03X0010483Y0035994I0000657J0000500D01*
G01X0010652Y0037494D02*
G03X0010483Y0036994I0000657J0000500D01*
G01X0009708Y0034142D02*
G03X0009525Y0033700I0000442J0000442D01*
G01X0010450Y0034625D02*
G03X0010008Y0034442I0000000J0000625D01*
G01X0009525Y0030300D02*
G03X0009708Y0029858I0000625J0000000D01*
G01X0024565Y0029394D02*
G03X0024734Y0029894I0000656J0000500D01*
G01X0007484Y0030994D02*
G03X0008309Y0030169I0000825J0000000D01*
G01X0008509D02*
G03X0009334Y0030994I0000000J0000825D01*
G01X0007484Y0031994D02*
G03X0007652Y0031494I0000825J0000000D01*
G01X0012467Y0010390D02*
G03X0012248Y0009794I0000701J0000596D01*
G01X0009334Y0032994D02*
G03X0009165Y0033494I0000825J0000000D01*
G01X0007652Y0034494D02*
G03X0007483Y0033994I0000657J0000500D01*
G01X0023052Y0036394D02*
G03X0022951Y0036221I0000657J0000500D01*
G01X0009165Y0036494D02*
G03X0009334Y0036994I0000656J0000500D01*
G01X0007234Y0035949D02*
G03X0007225Y0036069I0000825J0000000D01*
G01X0009334Y0030994D02*
G03X0009165Y0031494I0000825J0000000D01*
G01X0016634Y0048494D02*
G03X0016684Y0048219I0000775J0000000D01*
G01X0029146Y0035994D02*
G03X0029309Y0036494I0000687J0000500D01*
G01X0029295Y0038744D02*
G03X0029308Y0038894I0000836J0000150D01*
G01X0024565Y0036394D02*
G03X0024734Y0036894I0000656J0000500D01*
G01X0029309Y0035494D02*
G03X0029146Y0035994I0000850J0000000D01*
G01X0027461Y0036008D02*
G03X0027399Y0035953I0000398J0000514D01*
G01X0016084Y0044294D02*
G03X0015459Y0045169I0000925J0000000D01*
G01X0029146Y0034994D02*
G03X0029309Y0035494I0000687J0000500D01*
G01X0029295Y0032344D02*
G03X0029308Y0032494I0000836J0000150D01*
G01X0029146Y0033994D02*
G03X0029309Y0034494I0000687J0000500D01*
G01X0009159Y0009969D02*
G03X0009984Y0010794I0000000J0000825D01*
G03X0009159Y0011619I0000825J0000000D01*
G01X0029659Y0013769D02*
G03X0030684Y0014794I0000000J0001025D01*
G03X0029659Y0015819I0001025J0000000D01*
G01X0015109Y0046869D02*
G03X0015489Y0046969I0000000J0000775D01*
G01X0020199Y0045753D02*
G03X0020009Y0045294I0000460J0000459D01*
G01X0014234Y0044294D02*
G03X0015159Y0043369I0000925J0000000D01*
G03X0016084Y0044294I0000000J0000925D01*
G01X0013614Y0042710D02*
G03X0013114Y0042558I0000000J0000900D01*
G01X0018050Y0046236D02*
G03X0017609Y0046418I0000441J0000442D01*
G01X0011984Y0046739D02*
G03X0011159Y0047564I0000825J0000000D01*
G03X0010334Y0046739I0000000J0000825D01*
G01X0007587Y0036394D02*
G03X0007484Y0035994I0000722J0000400D01*
G01X0007652Y0031494D02*
G03X0007483Y0030994I0000657J0000500D01*
G01X0007652Y0033494D02*
G03X0007483Y0032994I0000657J0000500D01*
G01X0022884Y0028894D02*
G03X0022902Y0028719I0000825J0000000D01*
G01X0021734Y0033894D02*
G03X0021714Y0034074I0000825J0000000D01*
G01X0007206Y0030821D02*
G03X0007197Y0030942I0000825J0000000D01*
G01X0005584Y0033449D02*
G03X0006409Y0032624I0000825J0000000D01*
G03X0007234Y0033449I0000000J0000825D01*
G01X0005511Y0039367D02*
G03X0005520Y0039246I0000825J0000000D01*
G01X0026659Y0013769D02*
G03X0027409Y0014095I0000000J0001025D01*
G01X0027408D02*
G03X0028159Y0013768I0000751J0000699D01*
G01X0018126Y0027143D02*
G03X0018299Y0027025I0000433J0000451D01*
G01X0021234Y0003894D02*
G03X0021234Y0003869I0000925J0000000D01*
G01X0027166Y0011682D02*
G03X0027321Y0011294I0000843J0000112D01*
G01X0020334Y0046739D02*
G03X0020342Y0046619I0000825J0000000D01*
G01X0016079Y0013794D02*
G03X0016009Y0014144I0000920J0000000D01*
G01X0005159Y0046409D02*
G03X0004542Y0046223I0000000J0001115D01*
G01X0012138Y0000969D02*
G03X0012717Y0001947I0000536J0000978D01*
G01X0006575Y0027900D02*
G03X0006679Y0027512I0000775J0000000D01*
G01X0017159Y0061794D02*
G03X0016659Y0061631I0000000J0000850D01*
G01X0015887Y0049519D02*
G03X0015883Y0049444I0000772J0000075D01*
G01X0005114Y0042558D02*
G03X0004614Y0042710I0000500J0000748D01*
G01X0003017Y0039952D02*
G03X0003459Y0039769I0000442J0000442D01*
G01X0004950Y0012074D02*
G03X0004659Y0012124I0000291J0000825D01*
G01X0005616Y0039769D02*
G03X0005511Y0039367I0000720J0000402D01*
G01X0005557Y0030785D02*
G03X0005356Y0030818I0000201J0000591D01*
G01X0007234Y0033449D02*
G03X0007225Y0033569I0000825J0000000D01*
G01X0005592D02*
G03X0005583Y0033449I0000817J0000120D01*
G01X0007652Y0032494D02*
G03X0007483Y0031994I0000657J0000500D01*
G01X0005557Y0030785D02*
G03X0005356Y0030818I0000201J0000591D01*
G01X0006992Y0008332D02*
G03X0007175Y0008774I0000442J0000442D01*
G01X0000934Y0028170D02*
G03X0001409Y0028081I0000475J0001224D01*
Y0030706D02*
G03X0000934Y0030617I0000000J0001312D01*
G01X0022818Y0036353D02*
G03X0022634Y0036483I0000459J0000459D01*
G01X0003759Y0029419D02*
G03X0003896Y0029431I0000000J0000775D01*
G01X0026184Y0013886D02*
G03X0026659Y0013769I0000475J0000908D01*
G01X0003974Y0010704D02*
G03X0003784Y0010159I0000685J0000545D01*
G01X0005779Y0012669D02*
G03X0004950Y0012074I0000000J0000875D01*
G01X0003974Y0008524D02*
G03X0003784Y0007979I0000685J0000545D01*
G01X0015114Y0042558D02*
G03X0014614Y0042710I0000500J0000748D01*
G01X0026959Y0030269D02*
G03X0027400Y0030452I0000000J0000625D01*
G01X0030700Y0028036D02*
G03X0030550Y0028147I0000441J0000442D01*
G01X0030659Y0026419D02*
G03X0031434Y0027194I0000000J0000775D01*
G01X0018126Y0027143D02*
G03X0018299Y0027025I0000433J0000451D01*
G01X0005556Y0030821D02*
G03X0005557Y0030785I0000825J0000000D01*
G01X0007321Y0036552D02*
G03X0007587Y0036394I0000442J0000442D01*
G01X0009334Y0034994D02*
G03X0009165Y0035494I0000825J0000000D01*
G01X0003974Y0009614D02*
G03X0003784Y0009069I0000685J0000545D01*
G01X0006654Y0008009D02*
G03X0006742Y0008082I0000354J0000515D01*
G01X0006108Y0026942D02*
G03X0005925Y0026500I0000442J0000442D01*
G01X0006654Y0008009D02*
G03X0006742Y0008082I0000354J0000515D01*
G01X0006943Y0001947D02*
G03X0007522Y0000969I0001116J0000000D01*
G01X0006992Y0008332D02*
G03X0007175Y0008774I0000442J0000442D01*
G01X0023052Y0041394D02*
G03X0022883Y0040894I0000657J0000500D01*
G01X0007484Y0035994D02*
G03X0007652Y0035494I0000825J0000000D01*
G01X0008984Y0009988D02*
G03X0009159Y0009969I0000175J0000806D01*
G01X0025334Y0047544D02*
G03X0025145Y0048051I0000775J0000000D01*
G01X0024565Y0041394D02*
G03X0024734Y0041894I0000656J0000500D01*
G01X0027510Y0037044D02*
G03X0027308Y0036494I0000649J0000550D01*
G01X0024643Y0040519D02*
G03X0024733Y0040894I0000734J0000375D01*
G01X0021168Y0008874D02*
G03X0021875Y0009206I0000000J0000920D01*
G01X0011847Y0027362D02*
G03X0011643Y0027975I0001025J0000000D01*
G01X0029309Y0032494D02*
G03X0029146Y0032994I0000850J0000000D01*
G01X0026959Y0030269D02*
G03X0027400Y0030452I0000000J0000625D01*
G01X0022884Y0031894D02*
G03X0023052Y0031394I0000825J0000000D01*
G01X0029309Y0034494D02*
G03X0029146Y0034994I0000850J0000000D01*
G01X0021984Y0046739D02*
G03X0021951Y0046969I0000825J0000000D01*
G01X0027775Y0046223D02*
G03X0027159Y0046409I0000616J0000929D01*
G01X0015159Y0006714D02*
G03X0014257Y0005977I0000000J0000920D01*
G01X0009275Y0008050D02*
G03X0009411Y0007611I0000775J0000000D01*
G01X0009480Y0008575D02*
G03X0009275Y0008050I0000570J0000525D01*
G01X0024734Y0036894D02*
G03X0024643Y0037269I0000825J0000000D01*
G01X0018650Y0002150D02*
G03X0018425Y0002726I0000850J0000000D01*
G01X0017800Y0001000D02*
G03X0018650Y0001850I0000000J0000850D01*
G01X0020366Y0046969D02*
G03X0020333Y0046739I0000793J0000230D01*
G01X0016300Y0001162D02*
G03X0016800Y0001000I0000500J0000688D01*
G01X0026384Y0019644D02*
G03X0027159Y0018869I0000775J0000000D01*
G03X0027934Y0019644I0000000J0000775D01*
G03X0027159Y0020419I0000775J0000000D01*
G03X0026384Y0019644I0000000J0000775D01*
G01X0002409Y0000969D02*
G03X0002774Y0001794I0000750J0000825D01*
G01X0025359Y0010144D02*
G03X0025818Y0010334I0000000J0000650D01*
G01X0028996Y0011294D02*
G03X0029159Y0011794I0000687J0000500D01*
G01X0027159Y0013412D02*
G03X0026899Y0013253I0000200J0000618D01*
G01X0028908Y0014095D02*
G03X0029659Y0013768I0000751J0000699D01*
G01X0029159Y0025844D02*
G03X0030034Y0026719I0000000J0000875D01*
G01X0030959Y0028082D02*
G03X0031484Y0028191I0000000J0001312D01*
G01X0012717Y0002341D02*
G03X0011602Y0003456I0001115J0000000D01*
G01X0008059D02*
G03X0006944Y0002341I0000000J0001115D01*
G01X0017159Y0059794D02*
G03X0017484Y0059858I0000000J0000850D01*
G01X0008715Y0003243D02*
G03X0008059Y0003456I0000656J0000902D01*
G01X0011602D02*
G03X0010946Y0003243I0000000J0001115D01*
G01X0011159Y0010714D02*
G03X0010239Y0009818I0000000J0000920D01*
G01X0016248Y0013794D02*
G03X0017168Y0012874I0000920J0000000D01*
G01X0015159D02*
G03X0016079Y0013794I0000000J0000920D01*
G01X0020248Y0009794D02*
G03X0021168Y0008874I0000920J0000000D01*
Y0010714D02*
G03X0020248Y0009794I0000000J0000920D01*
G01X0018239D02*
G03X0019159Y0008874I0000920J0000000D01*
G03X0020079Y0009794I0000000J0000920D01*
G03X0019159Y0010714I0000920J0000000D01*
G03X0018239Y0009794I0000000J0000920D01*
G01X0012248D02*
G03X0013168Y0008874I0000920J0000000D01*
G03X0014088Y0009794I0000000J0000920D01*
G01X0012079D02*
G03X0011159Y0010714I0000920J0000000D01*
G01X0008798Y0006744D02*
G03X0009718Y0005824I0000920J0000000D01*
G01X0009480Y0008575D02*
G03X0009275Y0008050I0000570J0000525D01*
G01X0006789Y0006744D02*
G03X0007709Y0005824I0000920J0000000D01*
G03X0008629Y0006744I0000000J0000920D01*
G03X0007709Y0007664I0000920J0000000D01*
G03X0006789Y0006744I0000000J0000920D01*
G01X0019359Y0008144D02*
G03X0018899Y0007953I0000000J0000650D01*
G01X0027408Y0015492D02*
G03X0026659Y0015818I0000749J0000698D01*
G01X0014088Y0009794D02*
G03X0013717Y0010532I0000920J0000000D01*
G01X0021400Y0010719D02*
G03X0021839Y0010569I0000459J0000625D01*
G01X0021884Y0008294D02*
G03X0021898Y0008144I0000775J0000000D01*
G01X0027246Y0004169D02*
G03X0027159Y0003794I0000763J0000375D01*
G01X0009450Y0027125D02*
G03X0009808Y0027212I0000000J0000775D01*
G01X0022159Y0004919D02*
G03X0022133Y0004918I0000000J0000925D01*
G01X0026817Y0004352D02*
G03X0027246Y0004169I0000442J0000442D01*
G01X0027159Y0003794D02*
G03X0028009Y0002944I0000850J0000000D01*
G01X0028309D02*
G03X0029159Y0003794I0000000J0000850D01*
G03X0028996Y0004294I0000850J0000000D01*
G01X0029159Y0007294D02*
G03X0028996Y0007794I0000850J0000000D01*
G01X0002417Y0043386D02*
G03X0002234Y0042944I0000442J0000442D01*
G01X0020199Y0045753D02*
G03X0020009Y0045294I0000460J0000459D01*
G01X0022068Y0044703D02*
G03X0021609Y0044893I0000459J0000459D01*
G01X0017114Y0042558D02*
G03X0016614Y0042710I0000500J0000748D01*
G01X0015800Y0001000D02*
G03X0016300Y0001162I0000000J0000850D01*
G01X0023709Y0042719D02*
G03X0022884Y0041894I0000000J0000825D01*
G01X0024734D02*
G03X0023909Y0042719I0000825J0000000D01*
G01X0023052Y0039394D02*
G03X0022883Y0038894I0000657J0000500D01*
G01X0022884Y0041894D02*
G03X0023052Y0041394I0000825J0000000D01*
G01X0022884Y0040894D02*
G03X0023052Y0040394I0000825J0000000D01*
G01X0022884Y0038894D02*
G03X0023052Y0038394I0000825J0000000D01*
G01X0029309Y0036494D02*
G03X0029107Y0037044I0000850J0000000D01*
G01X0024734Y0035894D02*
G03X0024565Y0036394I0000825J0000000D01*
G01X0021734Y0030894D02*
G03X0021565Y0031394I0000825J0000000D01*
G01X0023052Y0029394D02*
G03X0022883Y0028894I0000657J0000500D01*
G01X0022884Y0030894D02*
G03X0023052Y0030394I0000825J0000000D01*
G01X0028384Y0028936D02*
G03X0028534Y0029394I0000625J0000458D01*
G01X0022884Y0029894D02*
G03X0023052Y0029394I0000825J0000000D01*
Y0031394D02*
G03X0022883Y0030894I0000657J0000500D01*
G01X0021734Y0028894D02*
G03X0021565Y0029394I0000825J0000000D01*
G01X0021734Y0031894D02*
G03X0021565Y0032394I0000825J0000000D01*
G01X0021809Y0034069D02*
G03X0022044Y0034103I0000000J0000825D01*
G01X0029159Y0010794D02*
G03X0028996Y0011294I0000850J0000000D01*
G01X0021565Y0033394D02*
G03X0021734Y0033894I0000656J0000500D01*
G01X0021565Y0029394D02*
G03X0021734Y0029894I0000656J0000500D01*
G01X0021565Y0030394D02*
G03X0021734Y0030894I0000656J0000500D01*
G01X0023052Y0040394D02*
G03X0022883Y0039894I0000657J0000500D01*
G01X0016159Y0059794D02*
G03X0016659Y0059956I0000000J0000850D01*
G01X0002774Y0001794D02*
G03X0001659Y0002909I0001115J0000000D01*
G01X0028996Y0004294D02*
G03X0029159Y0004794I0000687J0000500D01*
G01X0030659Y0002909D02*
G03X0029544Y0001794I0000000J0001115D01*
G03X0029908Y0000969I0001115J0000000D01*
G01X0029309Y0039894D02*
G03X0028459Y0040744I0000850J0000000D01*
G01X0029146Y0039394D02*
G03X0029309Y0039894I0000687J0000500D01*
G01X0016159Y0061794D02*
G03X0016009Y0061780I0000000J0000850D01*
G01X0015044Y0009794D02*
G03X0016159Y0008679I0001115J0000000D01*
G03X0017274Y0009794I0000000J0001115D01*
G01X0015044Y0052794D02*
G03X0016159Y0051679I0001115J0000000D01*
G03X0017274Y0052794I0000000J0001115D01*
G03X0016159Y0053909I0001115J0000000D01*
G03X0015044Y0052794I0000000J0001115D01*
G01X0004044Y0045294D02*
G03X0005159Y0044179I0001115J0000000D01*
G03X0006274Y0045294I0000000J0001115D01*
G03X0005159Y0046409I0001115J0000000D01*
G01X0026044Y0045294D02*
G03X0027159Y0044179I0001115J0000000D01*
G03X0028274Y0045294I0000000J0001115D01*
G01X0027159Y0046409D02*
G03X0026044Y0045294I0000000J0001115D01*
G01X0020259Y0021919D02*
G03X0018234Y0019894I0000000J0002025D01*
G03X0020259Y0017869I0002025J0000000D01*
G01X0021259D02*
G03X0023284Y0019894I0000000J0002025D01*
G03X0021259Y0021919I0002025J0000000D01*
G01X0001135Y0020276D02*
G03X0002160Y0019251I0001025J0000000D01*
G03X0003185Y0020276I0000000J0001025D01*
G03X0002160Y0021301I0001025J0000000D01*
G03X0001135Y0020276I0000000J0001025D01*
Y0024607D02*
G03X0002160Y0023582I0001025J0000000D01*
G03X0003185Y0024607I0000000J0001025D01*
G03X0002160Y0025632I0001025J0000000D01*
G03X0001135Y0024607I0000000J0001025D01*
G01X0009797Y0017520D02*
G03X0010822Y0016495I0001025J0000000D01*
G01X0015628Y0048219D02*
G03X0015109Y0048419I0000519J0000575D01*
G01X0016253Y0005690D02*
G03X0017168Y0004873I0000915J0000104D01*
G01X0029159Y0004794D02*
G03X0029145Y0004944I0000850J0000000D01*
G01X0029159Y0008294D02*
G03X0029145Y0008444I0000850J0000000D01*
G01X0015341Y0004892D02*
G03X0016079Y0005794I0000182J0000902D01*
G01X0001659Y0002909D02*
G03X0000934Y0002641I0000000J0001115D01*
G01X0017192Y0004442D02*
G03X0016750Y0004625I0000442J0000442D01*
G01X0009275Y0008050D02*
G03X0009411Y0007611I0000775J0000000D01*
G01X0016820Y0006891D02*
G03X0016933Y0007294I0000661J0000403D01*
G01X0017688Y0006553D02*
G03X0017168Y0006714I0000520J0000759D01*
G01X0024643Y0035519D02*
G03X0024733Y0035894I0000734J0000375D01*
G01X0002417Y0043386D02*
G03X0002234Y0042944I0000442J0000442D01*
G01X0021714Y0034074D02*
G03X0021809Y0034069I0000095J0000820D01*
G01X0030417Y0028198D02*
G03X0030259Y0028218I0000158J0000604D01*
G01X0027461Y0036008D02*
G03X0027399Y0035953I0000398J0000514D01*
G01X0015536Y0010719D02*
G03X0015044Y0009794I0000623J0000925D01*
G01X0023309Y0011794D02*
G03X0023118Y0012253I0000650J0000000D01*
G01X0015909Y0051069D02*
G03X0015134Y0050294I0000000J0000775D01*
G01X0022959Y0051019D02*
G03X0022578Y0050919I0000000J0000775D01*
G01X0009334Y0036994D02*
G03X0009315Y0037169I0000825J0000000D01*
G01X0028856Y0010144D02*
G03X0029159Y0010794I0000547J0000650D01*
G01X0019479Y0013314D02*
G03X0019926Y0013666I0000120J0000614D01*
G01X0022659Y0009069D02*
G03X0021884Y0008294I0000000J0000775D01*
G01X0025145Y0048051D02*
G03X0025284Y0048494I0000636J0000443D01*
G03X0025236Y0048762I0000775J0000000D01*
G01X0023479Y0009647D02*
G03X0023584Y0009994I0000520J0000347D01*
G01X0024559Y0046769D02*
G03X0025334Y0047544I0000000J0000775D01*
G01X0014334Y0047644D02*
G03X0015109Y0046869I0000775J0000000D01*
Y0048419D02*
G03X0014334Y0047644I0000000J0000775D01*
G01X0003017Y0039952D02*
G03X0003459Y0039769I0000442J0000442D01*
G01X0002288Y0040738D02*
G03X0002417Y0040552I0000571J0000256D01*
G01X0002288Y0040738D02*
G03X0002417Y0040552I0000571J0000256D01*
G01X0014915Y0012907D02*
G03X0015159Y0012874I0000244J0000887D01*
G01X0029159Y0011794D02*
G03X0029145Y0011944I0000850J0000000D01*
G01X0025359Y0010144D02*
G03X0025818Y0010334I0000000J0000650D01*
G01X0019926Y0013666D02*
G03X0020134Y0014194I0000567J0000528D01*
G01X0026659Y0015819D02*
G03X0026184Y0015702I0000000J0001025D01*
G01X0009159Y0011619D02*
G03X0008984Y0011600I0000000J0000825D01*
G01X0023584Y0009994D02*
G03X0023565Y0010144I0000625J0000000D01*
G01X0015534Y0006669D02*
G03X0015535Y0006633I0000625J0000000D01*
G01X0022435Y0006844D02*
G03X0022433Y0006794I0000774J0000050D01*
G01X0027321Y0011294D02*
G03X0027159Y0010794I0000688J0000500D01*
G01X0002984Y0030194D02*
G03X0003759Y0029419I0000775J0000000D01*
Y0030969D02*
G03X0002984Y0030194I0000000J0000775D01*
G01X0003884Y0029294D02*
G03X0004566Y0028524I0000775J0000000D01*
G01X0029309Y0038894D02*
G03X0029146Y0039394I0000850J0000000D01*
G01X0026984Y0029394D02*
G03X0027134Y0028936I0000775J0000000D01*
G01X0028534Y0029394D02*
G03X0027759Y0030169I0000775J0000000D01*
G03X0026984Y0029394I0000000J0000775D01*
G01X0023052Y0030394D02*
G03X0022883Y0029894I0000657J0000500D01*
G01X0021715Y0028719D02*
G03X0021734Y0028894I0000806J0000175D01*
G01X0005592Y0036069D02*
G03X0005583Y0035949I0000817J0000120D01*
G01X0002288Y0040738D02*
G03X0002417Y0040552I0000571J0000256D01*
G01X0004229Y0045910D02*
G03X0004043Y0045294I0000930J0000616D01*
G01X0002288Y0040738D02*
G03X0002417Y0040552I0000571J0000256D01*
G01X0028996Y0007794D02*
G03X0029159Y0008294I0000687J0000500D01*
G01X0008709Y0042719D02*
G03X0009150Y0042902I0000000J0000625D01*
G01X0023209Y0006019D02*
G03X0023667Y0006169I0000000J0000775D01*
G01X0022434Y0006794D02*
G03X0023209Y0006019I0000775J0000000D01*
G01X0001431Y0040420D02*
G03X0002288Y0040738I0000000J0001312D01*
G01X0026817Y0004352D02*
G03X0027246Y0004169I0000442J0000442D01*
G01X0021688Y0010553D02*
G03X0021168Y0010714I0000520J0000759D01*
G01X0021565Y0032394D02*
G03X0021734Y0032894I0000656J0000500D01*
G01X0022887Y0031969D02*
G03X0022884Y0031894I0000822J0000075D01*
Y0036894D02*
G03X0023052Y0036394I0000825J0000000D01*
G01X0004217Y0030819D02*
G03X0003759Y0030969I0000458J0000625D01*
G01X0028384Y0028936D02*
G03X0028534Y0029394I0000625J0000458D01*
G01X0021565Y0031394D02*
G03X0021734Y0031894I0000656J0000500D01*
G01X0024734Y0029894D02*
G03X0024643Y0030269I0000825J0000000D01*
G01X0029309Y0033494D02*
G03X0029146Y0033994I0000850J0000000D01*
G01X0028658Y0026001D02*
G03X0029159Y0025843I0000501J0000718D01*
G01X0028159Y0040744D02*
G03X0027582Y0040519I0000000J0000850D01*
G01X0012614Y0042710D02*
G03X0012114Y0042558I0000000J0000900D01*
G01X0007614Y0042710D02*
G03X0007114Y0042558I0000000J0000900D01*
G01X0006614Y0042710D02*
G03X0006114Y0042558I0000000J0000900D01*
G01X0030971Y0040420D02*
G03X0031484Y0040524I0000000J0001312D01*
G01X0007484Y0034994D02*
G03X0007652Y0034494I0000825J0000000D01*
G01X0007321Y0036552D02*
G03X0007587Y0036394I0000442J0000442D01*
G01X0028159Y0013769D02*
G03X0028909Y0014095I0000000J0001025D01*
G01X0009165Y0035494D02*
G03X0009334Y0035994I0000656J0000500D01*
G01X0017484Y0056794D02*
G03X0017681Y0056317I0000675J0000000D01*
G01X0016367Y0050919D02*
G03X0015909Y0051069I0000458J0000625D01*
G01X0030700Y0028036D02*
G03X0030550Y0028147I0000441J0000442D01*
G01X0021734Y0029894D02*
G03X0021565Y0030394I0000825J0000000D01*
G01X0015535Y0006633D02*
G03X0015159Y0006713I0000376J0000839D01*
G01X0028034Y0025853D02*
G03X0028159Y0025844I0000125J0000866D01*
G01X0015384Y0007294D02*
G03X0015534Y0006836I0000775J0000000D01*
G01X0016079Y0005794D02*
G03X0016076Y0005868I0000920J0000000D01*
G01X0016934Y0007294D02*
G03X0016159Y0008069I0000775J0000000D01*
G03X0015384Y0007294I0000000J0000775D01*
G01X0016659Y0048669D02*
G03X0016639Y0048494I0000750J0000175D01*
G01X0017168Y0006714D02*
G03X0017011Y0006700I0000000J0000920D01*
G01X0023052Y0038394D02*
G03X0022883Y0037894I0000657J0000500D01*
G01X0022884Y0039894D02*
G03X0023052Y0039394I0000825J0000000D01*
G01X0007652Y0035494D02*
G03X0007483Y0034994I0000657J0000500D01*
G01X0015884Y0049444D02*
G03X0016654Y0048669I0000775J0000000D01*
G01X0001431Y0043044D02*
G03X0001362Y0043042I0000000J0001312D01*
G01X0019479Y0013314D02*
G03X0019926Y0013666I0000120J0000614D01*
G01X0013859Y0015494D02*
G03X0013399Y0015303I0000000J0000650D01*
G01X0022818Y0012553D02*
G03X0022359Y0012743I0000459J0000459D01*
G01X0023309Y0011794D02*
G03X0023118Y0012253I0000650J0000000D01*
G01X0019359Y0008144D02*
G03X0018899Y0007953I0000000J0000650D01*
G01X0027159Y0010794D02*
G03X0027461Y0010144I0000850J0000000D01*
G01X0011341Y0008892D02*
G03X0012079Y0009794I0000182J0000902D01*
G01X0017168Y0012874D02*
G03X0017875Y0013206I0000000J0000920D01*
G01X0015905Y0027975D02*
G03X0015702Y0027362I0000822J0000613D01*
G01X0006578Y0027975D02*
G03X0006574Y0027900I0000772J0000075D01*
G01X0024734Y0028894D02*
G03X0024565Y0029394I0000825J0000000D01*
G01X0024039Y0046969D02*
G03X0024559Y0046769I0000520J0000575D01*
G01X0022044Y0034103D02*
G03X0021984Y0033794I0000765J0000309D01*
G01X0017274Y0009794D02*
G03X0016781Y0010719I0001115J0000000D01*
G01X0022133Y0004918D02*
G03X0022133Y0004944I0000924J0000026D01*
G01X0021734Y0032894D02*
G03X0021565Y0033394I0000825J0000000D01*
G01X0015650Y0001013D02*
G03X0015800Y0001000I0000150J0000837D01*
G01X0026984Y0029394D02*
G03X0027134Y0028936I0000775J0000000D01*
G01X0017614Y0042710D02*
G03X0017114Y0042558I0000000J0000900D01*
G01X0021975Y0046619D02*
G03X0021984Y0046739I0000816J0000120D01*
G01X0022068Y0044703D02*
G03X0021609Y0044893I0000459J0000459D01*
G01X0022609Y0043894D02*
G03X0022418Y0044353I0000650J0000000D01*
G01X0022818Y0036353D02*
G03X0022634Y0036483I0000459J0000459D01*
G01X0017168Y0004874D02*
G03X0017875Y0005206I0000000J0000920D01*
G01X0008614Y0042710D02*
G03X0008114Y0042558I0000000J0000900D01*
G03X0007614Y0042710I0000500J0000748D01*
G01X0022979Y0051019D02*
G03X0022959Y0051019I0000020J0000775D01*
G01X0004614Y0042710D02*
G03X0004514Y0042705I0000000J0000900D01*
G01X0018425Y0002950D02*
G03X0018242Y0003392I0000625J0000000D01*
G01X0009718Y0005824D02*
G03X0010625Y0006591I0000000J0000920D01*
G01X0009411Y0007611D02*
G03X0008798Y0006744I0000307J0000867D01*
G01X0017192Y0004442D02*
G03X0016750Y0004625I0000442J0000442D01*
G01X0007508Y0008758D02*
G03X0007950Y0008575I0000442J0000442D01*
G01X0009165Y0031494D02*
G03X0009334Y0031994I0000656J0000500D01*
G01X0006108Y0026942D02*
G03X0005925Y0026500I0000442J0000442D01*
G01X0016317Y0014144D02*
G03X0016248Y0013794I0000851J0000350D01*
G01X0009278Y0027144D02*
G03X0009450Y0027125I0000172J0000756D01*
G01X0007508Y0008758D02*
G03X0007950Y0008575I0000442J0000442D01*
G01X0009807Y0027212D02*
G03X0010822Y0026336I0001015J0000150D01*
G01X0009525Y0030300D02*
G03X0009708Y0029858I0000625J0000000D01*
Y0034142D02*
G03X0009525Y0033700I0000442J0000442D01*
G01X0009165Y0033494D02*
G03X0009334Y0033994I0000656J0000500D01*
G01X0010450Y0034625D02*
G03X0010008Y0034442I0000000J0000625D01*
G01X0010484Y0034994D02*
G03X0010571Y0034625I0000825J0000000D01*
G01X0010652Y0035494D02*
G03X0010483Y0034994I0000657J0000500D01*
G01X0010484Y0035994D02*
G03X0010652Y0035494I0000825J0000000D01*
G01X0000934Y0040518D02*
G03X0001431Y0040420I0000497J0001214D01*
G01X0005614Y0042710D02*
G03X0005114Y0042558I0000000J0000900D01*
G01X0002288Y0040738D02*
G03X0002417Y0040552I0000571J0000256D01*
G01X0013114Y0042558D02*
G03X0012614Y0042710I0000500J0000748D01*
G01X0030550Y0028147D02*
G03X0030959Y0028082I0000409J0001247D01*
G01X0017752Y0027362D02*
G03X0017741Y0027512I0001025J0000000D01*
G01X0027159Y0013412D02*
G03X0026899Y0013253I0000200J0000618D01*
G01X0021984Y0033794D02*
G03X0022002Y0033619I0000825J0000000D01*
G01X0031484Y0030597D02*
G03X0030959Y0030707I0000525J0001203D01*
G01X0028259Y0028219D02*
G03X0028384Y0028594I0000500J0000375D01*
G01X0028534Y0029394D02*
G03X0027759Y0030169I0000775J0000000D01*
G03X0026984Y0029394I0000000J0000775D01*
G01X0022609Y0043894D02*
G03X0022418Y0044353I0000650J0000000D01*
G01X0019440Y0043078D02*
G03X0019839Y0042814I0000519J0000350D01*
G01X0009614Y0042710D02*
G03X0009114Y0042558I0000000J0000900D01*
G01X0018050Y0046236D02*
G03X0017609Y0046418I0000441J0000442D01*
G01X0016658Y0061631D02*
G03X0016159Y0061793I0000499J0000687D01*
G01X0016658Y0059956D02*
G03X0017159Y0059793I0000501J0000688D01*
G01X0017484Y0061729D02*
G03X0017159Y0061794I0000325J0000785D01*
G01X0029646Y0029394D02*
G03X0030417Y0028198I0001313J0000000D01*
G01X0016114Y0042558D02*
G03X0015614Y0042710I0000500J0000748D01*
G01X0024734Y0040894D02*
G03X0024565Y0041394I0000825J0000000D01*
G01X0016009Y0059807D02*
G03X0016159Y0059794I0000150J0000837D01*
G01X0003259Y0043969D02*
G03X0002817Y0043786I0000000J0000625D01*
G01X0030954Y0043044D02*
G03X0029659Y0041732I0000017J0001312D01*
G01X0017484Y0056794D02*
G03X0017681Y0056317I0000675J0000000D01*
G01X0027309Y0036494D02*
G03X0027461Y0036008I0000850J0000000D01*
G01X0018425Y0002950D02*
G03X0018242Y0003392I0000625J0000000D01*
G01X0010239Y0009818D02*
G03X0010150Y0009824I0000089J0000618D01*
G01X0028856Y0006644D02*
G03X0029159Y0007294I0000547J0000650D01*
G01X0021209Y0004019D02*
G03X0021234Y0004019I0000000J0000925D01*
G01X0031484Y0002544D02*
G03X0030659Y0002909I0000825J0000750D01*
G01X0004731Y0028370D02*
G03X0003891Y0027362I0000185J0001008D01*
G01X0030417Y0028198D02*
G03X0030259Y0028218I0000158J0000604D01*
G01X0028274Y0045294D02*
G03X0028088Y0045910I0001115J0000000D01*
G01X0004659Y0007104D02*
G03X0004904Y0007139I0000000J0000875D01*
G01X0003784Y0009069D02*
G03X0003974Y0008524I0000875J0000000D01*
G01X0010334Y0046739D02*
G03X0010342Y0046619I0000825J0000000D01*
G01X0007484Y0032994D02*
G03X0007652Y0032494I0000825J0000000D01*
G01X0007484Y0033994D02*
G03X0007652Y0033494I0000825J0000000D01*
G01X0009165Y0034494D02*
G03X0009334Y0034994I0000656J0000500D01*
G01X0009165Y0032494D02*
G03X0009334Y0032994I0000656J0000500D01*
Y0033994D02*
G03X0009165Y0034494I0000825J0000000D01*
G01X0029146Y0032994D02*
G03X0029309Y0033494I0000687J0000500D01*
G01X0010239Y0009818D02*
G03X0010150Y0009824I0000089J0000618D01*
G01X0009334Y0035994D02*
G03X0009165Y0036494I0000825J0000000D01*
G01X0019398Y0041219D02*
G03X0019514Y0041660I0000784J0000441D01*
G01X0023117Y0008919D02*
G03X0022659Y0009069I0000458J0000625D01*
G01X0029659Y0015819D02*
G03X0028909Y0015492I0000000J0001025D01*
G01X0010490Y0037894D02*
G03X0010652Y0037494I0000819J0000100D01*
G01X0028908Y0015492D02*
G03X0028159Y0015818I0000749J0000698D01*
G01X0030034Y0026736D02*
G03X0030659Y0026419I0000625J0000458D01*
G01X0028159Y0015819D02*
G03X0027409Y0015492I0000000J0001025D01*
G01X0028159Y0025844D02*
G03X0028659Y0026001I0000000J0000875D01*
G01X0015134Y0050294D02*
G03X0015887Y0049519I0000775J0000000D01*
G01X0011975Y0046619D02*
G03X0011984Y0046739I0000816J0000120D01*
G01X0012114Y0042558D02*
G03X0011614Y0042710I0000500J0000748D01*
G01X0022818Y0012553D02*
G03X0022359Y0012743I0000459J0000459D01*
G01X0019440Y0043078D02*
G03X0019839Y0042814I0000519J0000350D01*
G01X0022884Y0037894D02*
G03X0023052Y0037394I0000825J0000000D01*
G01X0003896Y0029431D02*
G03X0003884Y0029294I0000763J0000137D01*
G01X0005565Y0030942D02*
G03X0005556Y0030821I0000816J0000121D01*
G01X0022134Y0002969D02*
G03X0022159Y0002969I0000025J0000925D01*
G01X0009334Y0031994D02*
G03X0009165Y0032494I0000825J0000000D01*
G01X0005584Y0035949D02*
G03X0006024Y0035219I0000825J0000000D01*
G01X0006793D02*
G03X0007234Y0035949I0000384J0000730D01*
G01X0011114Y0042558D02*
G03X0010614Y0042710I0000500J0000748D01*
G01X0016614D02*
G03X0016114Y0042558I0000000J0000900D01*
G01X0020134Y0014194D02*
G03X0019479Y0014959I0000775J0000000D01*
G01X0016800Y0001000D02*
G03X0017300Y0001162I0000000J0000850D01*
G03X0017800Y0001000I0000500J0000688D01*
G01X0031434Y0027194D02*
G03X0030776Y0027960I0000775J0000000D01*
G01X0021233Y0004019D02*
G03X0021233Y0003994I0000926J0000025D01*
G01X0015534Y0006669D02*
G03X0015535Y0006633I0000625J0000000D01*
G01X0023052Y0037394D02*
G03X0022883Y0036894I0000657J0000500D01*
G01X0028259Y0028219D02*
G03X0028384Y0028594I0000500J0000375D01*
G54D55*
G01X0020809Y0031894D02*
X0013759D01*
X0017168Y0005794D02*
Y0005928D01*
X0017034Y0005794D01*
X0016159Y0006669D01*
Y0007294D01*
X0015459Y0036994D02*
X0016909Y0038444D01*
X0019909D01*
X0020459Y0037894D01*
X0020809D01*
Y0036894D02*
X0020559D01*
X0019409Y0038044D01*
X0017509D01*
X0015759Y0036294D01*
X0014759D01*
X0014459Y0036594D01*
Y0036994D01*
X0017800Y0002000D02*
Y0002950D01*
X0016750Y0004000D01*
X0015350D01*
X0010150Y0009200D01*
X0007950D01*
X0007250Y0009900D01*
Y0026000D01*
X0009150Y0027900D01*
X0009450D01*
X0011320Y0029830D02*
X0011330Y0029820D01*
Y0029840D01*
X0011320Y0029850D01*
X0010600D01*
X0010150Y0030300D01*
Y0033700D01*
X0010450Y0034000D01*
X0011403D01*
X0011409Y0033994D01*
X0016659D01*
X0018359Y0040594D02*
X0020509D01*
X0020809Y0040894D01*
X0011159Y0045794D02*
X0008709Y0043344D01*
X0003259D01*
X0002859Y0042944D01*
Y0040994D01*
X0003459Y0040394D01*
X0013194D01*
X0013100Y0040300D01*
X0014000Y0029600D02*
X0014060Y0029540D01*
X0017509D01*
X0018959Y0028094D01*
X0027259D01*
X0027759Y0028594D01*
Y0029394D01*
X0020659Y0043428D02*
X0019959D01*
Y0043444D01*
X0017609Y0045794D01*
X0011159D01*
X0016659Y0049444D02*
Y0049394D01*
X0023709D01*
X0023759Y0049344D01*
X0020659Y0043428D02*
Y0041894D01*
X0020809D01*
X0018659Y0005928D02*
X0017168D01*
Y0005794D01*
X0010050Y0008050D02*
X0014900Y0003200D01*
X0016350D01*
X0016800Y0002750D01*
Y0002000D01*
X0012359Y0038894D02*
X0015759D01*
X0016226Y0039361D01*
X0018377D02*
X0018907Y0039894D01*
X0020809D01*
X0021859Y0011344D02*
X0013159D01*
X0013092Y0011411D01*
Y0012861D01*
X0022659Y0009928D02*
X0021168D01*
Y0009794D01*
X0015909Y0050294D02*
X0022909D01*
X0022959Y0050244D01*
X0016159Y0039994D02*
X0015659Y0039494D01*
X0012709D01*
X0012509Y0039694D01*
X0008809D01*
X0008659Y0039544D01*
X0028159Y0008294D02*
X0022659D01*
X0024559Y0047544D02*
X0024609Y0047594D01*
X0015159D01*
Y0047644D01*
X0015109D01*
X0011159Y0045794D02*
X0008709Y0043344D01*
X0003259D01*
X0002859Y0042944D01*
Y0040994D01*
X0003459Y0040394D01*
X0013194D01*
X0013100Y0040300D01*
X0018659Y0013928D02*
X0019359D01*
Y0014194D01*
X0018659Y0013928D02*
X0017168D01*
Y0013794D01*
X0003759Y0030194D02*
X0005356D01*
X0006450Y0029100D01*
X0011750D01*
X0013490Y0030840D01*
X0017313D01*
X0019259Y0028894D01*
X0020809D01*
X0028309Y0038894D02*
X0023809D01*
X0027759Y0029394D02*
Y0028594D01*
X0027259Y0028094D01*
X0018959D01*
X0017509Y0029540D01*
X0014060D01*
X0014000Y0029600D01*
X0013100Y0040300D02*
X0013194Y0040394D01*
X0003459D01*
X0002859Y0040994D01*
Y0042944D01*
X0003259Y0043344D01*
X0008709D01*
X0011159Y0045794D01*
X0023209Y0006794D02*
X0025259D01*
X0027259Y0004794D01*
X0028159D01*
X0013168Y0009794D02*
X0013109D01*
X0013092Y0009814D01*
Y0011411D01*
Y0012861D01*
X0020809Y0033894D02*
X0019859D01*
X0018959Y0034794D01*
X0018159D01*
X0023809Y0031894D02*
X0024559D01*
X0025159Y0032494D01*
X0028309D01*
X0007614Y0041735D02*
Y0041194D01*
X0007914Y0040894D01*
X0015059D01*
X0015259Y0040694D01*
Y0040594D01*
X0030659Y0027194D02*
X0030259Y0027594D01*
X0018559D01*
X0017510Y0028600D01*
X0005400D01*
X0004659Y0029294D01*
X0024509Y0048494D02*
X0017409D01*
X0006336Y0038421D02*
X0007763Y0036994D01*
X0008409D01*
X0005779Y0008524D02*
X0006300D01*
X0006550Y0008774D01*
Y0026500D01*
X0007350Y0027299D01*
Y0027900D01*
X0008159Y0012428D02*
Y0010794D01*
X0016659Y0033994D02*
X0011409D01*
X0028309Y0039894D02*
X0023809D01*
X0028309Y0037894D02*
X0023809D01*
X0020809Y0032894D02*
X0018259D01*
X0018159Y0032794D01*
X0023809Y0032894D02*
X0024559D01*
X0024959Y0033294D01*
X0028109D01*
X0028309Y0033494D01*
X0023809Y0030894D02*
X0026959D01*
X0027559Y0031494D01*
X0028309D01*
X0017614Y0041735D02*
X0017659Y0041691D01*
Y0039794D01*
X0022959Y0009994D02*
X0022893Y0009928D01*
X0022659D01*
X0025659Y0034894D02*
X0023809D01*
X0010050Y0008050D02*
X0014900Y0003200D01*
X0016350D01*
X0016800Y0002750D01*
Y0002000D01*
X0036163Y0005375D02*
X0035075D01*
X0041360Y0007350D02*
Y0007295D01*
X0047660Y0002219D02*
Y0000910D01*
X0045710Y0007350D02*
Y0006780D01*
X0040624Y0006720D02*
X0040550D01*
X0039350Y0006150D02*
Y0005310D01*
X0040550Y0007350D02*
X0039350D01*
Y0006510D02*
Y0006150D01*
X0045710Y0007080D02*
X0045350D01*
Y0006390D02*
Y0006262D01*
X0040692Y0006900D02*
X0040550D01*
X0048254Y0001975D02*
X0048180D01*
X0048210Y0001860D02*
X0047327D01*
X0047891Y0002040D02*
X0047327D01*
X0048740Y0000924D02*
Y0000910D01*
X0042440Y0007350D02*
Y0006975D01*
X0040606Y0006513D02*
X0040573Y0006480D01*
X0047480Y0002836D02*
Y0000910D01*
X0045680Y0007350D02*
Y0006570D01*
X0035957Y0003660D02*
X0035009D01*
X0035957Y0004740D02*
X0035075D01*
X0039740Y0005310D02*
Y0005175D01*
X0035957Y0003570D02*
X0034958D01*
X0036140Y0005375D02*
Y0004795D01*
X0047514Y0002760D02*
X0047327D01*
X0049890Y0005100D02*
X0049055D01*
X0048636Y0000960D02*
X0047327D01*
X0048020Y0001994D02*
Y0000910D01*
X0049890Y0002400D02*
X0049630D01*
X0049007D01*
X0049890Y0003300D02*
X0048957D01*
X0049630Y0005900D02*
X0049055D01*
X0049890Y0005280D02*
X0049055D01*
X0049890Y0004200D02*
X0048883D01*
X0049890Y0003660D02*
X0049055D01*
X0049640Y0005900D02*
Y0002400D01*
X0039200Y0006030D02*
Y0005175D01*
X0049890Y0002580D02*
X0049051D01*
X0047508D02*
X0047327D01*
X0036151Y0005280D02*
X0035075D01*
Y0005375D02*
Y0004275D01*
X0035780Y0005375D02*
Y0003570D01*
X0040550Y0007350D02*
Y0006510D01*
X0035957Y0004795D02*
Y0003795D01*
X0036249Y0004920D02*
X0035075D01*
X0035957Y0004560D02*
X0035075D01*
X0039320Y0007350D02*
Y0006030D01*
X0039090D01*
X0042096Y0006847D02*
X0042051Y0006802D01*
X0041540Y0007350D02*
Y0007270D01*
X0042865Y0004560D02*
X0040846D01*
X0043340Y0007350D02*
Y0007295D01*
X0044150Y0006490D02*
Y0006390D01*
X0040573Y0006480D02*
X0040550D01*
X0042800Y0002980D02*
Y0002829D01*
X0042980Y0007350D02*
Y0007196D01*
X0042620Y0007350D02*
Y0006975D01*
Y0006125D02*
Y0005850D01*
X0044060Y0006324D02*
Y0005861D01*
X0044481Y0003175D02*
X0044281D01*
X0035420Y0005375D02*
Y0003570D01*
X0049890Y0005640D02*
X0049055D01*
X0044240Y0003139D02*
Y0002823D01*
X0049890Y0005946D02*
Y0002353D01*
X0048920Y0004245D02*
Y0004055D01*
X0047553Y0002400D02*
X0047327D01*
X0048380Y0001140D02*
Y0000910D01*
X0049890Y0004740D02*
X0049049D01*
X0048200Y0001478D02*
Y0000910D01*
X0049890Y0003480D02*
X0049033D01*
X0049890Y0003120D02*
X0048864D01*
X0049890Y0005460D02*
X0049055D01*
X0049890Y0004560D02*
X0049049D01*
X0049890Y0003840D02*
X0049028D01*
X0049890Y0005820D02*
X0049055D01*
X0049890Y0002940D02*
X0048989D01*
X0049890Y0004020D02*
X0048944D01*
X0036169Y0005100D02*
X0035075D01*
X0035060Y0004275D02*
Y0004091D01*
X0035957Y0004380D02*
X0035075D01*
X0039350Y0006360D02*
X0039320D01*
X0039350Y0007260D02*
X0039320D01*
X0039350Y0006540D02*
X0039320D01*
X0039350Y0006720D02*
X0039320D01*
X0039350Y0006900D02*
X0039320D01*
X0039350Y0007080D02*
X0039320D01*
X0035957Y0003795D02*
Y0003570D01*
X0035075Y0004275D02*
X0034991D01*
X0041720Y0007350D02*
Y0007196D01*
X0041180Y0007350D02*
Y0007275D01*
X0043340Y0002980D02*
Y0002827D01*
X0044420Y0003175D02*
Y0002816D01*
X0048200Y0001975D02*
Y0001822D01*
X0045584Y0006496D02*
X0045350Y0006262D01*
X0049280Y0005900D02*
Y0002400D01*
X0035060Y0003808D02*
Y0003570D01*
X0049820Y0005924D02*
Y0002375D01*
X0049100Y0005900D02*
Y0002400D01*
X0042865Y0004580D02*
Y0004443D01*
X0045635Y0006540D02*
X0045350D01*
X0042159Y0006900D02*
X0042007D01*
X0045584Y0006496D02*
X0045350Y0006262D01*
X0035600Y0005375D02*
Y0003570D01*
X0039380Y0005310D02*
Y0005175D01*
X0042865Y0004580D02*
Y0004443D01*
X0042717Y0004200D02*
X0041001D01*
X0043880Y0002980D02*
Y0002823D01*
X0047327Y0002195D02*
Y0001805D01*
X0045448Y0006360D02*
X0045350D01*
X0044060Y0003011D02*
Y0002830D01*
X0039350Y0005460D02*
X0039090D01*
X0039350Y0005640D02*
X0039090D01*
X0039350Y0005820D02*
X0039090D01*
X0039850Y0005175D02*
X0039090D01*
X0047327Y0002795D02*
Y0002195D01*
X0049055Y0004975D02*
X0048971D01*
X0039560Y0005310D02*
Y0005175D01*
X0041180Y0004576D02*
Y0004075D01*
X0042100D02*
X0041126D01*
X0042080Y0004577D02*
Y0004075D01*
X0042717Y0003840D02*
X0042513D01*
X0042398Y0003953D02*
X0042524Y0003830D01*
X0043898Y0002980D02*
X0042653D01*
X0044281Y0003175D02*
X0044180Y0003086D01*
X0041540Y0004573D02*
Y0004075D01*
X0041000Y0004648D02*
Y0004201D01*
X0036359Y0004795D02*
X0035957D01*
X0042847Y0006000D02*
X0042451D01*
X0045500Y0007350D02*
Y0006412D01*
X0045710Y0006900D02*
X0045350D01*
X0045710Y0007350D02*
X0045350D01*
X0042080D02*
Y0006831D01*
X0039946Y0005280D02*
X0039090D01*
X0035957Y0003840D02*
X0035066D01*
X0039350Y0006000D02*
X0039090D01*
X0039350Y0006180D02*
X0039320D01*
X0048560Y0000997D02*
Y0000910D01*
X0047327Y0001805D02*
Y0000910D01*
X0045710Y0006720D02*
X0045350D01*
X0049460Y0005900D02*
Y0002400D01*
X0047327Y0000905D02*
X0047056D01*
X0044473Y0003120D02*
X0044218D01*
X0044482Y0002940D02*
X0042669D01*
X0040820Y0004542D02*
Y0004381D01*
X0049890Y0004920D02*
X0048998D01*
X0049055Y0005900D02*
Y0004975D01*
X0043160Y0002980D02*
Y0002811D01*
X0039920Y0005310D02*
Y0005203D01*
X0044150Y0006490D02*
X0044092D01*
X0044150Y0006180D02*
X0043996D01*
X0039959Y0005310D02*
X0039350D01*
X0041900Y0007350D02*
Y0007052D01*
X0044150Y0006360D02*
X0044070D01*
X0044150Y0006000D02*
X0043852D01*
X0042738Y0006975D02*
X0042400D01*
X0042738Y0006125D02*
X0042576D01*
X0042865Y0004580D02*
Y0004443D01*
X0042260Y0007350D02*
Y0006951D01*
X0042826Y0007080D02*
X0041873D01*
X0035957Y0004020D02*
X0035071D01*
X0039350Y0007350D02*
Y0006510D01*
X0040640Y0007350D02*
Y0006775D01*
X0043124Y0007260D02*
X0041575D01*
X0040550Y0006510D02*
Y0006480D01*
X0040712Y0004489D02*
X0041126Y0004075D01*
X0040605Y0006540D02*
X0040550D01*
X0048380Y0001140D02*
X0047327D01*
X0048256Y0001320D02*
X0047327D01*
X0048195Y0001500D02*
X0047327D01*
X0048180Y0001680D02*
X0047327D01*
X0049890Y0002760D02*
X0049046D01*
X0047660Y0002220D02*
X0047327D01*
X0047840Y0002067D02*
Y0000910D01*
X0048808D02*
X0047061D01*
X0042865Y0004580D02*
Y0004443D01*
X0042810Y0004380D02*
X0040821D01*
X0041720Y0004573D02*
Y0004075D01*
X0042721Y0003830D02*
X0042524D01*
X0042980Y0002980D02*
Y0002826D01*
X0036320Y0004831D02*
Y0004795D01*
X0042800Y0004572D02*
Y0004366D01*
X0043700Y0002980D02*
Y0002817D01*
X0035960Y0005375D02*
Y0003570D01*
X0049890Y0004380D02*
X0048998D01*
X0035957Y0004200D02*
X0035027D01*
X0041900Y0004586D02*
Y0004075D01*
X0042576Y0006125D02*
X0042310Y0005859D01*
X0043700Y0005892D02*
Y0005849D01*
X0042800Y0006047D02*
Y0005861D01*
X0042620Y0004583D02*
Y0003830D01*
X0042980Y0005903D02*
Y0005858D01*
X0042690Y0004020D02*
X0042309D01*
X0041360Y0004588D02*
Y0004075D01*
X0048920Y0003245D02*
Y0003055D01*
X0044150Y0006390D02*
Y0005851D01*
X0042440Y0005989D02*
Y0005853D01*
X0041124Y0007260D02*
X0040550D01*
X0040826Y0007080D02*
X0040550D01*
X0045710Y0006780D02*
Y0006586D01*
Y0007260D02*
X0045350D01*
Y0007350D02*
Y0006750D01*
X0042800Y0007350D02*
Y0007052D01*
X0043160Y0007350D02*
Y0007270D01*
X0039090Y0006030D02*
Y0005175D01*
X0035240Y0005375D02*
Y0003570D01*
X0043443Y0007350D02*
X0039320D01*
X0042440Y0004580D02*
Y0003912D01*
X0042260Y0004572D02*
Y0004044D01*
X0043880Y0006026D02*
Y0005854D01*
X0043520Y0002980D02*
Y0002829D01*
X0045350Y0006750D02*
Y0006390D01*
X0041000Y0007350D02*
Y0007207D01*
X0040820Y0007350D02*
Y0007073D01*
X0032770Y0007800D02*
Y0000460D01*
X0050340D01*
Y0007800D01*
X0032780D01*
X0036000Y0046750D02*
X0032875Y0043625D01*
Y0035250D01*
X0035875Y0032250D01*
X0044375D01*
X0047375Y0035250D01*
Y0043750D01*
X0044375Y0046750D01*
X0036000D01*
Y0030750D02*
X0032875Y0027625D01*
Y0019250D01*
X0035875Y0016250D01*
X0044375D01*
X0047375Y0019250D01*
Y0027750D01*
X0044375Y0030750D01*
X0036000D01*
X0036163Y0013175D02*
X0035075D01*
X0041360Y0015150D02*
Y0015095D01*
X0047660Y0010019D02*
Y0008710D01*
X0045710Y0015150D02*
Y0014580D01*
X0040624Y0014520D02*
X0040550D01*
X0039350Y0013950D02*
Y0013110D01*
X0040550Y0015150D02*
X0039350D01*
Y0014310D02*
Y0013950D01*
X0045710Y0014880D02*
X0045350D01*
X0045710Y0014580D02*
Y0014386D01*
X0040692Y0014700D02*
X0040550D01*
X0048254Y0009775D02*
X0048180D01*
X0048210Y0009660D02*
X0047327D01*
X0047891Y0009840D02*
X0047327D01*
X0048740Y0008724D02*
Y0008710D01*
X0042800Y0012372D02*
Y0012166D01*
X0047327Y0008705D02*
X0047056D01*
X0040606Y0014313D02*
X0040573Y0014280D01*
X0047480Y0010636D02*
Y0008710D01*
X0045350Y0014190D02*
Y0014062D01*
X0035957Y0011460D02*
X0035009D01*
X0035957Y0012540D02*
X0035075D01*
X0035957Y0011370D02*
X0034958D01*
X0047514Y0010560D02*
X0047327D01*
X0049890Y0013080D02*
X0049055D01*
X0048636Y0008760D02*
X0047327D01*
X0049890Y0011280D02*
X0049033D01*
X0049630Y0010200D02*
X0049007D01*
X0049890Y0011100D02*
X0048957D01*
X0049630Y0013700D02*
X0049055D01*
X0049890Y0012000D02*
X0048883D01*
X0049890Y0012540D02*
X0049049D01*
X0049890Y0011460D02*
X0049055D01*
X0041540Y0012373D02*
Y0011875D01*
X0047327Y0009995D02*
Y0009605D01*
X0039200Y0013830D02*
Y0012975D01*
X0049055Y0013700D02*
Y0012775D01*
X0042260Y0012372D02*
Y0011844D01*
X0035075Y0013175D02*
Y0012075D01*
X0040550Y0015150D02*
Y0014310D01*
X0035957Y0012595D02*
Y0011595D01*
Y0012180D02*
X0035075D01*
X0041180Y0012376D02*
Y0011875D01*
X0035957Y0012360D02*
X0035075D01*
X0035420Y0013175D02*
Y0011370D01*
X0042100Y0011875D02*
X0041126D01*
X0039320Y0015150D02*
Y0013830D01*
X0039920Y0013110D02*
Y0013003D01*
X0039320Y0013830D02*
X0039090D01*
X0049890Y0010920D02*
X0048864D01*
X0043160Y0015150D02*
Y0015070D01*
X0042096Y0014647D02*
X0042051Y0014602D01*
X0043340Y0015150D02*
Y0015095D01*
X0040573Y0014280D02*
X0040550D01*
X0042440Y0013789D02*
Y0013653D01*
X0042620Y0015150D02*
Y0014775D01*
X0044060Y0014124D02*
Y0013661D01*
X0042620Y0013925D02*
Y0013650D01*
X0042800Y0015150D02*
Y0014852D01*
X0042080Y0015150D02*
Y0014631D01*
X0044481Y0010975D02*
X0044281D01*
X0042440Y0012380D02*
Y0011712D01*
X0043700Y0010780D02*
Y0010617D01*
X0043520Y0010780D02*
Y0010629D01*
X0041360Y0012388D02*
Y0011875D01*
X0043898Y0010780D02*
X0042653D01*
X0044473Y0010920D02*
X0044218D01*
X0042620Y0012383D02*
Y0011630D01*
X0049280Y0013700D02*
Y0010200D01*
X0042738Y0013925D02*
X0042576D01*
X0041540Y0015150D02*
Y0015070D01*
X0042738Y0014775D02*
X0042400D01*
X0048920Y0012045D02*
Y0011855D01*
X0047553Y0010200D02*
X0047327D01*
X0047508Y0010380D02*
X0047327D01*
X0048380Y0008940D02*
Y0008710D01*
X0041000Y0012448D02*
Y0012001D01*
X0049890Y0012360D02*
X0049049D01*
X0049055Y0012775D02*
X0048971D01*
X0048200Y0009278D02*
Y0008710D01*
X0049890Y0013746D02*
Y0010153D01*
X0048920Y0011045D02*
Y0010855D01*
X0049890Y0011820D02*
X0048944D01*
X0049890Y0013260D02*
X0049055D01*
X0049890Y0010740D02*
X0048989D01*
X0049890Y0010200D02*
X0049630D01*
X0049890Y0013620D02*
X0049055D01*
X0047327Y0010595D02*
Y0009995D01*
X0049890Y0012180D02*
X0048998D01*
X0049890Y0011640D02*
X0049028D01*
X0036249Y0012720D02*
X0035075D01*
X0042159Y0014700D02*
X0042007D01*
X0044240Y0010939D02*
Y0010623D01*
X0043340Y0010780D02*
Y0010627D01*
X0042865Y0012380D02*
Y0012243D01*
X0048200Y0009775D02*
Y0009622D01*
X0049100Y0013700D02*
Y0010200D01*
X0049460Y0013700D02*
Y0010200D01*
X0045584Y0014296D02*
X0045350Y0014062D01*
X0049640Y0013700D02*
Y0010200D01*
X0049820Y0013724D02*
Y0010175D01*
X0049890Y0013440D02*
X0049055D01*
X0047840Y0009867D02*
Y0008710D01*
X0044150Y0014290D02*
X0044092D01*
X0045710Y0014700D02*
X0045350D01*
X0045710Y0015150D02*
X0045350D01*
X0044150Y0013980D02*
X0043996D01*
X0044150Y0014160D02*
X0044070D01*
X0044150Y0013800D02*
X0043852D01*
X0044150Y0014290D02*
Y0014190D01*
Y0013651D01*
X0039350Y0014880D02*
X0039320D01*
X0049890Y0012900D02*
X0049055D01*
X0036140Y0013175D02*
Y0012595D01*
X0049890Y0012720D02*
X0048998D01*
X0045635Y0014340D02*
X0045350D01*
X0044281Y0010975D02*
X0044180Y0010886D01*
X0042440Y0015150D02*
Y0014775D01*
X0041180Y0015150D02*
Y0015075D01*
X0042865Y0012360D02*
X0040846D01*
X0042865Y0012380D02*
Y0012243D01*
X0045680Y0015150D02*
Y0014370D01*
X0042847Y0013800D02*
X0042451D01*
X0042826Y0014880D02*
X0041873D01*
X0035957Y0011820D02*
X0035071D01*
X0039350Y0015150D02*
Y0014310D01*
X0041000Y0015150D02*
Y0015007D01*
X0040820Y0015150D02*
Y0014873D01*
X0043124Y0015060D02*
X0041575D01*
X0035060Y0011608D02*
Y0011370D01*
X0040712Y0012289D02*
X0041126Y0011875D01*
X0040605Y0014340D02*
X0040550D01*
X0040640Y0015150D02*
Y0014575D01*
X0042980Y0015150D02*
Y0014996D01*
X0041900Y0015150D02*
Y0014852D01*
X0041720Y0015150D02*
Y0014996D01*
X0039959Y0013110D02*
X0039350D01*
X0036359Y0012595D02*
X0035957D01*
Y0011595D02*
Y0011370D01*
X0035075Y0012075D02*
X0034991D01*
X0042690Y0011820D02*
X0042309D01*
X0043880Y0010780D02*
Y0010623D01*
X0036169Y0012900D02*
X0035075D01*
X0035060Y0012075D02*
Y0011891D01*
X0042865Y0012380D02*
Y0012243D01*
X0039380Y0013110D02*
Y0012975D01*
X0042810Y0012180D02*
X0040821D01*
X0042865Y0012380D02*
Y0012243D01*
X0042080Y0012377D02*
Y0011875D01*
X0042721Y0011630D02*
X0042524D01*
X0039560Y0013110D02*
Y0012975D01*
X0042980Y0010780D02*
Y0010626D01*
X0042398Y0011753D02*
X0042524Y0011630D01*
X0044420Y0010975D02*
Y0010616D01*
X0044060Y0010811D02*
Y0010630D01*
X0042800Y0010780D02*
Y0010629D01*
X0036151Y0013080D02*
X0035075D01*
X0039350Y0013260D02*
X0039090D01*
X0039350Y0013440D02*
X0039090D01*
X0039350Y0013620D02*
X0039090D01*
X0039850Y0012975D02*
X0039090D01*
X0035957Y0011640D02*
X0035066D01*
X0039350Y0013800D02*
X0039090D01*
X0039350Y0013980D02*
X0039320D01*
X0039350Y0014160D02*
X0039320D01*
X0039350Y0015060D02*
X0039320D01*
X0039350Y0014340D02*
X0039320D01*
X0039350Y0014520D02*
X0039320D01*
X0039350Y0014700D02*
X0039320D01*
X0042576Y0013925D02*
X0042310Y0013659D01*
X0043700Y0013692D02*
Y0013649D01*
X0042800Y0013847D02*
Y0013661D01*
X0044482Y0010740D02*
X0042669D01*
X0042980Y0013703D02*
Y0013658D01*
X0039740Y0013110D02*
Y0012975D01*
X0040550Y0014310D02*
Y0014280D01*
X0042717Y0012000D02*
X0041001D01*
X0035957D02*
X0035027D01*
X0041720Y0012373D02*
Y0011875D01*
X0035600Y0013175D02*
Y0011370D01*
X0048560Y0008797D02*
Y0008710D01*
X0048020Y0009794D02*
Y0008710D01*
X0045710Y0014520D02*
X0045350D01*
X0049890Y0010380D02*
X0049051D01*
X0048380Y0008940D02*
X0047327D01*
X0048256Y0009120D02*
X0047327D01*
X0048195Y0009300D02*
X0047327D01*
Y0009605D02*
Y0008710D01*
X0048180Y0009480D02*
X0047327D01*
X0045350Y0015150D02*
Y0014550D01*
X0047660Y0010020D02*
X0047327D01*
X0048808Y0008710D02*
X0047061D01*
X0035780Y0013175D02*
Y0011370D01*
X0035960Y0013175D02*
Y0011370D01*
X0041124Y0015060D02*
X0040550D01*
X0040826Y0014880D02*
X0040550D01*
X0045448Y0014160D02*
X0045350D01*
X0045710Y0015060D02*
X0045350D01*
X0045500Y0015150D02*
Y0014212D01*
X0042260Y0015150D02*
Y0014751D01*
X0041900Y0012386D02*
Y0011875D01*
X0039090Y0013830D02*
Y0012975D01*
X0035240Y0013175D02*
Y0011370D01*
X0043443Y0015150D02*
X0039320D01*
X0042717Y0011640D02*
X0042513D01*
X0040820Y0012342D02*
Y0012181D01*
X0043880Y0013826D02*
Y0013654D01*
X0043160Y0010780D02*
Y0010611D01*
X0036320Y0012631D02*
Y0012595D01*
X0049890Y0010560D02*
X0049046D01*
X0045350Y0014550D02*
Y0014190D01*
X0039946Y0013080D02*
X0039090D01*
X0032770Y0015600D02*
Y0008260D01*
X0050340D01*
Y0015600D01*
X0032780D01*
G01X0043162Y0002810D02*
G03X0043034Y0002830I0000128J0000405D01*
G01X0039912Y0005170D02*
G03X0039850Y0005175I0000062J0000420D01*
G01X0049890Y0002353D02*
G03X0049630Y0002400I0000260J0000703D01*
G01X0048254Y0001975D02*
G03X0048180Y0001650I0000676J0000325D01*
G01X0042865Y0004443D02*
G03X0042690Y0004020I0000425J0000423D01*
G01X0047327Y0002795D02*
G03X0047540Y0002865I0000077J0000595D01*
G01X0048180Y0001650D02*
G03X0048808Y0000910I0000750J0000000D01*
G01X0049055Y0002650D02*
G03X0048833Y0003150I0000675J0000000D01*
G01X0047505Y0002650D02*
G03X0048180Y0001975I0000675J0000000D01*
G01X0049007Y0002400D02*
G03X0049055Y0002650I0000627J0000250D01*
Y0003650D02*
G03X0048833Y0004150I0000675J0000000D01*
Y0003150D02*
G03X0049055Y0003650I0000453J0000500D01*
Y0004650D02*
G03X0048971Y0004975I0000675J0000000D01*
G01X0048833Y0004150D02*
G03X0049055Y0004650I0000453J0000500D01*
G01X0042051Y0006802D02*
G03X0041350Y0007295I0000701J0000252D01*
G01X0039959Y0005310D02*
G03X0039912Y0005170I0000541J0000260D01*
G01X0036150Y0005250D02*
G03X0036359Y0004795I0000600J0000000D01*
G01X0043619Y0005855D02*
G03X0044092Y0006490I0000269J0000695D01*
G01X0041350Y0007295D02*
G03X0040605Y0006550I0000000J0000745D01*
G01X0043350Y0007295D02*
G03X0042738Y0006975I0000000J0000745D01*
G01X0041371Y0004591D02*
G03X0041499Y0004571I0000128J0000405D01*
G01X0042400Y0006975D02*
G03X0042099Y0006850I0000000J0000425D01*
G01X0042138Y0004591D02*
G03X0042267Y0004571I0000129J0000405D01*
G01X0042738Y0006125D02*
G03X0043068Y0005860I0000612J0000425D01*
G01X0041627Y0004591D02*
G03X0041755Y0004571I0000128J0000405D01*
G01X0042394Y0005842D02*
G03X0042310Y0005859I0000127J0000405D01*
G01X0042394Y0004591D02*
G03X0042523Y0004571I0000129J0000405D01*
G01X0042650Y0004591D02*
G03X0042779Y0004571I0000129J0000405D01*
G01X0042523Y0005862D02*
G03X0042395Y0005842I0000000J0000425D01*
G01X0042779Y0005862D02*
G03X0042651Y0005842I0000000J0000425D01*
G01X0043034Y0005862D02*
G03X0042906Y0005842I0000000J0000425D01*
G03X0042779Y0005861I0000127J0000405D01*
G01X0043930Y0005842D02*
G03X0043802Y0005862I0000128J0000405D01*
G03X0043674Y0005842I0000000J0000425D01*
G01X0043068Y0005860D02*
G03X0043034Y0005861I0000034J0000423D01*
G01X0044058Y0005862D02*
G03X0043930Y0005842I0000000J0000425D01*
G01X0044470Y0003060D02*
G03X0044517Y0002827I0000600J0000000D01*
G03X0044442Y0002810I0000053J0000422D01*
G01X0044314Y0002830D02*
G03X0044186Y0002810I0000000J0000425D01*
G01X0044058Y0002830D02*
G03X0043930Y0002810I0000000J0000425D01*
G01X0043034Y0002830D02*
G03X0042906Y0002810I0000000J0000425D01*
G01X0042690Y0004020D02*
G03X0042721Y0003830I0000600J0000000D01*
G01X0043802Y0002830D02*
G03X0043674Y0002810I0000000J0000425D01*
G01X0044186D02*
G03X0044058Y0002830I0000128J0000405D01*
G01X0043546D02*
G03X0043418Y0002810I0000000J0000425D01*
G01X0042691Y0002821D02*
G03X0042653Y0002980I0000424J0000018D01*
G01X0043418Y0002810D02*
G03X0043290Y0002830I0000128J0000405D01*
G03X0043162Y0002810I0000000J0000425D01*
G01X0042779Y0004572D02*
G03X0042865Y0004580I0000000J0000424D01*
G01X0045710Y0006586D02*
G03X0045584Y0006496I0000210J0000426D01*
G01X0044442Y0002810D02*
G03X0044314Y0002830I0000128J0000405D01*
G01X0043930Y0002810D02*
G03X0043802Y0002830I0000128J0000405D01*
G01X0043674Y0002810D02*
G03X0043546Y0002830I0000128J0000405D01*
G01X0043674Y0005842D02*
G03X0043619Y0005855I0000128J0000405D01*
G01X0043387Y0007294D02*
G03X0043350Y0007295I0000037J0000744D01*
G01X0036163Y0005375D02*
G03X0036150Y0005250I0000587J0000125D01*
G01X0035075Y0003950D02*
G03X0034991Y0004275I0000675J0000000D01*
G01X0040605Y0006550D02*
G03X0040606Y0006513I0000745J0000000D01*
G01X0040967Y0004673D02*
G03X0041243Y0004571I0000276J0000323D01*
G01X0042650Y0005842D02*
G03X0042523Y0005861I0000127J0000405D01*
G01X0045710Y0006586D02*
G03X0045584Y0006496I0000210J0000426D01*
G01X0045710Y0006586D02*
G03X0045584Y0006496I0000210J0000426D01*
G01X0045710Y0006586D02*
G03X0045584Y0006496I0000210J0000426D01*
G01X0042906Y0002810D02*
G03X0042779Y0002829I0000127J0000405D01*
G01X0042690Y0004020D02*
G03X0042721Y0003830I0000600J0000000D01*
G01X0042398Y0003953D02*
G03X0042100Y0004075I0000298J0000303D01*
G01X0043898Y0002980D02*
G03X0044178Y0003084I0000000J0000425D01*
G01X0042779Y0002830D02*
G03X0042691Y0002821I0000000J0000425D01*
G01X0034958Y0003570D02*
G03X0035075Y0003950I0000558J0000380D01*
G01X0047540Y0002865D02*
G03X0047505Y0002650I0000640J0000215D01*
G01X0041755Y0004572D02*
G03X0041883Y0004591I0000000J0000424D01*
G01X0042400Y0006975D02*
G03X0042099Y0006850I0000000J0000425D01*
G01X0040712Y0004489D02*
G03X0040967Y0004673I0000212J0000561D01*
G01X0042011Y0004572D02*
G03X0042139Y0004591I0000000J0000424D01*
G01X0042267Y0004572D02*
G03X0042395Y0004591I0000000J0000424D01*
G01X0042691Y0002821D02*
G03X0042653Y0002980I0000424J0000018D01*
G01X0049630Y0005900D02*
G03X0049890Y0005946I0000000J0000750D01*
G01X0042523Y0004572D02*
G03X0042651Y0004591I0000000J0000424D01*
G01X0044481Y0003175D02*
G03X0044470Y0003060I0000589J0000115D01*
G01X0044150Y0005851D02*
G03X0044058Y0005861I0000092J0000414D01*
G01X0042865Y0004443D02*
G03X0042690Y0004020I0000425J0000423D01*
G01X0041882Y0004591D02*
G03X0042011Y0004571I0000129J0000405D01*
G01X0041243Y0004572D02*
G03X0041371Y0004591I0000000J0000424D01*
G01X0041499Y0004572D02*
G03X0041627Y0004591I0000000J0000424D01*
G01X0043162Y0010610D02*
G03X0043034Y0010630I0000128J0000405D01*
G01X0039912Y0012970D02*
G03X0039850Y0012975I0000062J0000420D01*
G01X0049890Y0010153D02*
G03X0049630Y0010200I0000260J0000703D01*
G01X0043387Y0015094D02*
G03X0043350Y0015095I0000037J0000744D01*
G01X0039959Y0013110D02*
G03X0039912Y0012970I0000541J0000260D01*
G01X0042691Y0010621D02*
G03X0042653Y0010780I0000424J0000018D01*
G01X0047327Y0010595D02*
G03X0047540Y0010665I0000077J0000595D01*
G01X0048180Y0009450D02*
G03X0048808Y0008710I0000750J0000000D01*
G01X0049055Y0010450D02*
G03X0048833Y0010950I0000675J0000000D01*
G01X0047505Y0010450D02*
G03X0048180Y0009775I0000675J0000000D01*
G01X0049007Y0010200D02*
G03X0049055Y0010450I0000627J0000250D01*
Y0011450D02*
G03X0048833Y0011950I0000675J0000000D01*
Y0010950D02*
G03X0049055Y0011450I0000453J0000500D01*
Y0012450D02*
G03X0048971Y0012775I0000675J0000000D01*
G01X0048833Y0011950D02*
G03X0049055Y0012450I0000453J0000500D01*
G01X0036150Y0013050D02*
G03X0036359Y0012595I0000600J0000000D01*
G01X0043619Y0013655D02*
G03X0044092Y0014290I0000269J0000695D01*
G01X0041350Y0015095D02*
G03X0040605Y0014350I0000000J0000745D01*
G01X0042400Y0014775D02*
G03X0042099Y0014650I0000000J0000425D01*
G01X0040967Y0012473D02*
G03X0041243Y0012371I0000276J0000323D01*
G01X0042738Y0013925D02*
G03X0043068Y0013660I0000612J0000425D01*
G01X0042138Y0012391D02*
G03X0042267Y0012371I0000129J0000405D01*
G01X0041627Y0012391D02*
G03X0041755Y0012371I0000128J0000405D01*
G01X0042051Y0014602D02*
G03X0041350Y0015095I0000701J0000252D01*
G01X0042650Y0012391D02*
G03X0042779Y0012371I0000129J0000405D01*
G01X0042523Y0013662D02*
G03X0042395Y0013642I0000000J0000425D01*
G01X0042394Y0012391D02*
G03X0042523Y0012371I0000129J0000405D01*
G01X0042779Y0013662D02*
G03X0042651Y0013642I0000000J0000425D01*
G01X0043034Y0013662D02*
G03X0042906Y0013642I0000000J0000425D01*
G03X0042779Y0013661I0000127J0000405D01*
G01X0043068Y0013660D02*
G03X0043034Y0013661I0000034J0000423D01*
G01X0043930Y0013642D02*
G03X0043802Y0013662I0000128J0000405D01*
G03X0043674Y0013642I0000000J0000425D01*
G01X0044058Y0013662D02*
G03X0043930Y0013642I0000000J0000425D01*
G01X0044470Y0010860D02*
G03X0044517Y0010627I0000600J0000000D01*
G03X0044442Y0010610I0000053J0000422D01*
G01X0043290Y0010630D02*
G03X0043162Y0010610I0000000J0000425D01*
G01X0044314Y0010630D02*
G03X0044186Y0010610I0000000J0000425D01*
G01X0044058Y0010630D02*
G03X0043930Y0010610I0000000J0000425D01*
G01X0043546Y0010630D02*
G03X0043418Y0010610I0000000J0000425D01*
G01X0044186D02*
G03X0044058Y0010630I0000128J0000405D01*
G01X0043802D02*
G03X0043674Y0010610I0000000J0000425D01*
G01X0043418D02*
G03X0043290Y0010630I0000128J0000405D01*
G01X0043034D02*
G03X0042906Y0010610I0000000J0000425D01*
G01X0042011Y0012372D02*
G03X0042139Y0012391I0000000J0000424D01*
G01X0042779Y0012372D02*
G03X0042865Y0012380I0000000J0000424D01*
Y0012243D02*
G03X0042690Y0011820I0000425J0000423D01*
G01X0041755Y0012372D02*
G03X0041883Y0012391I0000000J0000424D01*
G01X0042400Y0014775D02*
G03X0042099Y0014650I0000000J0000425D01*
G01X0043350Y0015095D02*
G03X0042738Y0014775I0000000J0000745D01*
G01X0043674Y0010610D02*
G03X0043546Y0010630I0000128J0000405D01*
G01X0049630Y0013700D02*
G03X0049890Y0013746I0000000J0000750D01*
G01X0047327Y0010595D02*
G03X0047540Y0010665I0000077J0000595D01*
G01X0042650Y0013642D02*
G03X0042523Y0013661I0000127J0000405D01*
G01X0045710Y0014386D02*
G03X0045584Y0014296I0000210J0000426D01*
G01X0045710Y0014386D02*
G03X0045584Y0014296I0000210J0000426D01*
G01X0048254Y0009775D02*
G03X0048180Y0009450I0000676J0000325D01*
G01X0042691Y0010621D02*
G03X0042653Y0010780I0000424J0000018D01*
G01X0044442Y0010610D02*
G03X0044314Y0010630I0000128J0000405D01*
G01X0043930Y0010610D02*
G03X0043802Y0010630I0000128J0000405D01*
G01X0036163Y0013175D02*
G03X0036150Y0013050I0000587J0000125D01*
G01X0043674Y0013642D02*
G03X0043619Y0013655I0000128J0000405D01*
G01X0042690Y0011820D02*
G03X0042721Y0011630I0000600J0000000D01*
G01X0040712Y0012289D02*
G03X0040967Y0012473I0000212J0000561D01*
G01X0040605Y0014350D02*
G03X0040606Y0014313I0000745J0000000D01*
G01X0041499Y0012372D02*
G03X0041627Y0012391I0000000J0000424D01*
G01X0035075Y0011750D02*
G03X0034991Y0012075I0000675J0000000D01*
G01X0042267Y0012372D02*
G03X0042395Y0012391I0000000J0000424D01*
G01X0042865Y0012243D02*
G03X0042690Y0011820I0000425J0000423D01*
G03X0042721Y0011630I0000600J0000000D01*
G01X0042398Y0011753D02*
G03X0042100Y0011875I0000298J0000303D01*
G01X0042779Y0010630D02*
G03X0042691Y0010621I0000000J0000425D01*
G01X0043898Y0010780D02*
G03X0044178Y0010884I0000000J0000425D01*
G01X0034958Y0011370D02*
G03X0035075Y0011750I0000558J0000380D01*
G01X0042523Y0012372D02*
G03X0042651Y0012391I0000000J0000424D01*
G01X0047540Y0010665D02*
G03X0047505Y0010450I0000640J0000215D01*
G01X0044481Y0010975D02*
G03X0044470Y0010860I0000589J0000115D01*
G01X0042906Y0010610D02*
G03X0042779Y0010629I0000127J0000405D01*
G01X0042394Y0013642D02*
G03X0042310Y0013659I0000127J0000405D01*
G01X0044150Y0013651D02*
G03X0044058Y0013661I0000092J0000414D01*
G01X0041882Y0012391D02*
G03X0042011Y0012371I0000129J0000405D01*
G01X0041243Y0012372D02*
G03X0041371Y0012391I0000000J0000424D01*
G03X0041499Y0012371I0000128J0000405D01*
G54D58*
G01X0042770Y0005210D02*
Y0004540D01*
X0042030D01*
X0042011Y0004555D01*
Y0005217D01*
X0042770Y0013010D02*
Y0012340D01*
X0042030D01*
X0042011Y0012355D01*
Y0013017D01*
X0043034D02*
X0042779D01*
X0042523D01*
X0042011D02*
X0041755D01*
X0043034Y0005217D02*
X0042779D01*
X0042523D01*
X0042011D02*
X0041755D01*
X0042779Y0002185D02*
Y0001261D01*
X0042790Y0001250D01*
X0043802Y0005217D02*
Y0005782D01*
X0044170Y0006150D01*
X0044750D01*
X0042779Y0009985D02*
Y0009061D01*
X0042790Y0009050D01*
X0043802Y0013017D02*
Y0013582D01*
X0044170Y0013950D01*
X0044750D01*
X0043802Y0013017D02*
Y0013582D01*
Y0013600D01*
X0043200D01*
X0043034Y0013434D01*
Y0013017D01*
X0043802Y0005217D02*
Y0005782D01*
Y0005800D01*
X0043200D01*
X0043034Y0005634D01*
Y0005217D01*
X0042779Y0009985D02*
Y0010529D01*
X0043100Y0010850D01*
X0045070D01*
X0042779Y0002185D02*
Y0002729D01*
X0043100Y0003050D01*
X0045070D01*
X0041755Y0005217D02*
Y0004585D01*
Y0004560D01*
X0041745Y0004550D01*
X0041720D01*
X0041000D01*
X0040950D01*
X0040470Y0005030D01*
Y0005200D01*
X0041755Y0013017D02*
Y0012385D01*
Y0012360D01*
X0041745Y0012350D01*
X0041720D01*
X0041000D01*
X0040950D01*
X0040470Y0012830D01*
Y0013000D01*
X0041755Y0013017D02*
Y0012385D01*
Y0012360D01*
X0041745Y0012350D01*
X0041720D01*
X0041000D01*
X0040500Y0012850D01*
X0041755Y0005217D02*
Y0004585D01*
Y0004560D01*
X0041745Y0004550D01*
X0041720D01*
X0041000D01*
X0040500Y0005050D01*
X0033875Y0023750D02*
X0034375Y0024250D01*
X0035375D01*
X0035658Y0023967D01*
X0037007D01*
Y0040282D02*
X0035875D01*
X0035407Y0040750D01*
X0034875D01*
X0037007Y0024597D02*
X0036028D01*
X0035375Y0025250D01*
X0034375D01*
X0033875Y0024750D01*
X0037007Y0040911D02*
X0036214D01*
X0035375Y0041750D01*
X0034875D01*
X0037007Y0025226D02*
X0036399D01*
X0035375Y0026250D01*
X0034375D01*
X0033875Y0025750D01*
X0037007Y0041541D02*
X0036584D01*
X0035375Y0042750D01*
X0034875D01*
X0033875Y0026750D02*
Y0027000D01*
X0034375Y0027500D01*
X0035625D01*
X0037007Y0026118D01*
Y0025855D01*
X0033875Y0037750D02*
X0034375Y0038250D01*
X0035375D01*
X0035834Y0038709D01*
X0037007D01*
Y0040597D02*
X0036028D01*
X0035375Y0041250D01*
X0034375D01*
X0033875Y0040750D01*
Y0038750D02*
X0034375Y0039250D01*
X0035375D01*
X0035463Y0039338D01*
X0037007D01*
X0034875Y0023750D02*
X0034972Y0023653D01*
X0037007D01*
X0043222Y0025226D02*
X0043851D01*
X0044875Y0026250D01*
X0045375D01*
X0033875Y0039750D02*
X0034375Y0040250D01*
X0035375D01*
X0035658Y0039967D01*
X0037007D01*
Y0024282D02*
X0035875D01*
X0035407Y0024750D01*
X0034875D01*
X0037007Y0024911D02*
X0036214D01*
X0035375Y0025750D01*
X0034875D01*
X0043222Y0041541D02*
X0043666D01*
X0044875Y0042750D01*
X0045875D01*
X0046375Y0043250D01*
X0043222Y0025855D02*
Y0026097D01*
X0044375Y0027250D01*
X0045375D01*
X0034875Y0019750D02*
X0035875D01*
X0037007Y0020882D01*
Y0021135D01*
X0034875Y0022750D02*
X0035375D01*
X0035648Y0023023D01*
X0037007D01*
X0033875Y0035750D02*
X0034375Y0036250D01*
X0035375D01*
X0036575Y0037450D01*
X0037007D01*
X0034875Y0020750D02*
X0035375D01*
X0036390Y0021765D01*
X0037007D01*
X0033875Y0036750D02*
X0034375Y0037250D01*
X0035375D01*
X0036204Y0038079D01*
X0037007D01*
X0042160Y0026603D02*
Y0027035D01*
X0043375Y0028250D01*
Y0028750D01*
Y0045750D02*
X0043875D01*
X0044125Y0045500D01*
Y0044000D01*
X0042728Y0042603D01*
X0042474D01*
X0043222Y0037135D02*
Y0036903D01*
X0044625Y0035500D01*
X0045875D01*
X0046375Y0036000D01*
Y0036250D01*
X0045375Y0020250D02*
X0044875D01*
X0043675Y0021450D01*
X0043222D01*
Y0039023D02*
X0044625D01*
X0044898Y0038750D01*
X0045875D01*
X0046375Y0039250D01*
X0043222Y0024597D02*
X0044222D01*
X0044875Y0025250D01*
X0045375D01*
Y0022250D02*
X0044875D01*
X0044416Y0022709D01*
X0043222D01*
Y0040282D02*
X0044407D01*
X0044875Y0040750D01*
X0045875D01*
X0046375Y0041250D01*
Y0037250D02*
X0045875Y0036750D01*
X0044875D01*
X0043860Y0037765D01*
X0043222D01*
X0045375Y0021250D02*
X0044875D01*
X0044046Y0022079D01*
X0043222D01*
X0046375Y0038250D02*
X0045875Y0037750D01*
X0044875D01*
X0044231Y0038394D01*
X0043222D01*
Y0040911D02*
X0044036D01*
X0044875Y0041750D01*
X0045875D01*
X0046375Y0042250D01*
X0043222Y0039653D02*
X0044778D01*
X0044875Y0039750D01*
X0045875D01*
X0046375Y0040250D01*
X0043222Y0023967D02*
X0044592D01*
X0044875Y0024250D01*
X0045375D01*
X0041845Y0042603D02*
Y0043220D01*
X0042875Y0044250D01*
Y0045250D01*
X0042375Y0045750D01*
X0043222Y0023338D02*
X0045287D01*
X0045375Y0023250D01*
X0040375Y0028750D02*
X0040272Y0028650D01*
Y0026603D01*
X0040586Y0042603D02*
Y0044000D01*
X0040875Y0044289D01*
Y0045250D01*
X0040375Y0045750D01*
X0040901Y0026603D02*
Y0027750D01*
X0041375Y0028224D01*
Y0028750D01*
X0041216Y0042603D02*
Y0043591D01*
X0041875Y0044250D01*
Y0045250D01*
X0041375Y0045750D01*
X0041530Y0026603D02*
Y0027405D01*
X0042375Y0028250D01*
Y0028750D01*
X0043875Y0033250D02*
X0043375Y0033750D01*
Y0034750D01*
X0042165Y0035960D01*
Y0036390D01*
X0043875Y0018250D02*
Y0019250D01*
X0042735Y0020390D01*
X0042480D01*
X0037754Y0026603D02*
X0037522D01*
X0036375Y0027750D01*
Y0028750D01*
X0038069Y0042603D02*
Y0043056D01*
X0036875Y0044250D01*
Y0045250D01*
X0036375Y0045750D01*
X0038384Y0026603D02*
Y0027241D01*
X0037375Y0028250D01*
Y0028750D01*
X0038698Y0042603D02*
Y0043427D01*
X0037875Y0044250D01*
Y0045250D01*
X0037375Y0045750D01*
X0039013Y0026603D02*
Y0027612D01*
X0038375Y0028250D01*
Y0028750D01*
X0039328Y0042603D02*
Y0043750D01*
X0038875Y0044203D01*
Y0045250D01*
X0038375Y0045750D01*
X0039642Y0026603D02*
Y0027983D01*
X0039375Y0028250D01*
Y0028750D01*
X0039957Y0042603D02*
Y0044168D01*
X0039875Y0044250D01*
Y0045250D01*
X0039375Y0045750D01*
X0042875Y0018250D02*
Y0018750D01*
X0041850Y0019775D01*
Y0020390D01*
X0042875Y0033250D02*
X0042375Y0033750D01*
Y0034750D01*
X0041535Y0035590D01*
Y0036390D01*
X0041875Y0018250D02*
Y0018750D01*
X0041220Y0019405D01*
Y0020390D01*
X0041875Y0033250D02*
X0041375Y0033750D01*
Y0034750D01*
X0040905Y0035220D01*
Y0036390D01*
X0040875Y0018250D02*
Y0018750D01*
X0040590Y0019035D01*
Y0020390D01*
X0040875Y0033250D02*
X0040375Y0033750D01*
Y0034750D01*
X0040275Y0034850D01*
Y0036390D01*
X0039960Y0020390D02*
Y0018330D01*
X0039875Y0018250D01*
Y0033250D02*
X0039375Y0033750D01*
Y0034750D01*
X0039645Y0035020D01*
Y0036390D01*
X0038875Y0018250D02*
Y0018750D01*
X0039330Y0019205D01*
Y0020390D01*
X0038875Y0033250D02*
X0038375Y0033750D01*
Y0034750D01*
X0039015Y0035390D01*
Y0036390D01*
X0037875Y0018250D02*
Y0018750D01*
X0038700Y0019575D01*
Y0020390D01*
X0037875Y0033250D02*
X0037375Y0033750D01*
Y0034750D01*
X0038385Y0035760D01*
Y0036390D01*
X0036875Y0018250D02*
Y0018750D01*
X0038070Y0019945D01*
Y0020390D01*
X0033875Y0042750D02*
Y0043000D01*
X0034375Y0043500D01*
X0035625D01*
X0037007Y0042118D01*
Y0041855D01*
Y0025541D02*
X0036584D01*
X0035375Y0026750D01*
X0034875D01*
X0037007Y0041226D02*
X0036399D01*
X0035375Y0042250D01*
X0034375D01*
X0033875Y0041750D01*
X0041760Y0012980D02*
Y0012390D01*
X0041720Y0012350D01*
X0041745D01*
X0041755Y0012360D01*
Y0012385D01*
Y0013017D01*
X0034875Y0039750D02*
X0034972Y0039653D01*
X0037007D01*
X0033875Y0022750D02*
X0034375Y0023250D01*
X0035375D01*
X0035463Y0023338D01*
X0037007D01*
X0034875Y0038750D02*
X0035375D01*
X0035648Y0039023D01*
X0037007D01*
X0033875Y0021750D02*
X0034375Y0022250D01*
X0035375D01*
X0035834Y0022709D01*
X0037007D01*
X0034875Y0037750D02*
X0035375D01*
X0036019Y0038394D01*
X0037007D01*
X0033875Y0020750D02*
X0034375Y0021250D01*
X0035375D01*
X0036204Y0022079D01*
X0037007D01*
X0034875Y0036750D02*
X0035375D01*
X0036390Y0037765D01*
X0037007D01*
X0033875Y0019750D02*
X0034375Y0020250D01*
X0035375D01*
X0036575Y0021450D01*
X0037007D01*
X0034875Y0035750D02*
X0035875D01*
X0037007Y0036882D01*
Y0037135D01*
X0043222Y0041855D02*
Y0042097D01*
X0044375Y0043250D01*
X0045375D01*
X0043222Y0025541D02*
X0043666D01*
X0044875Y0026750D01*
X0045875D01*
X0046375Y0027250D01*
X0043222Y0041226D02*
X0043851D01*
X0044875Y0042250D01*
X0045375D01*
X0043222Y0024911D02*
X0044036D01*
X0044875Y0025750D01*
X0045875D01*
X0046375Y0026250D01*
X0043222Y0040597D02*
X0044222D01*
X0044875Y0041250D01*
X0045375D01*
X0043222Y0024282D02*
X0044407D01*
X0044875Y0024750D01*
X0045875D01*
X0046375Y0025250D01*
X0043222Y0039967D02*
X0044592D01*
X0044875Y0040250D01*
X0045375D01*
X0043222Y0023653D02*
X0044778D01*
X0044875Y0023750D01*
X0045875D01*
X0046375Y0024250D01*
X0043222Y0039338D02*
X0045287D01*
X0045375Y0039250D01*
X0043222Y0023023D02*
X0044625D01*
X0044898Y0022750D01*
X0045875D01*
X0046375Y0023250D01*
X0045375Y0038250D02*
X0044875D01*
X0044416Y0038709D01*
X0043222D01*
X0046375Y0022250D02*
X0045875Y0021750D01*
X0044875D01*
X0044231Y0022394D01*
X0043222D01*
X0045375Y0037250D02*
X0044875D01*
X0044046Y0038079D01*
X0043222D01*
X0046375Y0021250D02*
X0045875Y0020750D01*
X0044875D01*
X0043860Y0021765D01*
X0043222D01*
X0045375Y0036250D02*
X0044875D01*
X0043675Y0037450D01*
X0043222D01*
Y0021135D02*
Y0020903D01*
X0044625Y0019500D01*
X0045875D01*
X0046375Y0020000D01*
Y0020250D01*
X0043375Y0029750D02*
X0043875D01*
X0044125Y0029500D01*
Y0028000D01*
X0042728Y0026603D01*
X0042474D01*
X0042160Y0042603D02*
Y0043035D01*
X0043375Y0044250D01*
Y0044750D01*
X0041845Y0026603D02*
Y0027220D01*
X0042875Y0028250D01*
Y0029250D01*
X0042375Y0029750D01*
X0041530Y0042603D02*
Y0043405D01*
X0042375Y0044250D01*
Y0044750D01*
X0041216Y0026603D02*
Y0027591D01*
X0041875Y0028250D01*
Y0029250D01*
X0041375Y0029750D01*
X0040901Y0042603D02*
Y0043750D01*
X0041375Y0044224D01*
Y0044750D01*
X0040586Y0026603D02*
Y0028000D01*
X0040875Y0028289D01*
Y0029250D01*
X0040375Y0029750D01*
Y0044750D02*
X0040272Y0044650D01*
Y0042603D01*
X0039957Y0026603D02*
Y0028168D01*
X0039875Y0028250D01*
Y0029250D01*
X0039375Y0029750D01*
X0039642Y0042603D02*
Y0043983D01*
X0039375Y0044250D01*
Y0044750D01*
X0039328Y0026603D02*
Y0027750D01*
X0038875Y0028203D01*
Y0029250D01*
X0038375Y0029750D01*
X0039013Y0042603D02*
Y0043612D01*
X0038375Y0044250D01*
Y0044750D01*
X0038698Y0026603D02*
Y0027427D01*
X0037875Y0028250D01*
Y0029250D01*
X0037375Y0029750D01*
X0039990Y0001770D02*
Y0003030D01*
X0040200Y0003240D01*
X0041830D01*
X0042267Y0002803D01*
Y0002185D01*
X0034875Y0021750D02*
X0035375D01*
X0036019Y0022394D01*
X0037007D01*
X0038384Y0042603D02*
Y0043241D01*
X0037375Y0044250D01*
Y0044750D01*
X0041875Y0017250D02*
X0041375Y0017750D01*
Y0018750D01*
X0040905Y0019220D01*
Y0020390D01*
X0040875Y0034250D02*
Y0034750D01*
X0040590Y0035035D01*
Y0036390D01*
X0043290Y0013017D02*
Y0013016D01*
Y0011820D01*
X0041243Y0002185D02*
Y0002500D01*
X0041193Y0002550D01*
X0040700D01*
X0040670Y0002580D01*
X0040580D01*
X0041243Y0009985D02*
Y0010300D01*
X0041193Y0010350D01*
X0040700D01*
X0040670Y0010380D01*
X0040580D01*
X0045880Y0005150D02*
X0045330Y0004600D01*
X0044850D01*
X0044570Y0004880D01*
Y0005217D01*
X0043290D02*
Y0005216D01*
Y0004020D01*
X0045880Y0003350D02*
X0045630Y0003600D01*
X0044050D01*
Y0005208D01*
X0044058Y0005217D01*
X0048280Y0005650D02*
X0048080D01*
X0046330Y0006200D02*
X0046310Y0006180D01*
X0045880Y0004250D02*
X0045780Y0004150D01*
X0044710D01*
X0044314Y0004546D01*
Y0005217D01*
X0041499D02*
Y0005649D01*
X0042400Y0006550D01*
X0043350D01*
X0038069Y0026603D02*
Y0027056D01*
X0036875Y0028250D01*
Y0029250D01*
X0036375Y0029750D01*
X0037754Y0042603D02*
X0037522D01*
X0036375Y0043750D01*
Y0044750D01*
X0041243Y0005217D02*
Y0006443D01*
X0045880Y0011150D02*
X0045630Y0011400D01*
X0044050D01*
Y0013008D01*
X0044058Y0013017D01*
X0043875Y0034250D02*
Y0035250D01*
X0042735Y0036390D01*
X0042480D01*
X0043875Y0017250D02*
X0043375Y0017750D01*
Y0018750D01*
X0042165Y0019960D01*
Y0020390D01*
X0042875Y0034250D02*
Y0034750D01*
X0041850Y0035775D01*
Y0036390D01*
X0041950Y0009050D02*
X0041810Y0008910D01*
X0042875Y0017250D02*
X0042375Y0017750D01*
Y0018750D01*
X0041535Y0019590D01*
Y0020390D01*
X0048280Y0013450D02*
X0048080D01*
X0046330Y0014000D02*
X0046310Y0013980D01*
X0041875Y0034250D02*
Y0034750D01*
X0041220Y0035405D01*
Y0036390D01*
X0046780Y0009350D02*
Y0009030D01*
X0046490Y0008740D01*
X0044110D01*
X0043960Y0008890D01*
Y0008910D01*
X0043290Y0011820D02*
Y0013016D01*
Y0013017D01*
X0046780Y0001550D02*
Y0001230D01*
X0046490Y0000940D01*
X0044110D01*
X0043960Y0001090D01*
Y0001110D01*
X0043290Y0004020D02*
Y0005216D01*
Y0005217D01*
X0039660Y0011800D02*
X0039810D01*
X0043290Y0011820D02*
Y0013016D01*
Y0013017D01*
X0039660Y0004000D02*
X0039810D01*
X0043290Y0004020D02*
Y0005216D01*
Y0005217D01*
X0037650Y0013250D02*
Y0012870D01*
X0037970Y0012550D01*
X0039850D01*
X0040950Y0011450D01*
X0042100D01*
X0042350Y0011205D01*
X0043898D01*
X0044058Y0011344D01*
Y0011400D01*
Y0013017D01*
X0016226Y0039361D02*
X0018377D01*
X0040875Y0017250D02*
X0040375Y0017750D01*
Y0018750D01*
X0040275Y0018850D01*
Y0020390D01*
X0039960Y0036390D02*
Y0034330D01*
X0039875Y0034250D01*
Y0017250D02*
X0039375Y0017750D01*
Y0018750D01*
X0039645Y0019020D01*
Y0020390D01*
X0038875Y0034250D02*
Y0034750D01*
X0039330Y0035205D01*
Y0036390D01*
X0042011Y0009985D02*
Y0009110D01*
X0041950Y0009050D01*
Y0001250D02*
X0041810Y0001110D01*
X0042011Y0002185D02*
Y0001310D01*
X0041950Y0001250D01*
X0037650Y0005450D02*
Y0005070D01*
X0037970Y0004750D01*
X0039850D01*
X0040950Y0003650D01*
X0042100D01*
X0042350Y0003405D01*
X0043898D01*
X0044058Y0003544D01*
Y0003600D01*
Y0005217D01*
X0037540Y0013650D02*
Y0013360D01*
X0037550Y0013350D01*
X0045880Y0012950D02*
X0045330Y0012400D01*
X0044850D01*
X0044570Y0012680D01*
Y0013017D01*
X0038875Y0017250D02*
X0038375Y0017750D01*
Y0018750D01*
X0039015Y0019390D01*
Y0020390D01*
X0045880Y0012050D02*
X0045780Y0011950D01*
X0044710D01*
X0044314Y0012346D01*
Y0013017D01*
X0041243D02*
Y0014243D01*
Y0013017D01*
X0037540Y0005850D02*
Y0005560D01*
X0037550Y0005550D01*
X0039990Y0009570D02*
Y0010830D01*
X0040200Y0011040D01*
X0041830D01*
X0042267Y0010603D01*
Y0009985D01*
X0037875Y0034250D02*
Y0034750D01*
X0038700Y0035575D01*
Y0036390D01*
X0037875Y0017250D02*
X0037375Y0017750D01*
Y0018750D01*
X0038385Y0019760D01*
Y0020390D01*
X0041243Y0006443D02*
Y0005217D01*
X0036875Y0034250D02*
Y0034750D01*
X0038070Y0035945D01*
Y0036390D01*
X0037755Y0020390D02*
X0037515D01*
X0036125Y0019000D01*
Y0017500D01*
X0036375Y0017250D01*
X0036875D01*
X0037755Y0036390D02*
X0037515D01*
X0036125Y0035000D01*
Y0033500D01*
X0036375Y0033250D01*
X0036875D01*
X0043290Y0005217D02*
Y0005216D01*
Y0004020D01*
X0045150Y0005250D02*
Y0005220D01*
X0045110Y0005180D01*
X0045060D01*
Y0005300D01*
X0046330Y0006160D02*
X0046310Y0006180D01*
X0043290Y0013017D02*
Y0013016D01*
Y0011820D01*
X0045150Y0013050D02*
Y0013020D01*
X0045110Y0012980D01*
X0045060D01*
Y0013100D01*
X0046330Y0013960D02*
X0046310Y0013980D01*
X0046780Y0009350D02*
Y0009030D01*
X0046490Y0008740D01*
X0044110D01*
X0043960Y0008890D01*
Y0008910D01*
X0045150Y0005250D02*
Y0005220D01*
X0045110Y0005180D01*
X0045060D01*
Y0005300D01*
X0046330Y0006160D02*
X0046310Y0006180D01*
X0044570Y0002185D02*
X0044620Y0002240D01*
X0045679D01*
X0045894Y0002450D01*
X0045914D01*
X0044570Y0009985D02*
X0044620Y0010040D01*
X0045679D01*
X0045894Y0010250D01*
X0045914D01*
X0041499Y0013017D02*
Y0013449D01*
X0042400Y0014350D01*
X0043350D01*
X0045914Y0009350D02*
X0044450D01*
X0044314Y0009486D01*
Y0009985D01*
X0045914Y0001550D02*
X0044450D01*
X0044314Y0001686D01*
Y0002185D01*
X0041760Y0005180D02*
Y0004590D01*
X0041720Y0004550D01*
X0041745D01*
X0041755Y0004560D01*
Y0004585D01*
Y0005217D01*
X0047250Y0011190D02*
X0047260Y0011180D01*
Y0011150D01*
X0047250Y0003390D02*
X0047260Y0003380D01*
Y0003350D01*
X0046746Y0005150D02*
X0047220D01*
X0047400Y0004970D01*
Y0004250D01*
X0048000Y0003650D01*
X0048280D01*
X0041243Y0002185D02*
Y0002500D01*
X0041193Y0002550D01*
X0040700D01*
X0040670Y0002580D01*
X0040580D01*
Y0010380D02*
X0040670D01*
X0040700Y0010350D01*
X0041193D01*
X0041243Y0010300D01*
Y0009985D01*
X0046746Y0012950D02*
X0047220D01*
X0047400Y0012770D01*
Y0012050D01*
X0048000Y0011450D01*
X0048280D01*
X0047250Y0011190D02*
X0047260Y0011180D01*
Y0011150D01*
G54D59*
G01X0021159Y0046739D02*
X0011159D01*
X0019009Y0037394D02*
X0018009D01*
X0021809Y0034894D02*
X0020809D01*
X0009159Y0010794D02*
X0010159D01*
X0011159Y0009794D01*
X0028159Y0010794D02*
X0029459D01*
X0029659Y0010994D01*
Y0014794D01*
X0021809Y0034894D02*
X0022809Y0033894D01*
Y0033794D01*
X0023809Y0035894D02*
X0024559D01*
X0025159Y0036494D01*
X0028309D01*
X0017159Y0060794D02*
Y0055094D01*
X0016609Y0054544D01*
X0015259D01*
X0011159Y0050444D01*
Y0046739D01*
X0015159Y0044294D02*
Y0042874D01*
Y0042844D01*
X0018459D01*
X0018614Y0042689D01*
Y0041735D01*
X0015159Y0044294D02*
Y0042874D01*
X0015139Y0042844D01*
X0003959D01*
X0003614Y0042499D01*
Y0041735D01*
X0020759Y0019894D02*
X0020909Y0019744D01*
Y0014044D02*
X0019659Y0012794D01*
X0016159D01*
X0015159Y0013794D01*
X0011159Y0009794D02*
X0012759Y0008194D01*
X0017509D01*
X0019109Y0009794D01*
X0019159D01*
X0015800Y0002000D02*
Y0001450D01*
X0016250Y0001000D01*
X0027050D01*
X0029350Y0003300D01*
Y0005500D01*
X0029056Y0005794D01*
X0028159D01*
X0019159Y0009794D02*
Y0009544D01*
X0019809Y0008894D01*
X0021959D01*
X0022259Y0009194D01*
X0028059D01*
X0028159Y0009294D01*
X0018659Y0014794D02*
X0013959D01*
Y0012944D01*
X0014809Y0012094D01*
X0022359D01*
X0022659Y0011794D01*
Y0010794D01*
X0018659Y0006794D02*
X0019359Y0007494D01*
X0027859D01*
X0028159Y0007194D01*
Y0007294D01*
X0018659Y0014794D02*
X0018609Y0014844D01*
X0013959D01*
X0013859D01*
X0012226Y0013211D01*
Y0012861D01*
X0021809Y0035894D02*
X0022359D01*
X0022559Y0035694D01*
Y0034994D01*
X0023659Y0033894D01*
X0023809D01*
X0011409Y0037994D02*
X0012009D01*
X0014309Y0035694D01*
X0020759D01*
X0020959Y0035894D01*
X0020809D01*
X0020659Y0044294D02*
X0020709Y0044244D01*
X0021609D01*
X0021959Y0043894D01*
Y0036044D01*
X0021809Y0035894D01*
X0006336Y0039367D02*
X0007536D01*
X0008109Y0038794D01*
X0010509D01*
X0011309Y0037994D01*
X0011409D01*
X0034250Y0012750D02*
X0033680D01*
X0033340Y0012410D01*
Y0009210D01*
X0033640Y0008910D01*
X0039150D01*
Y0009950D01*
X0034250Y0004950D02*
X0033680D01*
X0033340Y0004610D01*
Y0001410D01*
X0033640Y0001110D01*
X0039150D01*
Y0002150D01*
X0011409Y0037994D02*
X0012009D01*
X0015559D01*
X0016493Y0038928D01*
X0017659D01*
X0021159Y0045794D02*
X0020659Y0045294D01*
Y0044294D01*
X0041810Y0008910D02*
X0039150D01*
Y0009950D01*
X0041810Y0001110D02*
X0039150D01*
Y0002150D01*
X0034250Y0014550D02*
Y0013950D01*
X0034550Y0013650D01*
X0037540D01*
X0034250Y0006750D02*
Y0006150D01*
X0034550Y0005850D01*
X0037540D01*
X0021809Y0035894D02*
X0020959D01*
X0020809D01*
X0023809Y0033894D02*
X0026259D01*
X0027859Y0035494D01*
X0028309D01*
X0045060Y0005300D02*
X0045920Y0006160D01*
X0046330D01*
X0045060Y0013100D02*
X0045920Y0013960D01*
X0046330D01*
X0045060Y0005300D02*
X0045920Y0006160D01*
X0046330D01*
X0012226Y0012861D02*
Y0013211D01*
Y0013294D01*
X0008159D01*
X0022659Y0010794D02*
X0025359D01*
X0027359Y0012794D01*
X0028159D01*
X0018659Y0014794D02*
X0013959D01*
Y0014844D01*
X0013859D01*
X0012226Y0013211D01*
Y0012861D01*
G54D60*
G01X0035000Y0017708D02*
X0035083D01*
Y0017792D01*
X0035000D01*
Y0017708D01*
Y0033708D02*
X0035083D01*
Y0033792D01*
X0035000D01*
Y0033708D01*
X0020909Y0019744D02*
Y0014044D01*
G54D10*
X0034875Y0042750D03*
X0033875Y0041750D03*
X0034875D03*
X0033875Y0040750D03*
X0034875D03*
X0033875Y0039750D03*
X0034875D03*
X0033875Y0038750D03*
X0034875D03*
X0033875Y0037750D03*
X0034875D03*
X0033875Y0036750D03*
X0034875D03*
X0033875Y0035750D03*
X0034875D03*
X0043375Y0044750D03*
X0042375Y0045750D03*
Y0044750D03*
X0041375Y0045750D03*
Y0044750D03*
X0040375Y0045750D03*
Y0044750D03*
X0039375Y0045750D03*
Y0044750D03*
X0038375Y0045750D03*
Y0044750D03*
X0037375Y0045750D03*
Y0044750D03*
X0036375Y0045750D03*
Y0044750D03*
X0045375Y0036250D03*
X0046375Y0037250D03*
X0045375D03*
X0046375Y0038250D03*
X0045375D03*
X0046375Y0039250D03*
X0045375D03*
X0046375Y0040250D03*
X0045375D03*
X0046375Y0041250D03*
X0045375D03*
X0046375Y0042250D03*
X0045375D03*
X0046375Y0043250D03*
X0045375D03*
X0036875Y0034250D03*
X0037875Y0033250D03*
Y0034250D03*
X0038875Y0033250D03*
Y0034250D03*
X0039875Y0033250D03*
Y0034250D03*
X0040875Y0033250D03*
Y0034250D03*
X0041875Y0033250D03*
Y0034250D03*
X0042875Y0033250D03*
Y0034250D03*
X0043875Y0033250D03*
Y0034250D03*
X0034875Y0026750D03*
X0033875Y0025750D03*
X0034875D03*
X0033875Y0024750D03*
X0034875D03*
X0033875Y0023750D03*
X0034875D03*
X0033875Y0022750D03*
X0034875D03*
X0033875Y0021750D03*
X0034875D03*
X0033875Y0020750D03*
X0034875D03*
X0033875Y0019750D03*
X0034875D03*
X0043375Y0028750D03*
X0042375Y0029750D03*
Y0028750D03*
X0041375Y0029750D03*
Y0028750D03*
X0040375Y0029750D03*
Y0028750D03*
X0039375Y0029750D03*
Y0028750D03*
X0038375Y0029750D03*
Y0028750D03*
X0037375Y0029750D03*
Y0028750D03*
X0036375Y0029750D03*
Y0028750D03*
X0045375Y0020250D03*
X0046375Y0021250D03*
X0045375D03*
X0046375Y0022250D03*
X0045375D03*
X0046375Y0023250D03*
X0045375D03*
X0046375Y0024250D03*
X0045375D03*
X0046375Y0025250D03*
X0045375D03*
X0046375Y0026250D03*
X0045375D03*
X0046375Y0027250D03*
X0045375D03*
X0036875Y0018250D03*
X0037875Y0017250D03*
Y0018250D03*
X0038875Y0017250D03*
Y0018250D03*
X0039875Y0017250D03*
Y0018250D03*
X0040875Y0017250D03*
Y0018250D03*
X0041875Y0017250D03*
Y0018250D03*
X0042875Y0017250D03*
Y0018250D03*
X0043875Y0017250D03*
Y0018250D03*
X0009159Y0010794D03*
X0018009Y0036394D03*
X0019009D03*
X0021159Y0046739D03*
X0011159D03*
X0006336Y0039367D03*
X0022809Y0033794D03*
X0021809Y0034894D03*
X0006381Y0030821D03*
X0006409Y0033449D03*
Y0035949D03*
G54D11*
X0033875Y0042750D03*
X0043375Y0045750D03*
X0046375Y0036250D03*
X0036875Y0033250D03*
X0033875Y0026750D03*
X0043375Y0029750D03*
X0046375Y0020250D03*
X0036875Y0017250D03*
X0008159Y0010794D03*
X0018009Y0037394D03*
X0019009D03*
X0021159Y0045794D03*
X0011159D03*
X0006336Y0038421D03*
X0022809Y0032794D03*
X0021809Y0035894D03*
X0006381Y0031767D03*
X0006409Y0034394D03*
Y0036894D03*
G54D12*
X0015159Y0044294D03*
G54D13*
X0017159D03*
G54D14*
X0025159Y0014794D03*
G54D15*
X0004522Y0017520D03*
X0016727D03*
Y0027362D03*
X0004916D03*
X0010822D03*
Y0017520D03*
X0002160Y0024607D03*
Y0020276D03*
X0029659Y0014794D03*
X0026659D03*
X0028159D03*
G54D16*
X0034250Y0011750D03*
Y0010750D03*
Y0009750D03*
Y0003950D03*
Y0002950D03*
Y0001950D03*
X0028159Y0011794D03*
Y0010794D03*
Y0008294D03*
Y0007294D03*
Y0004794D03*
Y0003794D03*
X0028309Y0038894D03*
Y0039894D03*
Y0032494D03*
Y0033494D03*
Y0034494D03*
Y0035494D03*
Y0036494D03*
G54D17*
X0034250Y0012750D03*
Y0004950D03*
X0028159Y0012794D03*
Y0009294D03*
Y0005794D03*
X0028309Y0037894D03*
Y0031494D03*
G54D18*
X0020809Y0040894D03*
Y0039894D03*
Y0038894D03*
Y0037894D03*
Y0036894D03*
Y0035894D03*
Y0034894D03*
Y0033894D03*
Y0032894D03*
Y0031894D03*
Y0030894D03*
Y0029894D03*
Y0028894D03*
X0023809D03*
Y0029894D03*
Y0030894D03*
Y0031894D03*
Y0032894D03*
Y0033894D03*
Y0034894D03*
Y0035894D03*
Y0036894D03*
Y0037894D03*
Y0038894D03*
Y0039894D03*
Y0040894D03*
Y0041894D03*
X0008409Y0036994D03*
Y0035994D03*
Y0034994D03*
Y0033994D03*
Y0032994D03*
Y0031994D03*
Y0030994D03*
X0011409D03*
Y0031994D03*
Y0032994D03*
Y0033994D03*
Y0034994D03*
Y0035994D03*
Y0036994D03*
Y0037994D03*
G54D19*
X0020809Y0041894D03*
X0008409Y0037994D03*
G54D20*
X0005219Y0014534D03*
Y0004694D03*
G54D21*
X0005779Y0008524D03*
Y0009614D03*
Y0010704D03*
Y0011794D03*
X0004659Y0007979D03*
Y0009069D03*
Y0010159D03*
Y0011249D03*
G54D22*
X0005779Y0007434D03*
G54D23*
X0001431Y0041732D03*
X0030971D03*
X0030959Y0029394D03*
X0001409D03*
G54D24*
X0004614Y0041735D03*
X0005614D03*
X0006614D03*
X0007614D03*
X0008614D03*
X0009614D03*
X0010614D03*
X0011614D03*
X0012614D03*
X0013614D03*
X0014614D03*
X0015614D03*
X0016614D03*
X0017614D03*
X0018614D03*
G54D25*
X0003614D03*
G54D26*
X0021159Y0004944D03*
G54D27*
X0022159Y0003944D03*
G54D28*
X0021159Y0002944D03*
G54D29*
X0020759Y0019894D03*
G54D30*
X0020664Y0025000D03*
G54D31*
X0034250Y0014550D03*
Y0006750D03*
X0014800Y0002000D03*
X0015159Y0060794D03*
X0016159Y0055794D03*
X0015159D03*
X0025659Y0034894D03*
G54D32*
X0001659Y0001794D03*
X0030659D03*
X0016159Y0009794D03*
Y0052794D03*
X0005159Y0045294D03*
X0027159D03*
G54D33*
X0035250Y0014550D03*
X0036250D03*
X0035250Y0006750D03*
X0036250D03*
X0015800Y0002000D03*
X0016800D03*
X0017800D03*
X0016159Y0060794D03*
X0017159D03*
G54D34*
X0018659Y0006794D03*
Y0005928D03*
Y0014794D03*
Y0013928D03*
X0022659Y0010794D03*
Y0009928D03*
X0008159Y0013294D03*
Y0012428D03*
X0020659Y0044294D03*
Y0043428D03*
X0017659Y0039794D03*
Y0038928D03*
G54D35*
X0045880Y0012950D03*
X0046746D03*
X0045880Y0012050D03*
X0046746D03*
X0046780Y0010250D03*
X0045914D03*
X0046780Y0009350D03*
X0045914D03*
X0039150Y0009950D03*
X0038284D03*
X0039150Y0010950D03*
X0038284D03*
X0039150Y0011950D03*
X0038284D03*
X0045880Y0011150D03*
X0046746D03*
X0045880Y0005150D03*
X0046746D03*
X0045880Y0004250D03*
X0046746D03*
X0046780Y0002450D03*
X0045914D03*
X0046780Y0001550D03*
X0045914D03*
X0039150Y0002150D03*
X0038284D03*
X0039150Y0003150D03*
X0038284D03*
X0039150Y0004150D03*
X0038284D03*
X0045880Y0003350D03*
X0046746D03*
X0012226Y0012861D03*
X0013092D03*
G54D36*
X0043350Y0014350D03*
X0041350D03*
X0043350Y0006550D03*
X0041350D03*
X0018159Y0032794D03*
Y0034794D03*
X0015159Y0005794D03*
X0017168D03*
X0015159Y0013794D03*
X0017168D03*
X0019159Y0009794D03*
X0021168D03*
X0011159D03*
X0013168D03*
X0007709Y0006744D03*
X0009718D03*
G54D37*
X0008059Y0002144D03*
X0011602D03*
G54D38*
X0009830D03*
G54D39*
X0028159Y0026794D03*
X0029159D03*
G54D40*
X0027159D03*
G54D41*
Y0019644D03*
G54D42*
X0037650Y0013250D03*
X0038490D03*
X0041950Y0009050D03*
X0042790D03*
X0046310Y0013980D03*
Y0014820D03*
X0039950Y0014550D03*
Y0013710D03*
X0044750Y0013950D03*
Y0014790D03*
X0037650Y0005450D03*
X0038490D03*
X0041950Y0001250D03*
X0042790D03*
X0046310Y0006180D03*
Y0007020D03*
X0039950Y0006750D03*
Y0005910D03*
X0044750Y0006150D03*
Y0006990D03*
G54D43*
X0037550Y0014550D03*
X0038730D03*
X0037550Y0006750D03*
X0038730D03*
G54D44*
X0037350Y0009950D03*
X0036563D03*
X0037350Y0010950D03*
X0036563D03*
X0037350Y0011950D03*
X0036563D03*
X0037350Y0002150D03*
X0036563D03*
X0037350Y0003150D03*
X0036563D03*
X0037350Y0004150D03*
X0036563D03*
G54D45*
X0049280Y0014450D03*
Y0009450D03*
Y0006650D03*
Y0001650D03*
G54D46*
X0048280Y0012450D03*
Y0011450D03*
Y0010450D03*
Y0004650D03*
Y0003650D03*
Y0002650D03*
G54D47*
Y0013450D03*
Y0005650D03*
G54D48*
X0041243Y0009985D03*
X0041499D03*
X0041755D03*
X0042011D03*
X0042267D03*
X0042523D03*
X0042779D03*
X0043034D03*
X0043290D03*
X0043546D03*
X0043802D03*
X0044058D03*
X0044314D03*
X0044570D03*
Y0013017D03*
X0044314D03*
X0044058D03*
X0043802D03*
X0043546D03*
X0043290D03*
X0043034D03*
X0042779D03*
X0042523D03*
X0042267D03*
X0042011D03*
X0041755D03*
X0041499D03*
X0041243D03*
Y0002185D03*
X0041499D03*
X0041755D03*
X0042011D03*
X0042267D03*
X0042523D03*
X0042779D03*
X0043034D03*
X0043290D03*
X0043546D03*
X0043802D03*
X0044058D03*
X0044314D03*
X0044570D03*
Y0005217D03*
X0044314D03*
X0044058D03*
X0043802D03*
X0043546D03*
X0043290D03*
X0043034D03*
X0042779D03*
X0042523D03*
X0042267D03*
X0042011D03*
X0041755D03*
X0041499D03*
X0041243D03*
G54D49*
X0043222Y0037135D03*
Y0037450D03*
Y0037765D03*
Y0038079D03*
Y0038394D03*
Y0038709D03*
Y0039023D03*
Y0039338D03*
Y0039653D03*
Y0039967D03*
Y0040282D03*
Y0040597D03*
Y0040911D03*
Y0041226D03*
Y0041541D03*
Y0041855D03*
X0037007D03*
Y0041541D03*
Y0041226D03*
Y0040911D03*
Y0040597D03*
Y0040282D03*
Y0039967D03*
Y0039653D03*
Y0039338D03*
Y0039023D03*
Y0038709D03*
Y0038394D03*
Y0038079D03*
Y0037765D03*
Y0037450D03*
Y0037135D03*
X0043222Y0021135D03*
Y0021450D03*
Y0021765D03*
Y0022079D03*
Y0022394D03*
Y0022709D03*
Y0023023D03*
Y0023338D03*
Y0023653D03*
Y0023967D03*
Y0024282D03*
Y0024597D03*
Y0024911D03*
Y0025226D03*
Y0025541D03*
Y0025855D03*
X0037007D03*
Y0025541D03*
Y0025226D03*
Y0024911D03*
Y0024597D03*
Y0024282D03*
Y0023967D03*
Y0023653D03*
Y0023338D03*
Y0023023D03*
Y0022709D03*
Y0022394D03*
Y0022079D03*
Y0021765D03*
Y0021450D03*
Y0021135D03*
G54D50*
X0038070Y0036390D03*
X0038385D03*
X0038700D03*
X0039015D03*
X0039330D03*
X0039645D03*
X0039960D03*
X0040275D03*
X0040590D03*
X0040905D03*
X0041220D03*
X0041535D03*
X0041850D03*
X0042165D03*
X0042480D03*
X0042474Y0042603D03*
X0042160D03*
X0041845D03*
X0041530D03*
X0041216D03*
X0040901D03*
X0040586D03*
X0040272D03*
X0039957D03*
X0039642D03*
X0039328D03*
X0039013D03*
X0038698D03*
X0038384D03*
X0038069D03*
X0037754D03*
X0038070Y0020390D03*
X0038385D03*
X0038700D03*
X0039015D03*
X0039330D03*
X0039645D03*
X0039960D03*
X0040275D03*
X0040590D03*
X0040905D03*
X0041220D03*
X0041535D03*
X0041850D03*
X0042165D03*
X0042480D03*
X0042474Y0026603D03*
X0042160D03*
X0041845D03*
X0041530D03*
X0041216D03*
X0040901D03*
X0040586D03*
X0040272D03*
X0039957D03*
X0039642D03*
X0039328D03*
X0039013D03*
X0038698D03*
X0038384D03*
X0038069D03*
X0037754D03*
G54D51*
X0037755Y0036390D03*
Y0020390D03*
G54D57*
X0013759Y0031894D03*
X0016159Y0007294D03*
X0015459Y0036994D03*
X0047090Y0007010D03*
Y0014810D03*
X0045070Y0010860D03*
Y0003060D03*
X0040500Y0012850D03*
X0036750Y0013050D03*
X0040500Y0005050D03*
X0036750Y0005250D03*
X0014459Y0036994D03*
X0009450Y0027900D03*
X0011320Y0029830D03*
X0018359Y0040594D03*
X0039990Y0001770D03*
X0016659Y0049444D03*
X0023759Y0049344D03*
X0043960Y0001110D03*
X0039810Y0011800D03*
Y0004000D03*
X0010050Y0008050D03*
X0012359Y0038894D03*
X0021859Y0011344D03*
X0015909Y0050294D03*
X0022959Y0050244D03*
X0043290Y0004020D03*
Y0011820D03*
X0045150Y0013050D03*
X0043960Y0008910D03*
X0045150Y0005250D03*
X0016159Y0039994D03*
X0008659Y0039544D03*
X0047250Y0003390D03*
X0022659Y0008294D03*
X0024559Y0047544D03*
X0015109Y0047644D03*
X0019359Y0014194D03*
X0040580Y0002580D03*
Y0010380D03*
X0039990Y0009570D03*
X0003759Y0030194D03*
X0027759Y0029394D03*
X0014000Y0029600D03*
X0013100Y0040300D03*
X0023209Y0006794D03*
X0015259Y0040594D03*
X0030659Y0027194D03*
X0004659Y0029294D03*
X0024509Y0048494D03*
X0017409D03*
X0007350Y0027900D03*
X0016659Y0033994D03*
X0047250Y0011190D03*
M02*
