*
G04 Mass Parameters ***
*
G04 Image ***
*
%IND:\SOUND LEVEL METER PROJECT\MO PHONG_SOUND LEVEL METER_V3\SOUND LEVEL METER_OK\BOARD_NOISE LEVEL METER\GERBER\NOISE LEVEL METER-15.FAB*%
%ICAS*%
%MOIN*%
%IPPOS*%
%ASAXBY*%
G74*%FSLAN2X34Y34*%
*
G04 Aperture Definitions ***
*
%ADD10C,0.0600*%
%ADD11R,0.0600X0.0600*%
%ADD12C,0.0800*%
%ADD13R,0.0800X0.0800*%
%ADD14R,0.1000X0.1000*%
%ADD15C,0.1000*%
%ADD16O,0.0950X0.0650*%
%ADD17R,0.0950X0.0650*%
%ADD18O,0.0800X0.0600*%
%ADD19R,0.0800X0.0600*%
%ADD20R,0.1400X0.1900*%
%ADD21C,0.0700*%
%ADD22R,0.0700X0.0700*%
%ADD23C,0.1575*%
%ADD24O,0.0750X0.0900*%
%ADD25R,0.0750X0.0900*%
%ADD26O,0.0900X0.0800*%
%ADD27O,0.0800X0.0900*%
%ADD28R,0.0900X0.0800*%
%ADD29O,0.4000X0.3000*%
%ADD30R,0.4000X0.3000*%
%ADD31R,0.0650X0.0950*%
%ADD32C,0.1180*%
%ADD33O,0.0650X0.0950*%
%ADD34R,0.0590X0.0394*%
%ADD35R,0.0394X0.0590*%
%ADD36C,0.0790*%
%ADD37O,0.1181X0.1575*%
%ADD38R,0.1181X0.1575*%
%ADD39O,0.0700X0.0850*%
%ADD40R,0.0700X0.0850*%
%ADD41C,0.0500*%
%ADD42R,0.0500X0.0500*%
%ADD43R,0.0480X0.0740*%
%ADD44R,0.0512X0.0590*%
%ADD45O,0.1500X0.0800*%
%ADD46O,0.0850X0.0650*%
%ADD47R,0.0850X0.0650*%
%ADD48O,0.0149X0.0590*%
%ADD49C,0.0300*%
%ADD50C,0.0200*%
%ADD51C,0.0100*%
%ADD52C,0.0350*%
%ADD53C,0.0500*%
%ADD54C,0.0250*%
%ADD55C,0.0150*%
%ADD56C,0.0500*%
%ADD57C,0.0787*%
%ADD58C,0.0400*%
%ADD59C,0.0065*%
%ADD60C,0.0060*%
%ADD61C,0.0070*%
%ADD62C,0.0080*%
%ADD63C,0.0830*%
%ADD64R,0.0830X0.0830*%
%ADD65R,0.0590X0.0669*%
%ADD66O,0.1600X0.0900*%
%ADD67C,0.0500*%
%ADD68C,0.0680*%
%ADD69R,0.0680X0.0680*%
%ADD70C,0.0880*%
%ADD71R,0.0880X0.0880*%
%ADD72R,0.1080X0.1080*%
%ADD73C,0.1080*%
%ADD74O,0.1030X0.0730*%
%ADD75R,0.1030X0.0730*%
%ADD76O,0.0880X0.0680*%
%ADD77R,0.0880X0.0680*%
%ADD78R,0.1480X0.1980*%
%ADD79C,0.0780*%
%ADD80R,0.0780X0.0780*%
%ADD81C,0.1650*%
%ADD82O,0.0830X0.0980*%
%ADD83R,0.0830X0.0980*%
%ADD84O,0.0980X0.0880*%
%ADD85O,0.0880X0.0980*%
%ADD86R,0.0980X0.0880*%
%ADD87O,0.4080X0.3080*%
%ADD88R,0.4080X0.3080*%
%ADD89R,0.0730X0.1030*%
%ADD90O,0.0730X0.1030*%
%ADD91R,0.0680X0.0480*%
%ADD92R,0.0480X0.0680*%
%ADD93C,0.0870*%
%ADD94O,0.1260X0.1650*%
%ADD95R,0.1260X0.1650*%
%ADD96O,0.0780X0.0950*%
%ADD97R,0.0780X0.0930*%
%ADD98C,0.0550*%
%ADD99R,0.0580X0.0580*%
%ADD100R,0.0560X0.0820*%
%ADD101O,0.1580X0.0880*%
%ADD102O,0.0930X0.0730*%
%ADD103R,0.0930X0.0730*%
%ADD104O,0.0230X0.0670*%
%ADD105C,0.0550*%
%ADD106C,0.0004*%
%ADD107C,0.0050*%
%ADD108C,0.0020*%
%ADD109C,0.0079*%
%ADD110C,0.0118*%
%ADD111C,0.0039*%
%ADD112C,0.0010*%
%ADD113C,0.0012*%
%ADD114C,0.0394*%
%ADD115R,0.1200X0.1200*%
%ADD116C,0.1200*%
%ADD117O,0.0990X0.0670*%
%ADD118O,0.0800X0.0580*%
%ADD119R,0.0800X0.0580*%
%ADD120C,0.0630*%
%ADD121R,0.0630X0.0630*%
%ADD122O,0.0670X0.0990*%
%ADD123C,0.0710*%
%ADD124R,0.0710X0.0710*%
%ADD125O,0.0800X0.0320*%
%ADD126C,0.0280*%
%ADD127C,0.0280*%
*
G04 Plot Data ***
*
G54D49*
G01X0032459Y0016794D02*
Y0059294D01*
X0018459Y0073294D01*
Y0079294D01*
X0014459D01*
Y0073294D01*
X0000559Y0059394D01*
Y0016794D01*
X0032459D01*
G54D50*
G01X0001070Y0008570D02*
X0001080Y0008560D01*
X0018640D01*
Y0015900D01*
X0001070D01*
Y0008570D01*
Y0000470D02*
X0001080Y0000460D01*
X0018640D01*
Y0007800D01*
X0001070D01*
Y0000470D01*
G54D126*
X0027459Y0036144D03*
G54D127*
X0014059Y0048394D03*
X0016459Y0023794D03*
X0015759Y0053494D03*
X0015390Y0015110D03*
Y0007010D03*
X0013370Y0011160D03*
Y0003060D03*
X0008800Y0013150D03*
X0005050Y0013350D03*
X0008800Y0005050D03*
X0005050Y0005250D03*
X0012260Y0001110D03*
X0008110Y0012100D03*
Y0004000D03*
X0012659Y0055394D03*
X0014759Y0053494D03*
X0008880Y0002580D03*
X0011620Y0046330D03*
X0016959Y0050494D03*
X0018659Y0057094D03*
X0015550Y0003390D03*
X0008290Y0001770D03*
X0011590Y0004020D03*
X0013450Y0013350D03*
X0011590Y0012120D03*
X0013450Y0005250D03*
X0012260Y0009210D03*
X0015550Y0011490D03*
X0008290Y0009870D03*
X0008880Y0010680D03*
X0010350Y0024550D03*
X0024809Y0064994D03*
X0017709D03*
X0009750Y0044400D03*
X0019659Y0030694D03*
X0022159Y0027844D03*
X0007650Y0044400D03*
X0023509Y0023294D03*
X0016459Y0056494D03*
X0008959Y0056044D03*
X0022959Y0024794D03*
X0024859Y0064044D03*
X0015409Y0064144D03*
X0015559Y0057094D03*
X0028059Y0045894D03*
X0014300Y0046100D03*
X0013400Y0056800D03*
X0004059Y0046694D03*
X0030959Y0043694D03*
X0004959Y0045794D03*
X0016209Y0066794D03*
X0023259Y0066744D03*
X0016959Y0065944D03*
X0024059Y0065844D03*
M02*
