*
G04 Mass Parameters ***
*
G04 Image ***
*
%IND:\SOUND LEVEL METER PROJECT\MO PHONG_SOUND LEVEL METER_V3\SOUND LEVEL METER_OK\BOARD_NOISE LEVEL METER\GERBER\NOISE LEVEL METER-18.SST*%
%ICAS*%
%MOIN*%
%IPPOS*%
%ASAXBY*%
G74*%FSLAN2X34Y34*%
*
G04 Aperture Definitions ***
*
%ADD10C,0.0600*%
%ADD11R,0.0600X0.0600*%
%ADD12C,0.0800*%
%ADD13R,0.0800X0.0800*%
%ADD14R,0.1000X0.1000*%
%ADD15C,0.1000*%
%ADD16O,0.0950X0.0650*%
%ADD17R,0.0950X0.0650*%
%ADD18O,0.0800X0.0600*%
%ADD19R,0.0800X0.0600*%
%ADD20R,0.1400X0.1900*%
%ADD21C,0.0700*%
%ADD22R,0.0700X0.0700*%
%ADD23C,0.1575*%
%ADD24O,0.0750X0.0900*%
%ADD25R,0.0750X0.0900*%
%ADD26O,0.0900X0.0800*%
%ADD27O,0.0800X0.0900*%
%ADD28R,0.0900X0.0800*%
%ADD29O,0.4000X0.3000*%
%ADD30R,0.4000X0.3000*%
%ADD31R,0.0650X0.0950*%
%ADD32C,0.1180*%
%ADD33O,0.0650X0.0950*%
%ADD34R,0.0590X0.0394*%
%ADD35R,0.0394X0.0590*%
%ADD36C,0.0790*%
%ADD37O,0.1181X0.1575*%
%ADD38R,0.1181X0.1575*%
%ADD39O,0.0700X0.0850*%
%ADD40R,0.0700X0.0850*%
%ADD41C,0.0500*%
%ADD42R,0.0500X0.0500*%
%ADD43R,0.0480X0.0740*%
%ADD44R,0.0512X0.0590*%
%ADD45O,0.1500X0.0800*%
%ADD46O,0.0850X0.0650*%
%ADD47R,0.0850X0.0650*%
%ADD48O,0.0149X0.0590*%
%ADD49O,0.0787X0.0157*%
%ADD50O,0.0157X0.0787*%
%ADD51R,0.0157X0.0787*%
%ADD52C,0.0300*%
%ADD53C,0.0100*%
%ADD54C,0.0350*%
%ADD55C,0.0200*%
%ADD56C,0.0500*%
%ADD57C,0.0500*%
%ADD58C,0.0150*%
%ADD59C,0.0250*%
%ADD60C,0.0500*%
%ADD61C,0.0787*%
%ADD62C,0.0400*%
%ADD63C,0.0065*%
%ADD64C,0.0060*%
%ADD65C,0.0070*%
%ADD66C,0.0080*%
%ADD67C,0.0830*%
%ADD68R,0.0830X0.0830*%
%ADD69C,0.0750*%
%ADD70R,0.0590X0.0669*%
%ADD71O,0.1600X0.0900*%
%ADD72C,0.0750*%
%ADD73C,0.0680*%
%ADD74R,0.0680X0.0680*%
%ADD75C,0.0880*%
%ADD76R,0.0880X0.0880*%
%ADD77R,0.1080X0.1080*%
%ADD78C,0.1080*%
%ADD79O,0.1030X0.0730*%
%ADD80R,0.1030X0.0730*%
%ADD81O,0.0880X0.0680*%
%ADD82R,0.0880X0.0680*%
%ADD83R,0.1480X0.1980*%
%ADD84C,0.0780*%
%ADD85R,0.0780X0.0780*%
%ADD86C,0.1650*%
%ADD87O,0.0830X0.0980*%
%ADD88R,0.0830X0.0980*%
%ADD89O,0.0980X0.0880*%
%ADD90O,0.0880X0.0980*%
%ADD91R,0.0980X0.0880*%
%ADD92O,0.4080X0.3080*%
%ADD93R,0.4080X0.3080*%
%ADD94R,0.0730X0.1030*%
%ADD95O,0.0730X0.1030*%
%ADD96R,0.0680X0.0480*%
%ADD97R,0.0480X0.0680*%
%ADD98C,0.0870*%
%ADD99O,0.1260X0.1650*%
%ADD100R,0.1260X0.1650*%
%ADD101O,0.0780X0.0950*%
%ADD102R,0.0780X0.0930*%
%ADD103C,0.0550*%
%ADD104R,0.0580X0.0580*%
%ADD105R,0.0560X0.0820*%
%ADD106O,0.1580X0.0880*%
%ADD107O,0.0930X0.0730*%
%ADD108R,0.0930X0.0730*%
%ADD109O,0.0230X0.0670*%
%ADD110O,0.0870X0.0240*%
%ADD111O,0.0240X0.0870*%
%ADD112R,0.0240X0.0870*%
%ADD113C,0.0550*%
%ADD114C,0.0004*%
%ADD115C,0.0050*%
%ADD116C,0.0020*%
%ADD117C,0.0079*%
%ADD118C,0.0118*%
%ADD119C,0.0039*%
%ADD120C,0.0010*%
%ADD121C,0.0012*%
%ADD122C,0.0394*%
%ADD123C,0.0030*%
%ADD124C,0.0090*%
*
G04 Plot Data ***
*
G54D53*
G01X0042433Y0022208D02*
X0042475Y0022292D01*
Y0022375D01*
X0042433Y0022458D01*
X0042183D01*
X0042142Y0022375D01*
Y0022292D01*
X0042183Y0022208D01*
X0042433D01*
X0042475Y0022125D01*
Y0022042D01*
X0042433Y0021958D01*
X0042183D01*
X0042142Y0022042D01*
Y0022125D01*
X0042183Y0022208D01*
X0041900Y0021958D02*
X0041567D01*
X0041900Y0022292D01*
Y0022375D01*
X0041858Y0022458D01*
X0041608D01*
X0041567Y0022375D01*
X0041325Y0021958D02*
X0041158D01*
X0041242D02*
Y0022458D01*
X0041158Y0022375D01*
X0040583Y0022292D02*
X0040750D01*
X0040792Y0022208D01*
Y0022042D01*
X0040833Y0021958D01*
X0040542D01*
X0040500Y0022042D01*
X0040542Y0022125D01*
X0040792D01*
X0040050Y0021792D02*
X0040217D01*
X0040258Y0021875D01*
Y0022292D01*
X0040008D01*
X0039967Y0022208D01*
Y0022042D01*
X0040008Y0021958D01*
X0040258D01*
X0039683D02*
X0039433D01*
X0039392Y0022042D01*
Y0022208D01*
X0039433Y0022292D01*
X0039683D01*
X0039725Y0022208D01*
Y0022125D01*
X0039392D01*
X0038983Y0021958D02*
Y0022208D01*
X0039150Y0021958D02*
Y0022208D01*
X0039108Y0022292D01*
X0039025D01*
X0038983Y0022208D01*
X0038942Y0022292D01*
X0038858D01*
X0038817Y0022208D01*
Y0021958D01*
X0038408D02*
Y0022458D01*
X0038575D02*
X0038242D01*
X0038000Y0022125D02*
X0037667D01*
X0038000Y0021958D02*
Y0022208D01*
X0037875Y0022458D01*
X0037792D01*
X0037667Y0022208D01*
Y0021958D01*
X0038676Y0023007D02*
X0038510D01*
X0038593D02*
Y0023507D01*
X0038510Y0023424D01*
X0038185Y0023507D02*
Y0023091D01*
X0038143Y0023007D01*
X0037893D01*
X0037851Y0023091D01*
Y0023507D01*
X0052488Y0009308D02*
X0052572Y0009392D01*
X0052655Y0009433D01*
X0052822D01*
X0052905Y0009392D01*
X0052988Y0009308D01*
Y0009225D01*
X0052905Y0009142D01*
X0052822Y0009100D01*
X0052655D01*
X0052572Y0009142D01*
X0052488Y0009225D01*
Y0009308D01*
Y0009883D02*
X0052572Y0009967D01*
X0052655Y0010008D01*
X0052822D01*
X0052905Y0009967D01*
X0052988Y0009883D01*
Y0009800D01*
X0052905Y0009717D01*
X0052822Y0009675D01*
X0052655D01*
X0052572Y0009717D01*
X0052488Y0009800D01*
Y0009883D01*
Y0010458D02*
X0052572Y0010542D01*
X0052655Y0010583D01*
X0052822D01*
X0052905Y0010542D01*
X0052988Y0010458D01*
Y0010375D01*
X0052905Y0010292D01*
X0052822Y0010250D01*
X0052655D01*
X0052572Y0010292D01*
X0052488Y0010375D01*
Y0010458D01*
Y0011033D02*
X0052572Y0011117D01*
X0052655Y0011158D01*
X0052822D01*
X0052905Y0011117D01*
X0052988Y0011033D01*
Y0010950D01*
X0052905Y0010867D01*
X0052822Y0010825D01*
X0052655D01*
X0052572Y0010867D01*
X0052488Y0010950D01*
Y0011033D01*
Y0011608D02*
X0052572Y0011692D01*
X0052655Y0011733D01*
X0052822D01*
X0052905Y0011692D01*
X0052988Y0011608D01*
Y0011525D01*
X0052905Y0011442D01*
X0052822Y0011400D01*
X0052655D01*
X0052572Y0011442D01*
X0052488Y0011525D01*
Y0011608D01*
Y0012183D02*
X0052572Y0012267D01*
X0052655Y0012308D01*
X0052822D01*
X0052905Y0012267D01*
X0052988Y0012183D01*
Y0012100D01*
X0052905Y0012017D01*
X0052822Y0011975D01*
X0052655D01*
X0052572Y0012017D01*
X0052488Y0012100D01*
Y0012183D01*
Y0012550D02*
Y0012883D01*
X0052822Y0012550D01*
X0052905D01*
X0052988Y0012592D01*
Y0012842D01*
X0052905Y0012883D01*
X0052988Y0013125D02*
X0052572D01*
X0052488Y0013167D01*
Y0013417D01*
X0052572Y0013458D01*
X0052988D01*
X0051655Y0008200D02*
Y0008533D01*
X0051488Y0008200D02*
X0051738D01*
X0051988Y0008325D01*
Y0008408D01*
X0051738Y0008533D01*
X0051488D01*
X0051738Y0008775D02*
Y0009108D01*
Y0009433D02*
Y0009683D01*
X0051488Y0009350D02*
Y0009683D01*
X0051988D01*
Y0009350D01*
X0051738Y0010258D02*
Y0010008D01*
X0051822Y0009925D01*
X0051905D01*
X0051988Y0010008D01*
Y0010258D01*
X0051488D01*
Y0010667D02*
X0051738D01*
X0051988Y0010500D02*
X0051738Y0010625D01*
Y0010708D01*
X0051988Y0010833D01*
X0051488Y0011242D02*
X0051988D01*
Y0011075D02*
Y0011408D01*
X0051322Y0011650D02*
Y0011983D01*
X0051488Y0012517D02*
X0051988D01*
X0051488Y0012558D02*
Y0012308D01*
X0051572Y0012225D01*
X0051655D01*
X0051738Y0012267D01*
Y0012517D02*
Y0012267D01*
X0051822Y0012225D01*
X0051905D01*
X0051988Y0012308D01*
Y0012558D01*
X0051905Y0012800D02*
X0051988Y0012842D01*
Y0013092D01*
X0051905Y0013133D01*
X0051822D01*
X0051738Y0013092D01*
Y0012842D01*
X0051655Y0012800D01*
X0051572D01*
X0051488Y0012842D01*
Y0013092D01*
X0051572Y0013133D01*
X0051988Y0013375D02*
X0051572D01*
X0051488Y0013417D01*
Y0013667D01*
X0051572Y0013708D01*
X0051988D01*
X0049572Y0010817D02*
Y0011067D01*
X0049655Y0011108D01*
X0049822D01*
X0049905Y0011067D01*
Y0010817D01*
X0049822Y0010775D01*
X0049738D01*
Y0011108D01*
X0049572Y0011350D02*
Y0011517D01*
Y0011433D02*
X0050072D01*
Y0011517D01*
X0049905Y0012092D02*
Y0011842D01*
X0049822Y0011800D01*
X0049655D01*
X0049572Y0011842D01*
Y0012092D01*
X0050072D01*
X0049905Y0012583D02*
Y0012417D01*
X0049822Y0012375D01*
X0049655D01*
X0049572Y0012333D01*
Y0012625D01*
X0049655Y0012667D01*
X0049738Y0012625D01*
Y0012375D01*
X0049655Y0012908D02*
X0049572Y0012950D01*
Y0013200D01*
X0049655Y0013242D01*
X0049988D01*
X0050072Y0013200D01*
Y0012950D01*
X0049988Y0012908D01*
X0052488Y0003233D02*
X0052572Y0003317D01*
X0052655Y0003358D01*
X0052822D01*
X0052905Y0003317D01*
X0052988Y0003233D01*
Y0003150D01*
X0052905Y0003067D01*
X0052822Y0003025D01*
X0052655D01*
X0052572Y0003067D01*
X0052488Y0003150D01*
Y0003233D01*
Y0003808D02*
X0052572Y0003892D01*
X0052655Y0003933D01*
X0052822D01*
X0052905Y0003892D01*
X0052988Y0003808D01*
Y0003725D01*
X0052905Y0003642D01*
X0052822Y0003600D01*
X0052655D01*
X0052572Y0003642D01*
X0052488Y0003725D01*
Y0003808D01*
Y0004383D02*
X0052572Y0004467D01*
X0052655Y0004508D01*
X0052822D01*
X0052905Y0004467D01*
X0052988Y0004383D01*
Y0004300D01*
X0052905Y0004217D01*
X0052822Y0004175D01*
X0052655D01*
X0052572Y0004217D01*
X0052488Y0004300D01*
Y0004383D01*
Y0004750D02*
Y0005083D01*
X0052822Y0004750D01*
X0052905D01*
X0052988Y0004792D01*
Y0005042D01*
X0052905Y0005083D01*
X0052988Y0005325D02*
X0052572D01*
X0052488Y0005367D01*
Y0005617D01*
X0052572Y0005658D01*
X0052988D01*
X0051655Y0000400D02*
Y0000733D01*
X0051488Y0000400D02*
X0051738D01*
X0051988Y0000525D01*
Y0000608D01*
X0051738Y0000733D01*
X0051488D01*
X0051738Y0000975D02*
Y0001308D01*
Y0001633D02*
Y0001883D01*
X0051488Y0001550D02*
Y0001883D01*
X0051988D01*
Y0001550D01*
X0051738Y0002458D02*
Y0002208D01*
X0051822Y0002125D01*
X0051905D01*
X0051988Y0002208D01*
Y0002458D01*
X0051488D01*
Y0002867D02*
X0051738D01*
X0051988Y0002700D02*
X0051738Y0002825D01*
Y0002908D01*
X0051988Y0003033D01*
X0051488Y0003442D02*
X0051988D01*
Y0003275D02*
Y0003608D01*
X0051322Y0003850D02*
Y0004183D01*
X0051488Y0004717D02*
X0051988D01*
X0051488Y0004758D02*
Y0004508D01*
X0051572Y0004425D01*
X0051655D01*
X0051738Y0004467D01*
Y0004717D02*
Y0004467D01*
X0051822Y0004425D01*
X0051905D01*
X0051988Y0004508D01*
Y0004758D01*
X0051905Y0005000D02*
X0051988Y0005042D01*
Y0005292D01*
X0051905Y0005333D01*
X0051822D01*
X0051738Y0005292D01*
Y0005042D01*
X0051655Y0005000D01*
X0051572D01*
X0051488Y0005042D01*
Y0005292D01*
X0051572Y0005333D01*
X0051988Y0005575D02*
X0051572D01*
X0051488Y0005617D01*
Y0005867D01*
X0051572Y0005908D01*
X0051988D01*
X0049572Y0003017D02*
Y0003267D01*
X0049655Y0003308D01*
X0049822D01*
X0049905Y0003267D01*
Y0003017D01*
X0049822Y0002975D01*
X0049738D01*
Y0003308D01*
X0049572Y0003550D02*
Y0003717D01*
Y0003633D02*
X0050072D01*
Y0003717D01*
X0049905Y0004292D02*
Y0004042D01*
X0049822Y0004000D01*
X0049655D01*
X0049572Y0004042D01*
Y0004292D01*
X0050072D01*
X0049905Y0004783D02*
Y0004617D01*
X0049822Y0004575D01*
X0049655D01*
X0049572Y0004533D01*
Y0004825D01*
X0049655Y0004867D01*
X0049738Y0004825D01*
Y0004575D01*
X0049655Y0005108D02*
X0049572Y0005150D01*
Y0005400D01*
X0049655Y0005442D01*
X0049988D01*
X0050072Y0005400D01*
Y0005150D01*
X0049988Y0005108D01*
X0042433Y0038208D02*
X0042475Y0038292D01*
Y0038375D01*
X0042433Y0038458D01*
X0042183D01*
X0042142Y0038375D01*
Y0038292D01*
X0042183Y0038208D01*
X0042433D01*
X0042475Y0038125D01*
Y0038042D01*
X0042433Y0037958D01*
X0042183D01*
X0042142Y0038042D01*
Y0038125D01*
X0042183Y0038208D01*
X0041900Y0037958D02*
X0041567D01*
X0041900Y0038292D01*
Y0038375D01*
X0041858Y0038458D01*
X0041608D01*
X0041567Y0038375D01*
X0041325Y0037958D02*
X0041158D01*
X0041242D02*
Y0038458D01*
X0041158Y0038375D01*
X0040583Y0038292D02*
X0040750D01*
X0040792Y0038208D01*
Y0038042D01*
X0040833Y0037958D01*
X0040542D01*
X0040500Y0038042D01*
X0040542Y0038125D01*
X0040792D01*
X0040050Y0037792D02*
X0040217D01*
X0040258Y0037875D01*
Y0038292D01*
X0040008D01*
X0039967Y0038208D01*
Y0038042D01*
X0040008Y0037958D01*
X0040258D01*
X0039683D02*
X0039433D01*
X0039392Y0038042D01*
Y0038208D01*
X0039433Y0038292D01*
X0039683D01*
X0039725Y0038208D01*
Y0038125D01*
X0039392D01*
X0038983Y0037958D02*
Y0038208D01*
X0039150Y0037958D02*
Y0038208D01*
X0039108Y0038292D01*
X0039025D01*
X0038983Y0038208D01*
X0038942Y0038292D01*
X0038858D01*
X0038817Y0038208D01*
Y0037958D01*
X0038408D02*
Y0038458D01*
X0038575D02*
X0038242D01*
X0038000Y0038125D02*
X0037667D01*
X0038000Y0037958D02*
Y0038208D01*
X0037875Y0038458D01*
X0037792D01*
X0037667Y0038208D01*
Y0037958D01*
X0040193Y0039007D02*
X0040110Y0039091D01*
X0040068Y0039174D01*
Y0039341D01*
X0040110Y0039424D01*
X0040193Y0039507D01*
X0040276D01*
X0040360Y0039424D01*
X0040401Y0039341D01*
Y0039174D01*
X0040360Y0039091D01*
X0040276Y0039007D01*
X0040193D01*
X0039618D02*
X0039535Y0039091D01*
X0039493Y0039174D01*
Y0039341D01*
X0039535Y0039424D01*
X0039618Y0039507D01*
X0039701D01*
X0039785Y0039424D01*
X0039826Y0039341D01*
Y0039174D01*
X0039785Y0039091D01*
X0039701Y0039007D01*
X0039618D01*
X0039043D02*
X0038960Y0039091D01*
X0038918Y0039174D01*
Y0039341D01*
X0038960Y0039424D01*
X0039043Y0039507D01*
X0039126D01*
X0039210Y0039424D01*
X0039251Y0039341D01*
Y0039174D01*
X0039210Y0039091D01*
X0039126Y0039007D01*
X0039043D01*
X0038676D02*
X0038510D01*
X0038593D02*
Y0039507D01*
X0038510Y0039424D01*
X0038185Y0039507D02*
Y0039091D01*
X0038143Y0039007D01*
X0037893D01*
X0037851Y0039091D01*
Y0039507D01*
X0001052Y0043376D02*
X0001094Y0043293D01*
X0001344D01*
X0001386Y0043376D01*
Y0043543D01*
X0001302Y0043626D01*
X0001052D01*
Y0043793D01*
X0001386D01*
X0000519Y0043459D02*
Y0043376D01*
X0000561Y0043293D01*
X0000727D01*
X0000769Y0043376D01*
Y0043793D01*
X0000811D02*
X0000644D01*
X0030831Y0003283D02*
X0030564D01*
X0030520Y0003372D01*
Y0003461D01*
X0030564Y0003549D01*
X0030831D01*
X0030875Y0003461D01*
Y0003372D01*
X0030697Y0003016D01*
X0030275D02*
X0030098D01*
X0030186D02*
Y0003549D01*
X0030098Y0003461D01*
X0029453Y0003194D02*
Y0003105D01*
X0029498Y0003016D01*
X0029675D01*
X0029720Y0003105D01*
Y0003549D01*
X0029764D02*
X0029586D01*
X0005375Y0046516D02*
X0005020D01*
X0005375Y0046872D01*
Y0046961D01*
X0005331Y0047049D01*
X0005064D01*
X0005020Y0046961D01*
X0004775Y0046516D02*
X0004598D01*
X0004686D02*
Y0047049D01*
X0004598Y0046961D01*
X0003953Y0046694D02*
Y0046605D01*
X0003998Y0046516D01*
X0004175D01*
X0004220Y0046605D01*
Y0047049D01*
X0004264D02*
X0004086D01*
X0016020Y0054105D02*
X0016109Y0054016D01*
X0016286D01*
X0016375Y0054105D01*
Y0054194D01*
X0016197Y0054372D01*
X0016375Y0054549D01*
X0016020D01*
X0015775Y0054016D02*
X0015598D01*
X0015686D02*
Y0054549D01*
X0015598Y0054461D01*
X0014953Y0054194D02*
Y0054105D01*
X0014998Y0054016D01*
X0015175D01*
X0015220Y0054105D01*
Y0054549D01*
X0015264D02*
X0015086D01*
X0016064Y0011283D02*
X0016331D01*
X0016375Y0011194D01*
Y0011105D01*
X0016331Y0011016D01*
X0016064D01*
X0016020Y0011105D01*
Y0011194D01*
X0016197Y0011549D01*
X0015775Y0011016D02*
X0015598D01*
X0015686D02*
Y0011549D01*
X0015598Y0011461D01*
X0014953Y0011194D02*
Y0011105D01*
X0014998Y0011016D01*
X0015175D01*
X0015220Y0011105D01*
Y0011549D01*
X0015264D02*
X0015086D01*
X0027286Y0046516D02*
X0027109D01*
X0027197D02*
Y0047049D01*
X0027109Y0046961D01*
X0026775Y0046516D02*
X0026598D01*
X0026686D02*
Y0047049D01*
X0026598Y0046961D01*
X0025953Y0046694D02*
Y0046605D01*
X0025998Y0046516D01*
X0026175D01*
X0026220Y0046605D01*
Y0047049D01*
X0026264D02*
X0026086D01*
X0011424Y0020736D02*
Y0020986D01*
X0011507Y0021027D01*
X0011674D01*
X0011757Y0020986D01*
Y0020736D01*
X0011674Y0020694D01*
X0011590D01*
Y0021027D01*
X0011757Y0021311D02*
X0011424D01*
Y0021269D02*
Y0021561D01*
X0011507Y0021602D01*
X0011757D01*
X0011424Y0021844D02*
Y0022011D01*
Y0021927D02*
X0011924D01*
Y0022011D01*
X0011757Y0022544D02*
Y0022377D01*
X0011674Y0022336D01*
X0011507D01*
X0011424Y0022294D01*
Y0022586D01*
X0011507Y0022627D01*
X0011590Y0022586D01*
Y0022336D01*
X0011924Y0022869D02*
X0011757D01*
X0011424Y0023036D01*
X0011757Y0023202D01*
X0011924D01*
X0011674Y0023444D02*
X0011507Y0023527D01*
X0011424Y0023611D01*
Y0023694D01*
X0011507Y0023777D01*
X0011590D01*
X0011674Y0023694D01*
X0011840Y0023611D01*
X0011924Y0023652D01*
Y0023736D01*
X0011840Y0023777D01*
X0011674Y0023694D01*
X0011424Y0023444D01*
X0001742Y0003016D02*
X0001653Y0003105D01*
X0001609Y0003194D01*
Y0003372D01*
X0001653Y0003461D01*
X0001742Y0003549D01*
X0001831D01*
X0001920Y0003461D01*
X0001964Y0003372D01*
Y0003194D01*
X0001920Y0003105D01*
X0001831Y0003016D01*
X0001742D01*
X0001364D02*
X0001009D01*
X0001364Y0003372D01*
Y0003461D01*
X0001320Y0003549D01*
X0001053D01*
X0001009Y0003461D01*
X0000453Y0003194D02*
Y0003105D01*
X0000498Y0003016D01*
X0000675D01*
X0000720Y0003105D01*
Y0003549D01*
X0000764D02*
X0000586D01*
X0049780Y0001650D02*
Y0002150D01*
X0048780D01*
Y0001650D01*
X0047780Y0004150D02*
Y0001650D01*
X0053280D01*
Y0006650D01*
X0047780D01*
Y0004150D01*
X0049780Y0006650D02*
Y0006150D01*
X0048780D01*
Y0006650D01*
X0042650Y0007050D02*
Y0006050D01*
X0042050Y0007050D02*
Y0006050D01*
X0042900Y0006550D02*
X0042800D01*
X0042050D02*
X0041800D01*
X0042650D02*
X0042750D01*
X0042420Y0006900D02*
Y0006200D01*
X0042330Y0006900D02*
Y0006200D01*
X0042240Y0006900D02*
Y0006200D01*
X0042500Y0006870D02*
X0042200D01*
X0042500Y0006780D02*
X0042200D01*
X0042500Y0006690D02*
X0042200D01*
X0042500Y0006600D02*
X0042200D01*
X0042500Y0006510D02*
X0042200D01*
X0042500Y0006420D02*
X0042200D01*
X0042500Y0006330D02*
X0042200D01*
X0042500Y0006240D02*
X0042200D01*
X0042500Y0006900D02*
X0042200D01*
Y0006200D01*
X0042500D02*
X0042200D01*
X0042500Y0006900D02*
Y0006200D01*
X0033750Y0005450D02*
Y0001450D01*
X0034750D01*
Y0005450D01*
X0033750D01*
Y0006250D02*
X0036750D01*
Y0007250D01*
X0033750D01*
Y0006250D01*
X0040841Y0004685D02*
Y0002716D01*
X0044976D01*
Y0004685D01*
X0040841D01*
X0046875Y0035750D02*
Y0043750D01*
X0044875D01*
Y0035750D01*
X0046875D01*
X0043875Y0046250D02*
X0035875D01*
Y0044250D01*
X0043875D01*
Y0046250D01*
X0037558Y0035798D02*
X0036417Y0036939D01*
Y0043193D01*
X0043812D01*
Y0035798D01*
X0037558D01*
X0036375Y0032750D02*
X0044375D01*
Y0034750D01*
X0036375D01*
Y0032750D01*
X0033375Y0043250D02*
Y0035250D01*
X0035375D01*
Y0043250D01*
X0033375D01*
X0046875Y0019750D02*
Y0027750D01*
X0044875D01*
Y0019750D01*
X0046875D01*
X0043875Y0030250D02*
X0035875D01*
Y0028250D01*
X0043875D01*
Y0030250D01*
X0037558Y0019798D02*
X0036417Y0020939D01*
Y0027193D01*
X0043812D01*
Y0019798D01*
X0037558D01*
X0036375Y0016750D02*
X0044375D01*
Y0018750D01*
X0036375D01*
Y0016750D01*
X0033375Y0027250D02*
Y0019250D01*
X0035375D01*
Y0027250D01*
X0033375D01*
X0049780Y0009450D02*
Y0009950D01*
X0048780D01*
Y0009450D01*
X0047780Y0011950D02*
Y0009450D01*
X0053280D01*
Y0014450D01*
X0047780D01*
Y0011950D01*
X0049780Y0014450D02*
Y0013950D01*
X0048780D01*
Y0014450D01*
X0042650Y0014850D02*
Y0013850D01*
X0042050Y0014850D02*
Y0013850D01*
X0042900Y0014350D02*
X0042800D01*
X0042050D02*
X0041800D01*
X0042650D02*
X0042750D01*
X0042420Y0014700D02*
Y0014000D01*
X0042330Y0014700D02*
Y0014000D01*
X0042240Y0014700D02*
Y0014000D01*
X0042500Y0014670D02*
X0042200D01*
X0042500Y0014580D02*
X0042200D01*
X0042500Y0014490D02*
X0042200D01*
X0042500Y0014400D02*
X0042200D01*
X0042500Y0014310D02*
X0042200D01*
X0042500Y0014220D02*
X0042200D01*
X0042500Y0014130D02*
X0042200D01*
X0042500Y0014040D02*
X0042200D01*
X0042500Y0014700D02*
X0042200D01*
Y0014000D01*
X0042500D02*
X0042200D01*
X0042500Y0014700D02*
Y0014000D01*
X0033750Y0013250D02*
Y0009250D01*
X0034750D01*
Y0013250D01*
X0033750D01*
Y0014050D02*
X0036750D01*
Y0015050D01*
X0033750D01*
Y0014050D01*
X0040841Y0012485D02*
Y0010516D01*
X0044976D01*
Y0012485D01*
X0040841D01*
X0014300Y0001500D02*
X0018300D01*
Y0002500D01*
X0014300D01*
Y0001500D01*
X0025159Y0034394D02*
Y0035394D01*
X0026159D01*
Y0034394D01*
X0025159D01*
X0014659Y0055294D02*
Y0056294D01*
X0015659D01*
Y0055294D01*
X0014659D01*
X0015659D02*
Y0056294D01*
X0016659D01*
Y0055294D01*
X0015659D01*
X0028809Y0037394D02*
Y0040394D01*
X0027809D01*
Y0037394D01*
X0028809D01*
X0012389Y0000963D02*
Y0003325D01*
X0007271D01*
Y0000963D01*
X0012389D01*
X0028809Y0030994D02*
Y0036994D01*
X0027809D01*
Y0030994D01*
X0028809D01*
X0027659Y0013294D02*
Y0010294D01*
X0028659D01*
Y0013294D01*
X0027659D01*
X0014659Y0060294D02*
X0017659D01*
Y0061294D01*
X0014659D01*
Y0060294D01*
X0018659Y0033494D02*
X0017659D01*
X0018659Y0034094D02*
X0017659D01*
X0018159Y0033244D02*
Y0033344D01*
Y0034094D02*
Y0034344D01*
Y0033494D02*
Y0033394D01*
X0018479Y0033944D02*
Y0033644D01*
X0018389Y0033944D02*
Y0033644D01*
X0018299Y0033944D02*
Y0033644D01*
X0018209Y0033944D02*
Y0033644D01*
X0018119Y0033944D02*
Y0033644D01*
X0018029Y0033944D02*
Y0033644D01*
X0017939Y0033944D02*
Y0033644D01*
X0017849Y0033944D02*
Y0033644D01*
X0018509Y0033864D02*
X0017809D01*
X0018509Y0033774D02*
X0017809D01*
X0018509Y0033684D02*
X0017809D01*
X0018509Y0033944D02*
Y0033644D01*
Y0033944D02*
X0017809D01*
Y0033644D01*
X0018509D02*
X0017809D01*
X0027659Y0009794D02*
Y0006794D01*
X0028659D01*
Y0009794D01*
X0027659D01*
X0024659Y0013294D02*
X0024159Y0013794D01*
Y0015794D01*
X0030659D01*
Y0013294D01*
X0024659D01*
X0027659Y0006294D02*
Y0003294D01*
X0028659D01*
Y0006294D01*
X0027659D01*
G54D64*
G01X0043996Y0011436D02*
X0043940Y0011492D01*
X0043912Y0011547D01*
Y0011658D01*
X0043940Y0011714D01*
X0043996Y0011769D01*
X0044051D01*
X0044107Y0011714D01*
X0044135Y0011658D01*
Y0011547D01*
X0044107Y0011492D01*
X0044051Y0011436D01*
X0043996D01*
X0043626D02*
X0043570Y0011492D01*
X0043542Y0011547D01*
Y0011658D01*
X0043570Y0011714D01*
X0043626Y0011769D01*
X0043681D01*
X0043737Y0011714D01*
X0043765Y0011658D01*
Y0011547D01*
X0043737Y0011492D01*
X0043681Y0011436D01*
X0043626D01*
X0043256D02*
X0043200Y0011492D01*
X0043172Y0011547D01*
Y0011658D01*
X0043200Y0011714D01*
X0043256Y0011769D01*
X0043311D01*
X0043367Y0011714D01*
X0043395Y0011658D01*
Y0011547D01*
X0043367Y0011492D01*
X0043311Y0011436D01*
X0043256D01*
X0042802Y0011492D02*
X0042858Y0011436D01*
X0042969D01*
X0043025Y0011492D01*
Y0011547D01*
X0042913Y0011658D01*
X0043025Y0011769D01*
X0042802D01*
X0042655D02*
Y0011492D01*
X0042627Y0011436D01*
X0042460D01*
X0042432Y0011492D01*
Y0011769D01*
X0038786Y0015132D02*
X0038731Y0015188D01*
X0038703Y0015244D01*
Y0015355D01*
X0038731Y0015410D01*
X0038786Y0015466D01*
X0038842D01*
X0038898Y0015410D01*
X0038925Y0015355D01*
Y0015244D01*
X0038898Y0015188D01*
X0038842Y0015132D01*
X0038786D01*
X0038416D02*
X0038361Y0015188D01*
X0038333Y0015244D01*
Y0015355D01*
X0038361Y0015410D01*
X0038416Y0015466D01*
X0038472D01*
X0038528Y0015410D01*
X0038555Y0015355D01*
Y0015244D01*
X0038528Y0015188D01*
X0038472Y0015132D01*
X0038416D01*
X0038046D02*
X0037991Y0015188D01*
X0037963Y0015244D01*
Y0015355D01*
X0037991Y0015410D01*
X0038046Y0015466D01*
X0038102D01*
X0038158Y0015410D01*
X0038185Y0015355D01*
Y0015244D01*
X0038158Y0015188D01*
X0038102Y0015132D01*
X0038046D01*
X0037649D02*
X0037815Y0015466D01*
X0037593D01*
X0037445Y0015188D02*
X0037418Y0015132D01*
X0037251D01*
X0037223Y0015188D01*
Y0015410D01*
X0037251Y0015466D01*
X0037418D01*
X0037445Y0015410D01*
X0040533Y0012373D02*
X0040588Y0012429D01*
X0040644Y0012457D01*
X0040755D01*
X0040810Y0012429D01*
X0040866Y0012373D01*
Y0012318D01*
X0040810Y0012262D01*
X0040755Y0012234D01*
X0040644D01*
X0040588Y0012262D01*
X0040533Y0012318D01*
Y0012373D01*
Y0012743D02*
X0040588Y0012799D01*
X0040644Y0012827D01*
X0040755D01*
X0040810Y0012799D01*
X0040866Y0012743D01*
Y0012688D01*
X0040810Y0012632D01*
X0040755Y0012604D01*
X0040644D01*
X0040588Y0012632D01*
X0040533Y0012688D01*
Y0012743D01*
Y0013113D02*
X0040588Y0013169D01*
X0040644Y0013197D01*
X0040755D01*
X0040810Y0013169D01*
X0040866Y0013113D01*
Y0013058D01*
X0040810Y0013002D01*
X0040755Y0012974D01*
X0040644D01*
X0040588Y0013002D01*
X0040533Y0013058D01*
Y0013113D01*
Y0013483D02*
X0040588Y0013539D01*
X0040644Y0013567D01*
X0040755D01*
X0040810Y0013539D01*
X0040866Y0013483D01*
Y0013428D01*
X0040810Y0013372D01*
X0040755Y0013344D01*
X0040644D01*
X0040588Y0013372D01*
X0040533Y0013428D01*
Y0013483D01*
Y0013853D02*
X0040588Y0013909D01*
X0040644Y0013937D01*
X0040755D01*
X0040810Y0013909D01*
X0040866Y0013853D01*
Y0013798D01*
X0040810Y0013742D01*
X0040755Y0013714D01*
X0040644D01*
X0040588Y0013742D01*
X0040533Y0013798D01*
Y0013853D01*
Y0014223D02*
X0040588Y0014279D01*
X0040644Y0014307D01*
X0040755D01*
X0040810Y0014279D01*
X0040866Y0014223D01*
Y0014168D01*
X0040810Y0014112D01*
X0040755Y0014084D01*
X0040644D01*
X0040588Y0014112D01*
X0040533Y0014168D01*
Y0014223D01*
X0040588Y0014677D02*
X0040533Y0014621D01*
Y0014510D01*
X0040588Y0014454D01*
X0040644D01*
X0040755Y0014566D01*
X0040866Y0014454D01*
Y0014677D01*
X0040588Y0014824D02*
X0040533Y0014852D01*
Y0015019D01*
X0040588Y0015047D01*
X0040810D01*
X0040866Y0015019D01*
Y0014852D01*
X0040810Y0014824D01*
X0039826Y0013833D02*
X0039771Y0013888D01*
X0039743Y0013944D01*
Y0014055D01*
X0039771Y0014110D01*
X0039826Y0014166D01*
X0039882D01*
X0039938Y0014110D01*
X0039965Y0014055D01*
Y0013944D01*
X0039938Y0013888D01*
X0039882Y0013833D01*
X0039826D01*
X0039456D02*
X0039401Y0013888D01*
X0039373Y0013944D01*
Y0014055D01*
X0039401Y0014110D01*
X0039456Y0014166D01*
X0039512D01*
X0039568Y0014110D01*
X0039595Y0014055D01*
Y0013944D01*
X0039568Y0013888D01*
X0039512Y0013833D01*
X0039456D01*
X0039086D02*
X0039031Y0013888D01*
X0039003Y0013944D01*
Y0014055D01*
X0039031Y0014110D01*
X0039086Y0014166D01*
X0039142D01*
X0039198Y0014110D01*
X0039225Y0014055D01*
Y0013944D01*
X0039198Y0013888D01*
X0039142Y0013833D01*
X0039086D01*
X0038716D02*
X0038661Y0013888D01*
X0038633Y0013944D01*
Y0014055D01*
X0038661Y0014110D01*
X0038716Y0014166D01*
X0038772D01*
X0038828Y0014110D01*
X0038855Y0014055D01*
Y0013944D01*
X0038828Y0013888D01*
X0038772Y0013833D01*
X0038716D01*
X0038346D02*
X0038291Y0013888D01*
X0038263Y0013944D01*
Y0014055D01*
X0038291Y0014110D01*
X0038346Y0014166D01*
X0038402D01*
X0038458Y0014110D01*
X0038485Y0014055D01*
Y0013944D01*
X0038458Y0013888D01*
X0038402Y0013833D01*
X0038346D01*
X0037976D02*
X0037921Y0013888D01*
X0037893Y0013944D01*
Y0014055D01*
X0037921Y0014110D01*
X0037976Y0014166D01*
X0038032D01*
X0038088Y0014110D01*
X0038115Y0014055D01*
Y0013944D01*
X0038088Y0013888D01*
X0038032Y0013833D01*
X0037976D01*
X0037551Y0013999D02*
X0037718D01*
X0037745Y0013944D01*
Y0013888D01*
X0037718Y0013833D01*
X0037551D01*
X0037523Y0013888D01*
Y0013944D01*
X0037634Y0014166D01*
X0037375Y0013888D02*
X0037348Y0013833D01*
X0037181D01*
X0037153Y0013888D01*
Y0014110D01*
X0037181Y0014166D01*
X0037348D01*
X0037375Y0014110D01*
X0044126Y0009633D02*
X0044071Y0009688D01*
X0044043Y0009744D01*
Y0009855D01*
X0044071Y0009910D01*
X0044126Y0009966D01*
X0044182D01*
X0044238Y0009910D01*
X0044265Y0009855D01*
Y0009744D01*
X0044238Y0009688D01*
X0044182Y0009633D01*
X0044126D01*
X0043756D02*
X0043701Y0009688D01*
X0043673Y0009744D01*
Y0009855D01*
X0043701Y0009910D01*
X0043756Y0009966D01*
X0043812D01*
X0043868Y0009910D01*
X0043895Y0009855D01*
Y0009744D01*
X0043868Y0009688D01*
X0043812Y0009633D01*
X0043756D01*
X0043386D02*
X0043331Y0009688D01*
X0043303Y0009744D01*
Y0009855D01*
X0043331Y0009910D01*
X0043386Y0009966D01*
X0043442D01*
X0043498Y0009910D01*
X0043525Y0009855D01*
Y0009744D01*
X0043498Y0009688D01*
X0043442Y0009633D01*
X0043386D01*
X0043016D02*
X0042961Y0009688D01*
X0042933Y0009744D01*
Y0009855D01*
X0042961Y0009910D01*
X0043016Y0009966D01*
X0043072D01*
X0043128Y0009910D01*
X0043155Y0009855D01*
Y0009744D01*
X0043128Y0009688D01*
X0043072Y0009633D01*
X0043016D01*
X0042646D02*
X0042591Y0009688D01*
X0042563Y0009744D01*
Y0009855D01*
X0042591Y0009910D01*
X0042646Y0009966D01*
X0042702D01*
X0042758Y0009910D01*
X0042785Y0009855D01*
Y0009744D01*
X0042758Y0009688D01*
X0042702Y0009633D01*
X0042646D01*
X0042276D02*
X0042221Y0009688D01*
X0042193Y0009744D01*
Y0009855D01*
X0042221Y0009910D01*
X0042276Y0009966D01*
X0042332D01*
X0042388Y0009910D01*
X0042415Y0009855D01*
Y0009744D01*
X0042388Y0009688D01*
X0042332Y0009633D01*
X0042276D01*
X0041823Y0009688D02*
X0041851Y0009633D01*
X0042018D01*
X0042045Y0009688D01*
Y0009799D01*
X0041990Y0009855D01*
X0041823D01*
Y0009966D01*
X0042045D01*
X0041675Y0009688D02*
X0041648Y0009633D01*
X0041481D01*
X0041453Y0009688D01*
Y0009910D01*
X0041481Y0009966D01*
X0041648D01*
X0041675Y0009910D01*
X0048001Y0011733D02*
X0047945Y0011788D01*
X0047917Y0011844D01*
Y0011955D01*
X0047945Y0012010D01*
X0048001Y0012066D01*
X0048056D01*
X0048112Y0012010D01*
X0048140Y0011955D01*
Y0011844D01*
X0048112Y0011788D01*
X0048056Y0011733D01*
X0048001D01*
X0047631D02*
X0047575Y0011788D01*
X0047547Y0011844D01*
Y0011955D01*
X0047575Y0012010D01*
X0047631Y0012066D01*
X0047686D01*
X0047742Y0012010D01*
X0047770Y0011955D01*
Y0011844D01*
X0047742Y0011788D01*
X0047686Y0011733D01*
X0047631D01*
X0047261D02*
X0047205Y0011788D01*
X0047177Y0011844D01*
Y0011955D01*
X0047205Y0012010D01*
X0047261Y0012066D01*
X0047316D01*
X0047372Y0012010D01*
X0047400Y0011955D01*
Y0011844D01*
X0047372Y0011788D01*
X0047316Y0011733D01*
X0047261D01*
X0046891D02*
X0046835Y0011788D01*
X0046807Y0011844D01*
Y0011955D01*
X0046835Y0012010D01*
X0046891Y0012066D01*
X0046946D01*
X0047002Y0012010D01*
X0047030Y0011955D01*
Y0011844D01*
X0047002Y0011788D01*
X0046946Y0011733D01*
X0046891D01*
X0046521D02*
X0046465Y0011788D01*
X0046437Y0011844D01*
Y0011955D01*
X0046465Y0012010D01*
X0046521Y0012066D01*
X0046576D01*
X0046632Y0012010D01*
X0046660Y0011955D01*
Y0011844D01*
X0046632Y0011788D01*
X0046576Y0011733D01*
X0046521D01*
X0046151D02*
X0046095Y0011788D01*
X0046067Y0011844D01*
Y0011955D01*
X0046095Y0012010D01*
X0046151Y0012066D01*
X0046206D01*
X0046262Y0012010D01*
X0046290Y0011955D01*
Y0011844D01*
X0046262Y0011788D01*
X0046206Y0011733D01*
X0046151D01*
X0045920D02*
X0045809D01*
X0045864D02*
Y0012066D01*
X0045809Y0012010D01*
X0045522Y0011899D02*
X0045605Y0011733D01*
X0045383Y0011899D02*
X0045550D01*
X0045605Y0011955D01*
Y0012010D01*
X0045550Y0012066D01*
X0045383D01*
Y0011733D01*
X0038083Y0011367D02*
X0038139Y0011312D01*
X0038167Y0011256D01*
Y0011145D01*
X0038139Y0011089D01*
X0038083Y0011034D01*
X0038028D01*
X0037972Y0011089D01*
X0037944Y0011145D01*
Y0011256D01*
X0037972Y0011312D01*
X0038028Y0011367D01*
X0038083D01*
X0038453D02*
X0038509Y0011312D01*
X0038537Y0011256D01*
Y0011145D01*
X0038509Y0011089D01*
X0038453Y0011034D01*
X0038398D01*
X0038342Y0011089D01*
X0038314Y0011145D01*
Y0011256D01*
X0038342Y0011312D01*
X0038398Y0011367D01*
X0038453D01*
X0038823D02*
X0038879Y0011312D01*
X0038907Y0011256D01*
Y0011145D01*
X0038879Y0011089D01*
X0038823Y0011034D01*
X0038768D01*
X0038712Y0011089D01*
X0038684Y0011145D01*
Y0011256D01*
X0038712Y0011312D01*
X0038768Y0011367D01*
X0038823D01*
X0039054D02*
X0039277D01*
X0039054Y0011145D01*
Y0011089D01*
X0039082Y0011034D01*
X0039249D01*
X0039277Y0011089D01*
X0039508Y0011201D02*
X0039424Y0011367D01*
X0039647Y0011201D02*
X0039480D01*
X0039424Y0011145D01*
Y0011089D01*
X0039480Y0011034D01*
X0039647D01*
Y0011367D01*
X0038083Y0010367D02*
X0038139Y0010312D01*
X0038167Y0010256D01*
Y0010145D01*
X0038139Y0010089D01*
X0038083Y0010034D01*
X0038028D01*
X0037972Y0010089D01*
X0037944Y0010145D01*
Y0010256D01*
X0037972Y0010312D01*
X0038028Y0010367D01*
X0038083D01*
X0038453D02*
X0038509Y0010312D01*
X0038537Y0010256D01*
Y0010145D01*
X0038509Y0010089D01*
X0038453Y0010034D01*
X0038398D01*
X0038342Y0010089D01*
X0038314Y0010145D01*
Y0010256D01*
X0038342Y0010312D01*
X0038398Y0010367D01*
X0038453D01*
X0038823D02*
X0038879Y0010312D01*
X0038907Y0010256D01*
Y0010145D01*
X0038879Y0010089D01*
X0038823Y0010034D01*
X0038768D01*
X0038712Y0010089D01*
X0038684Y0010145D01*
Y0010256D01*
X0038712Y0010312D01*
X0038768Y0010367D01*
X0038823D01*
X0039277Y0010312D02*
X0039221Y0010367D01*
X0039110D01*
X0039054Y0010312D01*
Y0010256D01*
X0039166Y0010145D01*
X0039054Y0010034D01*
X0039277D01*
X0039508Y0010201D02*
X0039424Y0010367D01*
X0039647Y0010201D02*
X0039480D01*
X0039424Y0010145D01*
Y0010089D01*
X0039480Y0010034D01*
X0039647D01*
Y0010367D01*
X0038083Y0009367D02*
X0038139Y0009312D01*
X0038167Y0009256D01*
Y0009145D01*
X0038139Y0009089D01*
X0038083Y0009034D01*
X0038028D01*
X0037972Y0009089D01*
X0037944Y0009145D01*
Y0009256D01*
X0037972Y0009312D01*
X0038028Y0009367D01*
X0038083D01*
X0038453D02*
X0038509Y0009312D01*
X0038537Y0009256D01*
Y0009145D01*
X0038509Y0009089D01*
X0038453Y0009034D01*
X0038398D01*
X0038342Y0009089D01*
X0038314Y0009145D01*
Y0009256D01*
X0038342Y0009312D01*
X0038398Y0009367D01*
X0038453D01*
X0038823D02*
X0038879Y0009312D01*
X0038907Y0009256D01*
Y0009145D01*
X0038879Y0009089D01*
X0038823Y0009034D01*
X0038768D01*
X0038712Y0009089D01*
X0038684Y0009145D01*
Y0009256D01*
X0038712Y0009312D01*
X0038768Y0009367D01*
X0038823D01*
X0039054Y0009256D02*
X0039277D01*
X0039166Y0009034D01*
X0039110D01*
Y0009367D01*
X0039508Y0009201D02*
X0039424Y0009367D01*
X0039647Y0009201D02*
X0039480D01*
X0039424Y0009145D01*
Y0009089D01*
X0039480Y0009034D01*
X0039647D01*
Y0009367D01*
X0045713Y0008767D02*
X0045769Y0008712D01*
X0045797Y0008656D01*
Y0008545D01*
X0045769Y0008489D01*
X0045713Y0008434D01*
X0045658D01*
X0045602Y0008489D01*
X0045574Y0008545D01*
Y0008656D01*
X0045602Y0008712D01*
X0045658Y0008767D01*
X0045713D01*
X0046083D02*
X0046139Y0008712D01*
X0046167Y0008656D01*
Y0008545D01*
X0046139Y0008489D01*
X0046083Y0008434D01*
X0046028D01*
X0045972Y0008489D01*
X0045944Y0008545D01*
Y0008656D01*
X0045972Y0008712D01*
X0046028Y0008767D01*
X0046083D01*
X0046453D02*
X0046509Y0008712D01*
X0046537Y0008656D01*
Y0008545D01*
X0046509Y0008489D01*
X0046453Y0008434D01*
X0046398D01*
X0046342Y0008489D01*
X0046314Y0008545D01*
Y0008656D01*
X0046342Y0008712D01*
X0046398Y0008767D01*
X0046453D01*
X0046907Y0008712D02*
X0046879Y0008767D01*
X0046712D01*
X0046684Y0008712D01*
Y0008601D01*
X0046740Y0008545D01*
X0046907D01*
Y0008434D01*
X0046684D01*
X0047138Y0008601D02*
X0047054Y0008767D01*
X0047277Y0008601D02*
X0047110D01*
X0047054Y0008545D01*
Y0008489D01*
X0047110Y0008434D01*
X0047277D01*
Y0008767D01*
X0045713Y0009667D02*
X0045769Y0009612D01*
X0045797Y0009556D01*
Y0009445D01*
X0045769Y0009389D01*
X0045713Y0009334D01*
X0045658D01*
X0045602Y0009389D01*
X0045574Y0009445D01*
Y0009556D01*
X0045602Y0009612D01*
X0045658Y0009667D01*
X0045713D01*
X0046083D02*
X0046139Y0009612D01*
X0046167Y0009556D01*
Y0009445D01*
X0046139Y0009389D01*
X0046083Y0009334D01*
X0046028D01*
X0045972Y0009389D01*
X0045944Y0009445D01*
Y0009556D01*
X0045972Y0009612D01*
X0046028Y0009667D01*
X0046083D01*
X0046453D02*
X0046509Y0009612D01*
X0046537Y0009556D01*
Y0009445D01*
X0046509Y0009389D01*
X0046453Y0009334D01*
X0046398D01*
X0046342Y0009389D01*
X0046314Y0009445D01*
Y0009556D01*
X0046342Y0009612D01*
X0046398Y0009667D01*
X0046453D01*
X0046879Y0009501D02*
X0046712D01*
X0046684Y0009556D01*
Y0009612D01*
X0046712Y0009667D01*
X0046879D01*
X0046907Y0009612D01*
Y0009556D01*
X0046796Y0009334D01*
X0047138Y0009501D02*
X0047054Y0009667D01*
X0047277Y0009501D02*
X0047110D01*
X0047054Y0009445D01*
Y0009389D01*
X0047110Y0009334D01*
X0047277D01*
Y0009667D01*
X0046946Y0012633D02*
X0046891Y0012688D01*
X0046863Y0012744D01*
Y0012855D01*
X0046891Y0012910D01*
X0046946Y0012966D01*
X0047002D01*
X0047058Y0012910D01*
X0047085Y0012855D01*
Y0012744D01*
X0047058Y0012688D01*
X0047002Y0012633D01*
X0046946D01*
X0046576D02*
X0046521Y0012688D01*
X0046493Y0012744D01*
Y0012855D01*
X0046521Y0012910D01*
X0046576Y0012966D01*
X0046632D01*
X0046688Y0012910D01*
X0046715Y0012855D01*
Y0012744D01*
X0046688Y0012688D01*
X0046632Y0012633D01*
X0046576D01*
X0046206D02*
X0046151Y0012688D01*
X0046123Y0012744D01*
Y0012855D01*
X0046151Y0012910D01*
X0046206Y0012966D01*
X0046262D01*
X0046318Y0012910D01*
X0046345Y0012855D01*
Y0012744D01*
X0046318Y0012688D01*
X0046262Y0012633D01*
X0046206D01*
X0045809D02*
X0045975Y0012966D01*
X0045753D01*
X0045522Y0012799D02*
X0045605Y0012633D01*
X0045383Y0012799D02*
X0045550D01*
X0045605Y0012855D01*
Y0012910D01*
X0045550Y0012966D01*
X0045383D01*
Y0012633D01*
X0046946Y0013533D02*
X0046891Y0013588D01*
X0046863Y0013644D01*
Y0013755D01*
X0046891Y0013810D01*
X0046946Y0013866D01*
X0047002D01*
X0047058Y0013810D01*
X0047085Y0013755D01*
Y0013644D01*
X0047058Y0013588D01*
X0047002Y0013533D01*
X0046946D01*
X0046576D02*
X0046521Y0013588D01*
X0046493Y0013644D01*
Y0013755D01*
X0046521Y0013810D01*
X0046576Y0013866D01*
X0046632D01*
X0046688Y0013810D01*
X0046715Y0013755D01*
Y0013644D01*
X0046688Y0013588D01*
X0046632Y0013533D01*
X0046576D01*
X0046206D02*
X0046151Y0013588D01*
X0046123Y0013644D01*
Y0013755D01*
X0046151Y0013810D01*
X0046206Y0013866D01*
X0046262D01*
X0046318Y0013810D01*
X0046345Y0013755D01*
Y0013644D01*
X0046318Y0013588D01*
X0046262Y0013533D01*
X0046206D01*
X0045948Y0013699D02*
X0045975Y0013755D01*
Y0013810D01*
X0045948Y0013866D01*
X0045781D01*
X0045753Y0013810D01*
Y0013755D01*
X0045781Y0013699D01*
X0045948D01*
X0045975Y0013644D01*
Y0013588D01*
X0045948Y0013533D01*
X0045781D01*
X0045753Y0013588D01*
Y0013644D01*
X0045781Y0013699D01*
X0045522D02*
X0045605Y0013533D01*
X0045383Y0013699D02*
X0045550D01*
X0045605Y0013755D01*
Y0013810D01*
X0045550Y0013866D01*
X0045383D01*
Y0013533D01*
X0042802Y0003692D02*
X0042858Y0003636D01*
X0042969D01*
X0043025Y0003692D01*
Y0003747D01*
X0042913Y0003858D01*
X0043025Y0003969D01*
X0042802D01*
X0042655D02*
Y0003692D01*
X0042627Y0003636D01*
X0042460D01*
X0042432Y0003692D01*
Y0003969D01*
X0037649Y0007332D02*
X0037815Y0007666D01*
X0037593D01*
X0037445Y0007388D02*
X0037418Y0007332D01*
X0037251D01*
X0037223Y0007388D01*
Y0007610D01*
X0037251Y0007666D01*
X0037418D01*
X0037445Y0007610D01*
X0044167Y0007216D02*
X0044112Y0007161D01*
X0044056Y0007133D01*
X0043945D01*
X0043889Y0007161D01*
X0043834Y0007216D01*
Y0007272D01*
X0043889Y0007328D01*
X0043945Y0007355D01*
X0044056D01*
X0044112Y0007328D01*
X0044167Y0007272D01*
Y0007216D01*
Y0006846D02*
X0044112Y0006791D01*
X0044056Y0006763D01*
X0043945D01*
X0043889Y0006791D01*
X0043834Y0006846D01*
Y0006902D01*
X0043889Y0006958D01*
X0043945Y0006985D01*
X0044056D01*
X0044112Y0006958D01*
X0044167Y0006902D01*
Y0006846D01*
Y0006476D02*
X0044112Y0006421D01*
X0044056Y0006393D01*
X0043945D01*
X0043889Y0006421D01*
X0043834Y0006476D01*
Y0006532D01*
X0043889Y0006588D01*
X0043945Y0006615D01*
X0044056D01*
X0044112Y0006588D01*
X0044167Y0006532D01*
Y0006476D01*
Y0006245D02*
Y0006023D01*
X0043945Y0006245D01*
X0043889D01*
X0043834Y0006218D01*
Y0006051D01*
X0043889Y0006023D01*
X0044112Y0005875D02*
X0044167Y0005848D01*
Y0005681D01*
X0044112Y0005653D01*
X0043889D01*
X0043834Y0005681D01*
Y0005848D01*
X0043889Y0005875D01*
X0040533Y0005683D02*
X0040588Y0005739D01*
X0040644Y0005767D01*
X0040755D01*
X0040810Y0005739D01*
X0040866Y0005683D01*
Y0005628D01*
X0040810Y0005572D01*
X0040755Y0005544D01*
X0040644D01*
X0040588Y0005572D01*
X0040533Y0005628D01*
Y0005683D01*
Y0006053D02*
X0040588Y0006109D01*
X0040644Y0006137D01*
X0040755D01*
X0040810Y0006109D01*
X0040866Y0006053D01*
Y0005998D01*
X0040810Y0005942D01*
X0040755Y0005914D01*
X0040644D01*
X0040588Y0005942D01*
X0040533Y0005998D01*
Y0006053D01*
Y0006423D02*
X0040588Y0006479D01*
X0040644Y0006507D01*
X0040755D01*
X0040810Y0006479D01*
X0040866Y0006423D01*
Y0006368D01*
X0040810Y0006312D01*
X0040755Y0006284D01*
X0040644D01*
X0040588Y0006312D01*
X0040533Y0006368D01*
Y0006423D01*
X0040588Y0006877D02*
X0040533Y0006821D01*
Y0006710D01*
X0040588Y0006654D01*
X0040644D01*
X0040755Y0006766D01*
X0040866Y0006654D01*
Y0006877D01*
X0040588Y0007024D02*
X0040533Y0007052D01*
Y0007219D01*
X0040588Y0007247D01*
X0040810D01*
X0040866Y0007219D01*
Y0007052D01*
X0040810Y0007024D01*
X0038716Y0006033D02*
X0038661Y0006088D01*
X0038633Y0006144D01*
Y0006255D01*
X0038661Y0006310D01*
X0038716Y0006366D01*
X0038772D01*
X0038828Y0006310D01*
X0038855Y0006255D01*
Y0006144D01*
X0038828Y0006088D01*
X0038772Y0006033D01*
X0038716D01*
X0038346D02*
X0038291Y0006088D01*
X0038263Y0006144D01*
Y0006255D01*
X0038291Y0006310D01*
X0038346Y0006366D01*
X0038402D01*
X0038458Y0006310D01*
X0038485Y0006255D01*
Y0006144D01*
X0038458Y0006088D01*
X0038402Y0006033D01*
X0038346D01*
X0037976D02*
X0037921Y0006088D01*
X0037893Y0006144D01*
Y0006255D01*
X0037921Y0006310D01*
X0037976Y0006366D01*
X0038032D01*
X0038088Y0006310D01*
X0038115Y0006255D01*
Y0006144D01*
X0038088Y0006088D01*
X0038032Y0006033D01*
X0037976D01*
X0037551Y0006199D02*
X0037718D01*
X0037745Y0006144D01*
Y0006088D01*
X0037718Y0006033D01*
X0037551D01*
X0037523Y0006088D01*
Y0006144D01*
X0037634Y0006366D01*
X0037375Y0006088D02*
X0037348Y0006033D01*
X0037181D01*
X0037153Y0006088D01*
Y0006310D01*
X0037181Y0006366D01*
X0037348D01*
X0037375Y0006310D01*
X0043016Y0001833D02*
X0042961Y0001888D01*
X0042933Y0001944D01*
Y0002055D01*
X0042961Y0002110D01*
X0043016Y0002166D01*
X0043072D01*
X0043128Y0002110D01*
X0043155Y0002055D01*
Y0001944D01*
X0043128Y0001888D01*
X0043072Y0001833D01*
X0043016D01*
X0042646D02*
X0042591Y0001888D01*
X0042563Y0001944D01*
Y0002055D01*
X0042591Y0002110D01*
X0042646Y0002166D01*
X0042702D01*
X0042758Y0002110D01*
X0042785Y0002055D01*
Y0001944D01*
X0042758Y0001888D01*
X0042702Y0001833D01*
X0042646D01*
X0042276D02*
X0042221Y0001888D01*
X0042193Y0001944D01*
Y0002055D01*
X0042221Y0002110D01*
X0042276Y0002166D01*
X0042332D01*
X0042388Y0002110D01*
X0042415Y0002055D01*
Y0001944D01*
X0042388Y0001888D01*
X0042332Y0001833D01*
X0042276D01*
X0041823Y0001888D02*
X0041851Y0001833D01*
X0042018D01*
X0042045Y0001888D01*
Y0001999D01*
X0041990Y0002055D01*
X0041823D01*
Y0002166D01*
X0042045D01*
X0041675Y0001888D02*
X0041648Y0001833D01*
X0041481D01*
X0041453Y0001888D01*
Y0002110D01*
X0041481Y0002166D01*
X0041648D01*
X0041675Y0002110D01*
X0045727Y0007246D02*
X0045672Y0007191D01*
X0045616Y0007163D01*
X0045505D01*
X0045449Y0007191D01*
X0045394Y0007246D01*
Y0007302D01*
X0045449Y0007358D01*
X0045505Y0007385D01*
X0045616D01*
X0045672Y0007358D01*
X0045727Y0007302D01*
Y0007246D01*
Y0006876D02*
X0045672Y0006821D01*
X0045616Y0006793D01*
X0045505D01*
X0045449Y0006821D01*
X0045394Y0006876D01*
Y0006932D01*
X0045449Y0006988D01*
X0045505Y0007015D01*
X0045616D01*
X0045672Y0006988D01*
X0045727Y0006932D01*
Y0006876D01*
Y0006506D02*
X0045672Y0006451D01*
X0045616Y0006423D01*
X0045505D01*
X0045449Y0006451D01*
X0045394Y0006506D01*
Y0006562D01*
X0045449Y0006618D01*
X0045505Y0006645D01*
X0045616D01*
X0045672Y0006618D01*
X0045727Y0006562D01*
Y0006506D01*
X0045616Y0006275D02*
Y0006053D01*
X0045394Y0006164D01*
Y0006220D01*
X0045727D01*
X0045672Y0005905D02*
X0045727Y0005878D01*
Y0005711D01*
X0045672Y0005683D01*
X0045449D01*
X0045394Y0005711D01*
Y0005878D01*
X0045449Y0005905D01*
X0046891Y0003933D02*
X0046835Y0003988D01*
X0046807Y0004044D01*
Y0004155D01*
X0046835Y0004210D01*
X0046891Y0004266D01*
X0046946D01*
X0047002Y0004210D01*
X0047030Y0004155D01*
Y0004044D01*
X0047002Y0003988D01*
X0046946Y0003933D01*
X0046891D01*
X0046521D02*
X0046465Y0003988D01*
X0046437Y0004044D01*
Y0004155D01*
X0046465Y0004210D01*
X0046521Y0004266D01*
X0046576D01*
X0046632Y0004210D01*
X0046660Y0004155D01*
Y0004044D01*
X0046632Y0003988D01*
X0046576Y0003933D01*
X0046521D01*
X0046151D02*
X0046095Y0003988D01*
X0046067Y0004044D01*
Y0004155D01*
X0046095Y0004210D01*
X0046151Y0004266D01*
X0046206D01*
X0046262Y0004210D01*
X0046290Y0004155D01*
Y0004044D01*
X0046262Y0003988D01*
X0046206Y0003933D01*
X0046151D01*
X0045920D02*
X0045809D01*
X0045864D02*
Y0004266D01*
X0045809Y0004210D01*
X0045522Y0004099D02*
X0045605Y0003933D01*
X0045383Y0004099D02*
X0045550D01*
X0045605Y0004155D01*
Y0004210D01*
X0045550Y0004266D01*
X0045383D01*
Y0003933D01*
X0039054Y0003567D02*
X0039277D01*
X0039054Y0003345D01*
Y0003289D01*
X0039082Y0003234D01*
X0039249D01*
X0039277Y0003289D01*
X0039508Y0003401D02*
X0039424Y0003567D01*
X0039647Y0003401D02*
X0039480D01*
X0039424Y0003345D01*
Y0003289D01*
X0039480Y0003234D01*
X0039647D01*
Y0003567D01*
X0039277Y0002512D02*
X0039221Y0002567D01*
X0039110D01*
X0039054Y0002512D01*
Y0002456D01*
X0039166Y0002345D01*
X0039054Y0002234D01*
X0039277D01*
X0039508Y0002401D02*
X0039424Y0002567D01*
X0039647Y0002401D02*
X0039480D01*
X0039424Y0002345D01*
Y0002289D01*
X0039480Y0002234D01*
X0039647D01*
Y0002567D01*
X0039054Y0001456D02*
X0039277D01*
X0039166Y0001234D01*
X0039110D01*
Y0001567D01*
X0039508Y0001401D02*
X0039424Y0001567D01*
X0039647Y0001401D02*
X0039480D01*
X0039424Y0001345D01*
Y0001289D01*
X0039480Y0001234D01*
X0039647D01*
Y0001567D01*
X0046907Y0000912D02*
X0046879Y0000967D01*
X0046712D01*
X0046684Y0000912D01*
Y0000801D01*
X0046740Y0000745D01*
X0046907D01*
Y0000634D01*
X0046684D01*
X0047138Y0000801D02*
X0047054Y0000967D01*
X0047277Y0000801D02*
X0047110D01*
X0047054Y0000745D01*
Y0000689D01*
X0047110Y0000634D01*
X0047277D01*
Y0000967D01*
X0046879Y0001701D02*
X0046712D01*
X0046684Y0001756D01*
Y0001812D01*
X0046712Y0001867D01*
X0046879D01*
X0046907Y0001812D01*
Y0001756D01*
X0046796Y0001534D01*
X0047138Y0001701D02*
X0047054Y0001867D01*
X0047277Y0001701D02*
X0047110D01*
X0047054Y0001645D01*
Y0001589D01*
X0047110Y0001534D01*
X0047277D01*
Y0001867D01*
X0045809Y0004833D02*
X0045975Y0005166D01*
X0045753D01*
X0045522Y0004999D02*
X0045605Y0004833D01*
X0045383Y0004999D02*
X0045550D01*
X0045605Y0005055D01*
Y0005110D01*
X0045550Y0005166D01*
X0045383D01*
Y0004833D01*
X0045948Y0005899D02*
X0045975Y0005955D01*
Y0006010D01*
X0045948Y0006066D01*
X0045781D01*
X0045753Y0006010D01*
Y0005955D01*
X0045781Y0005899D01*
X0045948D01*
X0045975Y0005844D01*
Y0005788D01*
X0045948Y0005733D01*
X0045781D01*
X0045753Y0005788D01*
Y0005844D01*
X0045781Y0005899D01*
X0045522D02*
X0045605Y0005733D01*
X0045383Y0005899D02*
X0045550D01*
X0045605Y0005955D01*
Y0006010D01*
X0045550Y0006066D01*
X0045383D01*
Y0005733D01*
X0019241Y0006467D02*
X0019297Y0006523D01*
X0019353Y0006551D01*
X0019464D01*
X0019519Y0006523D01*
X0019575Y0006467D01*
Y0006412D01*
X0019519Y0006356D01*
X0019464Y0006328D01*
X0019353D01*
X0019297Y0006356D01*
X0019241Y0006412D01*
Y0006467D01*
Y0006698D02*
Y0006921D01*
X0019464Y0006698D01*
X0019519D01*
X0019575Y0006726D01*
Y0006893D01*
X0019519Y0006921D01*
X0019408Y0007152D02*
X0019241Y0007068D01*
X0019408Y0007291D02*
Y0007124D01*
X0019464Y0007068D01*
X0019519D01*
X0019575Y0007124D01*
Y0007291D01*
X0019241D01*
X0020320Y0004069D02*
X0019987Y0004236D01*
Y0004014D01*
X0020209Y0003672D02*
X0020264D01*
X0020320Y0003699D01*
Y0003811D01*
X0020264Y0003838D01*
X0019987D01*
Y0003866D02*
Y0003755D01*
X0018241Y0039754D02*
Y0039865D01*
Y0039810D02*
X0018575D01*
X0018519Y0039865D01*
X0018408Y0040152D02*
X0018241Y0040068D01*
X0018408Y0040291D02*
Y0040124D01*
X0018464Y0040068D01*
X0018519D01*
X0018575Y0040124D01*
Y0040291D01*
X0018241D01*
X0021297Y0044106D02*
X0021241Y0044051D01*
Y0043940D01*
X0021297Y0043884D01*
X0021353D01*
X0021464Y0043995D01*
X0021575Y0043884D01*
Y0044106D01*
X0021241Y0044254D02*
Y0044365D01*
Y0044310D02*
X0021575D01*
X0021519Y0044365D01*
X0021408Y0044652D02*
X0021241Y0044568D01*
X0021408Y0044791D02*
Y0044624D01*
X0021464Y0044568D01*
X0021519D01*
X0021575Y0044624D01*
Y0044791D01*
X0021241D01*
X0008908Y0013079D02*
Y0012912D01*
X0008853Y0012884D01*
X0008797D01*
X0008741Y0012912D01*
Y0013079D01*
X0008797Y0013106D01*
X0008853D01*
X0009075Y0012995D01*
X0008741Y0013254D02*
Y0013365D01*
Y0013310D02*
X0009075D01*
X0009019Y0013365D01*
X0008908Y0013652D02*
X0008741Y0013568D01*
X0008908Y0013791D02*
Y0013624D01*
X0008964Y0013568D01*
X0009019D01*
X0009075Y0013624D01*
Y0013791D01*
X0008741D01*
X0012469Y0013444D02*
X0012636Y0013777D01*
X0012413D01*
X0012266Y0013444D02*
X0012155D01*
X0012210D02*
Y0013777D01*
X0012155Y0013721D01*
X0011868Y0013610D02*
X0011951Y0013444D01*
X0011729Y0013610D02*
X0011896D01*
X0011951Y0013666D01*
Y0013721D01*
X0011896Y0013777D01*
X0011729D01*
Y0013444D01*
X0023408Y0010412D02*
X0023464Y0010384D01*
X0023519D01*
X0023575Y0010412D01*
Y0010579D01*
X0023519Y0010606D01*
X0023464D01*
X0023408Y0010579D01*
Y0010412D01*
X0023353Y0010384D01*
X0023297D01*
X0023241Y0010412D01*
Y0010579D01*
X0023297Y0010606D01*
X0023353D01*
X0023408Y0010579D01*
X0023241Y0010754D02*
Y0010865D01*
Y0010810D02*
X0023575D01*
X0023519Y0010865D01*
X0023408Y0011152D02*
X0023241Y0011068D01*
X0023408Y0011291D02*
Y0011124D01*
X0023464Y0011068D01*
X0023519D01*
X0023575Y0011124D01*
Y0011291D01*
X0023241D01*
X0019408Y0014412D02*
Y0014579D01*
X0019464Y0014606D01*
X0019519D01*
X0019575Y0014579D01*
Y0014412D01*
X0019519Y0014384D01*
X0019464D01*
X0019241Y0014495D01*
Y0014754D02*
Y0014865D01*
Y0014810D02*
X0019575D01*
X0019519Y0014865D01*
X0019408Y0015152D02*
X0019241Y0015068D01*
X0019408Y0015291D02*
Y0015124D01*
X0019464Y0015068D01*
X0019519D01*
X0019575Y0015124D01*
Y0015291D01*
X0019241D01*
X0039130Y0006225D02*
Y0007275D01*
X0037150D01*
Y0006225D01*
X0039130D01*
X0045125Y0007370D02*
X0044375D01*
Y0005770D01*
X0045125D01*
Y0007370D01*
X0039575Y0005530D02*
X0040325D01*
Y0007130D01*
X0039575D01*
Y0005530D01*
X0038870Y0005075D02*
Y0005825D01*
X0037270D01*
Y0005075D01*
X0038870D01*
X0043170Y0000875D02*
Y0001625D01*
X0041570D01*
Y0000875D01*
X0043170D01*
X0046685Y0007400D02*
X0045935D01*
Y0005800D01*
X0046685D01*
Y0007400D01*
X0039130Y0014025D02*
Y0015075D01*
X0037150D01*
Y0014025D01*
X0039130D01*
X0045125Y0015170D02*
X0044375D01*
Y0013570D01*
X0045125D01*
Y0015170D01*
X0039575Y0013330D02*
X0040325D01*
Y0014930D01*
X0039575D01*
Y0013330D01*
X0038870Y0012875D02*
Y0013625D01*
X0037270D01*
Y0012875D01*
X0038870D01*
X0043170Y0008675D02*
Y0009425D01*
X0041570D01*
Y0008675D01*
X0043170D01*
X0046685Y0015200D02*
X0045935D01*
Y0013600D01*
X0046685D01*
Y0015200D01*
G54D66*
G01X0044326Y0025526D02*
Y0025693D01*
X0044381Y0025721D01*
X0044437D01*
X0044492Y0025693D01*
Y0025526D01*
X0044437Y0025499D01*
X0044381D01*
X0044159Y0025610D01*
X0044492Y0025311D02*
Y0025200D01*
Y0025255D02*
X0044159D01*
X0044214Y0025200D01*
X0044326Y0024873D02*
X0044492Y0024957D01*
X0044326Y0024734D02*
Y0024901D01*
X0044270Y0024957D01*
X0044214D01*
X0044159Y0024901D01*
Y0024734D01*
X0044492D01*
X0044326Y0024491D02*
Y0024324D01*
X0044492Y0024547D02*
Y0024324D01*
X0044159D01*
Y0024547D01*
X0044492Y0023942D02*
X0044159D01*
X0044492Y0023914D02*
Y0024081D01*
X0044381Y0024137D01*
X0044270D01*
X0044159Y0024081D01*
Y0023914D01*
X0044381Y0023727D02*
Y0023504D01*
X0044492Y0023727D02*
X0044326D01*
X0044159Y0023643D01*
Y0023588D01*
X0044326Y0023504D01*
X0044492D01*
X0044326Y0023261D02*
Y0023094D01*
X0044492Y0023317D02*
Y0023094D01*
X0044159D01*
Y0023317D01*
X0044326Y0022907D02*
Y0022684D01*
X0044492Y0022907D02*
X0044159D01*
X0044492Y0022684D02*
X0044159D01*
X0044603Y0022497D02*
Y0022274D01*
X0044159Y0022087D02*
X0044492D01*
X0044437Y0022031D01*
X0044214Y0021920D01*
X0044159Y0021864D01*
X0044492D01*
Y0021677D02*
X0044159D01*
X0044214Y0021621D01*
X0044326Y0021565D01*
X0044214Y0021510D01*
X0044159Y0021454D01*
X0044492D01*
X0034889Y0010527D02*
X0034944Y0010582D01*
X0035000Y0010610D01*
X0035111D01*
X0035167Y0010582D01*
X0035222Y0010527D01*
Y0010471D01*
X0035167Y0010416D01*
X0035111Y0010388D01*
X0035000D01*
X0034944Y0010416D01*
X0034889Y0010471D01*
Y0010527D01*
Y0010937D02*
X0034944Y0010992D01*
X0035000Y0011020D01*
X0035111D01*
X0035167Y0010992D01*
X0035222Y0010937D01*
Y0010881D01*
X0035167Y0010826D01*
X0035111Y0010798D01*
X0035000D01*
X0034944Y0010826D01*
X0034889Y0010881D01*
Y0010937D01*
Y0011347D02*
X0034944Y0011402D01*
X0035000Y0011430D01*
X0035111D01*
X0035167Y0011402D01*
X0035222Y0011347D01*
Y0011291D01*
X0035167Y0011236D01*
X0035111Y0011208D01*
X0035000D01*
X0034944Y0011236D01*
X0034889Y0011291D01*
Y0011347D01*
Y0011618D02*
Y0011840D01*
X0035111Y0011618D01*
X0035167D01*
X0035222Y0011646D01*
Y0011812D01*
X0035167Y0011840D01*
X0035000Y0012222D02*
X0034944D01*
X0034889Y0012194D01*
Y0012083D01*
X0034944Y0012056D01*
X0035222D01*
Y0012028D02*
Y0012139D01*
X0037147Y0015189D02*
X0037092Y0015244D01*
X0037064Y0015300D01*
Y0015411D01*
X0037092Y0015467D01*
X0037147Y0015522D01*
X0037203D01*
X0037259Y0015467D01*
X0037286Y0015411D01*
Y0015300D01*
X0037259Y0015244D01*
X0037203Y0015189D01*
X0037147D01*
X0036737D02*
X0036682Y0015244D01*
X0036654Y0015300D01*
Y0015411D01*
X0036682Y0015467D01*
X0036737Y0015522D01*
X0036793D01*
X0036849Y0015467D01*
X0036876Y0015411D01*
Y0015300D01*
X0036849Y0015244D01*
X0036793Y0015189D01*
X0036737D01*
X0036327D02*
X0036272Y0015244D01*
X0036244Y0015300D01*
Y0015411D01*
X0036272Y0015467D01*
X0036327Y0015522D01*
X0036383D01*
X0036439Y0015467D01*
X0036466Y0015411D01*
Y0015300D01*
X0036439Y0015244D01*
X0036383Y0015189D01*
X0036327D01*
X0035917D02*
X0035862Y0015244D01*
X0035834Y0015300D01*
Y0015411D01*
X0035862Y0015467D01*
X0035917Y0015522D01*
X0035973D01*
X0036029Y0015467D01*
X0036056Y0015411D01*
Y0015300D01*
X0036029Y0015244D01*
X0035973Y0015189D01*
X0035917D01*
X0035507D02*
X0035452Y0015244D01*
X0035424Y0015300D01*
Y0015411D01*
X0035452Y0015467D01*
X0035507Y0015522D01*
X0035563D01*
X0035619Y0015467D01*
X0035646Y0015411D01*
Y0015300D01*
X0035619Y0015244D01*
X0035563Y0015189D01*
X0035507D01*
X0035097D02*
X0035042Y0015244D01*
X0035014Y0015300D01*
Y0015411D01*
X0035042Y0015467D01*
X0035097Y0015522D01*
X0035153D01*
X0035209Y0015467D01*
X0035236Y0015411D01*
Y0015300D01*
X0035209Y0015244D01*
X0035153Y0015189D01*
X0035097D01*
X0034826D02*
X0034715D01*
X0034771D02*
Y0015522D01*
X0034715Y0015467D01*
X0034278Y0015300D02*
Y0015244D01*
X0034305Y0015189D01*
X0034417D01*
X0034444Y0015244D01*
Y0015522D01*
X0034472D02*
X0034361D01*
X0034889Y0003818D02*
Y0004040D01*
X0035111Y0003818D01*
X0035167D01*
X0035222Y0003846D01*
Y0004012D01*
X0035167Y0004040D01*
X0035000Y0004422D02*
X0034944D01*
X0034889Y0004394D01*
Y0004283D01*
X0034944Y0004256D01*
X0035222D01*
Y0004228D02*
Y0004339D01*
X0035917Y0007389D02*
X0035862Y0007444D01*
X0035834Y0007500D01*
Y0007611D01*
X0035862Y0007667D01*
X0035917Y0007722D01*
X0035973D01*
X0036029Y0007667D01*
X0036056Y0007611D01*
Y0007500D01*
X0036029Y0007444D01*
X0035973Y0007389D01*
X0035917D01*
X0035507D02*
X0035452Y0007444D01*
X0035424Y0007500D01*
Y0007611D01*
X0035452Y0007667D01*
X0035507Y0007722D01*
X0035563D01*
X0035619Y0007667D01*
X0035646Y0007611D01*
Y0007500D01*
X0035619Y0007444D01*
X0035563Y0007389D01*
X0035507D01*
X0035097D02*
X0035042Y0007444D01*
X0035014Y0007500D01*
Y0007611D01*
X0035042Y0007667D01*
X0035097Y0007722D01*
X0035153D01*
X0035209Y0007667D01*
X0035236Y0007611D01*
Y0007500D01*
X0035209Y0007444D01*
X0035153Y0007389D01*
X0035097D01*
X0034826D02*
X0034715D01*
X0034771D02*
Y0007722D01*
X0034715Y0007667D01*
X0034278Y0007500D02*
Y0007444D01*
X0034305Y0007389D01*
X0034417D01*
X0034444Y0007444D01*
Y0007722D01*
X0034472D02*
X0034361D01*
X0037848Y0043701D02*
X0037682D01*
X0037654Y0043756D01*
Y0043812D01*
X0037682Y0043867D01*
X0037848D01*
X0037876Y0043812D01*
Y0043756D01*
X0037765Y0043534D01*
X0038064Y0043867D02*
X0038175D01*
X0038119D02*
Y0043534D01*
X0038175Y0043589D01*
X0038502Y0043701D02*
X0038418Y0043867D01*
X0038641Y0043701D02*
X0038474D01*
X0038418Y0043645D01*
Y0043589D01*
X0038474Y0043534D01*
X0038641D01*
Y0043867D01*
X0038884Y0043701D02*
X0039051D01*
X0038828Y0043867D02*
X0039051D01*
Y0043534D01*
X0038828D01*
X0039433Y0043867D02*
Y0043534D01*
X0039461Y0043867D02*
X0039294D01*
X0039238Y0043756D01*
Y0043645D01*
X0039294Y0043534D01*
X0039461D01*
X0039648Y0043756D02*
X0039871D01*
X0039648Y0043867D02*
Y0043701D01*
X0039732Y0043534D01*
X0039787D01*
X0039871Y0043701D01*
Y0043867D01*
X0040114Y0043701D02*
X0040281D01*
X0040058Y0043867D02*
X0040281D01*
Y0043534D01*
X0040058D01*
X0040468Y0043701D02*
X0040691D01*
X0040468Y0043867D02*
Y0043534D01*
X0040691Y0043867D02*
Y0043534D01*
X0040878Y0043978D02*
X0041101D01*
X0041288Y0043534D02*
Y0043867D01*
X0041344Y0043812D01*
X0041455Y0043589D01*
X0041511Y0043534D01*
Y0043867D01*
X0041698D02*
Y0043534D01*
X0041754Y0043589D01*
X0041809Y0043701D01*
X0041865Y0043589D01*
X0041921Y0043534D01*
Y0043867D01*
X0035924Y0037473D02*
Y0037307D01*
X0035869Y0037279D01*
X0035813D01*
X0035758Y0037307D01*
Y0037473D01*
X0035813Y0037501D01*
X0035869D01*
X0036091Y0037390D01*
X0035758Y0037689D02*
Y0037800D01*
Y0037744D02*
X0036091D01*
X0036035Y0037800D01*
X0035924Y0038127D02*
X0035758Y0038043D01*
X0035924Y0038266D02*
Y0038099D01*
X0035980Y0038043D01*
X0036035D01*
X0036091Y0038099D01*
Y0038266D01*
X0035758D01*
X0035924Y0038509D02*
Y0038676D01*
X0035758Y0038453D02*
Y0038676D01*
X0036091D01*
Y0038453D01*
X0035758Y0039058D02*
X0036091D01*
X0035758Y0039086D02*
Y0038919D01*
X0035869Y0038863D01*
X0035980D01*
X0036091Y0038919D01*
Y0039086D01*
X0035869Y0039273D02*
Y0039496D01*
X0035758Y0039273D02*
X0035924D01*
X0036091Y0039357D01*
Y0039412D01*
X0035924Y0039496D01*
X0035758D01*
X0035924Y0039739D02*
Y0039906D01*
X0035758Y0039683D02*
Y0039906D01*
X0036091D01*
Y0039683D01*
X0035924Y0040093D02*
Y0040316D01*
X0035758Y0040093D02*
X0036091D01*
X0035758Y0040316D02*
X0036091D01*
X0035646Y0040503D02*
Y0040726D01*
X0036091Y0040913D02*
X0035758D01*
X0035813Y0040969D01*
X0036035Y0041080D01*
X0036091Y0041136D01*
X0035758D01*
Y0041323D02*
X0036091D01*
X0036035Y0041379D01*
X0035924Y0041434D01*
X0036035Y0041490D01*
X0036091Y0041546D01*
X0035758D01*
X0042401Y0035299D02*
X0042568D01*
X0042596Y0035244D01*
Y0035188D01*
X0042568Y0035133D01*
X0042401D01*
X0042374Y0035188D01*
Y0035244D01*
X0042485Y0035466D01*
X0042186Y0035133D02*
X0042075D01*
X0042130D02*
Y0035466D01*
X0042075Y0035410D01*
X0041748Y0035299D02*
X0041832Y0035133D01*
X0041609Y0035299D02*
X0041776D01*
X0041832Y0035355D01*
Y0035410D01*
X0041776Y0035466D01*
X0041609D01*
Y0035133D01*
X0041366Y0035299D02*
X0041199D01*
X0041422Y0035133D02*
X0041199D01*
Y0035466D01*
X0041422D01*
X0040817Y0035133D02*
Y0035466D01*
X0040789Y0035133D02*
X0040956D01*
X0041012Y0035244D01*
Y0035355D01*
X0040956Y0035466D01*
X0040789D01*
X0040602Y0035244D02*
X0040379D01*
X0040602Y0035133D02*
Y0035299D01*
X0040518Y0035466D01*
X0040463D01*
X0040379Y0035299D01*
Y0035133D01*
X0040136Y0035299D02*
X0039969D01*
X0040192Y0035133D02*
X0039969D01*
Y0035466D01*
X0040192D01*
X0039782Y0035299D02*
X0039559D01*
X0039782Y0035133D02*
Y0035466D01*
X0039559Y0035133D02*
Y0035466D01*
X0039372Y0035021D02*
X0039149D01*
X0038962Y0035466D02*
Y0035133D01*
X0038906Y0035188D01*
X0038795Y0035410D01*
X0038739Y0035466D01*
Y0035133D01*
X0038552D02*
Y0035466D01*
X0038496Y0035410D01*
X0038440Y0035299D01*
X0038385Y0035410D01*
X0038329Y0035466D01*
Y0035133D01*
X0044326Y0041526D02*
Y0041693D01*
X0044381Y0041721D01*
X0044437D01*
X0044492Y0041693D01*
Y0041526D01*
X0044437Y0041499D01*
X0044381D01*
X0044159Y0041610D01*
X0044492Y0041311D02*
Y0041200D01*
Y0041255D02*
X0044159D01*
X0044214Y0041200D01*
X0044326Y0040873D02*
X0044492Y0040957D01*
X0044326Y0040734D02*
Y0040901D01*
X0044270Y0040957D01*
X0044214D01*
X0044159Y0040901D01*
Y0040734D01*
X0044492D01*
X0044326Y0040491D02*
Y0040324D01*
X0044492Y0040547D02*
Y0040324D01*
X0044159D01*
Y0040547D01*
X0044492Y0039942D02*
X0044159D01*
X0044492Y0039914D02*
Y0040081D01*
X0044381Y0040137D01*
X0044270D01*
X0044159Y0040081D01*
Y0039914D01*
X0044381Y0039727D02*
Y0039504D01*
X0044492Y0039727D02*
X0044326D01*
X0044159Y0039643D01*
Y0039588D01*
X0044326Y0039504D01*
X0044492D01*
X0044326Y0039261D02*
Y0039094D01*
X0044492Y0039317D02*
Y0039094D01*
X0044159D01*
Y0039317D01*
X0044326Y0038907D02*
Y0038684D01*
X0044492Y0038907D02*
X0044159D01*
X0044492Y0038684D02*
X0044159D01*
X0044603Y0038497D02*
Y0038274D01*
X0044159Y0038087D02*
X0044492D01*
X0044437Y0038031D01*
X0044214Y0037920D01*
X0044159Y0037864D01*
X0044492D01*
Y0037677D02*
X0044159D01*
X0044214Y0037621D01*
X0044326Y0037565D01*
X0044214Y0037510D01*
X0044159Y0037454D01*
X0044492D01*
X0037848Y0027701D02*
X0037682D01*
X0037654Y0027756D01*
Y0027812D01*
X0037682Y0027867D01*
X0037848D01*
X0037876Y0027812D01*
Y0027756D01*
X0037765Y0027534D01*
X0038064Y0027867D02*
X0038175D01*
X0038119D02*
Y0027534D01*
X0038175Y0027589D01*
X0038502Y0027701D02*
X0038418Y0027867D01*
X0038641Y0027701D02*
X0038474D01*
X0038418Y0027645D01*
Y0027589D01*
X0038474Y0027534D01*
X0038641D01*
Y0027867D01*
X0038884Y0027701D02*
X0039051D01*
X0038828Y0027867D02*
X0039051D01*
Y0027534D01*
X0038828D01*
X0039433Y0027867D02*
Y0027534D01*
X0039461Y0027867D02*
X0039294D01*
X0039238Y0027756D01*
Y0027645D01*
X0039294Y0027534D01*
X0039461D01*
X0039648Y0027756D02*
X0039871D01*
X0039648Y0027867D02*
Y0027701D01*
X0039732Y0027534D01*
X0039787D01*
X0039871Y0027701D01*
Y0027867D01*
X0040114Y0027701D02*
X0040281D01*
X0040058Y0027867D02*
X0040281D01*
Y0027534D01*
X0040058D01*
X0040468Y0027701D02*
X0040691D01*
X0040468Y0027867D02*
Y0027534D01*
X0040691Y0027867D02*
Y0027534D01*
X0040878Y0027978D02*
X0041101D01*
X0041288Y0027534D02*
Y0027867D01*
X0041344Y0027812D01*
X0041455Y0027589D01*
X0041511Y0027534D01*
Y0027867D01*
X0041698D02*
Y0027534D01*
X0041754Y0027589D01*
X0041809Y0027701D01*
X0041865Y0027589D01*
X0041921Y0027534D01*
Y0027867D01*
X0035924Y0021473D02*
Y0021307D01*
X0035869Y0021279D01*
X0035813D01*
X0035758Y0021307D01*
Y0021473D01*
X0035813Y0021501D01*
X0035869D01*
X0036091Y0021390D01*
X0035758Y0021689D02*
Y0021800D01*
Y0021744D02*
X0036091D01*
X0036035Y0021800D01*
X0035924Y0022127D02*
X0035758Y0022043D01*
X0035924Y0022266D02*
Y0022099D01*
X0035980Y0022043D01*
X0036035D01*
X0036091Y0022099D01*
Y0022266D01*
X0035758D01*
X0035924Y0022509D02*
Y0022676D01*
X0035758Y0022453D02*
Y0022676D01*
X0036091D01*
Y0022453D01*
X0035758Y0023058D02*
X0036091D01*
X0035758Y0023086D02*
Y0022919D01*
X0035869Y0022863D01*
X0035980D01*
X0036091Y0022919D01*
Y0023086D01*
X0035869Y0023273D02*
Y0023496D01*
X0035758Y0023273D02*
X0035924D01*
X0036091Y0023357D01*
Y0023412D01*
X0035924Y0023496D01*
X0035758D01*
X0035924Y0023739D02*
Y0023906D01*
X0035758Y0023683D02*
Y0023906D01*
X0036091D01*
Y0023683D01*
X0035924Y0024093D02*
Y0024316D01*
X0035758Y0024093D02*
X0036091D01*
X0035758Y0024316D02*
X0036091D01*
X0035646Y0024503D02*
Y0024726D01*
X0036091Y0024913D02*
X0035758D01*
X0035813Y0024969D01*
X0036035Y0025080D01*
X0036091Y0025136D01*
X0035758D01*
Y0025323D02*
X0036091D01*
X0036035Y0025379D01*
X0035924Y0025434D01*
X0036035Y0025490D01*
X0036091Y0025546D01*
X0035758D01*
X0042401Y0019299D02*
X0042568D01*
X0042596Y0019244D01*
Y0019188D01*
X0042568Y0019133D01*
X0042401D01*
X0042374Y0019188D01*
Y0019244D01*
X0042485Y0019466D01*
X0042186Y0019133D02*
X0042075D01*
X0042130D02*
Y0019466D01*
X0042075Y0019410D01*
X0041748Y0019299D02*
X0041832Y0019133D01*
X0041609Y0019299D02*
X0041776D01*
X0041832Y0019355D01*
Y0019410D01*
X0041776Y0019466D01*
X0041609D01*
Y0019133D01*
X0041366Y0019299D02*
X0041199D01*
X0041422Y0019133D02*
X0041199D01*
Y0019466D01*
X0041422D01*
X0040817Y0019133D02*
Y0019466D01*
X0040789Y0019133D02*
X0040956D01*
X0041012Y0019244D01*
Y0019355D01*
X0040956Y0019466D01*
X0040789D01*
X0040602Y0019244D02*
X0040379D01*
X0040602Y0019133D02*
Y0019299D01*
X0040518Y0019466D01*
X0040463D01*
X0040379Y0019299D01*
Y0019133D01*
X0040136Y0019299D02*
X0039969D01*
X0040192Y0019133D02*
X0039969D01*
Y0019466D01*
X0040192D01*
X0039782Y0019299D02*
X0039559D01*
X0039782Y0019133D02*
Y0019466D01*
X0039559Y0019133D02*
Y0019466D01*
X0039372Y0019021D02*
X0039149D01*
X0038962Y0019466D02*
Y0019133D01*
X0038906Y0019188D01*
X0038795Y0019410D01*
X0038739Y0019466D01*
Y0019133D01*
X0038552D02*
Y0019466D01*
X0038496Y0019410D01*
X0038440Y0019299D01*
X0038385Y0019410D01*
X0038329Y0019466D01*
Y0019133D01*
X0015904Y0002639D02*
X0015793D01*
X0015849D02*
Y0002972D01*
X0015793Y0002917D01*
X0015328Y0002694D02*
X0015355Y0002639D01*
X0015522D01*
X0015550Y0002694D01*
Y0002805D01*
X0015494Y0002861D01*
X0015328D01*
Y0002972D01*
X0015550D01*
X0027503Y0036837D02*
Y0037003D01*
X0027448Y0037059D01*
X0027392D01*
X0027337Y0037003D01*
Y0036837D01*
X0027670D01*
X0027559Y0036649D02*
Y0036427D01*
X0027670Y0036649D02*
X0027503D01*
X0027337Y0036566D01*
Y0036510D01*
X0027503Y0036427D01*
X0027670D01*
X0027337Y0036239D02*
X0027670D01*
X0027614Y0036183D01*
X0027392Y0036072D01*
X0027337Y0036017D01*
X0027670D01*
X0027503Y0035211D02*
X0027670Y0035294D01*
X0027503Y0035072D02*
Y0035238D01*
X0027448Y0035294D01*
X0027392D01*
X0027337Y0035238D01*
Y0035072D01*
X0027670D01*
X0027503Y0034828D02*
Y0034662D01*
X0027670Y0034884D02*
Y0034662D01*
X0027337D01*
Y0034884D01*
X0027670Y0034279D02*
X0027337D01*
X0027670Y0034252D02*
Y0034418D01*
X0027559Y0034474D01*
X0027448D01*
X0027337Y0034418D01*
Y0034252D01*
X0027559Y0034064D02*
Y0033842D01*
X0027670Y0034064D02*
X0027503D01*
X0027337Y0033981D01*
Y0033925D01*
X0027503Y0033842D01*
X0027670D01*
X0027503Y0033598D02*
Y0033432D01*
X0027670Y0033654D02*
Y0033432D01*
X0027337D01*
Y0033654D01*
X0027503Y0033244D02*
Y0033022D01*
X0027670Y0033244D02*
X0027337D01*
X0027670Y0033022D02*
X0027337D01*
X0019691Y0036775D02*
Y0036997D01*
X0019914Y0036775D01*
X0019969D01*
X0020025Y0036803D01*
Y0036970D01*
X0019969Y0036997D01*
X0019691Y0037185D02*
Y0037296D01*
Y0037241D02*
X0020025D01*
X0019969Y0037296D01*
X0019747Y0037539D02*
X0019691Y0037567D01*
Y0037734D01*
X0019747Y0037762D01*
X0019969D01*
X0020025Y0037734D01*
Y0037567D01*
X0019969Y0037539D01*
X0018747Y0036997D02*
X0018691Y0036942D01*
Y0036831D01*
X0018747Y0036775D01*
X0018803D01*
X0018914Y0036886D01*
X0019025Y0036775D01*
Y0036997D01*
X0018691Y0037185D02*
Y0037296D01*
Y0037241D02*
X0019025D01*
X0018969Y0037296D01*
X0018747Y0037539D02*
X0018691Y0037567D01*
Y0037734D01*
X0018747Y0037762D01*
X0018969D01*
X0019025Y0037734D01*
Y0037567D01*
X0018969Y0037539D01*
X0008393Y0009087D02*
X0008448Y0009143D01*
Y0009254D01*
X0008393Y0009310D01*
X0008337D01*
X0008226Y0009198D01*
X0008115Y0009310D01*
Y0009087D01*
X0008337Y0008705D02*
X0008393D01*
X0008448Y0008733D01*
Y0008844D01*
X0008393Y0008872D01*
X0008115D01*
Y0008900D02*
Y0008788D01*
X0003261Y0004781D02*
X0002928D01*
Y0004892D02*
Y0004670D01*
X0003261Y0004482D02*
X0003094Y0004316D01*
X0002928Y0004482D01*
Y0004260D02*
X0003261D01*
X0002983Y0004072D02*
X0002928Y0004044D01*
Y0003878D01*
X0002983Y0003850D01*
X0003039D01*
X0003094Y0003878D01*
Y0004044D01*
X0003150Y0004072D01*
X0003206D01*
X0003261Y0004044D01*
Y0003878D01*
X0003206Y0003850D01*
X0006761Y0007419D02*
Y0007308D01*
Y0007364D02*
X0006428D01*
X0006483Y0007308D01*
X0003844Y0007906D02*
Y0008072D01*
X0003900Y0008100D01*
X0003956D01*
X0004011Y0008072D01*
Y0007906D01*
X0003956Y0007878D01*
X0003900D01*
X0003678Y0007989D01*
X0025763Y0035699D02*
X0025596D01*
X0025569Y0035755D01*
Y0035811D01*
X0025596Y0035866D01*
X0025763D01*
X0025791Y0035811D01*
Y0035755D01*
X0025680Y0035533D01*
X0025186Y0035644D02*
Y0035588D01*
X0025214Y0035533D01*
X0025325D01*
X0025353Y0035588D01*
Y0035866D01*
X0025381D02*
X0025270D01*
X0015506Y0056433D02*
X0015451Y0056488D01*
X0015423Y0056544D01*
Y0056655D01*
X0015451Y0056711D01*
X0015506Y0056766D01*
X0015562D01*
X0015617Y0056711D01*
X0015645Y0056655D01*
Y0056544D01*
X0015617Y0056488D01*
X0015562Y0056433D01*
X0015506D01*
X0015235D02*
X0015124D01*
X0015180D02*
Y0056766D01*
X0015124Y0056711D01*
X0014686Y0056544D02*
Y0056488D01*
X0014714Y0056433D01*
X0014825D01*
X0014853Y0056488D01*
Y0056766D01*
X0014881D02*
X0014770D01*
X0016479Y0056433D02*
X0016645Y0056766D01*
X0016423D01*
X0016235Y0056433D02*
X0016124D01*
X0016180D02*
Y0056766D01*
X0016124Y0056711D01*
X0015686Y0056544D02*
Y0056488D01*
X0015714Y0056433D01*
X0015825D01*
X0015853Y0056488D01*
Y0056766D01*
X0015881D02*
X0015770D01*
X0024603Y0041401D02*
Y0041624D01*
X0024825Y0041512D01*
Y0041457D01*
X0024491D01*
X0024658Y0042034D02*
Y0041867D01*
X0024714Y0041811D01*
X0024769D01*
X0024825Y0041867D01*
Y0042034D01*
X0024491D01*
X0024603Y0042416D02*
X0024547D01*
X0024491Y0042388D01*
Y0042277D01*
X0024547Y0042249D01*
X0024825D01*
Y0042221D02*
Y0042332D01*
X0022071Y0032836D02*
X0022126Y0032864D01*
Y0033031D01*
X0022071Y0033058D01*
X0021959D01*
X0021904Y0033003D01*
Y0032836D01*
X0021793D01*
Y0033058D01*
X0022071Y0032648D02*
X0022126Y0032621D01*
Y0032454D01*
X0022071Y0032426D01*
X0021848D01*
X0021793Y0032454D01*
Y0032621D01*
X0021848Y0032648D01*
X0022603Y0035629D02*
Y0035852D01*
X0022825Y0035741D01*
Y0035685D01*
X0022491D01*
X0022547Y0036039D02*
X0022491Y0036067D01*
Y0036234D01*
X0022547Y0036262D01*
X0022769D01*
X0022825Y0036234D01*
Y0036067D01*
X0022769Y0036039D01*
X0009949Y0003755D02*
X0009782Y0003422D01*
X0010004D01*
X0010192D02*
Y0003700D01*
X0010220Y0003755D01*
X0010303Y0003588D01*
Y0003533D02*
Y0003588D01*
X0010386Y0003755D01*
X0010414Y0003700D01*
Y0003422D01*
X0010602Y0003477D02*
X0010630Y0003422D01*
X0010796D01*
X0010824Y0003477D01*
Y0003533D01*
X0010796Y0003588D01*
X0010630D01*
X0010602Y0003644D01*
Y0003700D01*
X0010630Y0003755D01*
X0010796D01*
X0010824Y0003700D01*
X0027503Y0038853D02*
X0027448Y0038880D01*
X0027392D01*
X0027337Y0038853D01*
Y0038686D01*
X0027392Y0038658D01*
X0027448D01*
X0027503Y0038686D01*
Y0038853D01*
X0027559Y0038880D01*
X0027614D01*
X0027670Y0038853D01*
Y0038686D01*
X0027614Y0038658D01*
X0027559D01*
X0027503Y0038686D01*
X0027670Y0038470D02*
Y0038359D01*
Y0038415D02*
X0027337D01*
X0027392Y0038359D01*
X0027559Y0037922D02*
X0027614D01*
X0027670Y0037949D01*
Y0038061D01*
X0027614Y0038088D01*
X0027337D01*
Y0038116D02*
Y0038005D01*
X0028798Y0010591D02*
X0029131D01*
X0028798Y0010619D02*
Y0010452D01*
X0028909Y0010397D01*
X0029020D01*
X0029131Y0010452D01*
Y0010619D01*
X0028853Y0010807D02*
X0028798Y0010835D01*
Y0011001D01*
X0028853Y0011029D01*
X0029075D01*
X0029131Y0011001D01*
Y0010835D01*
X0029075Y0010807D01*
X0028798Y0011217D02*
Y0011411D01*
X0029131D01*
X0028964Y0012217D02*
X0028798Y0012134D01*
X0028964Y0012356D02*
Y0012190D01*
X0029020Y0012134D01*
X0029075D01*
X0029131Y0012190D01*
Y0012356D01*
X0028798D01*
X0029131Y0012544D02*
X0029020D01*
X0028798Y0012655D01*
X0029020Y0012766D01*
X0029131D01*
X0015979Y0061488D02*
X0016034Y0061433D01*
X0016145D01*
X0016201Y0061488D01*
Y0061544D01*
X0016090Y0061655D01*
X0016201Y0061766D01*
X0015979D01*
X0015569Y0061599D02*
X0015735D01*
X0015791Y0061655D01*
Y0061711D01*
X0015735Y0061766D01*
X0015569D01*
Y0061433D01*
X0015186Y0061544D02*
Y0061488D01*
X0015214Y0061433D01*
X0015325D01*
X0015353Y0061488D01*
Y0061766D01*
X0015381D02*
X0015270D01*
X0028853Y0008502D02*
X0028798Y0008474D01*
Y0008307D01*
X0028853Y0008280D01*
X0028964D01*
X0029020Y0008335D01*
Y0008502D01*
X0029131D01*
Y0008280D01*
X0028798Y0008690D02*
Y0008801D01*
Y0008745D02*
X0029131D01*
X0029075Y0008801D01*
X0028964Y0009127D02*
X0028798Y0009044D01*
X0028964Y0009266D02*
Y0009100D01*
X0029020Y0009044D01*
X0029075D01*
X0029131Y0009100D01*
Y0009266D01*
X0028798D01*
X0003844Y0011322D02*
Y0011156D01*
X0003789Y0011128D01*
X0003733D01*
X0003678Y0011156D01*
Y0011322D01*
X0003733Y0011350D01*
X0003789D01*
X0004011Y0011239D01*
X0006706Y0011753D02*
X0006761Y0011781D01*
Y0011947D01*
X0006706Y0011975D01*
X0006595D01*
X0006539Y0011919D01*
Y0011753D01*
X0006428D01*
Y0011975D01*
X0013085Y0022686D02*
X0013140Y0022658D01*
X0013196D01*
X0013251Y0022686D01*
Y0022852D01*
X0013196Y0022880D01*
X0013140D01*
X0013085Y0022852D01*
Y0022686D01*
X0013029Y0022658D01*
X0012973D01*
X0012918Y0022686D01*
Y0022852D01*
X0012973Y0022880D01*
X0013029D01*
X0013085Y0022852D01*
X0013029Y0023262D02*
X0012973D01*
X0012918Y0023234D01*
Y0023123D01*
X0012973Y0023096D01*
X0013251D01*
Y0023068D02*
Y0023179D01*
X0012091Y0037967D02*
Y0038078D01*
Y0038022D02*
X0012425D01*
X0012369Y0038078D01*
X0012203Y0038516D02*
X0012147D01*
X0012091Y0038488D01*
Y0038377D01*
X0012147Y0038349D01*
X0012425D01*
Y0038321D02*
Y0038432D01*
X0028909Y0004780D02*
Y0005002D01*
X0029131Y0004891D01*
Y0004835D01*
X0028798D01*
Y0005190D02*
Y0005301D01*
Y0005245D02*
X0029131D01*
X0029075Y0005301D01*
X0028964Y0005627D02*
X0028798Y0005544D01*
X0028964Y0005766D02*
Y0005600D01*
X0029020Y0005544D01*
X0029075D01*
X0029131Y0005600D01*
Y0005766D01*
X0028798D01*
X0002209Y0039794D02*
X0030105D01*
Y0030404D01*
X0002209D01*
Y0039794D01*
X0018509Y0035894D02*
Y0037894D01*
X0017509D01*
Y0035894D01*
X0018509D01*
X0023309Y0032294D02*
Y0034294D01*
X0022309D02*
Y0032294D01*
X0023309D01*
Y0034294D01*
X0022309D01*
X0010209Y0005244D02*
Y0008244D01*
X0007209D01*
Y0005244D01*
X0010209D01*
X0013659Y0008294D02*
Y0011294D01*
X0010659D01*
Y0008294D01*
X0013659D01*
X0021309Y0036394D02*
Y0034394D01*
X0021659Y0008294D02*
Y0011294D01*
X0018659D01*
Y0008294D01*
X0021659D01*
X0022309Y0034394D02*
Y0036394D01*
X0021309D01*
Y0034394D01*
X0022309D01*
X0017659Y0012294D02*
Y0015294D01*
X0014659D01*
Y0012294D01*
X0017659D01*
Y0004294D02*
Y0007294D01*
X0014659D01*
Y0004294D01*
X0017659D01*
X0002594Y0015739D02*
Y0003489D01*
X0002719Y0003364D02*
X0007719D01*
X0007844Y0003489D02*
Y0015739D01*
X0007719Y0015864D02*
X0002719D01*
X0003469Y0012364D02*
X0006969Y0012864D01*
Y0006364D01*
X0003469Y0006864D01*
Y0012364D01*
X0009409Y0038494D02*
X0010909D01*
Y0030494D01*
X0008909D01*
Y0038494D01*
X0009409D01*
Y0038244D01*
X0010409D01*
Y0038494D01*
X0021809Y0042394D02*
X0023309D01*
Y0028644D01*
X0021309D01*
Y0042394D01*
X0021809D01*
Y0042144D01*
X0022809D01*
Y0042394D01*
X0018509Y0037894D02*
Y0035894D01*
X0019509D02*
Y0037894D01*
X0018509D01*
Y0035894D01*
X0019509D01*
X0017509Y0037894D02*
Y0035894D01*
G01X0018659Y0044294D02*
G03X0016159Y0046794I0002500J0000000D01*
G03X0013659Y0044294I0000000J0002500D01*
G03X0016159Y0041794I0002500J0000000D01*
G03X0018659Y0044294I0000000J0002500D01*
G01X0002594Y0003489D02*
G03X0002719Y0003364I0000125J0000000D01*
G01X0007719D02*
G03X0007844Y0003489I0000000J0000125D01*
Y0015739D02*
G03X0007719Y0015864I0000125J0000000D01*
G01X0002719D02*
G03X0002594Y0015739I0000000J0000125D01*
G01X0018659Y0044294D02*
G03X0016159Y0046794I0002500J0000000D01*
G03X0013659Y0044294I0000000J0002500D01*
G03X0016159Y0041794I0002500J0000000D01*
G03X0018659Y0044294I0000000J0002500D01*
G54D115*
G01X0020659Y0001944D02*
Y0005444D01*
X0022659D01*
Y0000944D01*
X0020659D01*
Y0001944D01*
X0029659Y0002794D02*
Y0000794D01*
X0031659D01*
Y0002794D01*
X0029659D01*
X0004159Y0046294D02*
Y0044294D01*
X0006159D01*
Y0046294D01*
X0004159D01*
X0015159Y0053794D02*
Y0051794D01*
X0017159D01*
Y0053794D01*
X0015159D01*
Y0010794D02*
Y0008794D01*
X0017159D01*
Y0010794D01*
X0015159D01*
X0026159Y0046294D02*
Y0044294D01*
X0028159D01*
Y0046294D01*
X0026159D01*
X0000659Y0002794D02*
Y0000794D01*
X0002659D01*
Y0002794D01*
X0000659D01*
G54D116*
G01X0005463Y0036421D02*
X0005345D01*
X0007472D02*
X0005463D01*
X0006409Y0033921D02*
X0005656Y0033169D01*
X0005463Y0033921D02*
X0005345D01*
X0007472D02*
X0005463D01*
X0005386D02*
X0005346Y0033881D01*
X0005465Y0033921D02*
X0005351Y0033808D01*
X0005543Y0033921D02*
X0005361Y0033739D01*
X0005622Y0033921D02*
X0005374Y0033673D01*
X0005701Y0033921D02*
X0005391Y0033612D01*
X0005779Y0033921D02*
X0005411Y0033553D01*
X0005858Y0033921D02*
X0005433Y0033497D01*
X0005937Y0033921D02*
X0005458Y0033443D01*
X0006015Y0033921D02*
X0005486Y0033392D01*
X0006094Y0033921D02*
X0005516Y0033343D01*
X0006173Y0033921D02*
X0005548Y0033296D01*
X0006251Y0033921D02*
X0005582Y0033252D01*
X0006330Y0033921D02*
X0005618Y0033209D01*
X0007241Y0033259D02*
X0007071Y0033089D01*
X0007370Y0033467D02*
X0006863Y0032959D01*
X0007422Y0033597D02*
X0006733Y0032908D01*
X0007450Y0033704D02*
X0006626Y0032880D01*
X0007465Y0033798D02*
X0006532Y0032865D01*
X0007471Y0033883D02*
X0006447Y0032858D01*
X0007431Y0033921D02*
X0006368Y0032858D01*
X0007353Y0033921D02*
X0006295Y0032864D01*
X0007274Y0033921D02*
X0006226Y0032873D01*
X0007195Y0033921D02*
X0006161Y0032887D01*
X0007117Y0033921D02*
X0006099Y0032904D01*
X0007038Y0033921D02*
X0006040Y0032923D01*
X0006959Y0033921D02*
X0005984Y0032946D01*
X0006881Y0033921D02*
X0005930Y0032971D01*
X0006802Y0033921D02*
X0005879Y0032999D01*
X0006723Y0033921D02*
X0005830Y0033028D01*
X0006645Y0033921D02*
X0005784Y0033060D01*
X0006566Y0033921D02*
X0005739Y0033094D01*
X0006487Y0033921D02*
X0005697Y0033131D01*
X0005463Y0033921D02*
X0005345D01*
X0007472D02*
X0005463D01*
X0006381Y0031294D02*
X0005629Y0030542D01*
X0005436Y0031294D02*
X0005318D01*
X0007445D02*
X0005436D01*
X0005359D02*
X0005318Y0031254D01*
X0005437Y0031294D02*
X0005324Y0031180D01*
X0005516Y0031294D02*
X0005333Y0031111D01*
X0005595Y0031294D02*
X0005347Y0031046D01*
X0005673Y0031294D02*
X0005364Y0030984D01*
X0005752Y0031294D02*
X0005383Y0030925D01*
X0005831Y0031294D02*
X0005406Y0030869D01*
X0005909Y0031294D02*
X0005431Y0030816D01*
X0005988Y0031294D02*
X0005459Y0030765D01*
X0006067Y0031294D02*
X0005488Y0030716D01*
X0006145Y0031294D02*
X0005520Y0030669D01*
X0006224Y0031294D02*
X0005554Y0030624D01*
X0006303Y0031294D02*
X0005591Y0030582D01*
X0007213Y0030631D02*
X0007044Y0030462D01*
X0007343Y0030840D02*
X0006835Y0030332D01*
X0007394Y0030970D02*
X0006705Y0030281D01*
X0007422Y0031076D02*
X0006599Y0030253D01*
X0007438Y0031170D02*
X0006505Y0030237D01*
X0007444Y0031255D02*
X0006420Y0030231D01*
X0007404Y0031294D02*
X0006341Y0030231D01*
X0007325Y0031294D02*
X0006268Y0030236D01*
X0007247Y0031294D02*
X0006199Y0030246D01*
X0007168Y0031294D02*
X0006133Y0030259D01*
X0007089Y0031294D02*
X0006072Y0030276D01*
X0007011Y0031294D02*
X0006013Y0030296D01*
X0006932Y0031294D02*
X0005957Y0030319D01*
X0006853Y0031294D02*
X0005903Y0030344D01*
X0006775Y0031294D02*
X0005852Y0030371D01*
X0006696Y0031294D02*
X0005803Y0030401D01*
X0006617Y0031294D02*
X0005756Y0030433D01*
X0006539Y0031294D02*
X0005712Y0030467D01*
X0006460Y0031294D02*
X0005669Y0030503D01*
X0005436Y0031294D02*
X0005318D01*
X0007445D02*
X0005436D01*
X0006336Y0039957D02*
X0005273Y0038894D01*
X0007400D02*
X0007281D01*
X0005273D01*
X0005795Y0039810D02*
X0005420Y0039434D01*
X0005948Y0039884D02*
X0005345Y0039281D01*
X0006065Y0039922D02*
X0005307Y0039165D01*
X0006165Y0039944D02*
X0005286Y0039065D01*
X0006254Y0039954D02*
X0005275Y0038975D01*
X0007397Y0038973D02*
X0007318Y0038894D01*
X0007389Y0039044D02*
X0007239Y0038894D01*
X0007377Y0039111D02*
X0007161Y0038894D01*
X0007362Y0039174D02*
X0007082Y0038894D01*
X0007344Y0039234D02*
X0007003Y0038894D01*
X0007322Y0039292D02*
X0006925Y0038894D01*
X0007298Y0039346D02*
X0006846Y0038894D01*
X0007272Y0039399D02*
X0006767Y0038894D01*
X0007243Y0039449D02*
X0006689Y0038894D01*
X0007212Y0039496D02*
X0006610Y0038894D01*
X0007179Y0039542D02*
X0006531Y0038894D01*
X0007144Y0039585D02*
X0006453Y0038894D01*
X0007107Y0039627D02*
X0006374Y0038894D01*
X0007067Y0039666D02*
X0006295Y0038894D01*
X0007026Y0039703D02*
X0006217Y0038894D01*
X0006982Y0039738D02*
X0006138Y0038894D01*
X0006937Y0039771D02*
X0006059Y0038894D01*
X0006889Y0039802D02*
X0005981Y0038894D01*
X0006839Y0039831D02*
X0005902Y0038894D01*
X0006787Y0039857D02*
X0005823Y0038894D01*
X0006732Y0039881D02*
X0005745Y0038894D01*
X0006674Y0039902D02*
X0005666Y0038894D01*
X0006614Y0039921D02*
X0005587Y0038894D01*
X0006550Y0039936D02*
X0005509Y0038894D01*
X0006483Y0039947D02*
X0005430Y0038894D01*
X0006412Y0039955D02*
X0005351Y0038894D01*
X0007281D02*
X0007400D01*
X0005273D02*
X0007281D01*
X0009364Y0007399D02*
X0008053Y0006088D01*
X0008262Y0007556D02*
X0007896Y0007190D01*
X0008404Y0007619D02*
X0007833Y0007048D01*
X0008513Y0007650D02*
X0007802Y0006939D01*
X0008607Y0007665D02*
X0007787Y0006845D01*
X0008691Y0007671D02*
X0007782Y0006761D01*
X0008768Y0007669D02*
X0007784Y0006684D01*
X0008839Y0007661D02*
X0007791Y0006613D01*
X0008906Y0007649D02*
X0007803Y0006546D01*
X0008969Y0007633D02*
X0007819Y0006484D01*
X0009028Y0007614D02*
X0007838Y0006424D01*
X0009084Y0007591D02*
X0007861Y0006368D01*
X0009137Y0007566D02*
X0007887Y0006315D01*
X0009187Y0007537D02*
X0007915Y0006265D01*
X0009235Y0007507D02*
X0007946Y0006217D01*
X0009281Y0007473D02*
X0007979Y0006172D01*
X0009323Y0007437D02*
X0008015Y0006129D01*
X0009521Y0006298D02*
X0009155Y0005931D01*
X0009584Y0006439D02*
X0009013Y0005868D01*
X0009615Y0006549D02*
X0008904Y0005838D01*
X0009630Y0006643D02*
X0008810Y0005822D01*
X0009635Y0006727D02*
X0008726Y0005817D01*
X0009633Y0006803D02*
X0008649Y0005819D01*
X0009626Y0006875D02*
X0008578Y0005826D01*
X0009614Y0006941D02*
X0008511Y0005838D01*
X0009598Y0007004D02*
X0008448Y0005854D01*
X0009579Y0007063D02*
X0008389Y0005874D01*
X0009556Y0007119D02*
X0008333Y0005896D01*
X0009530Y0007172D02*
X0008280Y0005922D01*
X0009502Y0007223D02*
X0008230Y0005950D01*
X0009471Y0007271D02*
X0008182Y0005981D01*
X0009438Y0007316D02*
X0008136Y0006014D01*
X0009402Y0007359D02*
X0008094Y0006050D01*
X0012814Y0010449D02*
X0011503Y0009138D01*
X0011712Y0010606D02*
X0011346Y0010240D01*
X0011854Y0010669D02*
X0011283Y0010098D01*
X0011963Y0010700D02*
X0011252Y0009989D01*
X0012057Y0010715D02*
X0011237Y0009895D01*
X0012141Y0010721D02*
X0011232Y0009811D01*
X0012218Y0010719D02*
X0011234Y0009734D01*
X0012289Y0010711D02*
X0011241Y0009663D01*
X0012356Y0010699D02*
X0011253Y0009596D01*
X0012419Y0010683D02*
X0011269Y0009534D01*
X0012478Y0010664D02*
X0011288Y0009474D01*
X0012534Y0010641D02*
X0011311Y0009418D01*
X0012587Y0010616D02*
X0011337Y0009365D01*
X0012637Y0010587D02*
X0011365Y0009315D01*
X0012685Y0010557D02*
X0011396Y0009267D01*
X0012731Y0010523D02*
X0011429Y0009222D01*
X0012773Y0010487D02*
X0011465Y0009179D01*
X0012971Y0009348D02*
X0012605Y0008981D01*
X0013034Y0009489D02*
X0012463Y0008918D01*
X0013065Y0009599D02*
X0012354Y0008888D01*
X0013080Y0009693D02*
X0012260Y0008872D01*
X0013085Y0009777D02*
X0012176Y0008867D01*
X0013083Y0009853D02*
X0012099Y0008869D01*
X0013076Y0009925D02*
X0012028Y0008876D01*
X0013064Y0009991D02*
X0011961Y0008888D01*
X0013048Y0010054D02*
X0011898Y0008904D01*
X0013029Y0010113D02*
X0011839Y0008924D01*
X0013006Y0010169D02*
X0011783Y0008946D01*
X0012980Y0010222D02*
X0011730Y0008972D01*
X0012952Y0010273D02*
X0011680Y0009000D01*
X0012921Y0010321D02*
X0011632Y0009031D01*
X0012888Y0010366D02*
X0011586Y0009064D01*
X0012852Y0010409D02*
X0011544Y0009100D01*
X0020814Y0010449D02*
X0019503Y0009138D01*
X0019712Y0010606D02*
X0019346Y0010240D01*
X0019854Y0010669D02*
X0019283Y0010098D01*
X0019963Y0010700D02*
X0019252Y0009989D01*
X0020057Y0010715D02*
X0019237Y0009895D01*
X0020141Y0010721D02*
X0019232Y0009811D01*
X0020218Y0010719D02*
X0019234Y0009734D01*
X0020289Y0010711D02*
X0019241Y0009663D01*
X0020356Y0010699D02*
X0019253Y0009596D01*
X0020419Y0010683D02*
X0019269Y0009534D01*
X0020478Y0010664D02*
X0019288Y0009474D01*
X0020534Y0010641D02*
X0019311Y0009418D01*
X0020587Y0010616D02*
X0019337Y0009365D01*
X0020637Y0010587D02*
X0019365Y0009315D01*
X0020685Y0010557D02*
X0019396Y0009267D01*
X0020731Y0010523D02*
X0019429Y0009222D01*
X0020773Y0010487D02*
X0019465Y0009179D01*
X0020971Y0009348D02*
X0020605Y0008981D01*
X0021034Y0009489D02*
X0020463Y0008918D01*
X0021065Y0009599D02*
X0020354Y0008888D01*
X0021080Y0009693D02*
X0020260Y0008872D01*
X0021085Y0009777D02*
X0020176Y0008867D01*
X0021083Y0009853D02*
X0020099Y0008869D01*
X0021076Y0009925D02*
X0020028Y0008876D01*
X0021064Y0009991D02*
X0019961Y0008888D01*
X0021048Y0010054D02*
X0019898Y0008904D01*
X0021029Y0010113D02*
X0019839Y0008924D01*
X0021006Y0010169D02*
X0019783Y0008946D01*
X0020980Y0010222D02*
X0019730Y0008972D01*
X0020952Y0010273D02*
X0019680Y0009000D01*
X0020921Y0010321D02*
X0019632Y0009031D01*
X0020888Y0010366D02*
X0019586Y0009064D01*
X0020852Y0010409D02*
X0019544Y0009100D01*
X0016814Y0014449D02*
X0015503Y0013138D01*
X0015712Y0014606D02*
X0015346Y0014240D01*
X0015854Y0014669D02*
X0015283Y0014098D01*
X0015963Y0014700D02*
X0015252Y0013989D01*
X0016057Y0014715D02*
X0015237Y0013895D01*
X0016141Y0014721D02*
X0015232Y0013811D01*
X0016218Y0014719D02*
X0015234Y0013734D01*
X0016289Y0014711D02*
X0015241Y0013663D01*
X0016356Y0014699D02*
X0015253Y0013596D01*
X0016419Y0014683D02*
X0015269Y0013534D01*
X0016478Y0014664D02*
X0015288Y0013474D01*
X0016534Y0014641D02*
X0015311Y0013418D01*
X0016587Y0014616D02*
X0015337Y0013365D01*
X0016637Y0014587D02*
X0015365Y0013315D01*
X0016685Y0014557D02*
X0015396Y0013267D01*
X0016731Y0014523D02*
X0015429Y0013222D01*
X0016773Y0014487D02*
X0015465Y0013179D01*
X0016971Y0013348D02*
X0016605Y0012981D01*
X0017034Y0013489D02*
X0016463Y0012918D01*
X0017065Y0013599D02*
X0016354Y0012888D01*
X0017080Y0013693D02*
X0016260Y0012872D01*
X0017085Y0013777D02*
X0016176Y0012867D01*
X0017083Y0013853D02*
X0016099Y0012869D01*
X0017076Y0013925D02*
X0016028Y0012876D01*
X0017064Y0013991D02*
X0015961Y0012888D01*
X0017048Y0014054D02*
X0015898Y0012904D01*
X0017029Y0014113D02*
X0015839Y0012924D01*
X0017006Y0014169D02*
X0015783Y0012946D01*
X0016980Y0014222D02*
X0015730Y0012972D01*
X0016952Y0014273D02*
X0015680Y0013000D01*
X0016921Y0014321D02*
X0015632Y0013031D01*
X0016888Y0014366D02*
X0015586Y0013064D01*
X0016852Y0014409D02*
X0015544Y0013100D01*
X0016814Y0006449D02*
X0015503Y0005138D01*
X0015712Y0006606D02*
X0015346Y0006240D01*
X0015854Y0006669D02*
X0015283Y0006098D01*
X0015963Y0006700D02*
X0015252Y0005989D01*
X0016057Y0006715D02*
X0015237Y0005895D01*
X0016141Y0006721D02*
X0015232Y0005811D01*
X0016218Y0006719D02*
X0015234Y0005734D01*
X0016289Y0006711D02*
X0015241Y0005663D01*
X0016356Y0006699D02*
X0015253Y0005596D01*
X0016419Y0006683D02*
X0015269Y0005534D01*
X0016478Y0006664D02*
X0015288Y0005474D01*
X0016534Y0006641D02*
X0015311Y0005418D01*
X0016587Y0006616D02*
X0015337Y0005365D01*
X0016637Y0006587D02*
X0015365Y0005315D01*
X0016685Y0006557D02*
X0015396Y0005267D01*
X0016731Y0006523D02*
X0015429Y0005222D01*
X0016773Y0006487D02*
X0015465Y0005179D01*
X0016971Y0005348D02*
X0016605Y0004981D01*
X0017034Y0005489D02*
X0016463Y0004918D01*
X0017065Y0005599D02*
X0016354Y0004888D01*
X0017080Y0005693D02*
X0016260Y0004872D01*
X0017085Y0005777D02*
X0016176Y0004867D01*
X0017083Y0005853D02*
X0016099Y0004869D01*
X0017076Y0005925D02*
X0016028Y0004876D01*
X0017064Y0005991D02*
X0015961Y0004888D01*
X0017048Y0006054D02*
X0015898Y0004904D01*
X0017029Y0006113D02*
X0015839Y0004924D01*
X0017006Y0006169D02*
X0015783Y0004946D01*
X0016980Y0006222D02*
X0015730Y0004972D01*
X0016952Y0006273D02*
X0015680Y0005000D01*
X0016921Y0006321D02*
X0015632Y0005031D01*
X0016888Y0006366D02*
X0015586Y0005064D01*
X0016852Y0006409D02*
X0015544Y0005100D01*
X0016213Y0041812D02*
Y0046775D01*
X0016159Y0044204D02*
X0014484Y0042529D01*
X0015129Y0042044D02*
X0016159Y0041794D01*
X0015129Y0042044D02*
X0015119D01*
X0015019Y0042144D02*
X0015119Y0042044D01*
X0015019Y0042144D02*
X0014949D01*
X0014879Y0042214D02*
X0014949Y0042144D01*
X0014879Y0042214D02*
X0014799D01*
X0014349Y0042664D02*
X0014799Y0042214D01*
X0014349Y0042694D02*
Y0042664D01*
X0014029Y0043014D02*
X0014349Y0042694D01*
X0014029Y0043104D02*
Y0043014D01*
X0013949Y0043184D02*
X0014029Y0043104D01*
X0013949Y0043264D02*
Y0043184D01*
X0013879Y0043334D02*
X0013949Y0043264D01*
X0013879Y0043404D02*
Y0043334D01*
X0013819Y0043464D02*
X0013879Y0043404D01*
X0013819Y0043644D02*
Y0043464D01*
X0013749Y0043714D02*
X0013819Y0043644D01*
X0013749Y0044764D02*
Y0043714D01*
X0013809Y0044824D02*
X0013749Y0044764D01*
X0013809Y0044994D02*
Y0044824D01*
X0013869Y0045054D02*
X0013809Y0044994D01*
X0013869Y0045214D02*
Y0045054D01*
X0013939Y0045214D02*
X0013869D01*
X0013939Y0045344D02*
Y0045214D01*
X0014089Y0045494D02*
X0013939Y0045344D01*
X0014089Y0045494D02*
X0014009D01*
X0014139Y0045624D02*
X0014009Y0045494D01*
X0014139Y0045664D02*
Y0045624D01*
Y0045664D02*
X0014179Y0045624D01*
Y0045754D02*
Y0045624D01*
X0014649Y0046224D02*
X0014179Y0045754D01*
X0014699Y0046224D02*
X0014649D01*
X0014869Y0046394D02*
X0014699Y0046224D01*
X0014919Y0046394D02*
X0014869D01*
X0014999Y0046474D02*
X0014919Y0046394D01*
X0015089Y0046474D02*
X0014999D01*
X0015149Y0046534D02*
X0015089Y0046474D01*
X0015249Y0046534D02*
X0015149D01*
X0015289Y0046574D02*
X0015249Y0046534D01*
X0015319Y0046574D02*
X0015289D01*
X0015379Y0046634D02*
X0015319Y0046574D01*
X0015489Y0046634D02*
X0015379D01*
X0015539Y0046684D02*
X0015489Y0046634D01*
X0015779Y0046684D02*
X0015539D01*
X0015829Y0046734D02*
X0015779Y0046684D01*
X0016159Y0046734D02*
X0015829D01*
X0016159D02*
Y0041794D01*
X0014887Y0046394D02*
X0014179Y0045685D01*
X0015046Y0046474D02*
X0014066Y0045494D01*
X0015185Y0046534D02*
X0013939Y0045288D01*
X0015303Y0046574D02*
X0013869Y0045139D01*
X0015442Y0046634D02*
X0013869Y0045061D01*
X0015571Y0046684D02*
X0013809Y0044922D01*
X0015649Y0046684D02*
X0013809Y0044843D01*
X0015728Y0046684D02*
X0013749Y0044705D01*
X0015857Y0046734D02*
X0013749Y0044626D01*
X0015935Y0046734D02*
X0013749Y0044547D01*
X0016014Y0046734D02*
X0013749Y0044469D01*
X0016093Y0046734D02*
X0013749Y0044390D01*
X0016159Y0046721D02*
X0013749Y0044311D01*
X0016159Y0046643D02*
X0013749Y0044233D01*
X0016159Y0046564D02*
X0013749Y0044154D01*
X0016159Y0046485D02*
X0013749Y0044075D01*
X0016159Y0046407D02*
X0013749Y0043997D01*
X0016159Y0046328D02*
X0013749Y0043918D01*
X0016159Y0046249D02*
X0013749Y0043839D01*
X0016159Y0046171D02*
X0013749Y0043761D01*
X0016159Y0046092D02*
X0013765Y0043698D01*
X0016159Y0046013D02*
X0013804Y0043659D01*
X0016159Y0045935D02*
X0013819Y0043595D01*
X0016159Y0045856D02*
X0013819Y0043516D01*
X0016159Y0045777D02*
X0013832Y0043451D01*
X0016159Y0045699D02*
X0013871Y0043411D01*
X0016159Y0045620D02*
X0013879Y0043340D01*
X0016159Y0045541D02*
X0013915Y0043298D01*
X0016159Y0045463D02*
X0013949Y0043253D01*
X0016159Y0045384D02*
X0013954Y0043179D01*
X0016159Y0045305D02*
X0013993Y0043140D01*
X0016159Y0045227D02*
X0014029Y0043097D01*
X0016159Y0045148D02*
X0014029Y0043018D01*
X0016159Y0045069D02*
X0014066Y0042977D01*
X0016159Y0044991D02*
X0014105Y0042937D01*
X0016159Y0044912D02*
X0014145Y0042898D01*
X0016159Y0044833D02*
X0014184Y0042859D01*
X0016159Y0044755D02*
X0014223Y0042819D01*
X0016159Y0044676D02*
X0014263Y0042780D01*
X0016159Y0044597D02*
X0014302Y0042741D01*
X0016159Y0044519D02*
X0014341Y0042701D01*
X0016159Y0044440D02*
X0014366Y0042647D01*
X0016159Y0044361D02*
X0014405Y0042608D01*
X0016159Y0044283D02*
X0014444Y0042568D01*
X0016159Y0041844D02*
X0016118Y0041804D01*
X0016159Y0041923D02*
X0016055Y0041819D01*
X0016159Y0042001D02*
X0015992Y0041834D01*
X0016159Y0042080D02*
X0015928Y0041850D01*
X0016159Y0042159D02*
X0015865Y0041865D01*
X0016159Y0042237D02*
X0015802Y0041880D01*
X0016159Y0042316D02*
X0015738Y0041896D01*
X0016159Y0042395D02*
X0015675Y0041911D01*
X0016159Y0042473D02*
X0015612Y0041927D01*
X0016159Y0042552D02*
X0015549Y0041942D01*
X0016159Y0042631D02*
X0015485Y0041957D01*
X0016159Y0042709D02*
X0015422Y0041973D01*
X0016159Y0042788D02*
X0015359Y0041988D01*
X0016159Y0042867D02*
X0015295Y0042003D01*
X0016159Y0042945D02*
X0015232Y0042019D01*
X0016159Y0043024D02*
X0015169Y0042034D01*
X0016159Y0043103D02*
X0015109Y0042053D01*
X0016159Y0043181D02*
X0015070Y0042093D01*
X0016159Y0043260D02*
X0015031Y0042132D01*
X0016159Y0043339D02*
X0014964Y0042144D01*
X0016159Y0043417D02*
X0014917Y0042176D01*
X0016159Y0043496D02*
X0014878Y0042215D01*
X0016159Y0043575D02*
X0014798Y0042214D01*
X0016159Y0043653D02*
X0014759Y0042254D01*
X0016159Y0043732D02*
X0014720Y0042293D01*
X0016159Y0043811D02*
X0014680Y0042332D01*
X0016159Y0043889D02*
X0014641Y0042372D01*
X0016159Y0043968D02*
X0014602Y0042411D01*
X0016159Y0044047D02*
X0014562Y0042450D01*
X0016159Y0044125D02*
X0014523Y0042490D01*
X0011159Y0047330D02*
X0010095Y0046267D01*
X0012222D02*
X0012104D01*
X0010095D01*
X0010618Y0047183D02*
X0010242Y0046807D01*
X0010771Y0047257D02*
X0010168Y0046654D01*
X0010888Y0047295D02*
X0010130Y0046537D01*
X0010988Y0047316D02*
X0010109Y0046437D01*
X0011077Y0047327D02*
X0010098Y0046348D01*
X0012219Y0046345D02*
X0012141Y0046267D01*
X0012212Y0046416D02*
X0012062Y0046267D01*
X0012200Y0046483D02*
X0011983Y0046267D01*
X0012185Y0046547D02*
X0011905Y0046267D01*
X0012166Y0046607D02*
X0011826Y0046267D01*
X0012145Y0046664D02*
X0011747Y0046267D01*
X0012121Y0046719D02*
X0011669Y0046267D01*
X0012095Y0046771D02*
X0011590Y0046267D01*
X0012066Y0046821D02*
X0011511Y0046267D01*
X0012035Y0046869D02*
X0011433Y0046267D01*
X0012002Y0046915D02*
X0011354Y0046267D01*
X0011967Y0046958D02*
X0011275Y0046267D01*
X0011929Y0046999D02*
X0011197Y0046267D01*
X0011890Y0047039D02*
X0011118Y0046267D01*
X0011849Y0047076D02*
X0011039Y0046267D01*
X0011805Y0047111D02*
X0010961Y0046267D01*
X0011759Y0047144D02*
X0010882Y0046267D01*
X0011712Y0047175D02*
X0010803Y0046267D01*
X0011662Y0047204D02*
X0010725Y0046267D01*
X0011609Y0047230D02*
X0010646Y0046267D01*
X0011554Y0047254D02*
X0010567Y0046267D01*
X0011497Y0047275D02*
X0010489Y0046267D01*
X0011437Y0047293D02*
X0010410Y0046267D01*
X0011373Y0047308D02*
X0010331Y0046267D01*
X0011306Y0047320D02*
X0010253Y0046267D01*
X0011235Y0047327D02*
X0010174Y0046267D01*
X0012104D02*
X0012222D01*
X0010095D02*
X0012104D01*
X0008395Y0011267D02*
X0008868Y0010794D01*
X0008395Y0010321D01*
Y0011267D02*
Y0010321D01*
X0008435Y0011227D02*
X0008395Y0011187D01*
X0008474D02*
X0008395Y0011108D01*
X0008514Y0011148D02*
X0008395Y0011029D01*
X0008553Y0011109D02*
X0008395Y0010951D01*
X0008592Y0011069D02*
X0008395Y0010872D01*
X0008632Y0011030D02*
X0008395Y0010793D01*
X0008671Y0010991D02*
X0008395Y0010715D01*
X0008710Y0010951D02*
X0008395Y0010636D01*
X0008750Y0010912D02*
X0008395Y0010557D01*
X0008789Y0010873D02*
X0008395Y0010479D01*
X0008828Y0010833D02*
X0008395Y0010400D01*
X0021159Y0047330D02*
X0020095Y0046267D01*
X0022222D02*
X0022104D01*
X0020095D01*
X0020618Y0047183D02*
X0020242Y0046807D01*
X0020771Y0047257D02*
X0020168Y0046654D01*
X0020888Y0047295D02*
X0020130Y0046537D01*
X0020988Y0047316D02*
X0020109Y0046437D01*
X0021077Y0047327D02*
X0020098Y0046348D01*
X0022219Y0046345D02*
X0022141Y0046267D01*
X0022212Y0046416D02*
X0022062Y0046267D01*
X0022200Y0046483D02*
X0021983Y0046267D01*
X0022185Y0046547D02*
X0021905Y0046267D01*
X0022166Y0046607D02*
X0021826Y0046267D01*
X0022145Y0046664D02*
X0021747Y0046267D01*
X0022121Y0046719D02*
X0021669Y0046267D01*
X0022095Y0046771D02*
X0021590Y0046267D01*
X0022066Y0046821D02*
X0021511Y0046267D01*
X0022035Y0046869D02*
X0021433Y0046267D01*
X0022002Y0046915D02*
X0021354Y0046267D01*
X0021967Y0046958D02*
X0021275Y0046267D01*
X0021929Y0046999D02*
X0021197Y0046267D01*
X0021890Y0047039D02*
X0021118Y0046267D01*
X0021849Y0047076D02*
X0021039Y0046267D01*
X0021805Y0047111D02*
X0020961Y0046267D01*
X0021759Y0047144D02*
X0020882Y0046267D01*
X0021712Y0047175D02*
X0020803Y0046267D01*
X0021662Y0047204D02*
X0020725Y0046267D01*
X0021609Y0047230D02*
X0020646Y0046267D01*
X0021554Y0047254D02*
X0020567Y0046267D01*
X0021497Y0047275D02*
X0020489Y0046267D01*
X0021437Y0047293D02*
X0020410Y0046267D01*
X0021373Y0047308D02*
X0020331Y0046267D01*
X0021306Y0047320D02*
X0020253Y0046267D01*
X0021235Y0047327D02*
X0020174Y0046267D01*
X0022104D02*
X0022222D01*
X0020095D02*
X0022104D01*
X0006409Y0036421D02*
X0005656Y0035669D01*
X0005463Y0036421D02*
X0005345D01*
X0007472D02*
X0005463D01*
X0005386D02*
X0005346Y0036381D01*
X0005465Y0036421D02*
X0005351Y0036308D01*
X0005543Y0036421D02*
X0005361Y0036239D01*
X0005622Y0036421D02*
X0005374Y0036173D01*
X0005701Y0036421D02*
X0005391Y0036112D01*
X0005779Y0036421D02*
X0005411Y0036053D01*
X0005858Y0036421D02*
X0005433Y0035997D01*
X0005937Y0036421D02*
X0005458Y0035943D01*
X0006015Y0036421D02*
X0005486Y0035892D01*
X0006094Y0036421D02*
X0005516Y0035843D01*
X0006173Y0036421D02*
X0005548Y0035796D01*
X0006251Y0036421D02*
X0005582Y0035752D01*
X0006330Y0036421D02*
X0005618Y0035709D01*
X0007241Y0035759D02*
X0007071Y0035589D01*
X0007370Y0035967D02*
X0006863Y0035459D01*
X0007422Y0036097D02*
X0006733Y0035408D01*
X0007450Y0036204D02*
X0006626Y0035380D01*
X0007465Y0036298D02*
X0006532Y0035365D01*
X0007471Y0036383D02*
X0006447Y0035358D01*
X0007431Y0036421D02*
X0006368Y0035358D01*
X0007353Y0036421D02*
X0006295Y0035364D01*
X0007274Y0036421D02*
X0006226Y0035373D01*
X0007195Y0036421D02*
X0006161Y0035387D01*
X0007117Y0036421D02*
X0006099Y0035404D01*
X0007038Y0036421D02*
X0006040Y0035423D01*
X0006959Y0036421D02*
X0005984Y0035446D01*
X0006881Y0036421D02*
X0005930Y0035471D01*
X0006802Y0036421D02*
X0005879Y0035499D01*
X0006723Y0036421D02*
X0005830Y0035528D01*
X0006645Y0036421D02*
X0005784Y0035560D01*
X0006566Y0036421D02*
X0005739Y0035594D01*
X0006487Y0036421D02*
X0005697Y0035631D01*
G01X0006409Y0035357D02*
G03X0007473Y0036421I0000000J0001064D01*
G01X0005345D02*
G03X0006409Y0035357I0001064J0000000D01*
G01X0005345Y0033921D02*
G03X0006409Y0032857I0001064J0000000D01*
Y0032858D02*
G03X0007472Y0033921I0000000J0001063D01*
G01X0006409Y0032857D02*
G03X0007473Y0033921I0000000J0001064D01*
G01X0005345D02*
G03X0006409Y0032857I0001064J0000000D01*
G01X0005318Y0031294D02*
G03X0006381Y0030231I0001063J0000000D01*
Y0030230D02*
G03X0007445Y0031294I0000000J0001064D01*
G01X0006381Y0030231D02*
G03X0007444Y0031294I0000000J0001063D01*
G01X0005318D02*
G03X0006381Y0030231I0001063J0000000D01*
G01X0007400Y0038894D02*
G03X0006336Y0039958I0001064J0000000D01*
G03X0005272Y0038894I0000000J0001064D01*
G01X0006336Y0039958D02*
G03X0005272Y0038894I0000000J0001064D01*
G01X0007400D02*
G03X0006336Y0039958I0001064J0000000D01*
G01X0008709Y0005817D02*
G03X0009636Y0006744I0000000J0000927D01*
G01X0007782D02*
G03X0008709Y0005817I0000927J0000000D01*
Y0007671D02*
G03X0007782Y0006744I0000000J0000927D01*
G01X0009635D02*
G03X0008709Y0007670I0000926J0000000D01*
G01X0012159Y0008867D02*
G03X0013086Y0009794I0000000J0000927D01*
G01X0011232D02*
G03X0012159Y0008867I0000927J0000000D01*
Y0010721D02*
G03X0011232Y0009794I0000000J0000927D01*
G01X0013085D02*
G03X0012159Y0010720I0000926J0000000D01*
G01X0020159Y0008867D02*
G03X0021086Y0009794I0000000J0000927D01*
G01X0019232D02*
G03X0020159Y0008867I0000927J0000000D01*
Y0010721D02*
G03X0019232Y0009794I0000000J0000927D01*
G01X0021085D02*
G03X0020159Y0010720I0000926J0000000D01*
G01X0016159Y0012867D02*
G03X0017086Y0013794I0000000J0000927D01*
G01X0015232D02*
G03X0016159Y0012867I0000927J0000000D01*
Y0014721D02*
G03X0015232Y0013794I0000000J0000927D01*
G01X0017085D02*
G03X0016159Y0014720I0000926J0000000D01*
Y0004867D02*
G03X0017086Y0005794I0000000J0000927D01*
G01X0015232D02*
G03X0016159Y0004867I0000927J0000000D01*
Y0006721D02*
G03X0015232Y0005794I0000000J0000927D01*
G01X0017085D02*
G03X0016159Y0006720I0000926J0000000D01*
G01X0016095Y0041810D02*
G03X0016213Y0041812I0000000J0002484D01*
G01X0013611Y0044294D02*
G03X0016095Y0041810I0002484J0000000D01*
Y0046778D02*
G03X0013611Y0044294I0000000J0002484D01*
G01X0016213Y0046775D02*
G03X0016095Y0046778I0000118J0002481D01*
G01X0012222Y0046267D02*
G03X0011159Y0047330I0001063J0000000D01*
G03X0010096Y0046267I0000000J0001063D01*
G01X0011159Y0047330D02*
G03X0010096Y0046267I0000000J0001063D01*
G01X0012222D02*
G03X0011159Y0047330I0001063J0000000D01*
G01X0022222Y0046267D02*
G03X0021159Y0047330I0001063J0000000D01*
G03X0020096Y0046267I0000000J0001063D01*
G01X0021159Y0047330D02*
G03X0020096Y0046267I0000000J0001063D01*
G01X0022222D02*
G03X0021159Y0047330I0001063J0000000D01*
G01X0005345Y0036421D02*
G03X0006409Y0035357I0001064J0000000D01*
Y0035358D02*
G03X0007472Y0036421I0000000J0001063D01*
G54D117*
G01X0034310Y0011330D02*
Y0010805D01*
X0034353Y0011330D02*
X0034091D01*
X0034003Y0011155D01*
Y0010980D01*
X0034091Y0010805D01*
X0034353D01*
X0034554Y0011330D02*
Y0010805D01*
X0034642Y0010892D01*
X0034729Y0011067D01*
X0034817Y0010892D01*
X0034904Y0010805D01*
Y0011330D01*
X0035105Y0010892D02*
X0035149Y0010805D01*
X0035412D01*
X0035455Y0010892D01*
Y0010980D01*
X0035412Y0011067D01*
X0035149D01*
X0035105Y0011155D01*
Y0011242D01*
X0035149Y0011330D01*
X0035412D01*
X0035455Y0011242D01*
X0035656Y0011505D02*
X0036006D01*
X0036514Y0011330D02*
Y0010805D01*
X0036557Y0011330D02*
X0036295D01*
X0036207Y0011155D01*
Y0010980D01*
X0036295Y0010805D01*
X0036557D01*
X0036846Y0011067D02*
X0037108D01*
X0036758Y0011330D02*
X0037108D01*
Y0010805D01*
X0036758D01*
X0037309Y0011330D02*
X0037615D01*
Y0010805D01*
X0034268Y0010612D02*
X0034356Y0010524D01*
X0034399Y0010437D01*
Y0010262D01*
X0034356Y0010175D01*
X0034268Y0010087D01*
X0034181D01*
X0034093Y0010175D01*
X0034049Y0010262D01*
Y0010437D01*
X0034093Y0010524D01*
X0034181Y0010612D01*
X0034268D01*
X0034819D02*
X0034907Y0010524D01*
X0034950Y0010437D01*
Y0010262D01*
X0034907Y0010175D01*
X0034819Y0010087D01*
X0034732D01*
X0034644Y0010175D01*
X0034600Y0010262D01*
Y0010437D01*
X0034644Y0010524D01*
X0034732Y0010612D01*
X0034819D01*
X0035370D02*
X0035458Y0010524D01*
X0035501Y0010437D01*
Y0010262D01*
X0035458Y0010175D01*
X0035370Y0010087D01*
X0035283D01*
X0035195Y0010175D01*
X0035151Y0010262D01*
Y0010437D01*
X0035195Y0010524D01*
X0035283Y0010612D01*
X0035370D01*
X0035921D02*
X0036009Y0010524D01*
X0036052Y0010437D01*
Y0010262D01*
X0036009Y0010175D01*
X0035921Y0010087D01*
X0035834D01*
X0035746Y0010175D01*
X0035702Y0010262D01*
Y0010437D01*
X0035746Y0010524D01*
X0035834Y0010612D01*
X0035921D01*
X0036472D02*
X0036560Y0010524D01*
X0036603Y0010437D01*
Y0010262D01*
X0036560Y0010175D01*
X0036472Y0010087D01*
X0036385D01*
X0036297Y0010175D01*
X0036253Y0010262D01*
Y0010437D01*
X0036297Y0010524D01*
X0036385Y0010612D01*
X0036472D01*
X0037023D02*
X0037111Y0010524D01*
X0037154Y0010437D01*
Y0010262D01*
X0037111Y0010175D01*
X0037023Y0010087D01*
X0036936D01*
X0036848Y0010175D01*
X0036804Y0010262D01*
Y0010437D01*
X0036848Y0010524D01*
X0036936Y0010612D01*
X0037023D01*
X0037355D02*
X0037530D01*
X0037443D02*
Y0010087D01*
X0037530Y0010175D01*
X0038125Y0010612D02*
Y0010087D01*
X0038169Y0010612D02*
X0037906D01*
X0037819Y0010437D01*
Y0010262D01*
X0037906Y0010087D01*
X0038169D01*
X0034310Y0010330D02*
Y0009805D01*
X0034353Y0010330D02*
X0034091D01*
X0034003Y0010155D01*
Y0009980D01*
X0034091Y0009805D01*
X0034353D01*
X0034554Y0010330D02*
Y0009805D01*
X0034642Y0009892D01*
X0034729Y0010067D01*
X0034817Y0009892D01*
X0034904Y0009805D01*
Y0010330D01*
X0035105Y0009892D02*
X0035149Y0009805D01*
X0035412D01*
X0035455Y0009892D01*
Y0009980D01*
X0035412Y0010067D01*
X0035149D01*
X0035105Y0010155D01*
Y0010242D01*
X0035149Y0010330D01*
X0035412D01*
X0035455Y0010242D01*
X0035656Y0010505D02*
X0036006D01*
X0036514Y0010330D02*
Y0009805D01*
X0036557Y0010330D02*
X0036295D01*
X0036207Y0010155D01*
Y0009980D01*
X0036295Y0009805D01*
X0036557D01*
X0036846Y0010067D02*
X0037108D01*
X0036758Y0010330D02*
X0037108D01*
Y0009805D01*
X0036758D01*
X0037309Y0010330D02*
X0037615D01*
Y0009805D01*
X0034181Y0009612D02*
X0034268Y0009524D01*
X0034312Y0009437D01*
Y0009262D01*
X0034268Y0009175D01*
X0034181Y0009087D01*
X0034093D01*
X0034006Y0009175D01*
X0033962Y0009262D01*
Y0009437D01*
X0034006Y0009524D01*
X0034093Y0009612D01*
X0034181D01*
X0034732D02*
X0034819Y0009524D01*
X0034863Y0009437D01*
Y0009262D01*
X0034819Y0009175D01*
X0034732Y0009087D01*
X0034644D01*
X0034557Y0009175D01*
X0034513Y0009262D01*
Y0009437D01*
X0034557Y0009524D01*
X0034644Y0009612D01*
X0034732D01*
X0035283D02*
X0035370Y0009524D01*
X0035414Y0009437D01*
Y0009262D01*
X0035370Y0009175D01*
X0035283Y0009087D01*
X0035195D01*
X0035108Y0009175D01*
X0035064Y0009262D01*
Y0009437D01*
X0035108Y0009524D01*
X0035195Y0009612D01*
X0035283D01*
X0035834D02*
X0035921Y0009524D01*
X0035965Y0009437D01*
Y0009262D01*
X0035921Y0009175D01*
X0035834Y0009087D01*
X0035746D01*
X0035659Y0009175D01*
X0035615Y0009262D01*
Y0009437D01*
X0035659Y0009524D01*
X0035746Y0009612D01*
X0035834D01*
X0036385D02*
X0036472Y0009524D01*
X0036516Y0009437D01*
Y0009262D01*
X0036472Y0009175D01*
X0036385Y0009087D01*
X0036297D01*
X0036210Y0009175D01*
X0036166Y0009262D01*
Y0009437D01*
X0036210Y0009524D01*
X0036297Y0009612D01*
X0036385D01*
X0036936D02*
X0037023Y0009524D01*
X0037067Y0009437D01*
Y0009262D01*
X0037023Y0009175D01*
X0036936Y0009087D01*
X0036848D01*
X0036761Y0009175D01*
X0036717Y0009262D01*
Y0009437D01*
X0036761Y0009524D01*
X0036848Y0009612D01*
X0036936D01*
X0037268D02*
X0037618D01*
X0037268Y0009262D01*
Y0009175D01*
X0037312Y0009087D01*
X0037574D01*
X0037618Y0009175D01*
X0038125Y0009612D02*
Y0009087D01*
X0038169Y0009612D02*
X0037906D01*
X0037819Y0009437D01*
Y0009262D01*
X0037906Y0009087D01*
X0038169D01*
X0034310Y0009330D02*
Y0008805D01*
X0034353Y0009330D02*
X0034091D01*
X0034003Y0009155D01*
Y0008980D01*
X0034091Y0008805D01*
X0034353D01*
X0034554Y0009330D02*
Y0008805D01*
X0034642Y0008892D01*
X0034729Y0009067D01*
X0034817Y0008892D01*
X0034904Y0008805D01*
Y0009330D01*
X0035105Y0008892D02*
X0035149Y0008805D01*
X0035412D01*
X0035455Y0008892D01*
Y0008980D01*
X0035412Y0009067D01*
X0035149D01*
X0035105Y0009155D01*
Y0009242D01*
X0035149Y0009330D01*
X0035412D01*
X0035455Y0009242D01*
X0035656Y0009505D02*
X0036006D01*
X0036514Y0009330D02*
Y0008805D01*
X0036557Y0009330D02*
X0036295D01*
X0036207Y0009155D01*
Y0008980D01*
X0036295Y0008805D01*
X0036557D01*
X0036846Y0009067D02*
X0037108D01*
X0036758Y0009330D02*
X0037108D01*
Y0008805D01*
X0036758D01*
X0037309Y0009330D02*
X0037615D01*
Y0008805D01*
X0035834Y0008612D02*
X0035921Y0008524D01*
X0035965Y0008437D01*
Y0008262D01*
X0035921Y0008175D01*
X0035834Y0008087D01*
X0035746D01*
X0035659Y0008175D01*
X0035615Y0008262D01*
Y0008437D01*
X0035659Y0008524D01*
X0035746Y0008612D01*
X0035834D01*
X0036385D02*
X0036472Y0008524D01*
X0036516Y0008437D01*
Y0008262D01*
X0036472Y0008175D01*
X0036385Y0008087D01*
X0036297D01*
X0036210Y0008175D01*
X0036166Y0008262D01*
Y0008437D01*
X0036210Y0008524D01*
X0036297Y0008612D01*
X0036385D01*
X0036936D02*
X0037023Y0008524D01*
X0037067Y0008437D01*
Y0008262D01*
X0037023Y0008175D01*
X0036936Y0008087D01*
X0036848D01*
X0036761Y0008175D01*
X0036717Y0008262D01*
Y0008437D01*
X0036761Y0008524D01*
X0036848Y0008612D01*
X0036936D01*
X0037618Y0008524D02*
X0037530Y0008612D01*
X0037355D01*
X0037268Y0008524D01*
Y0008437D01*
X0037443Y0008262D01*
X0037268Y0008087D01*
X0037618D01*
X0038125Y0008612D02*
Y0008087D01*
X0038169Y0008612D02*
X0037906D01*
X0037819Y0008437D01*
Y0008262D01*
X0037906Y0008087D01*
X0038169D01*
X0034310Y0003530D02*
Y0003005D01*
X0034353Y0003530D02*
X0034091D01*
X0034003Y0003355D01*
Y0003180D01*
X0034091Y0003005D01*
X0034353D01*
X0034554Y0003530D02*
Y0003005D01*
X0034642Y0003092D01*
X0034729Y0003267D01*
X0034817Y0003092D01*
X0034904Y0003005D01*
Y0003530D01*
X0035105Y0003092D02*
X0035149Y0003005D01*
X0035412D01*
X0035455Y0003092D01*
Y0003180D01*
X0035412Y0003267D01*
X0035149D01*
X0035105Y0003355D01*
Y0003442D01*
X0035149Y0003530D01*
X0035412D01*
X0035455Y0003442D01*
X0035656Y0003705D02*
X0036006D01*
X0036514Y0003530D02*
Y0003005D01*
X0036557Y0003530D02*
X0036295D01*
X0036207Y0003355D01*
Y0003180D01*
X0036295Y0003005D01*
X0036557D01*
X0036846Y0003267D02*
X0037108D01*
X0036758Y0003530D02*
X0037108D01*
Y0003005D01*
X0036758D01*
X0037309Y0003530D02*
X0037615D01*
Y0003005D01*
X0035921Y0002812D02*
X0036009Y0002724D01*
X0036052Y0002637D01*
Y0002462D01*
X0036009Y0002375D01*
X0035921Y0002287D01*
X0035834D01*
X0035746Y0002375D01*
X0035702Y0002462D01*
Y0002637D01*
X0035746Y0002724D01*
X0035834Y0002812D01*
X0035921D01*
X0036472D02*
X0036560Y0002724D01*
X0036603Y0002637D01*
Y0002462D01*
X0036560Y0002375D01*
X0036472Y0002287D01*
X0036385D01*
X0036297Y0002375D01*
X0036253Y0002462D01*
Y0002637D01*
X0036297Y0002724D01*
X0036385Y0002812D01*
X0036472D01*
X0037023D02*
X0037111Y0002724D01*
X0037154Y0002637D01*
Y0002462D01*
X0037111Y0002375D01*
X0037023Y0002287D01*
X0036936D01*
X0036848Y0002375D01*
X0036804Y0002462D01*
Y0002637D01*
X0036848Y0002724D01*
X0036936Y0002812D01*
X0037023D01*
X0037355D02*
X0037530D01*
X0037443D02*
Y0002287D01*
X0037530Y0002375D01*
X0038125Y0002812D02*
Y0002287D01*
X0038169Y0002812D02*
X0037906D01*
X0037819Y0002637D01*
Y0002462D01*
X0037906Y0002287D01*
X0038169D01*
X0034310Y0002530D02*
Y0002005D01*
X0034353Y0002530D02*
X0034091D01*
X0034003Y0002355D01*
Y0002180D01*
X0034091Y0002005D01*
X0034353D01*
X0034554Y0002530D02*
Y0002005D01*
X0034642Y0002092D01*
X0034729Y0002267D01*
X0034817Y0002092D01*
X0034904Y0002005D01*
Y0002530D01*
X0035105Y0002092D02*
X0035149Y0002005D01*
X0035412D01*
X0035455Y0002092D01*
Y0002180D01*
X0035412Y0002267D01*
X0035149D01*
X0035105Y0002355D01*
Y0002442D01*
X0035149Y0002530D01*
X0035412D01*
X0035455Y0002442D01*
X0035656Y0002705D02*
X0036006D01*
X0036514Y0002530D02*
Y0002005D01*
X0036557Y0002530D02*
X0036295D01*
X0036207Y0002355D01*
Y0002180D01*
X0036295Y0002005D01*
X0036557D01*
X0036846Y0002267D02*
X0037108D01*
X0036758Y0002530D02*
X0037108D01*
Y0002005D01*
X0036758D01*
X0037309Y0002530D02*
X0037615D01*
Y0002005D01*
X0035834Y0001812D02*
X0035921Y0001724D01*
X0035965Y0001637D01*
Y0001462D01*
X0035921Y0001375D01*
X0035834Y0001287D01*
X0035746D01*
X0035659Y0001375D01*
X0035615Y0001462D01*
Y0001637D01*
X0035659Y0001724D01*
X0035746Y0001812D01*
X0035834D01*
X0036385D02*
X0036472Y0001724D01*
X0036516Y0001637D01*
Y0001462D01*
X0036472Y0001375D01*
X0036385Y0001287D01*
X0036297D01*
X0036210Y0001375D01*
X0036166Y0001462D01*
Y0001637D01*
X0036210Y0001724D01*
X0036297Y0001812D01*
X0036385D01*
X0036936D02*
X0037023Y0001724D01*
X0037067Y0001637D01*
Y0001462D01*
X0037023Y0001375D01*
X0036936Y0001287D01*
X0036848D01*
X0036761Y0001375D01*
X0036717Y0001462D01*
Y0001637D01*
X0036761Y0001724D01*
X0036848Y0001812D01*
X0036936D01*
X0037268D02*
X0037618D01*
X0037268Y0001462D01*
Y0001375D01*
X0037312Y0001287D01*
X0037574D01*
X0037618Y0001375D01*
X0038125Y0001812D02*
Y0001287D01*
X0038169Y0001812D02*
X0037906D01*
X0037819Y0001637D01*
Y0001462D01*
X0037906Y0001287D01*
X0038169D01*
X0034310Y0001530D02*
Y0001005D01*
X0034353Y0001530D02*
X0034091D01*
X0034003Y0001355D01*
Y0001180D01*
X0034091Y0001005D01*
X0034353D01*
X0034554Y0001530D02*
Y0001005D01*
X0034642Y0001092D01*
X0034729Y0001267D01*
X0034817Y0001092D01*
X0034904Y0001005D01*
Y0001530D01*
X0035105Y0001092D02*
X0035149Y0001005D01*
X0035412D01*
X0035455Y0001092D01*
Y0001180D01*
X0035412Y0001267D01*
X0035149D01*
X0035105Y0001355D01*
Y0001442D01*
X0035149Y0001530D01*
X0035412D01*
X0035455Y0001442D01*
X0035656Y0001705D02*
X0036006D01*
X0036514Y0001530D02*
Y0001005D01*
X0036557Y0001530D02*
X0036295D01*
X0036207Y0001355D01*
Y0001180D01*
X0036295Y0001005D01*
X0036557D01*
X0036846Y0001267D02*
X0037108D01*
X0036758Y0001530D02*
X0037108D01*
Y0001005D01*
X0036758D01*
X0037309Y0001530D02*
X0037615D01*
Y0001005D01*
X0037618Y0000724D02*
X0037530Y0000812D01*
X0037355D01*
X0037268Y0000724D01*
Y0000637D01*
X0037443Y0000462D01*
X0037268Y0000287D01*
X0037618D01*
X0038125Y0000812D02*
Y0000287D01*
X0038169Y0000812D02*
X0037906D01*
X0037819Y0000637D01*
Y0000462D01*
X0037906Y0000287D01*
X0038169D01*
X0047139Y0002996D02*
X0045487D01*
Y0003704D01*
X0047139D01*
Y0002996D01*
X0037891Y0004504D02*
X0039543D01*
Y0003796D01*
X0037891D01*
Y0004504D01*
Y0003504D02*
X0039543D01*
Y0002796D01*
X0037891D01*
Y0003504D01*
Y0002504D02*
X0039543D01*
Y0001796D01*
X0037891D01*
Y0002504D01*
X0045521Y0001904D02*
X0047173D01*
Y0001196D01*
X0045521D01*
Y0001904D01*
Y0002804D02*
X0047173D01*
Y0002096D01*
X0045521D01*
Y0002804D01*
X0047139Y0003896D02*
X0045487D01*
Y0004604D01*
X0047139D01*
Y0003896D01*
Y0004796D02*
X0045487D01*
Y0005504D01*
X0047139D01*
Y0004796D01*
Y0010796D02*
X0045487D01*
Y0011504D01*
X0047139D01*
Y0010796D01*
X0037891Y0012304D02*
X0039543D01*
Y0011596D01*
X0037891D01*
Y0012304D01*
Y0011304D02*
X0039543D01*
Y0010596D01*
X0037891D01*
Y0011304D01*
Y0010304D02*
X0039543D01*
Y0009596D01*
X0037891D01*
Y0010304D01*
X0045521Y0009704D02*
X0047173D01*
Y0008996D01*
X0045521D01*
Y0009704D01*
Y0010604D02*
X0047173D01*
Y0009896D01*
X0045521D01*
Y0010604D01*
X0047139Y0011696D02*
X0045487D01*
Y0012404D01*
X0047139D01*
Y0011696D01*
Y0012596D02*
X0045487D01*
Y0013304D01*
X0047139D01*
Y0012596D01*
X0013484Y0012507D02*
X0011832D01*
Y0013215D01*
X0013484D01*
Y0012507D01*
X0022305Y0009535D02*
X0022304Y0011187D01*
X0023013D01*
Y0009535D01*
X0022305D01*
X0018305Y0013535D02*
X0018304Y0015187D01*
X0019013D01*
Y0013535D01*
X0018305D01*
Y0005535D02*
X0018304Y0007187D01*
X0019013D01*
Y0005535D01*
X0018305D01*
X0017305Y0038535D02*
X0017304Y0040187D01*
X0018013D01*
Y0038535D01*
X0017305D01*
X0020305Y0043035D02*
X0020304Y0044687D01*
X0021013D01*
Y0043035D01*
X0020305D01*
X0007805Y0012035D02*
X0007804Y0013687D01*
X0008513D01*
Y0012035D01*
X0007805D01*
X0016727Y0027362D02*
X0020664D01*
Y0017520D01*
X0002948D01*
X0002160D01*
Y0027362D01*
X0016727D01*
X0010209Y0005244D02*
X0007209D01*
Y0008244D01*
X0010209D01*
Y0005244D01*
X0013659Y0008294D02*
X0010659D01*
Y0011294D01*
X0013659D01*
Y0008294D01*
X0021659D02*
X0018659D01*
Y0011294D01*
X0021659D01*
Y0008294D01*
X0017659Y0012294D02*
X0014659D01*
Y0015294D01*
X0017659D01*
Y0012294D01*
Y0004294D02*
X0014659D01*
Y0007294D01*
X0017659D01*
Y0004294D01*
X0025159Y0025394D02*
Y0030294D01*
X0025859D01*
Y0028694D01*
X0026459D01*
Y0030294D01*
X0027059D01*
Y0028694D01*
X0027709D01*
Y0030244D01*
X0028409D01*
Y0028694D01*
X0029109D01*
Y0030244D01*
X0029809D01*
Y0028694D01*
X0030459D01*
Y0030294D01*
X0031109D01*
Y0025294D01*
X0030309D01*
Y0027644D01*
X0026009D01*
Y0025294D01*
X0025159D01*
Y0025394D01*
X0008395Y0010794D02*
X0008159D01*
X0008395Y0011267D02*
X0008868Y0010794D01*
X0008395Y0010321D01*
Y0011267D01*
X0009104Y0010794D02*
X0008868D01*
Y0010439D02*
Y0011148D01*
Y0011385D02*
X0008631Y0011148D01*
X0008868Y0011385D02*
X0008750D01*
X0008868D02*
Y0011267D01*
G01X0005345Y0033955D02*
G03X0005345Y0033921I0001064J0000000D01*
G01X0006409Y0035019D02*
G03X0005345Y0033955I0000000J0001064D01*
G01X0007473D02*
G03X0006409Y0035019I0001064J0000000D01*
G01X0007472Y0033921D02*
G03X0007473Y0033955I0001063J0000034D01*
G01X0006409Y0032857D02*
G03X0007473Y0033921I0000000J0001064D01*
G01X0005345D02*
G03X0006409Y0032857I0001064J0000000D01*
G01X0005316Y0031328D02*
G03X0005318Y0031294I0001065J0000000D01*
G01X0006381Y0032393D02*
G03X0005316Y0031328I0000000J0001065D01*
G01X0007446D02*
G03X0006381Y0032393I0001065J0000000D01*
G01X0007445Y0031294D02*
G03X0007446Y0031328I0001064J0000034D01*
G01X0006381Y0030231D02*
G03X0007444Y0031294I0000000J0001063D01*
G01X0005318D02*
G03X0006381Y0030231I0001063J0000000D01*
G01X0007400Y0038860D02*
G03X0007400Y0038894I0001064J0000000D01*
G01X0006336Y0037796D02*
G03X0007400Y0038860I0000000J0001064D01*
G01X0005272D02*
G03X0006336Y0037796I0001064J0000000D01*
G01X0005273Y0038894D02*
G03X0005272Y0038860I0001063J0000034D01*
G01X0006336Y0039958D02*
G03X0005272Y0038894I0000000J0001064D01*
G01X0007400D02*
G03X0006336Y0039958I0001064J0000000D01*
G01X0022224Y0046233D02*
G03X0022222Y0046267I0001065J0000000D01*
G01X0021159Y0045168D02*
G03X0022224Y0046233I0000000J0001065D01*
G01X0020094D02*
G03X0021159Y0045168I0001065J0000000D01*
G01X0020095Y0046267D02*
G03X0020094Y0046233I0001064J0000034D01*
G01X0021159Y0047330D02*
G03X0020096Y0046267I0000000J0001063D01*
G01X0022222D02*
G03X0021159Y0047330I0001063J0000000D01*
G01X0012224Y0046233D02*
G03X0012222Y0046267I0001065J0000000D01*
G01X0011159Y0045168D02*
G03X0012224Y0046233I0000000J0001065D01*
G01X0010094D02*
G03X0011159Y0045168I0001065J0000000D01*
G01X0010095Y0046267D02*
G03X0010094Y0046233I0001064J0000034D01*
G01X0011159Y0047330D02*
G03X0010096Y0046267I0000000J0001063D01*
G01X0012222D02*
G03X0011159Y0047330I0001063J0000000D01*
G01X0008631Y0010038D02*
G03X0009387Y0010794I0000000J0000756D01*
G01X0007875D02*
G03X0008631Y0010038I0000756J0000000D01*
Y0011551D02*
G03X0007874Y0010794I0000000J0000757D01*
G01X0009388D02*
G03X0008631Y0011551I0000757J0000000D01*
G01X0005345Y0036455D02*
G03X0005345Y0036421I0001064J0000000D01*
G01X0006409Y0037519D02*
G03X0005345Y0036455I0000000J0001064D01*
G01X0007473D02*
G03X0006409Y0037519I0001064J0000000D01*
G01X0007472Y0036421D02*
G03X0007473Y0036455I0001063J0000034D01*
G01X0006409Y0035357D02*
G03X0007473Y0036421I0000000J0001064D01*
G01X0005345D02*
G03X0006409Y0035357I0001064J0000000D01*
G54D118*
G01X0039328Y0013631D02*
X0039415Y0013544D01*
X0039459Y0013456D01*
Y0013281D01*
X0039415Y0013194D01*
X0039328Y0013106D01*
X0039240D01*
X0039153Y0013194D01*
X0039109Y0013281D01*
Y0013456D01*
X0039153Y0013544D01*
X0039240Y0013631D01*
X0039328D01*
X0039957D02*
X0040045Y0013544D01*
X0040088Y0013456D01*
Y0013281D01*
X0040045Y0013194D01*
X0039957Y0013106D01*
X0039870D01*
X0039782Y0013194D01*
X0039738Y0013281D01*
Y0013456D01*
X0039782Y0013544D01*
X0039870Y0013631D01*
X0039957D01*
X0040587D02*
X0040674Y0013544D01*
X0040718Y0013456D01*
Y0013281D01*
X0040674Y0013194D01*
X0040587Y0013106D01*
X0040499D01*
X0040412Y0013194D01*
X0040368Y0013281D01*
Y0013456D01*
X0040412Y0013544D01*
X0040499Y0013631D01*
X0040587D01*
X0041217D02*
X0041304Y0013544D01*
X0041348Y0013456D01*
Y0013281D01*
X0041304Y0013194D01*
X0041217Y0013106D01*
X0041129D01*
X0041042Y0013194D01*
X0040998Y0013281D01*
Y0013456D01*
X0041042Y0013544D01*
X0041129Y0013631D01*
X0041217D01*
X0041846D02*
X0041934Y0013544D01*
X0041977Y0013456D01*
Y0013281D01*
X0041934Y0013194D01*
X0041846Y0013106D01*
X0041759D01*
X0041671Y0013194D01*
X0041627Y0013281D01*
Y0013456D01*
X0041671Y0013544D01*
X0041759Y0013631D01*
X0041846D01*
X0042476D02*
X0042563Y0013544D01*
X0042607Y0013456D01*
Y0013281D01*
X0042563Y0013194D01*
X0042476Y0013106D01*
X0042388D01*
X0042301Y0013194D01*
X0042257Y0013281D01*
Y0013456D01*
X0042301Y0013544D01*
X0042388Y0013631D01*
X0042476D01*
X0042887D02*
X0043062D01*
X0042974D02*
Y0013106D01*
X0043062Y0013194D01*
X0043604Y0013631D02*
Y0013369D01*
X0043429Y0013106D02*
X0043560Y0013369D01*
X0043648D01*
X0043779Y0013106D01*
X0039590Y0015499D02*
X0039896D01*
Y0014975D01*
X0040176Y0015324D02*
X0040526D01*
X0040176Y0015499D02*
Y0015237D01*
X0040307Y0014975D01*
X0040395D01*
X0040526Y0015237D01*
Y0015499D01*
X0040981D02*
Y0014975D01*
X0040806D02*
X0041156D01*
X0041435Y0015062D02*
X0041479Y0014975D01*
X0041742D01*
X0041785Y0015062D01*
Y0015150D01*
X0041742Y0015237D01*
X0041479D01*
X0041435Y0015324D01*
Y0015412D01*
X0041479Y0015499D01*
X0041742D01*
X0041785Y0015412D01*
X0042240Y0015499D02*
Y0015237D01*
X0042065Y0014975D02*
X0042196Y0015237D01*
X0042284D01*
X0042415Y0014975D01*
X0042826Y0015237D02*
X0042695Y0015499D01*
X0043045Y0015237D02*
X0042782D01*
X0042695Y0015150D01*
Y0015062D01*
X0042782Y0014975D01*
X0043045D01*
Y0015499D01*
X0043324Y0015412D02*
X0043368Y0015499D01*
X0043631D01*
X0043674Y0015412D01*
Y0015062D01*
X0043631Y0014975D01*
X0043368D01*
X0043324Y0015062D01*
X0041217Y0005831D02*
X0041304Y0005744D01*
X0041348Y0005656D01*
Y0005481D01*
X0041304Y0005394D01*
X0041217Y0005306D01*
X0041129D01*
X0041042Y0005394D01*
X0040998Y0005481D01*
Y0005656D01*
X0041042Y0005744D01*
X0041129Y0005831D01*
X0041217D01*
X0041846D02*
X0041934Y0005744D01*
X0041977Y0005656D01*
Y0005481D01*
X0041934Y0005394D01*
X0041846Y0005306D01*
X0041759D01*
X0041671Y0005394D01*
X0041627Y0005481D01*
Y0005656D01*
X0041671Y0005744D01*
X0041759Y0005831D01*
X0041846D01*
X0042476D02*
X0042563Y0005744D01*
X0042607Y0005656D01*
Y0005481D01*
X0042563Y0005394D01*
X0042476Y0005306D01*
X0042388D01*
X0042301Y0005394D01*
X0042257Y0005481D01*
Y0005656D01*
X0042301Y0005744D01*
X0042388Y0005831D01*
X0042476D01*
X0042887D02*
X0043062D01*
X0042974D02*
Y0005306D01*
X0043062Y0005394D01*
X0043604Y0005831D02*
Y0005569D01*
X0043429Y0005306D02*
X0043560Y0005569D01*
X0043648D01*
X0043779Y0005306D01*
X0039590Y0007699D02*
X0039896D01*
Y0007175D01*
X0040176Y0007524D02*
X0040526D01*
X0040176Y0007699D02*
Y0007437D01*
X0040307Y0007175D01*
X0040395D01*
X0040526Y0007437D01*
Y0007699D01*
X0040981D02*
Y0007175D01*
X0040806D02*
X0041156D01*
X0041435Y0007262D02*
X0041479Y0007175D01*
X0041742D01*
X0041785Y0007262D01*
Y0007350D01*
X0041742Y0007437D01*
X0041479D01*
X0041435Y0007524D01*
Y0007612D01*
X0041479Y0007699D01*
X0041742D01*
X0041785Y0007612D01*
X0042240Y0007699D02*
Y0007437D01*
X0042065Y0007175D02*
X0042196Y0007437D01*
X0042284D01*
X0042415Y0007175D01*
X0042826Y0007437D02*
X0042695Y0007699D01*
X0043045Y0007437D02*
X0042782D01*
X0042695Y0007350D01*
Y0007262D01*
X0042782Y0007175D01*
X0043045D01*
Y0007699D01*
X0043324Y0007612D02*
X0043368Y0007699D01*
X0043631D01*
X0043674Y0007612D01*
Y0007262D01*
X0043631Y0007175D01*
X0043368D01*
X0043324Y0007262D01*
X0021440Y0007976D02*
X0021090D01*
X0021440Y0007714D02*
Y0008239D01*
X0021090Y0007714D02*
Y0008239D01*
X0020811Y0007801D02*
X0020767Y0007714D01*
X0020504D01*
X0020461Y0007801D01*
Y0008151D01*
X0020504Y0008239D01*
X0020767D01*
X0020811Y0008151D01*
X0020006Y0007714D02*
Y0008239D01*
X0020181D02*
X0019831D01*
X0019551Y0007889D02*
X0019201D01*
X0019551Y0007714D02*
Y0007976D01*
X0019420Y0008239D01*
X0019332D01*
X0019201Y0007976D01*
Y0007714D01*
X0018922D02*
X0018615D01*
Y0008239D01*
X0016053Y0015526D02*
X0016096Y0015438D01*
X0016359D01*
X0016403Y0015526D01*
Y0015701D01*
X0016315Y0015788D01*
X0016053D01*
Y0015963D01*
X0016403D01*
X0015773D02*
Y0015526D01*
X0015729Y0015438D01*
X0015598Y0015701D01*
Y0015788D02*
Y0015701D01*
X0015467Y0015438D01*
X0015423Y0015526D01*
Y0015963D01*
X0015143Y0015876D02*
X0015099Y0015963D01*
X0014837D01*
X0014793Y0015876D01*
Y0015788D01*
X0014837Y0015701D01*
X0015099D01*
X0015143Y0015613D01*
Y0015526D01*
X0015099Y0015438D01*
X0014837D01*
X0014793Y0015526D01*
X0015245Y0011976D02*
X0015508D01*
X0015595Y0012064D01*
Y0012151D01*
X0015508Y0012239D01*
X0015245D01*
Y0011714D01*
X0014965Y0012239D02*
Y0011801D01*
X0014922Y0011714D01*
X0014659D01*
X0014615Y0011801D01*
Y0012239D01*
X0016096Y0007701D02*
X0016359D01*
X0016403Y0007613D01*
Y0007526D01*
X0016359Y0007438D01*
X0016096D01*
X0016053Y0007526D01*
Y0007613D01*
X0016228Y0007963D01*
X0015773D02*
Y0007526D01*
X0015729Y0007438D01*
X0015598Y0007701D01*
Y0007788D02*
Y0007701D01*
X0015467Y0007438D01*
X0015423Y0007526D01*
Y0007963D01*
X0015143Y0007876D02*
X0015099Y0007963D01*
X0014837D01*
X0014793Y0007876D01*
Y0007788D01*
X0014837Y0007701D01*
X0015099D01*
X0015143Y0007613D01*
Y0007526D01*
X0015099Y0007438D01*
X0014837D01*
X0014793Y0007526D01*
X0016854Y0004239D02*
Y0003714D01*
X0016767Y0003801D01*
X0016592Y0004151D01*
X0016504Y0004239D01*
Y0003714D01*
X0016225Y0004239D02*
Y0003801D01*
X0016181Y0003714D01*
X0016050Y0003976D01*
Y0004064D02*
Y0003976D01*
X0015918Y0003714D01*
X0015875Y0003801D01*
Y0004239D01*
X0015289Y0003714D02*
X0015245Y0003801D01*
Y0004151D01*
X0015289Y0004239D01*
X0015551D01*
X0015595Y0004151D01*
Y0003801D01*
X0015551Y0003714D01*
X0015289D01*
X0014659D02*
Y0004239D01*
X0014615Y0003714D02*
X0014878D01*
X0014965Y0003889D01*
Y0004064D01*
X0014878Y0004239D01*
X0014615D01*
X0007580Y0036256D02*
Y0036431D01*
Y0036343D02*
X0008105D01*
X0008018Y0036431D01*
X0007668Y0036798D02*
X0007580Y0036842D01*
Y0037104D01*
X0007668Y0037148D01*
X0008018D01*
X0008105Y0037104D01*
Y0036842D01*
X0008018Y0036798D01*
X0005057Y0032519D02*
Y0032781D01*
X0004795D02*
X0005319D01*
Y0032431D01*
X0005144Y0033105D02*
X0004795D01*
Y0033061D02*
Y0033367D01*
X0004882Y0033411D01*
X0005144D01*
X0004795Y0033909D02*
X0004882Y0033997D01*
X0004970Y0034041D01*
X0005144D01*
X0005232Y0033997D01*
X0005319Y0033909D01*
Y0033822D01*
X0005232Y0033734D01*
X0005144Y0033691D01*
X0004970D01*
X0004882Y0033734D01*
X0004795Y0033822D01*
Y0033909D01*
Y0034320D02*
Y0034495D01*
Y0034408D02*
X0005319D01*
X0005232Y0034495D01*
X0007580Y0033668D02*
Y0034018D01*
X0007930Y0033668D01*
X0008018D01*
X0008105Y0033712D01*
Y0033975D01*
X0008018Y0034018D01*
X0007668Y0034298D02*
X0007580Y0034342D01*
Y0034604D01*
X0007668Y0034648D01*
X0008018D01*
X0008105Y0034604D01*
Y0034342D01*
X0008018Y0034298D01*
X0005030Y0029891D02*
Y0030154D01*
X0004767D02*
X0005292D01*
Y0029804D01*
X0005117Y0030477D02*
X0004767D01*
Y0030434D02*
Y0030740D01*
X0004855Y0030784D01*
X0005117D01*
X0004767Y0031282D02*
X0004855Y0031370D01*
X0004942Y0031413D01*
X0005117D01*
X0005205Y0031370D01*
X0005292Y0031282D01*
Y0031195D01*
X0005205Y0031107D01*
X0005117Y0031063D01*
X0004942D01*
X0004855Y0031107D01*
X0004767Y0031195D01*
Y0031282D01*
Y0031693D02*
Y0031868D01*
Y0031780D02*
X0005292D01*
X0005205Y0031868D01*
X0007641Y0031391D02*
X0007553Y0031304D01*
Y0031129D01*
X0007641Y0031041D01*
X0007728D01*
X0007903Y0031216D01*
X0008078Y0031041D01*
Y0031391D01*
X0007641Y0031671D02*
X0007553Y0031715D01*
Y0031977D01*
X0007641Y0032021D01*
X0007990D01*
X0008078Y0031977D01*
Y0031715D01*
X0007990Y0031671D01*
X0007688Y0040296D02*
Y0040034D01*
X0007950D02*
X0007425D01*
Y0040384D01*
X0007600Y0039710D02*
X0007950D01*
Y0039754D02*
Y0039448D01*
X0007863Y0039404D01*
X0007600D01*
X0007950Y0038906D02*
X0007863Y0038818D01*
X0007775Y0038775D01*
X0007600D01*
X0007513Y0038818D01*
X0007425Y0038906D01*
Y0038993D01*
X0007513Y0039081D01*
X0007600Y0039125D01*
X0007775D01*
X0007863Y0039081D01*
X0007950Y0038993D01*
Y0038906D01*
Y0038495D02*
Y0038320D01*
Y0038407D02*
X0007425D01*
X0007513Y0038320D01*
X0004902Y0038840D02*
Y0039103D01*
X0004989Y0039147D01*
X0005077D01*
X0005164Y0039103D01*
Y0038840D01*
X0005077Y0038797D01*
X0004989D01*
X0004640Y0038972D01*
X0005077Y0038517D02*
X0005164Y0038473D01*
Y0038211D01*
X0005077Y0038167D01*
X0004727D01*
X0004640Y0038211D01*
Y0038473D01*
X0004727Y0038517D01*
X0022511Y0053730D02*
Y0053467D01*
X0022773D02*
X0022248D01*
Y0053817D01*
X0022423Y0053144D02*
X0022773D01*
Y0053188D02*
Y0052881D01*
X0022685Y0052838D01*
X0022423D01*
X0022773Y0052339D02*
X0022685Y0052252D01*
X0022598Y0052208D01*
X0022423D01*
X0022336Y0052252D01*
X0022248Y0052339D01*
Y0052427D01*
X0022336Y0052514D01*
X0022423Y0052558D01*
X0022598D01*
X0022685Y0052514D01*
X0022773Y0052427D01*
Y0052339D01*
Y0051709D02*
X0022685Y0051622D01*
X0022598Y0051578D01*
X0022423D01*
X0022336Y0051622D01*
X0022248Y0051709D01*
Y0051797D01*
X0022336Y0051884D01*
X0022423Y0051928D01*
X0022598D01*
X0022685Y0051884D01*
X0022773Y0051797D01*
Y0051709D01*
Y0051299D02*
Y0051124D01*
Y0051211D02*
X0022248D01*
X0022336Y0051124D01*
X0022511Y0049799D02*
X0022773Y0049930D01*
X0022511Y0049580D02*
Y0049842D01*
X0022423Y0049930D01*
X0022336D01*
X0022248Y0049842D01*
Y0049580D01*
X0022773D01*
X0022511Y0049213D02*
Y0048950D01*
X0022773Y0049300D02*
Y0048950D01*
X0022248D01*
Y0049300D01*
Y0048671D02*
X0022685D01*
X0022773Y0048627D01*
X0022511Y0048496D01*
X0022423D02*
X0022511D01*
X0022773Y0048364D01*
X0022685Y0048321D01*
X0022248D01*
X0022773Y0047735D02*
X0022685Y0047691D01*
X0022336D01*
X0022248Y0047735D01*
Y0047997D01*
X0022336Y0048041D01*
X0022685D01*
X0022773Y0047997D01*
Y0047735D01*
X0022511Y0047061D02*
Y0047324D01*
X0022423Y0047411D01*
X0022336D01*
X0022248Y0047324D01*
Y0047061D01*
X0022773D01*
X0022685Y0045955D02*
X0022773Y0045911D01*
Y0045649D01*
X0022685Y0045605D01*
X0022336D01*
X0022248Y0045649D01*
Y0045911D01*
X0022336Y0045955D01*
X0019987Y0046974D02*
Y0046799D01*
Y0046887D02*
X0019462D01*
X0019550Y0046799D01*
X0019987Y0046432D02*
Y0046257D01*
Y0046344D02*
X0019462D01*
X0019550Y0046257D01*
X0019900Y0045890D02*
X0019987Y0045846D01*
Y0045583D01*
X0019900Y0045540D01*
X0019550D01*
X0019462Y0045583D01*
Y0045846D01*
X0019550Y0045890D01*
X0008953Y0008388D02*
X0008603D01*
X0008953Y0008738D01*
Y0008826D01*
X0008909Y0008913D01*
X0008646D01*
X0008603Y0008826D01*
X0008323Y0008913D02*
Y0008476D01*
X0008279Y0008388D01*
X0008148Y0008651D01*
Y0008738D02*
Y0008651D01*
X0008017Y0008388D01*
X0007973Y0008476D01*
Y0008913D01*
X0007693Y0008826D02*
X0007649Y0008913D01*
X0007387D01*
X0007343Y0008826D01*
Y0008738D01*
X0007387Y0008651D01*
X0007649D01*
X0007693Y0008563D01*
Y0008476D01*
X0007649Y0008388D01*
X0007387D01*
X0007343Y0008476D01*
X0009859Y0004664D02*
Y0005189D01*
X0010034D02*
X0009684D01*
X0009317Y0004926D02*
X0009054D01*
X0009404Y0004664D02*
X0009054D01*
Y0005189D01*
X0009404D01*
X0008775Y0005101D02*
X0008731Y0005189D01*
X0008468D01*
X0008425Y0005101D01*
Y0005014D01*
X0008468Y0004926D01*
X0008731D01*
X0008775Y0004839D01*
Y0004751D01*
X0008731Y0004664D01*
X0008468D01*
X0008425Y0004751D01*
X0008058Y0004926D02*
X0007795D01*
X0008145Y0004664D02*
X0007795D01*
Y0005189D01*
X0008145D01*
X0007384Y0004926D02*
X0007515Y0004664D01*
X0007165Y0004926D02*
X0007428D01*
X0007515Y0005014D01*
Y0005101D01*
X0007428Y0005189D01*
X0007165D01*
Y0004664D01*
X0012053Y0011526D02*
X0012140Y0011438D01*
X0012315D01*
X0012403Y0011526D01*
Y0011613D01*
X0012228Y0011788D01*
X0012403Y0011963D01*
X0012053D01*
X0011773D02*
Y0011526D01*
X0011729Y0011438D01*
X0011598Y0011701D01*
Y0011788D02*
Y0011701D01*
X0011467Y0011438D01*
X0011423Y0011526D01*
Y0011963D01*
X0011143Y0011876D02*
X0011099Y0011963D01*
X0010837D01*
X0010793Y0011876D01*
Y0011788D01*
X0010837Y0011701D01*
X0011099D01*
X0011143Y0011613D01*
Y0011526D01*
X0011099Y0011438D01*
X0010837D01*
X0010793Y0011526D01*
X0012773Y0054031D02*
X0012248D01*
Y0054206D02*
Y0053856D01*
X0012511Y0053489D02*
Y0053227D01*
X0012773Y0053577D02*
Y0053227D01*
X0012248D01*
Y0053577D01*
X0012336Y0052947D02*
X0012248Y0052903D01*
Y0052641D01*
X0012336Y0052597D01*
X0012423D01*
X0012511Y0052641D01*
Y0052903D01*
X0012598Y0052947D01*
X0012685D01*
X0012773Y0052903D01*
Y0052641D01*
X0012685Y0052597D01*
X0012511Y0052230D02*
Y0051967D01*
X0012773Y0052317D02*
Y0051967D01*
X0012248D01*
Y0052317D01*
X0012511Y0051556D02*
X0012773Y0051688D01*
X0012511Y0051338D02*
Y0051600D01*
X0012423Y0051688D01*
X0012336D01*
X0012248Y0051600D01*
Y0051338D01*
X0012773D01*
X0012423Y0050231D02*
X0012773Y0050056D01*
X0012423Y0049881D01*
X0012685Y0049252D02*
X0012773Y0049295D01*
Y0049558D01*
X0012685Y0049602D01*
X0012511D01*
X0012423Y0049514D01*
Y0049252D01*
X0012248D01*
Y0049602D01*
X0012773Y0048972D02*
Y0048622D01*
X0012423Y0048972D01*
X0012336D01*
X0012248Y0048928D01*
Y0048666D01*
X0012336Y0048622D01*
X0012248Y0048342D02*
X0012773Y0048080D01*
X0012511Y0047669D02*
Y0047407D01*
X0012773D02*
X0012248D01*
Y0047757D01*
X0012423Y0047083D02*
X0012773D01*
Y0047127D02*
Y0046821D01*
X0012685Y0046777D01*
X0012423D01*
X0012773Y0046278D02*
X0012685Y0046191D01*
X0012598Y0046147D01*
X0012423D01*
X0012336Y0046191D01*
X0012248Y0046278D01*
Y0046366D01*
X0012336Y0046453D01*
X0012423Y0046497D01*
X0012598D01*
X0012685Y0046453D01*
X0012773Y0046366D01*
Y0046278D01*
Y0045868D02*
Y0045693D01*
Y0045780D02*
X0012248D01*
X0012336Y0045693D01*
X0009725Y0046476D02*
Y0046213D01*
X0009637Y0046169D01*
X0009550D01*
X0009462Y0046213D01*
Y0046476D01*
X0009550Y0046519D01*
X0009637D01*
X0009987Y0046344D01*
X0009900Y0045890D02*
X0009987Y0045846D01*
Y0045583D01*
X0009900Y0045540D01*
X0009550D01*
X0009462Y0045583D01*
Y0045846D01*
X0009550Y0045890D01*
X0017440Y0033257D02*
Y0033082D01*
Y0033170D02*
X0016915D01*
X0017003Y0033082D01*
X0017440Y0032540D02*
X0017178D01*
X0016915Y0032715D02*
X0017178Y0032584D01*
Y0032496D01*
X0016915Y0032365D01*
X0019308Y0036554D02*
Y0036247D01*
X0018783D01*
X0019133Y0035968D02*
Y0035618D01*
X0019308Y0035968D02*
X0019046D01*
X0018783Y0035836D01*
Y0035749D01*
X0019046Y0035618D01*
X0019308D01*
Y0035163D02*
X0018783D01*
Y0035338D02*
Y0034988D01*
X0018871Y0034708D02*
X0018783Y0034665D01*
Y0034402D01*
X0018871Y0034358D01*
X0018958D01*
X0019046Y0034402D01*
Y0034665D01*
X0019133Y0034708D01*
X0019221D01*
X0019308Y0034665D01*
Y0034402D01*
X0019221Y0034358D01*
X0019308Y0033904D02*
X0019046D01*
X0018783Y0034079D02*
X0019046Y0033947D01*
Y0033860D01*
X0018783Y0033729D01*
X0019046Y0033318D02*
X0019308Y0033449D01*
X0019046Y0033099D02*
Y0033362D01*
X0018958Y0033449D01*
X0018871D01*
X0018783Y0033362D01*
Y0033099D01*
X0019308D01*
X0019221Y0032819D02*
X0019308Y0032776D01*
Y0032513D01*
X0019221Y0032469D01*
X0018871D01*
X0018783Y0032513D01*
Y0032776D01*
X0018871Y0032819D01*
X0012767Y0007976D02*
X0012504D01*
X0012854Y0007714D02*
X0012504D01*
Y0008239D01*
X0012854D01*
X0011918Y0007714D02*
Y0008239D01*
X0011875Y0007714D02*
X0012137D01*
X0012225Y0007889D01*
Y0008064D01*
X0012137Y0008239D01*
X0011875D01*
X0011289Y0007714D02*
X0011245Y0007801D01*
Y0008151D01*
X0011289Y0008239D01*
X0011551D01*
X0011595Y0008151D01*
Y0007801D01*
X0011551Y0007714D01*
X0011289D01*
X0010965D02*
Y0008239D01*
X0010878Y0008151D01*
X0010790Y0007976D01*
X0010703Y0008151D01*
X0010615Y0008239D01*
Y0007714D01*
X0020403Y0011613D02*
X0020053D01*
X0020228Y0011963D01*
X0020315D01*
Y0011438D01*
X0019773Y0011963D02*
Y0011526D01*
X0019729Y0011438D01*
X0019598Y0011701D01*
Y0011788D02*
Y0011701D01*
X0019467Y0011438D01*
X0019423Y0011526D01*
Y0011963D01*
X0019143Y0011876D02*
X0019099Y0011963D01*
X0018837D01*
X0018793Y0011876D01*
Y0011788D01*
X0018837Y0011701D01*
X0019099D01*
X0019143Y0011613D01*
Y0011526D01*
X0019099Y0011438D01*
X0018837D01*
X0018793Y0011526D01*
X0013416Y0009752D02*
X0013547Y0009490D01*
X0013197Y0009752D02*
X0013460D01*
X0013547Y0009840D01*
Y0009927D01*
X0013460Y0010015D01*
X0013197D01*
Y0009490D01*
X0012830Y0009752D02*
X0012568D01*
X0012918Y0009490D02*
X0012568D01*
Y0010015D01*
X0012918D01*
X0012288D02*
Y0009578D01*
X0012244Y0009490D01*
X0012113Y0009752D01*
Y0009840D02*
Y0009752D01*
X0011982Y0009490D01*
X0011938Y0009578D01*
Y0010015D01*
X0011352Y0009490D02*
X0011308Y0009578D01*
Y0009927D01*
X0011352Y0010015D01*
X0011615D01*
X0011658Y0009927D01*
Y0009578D01*
X0011615Y0009490D01*
X0011352D01*
X0010679Y0009752D02*
X0010941D01*
X0011029Y0009840D01*
Y0009927D01*
X0010941Y0010015D01*
X0010679D01*
Y0009490D01*
X0009266D02*
Y0010015D01*
X0009223Y0009490D02*
X0009485D01*
X0009573Y0009665D01*
Y0009840D01*
X0009485Y0010015D01*
X0009223D01*
X0008855Y0009752D02*
X0008593D01*
X0008943Y0009490D02*
X0008593D01*
Y0010015D01*
X0008943D01*
X0008313Y0009490D02*
X0008007D01*
Y0010015D01*
X0008987Y0011649D02*
X0008637D01*
X0008987Y0011999D01*
Y0012087D01*
X0008943Y0012174D01*
X0008680D01*
X0008637Y0012087D01*
X0008051Y0011649D02*
Y0012174D01*
X0008007Y0011649D02*
X0008270D01*
X0008357Y0011824D01*
Y0011999D01*
X0008270Y0012174D01*
X0008007D01*
X0017494Y0049829D02*
Y0049567D01*
X0017757D02*
X0017232D01*
Y0049917D01*
X0017407Y0049243D02*
X0017757D01*
Y0049287D02*
Y0048981D01*
X0017669Y0048937D01*
X0017407D01*
X0017757Y0048439D02*
X0017669Y0048351D01*
X0017582Y0048308D01*
X0017407D01*
X0017319Y0048351D01*
X0017232Y0048439D01*
Y0048526D01*
X0017319Y0048614D01*
X0017407Y0048658D01*
X0017582D01*
X0017669Y0048614D01*
X0017757Y0048526D01*
Y0048439D01*
Y0047809D02*
X0017669Y0047722D01*
X0017582Y0047678D01*
X0017407D01*
X0017319Y0047722D01*
X0017232Y0047809D01*
Y0047897D01*
X0017319Y0047984D01*
X0017407Y0048028D01*
X0017582D01*
X0017669Y0047984D01*
X0017757Y0047897D01*
Y0047809D01*
Y0047398D02*
Y0047048D01*
X0017407Y0047398D01*
X0017319D01*
X0017232Y0047354D01*
Y0047092D01*
X0017319Y0047048D01*
X0017757Y0046769D02*
Y0046419D01*
X0017407Y0046769D01*
X0017319D01*
X0017232Y0046725D01*
Y0046462D01*
X0017319Y0046419D01*
X0017494Y0045181D02*
X0017757Y0045312D01*
X0017494Y0044962D02*
Y0045225D01*
X0017407Y0045312D01*
X0017319D01*
X0017232Y0045225D01*
Y0044962D01*
X0017757D01*
X0017494Y0044595D02*
Y0044333D01*
X0017757Y0044683D02*
Y0044333D01*
X0017232D01*
Y0044683D01*
Y0044053D02*
X0017669D01*
X0017757Y0044009D01*
X0017494Y0043878D01*
X0017407D02*
X0017494D01*
X0017757Y0043747D01*
X0017669Y0043703D01*
X0017232D01*
X0017757Y0043117D02*
X0017669Y0043073D01*
X0017319D01*
X0017232Y0043117D01*
Y0043380D01*
X0017319Y0043423D01*
X0017669D01*
X0017757Y0043380D01*
Y0043117D01*
X0017494Y0042444D02*
Y0042706D01*
X0017407Y0042794D01*
X0017319D01*
X0017232Y0042706D01*
Y0042444D01*
X0017757D01*
X0016995Y0043688D02*
X0016907Y0043600D01*
X0016820Y0043556D01*
X0016645D01*
X0016557Y0043600D01*
X0016470Y0043688D01*
Y0043775D01*
X0016557Y0043863D01*
X0016645Y0043906D01*
X0016820D01*
X0016907Y0043863D01*
X0016995Y0043775D01*
Y0043688D01*
Y0043277D02*
Y0043102D01*
Y0043189D02*
X0016470D01*
X0016557Y0043102D01*
X0016907Y0042735D02*
X0016995Y0042691D01*
Y0042428D01*
X0016907Y0042385D01*
X0016557D01*
X0016470Y0042428D01*
Y0042691D01*
X0016557Y0042735D01*
X0005057Y0035019D02*
Y0035281D01*
X0004795D02*
X0005319D01*
Y0034931D01*
X0005144Y0035605D02*
X0004795D01*
Y0035561D02*
Y0035867D01*
X0004882Y0035911D01*
X0005144D01*
X0004795Y0036409D02*
X0004882Y0036497D01*
X0004970Y0036541D01*
X0005144D01*
X0005232Y0036497D01*
X0005319Y0036409D01*
Y0036322D01*
X0005232Y0036234D01*
X0005144Y0036191D01*
X0004970D01*
X0004882Y0036234D01*
X0004795Y0036322D01*
Y0036409D01*
Y0036820D02*
Y0036995D01*
Y0036908D02*
X0005319D01*
X0005232Y0036995D01*
X0043600Y0007050D02*
X0041100D01*
Y0006050D02*
X0043600D01*
Y0014850D02*
X0041100D01*
Y0013850D02*
X0043600D01*
X0026109Y0026794D02*
X0026609D01*
X0026859Y0025294D02*
X0026109Y0026044D01*
Y0027544D01*
X0030209D01*
Y0026044D01*
X0029459Y0025294D01*
X0026859D01*
X0030209Y0026794D02*
X0029709D01*
X0018659Y0032544D02*
Y0035044D01*
X0017659D02*
Y0032544D01*
G01X0043850Y0006550D02*
G03X0043600Y0007050I0000625J0000000D01*
Y0006050D02*
G03X0043850Y0006550I0000375J0000500D01*
G01X0040850D02*
G03X0041100Y0006050I0000625J0000000D01*
Y0007050D02*
G03X0040850Y0006550I0000375J0000500D01*
G01X0043850Y0014350D02*
G03X0043600Y0014850I0000625J0000000D01*
Y0013850D02*
G03X0043850Y0014350I0000375J0000500D01*
G01X0040850D02*
G03X0041100Y0013850I0000625J0000000D01*
Y0014850D02*
G03X0040850Y0014350I0000375J0000500D01*
G01X0018159Y0032294D02*
G03X0018659Y0032544I0000000J0000625D01*
G01X0017659D02*
G03X0018159Y0032294I0000500J0000375D01*
Y0035294D02*
G03X0017659Y0035044I0000000J0000625D01*
G01X0018659D02*
G03X0018159Y0035294I0000500J0000375D01*
G54D119*
G01X0027754Y0025893D02*
X0027621D01*
X0027754Y0026027D01*
Y0026060D01*
X0027737Y0026093D01*
X0027637D01*
X0027621Y0026060D01*
X0027525Y0026093D02*
Y0025927D01*
X0027509Y0025893D01*
X0027409D01*
X0027392Y0025927D01*
Y0026093D01*
X0029205Y0025543D02*
X0029188Y0025577D01*
Y0025710D01*
X0029205Y0025743D01*
X0029305D01*
X0029321Y0025710D01*
Y0025577D01*
X0029305Y0025543D01*
X0029205D01*
X0029026D02*
Y0025743D01*
X0029093D02*
X0028959D01*
X0028864D02*
X0028764Y0025543D01*
X0028519Y0025577D02*
X0028535Y0025543D01*
X0028635D01*
X0028652Y0025577D01*
Y0025643D01*
X0028619Y0025677D01*
X0028519D01*
Y0025743D01*
X0028652D01*
X0028340Y0025543D02*
X0028307Y0025577D01*
X0028290Y0025610D01*
Y0025677D01*
X0028307Y0025710D01*
X0028340Y0025743D01*
X0028373D01*
X0028407Y0025710D01*
X0028423Y0025677D01*
Y0025610D01*
X0028407Y0025577D01*
X0028373Y0025543D01*
X0028340D01*
X0028178Y0025643D02*
X0028195Y0025677D01*
Y0025710D01*
X0028178Y0025743D01*
X0028078D01*
X0028061Y0025710D01*
Y0025677D01*
X0028078Y0025643D01*
X0028178D01*
X0028195Y0025610D01*
Y0025577D01*
X0028178Y0025543D01*
X0028078D01*
X0028061Y0025577D01*
Y0025610D01*
X0028078Y0025643D01*
X0027866Y0025543D02*
X0027966Y0025743D01*
X0027833D01*
X0027737Y0025543D02*
Y0025743D01*
X0027704Y0025710D01*
X0027671Y0025643D01*
X0027637Y0025710D01*
X0027604Y0025743D01*
Y0025543D01*
X0027509D02*
X0027392D01*
Y0025743D01*
G01X0008709Y0005817D02*
G03X0009636Y0006744I0000000J0000927D01*
G01X0007782D02*
G03X0008709Y0005817I0000927J0000000D01*
Y0007671D02*
G03X0007782Y0006744I0000000J0000927D01*
G01X0009636D02*
G03X0008709Y0007671I0000927J0000000D01*
G01X0012159Y0008867D02*
G03X0013086Y0009794I0000000J0000927D01*
G01X0011232D02*
G03X0012159Y0008867I0000927J0000000D01*
Y0010721D02*
G03X0011232Y0009794I0000000J0000927D01*
G01X0013086D02*
G03X0012159Y0010721I0000927J0000000D01*
G01X0020159Y0008867D02*
G03X0021086Y0009794I0000000J0000927D01*
G01X0019232D02*
G03X0020159Y0008867I0000927J0000000D01*
Y0010721D02*
G03X0019232Y0009794I0000000J0000927D01*
G01X0021086D02*
G03X0020159Y0010721I0000927J0000000D01*
G01X0016159Y0012867D02*
G03X0017086Y0013794I0000000J0000927D01*
G01X0015232D02*
G03X0016159Y0012867I0000927J0000000D01*
Y0014721D02*
G03X0015232Y0013794I0000000J0000927D01*
G01X0017086D02*
G03X0016159Y0014721I0000927J0000000D01*
Y0004867D02*
G03X0017086Y0005794I0000000J0000927D01*
G01X0015232D02*
G03X0016159Y0004867I0000927J0000000D01*
Y0006721D02*
G03X0015232Y0005794I0000000J0000927D01*
G01X0017086D02*
G03X0016159Y0006721I0000927J0000000D01*
G54D120*
G01X0037010Y0002060D02*
Y0002280D01*
X0036900Y0002170D01*
X0037010Y0002060D01*
Y0004060D02*
Y0004280D01*
X0036900Y0004170D01*
X0037010Y0004060D01*
Y0003060D02*
Y0003280D01*
X0036900Y0003170D01*
X0037010Y0003060D01*
Y0009860D02*
Y0010080D01*
X0036900Y0009970D01*
X0037010Y0009860D01*
Y0011860D02*
Y0012080D01*
X0036900Y0011970D01*
X0037010Y0011860D01*
Y0010860D02*
Y0011080D01*
X0036900Y0010970D01*
X0037010Y0010860D01*
G54D121*
G01X0036229Y0002796D02*
Y0002776D01*
X0037684D01*
Y0003524D01*
X0036229D01*
Y0002796D01*
Y0001796D02*
Y0001776D01*
X0037684D01*
Y0002524D01*
X0036229D01*
Y0001796D01*
Y0003796D02*
Y0003776D01*
X0037684D01*
Y0004524D01*
X0036229D01*
Y0003796D01*
Y0010596D02*
Y0010576D01*
X0037684D01*
Y0011324D01*
X0036229D01*
Y0010596D01*
Y0009596D02*
Y0009576D01*
X0037684D01*
Y0010324D01*
X0036229D01*
Y0009596D01*
Y0011596D02*
Y0011576D01*
X0037684D01*
Y0012324D01*
X0036229D01*
Y0011596D01*
G54D122*
G01X0041341Y0003079D02*
G03X0041459Y0003197I0000000J0000118D01*
G01X0041223D02*
G03X0041341Y0003079I0000118J0000000D01*
Y0003316D02*
G03X0041222Y0003197I0000000J0000119D01*
G01X0041460D02*
G03X0041341Y0003316I0000119J0000000D01*
G01X0037990Y0037221D02*
G03X0038101Y0037332I0000000J0000111D01*
G01X0037879D02*
G03X0037990Y0037221I0000111J0000000D01*
Y0037444D02*
G03X0037878Y0037332I0000000J0000112D01*
G01X0038102D02*
G03X0037990Y0037444I0000112J0000000D01*
Y0021221D02*
G03X0038101Y0021332I0000000J0000111D01*
G01X0037879D02*
G03X0037990Y0021221I0000111J0000000D01*
Y0021444D02*
G03X0037878Y0021332I0000000J0000112D01*
G01X0038102D02*
G03X0037990Y0021444I0000112J0000000D01*
G01X0041341Y0010879D02*
G03X0041459Y0010997I0000000J0000118D01*
G01X0041223D02*
G03X0041341Y0010879I0000118J0000000D01*
Y0011116D02*
G03X0041222Y0010997I0000000J0000119D01*
G01X0041460D02*
G03X0041341Y0011116I0000119J0000000D01*
G54D123*
G01X0046875Y0035750D02*
Y0043750D01*
X0044875D01*
Y0035750D01*
X0046875D01*
X0036375Y0032750D02*
X0044375D01*
Y0034750D01*
X0036375D01*
Y0032750D01*
X0043875Y0046250D02*
X0035875D01*
Y0044250D01*
X0043875D01*
Y0046250D01*
X0033375Y0043250D02*
Y0035250D01*
X0035375D01*
Y0043250D01*
X0033375D01*
X0046875Y0019750D02*
Y0027750D01*
X0044875D01*
Y0019750D01*
X0046875D01*
X0036375Y0016750D02*
X0044375D01*
Y0018750D01*
X0036375D01*
Y0016750D01*
X0043875Y0030250D02*
X0035875D01*
Y0028250D01*
X0043875D01*
Y0030250D01*
X0033375Y0027250D02*
Y0019250D01*
X0035375D01*
Y0027250D01*
X0033375D01*
G54D124*
G01X0044564Y0023270D02*
X0044498Y0023203D01*
X0044431Y0023170D01*
X0044298D01*
X0044231Y0023203D01*
X0044164Y0023270D01*
Y0023337D01*
X0044231Y0023403D01*
X0044298Y0023437D01*
X0044431D01*
X0044498Y0023403D01*
X0044564Y0023337D01*
Y0023270D01*
Y0022790D02*
X0044498Y0022723D01*
X0044431Y0022690D01*
X0044298D01*
X0044231Y0022723D01*
X0044164Y0022790D01*
Y0022857D01*
X0044231Y0022923D01*
X0044298Y0022957D01*
X0044431D01*
X0044498Y0022923D01*
X0044564Y0022857D01*
Y0022790D01*
Y0022310D02*
X0044498Y0022243D01*
X0044431Y0022210D01*
X0044298D01*
X0044231Y0022243D01*
X0044164Y0022310D01*
Y0022377D01*
X0044231Y0022443D01*
X0044298Y0022477D01*
X0044431D01*
X0044498Y0022443D01*
X0044564Y0022377D01*
Y0022310D01*
Y0021830D02*
X0044498Y0021763D01*
X0044431Y0021730D01*
X0044298D01*
X0044231Y0021763D01*
X0044164Y0021830D01*
Y0021897D01*
X0044231Y0021963D01*
X0044298Y0021997D01*
X0044431D01*
X0044498Y0021963D01*
X0044564Y0021897D01*
Y0021830D01*
Y0021350D02*
X0044498Y0021283D01*
X0044431Y0021250D01*
X0044298D01*
X0044231Y0021283D01*
X0044164Y0021350D01*
Y0021417D01*
X0044231Y0021483D01*
X0044298Y0021517D01*
X0044431D01*
X0044498Y0021483D01*
X0044564Y0021417D01*
Y0021350D01*
Y0020870D02*
X0044498Y0020803D01*
X0044431Y0020770D01*
X0044298D01*
X0044231Y0020803D01*
X0044164Y0020870D01*
Y0020937D01*
X0044231Y0021003D01*
X0044298Y0021037D01*
X0044431D01*
X0044498Y0021003D01*
X0044564Y0020937D01*
Y0020870D01*
X0044498Y0020290D02*
X0044564Y0020357D01*
Y0020490D01*
X0044498Y0020557D01*
X0044431D01*
X0044298Y0020423D01*
X0044164Y0020557D01*
Y0020290D01*
Y0020077D02*
X0044498D01*
X0044564Y0020043D01*
Y0019843D01*
X0044498Y0019810D01*
X0044164D01*
X0041795Y0043939D02*
X0041862Y0043873D01*
X0041895Y0043806D01*
Y0043673D01*
X0041862Y0043606D01*
X0041795Y0043539D01*
X0041728D01*
X0041662Y0043606D01*
X0041628Y0043673D01*
Y0043806D01*
X0041662Y0043873D01*
X0041728Y0043939D01*
X0041795D01*
X0042275D02*
X0042342Y0043873D01*
X0042375Y0043806D01*
Y0043673D01*
X0042342Y0043606D01*
X0042275Y0043539D01*
X0042208D01*
X0042142Y0043606D01*
X0042108Y0043673D01*
Y0043806D01*
X0042142Y0043873D01*
X0042208Y0043939D01*
X0042275D01*
X0042755D02*
X0042822Y0043873D01*
X0042855Y0043806D01*
Y0043673D01*
X0042822Y0043606D01*
X0042755Y0043539D01*
X0042688D01*
X0042622Y0043606D01*
X0042588Y0043673D01*
Y0043806D01*
X0042622Y0043873D01*
X0042688Y0043939D01*
X0042755D01*
X0043068Y0043806D02*
X0043335D01*
X0043202Y0043539D01*
X0043135D01*
Y0043939D01*
X0043548Y0043539D02*
Y0043873D01*
X0043582Y0043939D01*
X0043782D01*
X0043815Y0043873D01*
Y0043539D01*
X0035685Y0041170D02*
X0035752Y0041237D01*
X0035819Y0041270D01*
X0035952D01*
X0036019Y0041237D01*
X0036085Y0041170D01*
Y0041103D01*
X0036019Y0041037D01*
X0035952Y0041003D01*
X0035819D01*
X0035752Y0041037D01*
X0035685Y0041103D01*
Y0041170D01*
Y0041650D02*
X0035752Y0041717D01*
X0035819Y0041750D01*
X0035952D01*
X0036019Y0041717D01*
X0036085Y0041650D01*
Y0041583D01*
X0036019Y0041517D01*
X0035952Y0041483D01*
X0035819D01*
X0035752Y0041517D01*
X0035685Y0041583D01*
Y0041650D01*
Y0042130D02*
X0035752Y0042197D01*
X0035819Y0042230D01*
X0035952D01*
X0036019Y0042197D01*
X0036085Y0042130D01*
Y0042063D01*
X0036019Y0041997D01*
X0035952Y0041963D01*
X0035819D01*
X0035752Y0041997D01*
X0035685Y0042063D01*
Y0042130D01*
X0035752Y0042710D02*
X0035685Y0042677D01*
Y0042477D01*
X0035752Y0042443D01*
X0035885D01*
X0035952Y0042510D01*
Y0042710D01*
X0036085D01*
Y0042443D01*
Y0042923D02*
X0035752D01*
X0035685Y0042957D01*
Y0043157D01*
X0035752Y0043190D01*
X0036085D01*
X0042775Y0035060D02*
X0042708Y0035127D01*
X0042675Y0035194D01*
Y0035327D01*
X0042708Y0035394D01*
X0042775Y0035460D01*
X0042842D01*
X0042908Y0035394D01*
X0042942Y0035327D01*
Y0035194D01*
X0042908Y0035127D01*
X0042842Y0035060D01*
X0042775D01*
X0042295D02*
X0042228Y0035127D01*
X0042195Y0035194D01*
Y0035327D01*
X0042228Y0035394D01*
X0042295Y0035460D01*
X0042362D01*
X0042428Y0035394D01*
X0042462Y0035327D01*
Y0035194D01*
X0042428Y0035127D01*
X0042362Y0035060D01*
X0042295D01*
X0041815D02*
X0041748Y0035127D01*
X0041715Y0035194D01*
Y0035327D01*
X0041748Y0035394D01*
X0041815Y0035460D01*
X0041882D01*
X0041948Y0035394D01*
X0041982Y0035327D01*
Y0035194D01*
X0041948Y0035127D01*
X0041882Y0035060D01*
X0041815D01*
X0041335D02*
X0041268Y0035127D01*
X0041235Y0035194D01*
Y0035327D01*
X0041268Y0035394D01*
X0041335Y0035460D01*
X0041402D01*
X0041468Y0035394D01*
X0041502Y0035327D01*
Y0035194D01*
X0041468Y0035127D01*
X0041402Y0035060D01*
X0041335D01*
X0040855D02*
X0040788Y0035127D01*
X0040755Y0035194D01*
Y0035327D01*
X0040788Y0035394D01*
X0040855Y0035460D01*
X0040922D01*
X0040988Y0035394D01*
X0041022Y0035327D01*
Y0035194D01*
X0040988Y0035127D01*
X0040922Y0035060D01*
X0040855D01*
X0040375D02*
X0040308Y0035127D01*
X0040275Y0035194D01*
Y0035327D01*
X0040308Y0035394D01*
X0040375Y0035460D01*
X0040442D01*
X0040508Y0035394D01*
X0040542Y0035327D01*
Y0035194D01*
X0040508Y0035127D01*
X0040442Y0035060D01*
X0040375D01*
X0039895D02*
X0039828Y0035127D01*
X0039795Y0035194D01*
Y0035327D01*
X0039828Y0035394D01*
X0039895Y0035460D01*
X0039962D01*
X0040028Y0035394D01*
X0040062Y0035327D01*
Y0035194D01*
X0040028Y0035127D01*
X0039962Y0035060D01*
X0039895D01*
X0039415D02*
X0039348Y0035127D01*
X0039315Y0035194D01*
Y0035327D01*
X0039348Y0035394D01*
X0039415Y0035460D01*
X0039482D01*
X0039548Y0035394D01*
X0039582Y0035327D01*
Y0035194D01*
X0039548Y0035127D01*
X0039482Y0035060D01*
X0039415D01*
X0038935D02*
X0038868Y0035127D01*
X0038835Y0035194D01*
Y0035327D01*
X0038868Y0035394D01*
X0038935Y0035460D01*
X0039002D01*
X0039068Y0035394D01*
X0039102Y0035327D01*
Y0035194D01*
X0039068Y0035127D01*
X0039002Y0035060D01*
X0038935D01*
X0038455D02*
X0038388Y0035127D01*
X0038355Y0035194D01*
Y0035327D01*
X0038388Y0035394D01*
X0038455Y0035460D01*
X0038522D01*
X0038588Y0035394D01*
X0038622Y0035327D01*
Y0035194D01*
X0038588Y0035127D01*
X0038522Y0035060D01*
X0038455D01*
X0037975D02*
X0037908Y0035127D01*
X0037875Y0035194D01*
Y0035327D01*
X0037908Y0035394D01*
X0037975Y0035460D01*
X0038042D01*
X0038108Y0035394D01*
X0038142Y0035327D01*
Y0035194D01*
X0038108Y0035127D01*
X0038042Y0035060D01*
X0037975D01*
X0037495D02*
X0037428Y0035127D01*
X0037395Y0035194D01*
Y0035327D01*
X0037428Y0035394D01*
X0037495Y0035460D01*
X0037562D01*
X0037628Y0035394D01*
X0037662Y0035327D01*
Y0035194D01*
X0037628Y0035127D01*
X0037562Y0035060D01*
X0037495D01*
X0037182D02*
X0036915D01*
X0037182Y0035327D01*
Y0035394D01*
X0037148Y0035460D01*
X0036948D01*
X0036915Y0035394D01*
X0036702Y0035460D02*
Y0035127D01*
X0036668Y0035060D01*
X0036468D01*
X0036435Y0035127D01*
Y0035460D01*
X0044564Y0040710D02*
X0044498Y0040643D01*
X0044431Y0040610D01*
X0044298D01*
X0044231Y0040643D01*
X0044164Y0040710D01*
Y0040777D01*
X0044231Y0040843D01*
X0044298Y0040877D01*
X0044431D01*
X0044498Y0040843D01*
X0044564Y0040777D01*
Y0040710D01*
Y0040230D02*
X0044498Y0040163D01*
X0044431Y0040130D01*
X0044298D01*
X0044231Y0040163D01*
X0044164Y0040230D01*
Y0040297D01*
X0044231Y0040363D01*
X0044298Y0040397D01*
X0044431D01*
X0044498Y0040363D01*
X0044564Y0040297D01*
Y0040230D01*
Y0039750D02*
X0044498Y0039683D01*
X0044431Y0039650D01*
X0044298D01*
X0044231Y0039683D01*
X0044164Y0039750D01*
Y0039817D01*
X0044231Y0039883D01*
X0044298Y0039917D01*
X0044431D01*
X0044498Y0039883D01*
X0044564Y0039817D01*
Y0039750D01*
Y0039270D02*
X0044498Y0039203D01*
X0044431Y0039170D01*
X0044298D01*
X0044231Y0039203D01*
X0044164Y0039270D01*
Y0039337D01*
X0044231Y0039403D01*
X0044298Y0039437D01*
X0044431D01*
X0044498Y0039403D01*
X0044564Y0039337D01*
Y0039270D01*
Y0038790D02*
X0044498Y0038723D01*
X0044431Y0038690D01*
X0044298D01*
X0044231Y0038723D01*
X0044164Y0038790D01*
Y0038857D01*
X0044231Y0038923D01*
X0044298Y0038957D01*
X0044431D01*
X0044498Y0038923D01*
X0044564Y0038857D01*
Y0038790D01*
Y0038310D02*
X0044498Y0038243D01*
X0044431Y0038210D01*
X0044298D01*
X0044231Y0038243D01*
X0044164Y0038310D01*
Y0038377D01*
X0044231Y0038443D01*
X0044298Y0038477D01*
X0044431D01*
X0044498Y0038443D01*
X0044564Y0038377D01*
Y0038310D01*
Y0037830D02*
X0044498Y0037763D01*
X0044431Y0037730D01*
X0044298D01*
X0044231Y0037763D01*
X0044164Y0037830D01*
Y0037897D01*
X0044231Y0037963D01*
X0044298Y0037997D01*
X0044431D01*
X0044498Y0037963D01*
X0044564Y0037897D01*
Y0037830D01*
Y0037350D02*
X0044498Y0037283D01*
X0044431Y0037250D01*
X0044298D01*
X0044231Y0037283D01*
X0044164Y0037350D01*
Y0037417D01*
X0044231Y0037483D01*
X0044298Y0037517D01*
X0044431D01*
X0044498Y0037483D01*
X0044564Y0037417D01*
Y0037350D01*
Y0036870D02*
X0044498Y0036803D01*
X0044431Y0036770D01*
X0044298D01*
X0044231Y0036803D01*
X0044164Y0036870D01*
Y0036937D01*
X0044231Y0037003D01*
X0044298Y0037037D01*
X0044431D01*
X0044498Y0037003D01*
X0044564Y0036937D01*
Y0036870D01*
X0044498Y0036290D02*
X0044564Y0036357D01*
Y0036490D01*
X0044498Y0036557D01*
X0044431D01*
X0044298Y0036423D01*
X0044164Y0036557D01*
Y0036290D01*
Y0036077D02*
X0044498D01*
X0044564Y0036043D01*
Y0035843D01*
X0044498Y0035810D01*
X0044164D01*
X0043068Y0027806D02*
X0043335D01*
X0043202Y0027539D01*
X0043135D01*
Y0027939D01*
X0043548Y0027539D02*
Y0027873D01*
X0043582Y0027939D01*
X0043782D01*
X0043815Y0027873D01*
Y0027539D01*
X0035752Y0026710D02*
X0035685Y0026677D01*
Y0026477D01*
X0035752Y0026443D01*
X0035885D01*
X0035952Y0026510D01*
Y0026710D01*
X0036085D01*
Y0026443D01*
Y0026923D02*
X0035752D01*
X0035685Y0026957D01*
Y0027157D01*
X0035752Y0027190D01*
X0036085D01*
X0041335Y0019060D02*
X0041268Y0019127D01*
X0041235Y0019194D01*
Y0019327D01*
X0041268Y0019394D01*
X0041335Y0019460D01*
X0041402D01*
X0041468Y0019394D01*
X0041502Y0019327D01*
Y0019194D01*
X0041468Y0019127D01*
X0041402Y0019060D01*
X0041335D01*
X0040855D02*
X0040788Y0019127D01*
X0040755Y0019194D01*
Y0019327D01*
X0040788Y0019394D01*
X0040855Y0019460D01*
X0040922D01*
X0040988Y0019394D01*
X0041022Y0019327D01*
Y0019194D01*
X0040988Y0019127D01*
X0040922Y0019060D01*
X0040855D01*
X0040375D02*
X0040308Y0019127D01*
X0040275Y0019194D01*
Y0019327D01*
X0040308Y0019394D01*
X0040375Y0019460D01*
X0040442D01*
X0040508Y0019394D01*
X0040542Y0019327D01*
Y0019194D01*
X0040508Y0019127D01*
X0040442Y0019060D01*
X0040375D01*
X0039895D02*
X0039828Y0019127D01*
X0039795Y0019194D01*
Y0019327D01*
X0039828Y0019394D01*
X0039895Y0019460D01*
X0039962D01*
X0040028Y0019394D01*
X0040062Y0019327D01*
Y0019194D01*
X0040028Y0019127D01*
X0039962Y0019060D01*
X0039895D01*
X0039415D02*
X0039348Y0019127D01*
X0039315Y0019194D01*
Y0019327D01*
X0039348Y0019394D01*
X0039415Y0019460D01*
X0039482D01*
X0039548Y0019394D01*
X0039582Y0019327D01*
Y0019194D01*
X0039548Y0019127D01*
X0039482Y0019060D01*
X0039415D01*
X0038935D02*
X0038868Y0019127D01*
X0038835Y0019194D01*
Y0019327D01*
X0038868Y0019394D01*
X0038935Y0019460D01*
X0039002D01*
X0039068Y0019394D01*
X0039102Y0019327D01*
Y0019194D01*
X0039068Y0019127D01*
X0039002Y0019060D01*
X0038935D01*
X0038455D02*
X0038388Y0019127D01*
X0038355Y0019194D01*
Y0019327D01*
X0038388Y0019394D01*
X0038455Y0019460D01*
X0038522D01*
X0038588Y0019394D01*
X0038622Y0019327D01*
Y0019194D01*
X0038588Y0019127D01*
X0038522Y0019060D01*
X0038455D01*
X0037975D02*
X0037908Y0019127D01*
X0037875Y0019194D01*
Y0019327D01*
X0037908Y0019394D01*
X0037975Y0019460D01*
X0038042D01*
X0038108Y0019394D01*
X0038142Y0019327D01*
Y0019194D01*
X0038108Y0019127D01*
X0038042Y0019060D01*
X0037975D01*
X0037495D02*
X0037428Y0019127D01*
X0037395Y0019194D01*
Y0019327D01*
X0037428Y0019394D01*
X0037495Y0019460D01*
X0037562D01*
X0037628Y0019394D01*
X0037662Y0019327D01*
Y0019194D01*
X0037628Y0019127D01*
X0037562Y0019060D01*
X0037495D01*
X0037182D02*
X0036915D01*
X0037182Y0019327D01*
Y0019394D01*
X0037148Y0019460D01*
X0036948D01*
X0036915Y0019394D01*
X0036702Y0019460D02*
Y0019127D01*
X0036668Y0019060D01*
X0036468D01*
X0036435Y0019127D01*
Y0019460D01*
G54D114*
X0043350Y0014350D03*
X0041350D03*
X0043350Y0006550D03*
X0041350D03*
X0018159Y0032794D03*
Y0034794D03*
M02*
