*
G04 Mass Parameters ***
*
G04 Image ***
*
%IND:\SOUND LEVEL METER PROJECT\MO PHONG_SOUND LEVEL METER_V3\SOUND LEVEL METER_OK\BOARD_NOISE LEVEL METER\GERBER\NOISE LEVEL METER-15.AST*%
%ICAS*%
%MOIN*%
%IPPOS*%
%ASAXBY*%
G74*%FSLAN2X34Y34*%
*
G04 Aperture Definitions ***
*
%ADD10C,0.0600*%
%ADD11R,0.0600X0.0600*%
%ADD12C,0.0800*%
%ADD13R,0.0800X0.0800*%
%ADD14R,0.1000X0.1000*%
%ADD15C,0.1000*%
%ADD16O,0.0950X0.0650*%
%ADD17R,0.0950X0.0650*%
%ADD18O,0.0800X0.0600*%
%ADD19R,0.0800X0.0600*%
%ADD20R,0.1400X0.1900*%
%ADD21C,0.0700*%
%ADD22R,0.0700X0.0700*%
%ADD23C,0.1575*%
%ADD24O,0.0750X0.0900*%
%ADD25R,0.0750X0.0900*%
%ADD26O,0.0900X0.0800*%
%ADD27O,0.0800X0.0900*%
%ADD28R,0.0900X0.0800*%
%ADD29O,0.4000X0.3000*%
%ADD30R,0.4000X0.3000*%
%ADD31R,0.0650X0.0950*%
%ADD32C,0.1180*%
%ADD33O,0.0650X0.0950*%
%ADD34R,0.0590X0.0394*%
%ADD35R,0.0394X0.0590*%
%ADD36C,0.0790*%
%ADD37O,0.1181X0.1575*%
%ADD38R,0.1181X0.1575*%
%ADD39O,0.0700X0.0850*%
%ADD40R,0.0700X0.0850*%
%ADD41C,0.0500*%
%ADD42R,0.0500X0.0500*%
%ADD43R,0.0480X0.0740*%
%ADD44R,0.0512X0.0590*%
%ADD45O,0.1500X0.0800*%
%ADD46O,0.0850X0.0650*%
%ADD47R,0.0850X0.0650*%
%ADD48O,0.0149X0.0590*%
%ADD49C,0.0300*%
%ADD50C,0.0200*%
%ADD51C,0.0100*%
%ADD52C,0.0350*%
%ADD53C,0.0500*%
%ADD54C,0.0250*%
%ADD55C,0.0150*%
%ADD56C,0.0500*%
%ADD57C,0.0787*%
%ADD58C,0.0400*%
%ADD59C,0.0065*%
%ADD60C,0.0060*%
%ADD61C,0.0070*%
%ADD62C,0.0080*%
%ADD63C,0.0830*%
%ADD64R,0.0830X0.0830*%
%ADD65R,0.0590X0.0669*%
%ADD66O,0.1600X0.0900*%
%ADD67C,0.0500*%
%ADD68C,0.0680*%
%ADD69R,0.0680X0.0680*%
%ADD70C,0.0880*%
%ADD71R,0.0880X0.0880*%
%ADD72R,0.1080X0.1080*%
%ADD73C,0.1080*%
%ADD74O,0.1030X0.0730*%
%ADD75R,0.1030X0.0730*%
%ADD76O,0.0880X0.0680*%
%ADD77R,0.0880X0.0680*%
%ADD78R,0.1480X0.1980*%
%ADD79C,0.0780*%
%ADD80R,0.0780X0.0780*%
%ADD81C,0.1650*%
%ADD82O,0.0830X0.0980*%
%ADD83R,0.0830X0.0980*%
%ADD84O,0.0980X0.0880*%
%ADD85O,0.0880X0.0980*%
%ADD86R,0.0980X0.0880*%
%ADD87O,0.4080X0.3080*%
%ADD88R,0.4080X0.3080*%
%ADD89R,0.0730X0.1030*%
%ADD90O,0.0730X0.1030*%
%ADD91R,0.0680X0.0480*%
%ADD92R,0.0480X0.0680*%
%ADD93C,0.0870*%
%ADD94O,0.1260X0.1650*%
%ADD95R,0.1260X0.1650*%
%ADD96O,0.0780X0.0950*%
%ADD97R,0.0780X0.0930*%
%ADD98C,0.0550*%
%ADD99R,0.0580X0.0580*%
%ADD100R,0.0560X0.0820*%
%ADD101O,0.1580X0.0880*%
%ADD102O,0.0930X0.0730*%
%ADD103R,0.0930X0.0730*%
%ADD104O,0.0230X0.0670*%
%ADD105C,0.0550*%
%ADD106C,0.0004*%
%ADD107C,0.0050*%
%ADD108C,0.0020*%
%ADD109C,0.0079*%
%ADD110C,0.0118*%
%ADD111C,0.0039*%
%ADD112C,0.0010*%
%ADD113C,0.0012*%
%ADD114C,0.0394*%
%ADD115R,0.1200X0.1200*%
%ADD116C,0.1200*%
%ADD117O,0.0990X0.0670*%
%ADD118O,0.0800X0.0580*%
%ADD119R,0.0800X0.0580*%
%ADD120C,0.0630*%
%ADD121R,0.0630X0.0630*%
%ADD122O,0.0670X0.0990*%
%ADD123C,0.0710*%
%ADD124R,0.0710X0.0710*%
*
G04 Plot Data ***
*
G54D49*
G01X0032459Y0016794D02*
Y0059294D01*
X0018459Y0073294D01*
Y0079294D01*
X0014459D01*
Y0073294D01*
X0000559Y0059394D01*
Y0016794D01*
X0032459D01*
G54D50*
G01X0001070Y0008570D02*
X0001080Y0008560D01*
X0018640D01*
Y0015900D01*
X0001070D01*
Y0008570D01*
Y0000470D02*
X0001080Y0000460D01*
X0018640D01*
Y0007800D01*
X0001070D01*
Y0000470D01*
G54D51*
G01X0001360Y0059870D02*
X0001401Y0059787D01*
X0001651D01*
X0001693Y0059870D01*
Y0060037D01*
X0001610Y0060120D01*
X0001360D01*
Y0060287D01*
X0001693D01*
X0000826Y0059953D02*
Y0059870D01*
X0000868Y0059787D01*
X0001035D01*
X0001076Y0059870D01*
Y0060287D01*
X0001118D02*
X0000951D01*
X0031131Y0019783D02*
X0030864D01*
X0030820Y0019872D01*
Y0019961D01*
X0030864Y0020049D01*
X0031131D01*
X0031175Y0019961D01*
Y0019872D01*
X0030997Y0019516D01*
X0030575D02*
X0030398D01*
X0030486D02*
Y0020049D01*
X0030398Y0019961D01*
X0029753Y0019694D02*
Y0019605D01*
X0029798Y0019516D01*
X0029975D01*
X0030020Y0019605D01*
Y0020049D01*
X0030064D02*
X0029886D01*
X0005675Y0063016D02*
X0005320D01*
X0005675Y0063372D01*
Y0063461D01*
X0005631Y0063549D01*
X0005364D01*
X0005320Y0063461D01*
X0005075Y0063016D02*
X0004898D01*
X0004986D02*
Y0063549D01*
X0004898Y0063461D01*
X0004253Y0063194D02*
Y0063105D01*
X0004298Y0063016D01*
X0004475D01*
X0004520Y0063105D01*
Y0063549D01*
X0004564D02*
X0004386D01*
X0016320Y0070605D02*
X0016409Y0070516D01*
X0016586D01*
X0016675Y0070605D01*
Y0070694D01*
X0016497Y0070872D01*
X0016675Y0071049D01*
X0016320D01*
X0016075Y0070516D02*
X0015898D01*
X0015986D02*
Y0071049D01*
X0015898Y0070961D01*
X0015253Y0070694D02*
Y0070605D01*
X0015298Y0070516D01*
X0015475D01*
X0015520Y0070605D01*
Y0071049D01*
X0015564D02*
X0015386D01*
X0016364Y0027783D02*
X0016631D01*
X0016675Y0027694D01*
Y0027605D01*
X0016631Y0027516D01*
X0016364D01*
X0016320Y0027605D01*
Y0027694D01*
X0016497Y0028049D01*
X0016075Y0027516D02*
X0015898D01*
X0015986D02*
Y0028049D01*
X0015898Y0027961D01*
X0015253Y0027694D02*
Y0027605D01*
X0015298Y0027516D01*
X0015475D01*
X0015520Y0027605D01*
Y0028049D01*
X0015564D02*
X0015386D01*
X0027586Y0063016D02*
X0027409D01*
X0027497D02*
Y0063549D01*
X0027409Y0063461D01*
X0027075Y0063016D02*
X0026898D01*
X0026986D02*
Y0063549D01*
X0026898Y0063461D01*
X0026253Y0063194D02*
Y0063105D01*
X0026298Y0063016D01*
X0026475D01*
X0026520Y0063105D01*
Y0063549D01*
X0026564D02*
X0026386D01*
X0002042Y0019516D02*
X0001953Y0019605D01*
X0001909Y0019694D01*
Y0019872D01*
X0001953Y0019961D01*
X0002042Y0020049D01*
X0002131D01*
X0002220Y0019961D01*
X0002264Y0019872D01*
Y0019694D01*
X0002220Y0019605D01*
X0002131Y0019516D01*
X0002042D01*
X0001664D02*
X0001309D01*
X0001664Y0019872D01*
Y0019961D01*
X0001620Y0020049D01*
X0001353D01*
X0001309Y0019961D01*
X0000753Y0019694D02*
Y0019605D01*
X0000798Y0019516D01*
X0000975D01*
X0001020Y0019605D01*
Y0020049D01*
X0001064D02*
X0000886D01*
X0003050Y0013550D02*
X0002050D01*
Y0009550D01*
X0003050D01*
Y0013550D01*
X0002050Y0015350D02*
X0005050D01*
Y0014350D01*
X0002050D01*
Y0015350D01*
X0003050Y0005450D02*
X0002050D01*
Y0001450D01*
X0003050D01*
Y0005450D01*
X0002050Y0007250D02*
X0005050D01*
Y0006250D01*
X0002050D01*
Y0007250D01*
X0014600Y0019000D02*
Y0018000D01*
X0018600D01*
Y0019000D01*
X0014600D01*
X0028109Y0047494D02*
X0029109D01*
Y0053494D01*
X0028109D01*
Y0047494D01*
X0014959Y0072794D02*
Y0071794D01*
X0015959D01*
Y0072794D01*
X0014959D01*
X0015959D02*
Y0071794D01*
X0016959D01*
Y0072794D01*
X0015959D01*
X0012689Y0017463D02*
Y0019825D01*
X0007571D01*
Y0017463D01*
X0012689D01*
X0028959Y0029794D02*
Y0026794D01*
X0027959D01*
Y0029794D01*
X0028959D01*
X0014959Y0077794D02*
X0017959D01*
Y0076794D01*
X0014959D01*
Y0077794D01*
X0028109Y0053894D02*
Y0056894D01*
X0029109D01*
Y0053894D01*
X0028109D01*
X0028959Y0026294D02*
Y0023294D01*
X0027959D01*
Y0026294D01*
X0028959D01*
X0025459Y0051894D02*
Y0050894D01*
X0026459D01*
Y0051894D01*
X0025459D01*
X0028959Y0022794D02*
Y0019794D01*
X0027959D01*
Y0022794D01*
X0028959D01*
G54D60*
G01X0007170Y0013175D02*
Y0013925D01*
X0005570D01*
Y0013175D01*
X0007170D01*
X0014985Y0015500D02*
X0014235D01*
Y0013900D01*
X0014985D01*
Y0015500D01*
X0011470Y0008975D02*
Y0009725D01*
X0009870D01*
Y0008975D01*
X0011470D01*
X0007430Y0014325D02*
Y0015375D01*
X0005450D01*
Y0014325D01*
X0007430D01*
X0013425Y0015470D02*
X0012675D01*
Y0013870D01*
X0013425D01*
Y0015470D01*
X0011470Y0000875D02*
Y0001625D01*
X0009870D01*
Y0000875D01*
X0011470D01*
X0007430Y0006225D02*
Y0007275D01*
X0005450D01*
Y0006225D01*
X0007430D01*
X0013425Y0007370D02*
X0012675D01*
Y0005770D01*
X0013425D01*
Y0007370D01*
X0007875Y0005530D02*
X0008625D01*
Y0007130D01*
X0007875D01*
Y0005530D01*
X0007170Y0005075D02*
Y0005825D01*
X0005570D01*
Y0005075D01*
X0007170D01*
X0014985Y0007400D02*
X0014235D01*
Y0005800D01*
X0014985D01*
Y0007400D01*
X0007875Y0013630D02*
X0008625D01*
Y0015230D01*
X0007875D01*
Y0013630D01*
G54D62*
G01X0022358Y0050100D02*
X0022414Y0050072D01*
X0022469D01*
X0022525Y0050100D01*
Y0050267D01*
X0022469Y0050295D01*
X0022414D01*
X0022358Y0050267D01*
Y0050100D01*
X0022303Y0050072D01*
X0022247D01*
X0022191Y0050100D01*
Y0050267D01*
X0022247Y0050295D01*
X0022303D01*
X0022358Y0050267D01*
X0022303Y0051017D02*
Y0051240D01*
X0022191Y0051017D02*
X0022358D01*
X0022525Y0051101D01*
Y0051156D01*
X0022358Y0051240D01*
X0022191D01*
X0022358Y0051538D02*
Y0051427D01*
X0022247D01*
X0022191Y0051455D01*
Y0051622D01*
X0022247Y0051650D01*
X0022469D01*
X0022525Y0051622D01*
Y0051455D01*
X0022469Y0051427D01*
X0022358Y0051893D02*
Y0052060D01*
X0022191Y0051837D02*
Y0052060D01*
X0022525D01*
Y0051837D01*
X0022191Y0052247D02*
X0022525D01*
X0022469Y0052303D01*
X0022358Y0052358D01*
X0022469Y0052414D01*
X0022525Y0052470D01*
X0022191D01*
Y0052768D02*
X0022525D01*
Y0052657D02*
Y0052880D01*
X0022303Y0053067D02*
Y0053290D01*
X0022191Y0053067D02*
X0022358D01*
X0022525Y0053151D01*
Y0053206D01*
X0022358Y0053290D01*
X0022191D01*
X0023153Y0052151D02*
Y0052374D01*
X0023375Y0052262D01*
Y0052207D01*
X0023041D01*
X0023208Y0052784D02*
Y0052617D01*
X0023264Y0052561D01*
X0023319D01*
X0023375Y0052617D01*
Y0052784D01*
X0023041D01*
X0023153Y0053166D02*
X0023097D01*
X0023041Y0053138D01*
Y0053027D01*
X0023097Y0052999D01*
X0023375D01*
Y0052971D02*
Y0053082D01*
X0009998Y0028172D02*
X0009665D01*
Y0028284D02*
Y0028061D01*
X0009832Y0027790D02*
X0009998Y0027874D01*
X0009832Y0027651D02*
Y0027818D01*
X0009776Y0027874D01*
X0009720D01*
X0009665Y0027818D01*
Y0027651D01*
X0009998D01*
Y0027269D02*
X0009943Y0027241D01*
X0009720D01*
X0009665Y0027269D01*
Y0027436D01*
X0009720Y0027464D01*
X0009943D01*
X0009998Y0027436D01*
Y0027269D01*
X0009832Y0026831D02*
Y0026998D01*
X0009776Y0027054D01*
X0009720D01*
X0009665Y0026998D01*
Y0026831D01*
X0009998D01*
Y0026109D02*
X0009665D01*
X0009720Y0026053D01*
X0009832Y0025997D01*
X0009720Y0025942D01*
X0009665Y0025886D01*
X0009998D01*
Y0025504D02*
X0009943Y0025476D01*
X0009720D01*
X0009665Y0025504D01*
Y0025671D01*
X0009720Y0025699D01*
X0009943D01*
X0009998Y0025671D01*
Y0025504D01*
X0009943Y0025289D02*
X0009998Y0025261D01*
Y0025094D01*
X0009943Y0025066D01*
X0009720D01*
X0009665Y0025094D01*
Y0025261D01*
X0009720Y0025289D01*
X0003561Y0021281D02*
X0003228D01*
Y0021392D02*
Y0021170D01*
X0003561Y0020982D02*
X0003394Y0020816D01*
X0003228Y0020982D01*
Y0020760D02*
X0003561D01*
X0003283Y0020572D02*
X0003228Y0020544D01*
Y0020378D01*
X0003283Y0020350D01*
X0003339D01*
X0003394Y0020378D01*
Y0020544D01*
X0003450Y0020572D01*
X0003506D01*
X0003561Y0020544D01*
Y0020378D01*
X0003506Y0020350D01*
X0007061Y0023919D02*
Y0023808D01*
Y0023864D02*
X0006728D01*
X0006783Y0023808D01*
X0004144Y0027822D02*
Y0027656D01*
X0004089Y0027628D01*
X0004033D01*
X0003978Y0027656D01*
Y0027822D01*
X0004033Y0027850D01*
X0004089D01*
X0004311Y0027739D01*
X0007006Y0028253D02*
X0007061Y0028281D01*
Y0028447D01*
X0007006Y0028475D01*
X0006895D01*
X0006839Y0028419D01*
Y0028253D01*
X0006728D01*
Y0028475D01*
X0027602Y0033068D02*
X0027535D01*
X0027569D02*
Y0033268D01*
X0027535Y0033235D01*
X0027209Y0033068D02*
Y0033268D01*
X0027192Y0033068D02*
X0027292D01*
X0027325Y0033135D01*
Y0033202D01*
X0027292Y0033268D01*
X0027192D01*
X0004144Y0024406D02*
Y0024572D01*
X0004200Y0024600D01*
X0004256D01*
X0004311Y0024572D01*
Y0024406D01*
X0004256Y0024378D01*
X0004200D01*
X0003978Y0024489D01*
X0008693Y0025587D02*
X0008748Y0025643D01*
Y0025754D01*
X0008693Y0025810D01*
X0008637D01*
X0008526Y0025698D01*
X0008415Y0025810D01*
Y0025587D01*
X0008637Y0025205D02*
X0008693D01*
X0008748Y0025233D01*
Y0025344D01*
X0008693Y0025372D01*
X0008415D01*
Y0025400D02*
Y0025288D01*
X0009791Y0049895D02*
Y0050117D01*
X0010014Y0049895D01*
X0010069D01*
X0010125Y0049923D01*
Y0050090D01*
X0010069Y0050117D01*
X0009847Y0050527D02*
X0009791Y0050472D01*
Y0050361D01*
X0009847Y0050305D01*
X0009903D01*
X0010014Y0050416D01*
X0010125Y0050305D01*
Y0050527D01*
X0009791Y0050715D02*
Y0050937D01*
X0010014Y0050715D01*
X0010069D01*
X0010125Y0050743D01*
Y0050910D01*
X0010069Y0050937D01*
X0009791Y0051125D02*
X0010125Y0051292D01*
Y0051125D02*
X0009791Y0051292D01*
X0009903Y0051507D02*
Y0051730D01*
X0009791Y0051507D02*
X0009958D01*
X0010125Y0051591D01*
Y0051646D01*
X0009958Y0051730D01*
X0009791D01*
Y0051917D02*
X0010125D01*
X0010069Y0051973D01*
X0009958Y0052028D01*
X0010069Y0052084D01*
X0010125Y0052140D01*
X0009791D01*
X0010641Y0051467D02*
Y0051578D01*
Y0051522D02*
X0010975D01*
X0010919Y0051578D01*
X0010753Y0052016D02*
X0010697D01*
X0010641Y0051988D01*
Y0051877D01*
X0010697Y0051849D01*
X0010975D01*
Y0051821D02*
Y0051932D01*
X0017809Y0054394D02*
Y0052394D01*
X0022609Y0048794D02*
Y0050794D01*
X0023609D01*
Y0048794D01*
X0022609D01*
X0023609D02*
Y0050794D01*
X0023109Y0058894D02*
Y0058644D01*
X0022109D01*
Y0058894D01*
X0021609D01*
Y0045144D01*
X0023609D01*
Y0058894D01*
X0022109D01*
X0022609Y0052894D02*
Y0050894D01*
X0021609D01*
Y0052894D01*
X0022609D01*
X0021609D02*
Y0050894D01*
X0026409Y0043294D02*
X0026909D01*
X0027159Y0041794D02*
X0026409Y0042544D01*
Y0044044D01*
X0030509D01*
Y0042544D01*
X0029759Y0041794D01*
X0027159D01*
X0030509Y0043294D02*
X0030009D01*
X0002894Y0032239D02*
Y0019989D01*
X0003019Y0019864D02*
X0008019D01*
X0008144Y0019989D02*
Y0032239D01*
X0008019Y0032364D02*
X0003019D01*
X0003769Y0028864D02*
X0007269Y0029364D01*
Y0022864D01*
X0003769Y0023364D01*
Y0028864D01*
X0010709Y0054994D02*
Y0054744D01*
X0009709D01*
Y0054994D01*
X0009209D01*
Y0046994D01*
X0011209D01*
Y0054994D01*
X0009709D01*
X0019809Y0054394D02*
Y0052394D01*
X0018809D01*
Y0054394D01*
X0019809D01*
X0018809D02*
Y0052394D01*
Y0054394D02*
Y0052394D01*
X0017809D01*
Y0054394D01*
X0018809D01*
G01X0002894Y0019989D02*
G03X0003019Y0019864I0000125J0000000D01*
G01X0008019D02*
G03X0008144Y0019989I0000000J0000125D01*
Y0032239D02*
G03X0008019Y0032364I0000125J0000000D01*
G01X0003019D02*
G03X0002894Y0032239I0000000J0000125D01*
G54D10*
X0004822Y0034020D03*
X0017027D03*
Y0043862D03*
X0005216D03*
X0011122D03*
Y0034020D03*
X0002460Y0041107D03*
Y0036776D03*
G54D14*
X0020964Y0041500D03*
G54D15*
X0021059Y0036394D03*
G54D34*
X0018959Y0023294D03*
Y0022428D03*
Y0031294D03*
Y0030428D03*
X0022959Y0027294D03*
Y0026428D03*
X0008459Y0029794D03*
Y0028928D03*
X0020959Y0060794D03*
Y0059928D03*
X0017959Y0056294D03*
Y0055428D03*
G54D35*
X0014180Y0013250D03*
X0015046D03*
X0014180Y0012350D03*
X0015046D03*
X0015080Y0010550D03*
X0014214D03*
X0015080Y0009650D03*
X0014214D03*
X0007450Y0010250D03*
X0006584D03*
X0007450Y0011250D03*
X0006584D03*
X0007450Y0012250D03*
X0006584D03*
X0014180Y0011450D03*
X0015046D03*
X0014180Y0005150D03*
X0015046D03*
X0014180Y0004250D03*
X0015046D03*
X0015080Y0002450D03*
X0014214D03*
X0015080Y0001550D03*
X0014214D03*
X0007450Y0002150D03*
X0006584D03*
X0007450Y0003150D03*
X0006584D03*
X0007450Y0004150D03*
X0006584D03*
X0014180Y0003350D03*
X0015046D03*
X0012526Y0029361D03*
X0013392D03*
G54D42*
X0005950Y0013550D03*
X0006790D03*
X0010250Y0009350D03*
X0011090D03*
X0014610Y0014280D03*
Y0015120D03*
X0008250Y0014850D03*
Y0014010D03*
X0013050Y0014250D03*
Y0015090D03*
X0005950Y0005450D03*
X0006790D03*
X0010250Y0001250D03*
X0011090D03*
X0014610Y0006180D03*
Y0007020D03*
X0008250Y0006750D03*
Y0005910D03*
X0013050Y0006150D03*
Y0006990D03*
G54D43*
X0005850Y0014850D03*
X0007030D03*
X0005850Y0006750D03*
X0007030D03*
G54D48*
X0009543Y0010285D03*
X0009799D03*
X0010055D03*
X0010311D03*
X0010567D03*
X0010823D03*
X0011079D03*
X0011334D03*
X0011590D03*
X0011846D03*
X0012102D03*
X0012358D03*
X0012614D03*
X0012870D03*
Y0013317D03*
X0012614D03*
X0012358D03*
X0012102D03*
X0011846D03*
X0011590D03*
X0011334D03*
X0011079D03*
X0010823D03*
X0010567D03*
X0010311D03*
X0010055D03*
X0009799D03*
X0009543D03*
Y0002185D03*
X0009799D03*
X0010055D03*
X0010311D03*
X0010567D03*
X0010823D03*
X0011079D03*
X0011334D03*
X0011590D03*
X0011846D03*
X0012102D03*
X0012358D03*
X0012614D03*
X0012870D03*
Y0005217D03*
X0012614D03*
X0012358D03*
X0012102D03*
X0011846D03*
X0011590D03*
X0011334D03*
X0011079D03*
X0010823D03*
X0010567D03*
X0010311D03*
X0010055D03*
X0009799D03*
X0009543D03*
G54D57*
X0011650Y0014650D03*
X0009650D03*
X0011650Y0006550D03*
X0009650D03*
X0018459Y0049294D03*
Y0051294D03*
X0015459Y0022294D03*
X0017468D03*
X0015459Y0030294D03*
X0017468D03*
X0019459Y0026294D03*
X0021468D03*
X0011459D03*
X0013468D03*
X0008009Y0023244D03*
X0010018D03*
G54D98*
X0018309Y0052894D03*
X0019309D03*
X0023109Y0050294D03*
X0022109Y0051394D03*
G54D115*
X0025459Y0031294D03*
G54D116*
X0005519Y0031034D03*
Y0021194D03*
X0029959Y0031294D03*
X0026959D03*
X0028459D03*
G54D117*
X0002550Y0012050D03*
Y0011050D03*
Y0010050D03*
Y0003950D03*
Y0002950D03*
Y0001950D03*
X0028459Y0028294D03*
Y0027294D03*
Y0024794D03*
Y0023794D03*
Y0021294D03*
Y0020294D03*
X0028609Y0055394D03*
Y0056394D03*
Y0048994D03*
Y0049994D03*
Y0050994D03*
Y0051994D03*
Y0052994D03*
G54D118*
X0021109Y0057394D03*
Y0056394D03*
Y0055394D03*
Y0054394D03*
Y0053394D03*
Y0052394D03*
Y0051394D03*
Y0050394D03*
Y0049394D03*
Y0048394D03*
Y0047394D03*
Y0046394D03*
Y0045394D03*
X0024109D03*
Y0046394D03*
Y0047394D03*
Y0048394D03*
Y0049394D03*
Y0050394D03*
Y0051394D03*
Y0052394D03*
Y0053394D03*
Y0054394D03*
Y0055394D03*
Y0056394D03*
Y0057394D03*
Y0058394D03*
X0008709Y0053494D03*
Y0052494D03*
Y0051494D03*
Y0050494D03*
Y0049494D03*
Y0048494D03*
Y0047494D03*
X0011709D03*
Y0048494D03*
Y0049494D03*
Y0050494D03*
Y0051494D03*
Y0052494D03*
Y0053494D03*
Y0054494D03*
G54D119*
X0021109Y0058394D03*
X0008709Y0054494D03*
G54D120*
X0006079Y0025024D03*
Y0026114D03*
Y0027204D03*
Y0028294D03*
X0004959Y0024479D03*
Y0025569D03*
Y0026659D03*
Y0027749D03*
G54D121*
X0006079Y0023934D03*
G54D122*
X0003550Y0014850D03*
X0004550D03*
X0003550Y0006750D03*
X0004550D03*
X0016100Y0018500D03*
X0017100D03*
X0018100D03*
X0010130Y0018644D03*
X0016459Y0077294D03*
X0017459D03*
G54D123*
X0028459Y0043294D03*
X0029459D03*
G54D124*
X0027459D03*
M02*
