*
G04 Mass Parameters ***
*
G04 Image ***
*
%IND:\SOUND LEVEL METER PROJECT\MO PHONG_SOUND LEVEL METER_V3\SOUND LEVEL METER_OK\BOARD_NOISE LEVEL METER\GERBER\NOISE LEVEL METER-18.SMT*%
%ICAS*%
%MOIN*%
%IPPOS*%
%ASAXBY*%
G74*%FSLAN2X34Y34*%
*
G04 Aperture Definitions ***
*
%ADD10C,0.0600*%
%ADD11R,0.0600X0.0600*%
%ADD12C,0.0800*%
%ADD13R,0.0800X0.0800*%
%ADD14R,0.1000X0.1000*%
%ADD15C,0.1000*%
%ADD16O,0.0950X0.0650*%
%ADD17R,0.0950X0.0650*%
%ADD18O,0.0800X0.0600*%
%ADD19R,0.0800X0.0600*%
%ADD20R,0.1400X0.1900*%
%ADD21C,0.0700*%
%ADD22R,0.0700X0.0700*%
%ADD23C,0.1575*%
%ADD24O,0.0750X0.0900*%
%ADD25R,0.0750X0.0900*%
%ADD26O,0.0900X0.0800*%
%ADD27O,0.0800X0.0900*%
%ADD28R,0.0900X0.0800*%
%ADD29O,0.4000X0.3000*%
%ADD30R,0.4000X0.3000*%
%ADD31R,0.0650X0.0950*%
%ADD32C,0.1180*%
%ADD33O,0.0650X0.0950*%
%ADD34R,0.0590X0.0394*%
%ADD35R,0.0394X0.0590*%
%ADD36C,0.0790*%
%ADD37O,0.1181X0.1575*%
%ADD38R,0.1181X0.1575*%
%ADD39O,0.0700X0.0850*%
%ADD40R,0.0700X0.0850*%
%ADD41C,0.0500*%
%ADD42R,0.0500X0.0500*%
%ADD43R,0.0480X0.0740*%
%ADD44R,0.0512X0.0590*%
%ADD45O,0.1500X0.0800*%
%ADD46O,0.0850X0.0650*%
%ADD47R,0.0850X0.0650*%
%ADD48O,0.0149X0.0590*%
%ADD49O,0.0787X0.0157*%
%ADD50O,0.0157X0.0787*%
%ADD51R,0.0157X0.0787*%
%ADD52C,0.0300*%
%ADD53C,0.0100*%
%ADD54C,0.0350*%
%ADD55C,0.0200*%
%ADD56C,0.0500*%
%ADD57C,0.0500*%
%ADD58C,0.0150*%
%ADD59C,0.0250*%
%ADD60C,0.0500*%
%ADD61C,0.0787*%
%ADD62C,0.0400*%
%ADD63C,0.0065*%
%ADD64C,0.0060*%
%ADD65C,0.0070*%
%ADD66C,0.0080*%
%ADD67C,0.0830*%
%ADD68R,0.0830X0.0830*%
%ADD69C,0.0750*%
%ADD70R,0.0590X0.0669*%
%ADD71O,0.1600X0.0900*%
%ADD72C,0.0750*%
%ADD73C,0.0680*%
%ADD74R,0.0680X0.0680*%
%ADD75C,0.0880*%
%ADD76R,0.0880X0.0880*%
%ADD77R,0.1080X0.1080*%
%ADD78C,0.1080*%
%ADD79O,0.1030X0.0730*%
%ADD80R,0.1030X0.0730*%
%ADD81O,0.0880X0.0680*%
%ADD82R,0.0880X0.0680*%
%ADD83R,0.1480X0.1980*%
%ADD84C,0.0780*%
%ADD85R,0.0780X0.0780*%
%ADD86C,0.1650*%
%ADD87O,0.0830X0.0980*%
%ADD88R,0.0830X0.0980*%
%ADD89O,0.0980X0.0880*%
%ADD90O,0.0880X0.0980*%
%ADD91R,0.0980X0.0880*%
%ADD92O,0.4080X0.3080*%
%ADD93R,0.4080X0.3080*%
%ADD94R,0.0730X0.1030*%
%ADD95O,0.0730X0.1030*%
%ADD96R,0.0680X0.0480*%
%ADD97R,0.0480X0.0680*%
%ADD98C,0.0870*%
%ADD99O,0.1260X0.1650*%
%ADD100R,0.1260X0.1650*%
%ADD101O,0.0780X0.0950*%
%ADD102R,0.0780X0.0930*%
%ADD103C,0.0550*%
%ADD104R,0.0580X0.0580*%
%ADD105R,0.0560X0.0820*%
%ADD106O,0.1580X0.0880*%
%ADD107O,0.0930X0.0730*%
%ADD108R,0.0930X0.0730*%
%ADD109O,0.0230X0.0670*%
%ADD110O,0.0870X0.0240*%
%ADD111O,0.0240X0.0870*%
%ADD112R,0.0240X0.0870*%
%ADD113C,0.0550*%
*
G04 Plot Data ***
*
G54D32*
X0001659Y0001794D03*
X0030659D03*
X0016159Y0009794D03*
Y0052794D03*
X0005159Y0045294D03*
X0027159D03*
G54D70*
X0037350Y0009950D03*
X0036563D03*
X0037350Y0010950D03*
X0036563D03*
X0037350Y0011950D03*
X0036563D03*
X0037350Y0002150D03*
X0036563D03*
X0037350Y0003150D03*
X0036563D03*
X0037350Y0004150D03*
X0036563D03*
G54D73*
X0034875Y0042750D03*
X0033875Y0041750D03*
X0034875D03*
X0033875Y0040750D03*
X0034875D03*
X0033875Y0039750D03*
X0034875D03*
X0033875Y0038750D03*
X0034875D03*
X0033875Y0037750D03*
X0034875D03*
X0033875Y0036750D03*
X0034875D03*
X0033875Y0035750D03*
X0034875D03*
X0043375Y0044750D03*
X0042375Y0045750D03*
Y0044750D03*
X0041375Y0045750D03*
Y0044750D03*
X0040375Y0045750D03*
Y0044750D03*
X0039375Y0045750D03*
Y0044750D03*
X0038375Y0045750D03*
Y0044750D03*
X0037375Y0045750D03*
Y0044750D03*
X0036375Y0045750D03*
Y0044750D03*
X0045375Y0036250D03*
X0046375Y0037250D03*
X0045375D03*
X0046375Y0038250D03*
X0045375D03*
X0046375Y0039250D03*
X0045375D03*
X0046375Y0040250D03*
X0045375D03*
X0046375Y0041250D03*
X0045375D03*
X0046375Y0042250D03*
X0045375D03*
X0046375Y0043250D03*
X0045375D03*
X0036875Y0034250D03*
X0037875Y0033250D03*
Y0034250D03*
X0038875Y0033250D03*
Y0034250D03*
X0039875Y0033250D03*
Y0034250D03*
X0040875Y0033250D03*
Y0034250D03*
X0041875Y0033250D03*
Y0034250D03*
X0042875Y0033250D03*
Y0034250D03*
X0043875Y0033250D03*
Y0034250D03*
X0034875Y0026750D03*
X0033875Y0025750D03*
X0034875D03*
X0033875Y0024750D03*
X0034875D03*
X0033875Y0023750D03*
X0034875D03*
X0033875Y0022750D03*
X0034875D03*
X0033875Y0021750D03*
X0034875D03*
X0033875Y0020750D03*
X0034875D03*
X0033875Y0019750D03*
X0034875D03*
X0043375Y0028750D03*
X0042375Y0029750D03*
Y0028750D03*
X0041375Y0029750D03*
Y0028750D03*
X0040375Y0029750D03*
Y0028750D03*
X0039375Y0029750D03*
Y0028750D03*
X0038375Y0029750D03*
Y0028750D03*
X0037375Y0029750D03*
Y0028750D03*
X0036375Y0029750D03*
Y0028750D03*
X0045375Y0020250D03*
X0046375Y0021250D03*
X0045375D03*
X0046375Y0022250D03*
X0045375D03*
X0046375Y0023250D03*
X0045375D03*
X0046375Y0024250D03*
X0045375D03*
X0046375Y0025250D03*
X0045375D03*
X0046375Y0026250D03*
X0045375D03*
X0046375Y0027250D03*
X0045375D03*
X0036875Y0018250D03*
X0037875Y0017250D03*
Y0018250D03*
X0038875Y0017250D03*
Y0018250D03*
X0039875Y0017250D03*
Y0018250D03*
X0040875Y0017250D03*
Y0018250D03*
X0041875Y0017250D03*
Y0018250D03*
X0042875Y0017250D03*
Y0018250D03*
X0043875Y0017250D03*
Y0018250D03*
X0009159Y0010794D03*
X0018009Y0036394D03*
X0019009D03*
X0021159Y0046739D03*
X0011159D03*
X0006336Y0039367D03*
X0022809Y0033794D03*
X0021809Y0034894D03*
X0006381Y0030821D03*
X0006409Y0033449D03*
Y0035949D03*
G54D74*
X0033875Y0042750D03*
X0043375Y0045750D03*
X0046375Y0036250D03*
X0036875Y0033250D03*
X0033875Y0026750D03*
X0043375Y0029750D03*
X0046375Y0020250D03*
X0036875Y0017250D03*
X0008159Y0010794D03*
X0018009Y0037394D03*
X0019009D03*
X0021159Y0045794D03*
X0011159D03*
X0006336Y0038421D03*
X0022809Y0032794D03*
X0021809Y0035894D03*
X0006381Y0031767D03*
X0006409Y0034394D03*
Y0036894D03*
G54D75*
X0015159Y0044294D03*
G54D76*
X0017159D03*
G54D77*
X0025159Y0014794D03*
G54D78*
X0004522Y0017520D03*
X0016727D03*
Y0027362D03*
X0004916D03*
X0010822D03*
Y0017520D03*
X0002160Y0024607D03*
Y0020276D03*
X0029659Y0014794D03*
X0026659D03*
X0028159D03*
G54D79*
X0034250Y0011750D03*
Y0010750D03*
Y0009750D03*
Y0003950D03*
Y0002950D03*
Y0001950D03*
X0028159Y0011794D03*
Y0010794D03*
Y0008294D03*
Y0007294D03*
Y0004794D03*
Y0003794D03*
X0028309Y0038894D03*
Y0039894D03*
Y0032494D03*
Y0033494D03*
Y0034494D03*
Y0035494D03*
Y0036494D03*
G54D80*
X0034250Y0012750D03*
Y0004950D03*
X0028159Y0012794D03*
Y0009294D03*
Y0005794D03*
X0028309Y0037894D03*
Y0031494D03*
G54D81*
X0020809Y0040894D03*
Y0039894D03*
Y0038894D03*
Y0037894D03*
Y0036894D03*
Y0035894D03*
Y0034894D03*
Y0033894D03*
Y0032894D03*
Y0031894D03*
Y0030894D03*
Y0029894D03*
Y0028894D03*
X0023809D03*
Y0029894D03*
Y0030894D03*
Y0031894D03*
Y0032894D03*
Y0033894D03*
Y0034894D03*
Y0035894D03*
Y0036894D03*
Y0037894D03*
Y0038894D03*
Y0039894D03*
Y0040894D03*
Y0041894D03*
X0008409Y0036994D03*
Y0035994D03*
Y0034994D03*
Y0033994D03*
Y0032994D03*
Y0031994D03*
Y0030994D03*
X0011409D03*
Y0031994D03*
Y0032994D03*
Y0033994D03*
Y0034994D03*
Y0035994D03*
Y0036994D03*
Y0037994D03*
G54D82*
X0020809Y0041894D03*
X0008409Y0037994D03*
G54D83*
X0005219Y0014534D03*
Y0004694D03*
G54D84*
X0005779Y0008524D03*
Y0009614D03*
Y0010704D03*
Y0011794D03*
X0004659Y0007979D03*
Y0009069D03*
Y0010159D03*
Y0011249D03*
G54D85*
X0005779Y0007434D03*
G54D86*
X0001431Y0041732D03*
X0030971D03*
X0030959Y0029394D03*
X0001409D03*
G54D87*
X0004614Y0041735D03*
X0005614D03*
X0006614D03*
X0007614D03*
X0008614D03*
X0009614D03*
X0010614D03*
X0011614D03*
X0012614D03*
X0013614D03*
X0014614D03*
X0015614D03*
X0016614D03*
X0017614D03*
X0018614D03*
G54D88*
X0003614D03*
G54D89*
X0021159Y0004944D03*
G54D90*
X0022159Y0003944D03*
G54D91*
X0021159Y0002944D03*
G54D92*
X0020759Y0019894D03*
G54D93*
X0020664Y0025000D03*
G54D94*
X0034250Y0014550D03*
Y0006750D03*
X0014800Y0002000D03*
X0015159Y0060794D03*
X0016159Y0055794D03*
X0015159D03*
X0025659Y0034894D03*
G54D95*
X0035250Y0014550D03*
X0036250D03*
X0035250Y0006750D03*
X0036250D03*
X0015800Y0002000D03*
X0016800D03*
X0017800D03*
X0016159Y0060794D03*
X0017159D03*
G54D96*
X0018659Y0006794D03*
Y0005928D03*
Y0014794D03*
Y0013928D03*
X0022659Y0010794D03*
Y0009928D03*
X0008159Y0013294D03*
Y0012428D03*
X0020659Y0044294D03*
Y0043428D03*
X0017659Y0039794D03*
Y0038928D03*
G54D97*
X0045880Y0012950D03*
X0046746D03*
X0045880Y0012050D03*
X0046746D03*
X0046780Y0010250D03*
X0045914D03*
X0046780Y0009350D03*
X0045914D03*
X0039150Y0009950D03*
X0038284D03*
X0039150Y0010950D03*
X0038284D03*
X0039150Y0011950D03*
X0038284D03*
X0045880Y0011150D03*
X0046746D03*
X0045880Y0005150D03*
X0046746D03*
X0045880Y0004250D03*
X0046746D03*
X0046780Y0002450D03*
X0045914D03*
X0046780Y0001550D03*
X0045914D03*
X0039150Y0002150D03*
X0038284D03*
X0039150Y0003150D03*
X0038284D03*
X0039150Y0004150D03*
X0038284D03*
X0045880Y0003350D03*
X0046746D03*
X0012226Y0012861D03*
X0013092D03*
G54D98*
X0043350Y0014350D03*
X0041350D03*
X0043350Y0006550D03*
X0041350D03*
X0018159Y0032794D03*
Y0034794D03*
X0015159Y0005794D03*
X0017168D03*
X0015159Y0013794D03*
X0017168D03*
X0019159Y0009794D03*
X0021168D03*
X0011159D03*
X0013168D03*
X0007709Y0006744D03*
X0009718D03*
G54D99*
X0008059Y0002144D03*
X0011602D03*
G54D100*
X0009830D03*
G54D101*
X0028159Y0026794D03*
X0029159D03*
G54D102*
X0027159D03*
G54D103*
X0013759Y0031894D03*
X0016159Y0007294D03*
X0015459Y0036994D03*
X0047090Y0007010D03*
Y0014810D03*
X0045070Y0010860D03*
Y0003060D03*
X0040500Y0012850D03*
X0036750Y0013050D03*
X0040500Y0005050D03*
X0036750Y0005250D03*
X0014459Y0036994D03*
X0027159Y0019644D03*
G54D104*
X0037650Y0013250D03*
X0038490D03*
X0041950Y0009050D03*
X0042790D03*
X0046310Y0013980D03*
Y0014820D03*
X0039950Y0014550D03*
Y0013710D03*
X0044750Y0013950D03*
Y0014790D03*
X0037650Y0005450D03*
X0038490D03*
X0041950Y0001250D03*
X0042790D03*
X0046310Y0006180D03*
Y0007020D03*
X0039950Y0006750D03*
Y0005910D03*
X0044750Y0006150D03*
Y0006990D03*
G54D105*
X0037550Y0014550D03*
X0038730D03*
X0037550Y0006750D03*
X0038730D03*
G54D106*
X0049280Y0014450D03*
Y0009450D03*
Y0006650D03*
Y0001650D03*
G54D107*
X0048280Y0012450D03*
Y0011450D03*
Y0010450D03*
Y0004650D03*
Y0003650D03*
Y0002650D03*
G54D108*
Y0013450D03*
Y0005650D03*
G54D109*
X0041243Y0009985D03*
X0041499D03*
X0041755D03*
X0042011D03*
X0042267D03*
X0042523D03*
X0042779D03*
X0043034D03*
X0043290D03*
X0043546D03*
X0043802D03*
X0044058D03*
X0044314D03*
X0044570D03*
Y0013017D03*
X0044314D03*
X0044058D03*
X0043802D03*
X0043546D03*
X0043290D03*
X0043034D03*
X0042779D03*
X0042523D03*
X0042267D03*
X0042011D03*
X0041755D03*
X0041499D03*
X0041243D03*
Y0002185D03*
X0041499D03*
X0041755D03*
X0042011D03*
X0042267D03*
X0042523D03*
X0042779D03*
X0043034D03*
X0043290D03*
X0043546D03*
X0043802D03*
X0044058D03*
X0044314D03*
X0044570D03*
Y0005217D03*
X0044314D03*
X0044058D03*
X0043802D03*
X0043546D03*
X0043290D03*
X0043034D03*
X0042779D03*
X0042523D03*
X0042267D03*
X0042011D03*
X0041755D03*
X0041499D03*
X0041243D03*
G54D110*
X0043222Y0037135D03*
Y0037450D03*
Y0037765D03*
Y0038079D03*
Y0038394D03*
Y0038709D03*
Y0039023D03*
Y0039338D03*
Y0039653D03*
Y0039967D03*
Y0040282D03*
Y0040597D03*
Y0040911D03*
Y0041226D03*
Y0041541D03*
Y0041855D03*
X0037007D03*
Y0041541D03*
Y0041226D03*
Y0040911D03*
Y0040597D03*
Y0040282D03*
Y0039967D03*
Y0039653D03*
Y0039338D03*
Y0039023D03*
Y0038709D03*
Y0038394D03*
Y0038079D03*
Y0037765D03*
Y0037450D03*
Y0037135D03*
X0043222Y0021135D03*
Y0021450D03*
Y0021765D03*
Y0022079D03*
Y0022394D03*
Y0022709D03*
Y0023023D03*
Y0023338D03*
Y0023653D03*
Y0023967D03*
Y0024282D03*
Y0024597D03*
Y0024911D03*
Y0025226D03*
Y0025541D03*
Y0025855D03*
X0037007D03*
Y0025541D03*
Y0025226D03*
Y0024911D03*
Y0024597D03*
Y0024282D03*
Y0023967D03*
Y0023653D03*
Y0023338D03*
Y0023023D03*
Y0022709D03*
Y0022394D03*
Y0022079D03*
Y0021765D03*
Y0021450D03*
Y0021135D03*
G54D111*
X0038070Y0036390D03*
X0038385D03*
X0038700D03*
X0039015D03*
X0039330D03*
X0039645D03*
X0039960D03*
X0040275D03*
X0040590D03*
X0040905D03*
X0041220D03*
X0041535D03*
X0041850D03*
X0042165D03*
X0042480D03*
X0042474Y0042603D03*
X0042160D03*
X0041845D03*
X0041530D03*
X0041216D03*
X0040901D03*
X0040586D03*
X0040272D03*
X0039957D03*
X0039642D03*
X0039328D03*
X0039013D03*
X0038698D03*
X0038384D03*
X0038069D03*
X0037754D03*
X0038070Y0020390D03*
X0038385D03*
X0038700D03*
X0039015D03*
X0039330D03*
X0039645D03*
X0039960D03*
X0040275D03*
X0040590D03*
X0040905D03*
X0041220D03*
X0041535D03*
X0041850D03*
X0042165D03*
X0042480D03*
X0042474Y0026603D03*
X0042160D03*
X0041845D03*
X0041530D03*
X0041216D03*
X0040901D03*
X0040586D03*
X0040272D03*
X0039957D03*
X0039642D03*
X0039328D03*
X0039013D03*
X0038698D03*
X0038384D03*
X0038069D03*
X0037754D03*
G54D112*
X0037755Y0036390D03*
Y0020390D03*
G54D113*
X0009450Y0027900D03*
X0011320Y0029830D03*
X0018359Y0040594D03*
X0039990Y0001770D03*
X0016659Y0049444D03*
X0023759Y0049344D03*
X0043960Y0001110D03*
X0039810Y0011800D03*
Y0004000D03*
X0012359Y0038894D03*
X0021859Y0011344D03*
X0015909Y0050294D03*
X0022959Y0050244D03*
X0043290Y0004020D03*
Y0011820D03*
X0045150Y0013050D03*
X0043960Y0008910D03*
X0045150Y0005250D03*
X0016159Y0039994D03*
X0008659Y0039544D03*
X0047250Y0003390D03*
X0022659Y0008294D03*
X0024559Y0047544D03*
X0015109Y0047644D03*
X0019359Y0014194D03*
X0040580Y0002580D03*
Y0010380D03*
X0039990Y0009570D03*
X0003759Y0030194D03*
X0027759Y0029394D03*
X0014000Y0029600D03*
X0013100Y0040300D03*
X0023209Y0006794D03*
X0015259Y0040594D03*
X0030659Y0027194D03*
X0004659Y0029294D03*
X0024509Y0048494D03*
X0017409D03*
X0007350Y0027900D03*
X0016659Y0033994D03*
X0047250Y0011190D03*
X0010050Y0008050D03*
M02*
