*
G04 Mass Parameters ***
*
G04 Image ***
*
%IND:\SOUND LEVEL METER PROJECT\MO PHONG_SOUND LEVEL METER_V3\SOUND LEVEL METER_OK\BOARD_NOISE LEVEL METER\GERBER\NOISE LEVEL METER-18.FAB*%
%ICAS*%
%MOIN*%
%IPPOS*%
%ASAXBY*%
G74*%FSLAN2X34Y34*%
*
G04 Aperture Definitions ***
*
%ADD10C,0.0600*%
%ADD11R,0.0600X0.0600*%
%ADD12C,0.0800*%
%ADD13R,0.0800X0.0800*%
%ADD14R,0.1000X0.1000*%
%ADD15C,0.1000*%
%ADD16O,0.0950X0.0650*%
%ADD17R,0.0950X0.0650*%
%ADD18O,0.0800X0.0600*%
%ADD19R,0.0800X0.0600*%
%ADD20R,0.1400X0.1900*%
%ADD21C,0.0700*%
%ADD22R,0.0700X0.0700*%
%ADD23C,0.1575*%
%ADD24O,0.0750X0.0900*%
%ADD25R,0.0750X0.0900*%
%ADD26O,0.0900X0.0800*%
%ADD27O,0.0800X0.0900*%
%ADD28R,0.0900X0.0800*%
%ADD29O,0.4000X0.3000*%
%ADD30R,0.4000X0.3000*%
%ADD31R,0.0650X0.0950*%
%ADD32C,0.1180*%
%ADD33O,0.0650X0.0950*%
%ADD34R,0.0590X0.0394*%
%ADD35R,0.0394X0.0590*%
%ADD36C,0.0790*%
%ADD37O,0.1181X0.1575*%
%ADD38R,0.1181X0.1575*%
%ADD39O,0.0700X0.0850*%
%ADD40R,0.0700X0.0850*%
%ADD41C,0.0500*%
%ADD42R,0.0500X0.0500*%
%ADD43R,0.0480X0.0740*%
%ADD44R,0.0512X0.0590*%
%ADD45O,0.1500X0.0800*%
%ADD46O,0.0850X0.0650*%
%ADD47R,0.0850X0.0650*%
%ADD48O,0.0149X0.0590*%
%ADD49O,0.0787X0.0157*%
%ADD50O,0.0157X0.0787*%
%ADD51R,0.0157X0.0787*%
%ADD52C,0.0300*%
%ADD53C,0.0100*%
%ADD54C,0.0350*%
%ADD55C,0.0200*%
%ADD56C,0.0500*%
%ADD57C,0.0500*%
%ADD58C,0.0150*%
%ADD59C,0.0250*%
%ADD60C,0.0500*%
%ADD61C,0.0787*%
%ADD62C,0.0400*%
%ADD63C,0.0065*%
%ADD64C,0.0060*%
%ADD65C,0.0070*%
%ADD66C,0.0080*%
%ADD67C,0.0830*%
%ADD68R,0.0830X0.0830*%
%ADD69C,0.0750*%
%ADD70R,0.0590X0.0669*%
%ADD71O,0.1600X0.0900*%
%ADD72C,0.0750*%
%ADD73C,0.0680*%
%ADD74R,0.0680X0.0680*%
%ADD75C,0.0880*%
%ADD76R,0.0880X0.0880*%
%ADD77R,0.1080X0.1080*%
%ADD78C,0.1080*%
%ADD79O,0.1030X0.0730*%
%ADD80R,0.1030X0.0730*%
%ADD81O,0.0880X0.0680*%
%ADD82R,0.0880X0.0680*%
%ADD83R,0.1480X0.1980*%
%ADD84C,0.0780*%
%ADD85R,0.0780X0.0780*%
%ADD86C,0.1650*%
%ADD87O,0.0830X0.0980*%
%ADD88R,0.0830X0.0980*%
%ADD89O,0.0980X0.0880*%
%ADD90O,0.0880X0.0980*%
%ADD91R,0.0980X0.0880*%
%ADD92O,0.4080X0.3080*%
%ADD93R,0.4080X0.3080*%
%ADD94R,0.0730X0.1030*%
%ADD95O,0.0730X0.1030*%
%ADD96R,0.0680X0.0480*%
%ADD97R,0.0480X0.0680*%
%ADD98C,0.0870*%
%ADD99O,0.1260X0.1650*%
%ADD100R,0.1260X0.1650*%
%ADD101O,0.0780X0.0950*%
%ADD102R,0.0780X0.0930*%
%ADD103C,0.0550*%
%ADD104R,0.0580X0.0580*%
%ADD105R,0.0560X0.0820*%
%ADD106O,0.1580X0.0880*%
%ADD107O,0.0930X0.0730*%
%ADD108R,0.0930X0.0730*%
%ADD109O,0.0230X0.0670*%
%ADD110O,0.0870X0.0240*%
%ADD111O,0.0240X0.0870*%
%ADD112R,0.0240X0.0870*%
%ADD113C,0.0550*%
%ADD114C,0.0004*%
%ADD115C,0.0050*%
%ADD116C,0.0020*%
%ADD117C,0.0079*%
%ADD118C,0.0118*%
%ADD119C,0.0039*%
%ADD120C,0.0010*%
%ADD121C,0.0012*%
%ADD122C,0.0394*%
%ADD123C,0.0030*%
%ADD124C,0.0090*%
%ADD125R,0.1200X0.1200*%
%ADD126C,0.1200*%
%ADD127O,0.0990X0.0670*%
%ADD128O,0.0800X0.0580*%
%ADD129R,0.0800X0.0580*%
%ADD130C,0.0630*%
%ADD131R,0.0630X0.0630*%
%ADD132O,0.0670X0.0990*%
%ADD133C,0.0710*%
%ADD134R,0.0710X0.0710*%
%ADD135C,0.0580*%
%ADD136O,0.0800X0.0320*%
%ADD137C,0.0280*%
%ADD138C,0.0280*%
*
G04 Plot Data ***
*
G54D52*
G01X0032159Y0000294D02*
Y0042794D01*
X0018159Y0056794D01*
Y0062794D01*
X0014159D01*
Y0056794D01*
X0000259Y0042894D01*
Y0000294D01*
X0032159D01*
G54D55*
G01X0032770Y0000470D02*
X0032780Y0000460D01*
X0050340D01*
Y0007800D01*
X0032770D01*
Y0000470D01*
X0036000Y0046750D02*
X0044375D01*
X0047375Y0043750D01*
Y0035250D01*
X0044375Y0032250D01*
X0035875D01*
X0032875Y0035250D01*
Y0043625D01*
X0036000Y0046750D01*
Y0030750D02*
X0044375D01*
X0047375Y0027750D01*
Y0019250D01*
X0044375Y0016250D01*
X0035875D01*
X0032875Y0019250D01*
Y0027625D01*
X0036000Y0030750D01*
X0032770Y0008270D02*
X0032780Y0008260D01*
X0050340D01*
Y0015600D01*
X0032770D01*
Y0008270D01*
G54D137*
X0013759Y0031894D03*
X0016159Y0007294D03*
X0015459Y0036994D03*
X0047090Y0007010D03*
Y0014810D03*
X0045070Y0010860D03*
Y0003060D03*
X0040500Y0012850D03*
X0036750Y0013050D03*
X0040500Y0005050D03*
X0036750Y0005250D03*
X0014459Y0036994D03*
X0027159Y0019644D03*
G54D138*
X0009450Y0027900D03*
X0011320Y0029830D03*
X0018359Y0040594D03*
X0039990Y0001770D03*
X0016659Y0049444D03*
X0023759Y0049344D03*
X0043960Y0001110D03*
X0039810Y0011800D03*
Y0004000D03*
X0012359Y0038894D03*
X0021859Y0011344D03*
X0015909Y0050294D03*
X0022959Y0050244D03*
X0043290Y0004020D03*
Y0011820D03*
X0045150Y0013050D03*
X0043960Y0008910D03*
X0045150Y0005250D03*
X0016159Y0039994D03*
X0008659Y0039544D03*
X0047250Y0003390D03*
X0022659Y0008294D03*
X0024559Y0047544D03*
X0015109Y0047644D03*
X0019359Y0014194D03*
X0040580Y0002580D03*
Y0010380D03*
X0039990Y0009570D03*
X0003759Y0030194D03*
X0027759Y0029394D03*
X0014000Y0029600D03*
X0013100Y0040300D03*
X0023209Y0006794D03*
X0015259Y0040594D03*
X0030659Y0027194D03*
X0004659Y0029294D03*
X0024509Y0048494D03*
X0017409D03*
X0007350Y0027900D03*
X0016659Y0033994D03*
X0047250Y0011190D03*
X0010050Y0008050D03*
M02*
