*
G04 Mass Parameters ***
*
G04 Image ***
*
%IND:\SOUND LEVEL METER PROJECT\MO PHONG_SOUND LEVEL METER_V3\SOUND LEVEL METER_OK\BOARD_NOISE LEVEL METER\GERBER\NOISE LEVEL METER-15.TOP*%
%ICAS*%
%MOIN*%
%IPPOS*%
%ASAXBY*%
G74*%FSLAN2X34Y34*%
*
G04 Aperture Definitions ***
*
%ADD10C,0.0600*%
%ADD11R,0.0600X0.0600*%
%ADD12C,0.0800*%
%ADD13R,0.0800X0.0800*%
%ADD14R,0.1000X0.1000*%
%ADD15C,0.1000*%
%ADD16O,0.0950X0.0650*%
%ADD17R,0.0950X0.0650*%
%ADD18O,0.0800X0.0600*%
%ADD19R,0.0800X0.0600*%
%ADD20R,0.1400X0.1900*%
%ADD21C,0.0700*%
%ADD22R,0.0700X0.0700*%
%ADD23C,0.1575*%
%ADD24O,0.0750X0.0900*%
%ADD25R,0.0750X0.0900*%
%ADD26O,0.0900X0.0800*%
%ADD27O,0.0800X0.0900*%
%ADD28R,0.0900X0.0800*%
%ADD29O,0.4000X0.3000*%
%ADD30R,0.4000X0.3000*%
%ADD31R,0.0650X0.0950*%
%ADD32C,0.1180*%
%ADD33O,0.0650X0.0950*%
%ADD34R,0.0590X0.0394*%
%ADD35R,0.0394X0.0590*%
%ADD36C,0.0790*%
%ADD37O,0.1181X0.1575*%
%ADD38R,0.1181X0.1575*%
%ADD39O,0.0700X0.0850*%
%ADD40R,0.0700X0.0850*%
%ADD41C,0.0500*%
%ADD42R,0.0500X0.0500*%
%ADD43R,0.0480X0.0740*%
%ADD44R,0.0512X0.0590*%
%ADD45O,0.1500X0.0800*%
%ADD46O,0.0850X0.0650*%
%ADD47R,0.0850X0.0650*%
%ADD48O,0.0149X0.0590*%
%ADD49C,0.0300*%
%ADD50C,0.0200*%
%ADD51C,0.0100*%
%ADD52C,0.0350*%
%ADD53C,0.0500*%
%ADD54C,0.0250*%
%ADD55C,0.0150*%
%ADD56C,0.0500*%
*
G04 Plot Data ***
*
G54D49*
G01X0014610Y0015110D02*
X0015390D01*
Y0007010D02*
X0014610D01*
X0008250Y0014850D02*
X0007030D01*
X0008250Y0006750D02*
X0007030D01*
X0002550Y0003950D02*
X0002620Y0004020D01*
X0004733D01*
X0004863Y0004150D01*
X0013050Y0006150D02*
X0013370D01*
X0014240Y0007020D01*
X0014610D01*
X0002550Y0012050D02*
X0002620Y0012120D01*
X0004733D01*
X0004863Y0012250D01*
X0013050Y0014250D02*
X0013370D01*
X0014240Y0015120D01*
X0014610D01*
X0006790Y0013550D02*
X0006800Y0013560D01*
Y0014570D01*
X0007030Y0014800D01*
Y0014850D01*
X0006790Y0005450D02*
X0006800Y0005460D01*
Y0006470D01*
X0007030Y0006700D01*
Y0006750D01*
X0013370Y0011150D02*
Y0011160D01*
Y0003050D02*
Y0003060D01*
X0008770Y0005200D02*
X0007710D01*
X0007460Y0005450D01*
X0006790D01*
X0008770Y0013300D02*
X0007710D01*
X0007460Y0013550D01*
X0006790D01*
X0005050Y0013350D02*
X0004900Y0013200D01*
X0004863D01*
Y0012250D01*
X0005050Y0005250D02*
X0004900Y0005100D01*
X0004863D01*
Y0004150D01*
X0009650Y0014650D02*
X0009543Y0014543D01*
X0006584Y0011250D02*
X0005650D01*
X0005850Y0014850D02*
Y0013650D01*
X0005950Y0013550D01*
X0013050Y0006990D02*
X0012090D01*
X0011650Y0006550D01*
X0006584Y0012250D02*
X0005650D01*
X0006584Y0010250D02*
X0005650D01*
X0005850Y0013650D02*
X0005950Y0013550D01*
X0005850Y0005550D02*
X0005950Y0005450D01*
X0009543Y0006443D02*
X0009080Y0005980D01*
X0008320D01*
X0008250Y0005910D01*
X0013050Y0015090D02*
X0012090D01*
X0011650Y0014650D01*
X0006584Y0002150D02*
X0005650D01*
X0006584Y0003150D02*
X0005650D01*
X0006584Y0004150D02*
X0005650D01*
X0015046Y0012350D02*
Y0011450D01*
X0015080Y0002450D02*
Y0001550D01*
X0009543Y0014543D02*
X0009080Y0014080D01*
X0008320D01*
X0008250Y0014010D01*
X0016380Y0013750D02*
X0015830Y0014300D01*
X0014630D01*
X0016380Y0005650D02*
X0015830Y0006200D01*
X0014630D01*
X0007450Y0012250D02*
X0007810D01*
X0007960Y0012100D01*
X0007450Y0004150D02*
X0007810D01*
X0007960Y0004000D01*
X0015560Y0011450D02*
X0015046D01*
X0002550Y0010050D02*
X0002640Y0010140D01*
X0004753D01*
X0004863Y0010250D01*
X0009650Y0006550D02*
X0009543Y0006443D01*
X0007450Y0003150D02*
Y0002150D01*
Y0011250D02*
Y0010250D01*
X0015560Y0003350D02*
X0015046D01*
Y0004250D02*
Y0003350D01*
X0015080Y0010550D02*
Y0009650D01*
X0005850Y0006750D02*
Y0005550D01*
X0005950Y0005450D01*
X0002550Y0011050D02*
X0002670Y0011170D01*
X0004783D01*
X0004863Y0011250D01*
X0002550Y0002950D02*
X0002670Y0003070D01*
X0004783D01*
X0004863Y0003150D01*
X0015560Y0011450D02*
X0015046D01*
X0002550Y0001950D02*
X0002640Y0002040D01*
X0004753D01*
X0004863Y0002150D01*
X0000559Y0016844D02*
Y0059394D01*
X0014459Y0073294D01*
Y0079294D01*
X0018459D01*
Y0073294D01*
X0032459Y0059294D01*
Y0016794D01*
X0000559D01*
G54D50*
G01X0021109Y0048394D02*
X0014059D01*
X0017468Y0022294D02*
Y0022428D01*
X0017334Y0022294D01*
X0016459Y0023169D01*
Y0023794D01*
X0015759Y0053494D02*
X0017209Y0054944D01*
X0020209D01*
X0020759Y0054394D01*
X0021109D01*
X0010350Y0024550D02*
X0015200Y0019700D01*
X0016650D01*
X0017100Y0019250D01*
Y0018500D01*
X0012659Y0055394D02*
X0016059D01*
X0016526Y0055861D01*
X0018677D02*
X0019207Y0056394D01*
X0021109D01*
Y0053394D02*
X0020859D01*
X0019709Y0054544D01*
X0017809D01*
X0016059Y0052794D01*
X0015059D01*
X0014759Y0053094D01*
Y0053494D01*
X0018100Y0018500D02*
Y0019450D01*
X0017050Y0020500D01*
X0015650D01*
X0010450Y0025700D01*
X0008250D01*
X0007550Y0026400D01*
Y0042500D01*
X0009450Y0044400D01*
X0009750D01*
X0011620Y0046330D02*
X0011630Y0046320D01*
Y0046340D01*
X0011620Y0046350D01*
X0010900D01*
X0010450Y0046800D01*
Y0050200D01*
X0010750Y0050500D01*
X0011703D01*
X0011709Y0050494D01*
X0016959D01*
X0018659Y0057094D02*
X0020809D01*
X0021109Y0057394D01*
X0011459Y0062294D02*
X0009009Y0059844D01*
X0003559D01*
X0003159Y0059444D01*
Y0057494D01*
X0003759Y0056894D01*
X0013494D01*
X0013400Y0056800D01*
X0014300Y0046100D02*
X0014360Y0046040D01*
X0017809D01*
X0019259Y0044594D01*
X0027559D01*
X0028059Y0045094D01*
Y0045894D01*
X0020959Y0059928D02*
X0020259D01*
Y0059944D01*
X0017909Y0062294D01*
X0011459D01*
X0010350Y0024550D02*
X0015200Y0019700D01*
X0016650D01*
X0017100Y0019250D01*
Y0018500D01*
X0022959Y0026428D02*
X0021468D01*
Y0026294D01*
X0024809Y0064994D02*
X0017709D01*
X0009750Y0044400D02*
X0009450D01*
X0007550Y0042500D01*
Y0026400D01*
X0008250Y0025700D01*
X0010450D01*
X0015650Y0020500D01*
X0017050D01*
X0018100Y0019450D01*
Y0018500D01*
X0018959Y0030428D02*
X0019659D01*
Y0030694D01*
X0022159Y0027844D02*
X0013459D01*
X0013392Y0027911D01*
Y0029361D01*
X0006079Y0025024D02*
X0006600D01*
X0006850Y0025274D01*
Y0043000D01*
X0007650Y0043799D01*
Y0044400D01*
X0020959Y0059928D02*
Y0058394D01*
X0021109D01*
X0018959Y0030428D02*
X0017468D01*
Y0030294D01*
X0023509Y0023294D02*
X0025559D01*
X0027559Y0021294D01*
X0028459D01*
X0028609Y0056394D02*
X0024109D01*
X0016459Y0056494D02*
X0015959Y0055994D01*
X0013009D01*
X0012809Y0056194D01*
X0009109D01*
X0008959Y0056044D01*
X0013468Y0026294D02*
X0013409D01*
X0013392Y0026314D01*
Y0027911D01*
Y0029361D01*
X0028459Y0024794D02*
X0022959D01*
X0024859Y0064044D02*
X0024909Y0064094D01*
X0015459D01*
Y0064144D01*
X0015409D01*
X0017914Y0058235D02*
X0017959Y0058191D01*
Y0056294D01*
X0024109Y0048394D02*
X0024859D01*
X0025459Y0048994D01*
X0028609D01*
X0024109Y0049394D02*
X0024859D01*
X0025259Y0049794D01*
X0028409D01*
X0028609Y0049994D01*
X0011459Y0062294D02*
X0009009Y0059844D01*
X0003559D01*
X0003159Y0059444D01*
Y0057494D01*
X0003759Y0056894D01*
X0013494D01*
X0013400Y0056800D01*
X0024109Y0047394D02*
X0027259D01*
X0027859Y0047994D01*
X0028609D01*
X0008459Y0028928D02*
Y0027294D01*
X0025959Y0051394D02*
X0024109D01*
X0006636Y0054921D02*
X0008063Y0053494D01*
X0008709D01*
X0007914Y0058235D02*
Y0057694D01*
X0008214Y0057394D01*
X0015359D01*
X0015559Y0057194D01*
Y0057094D01*
X0028059Y0045894D02*
Y0045094D01*
X0027559Y0044594D01*
X0019259D01*
X0017809Y0046040D01*
X0014360D01*
X0014300Y0046100D01*
X0013400Y0056800D02*
X0013494Y0056894D01*
X0003759D01*
X0003159Y0057494D01*
Y0059444D01*
X0003559Y0059844D01*
X0009009D01*
X0011459Y0062294D01*
X0004059Y0046694D02*
X0005656D01*
X0006750Y0045600D01*
X0012050D01*
X0013790Y0047340D01*
X0017613D01*
X0019559Y0045394D01*
X0021109D01*
X0030959Y0043694D02*
X0030559Y0044094D01*
X0018859D01*
X0017810Y0045100D01*
X0005700D01*
X0004959Y0045794D01*
X0028609Y0054394D02*
X0024109D01*
X0016209Y0066794D02*
X0023209D01*
X0023259Y0066744D01*
X0018959Y0022428D02*
X0017468D01*
Y0022294D01*
X0021109Y0050394D02*
X0020159D01*
X0019259Y0051294D01*
X0018459D01*
X0021109Y0049394D02*
X0018559D01*
X0018459Y0049294D01*
X0016959Y0065944D02*
Y0065894D01*
X0024009D01*
X0024059Y0065844D01*
X0028609Y0055394D02*
X0024109D01*
X0023259Y0026494D02*
X0023193Y0026428D01*
X0022959D01*
X0001070Y0015900D02*
Y0008560D01*
X0018640D01*
Y0015900D01*
X0001080D01*
X0009660Y0015450D02*
Y0015395D01*
X0015960Y0010319D02*
Y0009010D01*
X0014010Y0015450D02*
Y0014880D01*
X0013980Y0015450D02*
Y0014670D01*
X0008924Y0014820D02*
X0008850D01*
X0007650Y0014250D02*
Y0013410D01*
X0008850Y0015450D02*
X0007650D01*
Y0014610D02*
Y0014250D01*
X0014010Y0015180D02*
X0013650D01*
X0013748Y0014460D02*
X0013650D01*
X0008992Y0015000D02*
X0008850D01*
X0016554Y0010075D02*
X0016480D01*
X0016510Y0009960D02*
X0015627D01*
X0016191Y0010140D02*
X0015627D01*
X0017040Y0009024D02*
Y0009010D01*
X0017108D02*
X0015361D01*
X0010740Y0015450D02*
Y0015075D01*
X0013650Y0014490D02*
Y0014362D01*
X0004620Y0012931D02*
Y0012895D01*
X0008906Y0014613D02*
X0008873Y0014580D01*
X0015780Y0010936D02*
Y0009010D01*
X0011100Y0011080D02*
Y0010929D01*
X0011460Y0015450D02*
Y0015370D01*
X0004257Y0011760D02*
X0003309D01*
X0004257Y0011670D02*
X0003258D01*
X0009120Y0012642D02*
Y0012481D01*
X0015814Y0010860D02*
X0015627D01*
X0018190Y0013200D02*
X0017355D01*
X0016936Y0009060D02*
X0015627D01*
X0018190Y0011580D02*
X0017333D01*
X0017930Y0010500D02*
X0017307D01*
X0018190Y0011400D02*
X0017257D01*
X0017930Y0014000D02*
X0017355D01*
X0018190Y0013380D02*
X0017355D01*
X0018190Y0012300D02*
X0017183D01*
X0013935Y0014640D02*
X0013650D01*
X0017940Y0014000D02*
Y0010500D01*
X0018190Y0011760D02*
X0017355D01*
X0010920Y0012683D02*
Y0011930D01*
X0015627Y0009005D02*
X0015356D01*
X0015808Y0010680D02*
X0015627D01*
X0003375Y0013475D02*
Y0012375D01*
X0004080Y0013475D02*
Y0011670D01*
X0008850Y0015450D02*
Y0014610D01*
X0004257Y0012895D02*
Y0011895D01*
X0004549Y0013020D02*
X0003375D01*
X0004257Y0012660D02*
X0003375D01*
X0007620Y0015450D02*
Y0014130D01*
X0008040Y0013410D02*
Y0013275D01*
X0007620Y0014130D02*
X0007390D01*
X0010380Y0015450D02*
Y0014931D01*
X0008873Y0014580D02*
X0008850D01*
X0009300Y0015450D02*
Y0015307D01*
X0010459Y0015000D02*
X0010307D01*
X0010920Y0014225D02*
Y0013950D01*
X0010396Y0014947D02*
X0010351Y0014902D01*
X0011100Y0012672D02*
Y0012466D01*
X0009012Y0012589D02*
X0009426Y0012175D01*
X0012198Y0011080D02*
X0010953D01*
X0012180D02*
Y0010923D01*
X0012781Y0011275D02*
X0012581D01*
X0011165Y0012680D02*
Y0012543D01*
X0012000Y0011080D02*
Y0010917D01*
X0011460Y0011080D02*
Y0010911D01*
X0011017Y0012300D02*
X0009301D01*
X0011100Y0015450D02*
Y0015152D01*
X0004469Y0013200D02*
X0003375D01*
X0003360Y0012375D02*
Y0012191D01*
X0004257Y0012480D02*
X0003375D01*
X0010560Y0012672D02*
Y0012144D01*
X0016680Y0009240D02*
Y0009010D01*
X0018190Y0014046D02*
Y0010453D01*
Y0012840D02*
X0017349D01*
X0016500Y0009578D02*
Y0009010D01*
X0017220Y0011345D02*
Y0011155D01*
X0018190Y0011040D02*
X0017289D01*
X0018190Y0013560D02*
X0017355D01*
X0018190Y0012660D02*
X0017349D01*
X0018190Y0012120D02*
X0017244D01*
X0018190Y0013920D02*
X0017355D01*
X0018190Y0010500D02*
X0017930D01*
X0015627Y0010895D02*
Y0010295D01*
X0018190Y0011940D02*
X0017328D01*
X0018190Y0011220D02*
X0017164D01*
X0007860Y0013410D02*
Y0013275D01*
X0007500Y0014130D02*
Y0013275D01*
X0007680Y0013410D02*
Y0013275D01*
X0010400Y0012175D02*
X0009426D01*
X0011165Y0012680D02*
Y0012543D01*
X0017220Y0012345D02*
Y0012155D01*
X0017355Y0014000D02*
Y0013075D01*
X0015853Y0010500D02*
X0015627D01*
X0011017Y0011940D02*
X0010813D01*
X0009300Y0012748D02*
Y0012301D01*
X0010020Y0012673D02*
Y0012175D01*
X0011165Y0012680D02*
Y0012543D01*
X0013884Y0014596D02*
X0013650Y0014362D01*
X0016500Y0010075D02*
Y0009922D01*
X0017400Y0014000D02*
Y0010500D01*
X0017580Y0014000D02*
Y0010500D01*
X0008905Y0014640D02*
X0008850D01*
X0016860Y0009097D02*
Y0009010D01*
X0016320Y0010094D02*
Y0009010D01*
X0018190Y0013020D02*
X0017298D01*
X0014010Y0014820D02*
X0013650D01*
X0018120Y0014024D02*
Y0010475D01*
X0009840Y0012673D02*
Y0012175D01*
X0018190Y0013740D02*
X0017355D01*
X0008850Y0014610D02*
Y0014580D01*
X0004659Y0012895D02*
X0004257D01*
Y0012300D02*
X0003327D01*
X0016680Y0009240D02*
X0015627D01*
X0016556Y0009420D02*
X0015627D01*
X0016495Y0009600D02*
X0015627D01*
Y0009905D02*
Y0009010D01*
X0016480Y0009780D02*
X0015627D01*
X0015960Y0010320D02*
X0015627D01*
X0011165Y0012680D02*
Y0012543D01*
X0011021Y0011930D02*
X0010824D01*
X0004463Y0013475D02*
X0003375D01*
X0011280Y0011080D02*
Y0010926D01*
X0010698Y0012053D02*
X0010824Y0011930D01*
X0012581Y0011275D02*
X0012480Y0011186D01*
X0010200Y0012686D02*
Y0012175D01*
X0012360Y0011111D02*
Y0010930D01*
X0012180Y0014126D02*
Y0013954D01*
X0012450Y0014490D02*
Y0013951D01*
X0004257Y0011940D02*
X0003366D01*
X0007650Y0014640D02*
X0007620D01*
X0007650Y0014820D02*
X0007620D01*
X0007650Y0015000D02*
X0007620D01*
X0007650Y0015180D02*
X0007620D01*
X0004257Y0012840D02*
X0003375D01*
Y0012375D02*
X0003291D01*
X0012450Y0014590D02*
X0012392D01*
X0012450Y0014280D02*
X0012296D01*
X0009480Y0015450D02*
Y0015375D01*
X0008940Y0015450D02*
Y0014875D01*
X0012450Y0014460D02*
X0012370D01*
X0012450Y0014100D02*
X0012152D01*
X0011038Y0015075D02*
X0010700D01*
X0013650Y0015450D02*
Y0014850D01*
X0013800Y0015450D02*
Y0014512D01*
X0004257Y0012120D02*
X0003371D01*
X0014010Y0015000D02*
X0013650D01*
X0014010Y0015450D02*
X0013650D01*
X0012450Y0014590D02*
Y0014490D01*
X0011280Y0015450D02*
Y0015296D01*
X0017760Y0014000D02*
Y0010500D01*
X0012782Y0011040D02*
X0010969D01*
X0017355Y0013075D02*
X0017271D01*
X0010020Y0015450D02*
Y0015296D01*
X0004440Y0013475D02*
Y0012895D01*
X0003900Y0013475D02*
Y0011670D01*
X0008246Y0013380D02*
X0007390D01*
X0010920Y0015450D02*
Y0015075D01*
X0007650Y0015450D02*
Y0014610D01*
X0009840Y0015450D02*
Y0015370D01*
X0003360Y0011908D02*
Y0011670D01*
X0011640Y0011080D02*
Y0010927D01*
X0011165Y0012660D02*
X0009146D01*
X0008259Y0013410D02*
X0007650D01*
X0012773Y0011220D02*
X0012518D01*
X0004451Y0013380D02*
X0003375D01*
X0007650Y0014100D02*
X0007390D01*
X0004257Y0011895D02*
Y0011670D01*
X0012720Y0011275D02*
Y0010916D01*
X0018190Y0012480D02*
X0017298D01*
X0010990Y0012120D02*
X0010609D01*
X0008220Y0013410D02*
Y0013303D01*
X0004260Y0013475D02*
Y0011670D01*
X0015627Y0010295D02*
Y0009905D01*
X0012540Y0011239D02*
Y0010923D01*
X0007650Y0013560D02*
X0007390D01*
X0007650Y0013740D02*
X0007390D01*
X0007650Y0013920D02*
X0007390D01*
X0008150Y0013275D02*
X0007390D01*
X0011280Y0014003D02*
Y0013958D01*
X0012000Y0013992D02*
Y0013949D01*
X0011100Y0014147D02*
Y0013961D01*
X0010876Y0014225D02*
X0010610Y0013959D01*
X0007650Y0014280D02*
X0007620D01*
X0007650Y0014460D02*
X0007620D01*
X0007650Y0015360D02*
X0007620D01*
X0011110Y0012480D02*
X0009121D01*
X0009660Y0012688D02*
Y0012175D01*
X0010380Y0012677D02*
Y0012175D01*
X0003720Y0013475D02*
Y0011670D01*
X0010740Y0014089D02*
Y0013953D01*
X0009424Y0015360D02*
X0008850D01*
X0009126Y0015180D02*
X0008850D01*
X0014010Y0015360D02*
X0013650D01*
X0011640Y0015450D02*
Y0015395D01*
X0010200Y0015450D02*
Y0015152D01*
X0014010Y0014880D02*
Y0014686D01*
X0009480Y0012676D02*
Y0012175D01*
X0003540Y0013475D02*
Y0011670D01*
X0011743Y0015450D02*
X0007620D01*
X0012360Y0014424D02*
Y0013961D01*
X0009120Y0015450D02*
Y0015173D01*
X0011820Y0011080D02*
Y0010929D01*
X0018190Y0010860D02*
X0017346D01*
X0013650Y0014850D02*
Y0014490D01*
X0018190Y0010680D02*
X0017351D01*
X0007390Y0014130D02*
Y0013275D01*
X0011147Y0014100D02*
X0010751D01*
X0010560Y0015450D02*
Y0015051D01*
X0011038Y0014225D02*
X0010876D01*
X0011126Y0015180D02*
X0010173D01*
X0011424Y0015360D02*
X0009875D01*
X0016140Y0010167D02*
Y0009010D01*
X0010740Y0012680D02*
Y0012012D01*
X0010560Y0004572D02*
Y0004044D01*
X0009660Y0007350D02*
Y0007295D01*
X0015960Y0002219D02*
Y0000910D01*
X0014010Y0007350D02*
Y0006780D01*
X0008924Y0006720D02*
X0008850D01*
X0007650Y0006150D02*
Y0005310D01*
X0008850Y0007350D02*
X0007650D01*
Y0006510D02*
Y0006150D01*
X0014010Y0007080D02*
X0013650D01*
X0014010Y0006780D02*
Y0006586D01*
X0008992Y0006900D02*
X0008850D01*
X0016554Y0001975D02*
X0016480D01*
X0016510Y0001860D02*
X0015627D01*
X0016191Y0002040D02*
X0015627D01*
X0017040Y0000924D02*
Y0000910D01*
X0003360Y0003808D02*
Y0003570D01*
X0017355Y0004975D02*
X0017271D01*
X0010560Y0007350D02*
Y0006951D01*
X0008873Y0006480D02*
X0008850D01*
X0008906Y0006513D02*
X0008873Y0006480D01*
X0015780Y0002836D02*
Y0000910D01*
X0011017Y0004200D02*
X0009301D01*
X0013748Y0006360D02*
X0013650D01*
X0004257Y0003660D02*
X0003309D01*
X0004463Y0005375D02*
X0003375D01*
X0004257Y0003570D02*
X0003258D01*
X0013650Y0006390D02*
Y0006262D01*
X0012360Y0003011D02*
Y0002830D01*
X0015814Y0002760D02*
X0015627D01*
X0018190Y0005100D02*
X0017355D01*
X0016936Y0000960D02*
X0015627D01*
X0016320Y0001994D02*
Y0000910D01*
X0018190Y0002400D02*
X0017930D01*
X0017307D01*
X0018190Y0003300D02*
X0017257D01*
X0017930Y0005900D02*
X0017355D01*
X0018190Y0004560D02*
X0017349D01*
X0018190Y0004740D02*
X0017349D01*
X0018190Y0004380D02*
X0017298D01*
X0018190Y0002580D02*
X0017351D01*
X0011100Y0004572D02*
Y0004366D01*
X0011165Y0004560D02*
X0009146D01*
X0015808Y0002580D02*
X0015627D01*
X0003375Y0005375D02*
Y0004275D01*
X0008850Y0007350D02*
Y0006510D01*
X0004257Y0004795D02*
Y0003795D01*
X0004549Y0004920D02*
X0003375D01*
X0009660Y0004588D02*
Y0004075D01*
X0004257Y0004560D02*
X0003375D01*
X0003720Y0005375D02*
Y0003570D01*
X0007620Y0007350D02*
Y0006030D01*
X0007390D01*
X0011640Y0007350D02*
Y0007295D01*
X0010920Y0007350D02*
Y0006975D01*
X0010396Y0006847D02*
X0010351Y0006802D01*
X0012720Y0003175D02*
Y0002816D01*
X0010459Y0006900D02*
X0010307D01*
X0012450Y0006490D02*
Y0006390D01*
X0011280Y0007350D02*
Y0007196D01*
X0004620Y0004831D02*
Y0004795D01*
X0012360Y0006324D02*
Y0005861D01*
X0010920Y0006125D02*
Y0005850D01*
X0011100Y0007350D02*
Y0007052D01*
X0012782Y0002940D02*
X0010969D01*
X0012540Y0003139D02*
Y0002823D01*
X0011017Y0003840D02*
X0010813D01*
X0009480Y0004576D02*
Y0004075D01*
X0012198Y0002980D02*
X0010953D01*
X0012180D02*
Y0002823D01*
X0018190Y0003840D02*
X0017328D01*
X0018190Y0005820D02*
X0017355D01*
X0018190Y0002940D02*
X0017289D01*
X0018190Y0004020D02*
X0017244D01*
X0011165Y0004580D02*
Y0004443D01*
X0017400Y0005900D02*
Y0002400D01*
X0013884Y0006496D02*
X0013650Y0006262D01*
X0017760Y0005900D02*
Y0002400D01*
X0018120Y0005924D02*
Y0002375D01*
X0011165Y0004580D02*
Y0004443D01*
X0004257Y0004740D02*
X0003375D01*
X0004257Y0003795D02*
Y0003570D01*
X0003375Y0004275D02*
X0003291D01*
X0004469Y0005100D02*
X0003375D01*
X0003360Y0004275D02*
Y0004091D01*
X0004260Y0005375D02*
Y0003570D01*
X0004080Y0005375D02*
Y0003570D01*
X0018190Y0005640D02*
X0017355D01*
X0013884Y0006496D02*
X0013650Y0006262D01*
X0018190Y0005946D02*
Y0002353D01*
X0017580Y0005900D02*
Y0002400D01*
X0013935Y0006540D02*
X0013650D01*
X0009840Y0007350D02*
Y0007270D01*
X0011165Y0004580D02*
Y0004443D01*
X0011820Y0002980D02*
Y0002829D01*
X0007650Y0005460D02*
X0007390D01*
X0007650Y0005640D02*
X0007390D01*
X0007650Y0005820D02*
X0007390D01*
X0008150Y0005175D02*
X0007390D01*
X0017355Y0005900D02*
Y0004975D01*
X0017220Y0004245D02*
Y0004055D01*
Y0003245D02*
Y0003055D01*
X0015853Y0002400D02*
X0015627D01*
X0008040Y0005310D02*
Y0005175D01*
X0010990Y0004020D02*
X0010609D01*
X0010020Y0004573D02*
Y0004075D01*
X0016680Y0001140D02*
Y0000910D01*
X0018190Y0005460D02*
X0017355D01*
X0018190Y0004920D02*
X0017298D01*
X0016500Y0001478D02*
Y0000910D01*
X0018190Y0005280D02*
X0017355D01*
X0018190Y0003660D02*
X0017355D01*
X0018190Y0003480D02*
X0017333D01*
X0008940Y0007350D02*
Y0006775D01*
X0010876Y0006125D02*
X0010610Y0005859D01*
X0011100Y0006047D02*
Y0005861D01*
Y0002980D02*
Y0002829D01*
X0011280Y0005903D02*
Y0005858D01*
X0004257Y0004380D02*
X0003375D01*
X0018190Y0004200D02*
X0017183D01*
X0016495Y0001500D02*
X0015627D01*
X0016480Y0001680D02*
X0015627D01*
X0018190Y0002760D02*
X0017346D01*
X0015960Y0002220D02*
X0015627D01*
X0016140Y0002067D02*
Y0000910D01*
X0017108D02*
X0015361D01*
X0011165Y0004580D02*
Y0004443D01*
X0011110Y0004380D02*
X0009121D01*
X0008220Y0005310D02*
Y0005203D01*
X0007860Y0005310D02*
Y0005175D01*
X0007680Y0005310D02*
Y0005175D01*
X0010400Y0004075D02*
X0009426D01*
X0010920Y0004583D02*
Y0003830D01*
X0011460Y0007350D02*
Y0007270D01*
X0010020Y0007350D02*
Y0007196D01*
X0011038Y0006125D02*
X0010876D01*
X0011147Y0006000D02*
X0010751D01*
X0011126Y0007080D02*
X0010173D01*
X0004257Y0004020D02*
X0003371D01*
X0011460Y0002980D02*
Y0002811D01*
X0007650Y0007350D02*
Y0006510D01*
X0009300Y0007350D02*
Y0007207D01*
X0009120Y0007350D02*
Y0007073D01*
X0011424Y0007260D02*
X0009875D01*
X0009012Y0004489D02*
X0009426Y0004075D01*
X0008905Y0006540D02*
X0008850D01*
X0008259Y0005310D02*
X0007650D01*
X0010200Y0007350D02*
Y0007052D01*
X0004451Y0005280D02*
X0003375D01*
X0011038Y0006975D02*
X0010700D01*
X0012781Y0003175D02*
X0012581D01*
X0016500Y0001975D02*
Y0001822D01*
X0012000Y0005892D02*
Y0005849D01*
X0011640Y0002980D02*
Y0002827D01*
X0003900Y0005375D02*
Y0003570D01*
X0016680Y0001140D02*
X0015627D01*
X0016556Y0001320D02*
X0015627D01*
Y0002795D02*
Y0002195D01*
X0012450Y0006390D02*
Y0005851D01*
X0016860Y0000997D02*
Y0000910D01*
X0015627Y0001805D02*
Y0000910D01*
X0014010Y0006720D02*
X0013650D01*
X0017940Y0005900D02*
Y0002400D01*
X0015627Y0000905D02*
X0015356D01*
X0013650Y0006750D02*
Y0006390D01*
X0007390Y0006030D02*
Y0005175D01*
X0012450Y0006490D02*
X0012392D01*
X0013800Y0007350D02*
Y0006412D01*
X0014010Y0006900D02*
X0013650D01*
X0014010Y0007350D02*
X0013650D01*
X0012450Y0006180D02*
X0012296D01*
X0012450Y0006360D02*
X0012370D01*
X0012450Y0006000D02*
X0012152D01*
X0008246Y0005280D02*
X0007390D01*
X0007500Y0006030D02*
Y0005175D01*
X0009120Y0004542D02*
Y0004381D01*
X0008850Y0006510D02*
Y0006480D01*
X0010380Y0004577D02*
Y0004075D01*
X0004659Y0004795D02*
X0004257D01*
X0011280Y0002980D02*
Y0002826D01*
X0009300Y0004648D02*
Y0004201D01*
X0009840Y0004573D02*
Y0004075D01*
X0010698Y0003953D02*
X0010824Y0003830D01*
X0010200Y0004586D02*
Y0004075D01*
X0012773Y0003120D02*
X0012518D01*
X0004257Y0004200D02*
X0003327D01*
X0004257Y0003840D02*
X0003366D01*
X0007650Y0006000D02*
X0007390D01*
X0007650Y0006180D02*
X0007620D01*
X0007650Y0006360D02*
X0007620D01*
X0007650Y0007260D02*
X0007620D01*
X0007650Y0006540D02*
X0007620D01*
X0007650Y0006720D02*
X0007620D01*
X0007650Y0006900D02*
X0007620D01*
X0007650Y0007080D02*
X0007620D01*
X0018190Y0003120D02*
X0017164D01*
X0010740Y0007350D02*
Y0006975D01*
X0009480Y0007350D02*
Y0007275D01*
X0010740Y0005989D02*
Y0005853D01*
X0009424Y0007260D02*
X0008850D01*
X0009126Y0007080D02*
X0008850D01*
X0014010Y0007260D02*
X0013650D01*
Y0007350D02*
Y0006750D01*
X0010380Y0007350D02*
Y0006831D01*
X0013980Y0007350D02*
Y0006570D01*
X0012581Y0003175D02*
X0012480Y0003086D01*
X0004440Y0005375D02*
Y0004795D01*
X0003540Y0005375D02*
Y0003570D01*
X0011743Y0007350D02*
X0007620D01*
X0012180Y0006026D02*
Y0005854D01*
X0011021Y0003830D02*
X0010824D01*
X0012000Y0002980D02*
Y0002817D01*
X0015627Y0002195D02*
Y0001805D01*
X0010740Y0004580D02*
Y0003912D01*
X0001070Y0007800D02*
Y0000460D01*
X0018640D01*
Y0007800D01*
X0001080D01*
G01X0011462Y0010910D02*
G03X0011334Y0010930I0000128J0000405D01*
G01X0014010Y0014686D02*
G03X0013884Y0014596I0000210J0000426D01*
G01X0008212Y0013270D02*
G03X0008150Y0013275I0000062J0000420D01*
G01X0018190Y0010453D02*
G03X0017930Y0010500I0000260J0000703D01*
G01X0015627Y0010895D02*
G03X0015840Y0010965I0000077J0000595D01*
G01X0016480Y0009750D02*
G03X0017108Y0009010I0000750J0000000D01*
G01X0017355Y0010750D02*
G03X0017133Y0011250I0000675J0000000D01*
G01X0015805Y0010750D02*
G03X0016480Y0010075I0000675J0000000D01*
G01X0017307Y0010500D02*
G03X0017355Y0010750I0000627J0000250D01*
Y0011750D02*
G03X0017133Y0012250I0000675J0000000D01*
Y0011250D02*
G03X0017355Y0011750I0000453J0000500D01*
Y0012750D02*
G03X0017271Y0013075I0000675J0000000D01*
G01X0017133Y0012250D02*
G03X0017355Y0012750I0000453J0000500D01*
G01X0004450Y0013350D02*
G03X0004659Y0012895I0000600J0000000D01*
G01X0008259Y0013410D02*
G03X0008212Y0013270I0000541J0000260D01*
G01X0011919Y0013955D02*
G03X0012392Y0014590I0000269J0000695D01*
G01X0009650Y0015395D02*
G03X0008905Y0014650I0000000J0000745D01*
G01X0010700Y0015075D02*
G03X0010399Y0014950I0000000J0000425D01*
G01X0009267Y0012773D02*
G03X0009543Y0012671I0000276J0000323D01*
G01X0010438Y0012691D02*
G03X0010567Y0012671I0000129J0000405D01*
G01X0011038Y0014225D02*
G03X0011368Y0013960I0000612J0000425D01*
G01X0010694Y0012691D02*
G03X0010823Y0012671I0000129J0000405D01*
G01X0009927Y0012691D02*
G03X0010055Y0012671I0000128J0000405D01*
G01X0010694Y0013942D02*
G03X0010610Y0013959I0000127J0000405D01*
G01X0010823Y0013962D02*
G03X0010695Y0013942I0000000J0000425D01*
G01X0011650Y0015395D02*
G03X0011038Y0015075I0000000J0000745D01*
G01X0011079Y0013962D02*
G03X0010951Y0013942I0000000J0000425D01*
G01X0010950Y0012691D02*
G03X0011079Y0012671I0000129J0000405D01*
G01X0011334Y0013962D02*
G03X0011206Y0013942I0000000J0000425D01*
G03X0011079Y0013961I0000127J0000405D01*
G01X0012230Y0013942D02*
G03X0012102Y0013962I0000128J0000405D01*
G03X0011974Y0013942I0000000J0000425D01*
G01X0011368Y0013960D02*
G03X0011334Y0013961I0000034J0000423D01*
G01X0012358Y0013962D02*
G03X0012230Y0013942I0000000J0000425D01*
G01X0012742Y0010910D02*
G03X0012614Y0010930I0000128J0000405D01*
G01X0011590D02*
G03X0011462Y0010910I0000000J0000425D01*
G01X0012614Y0010930D02*
G03X0012486Y0010910I0000000J0000425D01*
G01X0012358Y0010930D02*
G03X0012230Y0010910I0000000J0000425D01*
G01X0011846Y0010930D02*
G03X0011718Y0010910I0000000J0000425D01*
G01X0012102Y0010930D02*
G03X0011974Y0010910I0000000J0000425D01*
G01X0011079Y0010930D02*
G03X0010991Y0010921I0000000J0000425D01*
G01X0011718Y0010910D02*
G03X0011590Y0010930I0000128J0000405D01*
G01X0011334D02*
G03X0011206Y0010910I0000000J0000425D01*
G01X0010311Y0012672D02*
G03X0010439Y0012691I0000000J0000424D01*
G01X0010567Y0012672D02*
G03X0010695Y0012691I0000000J0000424D01*
G01X0015627Y0010895D02*
G03X0015840Y0010965I0000077J0000595D01*
G01X0011165Y0012543D02*
G03X0010990Y0012120I0000425J0000423D01*
G01X0009012Y0012589D02*
G03X0009267Y0012773I0000212J0000561D01*
G01X0010950Y0013942D02*
G03X0010823Y0013961I0000127J0000405D01*
G01X0011079Y0012672D02*
G03X0011165Y0012680I0000000J0000424D01*
Y0012543D02*
G03X0010990Y0012120I0000425J0000423D01*
G01X0014010Y0014686D02*
G03X0013884Y0014596I0000210J0000426D01*
G01X0012486Y0010910D02*
G03X0012358Y0010930I0000128J0000405D01*
G01X0012198Y0011080D02*
G03X0012478Y0011184I0000000J0000425D01*
G01X0016554Y0010075D02*
G03X0016480Y0009750I0000676J0000325D01*
G01X0011687Y0015394D02*
G03X0011650Y0015395I0000037J0000744D01*
G01X0010990Y0012120D02*
G03X0011021Y0011930I0000600J0000000D01*
G01X0010698Y0012053D02*
G03X0010400Y0012175I0000298J0000303D01*
G01X0012817Y0010927D02*
G03X0012742Y0010910I0000053J0000422D01*
G01X0012781Y0011275D02*
G03X0012770Y0011160I0000589J0000115D01*
G01X0004463Y0013475D02*
G03X0004450Y0013350I0000587J0000125D01*
G01X0003258Y0011670D02*
G03X0003375Y0012050I0000558J0000380D01*
G01X0010991Y0010921D02*
G03X0010953Y0011080I0000424J0000018D01*
G01X0003375Y0012050D02*
G03X0003291Y0012375I0000675J0000000D01*
G01X0009799Y0012672D02*
G03X0009927Y0012691I0000000J0000424D01*
G01X0010700Y0015075D02*
G03X0010399Y0014950I0000000J0000425D01*
G01X0011974Y0013942D02*
G03X0011919Y0013955I0000128J0000405D01*
G01X0010351Y0014902D02*
G03X0009650Y0015395I0000701J0000252D01*
G01X0008905Y0014650D02*
G03X0008906Y0014613I0000745J0000000D01*
G01X0011974Y0010910D02*
G03X0011846Y0010930I0000128J0000405D01*
G01X0012770Y0011160D02*
G03X0012817Y0010927I0000600J0000000D01*
G01X0012230Y0010910D02*
G03X0012102Y0010930I0000128J0000405D01*
G01X0017930Y0014000D02*
G03X0018190Y0014046I0000000J0000750D01*
G01X0011206Y0010910D02*
G03X0011079Y0010929I0000127J0000405D01*
G01X0015840Y0010965D02*
G03X0015805Y0010750I0000640J0000215D01*
G01X0010823Y0012672D02*
G03X0010951Y0012691I0000000J0000424D01*
G01X0012450Y0013951D02*
G03X0012358Y0013961I0000092J0000414D01*
G01X0010182Y0012691D02*
G03X0010311Y0012671I0000129J0000405D01*
G01X0010991Y0010921D02*
G03X0010953Y0011080I0000424J0000018D01*
G01X0009543Y0012672D02*
G03X0009671Y0012691I0000000J0000424D01*
G03X0009799Y0012671I0000128J0000405D01*
G01X0010055Y0012672D02*
G03X0010183Y0012691I0000000J0000424D01*
G01X0010990Y0012120D02*
G03X0011021Y0011930I0000600J0000000D01*
G01X0011462Y0002810D02*
G03X0011334Y0002830I0000128J0000405D01*
G01X0014010Y0006586D02*
G03X0013884Y0006496I0000210J0000426D01*
G01X0008212Y0005170D02*
G03X0008150Y0005175I0000062J0000420D01*
G01X0018190Y0002353D02*
G03X0017930Y0002400I0000260J0000703D01*
G01X0015627Y0002795D02*
G03X0015840Y0002865I0000077J0000595D01*
G01X0016480Y0001650D02*
G03X0017108Y0000910I0000750J0000000D01*
G01X0017355Y0002650D02*
G03X0017133Y0003150I0000675J0000000D01*
G01X0015805Y0002650D02*
G03X0016480Y0001975I0000675J0000000D01*
G01X0017307Y0002400D02*
G03X0017355Y0002650I0000627J0000250D01*
Y0003650D02*
G03X0017133Y0004150I0000675J0000000D01*
Y0003150D02*
G03X0017355Y0003650I0000453J0000500D01*
Y0004650D02*
G03X0017271Y0004975I0000675J0000000D01*
G01X0017133Y0004150D02*
G03X0017355Y0004650I0000453J0000500D01*
G01X0010694Y0005842D02*
G03X0010610Y0005859I0000127J0000405D01*
G01X0011687Y0007294D02*
G03X0011650Y0007295I0000037J0000744D01*
G01X0004450Y0005250D02*
G03X0004659Y0004795I0000600J0000000D01*
G01X0011919Y0005855D02*
G03X0012392Y0006490I0000269J0000695D01*
G01X0009650Y0007295D02*
G03X0008905Y0006550I0000000J0000745D01*
G01X0009671Y0004591D02*
G03X0009799Y0004571I0000128J0000405D01*
G01X0010700Y0006975D02*
G03X0010399Y0006850I0000000J0000425D01*
G01X0011038Y0006125D02*
G03X0011368Y0005860I0000612J0000425D01*
G01X0010438Y0004591D02*
G03X0010567Y0004571I0000129J0000405D01*
G01X0009927Y0004591D02*
G03X0010055Y0004571I0000128J0000405D01*
G01X0010694Y0004591D02*
G03X0010823Y0004571I0000129J0000405D01*
G01X0010950Y0004591D02*
G03X0011079Y0004571I0000129J0000405D01*
G01X0010823Y0005862D02*
G03X0010695Y0005842I0000000J0000425D01*
G01X0011079Y0005862D02*
G03X0010951Y0005842I0000000J0000425D01*
G01X0011334Y0005862D02*
G03X0011206Y0005842I0000000J0000425D01*
G03X0011079Y0005861I0000127J0000405D01*
G01X0011368Y0005860D02*
G03X0011334Y0005861I0000034J0000423D01*
G01X0012230Y0005842D02*
G03X0012102Y0005862I0000128J0000405D01*
G03X0011974Y0005842I0000000J0000425D01*
G01X0012358Y0005862D02*
G03X0012230Y0005842I0000000J0000425D01*
G01X0011650Y0007295D02*
G03X0011038Y0006975I0000000J0000745D01*
G01X0012770Y0003060D02*
G03X0012817Y0002827I0000600J0000000D01*
G01X0011590Y0002830D02*
G03X0011462Y0002810I0000000J0000425D01*
G01X0012614Y0002830D02*
G03X0012486Y0002810I0000000J0000425D01*
G01X0012358Y0002830D02*
G03X0012230Y0002810I0000000J0000425D01*
G01X0011846Y0002830D02*
G03X0011718Y0002810I0000000J0000425D01*
G01X0012486D02*
G03X0012358Y0002830I0000128J0000405D01*
G01X0012102D02*
G03X0011974Y0002810I0000000J0000425D01*
G01X0011079Y0002830D02*
G03X0010991Y0002821I0000000J0000425D01*
G01X0011718Y0002810D02*
G03X0011590Y0002830I0000128J0000405D01*
G01X0011334D02*
G03X0011206Y0002810I0000000J0000425D01*
G01X0010311Y0004572D02*
G03X0010439Y0004591I0000000J0000424D01*
G01X0010950Y0005842D02*
G03X0010823Y0005861I0000127J0000405D01*
G01X0011079Y0004572D02*
G03X0011165Y0004580I0000000J0000424D01*
G01X0014010Y0006586D02*
G03X0013884Y0006496I0000210J0000426D01*
G01X0014010Y0006586D02*
G03X0013884Y0006496I0000210J0000426D01*
G01X0003375Y0003950D02*
G03X0003291Y0004275I0000675J0000000D01*
G01X0014010Y0006586D02*
G03X0013884Y0006496I0000210J0000426D01*
G01X0011206Y0002810D02*
G03X0011079Y0002829I0000127J0000405D01*
G01X0017930Y0005900D02*
G03X0018190Y0005946I0000000J0000750D01*
G01X0010823Y0004572D02*
G03X0010951Y0004591I0000000J0000424D01*
G01X0016554Y0001975D02*
G03X0016480Y0001650I0000676J0000325D01*
G01X0010567Y0004572D02*
G03X0010695Y0004591I0000000J0000424D01*
G01X0011974Y0002810D02*
G03X0011846Y0002830I0000128J0000405D01*
G01X0008905Y0006550D02*
G03X0008906Y0006513I0000745J0000000D01*
G01X0010351Y0006802D02*
G03X0009650Y0007295I0000701J0000252D01*
G01X0009012Y0004489D02*
G03X0009267Y0004673I0000212J0000561D01*
G01X0010055Y0004572D02*
G03X0010183Y0004591I0000000J0000424D01*
G01X0010700Y0006975D02*
G03X0010399Y0006850I0000000J0000425D01*
G01X0011974Y0005842D02*
G03X0011919Y0005855I0000128J0000405D01*
G01X0012742Y0002810D02*
G03X0012614Y0002830I0000128J0000405D01*
G01X0012230Y0002810D02*
G03X0012102Y0002830I0000128J0000405D01*
G01X0010990Y0004020D02*
G03X0011021Y0003830I0000600J0000000D01*
G01X0012817Y0002827D02*
G03X0012742Y0002810I0000053J0000422D01*
G01X0011165Y0004443D02*
G03X0010990Y0004020I0000425J0000423D01*
G01X0009267Y0004673D02*
G03X0009543Y0004571I0000276J0000323D01*
G01X0010991Y0002821D02*
G03X0010953Y0002980I0000424J0000018D01*
G01X0010698Y0003953D02*
G03X0010400Y0004075I0000298J0000303D01*
G01X0012781Y0003175D02*
G03X0012770Y0003060I0000589J0000115D01*
G01X0010990Y0004020D02*
G03X0011021Y0003830I0000600J0000000D01*
G01X0003258Y0003570D02*
G03X0003375Y0003950I0000558J0000380D01*
G01X0004463Y0005375D02*
G03X0004450Y0005250I0000587J0000125D01*
G01X0012198Y0002980D02*
G03X0012478Y0003084I0000000J0000425D01*
G01X0015840Y0002865D02*
G03X0015805Y0002650I0000640J0000215D01*
G01X0008259Y0005310D02*
G03X0008212Y0005170I0000541J0000260D01*
G01X0012450Y0005851D02*
G03X0012358Y0005861I0000092J0000414D01*
G01X0010182Y0004591D02*
G03X0010311Y0004571I0000129J0000405D01*
G01X0010991Y0002821D02*
G03X0010953Y0002980I0000424J0000018D01*
G01X0009543Y0004572D02*
G03X0009671Y0004591I0000000J0000424D01*
G01X0009799Y0004572D02*
G03X0009927Y0004591I0000000J0000424D01*
G01X0011165Y0004443D02*
G03X0010990Y0004020I0000425J0000423D01*
G54D51*
G01X0013670Y0043610D02*
X0013937Y0043744D01*
X0013670Y0043388D02*
Y0043655D01*
X0013581Y0043744D01*
X0013492D01*
X0013403Y0043655D01*
Y0043388D01*
X0013937D01*
X0013670Y0043055D02*
Y0042788D01*
X0013937Y0043144D02*
Y0042788D01*
X0013403D01*
Y0043144D01*
X0013937Y0042366D02*
X0013403D01*
Y0042544D02*
Y0042188D01*
X0013670Y0041855D02*
Y0041588D01*
X0013937Y0041944D02*
Y0041588D01*
X0013403D01*
Y0041944D01*
X0013937Y0041344D02*
X0013403D01*
X0013492Y0041255D01*
X0013670Y0041166D01*
X0013492Y0041077D01*
X0013403Y0040988D01*
X0013937D01*
Y0039944D02*
Y0039633D01*
X0013403D01*
X0013670Y0039299D02*
Y0039033D01*
X0013937Y0039388D02*
Y0039033D01*
X0013403D01*
Y0039388D01*
Y0038788D02*
X0013581D01*
X0013937Y0038610D01*
X0013581Y0038433D01*
X0013403D01*
X0013670Y0038099D02*
Y0037833D01*
X0013937Y0038188D02*
Y0037833D01*
X0013403D01*
Y0038188D01*
X0013937Y0037588D02*
Y0037277D01*
X0013403D01*
X0013670Y0036144D02*
Y0035877D01*
X0013937Y0036233D02*
Y0035877D01*
X0013403D01*
Y0036233D01*
X0013492Y0035633D02*
X0013403Y0035588D01*
Y0035322D01*
X0013492Y0035277D01*
X0013581D01*
X0013670Y0035322D01*
Y0035588D01*
X0013759Y0035633D01*
X0013848D01*
X0013937Y0035588D01*
Y0035322D01*
X0013848Y0035277D01*
X0013937Y0035033D02*
Y0034855D01*
Y0034944D02*
X0013403D01*
Y0035033D02*
Y0034855D01*
X0013937Y0034211D02*
X0013848Y0034166D01*
X0013492D01*
X0013403Y0034211D01*
Y0034477D01*
X0013492Y0034522D01*
X0013848D01*
X0013937Y0034477D01*
Y0034211D01*
X0013403Y0033922D02*
X0013937D01*
X0013848Y0033833D01*
X0013492Y0033655D01*
X0013403Y0033566D01*
X0013937D01*
X0012400Y0014250D02*
X0013050D01*
X0009259Y0012690D02*
X0008800Y0013150D01*
X0004590Y0012890D02*
X0005050Y0013350D01*
X0011079Y0014012D02*
Y0013317D01*
Y0012622D02*
Y0013317D01*
X0015755Y0010750D02*
X0016580D01*
X0017405D02*
X0016580D01*
X0003425Y0012050D02*
X0002550D01*
X0004207Y0012250D02*
X0004863D01*
X0007670Y0014850D02*
X0007030D01*
X0007440Y0013550D02*
X0006790D01*
X0013960Y0015120D02*
X0014610D01*
X0007600Y0014850D02*
X0008250D01*
X0029584Y0027294D02*
X0028459D01*
X0027334D02*
X0028459D01*
Y0042219D02*
Y0043294D01*
X0014720Y0023033D02*
X0015459Y0022294D01*
X0016197Y0021555D02*
X0015459Y0022294D01*
X0016197Y0029555D02*
X0015459Y0030294D01*
X0018720Y0027033D02*
X0019459Y0026294D01*
X0020197Y0025555D02*
X0019459Y0026294D01*
X0018720Y0025555D02*
X0019459Y0026294D01*
X0020197Y0027033D02*
X0019459Y0026294D01*
X0010720Y0027033D02*
X0011459Y0026294D01*
X0012197Y0025555D02*
X0011459Y0026294D01*
X0012197Y0027033D02*
X0011459Y0026294D01*
X0007270Y0023983D02*
X0008009Y0023244D01*
X0008747Y0022505D02*
X0008009Y0023244D01*
X0007270Y0022505D02*
X0008009Y0023244D01*
X0008747Y0023983D02*
X0008009Y0023244D01*
X0029584Y0025794D02*
X0028459D01*
X0027334D02*
X0028459D01*
X0029584Y0022294D02*
X0028459D01*
X0022109Y0050444D02*
Y0051394D01*
X0017459Y0078419D02*
Y0077294D01*
Y0076169D02*
Y0077294D01*
X0023709Y0036394D02*
X0021059D01*
X0018409D02*
X0021059D01*
Y0038544D02*
Y0036394D01*
Y0034244D02*
Y0036394D01*
X0018914Y0059335D02*
Y0058235D01*
X0019939D02*
X0018914D01*
X0027484Y0052994D02*
X0028609D01*
X0029734D02*
X0028609D01*
X0010130Y0026622D02*
X0009459Y0027294D01*
X0010130Y0027966D02*
X0009459Y0027294D01*
X0029145Y0032107D02*
X0029959Y0031294D01*
X0030772Y0030481D02*
X0029959Y0031294D01*
X0029145Y0030481D02*
X0029959Y0031294D01*
X0030772Y0032107D02*
X0029959Y0031294D01*
X0020509Y0063239D02*
X0021459D01*
X0022409D02*
X0021459D01*
X0016201Y0060051D02*
X0015459Y0060794D01*
X0014716Y0061536D02*
X0015459Y0060794D01*
X0016201Y0061536D02*
X0015459Y0060794D01*
X0014716Y0060051D02*
X0015459Y0060794D01*
X0012130Y0063911D02*
X0011459Y0063239D01*
X0010787Y0063911D02*
X0011459Y0063239D01*
X0022159Y0050294D02*
X0023109D01*
X0012400Y0006150D02*
X0013050D01*
X0009259Y0004590D02*
X0008800Y0005050D01*
X0004590Y0004790D02*
X0005050Y0005250D01*
X0011079Y0005912D02*
Y0005217D01*
Y0004522D02*
Y0005217D01*
X0015755Y0002650D02*
X0016580D01*
X0017405D02*
X0016580D01*
X0003425Y0003950D02*
X0002550D01*
X0004207Y0004150D02*
X0004863D01*
X0007670Y0006750D02*
X0007030D01*
X0007440Y0005450D02*
X0006790D01*
X0013960Y0007020D02*
X0014610D01*
X0007600Y0006750D02*
X0008250D01*
G54D52*
G01X0011195Y0042840D02*
Y0035042D01*
X0009578Y0043644D02*
X0008175Y0042241D01*
X0004813Y0060885D02*
X0003004D01*
X0015920Y0044475D02*
Y0031994D01*
X0018439Y0043525D02*
Y0039475D01*
X0023489D02*
X0018439D01*
X0018041Y0044012D02*
X0018424Y0043644D01*
X0021509Y0020519D02*
X0021409D01*
X0020645Y0020922D02*
Y0020369D01*
X0021509Y0022369D02*
X0021409D01*
X0020960Y0018519D02*
Y0017469D01*
X0021534Y0020494D02*
Y0020394D01*
X0027503Y0020565D02*
X0023381D01*
X0023384Y0020494D02*
Y0020394D01*
X0020484Y0020369D02*
Y0018519D01*
X0022434D02*
X0020484D01*
X0021534Y0020369D02*
X0020484D01*
X0024425Y0022669D02*
Y0017469D01*
X0029609Y0047144D02*
X0027892D01*
X0005856Y0048285D02*
X0001234D01*
X0029913Y0060885D02*
X0028104D01*
X0031784Y0044505D02*
X0031031D01*
X0030095Y0060703D02*
Y0058815D01*
X0031784Y0056475D02*
X0029605D01*
X0016235Y0071294D02*
Y0070386D01*
X0002690Y0060571D02*
Y0059857D01*
X0017495Y0059869D02*
Y0059107D01*
X0019814Y0058310D02*
Y0058160D01*
X0018384Y0060935D02*
Y0059869D01*
X0016059Y0070335D02*
X0012454D01*
X0020184Y0057719D02*
X0019698D01*
X0020666Y0063469D02*
X0015789D01*
X0015605Y0059880D02*
Y0059155D01*
X0031784Y0033480D02*
X0017898D01*
X0015290Y0059884D02*
Y0059128D01*
X0014250Y0018360D02*
X0013014D01*
X0016550Y0059869D02*
Y0059133D01*
X0014030Y0061669D02*
Y0059203D01*
X0031040Y0059758D02*
Y0059524D01*
X0013715Y0061669D02*
Y0059188D01*
X0014660Y0060327D02*
Y0059174D01*
X0013085Y0070966D02*
Y0062919D01*
X0016235Y0060291D02*
Y0059151D01*
X0015103Y0059940D02*
X0009988D01*
X0010250Y0068131D02*
Y0061969D01*
X0030725Y0057038D02*
Y0047093D01*
X0011510Y0061461D02*
Y0059114D01*
X0014561Y0060570D02*
X0010618D01*
X0011825Y0061469D02*
Y0059206D01*
X0017180Y0059869D02*
Y0059170D01*
X0016534Y0061669D02*
Y0059869D01*
X0013085Y0061669D02*
Y0059194D01*
X0004895Y0060832D02*
Y0060469D01*
X0028835Y0061963D02*
Y0057240D01*
X0018888Y0071910D02*
X0017309D01*
X0010250Y0060201D02*
Y0059145D01*
X0007415Y0059219D02*
Y0059059D01*
X0008360Y0059219D02*
Y0059092D01*
X0007100Y0059219D02*
Y0059191D01*
X0005840Y0059219D02*
Y0059207D01*
X0006155Y0029559D02*
Y0029165D01*
X0002690Y0057080D02*
Y0046765D01*
X0005525Y0059219D02*
Y0059122D01*
X0006785Y0059219D02*
Y0059201D01*
X0004294Y0022669D02*
Y0019719D01*
X0006744D02*
X0004294D01*
X0006744Y0022669D02*
Y0019719D01*
Y0022669D02*
X0004294D01*
Y0032509D02*
Y0029559D01*
X0031784Y0033165D02*
X0017592D01*
X0006225D02*
X0005388D01*
X0004084Y0025605D02*
X0001234D01*
X0005674Y0029070D02*
X0001234D01*
X0005840Y0029559D02*
Y0029136D01*
X0004129Y0025290D02*
X0001234D01*
X0014030Y0032991D02*
Y0031981D01*
X0004895Y0032997D02*
Y0032509D01*
X0004090Y0026550D02*
X0001234D01*
X0004102Y0024660D02*
X0001234D01*
X0013400Y0020616D02*
Y0017469D01*
X0004265Y0026125D02*
Y0026102D01*
X0006155Y0019719D02*
Y0017469D01*
Y0023059D02*
Y0022669D01*
X0004265Y0025035D02*
Y0025012D01*
X0004294Y0030645D02*
X0001234D01*
X0008990Y0043056D02*
Y0030516D01*
X0010392Y0034740D02*
X0008175D01*
X0022205Y0024975D02*
X0012059D01*
X0004895Y0042889D02*
Y0035042D01*
X0012828Y0037890D02*
X0008175D01*
X0011510Y0022506D02*
Y0019885D01*
X0004895Y0029559D02*
Y0028622D01*
X0012828Y0040725D02*
X0008175D01*
X0004168Y0028125D02*
X0001234D01*
X0004422Y0028440D02*
X0001234D01*
X0006225Y0042930D02*
X0005642D01*
X0006954Y0023059D02*
X0005204D01*
X0006155Y0060923D02*
Y0060469D01*
X0009544Y0022455D02*
X0008482D01*
X0010904Y0052065D02*
X0009513D01*
X0010871Y0051125D02*
X0010750D01*
X0003005Y0035908D02*
Y0018679D01*
X0009935Y0054644D02*
Y0050554D01*
X0010180Y0034425D02*
X0008175D01*
X0012828Y0040095D02*
X0008175D01*
X0012828Y0035370D02*
X0008175D01*
X0008809Y0046669D02*
X0008609D01*
X0009620Y0049344D02*
Y0048643D01*
X0009825Y0048915D02*
X0009518D01*
X0006735Y0046498D02*
X0007009Y0046225D01*
X0007798Y0047340D02*
X0007506D01*
X0006785Y0046503D02*
Y0046449D01*
X0007827Y0049230D02*
X0007114D01*
X0007810Y0048285D02*
X0007506D01*
X0007899Y0048915D02*
X0007506D01*
X0009896Y0050490D02*
X0009633D01*
X0007534Y0051719D02*
X0007093D01*
X0007785Y0049545D02*
X0007428D01*
X0007869Y0049860D02*
X0007529D01*
X0007824Y0051750D02*
X0007147D01*
X0009620Y0050344D02*
Y0049643D01*
X0007786Y0051435D02*
X0007534D01*
X0007844Y0050805D02*
X0007534D01*
X0009620Y0051344D02*
Y0050643D01*
X0025109Y0052394D02*
Y0052019D01*
X0010924Y0053955D02*
X0009634D01*
X0009620Y0052344D02*
Y0051643D01*
X0005525Y0023059D02*
Y0022669D01*
X0028205Y0060965D02*
Y0057205D01*
X0031784Y0053325D02*
X0029541D01*
X0031784Y0052695D02*
X0029554D01*
X0027810Y0053544D02*
X0027609D01*
X0025109Y0052380D02*
X0025033D01*
X0031784Y0051750D02*
X0029573D01*
X0010008Y0046358D02*
X0010141Y0046225D01*
X0029465Y0050521D02*
Y0050467D01*
Y0051521D02*
Y0051467D01*
X0027467Y0046395D02*
X0025033D01*
X0029609Y0048844D02*
Y0047144D01*
X0031784Y0049860D02*
X0029598D01*
X0026809Y0052394D02*
Y0051563D01*
X0010797Y0053640D02*
X0009620D01*
X0031784Y0053010D02*
X0029608D01*
X0026315Y0053769D02*
Y0052394D01*
X0031784Y0052380D02*
X0029516D01*
X0029465Y0049521D02*
Y0049467D01*
X0012767Y0028541D02*
Y0027911D01*
Y0027810D02*
X0010102D01*
X0026484Y0032319D02*
X0024434D01*
Y0030269D01*
X0026484D02*
X0024434D01*
X0025055Y0026644D02*
Y0025419D01*
X0026484Y0032319D02*
Y0032202D01*
X0004294Y0032220D02*
X0001234D01*
X0029780Y0042405D02*
Y0032303D01*
X0026484Y0030386D02*
Y0030269D01*
X0025370Y0043469D02*
Y0032319D01*
X0028205Y0030301D02*
Y0030144D01*
X0028110Y0030330D02*
X0027307D01*
X0026610D02*
X0026484D01*
X0029953Y0045765D02*
X0028823D01*
X0028835Y0042429D02*
Y0032247D01*
X0010801Y0053325D02*
X0009616D01*
X0003117Y0060286D02*
X0002718Y0059888D01*
X0016235Y0033370D02*
Y0031994D01*
X0009279Y0029144D02*
Y0029072D01*
X0031784Y0031905D02*
X0030781D01*
X0018139Y0032016D02*
Y0031994D01*
X0013485Y0031590D02*
X0008175D01*
X0021779Y0061469D02*
Y0061394D01*
X0024339Y0063469D02*
X0022251D01*
X0020645D02*
Y0063375D01*
X0031784Y0021825D02*
X0029459D01*
X0030858Y0059940D02*
X0022909D01*
X0022284Y0063119D02*
Y0061469D01*
X0014975Y0063502D02*
Y0062919D01*
X0013400Y0061669D02*
Y0059068D01*
X0014660Y0061669D02*
Y0061260D01*
X0018755Y0063469D02*
Y0062331D01*
X0018384Y0059869D02*
X0016534D01*
X0014879Y0061515D02*
X0012284D01*
X0004929Y0062775D02*
X0004894D01*
X0005820Y0055746D02*
X0005811D01*
Y0054585D02*
X0001234D01*
X0005811Y0055746D02*
Y0054096D01*
X0023165Y0048469D02*
Y0045219D01*
X0015834Y0023336D02*
Y0023169D01*
X0022284Y0050119D02*
Y0048469D01*
X0005884Y0054096D02*
Y0052569D01*
X0023206Y0054585D02*
X0022909D01*
X0008352Y0046710D02*
X0007235D01*
X0005856Y0049092D02*
Y0047442D01*
X0007506Y0049092D02*
Y0047442D01*
Y0049092D02*
X0005856D01*
X0021905Y0045951D02*
Y0045836D01*
X0005884Y0051120D02*
X0001234D01*
X0005884Y0051719D02*
Y0050069D01*
Y0050175D02*
X0001234D01*
X0007534Y0051719D02*
Y0050069D01*
X0005884Y0052695D02*
X0001234D01*
X0006155Y0051837D02*
Y0051719D01*
X0005892Y0050069D02*
X0005884D01*
X0008045Y0046891D02*
Y0046225D01*
X0005884Y0053010D02*
X0001234D01*
X0007808Y0052695D02*
X0007534D01*
X0007791Y0052380D02*
X0007531D01*
X0014511Y0044319D02*
Y0032991D01*
Y0044319D02*
X0012828D01*
Y0032991D01*
X0014511D02*
X0012828D01*
X0003320Y0036218D02*
Y0017469D01*
X0012767Y0027911D02*
Y0026890D01*
X0017784Y0076005D02*
X0015134D01*
X0001466Y0041355D02*
X0001234D01*
X0031784Y0019935D02*
X0029379D01*
X0031355Y0043028D02*
Y0019336D01*
X0004294Y0031905D02*
X0001234D01*
X0030095Y0030278D02*
Y0018999D01*
X0029911Y0018675D02*
X0022434D01*
X0031784Y0022455D02*
X0029459D01*
X0031784Y0022140D02*
X0029459D01*
X0029465Y0042344D02*
Y0032192D01*
X0028205Y0019450D02*
Y0017469D01*
X0012770Y0027850D02*
Y0026894D01*
X0025370Y0022599D02*
Y0017469D01*
X0009305Y0026483D02*
Y0026325D01*
X0022850Y0019556D02*
Y0017469D01*
X0027890Y0019554D02*
Y0017469D01*
X0027089Y0020880D02*
X0023299D01*
X0026630Y0021339D02*
Y0017469D01*
X0025685Y0043469D02*
Y0032319D01*
X0024740Y0043469D02*
Y0032319D01*
X0022302Y0050119D02*
X0022284D01*
X0024740Y0026644D02*
Y0025419D01*
X0022284Y0049230D02*
X0022017D01*
X0027575Y0060685D02*
Y0057019D01*
X0023480Y0022519D02*
Y0017469D01*
X0022220Y0018519D02*
Y0017469D01*
X0021905Y0025484D02*
Y0024644D01*
X0031784Y0031590D02*
X0030940D01*
X0018534Y0043560D02*
X0018007D01*
X0021275Y0025394D02*
Y0024644D01*
X0025389Y0027944D02*
X0023779D01*
X0022220Y0023344D02*
Y0022035D01*
X0009279Y0030516D02*
Y0030444D01*
X0020015Y0034443D02*
Y0031382D01*
X0010925Y0023091D02*
X0014516Y0019500D01*
X0015920Y0071294D02*
Y0070270D01*
X0017810Y0017551D02*
Y0017469D01*
X0004790Y0042930D02*
X0001234D01*
X0018849Y0025605D02*
X0017335D01*
X0013715Y0071596D02*
Y0062919D01*
X0014345Y0072226D02*
Y0062919D01*
X0006275Y0043245D02*
X0006034D01*
X0019203Y0071595D02*
X0017309D01*
X0008675Y0022609D02*
Y0019910D01*
X0004895Y0023606D02*
Y0022669D01*
X0005884Y0050490D02*
X0001234D01*
X0005886Y0052380D02*
X0001234D01*
X0006470Y0049159D02*
Y0049092D01*
X0006324Y0051719D02*
X0005884D01*
X0006303Y0049230D02*
X0001234D01*
X0023278Y0053010D02*
X0022934D01*
X0013136Y0020880D02*
X0006744D01*
X0006785Y0023059D02*
Y0017469D01*
X0004157Y0025920D02*
X0001234D01*
X0007930Y0047025D02*
X0007451D01*
X0004294Y0030015D02*
X0001234D01*
X0005525Y0029559D02*
Y0028971D01*
X0004580Y0043059D02*
Y0035015D01*
X0004294Y0021825D02*
X0001234D01*
X0016309Y0078294D02*
Y0078280D01*
X0003950Y0045926D02*
Y0034558D01*
X0016309Y0076307D02*
Y0076294D01*
X0004379Y0061515D02*
X0003634D01*
X0017784Y0078619D02*
X0015134D01*
X0017180Y0068444D02*
Y0067419D01*
X0012770Y0061669D02*
Y0059199D01*
X0020139Y0061516D02*
Y0060948D01*
X0021590Y0069208D02*
Y0067419D01*
X0014641Y0064035D02*
X0011677D01*
X0016865Y0068256D02*
Y0067419D01*
X0020015Y0063469D02*
Y0061071D01*
X0018440Y0072358D02*
Y0067419D01*
X0016235Y0061669D02*
Y0061297D01*
X0019694Y0059625D02*
X0009673D01*
X0012455Y0061669D02*
Y0059084D01*
X0003086Y0060255D02*
X0002374D01*
X0012140Y0061469D02*
Y0059181D01*
X0020642Y0063119D02*
X0020634D01*
X0018755Y0060564D02*
Y0059196D01*
X0002560Y0059625D02*
X0001744D01*
X0019090Y0024345D02*
X0017003D01*
X0004265Y0056269D02*
Y0047441D01*
X0008851Y0060570D02*
X0002689D01*
X0004895Y0056269D02*
Y0047319D01*
X0005811Y0055845D02*
X0001234D01*
X0005811Y0055530D02*
X0001234D01*
X0005811Y0054900D02*
X0001234D01*
X0007668Y0053010D02*
X0007534D01*
X0005811Y0054270D02*
X0001234D01*
X0005884Y0053955D02*
X0001234D01*
X0005884Y0053325D02*
X0001234D01*
X0007873Y0051120D02*
X0007534D01*
X0007784Y0050490D02*
X0007534D01*
X0006270Y0051750D02*
X0001234D01*
X0005884Y0051435D02*
X0001234D01*
X0005210Y0023059D02*
Y0022669D01*
X0005884Y0050805D02*
X0001234D01*
X0005888Y0049860D02*
X0001234D01*
X0007790Y0048600D02*
X0007506D01*
X0004400Y0062145D02*
X0004264D01*
X0003005Y0045690D02*
Y0041975D01*
X0006155Y0044475D02*
Y0044274D01*
X0003294Y0056475D02*
X0001234D01*
X0005840Y0056269D02*
Y0056083D01*
X0006155Y0043450D02*
Y0032509D01*
X0005884Y0054096D02*
X0005811D01*
X0001604Y0041670D02*
X0001234D01*
X0004265Y0043481D02*
Y0034880D01*
X0001437Y0041040D02*
X0001234D01*
X0004245Y0044190D02*
X0001234D01*
X0004294Y0030330D02*
X0001234D01*
X0004237Y0043560D02*
X0001234D01*
X0002060Y0035832D02*
Y0019404D01*
X0004851Y0044820D02*
X0002463D01*
X0003950Y0033481D02*
Y0017469D01*
X0004418Y0044505D02*
X0001234D01*
X0001932Y0041985D02*
X0001234D01*
X0010788Y0063720D02*
X0005839D01*
X0009284Y0026469D02*
X0008365D01*
X0001557Y0037260D02*
X0001234D01*
X0003005Y0040238D02*
Y0037644D01*
X0001446Y0036630D02*
X0001234D01*
X0002295Y0040095D02*
X0001234D01*
X0006225Y0039465D02*
X0001234D01*
X0006225Y0039150D02*
X0001234D01*
X0018755Y0039475D02*
Y0037314D01*
X0006225Y0042300D02*
X0001234D01*
X0003320Y0040548D02*
Y0037334D01*
X0001708Y0040410D02*
X0001234D01*
X0006225Y0038520D02*
X0001234D01*
X0020086Y0034425D02*
X0017969D01*
X0006225Y0037890D02*
X0001234D01*
X0006225Y0040095D02*
X0002625D01*
X0005204Y0023639D02*
Y0023059D01*
X0006225Y0035685D02*
X0001234D01*
X0004265Y0023945D02*
Y0017469D01*
X0006225Y0035055D02*
X0001234D01*
X0004093Y0034740D02*
X0001234D01*
X0006225Y0039780D02*
X0001234D01*
X0006225Y0029559D02*
X0004294D01*
X0026315Y0021654D02*
Y0017469D01*
X0004086Y0027810D02*
X0001234D01*
X0006225Y0032509D02*
X0004294D01*
X0004580Y0029559D02*
Y0028538D01*
X0006225Y0032535D02*
X0001234D01*
X0004294Y0031275D02*
X0001234D01*
X0004294Y0030960D02*
X0001234D01*
X0004580Y0033024D02*
Y0032509D01*
X0006225Y0032850D02*
X0001234D01*
X0031784Y0033795D02*
X0018027D01*
X0025055Y0030269D02*
Y0027944D01*
X0012828Y0035685D02*
X0008175D01*
X0006225Y0029385D02*
X0001234D01*
X0015667Y0066240D02*
X0008359D01*
X0012828Y0037575D02*
X0008175D01*
X0006225Y0033795D02*
X0005822D01*
X0004121Y0027495D02*
X0001234D01*
X0006470Y0019719D02*
Y0017469D01*
X0004294Y0020250D02*
X0001234D01*
X0004580Y0019719D02*
Y0017469D01*
X0004238Y0024975D02*
X0001234D01*
X0004094Y0024345D02*
X0001234D01*
X0009702Y0024975D02*
X0007399D01*
X0005840Y0019719D02*
Y0017469D01*
X0007415Y0017852D02*
Y0017469D01*
X0005210Y0019719D02*
Y0017469D01*
X0007220Y0022770D02*
X0001234D01*
X0004294Y0022455D02*
X0001234D01*
X0004294Y0022140D02*
X0001234D01*
X0001430Y0044611D02*
Y0019276D01*
X0004580Y0023690D02*
Y0022669D01*
X0001488Y0019305D02*
X0001234D01*
X0014345Y0019671D02*
Y0019500D01*
X0007344Y0019305D02*
X0002429D01*
X0030488D02*
X0022434D01*
X0002375Y0060256D02*
Y0059375D01*
X0003950Y0061831D02*
Y0060469D01*
X0002060Y0059941D02*
Y0059502D01*
X0008990Y0059219D02*
Y0059207D01*
Y0066871D02*
Y0060709D01*
X0005210Y0059219D02*
Y0059160D01*
X0006470Y0059219D02*
Y0059093D01*
X0006785Y0064666D02*
Y0060469D01*
X0010426Y0062145D02*
X0006517D01*
X0020015Y0059352D02*
Y0057719D01*
X0010634Y0062775D02*
X0005988D01*
X0005210Y0060707D02*
Y0060469D01*
X0006526Y0043560D02*
X0006196D01*
X0005856Y0047340D02*
X0004487D01*
X0003586Y0046080D02*
X0003008D01*
X0003344Y0046395D02*
X0002921D01*
X0010880Y0060831D02*
Y0059210D01*
X0010634Y0063119D02*
Y0062353D01*
X0007415Y0046944D02*
Y0046225D01*
X0002669Y0057105D02*
X0002404D01*
X0007935Y0047970D02*
X0007506D01*
X0009620Y0059571D02*
Y0059161D01*
X0008675Y0066556D02*
Y0060469D01*
X0007100Y0046610D02*
Y0046225D01*
X0014627Y0061200D02*
X0011248D01*
X0027575Y0026865D02*
X0026149D01*
X0023202Y0045219D02*
X0022015D01*
X0023184Y0046395D02*
X0022033D01*
X0030828Y0042930D02*
X0030284D01*
X0031670Y0044648D02*
Y0044001D01*
X0030410Y0043146D02*
Y0032214D01*
X0031000Y0044536D02*
X0031076Y0044460D01*
X0023271Y0047025D02*
X0021946D01*
X0030725Y0030613D02*
Y0019384D01*
X0027761Y0026644D02*
X0027459D01*
X0018439Y0041040D02*
X0014511D01*
X0003801Y0034110D02*
X0001234D01*
X0031784Y0042615D02*
X0030092D01*
X0031670Y0043386D02*
Y0019152D01*
X0004191Y0043875D02*
X0001234D01*
X0017180Y0042849D02*
Y0035033D01*
X0010142Y0043560D02*
X0009494D01*
X0004551Y0045135D02*
X0002779D01*
X0006155Y0059219D02*
Y0059177D01*
X0006225Y0034110D02*
X0005843D01*
X0012828Y0043560D02*
X0012101D01*
X0009305Y0067186D02*
Y0061024D01*
X0004895Y0044997D02*
Y0044835D01*
X0003635Y0056281D02*
Y0047343D01*
X0023443Y0058995D02*
X0022909D01*
Y0060394D02*
Y0053219D01*
X0031784Y0054900D02*
X0029609D01*
X0023259Y0058050D02*
X0022909D01*
X0031784Y0034740D02*
X0022727D01*
X0006842Y0043875D02*
X0006241D01*
X0016550Y0030644D02*
Y0030359D01*
X0012770Y0044475D02*
Y0030874D01*
X0018439Y0040725D02*
X0014511D01*
X0013830Y0031905D02*
X0008175D01*
X0014516Y0019500D02*
X0014250D01*
X0013400Y0032991D02*
Y0031504D01*
X0012549Y0026235D02*
X0012377D01*
X0012858Y0025605D02*
X0012068D01*
X0015373Y0026550D02*
X0014351D01*
X0010450Y0026325D02*
X0008509D01*
X0013695Y0031800D02*
X0012339Y0030444D01*
X0022038Y0068760D02*
X0017437D01*
X0025818Y0064980D02*
X0025583D01*
X0015920Y0066075D02*
Y0064726D01*
X0008365Y0026469D02*
X0008509Y0026325D01*
X0014989Y0023085D02*
X0013949D01*
X0009229Y0022770D02*
X0008797D01*
X0015290Y0017500D02*
Y0017469D01*
X0009015Y0019935D02*
X0008576D01*
X0008360Y0022394D02*
Y0019956D01*
X0009305Y0025075D02*
Y0023826D01*
X0010786Y0051435D02*
X0009631D01*
X0022284Y0049545D02*
X0022020D01*
X0029609Y0055244D02*
X0029595D01*
X0031784Y0035685D02*
X0028083D01*
X0022535Y0068263D02*
Y0067419D01*
X0022284Y0049860D02*
X0021889D01*
X0022292Y0050175D02*
X0022004D01*
X0023088Y0067500D02*
X0016528D01*
X0019070Y0071728D02*
Y0067419D01*
X0017810Y0063469D02*
Y0062919D01*
X0015605Y0068577D02*
Y0067280D01*
X0016865Y0065175D02*
Y0064719D01*
X0015480Y0068760D02*
X0010879D01*
X0019700Y0071098D02*
Y0067419D01*
X0027078Y0063720D02*
X0025563D01*
X0026448Y0064350D02*
X0025571D01*
X0023165Y0067633D02*
Y0067513D01*
X0023348Y0054900D02*
X0022909D01*
X0004515Y0061200D02*
X0003319D01*
X0011825Y0025450D02*
Y0025209D01*
X0012455Y0028541D02*
Y0024579D01*
X0015605Y0063394D02*
Y0062919D01*
X0025685Y0053769D02*
Y0052394D01*
X0008675Y0026469D02*
Y0026325D01*
X0020960Y0027219D02*
Y0027061D01*
X0027459Y0026550D02*
X0023881D01*
X0023480Y0025706D02*
Y0025419D01*
X0013451Y0020565D02*
X0006744D01*
X0022850Y0025706D02*
Y0025561D01*
X0018950Y0018650D02*
Y0018350D01*
X0014250Y0019500D02*
Y0017500D01*
X0015950D02*
X0014250D01*
X0030208Y0017469D02*
X0012438D01*
X0014250Y0017730D02*
X0012756D01*
X0016865Y0017533D02*
Y0017469D01*
X0022850Y0067948D02*
Y0067419D01*
X0016550Y0017629D02*
Y0017469D01*
Y0025183D02*
Y0024563D01*
X0024425Y0043469D02*
Y0027944D01*
X0029459Y0030144D02*
Y0028444D01*
Y0030144D02*
X0027459D01*
X0010696Y0042930D02*
X0008864D01*
X0029150Y0030537D02*
Y0030144D01*
X0031784Y0027810D02*
X0029307D01*
X0027260Y0035395D02*
Y0032274D01*
X0022220Y0034480D02*
Y0029244D01*
X0031784Y0028440D02*
X0029446D01*
X0030095Y0042618D02*
Y0032310D01*
X0027300Y0045219D02*
X0025015D01*
X0031784Y0044190D02*
X0031554D01*
X0031784Y0041040D02*
X0023489D01*
X0031040Y0042923D02*
Y0019406D01*
X0031784Y0043560D02*
X0031722D01*
X0028334Y0042344D02*
X0026584D01*
X0014030Y0019986D02*
Y0017469D01*
X0007730Y0017526D02*
Y0017469D01*
X0014975Y0017500D02*
Y0017469D01*
X0013017Y0018841D02*
Y0018447D01*
X0011561Y0022455D02*
X0010491D01*
X0007243Y0018841D02*
Y0018447D01*
X0011825Y0022191D02*
Y0019954D01*
X0011246Y0019956D02*
X0009015D01*
X0013085Y0020931D02*
Y0017469D01*
X0015605Y0025577D02*
Y0023202D01*
X0015920Y0021498D02*
Y0021125D01*
X0018125Y0043932D02*
Y0031994D01*
X0015889Y0067500D02*
X0009619D01*
X0019779Y0029706D02*
X0018175D01*
X0006904Y0044190D02*
X0006187D01*
X0015736Y0068445D02*
X0010564D01*
X0011876Y0022140D02*
X0006744D01*
X0011804Y0028755D02*
X0009279D01*
X0016309Y0078294D02*
X0015134D01*
X0018440Y0027219D02*
Y0024016D01*
X0018125Y0027219D02*
Y0023053D01*
X0014609Y0072225D02*
X0014344D01*
X0018775Y0024030D02*
X0017197D01*
X0019779Y0023195D02*
Y0023149D01*
X0018139Y0023053D02*
X0017988D01*
X0019385Y0025377D02*
Y0024583D01*
X0001430Y0056955D02*
Y0047176D01*
X0018755Y0029706D02*
Y0029244D01*
X0019779Y0032016D02*
X0018139D01*
X0019779Y0029814D02*
Y0029706D01*
X0016865Y0029599D02*
Y0029244D01*
X0024434Y0031905D02*
X0019779D01*
X0020645Y0027219D02*
Y0026706D01*
X0016617Y0030644D02*
X0016309D01*
X0023489Y0043469D02*
Y0039475D01*
X0025659Y0026644D02*
X0023865D01*
X0022139Y0027053D02*
X0021988D01*
X0023795Y0043469D02*
Y0027944D01*
X0015782Y0027180D02*
X0014017D01*
X0017784Y0073485D02*
X0015134D01*
X0014396Y0019620D02*
X0012700D01*
X0009634Y0054644D02*
Y0053669D01*
X0012855Y0030960D02*
X0008175D01*
X0030593Y0047025D02*
X0027773D01*
X0014017Y0027219D02*
Y0027032D01*
X0031784Y0026235D02*
X0029459D01*
Y0026644D02*
Y0024944D01*
X0009935Y0029144D02*
Y0027967D01*
X0029997Y0017730D02*
X0018681D01*
X0006878Y0044475D02*
X0006038D01*
X0011804Y0029144D02*
Y0028541D01*
X0031784Y0026865D02*
X0029342D01*
X0011825Y0028541D02*
Y0027138D01*
X0018761Y0024016D02*
X0018139D01*
X0031784Y0025920D02*
X0029459D01*
X0028205Y0035935D02*
Y0032287D01*
X0021590Y0025382D02*
Y0024644D01*
X0029459Y0023144D02*
Y0021444D01*
X0027695Y0052450D02*
X0026809Y0051563D01*
X0028609Y0019444D02*
X0028309D01*
X0027195Y0029750D02*
X0025389Y0027944D01*
X0025829Y0022140D02*
X0022118D01*
X0026774Y0021195D02*
X0023062D01*
X0020184Y0058050D02*
X0019807D01*
X0020634Y0062388D02*
X0020503Y0062257D01*
X0030228Y0060570D02*
X0022884D01*
X0017495Y0021374D02*
Y0020939D01*
X0016617Y0030645D02*
X0016309D01*
X0023217Y0056160D02*
X0022909D01*
X0027882Y0057019D02*
X0024943D01*
X0024209Y0059219D02*
X0024009D01*
X0023187Y0056475D02*
X0022909D01*
X0030056Y0057735D02*
X0024960D01*
X0023236Y0057105D02*
X0022909D01*
X0029965Y0058365D02*
X0025033D01*
X0017795Y0073170D02*
X0017309D01*
X0022850Y0022885D02*
Y0021332D01*
X0023221Y0053640D02*
X0022909D01*
X0030095Y0017589D02*
Y0017469D01*
X0023122Y0052850D02*
X0023251Y0052721D01*
X0016550Y0033113D02*
Y0031994D01*
X0017981Y0072817D02*
X0023279Y0067519D01*
X0007799Y0047655D02*
X0007506D01*
X0027609Y0053640D02*
X0024996D01*
X0023310Y0053955D02*
X0022909D01*
X0027609Y0053769D02*
X0024943D01*
X0026630D02*
Y0052394D01*
X0027663Y0052695D02*
X0024977D01*
X0012284Y0063119D02*
Y0062919D01*
X0012821Y0021195D02*
X0006744D01*
X0025055Y0053769D02*
Y0052019D01*
X0009583Y0024660D02*
X0007120D01*
X0030240Y0057420D02*
X0025033D01*
X0030188Y0045135D02*
X0028684D01*
X0031784Y0043875D02*
X0031712D01*
X0030559Y0044719D02*
X0028559D01*
X0023185Y0047340D02*
X0022032D01*
X0030046Y0046395D02*
X0028650D01*
X0023246Y0046080D02*
X0021971D01*
X0023301Y0047970D02*
X0021916D01*
X0016550Y0022194D02*
Y0021125D01*
X0026315Y0046769D02*
Y0045219D01*
X0023202D02*
X0022015D01*
X0027892Y0047144D02*
X0027702Y0046954D01*
X0026000Y0021969D02*
Y0017469D01*
X0028520Y0047144D02*
Y0046517D01*
X0027434Y0045353D02*
X0027300Y0045219D01*
X0027306Y0046080D02*
X0024971D01*
X0027434Y0045353D02*
X0027300Y0045219D01*
X0022220Y0050576D02*
Y0045219D01*
X0021905Y0046951D02*
Y0046836D01*
X0030231Y0046710D02*
X0024971D01*
X0023272Y0045765D02*
X0021945D01*
X0024110Y0026644D02*
Y0025419D01*
X0023185Y0045450D02*
X0022032D01*
X0022284Y0048915D02*
X0021880D01*
X0023187Y0048469D02*
X0022284D01*
X0021905Y0049951D02*
Y0049836D01*
X0023191Y0048285D02*
X0022026D01*
X0021905Y0048951D02*
Y0048836D01*
X0025370Y0046769D02*
Y0045219D01*
X0026315Y0030269D02*
Y0028869D01*
X0022535Y0048469D02*
Y0045219D01*
X0031784Y0036630D02*
X0028062D01*
X0031784Y0037575D02*
X0023203D01*
X0031784Y0036945D02*
X0023507D01*
X0027575Y0026865D02*
Y0026644D01*
X0015920Y0025318D02*
Y0024351D01*
X0027575Y0042344D02*
Y0036910D01*
X0027890Y0042344D02*
Y0036788D01*
X0020330Y0063469D02*
Y0061959D01*
X0020675Y0020880D02*
X0017554D01*
X0018725Y0019450D02*
Y0019226D01*
X0030522Y0059310D02*
X0022909D01*
X0025370Y0063461D02*
Y0057019D01*
X0030203Y0058995D02*
X0024774D01*
X0020184Y0058365D02*
X0019812D01*
X0021275Y0020529D02*
Y0020369D01*
X0031784Y0025605D02*
X0029459D01*
X0031784Y0027495D02*
X0029434D01*
X0023184Y0058365D02*
X0022909D01*
X0002771Y0059940D02*
X0002059D01*
X0014609Y0071910D02*
X0014029D01*
X0017250Y0076320D02*
X0016667D01*
X0016550Y0076299D02*
Y0073294D01*
X0017784Y0078619D02*
Y0078229D01*
Y0076320D02*
X0017667D01*
X0017495Y0076295D02*
Y0069705D01*
X0004294Y0020565D02*
X0001234D01*
X0015605Y0078619D02*
Y0078294D01*
X0015134Y0078619D02*
Y0078294D01*
X0017784Y0076358D02*
Y0073294D01*
X0016865Y0078619D02*
Y0078190D01*
X0004294Y0021195D02*
X0001234D01*
X0018139Y0031994D02*
X0014259D01*
X0026945Y0027661D02*
Y0025419D01*
X0029465Y0052521D02*
Y0052467D01*
X0029609Y0055244D02*
Y0053544D01*
X0027260Y0060697D02*
Y0057019D01*
X0030095Y0045287D02*
Y0044719D01*
X0026344Y0061830D02*
X0022284D01*
X0028759Y0057244D02*
X0028459D01*
X0029465Y0055921D02*
Y0055867D01*
X0031784Y0055215D02*
X0029609D01*
X0031784Y0053640D02*
X0029609D01*
X0031784Y0044691D02*
Y0019044D01*
X0015290Y0076294D02*
Y0073294D01*
X0015920Y0061669D02*
Y0061596D01*
X0017309Y0073294D02*
Y0071294D01*
X0016550Y0030228D02*
Y0029244D01*
X0017180Y0027219D02*
Y0027144D01*
X0010308Y0050942D02*
X0010010Y0050644D01*
X0026630Y0064168D02*
Y0062540D01*
X0017180Y0078619D02*
Y0078247D01*
X0017784Y0075690D02*
X0015134D01*
X0016550Y0068183D02*
Y0067490D01*
X0016309Y0071294D02*
X0015609D01*
X0026809Y0052394D02*
X0025109D01*
X0031784Y0049545D02*
X0029480D01*
X0021559Y0034369D02*
X0020559D01*
X0021559Y0038419D02*
X0020559D01*
X0026945Y0046769D02*
Y0045219D01*
X0027259Y0046769D02*
X0024943D01*
X0031784Y0048600D02*
X0029609D01*
X0026945Y0042344D02*
Y0036724D01*
X0023246Y0046710D02*
X0021971D01*
X0010880Y0022923D02*
Y0019956D01*
X0027260Y0046769D02*
Y0045219D01*
X0031784Y0036315D02*
X0028214D01*
X0026519Y0032220D02*
X0026484D01*
X0025055Y0043469D02*
Y0032319D01*
X0017050Y0021125D02*
X0015909D01*
X0003005Y0056764D02*
Y0046098D01*
X0029971Y0058050D02*
X0024958D01*
X0031784Y0050175D02*
X0029589D01*
X0016235Y0021800D02*
Y0021125D01*
X0007730Y0052965D02*
Y0046225D01*
X0031784Y0054585D02*
X0029609D01*
X0008360Y0025075D02*
Y0024094D01*
X0031784Y0053955D02*
X0029609D01*
X0004580Y0045118D02*
Y0044666D01*
X0017492Y0020942D02*
X0018540Y0019894D01*
X0017180Y0033006D02*
Y0031994D01*
X0010556Y0033165D02*
X0008175D01*
X0013695Y0031800D02*
X0012339Y0030444D01*
X0009111Y0023400D02*
X0008915D01*
X0011510Y0033071D02*
Y0030444D01*
X0020309Y0061516D02*
X0020139D01*
X0014345Y0032991D02*
Y0031994D01*
X0010565Y0029144D02*
Y0026512D01*
X0008675Y0025075D02*
Y0023878D01*
X0013766Y0020250D02*
X0006744D01*
X0019385Y0059934D02*
Y0059077D01*
X0031784Y0025290D02*
X0029459D01*
X0018434Y0060885D02*
X0018384D01*
X0023779Y0025706D02*
X0022175D01*
X0012140Y0033903D02*
Y0030444D01*
X0013170Y0031275D02*
X0008175D01*
X0017180Y0063469D02*
Y0062919D01*
X0019385Y0063469D02*
Y0061701D01*
X0019700Y0063469D02*
Y0061386D01*
X0031784Y0026550D02*
X0029459D01*
X0009620Y0067501D02*
Y0061339D01*
X0016535Y0065295D02*
X0007414D01*
X0015290Y0071294D02*
Y0064910D01*
X0020634Y0063090D02*
X0012284D01*
X0021905Y0068893D02*
Y0067419D01*
X0029872Y0018045D02*
X0018893D01*
X0014345Y0026017D02*
Y0022689D01*
X0008365Y0026469D02*
X0008509Y0026325D01*
X0018125Y0063469D02*
Y0062880D01*
X0015605Y0017500D02*
Y0017469D01*
X0007776Y0025290D02*
X0007475D01*
X0010575Y0026550D02*
X0009815D01*
X0021120Y0020565D02*
X0017869D01*
X0013400Y0025376D02*
Y0023634D01*
X0012284Y0061669D02*
Y0061469D01*
X0012770Y0021246D02*
Y0019541D01*
X0014975Y0044475D02*
Y0031994D01*
X0019385Y0071413D02*
Y0067419D01*
X0022220Y0068578D02*
Y0067419D01*
X0020645Y0070153D02*
Y0067419D01*
X0017495Y0068882D02*
Y0067419D01*
X0020015Y0070783D02*
Y0067419D01*
X0012770Y0025694D02*
Y0024264D01*
X0020858Y0025605D02*
X0020068D01*
X0023779Y0026147D02*
Y0025706D01*
X0018575Y0026550D02*
X0017544D01*
X0010250Y0033480D02*
X0008175D01*
X0027459Y0025605D02*
X0022077D01*
X0016235Y0068201D02*
Y0067568D01*
X0027475Y0028125D02*
X0027409D01*
X0019070Y0029706D02*
Y0029244D01*
X0020627Y0025920D02*
X0020299D01*
X0018440Y0060879D02*
Y0059075D01*
X0014660Y0071294D02*
Y0064344D01*
X0016550Y0065285D02*
Y0064719D01*
X0026000Y0026741D02*
Y0025419D01*
X0024740Y0063278D02*
Y0059025D01*
X0023480Y0035754D02*
Y0028682D01*
X0024420Y0063405D02*
X0022267D01*
X0018125Y0072673D02*
Y0067419D01*
X0009620Y0047344D02*
Y0046225D01*
X0017495Y0027219D02*
Y0026705D01*
X0011825Y0033274D02*
Y0030444D01*
X0004294Y0029700D02*
X0001234D01*
X0012828Y0038835D02*
X0008175D01*
X0010565Y0043001D02*
Y0034881D01*
X0010250Y0027061D02*
Y0026325D01*
X0006954Y0024509D02*
Y0023059D01*
X0012828Y0036945D02*
X0008175D01*
X0009620Y0029144D02*
Y0028103D01*
X0007730Y0025336D02*
Y0024121D01*
X0008990Y0026469D02*
Y0026325D01*
Y0025075D02*
Y0019760D01*
X0014030Y0071911D02*
Y0062919D01*
X0019700Y0021706D02*
Y0017469D01*
X0017180Y0023510D02*
Y0023331D01*
X0012140Y0025676D02*
Y0024894D01*
X0020799Y0022140D02*
X0019779D01*
X0020518Y0021195D02*
X0015839D01*
X0020549Y0026235D02*
X0020377D01*
X0020484Y0019305D02*
X0018725D01*
X0020330Y0070468D02*
Y0067419D01*
X0026515Y0061200D02*
X0022372D01*
X0009009Y0059219D02*
X0003817D01*
X0009539Y0024030D02*
X0008487D01*
X0021590Y0034369D02*
Y0029244D01*
X0018755Y0035473D02*
Y0032016D01*
X0025370Y0030269D02*
Y0027944D01*
X0024434Y0030960D02*
X0020386D01*
X0009602Y0024345D02*
X0006954D01*
X0007535Y0022455D02*
X0006744D01*
X0017180Y0021420D02*
Y0021111D01*
X0020330Y0023344D02*
Y0017469D01*
X0024434Y0030330D02*
X0020343D01*
X0027459Y0026235D02*
X0023827D01*
X0019070Y0035021D02*
Y0032016D01*
X0011804Y0029070D02*
X0009279D01*
X0024434Y0031590D02*
X0019779D01*
X0027466Y0028182D02*
X0026122Y0026838D01*
X0015348Y0069390D02*
X0011509D01*
X0017326Y0029385D02*
X0015600D01*
X0023609Y0028294D02*
Y0028016D01*
X0021275Y0027219D02*
Y0027193D01*
X0009284Y0028119D02*
X0009084D01*
X0012828Y0041670D02*
X0008175D01*
X0015345Y0026235D02*
X0014386D01*
X0015539Y0067185D02*
X0009304D01*
X0016676Y0021825D02*
X0016250D01*
X0019833Y0070965D02*
X0013084D01*
X0014250Y0018045D02*
X0012942D01*
X0016534Y0060255D02*
X0016210D01*
X0007530Y0024030D02*
X0006954D01*
X0004108Y0026865D02*
X0001234D01*
X0018737D02*
X0017416D01*
X0007292Y0024832D02*
X0007044Y0024584D01*
X0016462Y0033165D02*
X0014511D01*
X0012828Y0037260D02*
X0008175D01*
X0012828Y0039150D02*
X0008175D01*
X0009284Y0026488D02*
Y0026469D01*
X0007100Y0024640D02*
Y0023388D01*
X0015501Y0026865D02*
X0014189D01*
X0006225Y0043000D02*
Y0032509D01*
X0020015Y0029914D02*
Y0029244D01*
X0019700Y0029706D02*
Y0029244D01*
X0009935Y0026620D02*
Y0026325D01*
X0006979Y0044012D02*
X0006412Y0043446D01*
X0012828Y0041985D02*
X0008175D01*
X0012828Y0043245D02*
X0011940D01*
X0006225Y0040410D02*
X0003212D01*
X0020645Y0034369D02*
Y0029244D01*
X0008360Y0042426D02*
Y0030516D01*
X0027459Y0030015D02*
X0020128D01*
X0020330Y0030307D02*
Y0029244D01*
X0024740Y0030269D02*
Y0027944D01*
X0018125Y0021650D02*
Y0020309D01*
X0025570Y0028125D02*
X0023609D01*
X0027260Y0027976D02*
Y0025419D01*
X0026000Y0053769D02*
Y0052394D01*
X0031784Y0029070D02*
X0029459D01*
X0026200Y0028755D02*
X0023417D01*
X0027459Y0030144D02*
Y0029912D01*
X0026000Y0043469D02*
Y0032319D01*
X0025370Y0026644D02*
Y0025419D01*
X0027575Y0030475D02*
Y0030144D01*
X0028520Y0030271D02*
Y0030144D01*
X0027890Y0030441D02*
Y0030144D01*
X0031784Y0030330D02*
X0030307D01*
X0009780Y0025075D02*
X0008250D01*
X0031784Y0024030D02*
X0029425D01*
X0018540Y0026235D02*
X0017572D01*
X0002060Y0040163D02*
Y0037719D01*
X0031784Y0021195D02*
X0029453D01*
X0023795Y0063469D02*
Y0059191D01*
X0022220Y0061469D02*
Y0061314D01*
X0017810Y0029440D02*
Y0029244D01*
Y0033358D02*
Y0031994D01*
X0020566Y0021825D02*
X0019779D01*
X0020634Y0063119D02*
Y0062388D01*
X0016617Y0030644D02*
X0016309D01*
X0016601Y0042930D02*
X0014511D01*
X0016376Y0022368D02*
X0016553Y0022190D01*
X0025300Y0022669D02*
X0023967D01*
X0024434Y0031275D02*
X0020171D01*
X0022535Y0019472D02*
Y0017469D01*
X0027460Y0020250D02*
X0023372D01*
X0029459Y0021444D02*
X0029445D01*
X0025514Y0022455D02*
X0019779D01*
X0029150Y0019639D02*
Y0017469D01*
X0031784Y0022770D02*
X0029459D01*
X0031784Y0024975D02*
X0029459D01*
X0031784Y0023085D02*
X0029459D01*
X0027260Y0020745D02*
Y0017469D01*
X0031784Y0020565D02*
X0029414D01*
X0023184Y0057420D02*
X0022909D01*
X0023203Y0055215D02*
X0022909D01*
X0028019Y0032220D02*
X0027398D01*
X0023779Y0028016D02*
X0023609D01*
X0026515Y0029070D02*
X0023101D01*
X0031784Y0035055D02*
X0023078D01*
X0023165Y0019797D02*
Y0017469D01*
X0015920Y0029498D02*
Y0029244D01*
X0011825Y0069706D02*
Y0063978D01*
X0027393Y0063405D02*
X0025297D01*
X0005916Y0056269D02*
X0003759D01*
X0010565Y0054618D02*
Y0051097D01*
X0026584Y0042615D02*
X0023489D01*
X0009620Y0024290D02*
Y0024073D01*
X0020584Y0026550D02*
X0020342D01*
X0020746Y0026865D02*
X0020180D01*
X0021220Y0027180D02*
X0019706D01*
X0020645Y0023344D02*
Y0021966D01*
X0019070Y0027219D02*
Y0027128D01*
X0020960Y0025527D02*
Y0024644D01*
X0019700Y0027219D02*
Y0027182D01*
X0018440Y0029706D02*
Y0029244D01*
X0014671Y0022770D02*
X0014264D01*
X0020015Y0027219D02*
Y0027027D01*
X0018125Y0029650D02*
Y0029244D01*
X0020330Y0027219D02*
Y0026589D01*
X0021590Y0027219D02*
Y0027206D01*
X0015408Y0025920D02*
X0014308D01*
X0012767Y0028541D02*
X0012670D01*
X0027459Y0025920D02*
X0023779D01*
X0026144Y0021825D02*
X0022351D01*
X0021759Y0027180D02*
X0021715D01*
X0025685Y0026644D02*
Y0025419D01*
X0026379Y0061515D02*
X0022284D01*
X0025055Y0063294D02*
Y0057019D01*
X0023165Y0025706D02*
Y0025541D01*
X0027459Y0025419D02*
X0023417D01*
X0026763Y0064035D02*
X0025633D01*
X0025300Y0022669D02*
X0027115Y0020854D01*
X0014835Y0064665D02*
X0006784D01*
X0016534Y0059940D02*
X0015814D01*
X0016550Y0063469D02*
Y0062919D01*
X0024740Y0022669D02*
Y0017469D01*
X0029459Y0028444D02*
X0029445D01*
X0025536Y0065262D02*
X0028075Y0062723D01*
X0015175Y0063405D02*
X0012267D01*
X0015605Y0066308D02*
Y0064894D01*
X0017495Y0063469D02*
Y0062919D01*
X0016259Y0065610D02*
X0007729D01*
X0010634Y0063090D02*
X0005209D01*
X0014760Y0063720D02*
X0012129D01*
X0015471Y0066555D02*
X0008674D01*
X0014975Y0060005D02*
Y0059208D01*
X0016235Y0029800D02*
Y0029244D01*
X0019379Y0059940D02*
X0018384D01*
X0010634Y0062353D02*
X0008750Y0060469D01*
X0004529Y0062410D02*
X0001662Y0059542D01*
X0022195Y0024660D02*
X0012374D01*
X0017810Y0059869D02*
Y0059204D01*
X0010111Y0061830D02*
X0006573D01*
X0027890Y0047141D02*
Y0046650D01*
X0015688Y0023715D02*
X0013319D01*
X0031784Y0047340D02*
X0029609D01*
X0020484Y0019935D02*
X0018499D01*
X0024110Y0063469D02*
Y0059219D01*
X0028835Y0030340D02*
Y0030144D01*
X0031784Y0030015D02*
X0029459D01*
X0030087Y0018990D02*
X0022434D01*
X0009305Y0022662D02*
Y0019956D01*
X0028520Y0042346D02*
Y0032317D01*
X0017495Y0029374D02*
Y0029244D01*
X0019779Y0032016D02*
Y0031459D01*
X0027300Y0045219D02*
X0025015D01*
X0026995Y0051750D02*
X0026809D01*
X0031784Y0054270D02*
X0029609D01*
X0031784Y0052065D02*
X0029606D01*
X0031784Y0051120D02*
X0029599D01*
X0031784Y0051435D02*
X0029485D01*
X0005856Y0047655D02*
X0001234D01*
X0030410Y0060388D02*
Y0059223D01*
X0009481Y0061200D02*
X0006402D01*
X0031784Y0020250D02*
X0029457D01*
X0009935Y0059886D02*
Y0059210D01*
X0014660Y0063944D02*
Y0062919D01*
X0006470Y0064351D02*
Y0062263D01*
X0007822Y0017469D02*
X0002709D01*
X0007730Y0065611D02*
Y0060469D01*
X0004580Y0056269D02*
Y0047319D01*
X0010565Y0068446D02*
Y0062284D01*
Y0060516D02*
Y0059140D01*
X0002534Y0059444D02*
Y0059270D01*
X0009796Y0061515D02*
X0006538D01*
X0005525Y0056269D02*
Y0047319D01*
X0007534Y0053140D02*
X0007619Y0053054D01*
X0014345Y0061669D02*
Y0059100D01*
X0008360Y0046707D02*
Y0046225D01*
X0022284Y0048600D02*
X0022007D01*
X0025685Y0046769D02*
Y0045219D01*
X0020309Y0061794D02*
Y0061516D01*
X0029465Y0047144D02*
Y0044719D01*
X0027260Y0053769D02*
Y0052014D01*
X0010671Y0051120D02*
X0009544D01*
X0010565Y0033159D02*
Y0030444D01*
X0016984Y0064719D02*
X0015928D01*
X0019385Y0029706D02*
Y0029244D01*
X0022139Y0027069D02*
Y0027053D01*
X0009825Y0047340D02*
X0009619D01*
X0029519Y0032220D02*
X0028898D01*
X0005884Y0053640D02*
X0001234D01*
X0009634Y0053669D02*
X0009615D01*
X0009620Y0048344D02*
Y0047643D01*
X0003630Y0047340D02*
X0001234D01*
X0009935Y0067816D02*
Y0061654D01*
X0010642Y0063119D02*
X0010634D01*
X0005525Y0060681D02*
Y0060469D01*
X0028968Y0061830D02*
X0028573D01*
X0012455Y0044475D02*
Y0030559D01*
X0015920Y0059992D02*
Y0059210D01*
X0016865Y0059869D02*
Y0059209D01*
X0026315Y0064483D02*
Y0057019D01*
X0030504Y0044820D02*
X0028620D01*
X0031784Y0047655D02*
X0029609D01*
X0027423Y0045450D02*
X0025032D01*
X0030095Y0057649D02*
Y0046501D01*
X0027575Y0046855D02*
Y0046499D01*
X0018439Y0043245D02*
X0017845D01*
X0004184Y0045765D02*
X0003014D01*
X0014538Y0060885D02*
X0010933D01*
X0018573Y0072225D02*
X0017309D01*
X0022878Y0067419D02*
X0016667D01*
X0015290Y0078619D02*
Y0078294D01*
X0006225Y0040725D02*
X0003411D01*
X0023226Y0047655D02*
X0021991D01*
X0022850Y0048469D02*
Y0045219D01*
X0010171Y0050805D02*
X0009573D01*
X0019928Y0023344D02*
X0019779Y0023195D01*
X0009935Y0022328D02*
Y0019956D01*
X0010250Y0022354D02*
Y0019956D01*
X0010565Y0022504D02*
Y0019956D01*
X0008141Y0019935D02*
X0006744D01*
X0013715Y0020301D02*
Y0017469D01*
X0014250Y0018990D02*
X0013007D01*
X0014250Y0019305D02*
X0012916D01*
X0017180Y0025444D02*
Y0024077D01*
X0015720Y0024030D02*
X0013004D01*
X0015920Y0017500D02*
Y0017469D01*
X0010925Y0023091D02*
X0014516Y0019500D01*
X0011246Y0019956D02*
Y0019743D01*
X0020015Y0023344D02*
Y0017469D01*
X0022535Y0025706D02*
Y0025443D01*
X0018139Y0023400D02*
X0017126D01*
X0017120Y0023391D02*
X0017311Y0023200D01*
X0016560Y0022140D02*
X0016366D01*
X0017946Y0072855D02*
X0017309D01*
X0009620Y0053669D02*
Y0053643D01*
X0014609Y0072489D02*
Y0071294D01*
X0016865Y0021599D02*
Y0021125D01*
X0016048Y0043560D02*
X0014511D01*
X0007534Y0052569D02*
X0007525D01*
X0027294Y0045765D02*
X0024945D01*
X0028334Y0042353D02*
Y0042344D01*
X0026584Y0043469D02*
Y0042344D01*
X0023318Y0055845D02*
X0022909D01*
X0018440Y0017571D02*
Y0017469D01*
X0023195Y0055530D02*
X0022909D01*
X0013085Y0025457D02*
Y0023949D01*
X0009227Y0023715D02*
X0008799D01*
X0007730Y0022367D02*
Y0019762D01*
X0017495Y0017597D02*
Y0017469D01*
X0014660Y0017500D02*
Y0017469D01*
X0012140Y0021876D02*
Y0019930D01*
X0018749Y0060570D02*
X0018384D01*
X0014250Y0018675D02*
X0013017D01*
X0012506Y0021510D02*
X0006744D01*
X0020484Y0018675D02*
X0018949D01*
X0011510Y0029144D02*
Y0027212D01*
X0021723Y0069075D02*
X0017552D01*
X0015950Y0017513D02*
Y0017500D01*
X0029845Y0018360D02*
X0018950D01*
X0017810Y0021440D02*
Y0020624D01*
X0009620Y0025075D02*
Y0024810D01*
X0026929Y0062775D02*
X0022284D01*
X0008175Y0042241D02*
Y0030516D01*
X0028023Y0062775D02*
X0027988D01*
X0020139Y0061200D02*
X0019886D01*
X0028520Y0061452D02*
Y0057244D01*
X0020139Y0059314D02*
Y0059206D01*
X0027459Y0026644D02*
Y0025419D01*
X0011641Y0025392D02*
X0014557Y0022477D01*
X0021905Y0018519D02*
Y0017469D01*
X0018755Y0017808D02*
Y0017469D01*
X0019385Y0034744D02*
Y0032016D01*
X0019779Y0022572D02*
Y0021706D01*
X0015290Y0063378D02*
Y0062919D01*
X0016591Y0030015D02*
X0016335D01*
X0016235Y0017511D02*
Y0017469D01*
X0015290Y0029389D02*
Y0029332D01*
X0015641Y0021392D02*
X0015909Y0021125D01*
X0015215Y0029407D02*
X0015378Y0029244D01*
X0016548Y0030330D02*
X0016378D01*
X0007102Y0023400D02*
X0006954D01*
X0015605Y0029386D02*
Y0029244D01*
X0016184Y0065925D02*
X0008044D01*
X0015317Y0029385D02*
X0015237D01*
X0015605Y0027219D02*
Y0027011D01*
X0027145Y0029700D02*
X0018170D01*
X0015365Y0069075D02*
X0011194D01*
X0023165Y0035161D02*
Y0029007D01*
X0025885Y0028440D02*
X0023592D01*
X0014345Y0027219D02*
Y0026571D01*
X0021275Y0034369D02*
Y0029244D01*
X0011246Y0022770D02*
X0010806D01*
X0020960Y0034369D02*
Y0029244D01*
X0022983Y0067815D02*
X0009934D01*
X0023122Y0029050D02*
X0023414Y0028757D01*
X0025685Y0065113D02*
Y0057019D01*
X0015612Y0070020D02*
X0012139D01*
X0018755Y0027219D02*
Y0026886D01*
X0011195Y0069076D02*
Y0064021D01*
X0020960Y0069838D02*
Y0067419D01*
X0004895Y0062776D02*
Y0062756D01*
X0027610Y0027810D02*
X0027094D01*
X0018384Y0060935D02*
X0019740Y0059578D01*
X0003005Y0060886D02*
Y0060174D01*
X0026830Y0029385D02*
X0017609D01*
X0028835Y0047144D02*
Y0044719D01*
X0010634Y0062353D02*
X0008750Y0060469D01*
X0021905Y0027112D02*
Y0027103D01*
X0020960Y0023344D02*
Y0022253D01*
X0021275Y0023344D02*
Y0022359D01*
X0007100Y0023100D02*
Y0017469D01*
X0019700Y0025406D02*
Y0024644D01*
X0007102Y0023085D02*
X0006954D01*
X0020645Y0018519D02*
Y0017469D01*
X0022937Y0022770D02*
X0019779D01*
X0027575Y0027865D02*
Y0027723D01*
X0031784Y0024660D02*
X0029448D01*
X0020015Y0025561D02*
Y0024644D01*
X0031784Y0023715D02*
X0029455D01*
X0031784Y0021510D02*
X0029459D01*
X0031784Y0023400D02*
X0029362D01*
X0023779Y0028016D02*
Y0027944D01*
X0009284Y0028119D02*
Y0028100D01*
X0029459Y0024944D02*
X0029445D01*
X0004532Y0023715D02*
X0001234D01*
X0031784Y0024345D02*
X0029330D01*
X0009305Y0043371D02*
Y0030444D01*
X0026630Y0030323D02*
Y0029184D01*
X0026315Y0027031D02*
Y0025419D01*
X0015974Y0025290D02*
X0011744D01*
X0010250Y0029144D02*
Y0027527D01*
X0019700Y0034560D02*
Y0032016D01*
X0017180Y0029420D02*
Y0029244D01*
X0018139Y0023085D02*
X0017937D01*
X0024434Y0030645D02*
X0020432D01*
X0020330Y0034382D02*
Y0031081D01*
X0012767Y0028125D02*
X0009084D01*
X0021905Y0023344D02*
Y0022280D01*
X0024434Y0032220D02*
X0008175D01*
X0015605Y0044475D02*
Y0031994D01*
X0011804Y0029144D02*
X0009279D01*
X0031784Y0028125D02*
X0029442D01*
X0004294Y0019935D02*
X0001234D01*
X0014609Y0071595D02*
X0013714D01*
X0013085Y0032991D02*
Y0031189D01*
X0011195Y0022821D02*
Y0019956D01*
Y0032997D02*
Y0030444D01*
X0015437Y0066870D02*
X0008989D01*
X0012540Y0030645D02*
X0008175D01*
X0026630Y0061048D02*
Y0057019D01*
X0031784Y0028755D02*
X0029459D01*
X0006155Y0064036D02*
Y0062665D01*
X0026813Y0060885D02*
X0022687D01*
X0029780Y0030285D02*
Y0017469D01*
X0031784Y0030645D02*
X0030752D01*
X0028205Y0042344D02*
Y0036353D01*
X0004265Y0062146D02*
Y0060469D01*
X0017810Y0073107D02*
Y0067419D01*
X0023795Y0022574D02*
Y0017469D01*
X0019070Y0060249D02*
Y0059197D01*
X0012284Y0063119D02*
X0012275D01*
X0010880Y0053107D02*
Y0052881D01*
X0017784Y0075060D02*
X0015134D01*
X0011510Y0069391D02*
Y0064063D01*
X0010539Y0054644D02*
X0009634D01*
X0020411Y0062145D02*
X0018941D01*
X0026315Y0043469D02*
Y0032319D01*
X0025055Y0022669D02*
Y0017469D01*
X0027625Y0052380D02*
X0026809D01*
X0024425Y0063402D02*
Y0059190D01*
X0031784Y0031275D02*
X0030983D01*
X0027609Y0053769D02*
Y0053544D01*
X0023480Y0063469D02*
Y0059027D01*
X0009935Y0046446D02*
Y0046225D01*
X0009279Y0028206D02*
X0009084D01*
X0007218Y0023715D02*
X0006954D01*
X0012584Y0026550D02*
X0012342D01*
X0020486Y0021510D02*
X0017949D01*
X0025109Y0052019D02*
X0024943D01*
X0030037Y0058680D02*
X0024982D01*
X0010250Y0054644D02*
Y0050884D01*
X0016550Y0071294D02*
Y0070405D01*
X0003635Y0061516D02*
Y0060469D01*
X0027434Y0045436D02*
Y0045353D01*
X0031784Y0027180D02*
X0029451D01*
X0027419Y0035370D02*
X0023306D01*
X0011685Y0019935D02*
X0011246D01*
X0027466Y0027180D02*
X0026464D01*
X0015914Y0024345D02*
X0012689D01*
X0015836Y0027219D02*
X0014017D01*
X0015582Y0025605D02*
X0014077D01*
X0020139Y0061515D02*
X0019571D01*
X0031784Y0019305D02*
X0031429D01*
X0013715Y0025408D02*
Y0023319D01*
X0012767Y0027180D02*
X0011706D01*
X0021905Y0061469D02*
Y0061394D01*
X0009084Y0028206D02*
Y0028119D01*
X0030543Y0060255D02*
X0022909D01*
X0022372Y0061200D02*
X0022714Y0060857D01*
X0027538Y0019935D02*
X0023262D01*
X0018618Y0025920D02*
X0017509D01*
X0026000Y0064798D02*
Y0057019D01*
X0020184Y0059206D02*
Y0057719D01*
X0030410Y0044893D02*
Y0044719D01*
X0017309Y0073294D02*
X0016309D01*
X0003320Y0056449D02*
Y0046928D01*
X0010814Y0054270D02*
X0009634D01*
X0015920Y0068318D02*
Y0067513D01*
X0031173Y0059625D02*
X0022909D01*
X0010598Y0054585D02*
X0009634D01*
X0008175Y0042241D02*
Y0030516D01*
X0003320Y0061201D02*
Y0060421D01*
X0022220Y0025706D02*
Y0025028D01*
X0012828Y0039465D02*
X0008175D01*
X0019779Y0023149D02*
Y0022572D01*
X0020330Y0025999D02*
Y0024644D01*
X0005210Y0029559D02*
Y0028587D01*
X0005840Y0033897D02*
Y0032509D01*
X0003005Y0017909D02*
Y0017469D01*
X0011195Y0029144D02*
Y0027175D01*
X0004265Y0027215D02*
Y0027192D01*
X0010880Y0068761D02*
Y0063827D01*
X0026000Y0030269D02*
Y0028554D01*
X0015422Y0069705D02*
X0011824D01*
X0018440Y0021706D02*
Y0019994D01*
X0017495Y0033108D02*
Y0031994D01*
X0004344Y0061830D02*
X0003949D01*
X0029459Y0023144D02*
X0029156D01*
X0019385Y0021706D02*
Y0017469D01*
X0020484Y0020250D02*
X0018184D01*
X0024110Y0043469D02*
Y0027944D01*
X0016865Y0025256D02*
Y0024454D01*
X0016986Y0021510D02*
X0015940D01*
X0022363Y0025290D02*
X0016943D01*
X0026133Y0064665D02*
X0025510D01*
X0020484Y0018990D02*
X0018879D01*
X0012770Y0070651D02*
Y0062919D01*
X0022198Y0024644D02*
X0019659D01*
X0011211Y0027180D02*
X0010276D01*
X0009305Y0029144D02*
Y0028104D01*
X0013400Y0071281D02*
Y0062919D01*
X0017495Y0025882D02*
Y0023213D01*
X0011641Y0025392D02*
X0014557Y0022477D01*
X0014030Y0025566D02*
Y0023004D01*
X0012627Y0025920D02*
X0012299D01*
X0014081Y0019935D02*
X0012119D01*
X0031784Y0032850D02*
X0008175D01*
X0020484Y0019620D02*
X0018701D01*
X0009015Y0019956D02*
Y0019743D01*
X0014030Y0027219D02*
Y0027022D01*
X0005335Y0028755D02*
X0001234D01*
X0012828Y0039780D02*
X0008175D01*
X0012767Y0027495D02*
X0010259D01*
X0005204Y0023085D02*
X0001234D01*
X0009111D02*
X0008915D01*
X0009935Y0043647D02*
Y0030444D01*
X0010250Y0033481D02*
Y0030444D01*
X0012828Y0038205D02*
X0008175D01*
X0005840Y0054096D02*
Y0047291D01*
X0007475Y0025591D02*
Y0025274D01*
X0006470Y0044475D02*
Y0043504D01*
X0012670Y0028541D02*
X0011804D01*
X0009620Y0043636D02*
Y0030444D01*
X0012828Y0041355D02*
X0008175D01*
X0009825Y0047970D02*
X0009482D01*
X0013085Y0044475D02*
Y0044319D01*
X0009825Y0049230D02*
X0009590D01*
X0009825Y0048285D02*
X0009607D01*
X0012828Y0041040D02*
X0008175D01*
X0009974Y0046395D02*
X0006839D01*
X0027483Y0027495D02*
X0026779D01*
X0010100Y0034110D02*
X0008175D01*
X0012455Y0021561D02*
Y0019809D01*
X0009305Y0046835D02*
Y0046225D01*
X0008675Y0046669D02*
Y0046225D01*
X0009825Y0050200D02*
Y0046800D01*
X0021905Y0047951D02*
Y0047836D01*
X0009825Y0049860D02*
X0009548D01*
X0010824Y0051750D02*
X0009593D01*
X0010880Y0052107D02*
Y0051881D01*
X0009831Y0046710D02*
X0009065D01*
X0009620Y0053344D02*
Y0052643D01*
X0010940Y0053010D02*
X0009477D01*
X0012828Y0038520D02*
X0008175D01*
X0014030Y0044475D02*
Y0044319D01*
X0010880Y0054107D02*
Y0053881D01*
X0012828Y0036630D02*
X0008175D01*
X0029459Y0026644D02*
X0029156D01*
X0026630Y0027346D02*
Y0025419D01*
X0020184Y0058680D02*
X0019734D01*
X0022934Y0053219D02*
Y0052983D01*
X0023257Y0057735D02*
X0022909D01*
X0020184Y0059206D02*
X0020139D01*
X0005840Y0060746D02*
Y0060469D01*
X0014707Y0060255D02*
X0010303D01*
X0017909Y0062919D02*
X0012284D01*
X0020148Y0070650D02*
X0012769D01*
X0011240Y0064035D02*
X0006154D01*
X0011195Y0061146D02*
Y0059165D01*
X0001818Y0037575D02*
X0001234D01*
X0004580Y0061107D02*
Y0060469D01*
X0008045Y0065926D02*
Y0060469D01*
X0008360Y0066241D02*
Y0060469D01*
X0008045Y0059219D02*
Y0059201D01*
X0015920Y0076294D02*
Y0073294D01*
X0005210Y0056269D02*
Y0047319D01*
X0018125Y0059869D02*
Y0059185D01*
X0012455Y0070336D02*
Y0062919D01*
X0013715Y0044475D02*
Y0044319D01*
Y0032991D02*
Y0031819D01*
X0019195Y0024450D02*
X0018761Y0024016D01*
X0029150Y0042400D02*
Y0032051D01*
X0031784Y0040410D02*
X0023489D01*
X0030024Y0045450D02*
X0028694D01*
X0022353Y0068445D02*
X0017181D01*
X0023235Y0058680D02*
X0022909D01*
X0021909Y0061394D02*
X0021779D01*
X0023285Y0056790D02*
X0022909D01*
X0027708Y0063090D02*
X0022284D01*
X0016550Y0078619D02*
Y0078289D01*
X0016235Y0078619D02*
Y0078294D01*
X0015920Y0078619D02*
Y0078294D01*
X0017784Y0074430D02*
X0015134D01*
X0017090Y0078210D02*
X0016827D01*
X0017495Y0078619D02*
Y0078293D01*
X0017784Y0075375D02*
X0015134D01*
X0001745Y0040372D02*
Y0037510D01*
X0004264Y0045450D02*
X0002943D01*
X0006225Y0036315D02*
X0003376D01*
X0007504Y0017730D02*
X0002920D01*
X0002690Y0035777D02*
Y0019135D01*
X0002375Y0035754D02*
Y0019328D01*
X0002060Y0044629D02*
Y0042050D01*
X0007318Y0018045D02*
X0003045D01*
X0001234Y0044670D02*
Y0019141D01*
X0004895Y0019719D02*
Y0017469D01*
X0007253Y0018990D02*
X0002830D01*
X0007243Y0018675D02*
X0003006D01*
X0031784Y0020880D02*
X0029351D01*
X0007560Y0019620D02*
X0001234D01*
X0030598Y0057105D02*
X0029224D01*
X0029598Y0061200D02*
X0028402D01*
X0027676Y0053325D02*
X0025031D01*
X0027993Y0057105D02*
X0024981D01*
X0031784Y0056160D02*
X0029576D01*
X0027890Y0060766D02*
Y0057026D01*
X0029465Y0053544D02*
Y0053467D01*
X0031784Y0055530D02*
X0029598D01*
X0004814Y0059210D02*
X0003809D01*
X0029283Y0061515D02*
X0028538D01*
X0031784Y0055845D02*
X0029479D01*
X0017784Y0078525D02*
X0015134D01*
X0018755Y0021706D02*
Y0019192D01*
X0015641Y0021392D02*
X0015909Y0021125D01*
X0018139Y0023715D02*
X0017229D01*
X0017810Y0027219D02*
Y0023148D01*
X0022659Y0029244D02*
X0015378D01*
X0015290Y0027219D02*
Y0023198D01*
X0016934Y0064980D02*
X0007099D01*
X0021590Y0039475D02*
Y0038419D01*
X0025685Y0030269D02*
Y0028239D01*
X0019779Y0021706D02*
X0018175D01*
X0023795Y0026173D02*
Y0025419D01*
X0023165Y0022599D02*
Y0021091D01*
X0019211Y0027180D02*
X0017135D01*
X0018755Y0025701D02*
Y0024016D01*
X0020184Y0057735D02*
X0019707D01*
X0017180Y0076341D02*
Y0073294D01*
X0017784Y0073800D02*
X0015134D01*
X0016309Y0073294D02*
X0015609D01*
X0014975Y0071294D02*
Y0064786D01*
X0015134Y0076294D02*
Y0073294D01*
X0016865Y0071294D02*
Y0070332D01*
X0022668Y0068130D02*
X0010249D01*
X0020463Y0070335D02*
X0016858D01*
X0020778Y0070020D02*
X0017305D01*
X0021093Y0069705D02*
X0017495D01*
X0021408Y0069390D02*
X0017569D01*
X0007100Y0064981D02*
Y0060469D01*
X0015605Y0071294D02*
Y0070011D01*
X0007415Y0065296D02*
Y0060469D01*
X0005525Y0063406D02*
Y0062907D01*
X0005840Y0063721D02*
Y0062842D01*
X0006470Y0061324D02*
Y0060469D01*
X0015605Y0076294D02*
Y0073294D01*
X0005210Y0063091D02*
Y0062881D01*
X0010650Y0063405D02*
X0005524D01*
X0014609Y0072489D02*
X0004842Y0062723D01*
X0015159Y0061669D02*
X0012284D01*
X0020139Y0059310D02*
X0009333D01*
X0010634Y0062460D02*
X0006353D01*
X0008675Y0059219D02*
Y0059178D01*
X0029780Y0061018D02*
Y0044719D01*
X0029465Y0061333D02*
Y0056867D01*
X0026945Y0060804D02*
Y0057019D01*
X0027890Y0062908D02*
Y0062822D01*
X0027575Y0063223D02*
Y0062903D01*
X0015791Y0023400D02*
X0013634D01*
X0027260Y0063538D02*
Y0062891D01*
X0026945Y0063853D02*
Y0062783D01*
X0028388Y0062410D02*
X0031254Y0059544D01*
X0028520Y0062278D02*
Y0062136D01*
X0028653Y0062145D02*
X0028517D01*
X0017180Y0071294D02*
Y0070144D01*
X0016865Y0076397D02*
Y0073294D01*
X0018258Y0072540D02*
X0017309D01*
X0016235Y0076294D02*
Y0073294D01*
X0020184Y0058995D02*
X0019498D01*
X0026945Y0030269D02*
Y0029499D01*
X0018755Y0072043D02*
Y0067419D01*
X0005856Y0047970D02*
X0001234D01*
X0025109Y0052065D02*
X0024965D01*
X0026945Y0053769D02*
Y0051699D01*
X0018184Y0043875D02*
X0018052D01*
X0027310Y0052065D02*
X0026809D01*
X0023480Y0039475D02*
Y0037033D01*
X0023165Y0039475D02*
Y0037627D01*
X0031784Y0040095D02*
X0023489D01*
X0031784Y0037260D02*
X0023389D01*
X0022220Y0039475D02*
Y0038308D01*
X0021905Y0039475D02*
Y0038389D01*
X0021275Y0039475D02*
Y0038419D01*
X0020960Y0039475D02*
Y0038419D01*
X0018439Y0039780D02*
X0014511D01*
X0019039Y0035055D02*
X0014511D01*
X0020330Y0039475D02*
Y0038406D01*
X0020015Y0039475D02*
Y0038344D01*
X0019700Y0039475D02*
Y0038228D01*
X0019385Y0039475D02*
Y0038044D01*
X0031784Y0039150D02*
X0014511D01*
X0022535Y0039475D02*
Y0038168D01*
X0031784Y0038520D02*
X0014511D01*
X0031784Y0038205D02*
X0022465D01*
X0026945Y0035564D02*
Y0032319D01*
X0027575Y0035378D02*
Y0032113D01*
X0031784Y0037890D02*
X0022923D01*
X0022850Y0034834D02*
Y0029215D01*
X0026855Y0036630D02*
X0023570D01*
X0026703Y0036315D02*
X0023582D01*
X0031784Y0036000D02*
X0028220D01*
X0026834Y0035685D02*
X0023455D01*
X0031784Y0035370D02*
X0027498D01*
X0006225Y0038835D02*
X0001234D01*
X0001791Y0036000D02*
X0001234D01*
X0006225Y0038205D02*
X0001234D01*
X0006225Y0037575D02*
X0003102D01*
X0001745Y0044582D02*
Y0041841D01*
X0006225Y0036945D02*
X0003471D01*
X0006225Y0036630D02*
X0003475D01*
X0001449Y0036945D02*
X0001234D01*
X0002690Y0040108D02*
Y0037775D01*
X0002375Y0040085D02*
Y0037797D01*
X0006225Y0037260D02*
X0003364D01*
X0003635Y0046045D02*
Y0017469D01*
X0001545Y0036315D02*
X0001234D01*
X0006225Y0042615D02*
X0001234D01*
X0006225Y0041985D02*
X0002989D01*
X0006225Y0041670D02*
X0003316D01*
X0006225Y0041355D02*
X0003455D01*
X0004265Y0033159D02*
Y0028282D01*
X0001745Y0036042D02*
Y0019388D01*
X0001509Y0040725D02*
X0001234D01*
X0002690Y0045023D02*
Y0042105D01*
X0002375Y0044763D02*
Y0042128D01*
X0006225Y0035370D02*
X0001234D01*
X0016205Y0044475D02*
X0011943D01*
X0010122Y0033795D02*
X0008175D01*
X0012140Y0043745D02*
Y0034137D01*
X0011825Y0043117D02*
Y0034765D01*
X0011510Y0042914D02*
Y0034968D01*
X0012828Y0042930D02*
X0011547D01*
X0010880Y0042866D02*
Y0035016D01*
X0012828Y0035055D02*
X0008175D01*
X0010250Y0043323D02*
Y0034559D01*
X0012828Y0034740D02*
X0011851D01*
X0012828Y0034425D02*
X0012063D01*
X0012828Y0034110D02*
X0012143D01*
X0012828Y0033795D02*
X0012122D01*
X0018439Y0042930D02*
X0017453D01*
X0012140Y0044475D02*
Y0043979D01*
Y0028541D02*
Y0026912D01*
X0012284Y0061469D02*
X0011517D01*
X0013400Y0044475D02*
Y0044319D01*
X0012339Y0030444D02*
X0009279D01*
X0012828Y0044190D02*
X0012093D01*
X0012828Y0043875D02*
X0012146D01*
X0005656Y0047319D02*
X0004517D01*
X0009825Y0047025D02*
X0009487D01*
X0029959Y0046080D02*
X0028811D01*
X0009825Y0047655D02*
X0009618D01*
X0006225Y0041040D02*
X0003483D01*
X0005525Y0042885D02*
Y0034766D01*
X0010303Y0043245D02*
X0009179D01*
X0025370Y0053769D02*
Y0052394D01*
X0019518Y0071280D02*
X0013399D01*
X0004265Y0045448D02*
Y0044244D01*
X0015290Y0044475D02*
Y0031994D01*
X0003950Y0056269D02*
Y0047461D01*
X0016765Y0029700D02*
X0016161D01*
X0018439Y0040410D02*
X0014511D01*
X0016550Y0042955D02*
Y0034927D01*
X0016865Y0033008D02*
Y0031994D01*
X0004866Y0045024D02*
X0005031Y0044870D01*
X0017810Y0043200D02*
Y0034682D01*
X0017495Y0042950D02*
Y0034932D01*
X0003358Y0047025D02*
X0002374D01*
X0018662Y0035685D02*
X0014511D01*
X0016865Y0042850D02*
Y0035032D01*
X0021905Y0034399D02*
Y0029244D01*
X0019390Y0034740D02*
X0017757D01*
X0031784Y0034425D02*
X0022031D01*
X0031784Y0034110D02*
X0018048D01*
X0006225Y0034425D02*
X0005764D01*
X0006225Y0029559D02*
Y0029157D01*
X0005210Y0042837D02*
Y0034968D01*
X0004398Y0043245D02*
X0001234D01*
X0003951Y0033480D02*
X0001234D01*
X0003284Y0046710D02*
X0002736D01*
X0010880Y0029144D02*
Y0027009D01*
X0003822Y0033795D02*
X0001234D01*
X0005525Y0033273D02*
Y0032509D01*
X0004256Y0033165D02*
X0001234D01*
X0006225Y0034740D02*
X0005551D01*
X0005840Y0043049D02*
Y0034142D01*
X0018440Y0043630D02*
Y0032016D01*
X0026630Y0042344D02*
Y0032265D01*
X0026584Y0043469D02*
X0023489D01*
X0026584Y0042930D02*
X0023489D01*
X0031784Y0042300D02*
X0023489D01*
X0031784Y0041985D02*
X0023489D01*
X0031784Y0041670D02*
X0023489D01*
X0031784Y0041355D02*
X0023489D01*
X0021700Y0027219D02*
X0017081D01*
X0026000Y0046769D02*
Y0045219D01*
X0022307Y0050490D02*
X0022028D01*
X0029609Y0053544D02*
X0029407D01*
X0018139Y0023149D02*
Y0023053D01*
X0030334Y0043236D02*
Y0043219D01*
X0022850Y0039475D02*
Y0037954D01*
X0018599Y0043525D02*
X0018439D01*
X0020645Y0025882D02*
Y0024644D01*
X0007415Y0022541D02*
Y0019435D01*
X0022762Y0023085D02*
X0019779D01*
X0025685Y0022284D02*
Y0017469D01*
X0022535Y0034620D02*
Y0029244D01*
X0020309Y0061830D02*
X0019256D01*
X0026945Y0021024D02*
Y0017469D01*
X0006785Y0044475D02*
Y0043818D01*
X0026459Y0021510D02*
X0022431D01*
X0022434Y0019469D02*
Y0018519D01*
X0020645Y0039475D02*
Y0038419D01*
X0021275Y0018519D02*
Y0017469D01*
X0021590Y0023344D02*
Y0022365D01*
X0027575Y0019865D02*
Y0017469D01*
X0005525Y0019719D02*
Y0017469D01*
X0020960Y0020635D02*
Y0020369D01*
X0031784Y0019620D02*
X0029126D01*
X0002979Y0056790D02*
X0001234D01*
X0029150Y0061648D02*
Y0057148D01*
X0005856Y0048915D02*
X0001234D01*
X0001745Y0059626D02*
Y0059544D01*
X0001234Y0057018D02*
Y0047117D01*
X0002375Y0057088D02*
Y0047024D01*
X0002060Y0056961D02*
Y0047158D01*
X0003320Y0046459D02*
Y0041665D01*
X0027434Y0045436D02*
Y0045353D01*
X0031784Y0047970D02*
X0029609D01*
X0031784Y0057024D02*
Y0047097D01*
X0031670Y0056982D02*
Y0047140D01*
X0031040Y0056940D02*
Y0047188D01*
X0031355Y0056922D02*
Y0047203D01*
X0031784Y0043245D02*
X0031590D01*
X0030725Y0060073D02*
Y0059425D01*
X0031040Y0044600D02*
Y0044496D01*
X0012828Y0042300D02*
X0008234D01*
X0011517Y0061469D02*
X0009452Y0059404D01*
X0001745Y0056920D02*
Y0047206D01*
X0005204Y0023400D02*
X0001234D01*
X0012191Y0021825D02*
X0006744D01*
X0006470Y0023059D02*
Y0022669D01*
X0005840Y0023059D02*
Y0022669D01*
X0021275Y0069523D02*
Y0067419D01*
X0019070Y0039475D02*
Y0037767D01*
X0007475Y0025591D02*
X0007806Y0025260D01*
X0014345Y0017500D02*
Y0017469D01*
X0027791Y0019620D02*
X0022965D01*
X0009620Y0022414D02*
Y0019956D01*
X0021590Y0018519D02*
Y0017469D01*
X0004294Y0020880D02*
X0001234D01*
X0004207Y0024030D02*
X0001234D01*
X0009305Y0059294D02*
Y0059121D01*
X0016027Y0033795D02*
X0014511D01*
X0005210Y0033071D02*
Y0032509D01*
X0004193Y0026235D02*
X0001234D01*
X0004256Y0027180D02*
X0001234D01*
X0006225Y0036000D02*
X0003130D01*
X0010880Y0033024D02*
Y0030444D01*
X0012828Y0036315D02*
X0008175D01*
X0031784Y0049230D02*
X0029575D01*
X0006225Y0033480D02*
X0005694D01*
X0004294Y0021510D02*
X0001234D01*
X0012828Y0036000D02*
X0008175D01*
X0009279Y0030516D02*
X0008175D01*
X0009825Y0049545D02*
X0009632D01*
X0010141Y0046225D02*
X0007009D01*
X0009825Y0050175D02*
X0009569D01*
X0012828Y0042615D02*
X0008549D01*
X0010791Y0052380D02*
X0009626D01*
X0031784Y0050805D02*
X0029587D01*
X0031784Y0048915D02*
X0029605D01*
X0031784Y0050490D02*
X0029449D01*
X0029609Y0048844D02*
X0029595D01*
X0009620Y0026485D02*
Y0026325D01*
X0007904Y0052065D02*
X0007439D01*
X0010737Y0026865D02*
X0010163D01*
X0010808Y0052695D02*
X0009609D01*
X0008045Y0025109D02*
Y0024163D01*
X0014661Y0064350D02*
X0006469D01*
X0012746Y0026865D02*
X0012180D01*
X0028205Y0047144D02*
Y0046655D01*
X0029150Y0047144D02*
Y0044719D01*
X0027575Y0053769D02*
Y0052329D01*
X0030410Y0057241D02*
Y0046895D01*
X0027260Y0030314D02*
Y0029807D01*
X0028835Y0019475D02*
Y0017469D01*
X0029610Y0030330D02*
X0028807D01*
X0017180Y0017504D02*
Y0017469D01*
X0031784Y0056790D02*
X0029511D01*
X0027890Y0035500D02*
Y0032147D01*
X0004294Y0031590D02*
X0001234D01*
X0027260Y0042344D02*
Y0036893D01*
X0012767Y0028440D02*
X0009279D01*
X0030410Y0030374D02*
Y0019264D01*
X0031355Y0044585D02*
Y0044360D01*
X0031784Y0032535D02*
X0008175D01*
X0031784Y0029385D02*
X0029459D01*
X0030725Y0042955D02*
Y0031975D01*
X0031784Y0029700D02*
X0029459D01*
X0031784Y0032220D02*
X0030398D01*
X0026697Y0036000D02*
X0023545D01*
X0019700Y0059619D02*
Y0058749D01*
X0002534Y0059310D02*
X0002480D01*
X0022735Y0023344D02*
X0019928D01*
X0024425Y0026644D02*
Y0025419D01*
X0022284Y0063119D02*
X0022275D01*
X0014975Y0061669D02*
Y0061582D01*
X0022535Y0063469D02*
Y0061037D01*
X0017784Y0074745D02*
X0015134D01*
X0007730Y0059219D02*
Y0059191D01*
X0019070Y0063469D02*
Y0062016D01*
X0014660Y0027219D02*
Y0022750D01*
X0016235Y0063469D02*
Y0062919D01*
X0020650Y0063405D02*
X0015642D01*
X0019064Y0060255D02*
X0018384D01*
X0015920Y0063469D02*
Y0062919D01*
X0016534Y0061669D02*
X0015759D01*
X0016534Y0061515D02*
X0016038D01*
X0016534Y0061200D02*
X0016290D01*
X0016534Y0060885D02*
X0016379D01*
X0016534Y0060570D02*
X0016356D01*
X0010634Y0062353D02*
X0008750Y0060469D01*
X0019070Y0025460D02*
Y0024324D01*
X0012828Y0040410D02*
X0008175D01*
X0016865Y0063469D02*
Y0062919D01*
X0018440Y0063469D02*
Y0062646D01*
X0026400Y0062145D02*
X0022284D01*
X0020634Y0062460D02*
X0018626D01*
X0020634Y0062775D02*
X0018308D01*
X0023193Y0054270D02*
X0022909D01*
X0012770Y0017746D02*
Y0017469D01*
X0007506Y0047442D02*
X0007497D01*
X0006155Y0049337D02*
Y0049092D01*
X0007534Y0053140D02*
Y0052569D01*
Y0050069D02*
X0007525D01*
X0009825Y0048600D02*
X0009627D01*
X0026630Y0046769D02*
Y0045219D01*
X0005865Y0047442D02*
X0005856D01*
X0007415Y0049522D02*
Y0049092D01*
X0005989Y0049545D02*
X0001234D01*
X0005856Y0048600D02*
X0001234D01*
X0009279Y0029072D02*
Y0028206D01*
X0025055Y0046769D02*
Y0045219D01*
X0008990Y0046689D02*
Y0046225D01*
X0007100Y0049222D02*
Y0049092D01*
X0005892Y0052569D02*
X0005884D01*
X0005978Y0052065D02*
X0001234D01*
X0007415Y0052022D02*
Y0051719D01*
X0023165Y0063469D02*
Y0052807D01*
X0007848Y0050175D02*
X0007534D01*
X0016235Y0025201D02*
Y0024536D01*
X0024110Y0022669D02*
Y0017469D01*
X0005865Y0056160D02*
X0001234D01*
X0008750Y0060469D02*
X0003559D01*
X0005811Y0055215D02*
X0001234D01*
X0023186Y0053325D02*
X0022909D01*
X0010539Y0054644D02*
X0010790Y0054394D01*
X0014660Y0044475D02*
Y0031994D01*
X0009578Y0043644D02*
X0008175Y0042241D01*
X0016235Y0043212D02*
Y0034670D01*
X0016056Y0044190D02*
X0014511D01*
X0016002Y0043875D02*
X0014511D01*
X0016209Y0043245D02*
X0014511D01*
X0031784Y0040725D02*
X0023489D01*
X0018439Y0042615D02*
X0014511D01*
X0018439Y0042300D02*
X0014511D01*
X0018439Y0041985D02*
X0014511D01*
X0018439Y0041670D02*
X0014511D01*
X0018439Y0041355D02*
X0014511D01*
X0019070Y0021706D02*
Y0017469D01*
X0014345Y0044475D02*
Y0044319D01*
X0018139Y0024016D02*
Y0023149D01*
X0012828Y0033480D02*
X0011993D01*
X0031784Y0042930D02*
X0031089D01*
X0018439Y0040095D02*
X0014511D01*
X0031784Y0039780D02*
X0023489D01*
X0031784Y0039465D02*
X0014511D01*
X0007415Y0025007D02*
Y0023947D01*
X0031784Y0038835D02*
X0014511D01*
X0019652Y0038205D02*
X0014511D01*
X0019194Y0037890D02*
X0014511D01*
X0018914Y0037575D02*
X0014511D01*
X0018728Y0037260D02*
X0014511D01*
X0018610Y0036945D02*
X0014511D01*
X0018547Y0036630D02*
X0014511D01*
X0018535Y0036315D02*
X0014511D01*
X0018572Y0036000D02*
X0014511D01*
X0018811Y0035370D02*
X0014511D01*
X0012828Y0033165D02*
X0011687D01*
X0016298Y0034740D02*
X0014511D01*
X0016086Y0034425D02*
X0014511D01*
X0016006Y0034110D02*
X0014511D01*
X0003881Y0034425D02*
X0001234D01*
X0008045Y0022325D02*
Y0019911D01*
X0018125Y0017500D02*
Y0017469D01*
X0016156Y0033480D02*
X0014511D01*
X0031784Y0048285D02*
X0029609D01*
X0026584Y0043245D02*
X0023489D01*
X0015609Y0071294D02*
X0014609D01*
X0022535Y0023344D02*
Y0021416D01*
X0008675Y0042741D02*
Y0030516D01*
X0029465Y0030396D02*
Y0017469D01*
X0017309Y0071294D02*
X0016309D01*
X0022934Y0053219D02*
X0022909D01*
X0027609Y0053010D02*
X0024939D01*
X0018350Y0062736D02*
X0020139Y0060948D01*
X0009166Y0060885D02*
X0006104D01*
X0007247Y0018360D02*
X0003072D01*
X0028520Y0019444D02*
Y0017469D01*
X0016235Y0065666D02*
Y0064719D01*
X0022284Y0061469D02*
X0021779D01*
X0022850Y0063469D02*
Y0060664D01*
X0026564Y0062460D02*
X0022284D01*
X0012140Y0070021D02*
Y0063704D01*
X0006785Y0049127D02*
Y0049092D01*
X0014975Y0027219D02*
Y0023076D01*
X0028684Y0045436D02*
Y0045094D01*
X0031784Y0030960D02*
X0030928D01*
X0002717Y0057052D02*
X0003315Y0056454D01*
X0017784Y0074115D02*
X0015134D01*
X0016309Y0076294D02*
X0015134D01*
X0015609Y0073294D02*
X0015134D01*
G01X0011122Y0032995D02*
G03X0012147Y0034020I0000000J0001025D01*
G03X0011122Y0035045I0001025J0000000D01*
G03X0010097Y0034020I0000000J0001025D01*
G01X0011122Y0042837D02*
G03X0012147Y0043862I0000000J0001025D01*
G01X0004191D02*
G03X0005216Y0042837I0001025J0000000D01*
G03X0006241Y0043862I0000000J0001025D01*
G01X0016002D02*
G03X0017027Y0042837I0001025J0000000D01*
G03X0018052Y0043862I0000000J0001025D01*
G01X0016002Y0034020D02*
G03X0017027Y0032995I0001025J0000000D01*
G03X0018052Y0034020I0000000J0001025D01*
G03X0017027Y0035045I0001025J0000000D01*
G03X0016002Y0034020I0000000J0001025D01*
G01X0003797D02*
G03X0004822Y0032995I0001025J0000000D01*
G03X0005847Y0034020I0000000J0001025D01*
G03X0004822Y0035045I0001025J0000000D01*
G03X0003797Y0034020I0000000J0001025D01*
G01X0025015Y0045219D02*
G03X0025034Y0045394I0000806J0000175D01*
G01X0021409Y0022369D02*
G03X0020484Y0021444I0000000J0000925D01*
G03X0021409Y0020519I0000925J0000000D01*
G01X0022434Y0021444D02*
G03X0021509Y0022369I0000925J0000000D01*
G01X0023384Y0020494D02*
G03X0022459Y0021419I0000925J0000000D01*
Y0019469D02*
G03X0023384Y0020394I0000000J0000925D01*
G01X0001709Y0044582D02*
G03X0003021Y0045894I0000000J0001312D01*
G03X0001709Y0047206I0001312J0000000D01*
G01X0031259D02*
G03X0029947Y0045894I0000000J0001312D01*
G01X0029958Y0058232D02*
G03X0031271Y0056919I0001313J0000000D01*
G01X0002588Y0057238D02*
G03X0002717Y0057052I0000571J0000256D01*
G01X0019814Y0058310D02*
G03X0018914Y0059210I0000900J0000000D01*
G01X0018414Y0059058D02*
G03X0017914Y0059210I0000500J0000748D01*
G01X0009009Y0059219D02*
G03X0009450Y0059402I0000000J0000625D01*
G01X0002534Y0059270D02*
G03X0001731Y0059544I0000803J0001038D01*
G01X0018914Y0059210D02*
G03X0018414Y0059058I0000000J0000900D01*
G01X0027621Y0027794D02*
G03X0027459Y0027294I0000688J0000500D01*
G01X0014414Y0059058D02*
G03X0013914Y0059210I0000500J0000748D01*
G01X0015159Y0061669D02*
G03X0014534Y0060794I0000300J0000875D01*
G01X0014914Y0059210D02*
G03X0014414Y0059058I0000000J0000900D01*
G01X0010414D02*
G03X0009914Y0059210I0000500J0000748D01*
G01X0009414Y0059058D02*
G03X0008914Y0059210I0000500J0000748D01*
G01X0011914D02*
G03X0011414Y0059058I0000000J0000900D01*
G01X0010914Y0059210D02*
G03X0010414Y0059058I0000000J0000900D01*
G01X0015914Y0059210D02*
G03X0015414Y0059058I0000000J0000900D01*
G01X0007414D02*
G03X0006914Y0059210I0000500J0000748D01*
G01X0002717Y0059886D02*
G03X0002534Y0059444I0000442J0000442D01*
G01X0006414Y0059058D02*
G03X0005914Y0059210I0000500J0000748D01*
G01X0004959Y0028624D02*
G03X0004084Y0027749I0000000J0000875D01*
Y0024479D02*
G03X0004959Y0023604I0000875J0000000D01*
G01X0004084Y0027749D02*
G03X0004274Y0027204I0000875J0000000D01*
G01X0004084Y0026659D02*
G03X0004274Y0026114I0000875J0000000D01*
G01X0010784Y0053494D02*
G03X0010952Y0052994I0000825J0000000D01*
G03X0010783Y0052494I0000657J0000500D01*
G01X0010952Y0053994D02*
G03X0010783Y0053494I0000657J0000500D01*
G01X0023352Y0052894D02*
G03X0023251Y0052721I0000657J0000500D01*
G01X0010008Y0050642D02*
G03X0009825Y0050200I0000442J0000442D01*
G01X0010750Y0051125D02*
G03X0010308Y0050942I0000000J0000625D01*
G01X0009825Y0046800D02*
G03X0010008Y0046358I0000625J0000000D01*
G01X0024865Y0045894D02*
G03X0025034Y0046394I0000656J0000500D01*
G01X0007784Y0047494D02*
G03X0008609Y0046669I0000825J0000000D01*
G01X0008809D02*
G03X0009634Y0047494I0000000J0000825D01*
G01X0007784Y0048494D02*
G03X0007952Y0047994I0000825J0000000D01*
G01X0009634Y0049494D02*
G03X0009465Y0049994I0000825J0000000D01*
G01X0007952Y0050994D02*
G03X0007783Y0050494I0000657J0000500D01*
G01X0009465Y0052994D02*
G03X0009634Y0053494I0000656J0000500D01*
G01X0007534Y0052449D02*
G03X0007525Y0052569I0000825J0000000D01*
G01X0009634Y0047494D02*
G03X0009465Y0047994I0000825J0000000D01*
G01X0029446Y0052494D02*
G03X0029609Y0052994I0000687J0000500D01*
G01X0029595Y0055244D02*
G03X0029608Y0055394I0000836J0000150D01*
G01X0029609Y0051994D02*
G03X0029446Y0052494I0000850J0000000D01*
G01X0027761Y0052508D02*
G03X0027699Y0052453I0000398J0000514D01*
G01X0011414Y0059058D02*
G03X0010914Y0059210I0000500J0000748D01*
G01X0025445Y0064551D02*
G03X0025584Y0064994I0000636J0000443D01*
G01X0016384Y0060794D02*
G03X0015759Y0061669I0000925J0000000D01*
G01X0029446Y0051494D02*
G03X0029609Y0051994I0000687J0000500D01*
G01X0029595Y0048844D02*
G03X0029608Y0048994I0000836J0000150D01*
G01X0029446Y0050494D02*
G03X0029609Y0050994I0000687J0000500D01*
G01X0009459Y0026469D02*
G03X0010284Y0027294I0000000J0000825D01*
G03X0009459Y0028119I0000825J0000000D01*
G01X0029959Y0030269D02*
G03X0030984Y0031294I0000000J0001025D01*
G03X0029959Y0032319I0001025J0000000D01*
G01X0014534Y0060794D02*
G03X0015459Y0059869I0000925J0000000D01*
G03X0016384Y0060794I0000000J0000925D01*
G01X0018350Y0062736D02*
G03X0017909Y0062918I0000441J0000442D01*
G01X0012284Y0063239D02*
G03X0011459Y0064064I0000825J0000000D01*
G03X0010634Y0063239I0000000J0000825D01*
G01X0020666Y0063469D02*
G03X0020633Y0063239I0000793J0000230D01*
G01X0007887Y0052894D02*
G03X0007784Y0052494I0000722J0000400D01*
G01X0007952Y0047994D02*
G03X0007783Y0047494I0000657J0000500D01*
G01X0007952Y0049994D02*
G03X0007783Y0049494I0000657J0000500D01*
G01X0023184Y0045394D02*
G03X0023202Y0045219I0000825J0000000D01*
G01X0022034Y0050394D02*
G03X0022014Y0050574I0000825J0000000D01*
G01X0007506Y0047321D02*
G03X0007497Y0047442I0000825J0000000D01*
G01X0005916Y0056269D02*
G03X0005811Y0055867I0000720J0000402D01*
G01X0005884Y0049949D02*
G03X0006709Y0049124I0000825J0000000D01*
G03X0007534Y0049949I0000000J0000825D01*
G01X0005811Y0055867D02*
G03X0005820Y0055746I0000825J0000000D01*
G01X0026959Y0030269D02*
G03X0027709Y0030595I0000000J0001025D01*
G01X0027708D02*
G03X0028459Y0030268I0000751J0000699D01*
G01X0018426Y0043643D02*
G03X0018599Y0043525I0000433J0000451D01*
G01X0021534Y0020394D02*
G03X0021534Y0020369I0000925J0000000D01*
G01X0020634Y0063239D02*
G03X0020642Y0063119I0000825J0000000D01*
G01X0016379Y0030294D02*
G03X0016309Y0030644I0000920J0000000D01*
G01X0027708Y0031992D02*
G03X0026959Y0032318I0000749J0000698D01*
G01X0005459Y0062909D02*
G03X0004842Y0062723I0000000J0001115D01*
G01X0012767Y0026890D02*
G03X0012548Y0026294I0000701J0000596D01*
G01X0012438Y0017469D02*
G03X0013017Y0018447I0000536J0000978D01*
G01X0010539Y0026318D02*
G03X0010450Y0026324I0000089J0000618D01*
G01X0017459Y0078294D02*
G03X0016959Y0078131I0000000J0000850D01*
G01X0003317Y0056452D02*
G03X0003759Y0056269I0000442J0000442D01*
G01X0005250Y0028574D02*
G03X0004959Y0028624I0000291J0000825D01*
G01X0005857Y0047285D02*
G03X0005656Y0047318I0000201J0000591D01*
G01X0007534Y0049949D02*
G03X0007525Y0050069I0000825J0000000D01*
G01X0005892D02*
G03X0005883Y0049949I0000817J0000120D01*
G01X0007952Y0048994D02*
G03X0007783Y0048494I0000657J0000500D01*
G01X0005857Y0047285D02*
G03X0005656Y0047318I0000201J0000591D01*
G01X0007292Y0024832D02*
G03X0007475Y0025274I0000442J0000442D01*
G01X0001234Y0044670D02*
G03X0001709Y0044581I0000475J0001224D01*
Y0047206D02*
G03X0001234Y0047117I0000000J0001312D01*
G01X0004059Y0045919D02*
G03X0004196Y0045931I0000000J0000775D01*
G01X0026484Y0030386D02*
G03X0026959Y0030269I0000475J0000908D01*
G01X0004274Y0027204D02*
G03X0004084Y0026659I0000685J0000545D01*
G01X0006079Y0029169D02*
G03X0005250Y0028574I0000000J0000875D01*
G01X0004274Y0025024D02*
G03X0004084Y0024479I0000685J0000545D01*
G01X0002588Y0057238D02*
G03X0002717Y0057052I0000571J0000256D01*
G01X0004529Y0062410D02*
G03X0004343Y0061794I0000930J0000616D01*
G01X0002588Y0057238D02*
G03X0002717Y0057052I0000571J0000256D01*
G01X0009711Y0024111D02*
G03X0009098Y0023244I0000307J0000867D01*
G01X0029296Y0024294D02*
G03X0029459Y0024794I0000687J0000500D01*
G01X0019698Y0057719D02*
G03X0019814Y0058160I0000784J0000441D01*
G01X0003284Y0046694D02*
G03X0004059Y0045919I0000775J0000000D01*
Y0047469D02*
G03X0003284Y0046694I0000000J0000775D01*
G01X0004184Y0045794D02*
G03X0004866Y0045024I0000775J0000000D01*
G01X0031000Y0044536D02*
G03X0030850Y0044647I0000441J0000442D01*
G01X0030959Y0042919D02*
G03X0031734Y0043694I0000000J0000775D01*
G01X0018426Y0043643D02*
G03X0018599Y0043525I0000433J0000451D01*
G01X0009750Y0043625D02*
G03X0010107Y0043712I0000000J0000775D01*
G01X0010790Y0054394D02*
G03X0010952Y0053994I0000819J0000100D01*
G01X0005856Y0047321D02*
G03X0005857Y0047285I0000825J0000000D01*
G01X0027810Y0053544D02*
G03X0027608Y0052994I0000649J0000550D01*
G01X0016959Y0065169D02*
G03X0016939Y0064994I0000750J0000175D01*
G01X0014159Y0031994D02*
G03X0013699Y0031803I0000000J0000650D01*
G01X0015928Y0064719D02*
G03X0015409Y0064919I0000519J0000575D01*
G01X0016209Y0067569D02*
G03X0015434Y0066794I0000000J0000775D01*
G01X0016187Y0066019D02*
G03X0016183Y0065944I0000772J0000075D01*
G01X0016667Y0067419D02*
G03X0016209Y0067569I0000458J0000625D01*
G01X0001959Y0019409D02*
G03X0001234Y0019141I0000000J0001115D01*
G01X0021865Y0048894D02*
G03X0022034Y0049394I0000656J0000500D01*
G01X0023187Y0048469D02*
G03X0023184Y0048394I0000822J0000075D01*
Y0053394D02*
G03X0023352Y0052894I0000825J0000000D01*
G01X0017988Y0023053D02*
G03X0017468Y0023214I0000520J0000759D01*
G01X0025634Y0064044D02*
G03X0025445Y0064551I0000775J0000000D01*
G01X0023259Y0067519D02*
G03X0022878Y0067419I0000000J0000775D01*
G01X0025584Y0064994D02*
G03X0025536Y0065262I0000775J0000000D01*
G01X0027546Y0020669D02*
G03X0027459Y0020294I0000763J0000375D01*
G01X0023417Y0025419D02*
G03X0022959Y0025569I0000458J0000625D01*
G01X0018100Y0017500D02*
G03X0018950Y0018350I0000000J0000850D01*
G01X0016600Y0017662D02*
G03X0017100Y0017500I0000500J0000688D01*
G01X0018725Y0019450D02*
G03X0018542Y0019892I0000625J0000000D01*
G01X0015950Y0017513D02*
G03X0016100Y0017500I0000150J0000837D01*
G01X0026684Y0036144D02*
G03X0027459Y0035369I0000775J0000000D01*
G03X0028234Y0036144I0000000J0000775D01*
G03X0027459Y0036919I0000775J0000000D01*
G03X0026684Y0036144I0000000J0000775D01*
G01X0002709Y0017469D02*
G03X0003074Y0018294I0000750J0000825D01*
G01X0006878Y0044475D02*
G03X0006874Y0044400I0000772J0000075D01*
G01X0023779Y0026147D02*
G03X0023884Y0026494I0000520J0000347D01*
G01X0029296Y0027794D02*
G03X0029459Y0028294I0000687J0000500D01*
G01X0027459Y0029912D02*
G03X0027199Y0029753I0000200J0000618D01*
G01X0029208Y0030595D02*
G03X0029959Y0030268I0000751J0000699D01*
G01X0029459Y0042344D02*
G03X0030334Y0043219I0000000J0000875D01*
G01X0013017Y0018841D02*
G03X0011902Y0019956I0001115J0000000D01*
G01X0008359D02*
G03X0007244Y0018841I0000000J0001115D01*
G01X0017459Y0076294D02*
G03X0017784Y0076358I0000000J0000850D01*
G01X0009015Y0019743D02*
G03X0008359Y0019956I0000656J0000902D01*
G01X0011902D02*
G03X0011246Y0019743I0000000J0001115D01*
G01X0016548Y0030294D02*
G03X0017468Y0029374I0000920J0000000D01*
G01X0015459D02*
G03X0016379Y0030294I0000000J0000920D01*
G01X0020548Y0026294D02*
G03X0021468Y0025374I0000920J0000000D01*
Y0027214D02*
G03X0020548Y0026294I0000000J0000920D01*
G01X0018539D02*
G03X0019459Y0025374I0000920J0000000D01*
G03X0020379Y0026294I0000000J0000920D01*
G03X0019459Y0027214I0000920J0000000D01*
G03X0018539Y0026294I0000000J0000920D01*
G01X0012548D02*
G03X0013468Y0025374I0000920J0000000D01*
G03X0014388Y0026294I0000000J0000920D01*
G01X0012379D02*
G03X0011459Y0027214I0000920J0000000D01*
G01X0009098Y0023244D02*
G03X0010018Y0022324I0000920J0000000D01*
G01X0007089Y0023244D02*
G03X0008009Y0022324I0000920J0000000D01*
G03X0008929Y0023244I0000000J0000920D01*
G03X0008009Y0024164I0000920J0000000D01*
G03X0007089Y0023244I0000000J0000920D01*
G01X0021700Y0027219D02*
G03X0022139Y0027069I0000459J0000625D01*
G01X0027117Y0020852D02*
G03X0027546Y0020669I0000442J0000442D01*
G01X0027459Y0020294D02*
G03X0028309Y0019444I0000850J0000000D01*
G01X0028609D02*
G03X0029459Y0020294I0000000J0000850D01*
G03X0029296Y0020794I0000850J0000000D01*
G01X0029459Y0023794D02*
G03X0029296Y0024294I0000850J0000000D01*
G01X0002717Y0059886D02*
G03X0002534Y0059444I0000442J0000442D01*
G01X0020499Y0062253D02*
G03X0020309Y0061794I0000460J0000459D01*
G01X0022368Y0061203D02*
G03X0021909Y0061393I0000459J0000459D01*
G01X0017414Y0059058D02*
G03X0016914Y0059210I0000500J0000748D01*
G01X0024009Y0059219D02*
G03X0023184Y0058394I0000000J0000825D01*
G01X0025034D02*
G03X0024209Y0059219I0000825J0000000D01*
G01X0023352Y0055894D02*
G03X0023183Y0055394I0000657J0000500D01*
G01X0023184Y0058394D02*
G03X0023352Y0057894I0000825J0000000D01*
G01X0023184Y0057394D02*
G03X0023352Y0056894I0000825J0000000D01*
G01X0023184Y0055394D02*
G03X0023352Y0054894I0000825J0000000D01*
G01X0029609Y0052994D02*
G03X0029407Y0053544I0000850J0000000D01*
G01X0023352Y0053894D02*
G03X0023183Y0053394I0000657J0000500D01*
G01X0024865Y0052894D02*
G03X0025034Y0053394I0000656J0000500D01*
G01X0005414Y0059058D02*
G03X0004914Y0059210I0000500J0000748D01*
G01X0015834Y0023169D02*
G03X0015835Y0023133I0000625J0000000D01*
G01X0022034Y0047394D02*
G03X0021865Y0047894I0000825J0000000D01*
G01X0023352Y0045894D02*
G03X0023183Y0045394I0000657J0000500D01*
G01X0011459Y0027214D02*
G03X0010539Y0026318I0000000J0000920D01*
G01X0023184Y0047394D02*
G03X0023352Y0046894I0000825J0000000D01*
G01X0028684Y0045436D02*
G03X0028834Y0045894I0000625J0000458D01*
G01X0023184Y0046394D02*
G03X0023352Y0045894I0000825J0000000D01*
Y0047894D02*
G03X0023183Y0047394I0000657J0000500D01*
G01X0022034Y0045394D02*
G03X0021865Y0045894I0000825J0000000D01*
G01X0022034Y0048394D02*
G03X0021865Y0048894I0000825J0000000D01*
G01X0022109Y0050569D02*
G03X0022344Y0050603I0000000J0000825D01*
G01X0021865Y0049894D02*
G03X0022034Y0050394I0000656J0000500D01*
G01X0021865Y0045894D02*
G03X0022034Y0046394I0000656J0000500D01*
G01X0021865Y0046894D02*
G03X0022034Y0047394I0000656J0000500D01*
G01X0030717Y0044698D02*
G03X0030559Y0044718I0000158J0000604D01*
G01X0028684Y0045436D02*
G03X0028834Y0045894I0000625J0000458D01*
G01X0016100Y0017500D02*
G03X0016600Y0017662I0000000J0000850D01*
G01X0016459Y0076294D02*
G03X0016959Y0076456I0000000J0000850D01*
G01X0003074Y0018294D02*
G03X0001959Y0019409I0001115J0000000D01*
G01X0029296Y0020794D02*
G03X0029459Y0021294I0000687J0000500D01*
G01X0030959Y0019409D02*
G03X0029844Y0018294I0000000J0001115D01*
G03X0030208Y0017469I0001115J0000000D01*
G01X0027284Y0045894D02*
G03X0027434Y0045436I0000775J0000000D01*
G01X0029609Y0056394D02*
G03X0028759Y0057244I0000850J0000000D01*
G01X0029446Y0055894D02*
G03X0029609Y0056394I0000687J0000500D01*
G01X0016459Y0078294D02*
G03X0016309Y0078280I0000000J0000850D01*
G01X0015344Y0026294D02*
G03X0016459Y0025179I0001115J0000000D01*
G03X0017574Y0026294I0000000J0001115D01*
G01X0015344Y0069294D02*
G03X0016459Y0068179I0001115J0000000D01*
G03X0017574Y0069294I0000000J0001115D01*
G03X0016459Y0070409I0001115J0000000D01*
G03X0015344Y0069294I0000000J0001115D01*
G01X0004344Y0061794D02*
G03X0005459Y0060679I0001115J0000000D01*
G03X0006574Y0061794I0000000J0001115D01*
G03X0005459Y0062909I0001115J0000000D01*
G01X0026344Y0061794D02*
G03X0027459Y0060679I0001115J0000000D01*
G03X0028574Y0061794I0000000J0001115D01*
G01X0027459Y0062909D02*
G03X0026344Y0061794I0000000J0001115D01*
G01X0020559Y0038419D02*
G03X0018534Y0036394I0000000J0002025D01*
G03X0020559Y0034369I0002025J0000000D01*
G01X0021559D02*
G03X0023584Y0036394I0000000J0002025D01*
G03X0021559Y0038419I0002025J0000000D01*
G01X0001435Y0036776D02*
G03X0002460Y0035751I0001025J0000000D01*
G03X0003485Y0036776I0000000J0001025D01*
G03X0002460Y0037801I0001025J0000000D01*
G03X0001435Y0036776I0000000J0001025D01*
Y0041107D02*
G03X0002460Y0040082I0001025J0000000D01*
G03X0003485Y0041107I0000000J0001025D01*
G03X0002460Y0042132I0001025J0000000D01*
G03X0001435Y0041107I0000000J0001025D01*
G01X0010097Y0034020D02*
G03X0011122Y0032995I0001025J0000000D01*
G01X0023352Y0046894D02*
G03X0023183Y0046394I0000657J0000500D01*
G01X0028834Y0045894D02*
G03X0028059Y0046669I0000775J0000000D01*
G03X0027284Y0045894I0000000J0000775D01*
G01X0022014Y0050574D02*
G03X0022109Y0050569I0000095J0000820D01*
G01X0027761Y0052508D02*
G03X0027699Y0052453I0000398J0000514D01*
G01X0009780Y0025075D02*
G03X0009575Y0024550I0000570J0000525D01*
G01X0023352Y0056894D02*
G03X0023183Y0056394I0000657J0000500D01*
G01X0022909Y0060394D02*
G03X0022718Y0060853I0000650J0000000D01*
G01X0024943Y0057019D02*
G03X0025033Y0057394I0000734J0000375D01*
G01X0019740Y0059578D02*
G03X0020139Y0059314I0000519J0000350D01*
G01X0009914Y0059210D02*
G03X0009414Y0059058I0000000J0000900D01*
G01X0019740Y0059578D02*
G03X0020139Y0059314I0000519J0000350D01*
G01X0018350Y0062736D02*
G03X0017909Y0062918I0000441J0000442D01*
G01X0009575Y0024550D02*
G03X0009711Y0024111I0000775J0000000D01*
G01X0009780Y0025075D02*
G03X0009575Y0024550I0000570J0000525D01*
G01X0019779Y0029814D02*
G03X0020226Y0030166I0000120J0000614D01*
G01X0018950Y0018650D02*
G03X0018725Y0019226I0000850J0000000D01*
G01X0023609Y0028294D02*
G03X0023418Y0028753I0000650J0000000D01*
G01X0028075Y0062723D02*
G03X0027459Y0062909I0000616J0000929D01*
G01X0009578Y0043644D02*
G03X0009750Y0043625I0000172J0000756D01*
G03X0010107Y0043712I0000000J0000775D01*
G01X0009465Y0047994D02*
G03X0009634Y0048494I0000656J0000500D01*
G01X0007292Y0024832D02*
G03X0007475Y0025274I0000442J0000442D01*
G01X0007808Y0025258D02*
G03X0008250Y0025075I0000442J0000442D01*
G01X0006225Y0029157D02*
G03X0006079Y0029169I0000146J0000863D01*
G01X0007808Y0025258D02*
G03X0008250Y0025075I0000442J0000442D01*
G01X0015459Y0023214D02*
G03X0014557Y0022477I0000000J0000920D01*
G01X0021533Y0020519D02*
G03X0021533Y0020494I0000926J0000025D01*
G01X0029459Y0028294D02*
G03X0029445Y0028444I0000850J0000000D01*
G01X0015215Y0029407D02*
G03X0015459Y0029374I0000244J0000887D01*
G01X0015836Y0027219D02*
G03X0015344Y0026294I0000623J0000925D01*
G01X0004274Y0026114D02*
G03X0004084Y0025569I0000685J0000545D01*
G01X0006954Y0024509D02*
G03X0007042Y0024582I0000354J0000515D01*
G01X0006408Y0043442D02*
G03X0006225Y0043000I0000442J0000442D01*
G01X0006954Y0024509D02*
G03X0007042Y0024582I0000354J0000515D01*
G01X0007243Y0018447D02*
G03X0007822Y0017469I0001116J0000000D01*
G01X0017468Y0021374D02*
G03X0018175Y0021706I0000000J0000920D01*
G01X0006241Y0043862D02*
G03X0006038Y0044475I0001025J0000000D01*
G01X0014388Y0026294D02*
G03X0014017Y0027032I0000920J0000000D01*
G01X0009578Y0043644D02*
G03X0009750Y0043625I0000172J0000756D01*
G01X0025659Y0026644D02*
G03X0026118Y0026834I0000000J0000650D01*
G01X0020226Y0030166D02*
G03X0020434Y0030694I0000567J0000528D01*
G01X0029459Y0021294D02*
G03X0029445Y0021444I0000850J0000000D01*
G01X0021468Y0025374D02*
G03X0022175Y0025706I0000000J0000920D01*
G01X0017468Y0023214D02*
G03X0017311Y0023200I0000000J0000920D01*
G01X0029459Y0024794D02*
G03X0029445Y0024944I0000850J0000000D01*
G01X0023884Y0026494D02*
G03X0023865Y0026644I0000625J0000000D01*
G01X0015834Y0023169D02*
G03X0015835Y0023133I0000625J0000000D01*
G01X0023509Y0022519D02*
G03X0023967Y0022669I0000000J0000775D01*
G01X0022734Y0023294D02*
G03X0023509Y0022519I0000775J0000000D01*
G01X0027117Y0020852D02*
G03X0027546Y0020669I0000442J0000442D01*
G01X0029609Y0055394D02*
G03X0029446Y0055894I0000850J0000000D01*
G01X0009634Y0053494D02*
G03X0009615Y0053669I0000825J0000000D01*
G01X0022459Y0021419D02*
G03X0022433Y0021418I0000000J0000925D01*
G01X0029156Y0026644D02*
G03X0029459Y0027294I0000547J0000650D01*
G01X0026959Y0032319D02*
G03X0026484Y0032202I0000000J0001025D01*
G01X0022959Y0025569D02*
G03X0022184Y0024794I0000000J0000775D01*
G01X0024859Y0063269D02*
G03X0025634Y0064044I0000000J0000775D01*
G01X0014634Y0064144D02*
G03X0015409Y0063369I0000775J0000000D01*
G01X0016934Y0064994D02*
G03X0016984Y0064719I0000775J0000000D01*
G01X0015409Y0064919D02*
G03X0014634Y0064144I0000000J0000775D01*
G01X0022284Y0063239D02*
G03X0022251Y0063469I0000825J0000000D01*
G01X0001234Y0057018D02*
G03X0001731Y0056920I0000497J0001214D01*
G01X0021865Y0047894D02*
G03X0022034Y0048394I0000656J0000500D01*
G01X0025034Y0046394D02*
G03X0024943Y0046769I0000825J0000000D01*
G01X0027466Y0028182D02*
G03X0027621Y0027794I0000843J0000112D01*
G01X0029609Y0049994D02*
G03X0029446Y0050494I0000850J0000000D01*
G01X0028958Y0042501D02*
G03X0029459Y0042343I0000501J0000718D01*
G01X0012914Y0059210D02*
G03X0012414Y0059058I0000000J0000900D01*
G01X0029609Y0048994D02*
G03X0029446Y0049494I0000850J0000000D01*
G01X0021988Y0027053D02*
G03X0021468Y0027214I0000520J0000759D01*
G01X0003317Y0056452D02*
G03X0003759Y0056269I0000442J0000442D01*
G01X0002588Y0057238D02*
G03X0002717Y0057052I0000571J0000256D01*
G01X0002588Y0057238D02*
G03X0002717Y0057052I0000571J0000256D01*
G01X0027259Y0046769D02*
G03X0027700Y0046952I0000000J0000625D01*
G01X0023184Y0048394D02*
G03X0023352Y0047894I0000825J0000000D01*
G01X0029609Y0050994D02*
G03X0029446Y0051494I0000850J0000000D01*
G01X0007784Y0052494D02*
G03X0007952Y0051994I0000825J0000000D01*
G01X0007621Y0053052D02*
G03X0007887Y0052894I0000442J0000442D01*
G01X0009634Y0051494D02*
G03X0009465Y0051994I0000825J0000000D01*
G01X0024943Y0052019D02*
G03X0025033Y0052394I0000734J0000375D01*
G01X0009009Y0059219D02*
G03X0009450Y0059402I0000000J0000625D01*
G01X0013914Y0059210D02*
G03X0013414Y0059058I0000000J0000900D01*
G01X0007914Y0059210D02*
G03X0007414Y0059058I0000000J0000900D01*
G01X0015414D02*
G03X0014914Y0059210I0000500J0000748D01*
G01X0016414Y0059058D02*
G03X0015914Y0059210I0000500J0000748D01*
G01X0028559Y0044719D02*
G03X0028684Y0045094I0000500J0000375D01*
G01X0028834Y0045894D02*
G03X0028059Y0046669I0000775J0000000D01*
G03X0027284Y0045894I0000000J0000775D01*
G01X0017784Y0073294D02*
G03X0017981Y0072817I0000675J0000000D01*
G01X0024865Y0057894D02*
G03X0025034Y0058394I0000656J0000500D01*
G01X0031000Y0044536D02*
G03X0030850Y0044647I0000441J0000442D01*
G01X0022034Y0046394D02*
G03X0021865Y0046894I0000825J0000000D01*
G01X0015835Y0023133D02*
G03X0015459Y0023213I0000376J0000839D01*
G01X0028334Y0042353D02*
G03X0028459Y0042344I0000125J0000866D01*
G01X0015434Y0066794D02*
G03X0016187Y0066019I0000775J0000000D01*
G01X0015684Y0023794D02*
G03X0015834Y0023336I0000775J0000000D01*
G01X0016379Y0022294D02*
G03X0016376Y0022368I0000920J0000000D01*
G01X0017234Y0023794D02*
G03X0016459Y0024569I0000775J0000000D01*
G03X0015684Y0023794I0000000J0000775D01*
G01X0023352Y0054894D02*
G03X0023183Y0054394I0000657J0000500D01*
G01X0025034Y0052394D02*
G03X0024865Y0052894I0000825J0000000D01*
G01X0023184Y0056394D02*
G03X0023352Y0055894I0000825J0000000D01*
G01X0009575Y0024550D02*
G03X0009711Y0024111I0000775J0000000D01*
G01X0022184Y0024794D02*
G03X0022198Y0024644I0000775J0000000D01*
G01X0010018Y0022324D02*
G03X0010925Y0023091I0000000J0000920D01*
G01X0017914Y0059210D02*
G03X0017414Y0059058I0000000J0000900D01*
G01X0020499Y0062253D02*
G03X0020309Y0061794I0000460J0000459D01*
G01X0019779Y0029814D02*
G03X0020226Y0030166I0000120J0000614D01*
G01X0015409Y0063369D02*
G03X0015789Y0063469I0000000J0000775D01*
G01X0028459Y0057244D02*
G03X0027882Y0057019I0000000J0000850D01*
G01X0023118Y0029053D02*
G03X0022659Y0029243I0000459J0000459D01*
G01X0023609Y0028294D02*
G03X0023418Y0028753I0000650J0000000D01*
G01X0019659Y0024644D02*
G03X0019199Y0024453I0000000J0000650D01*
G01X0027459Y0027294D02*
G03X0027761Y0026644I0000850J0000000D01*
G01X0017468Y0029374D02*
G03X0018175Y0029706I0000000J0000920D01*
G01X0016205Y0044475D02*
G03X0016002Y0043862I0000822J0000613D01*
G01X0011641Y0025392D02*
G03X0012379Y0026294I0000182J0000902D01*
G01X0029459Y0027294D02*
G03X0029296Y0027794I0000850J0000000D01*
G01X0007952Y0051994D02*
G03X0007783Y0051494I0000657J0000500D01*
G01X0001731Y0059544D02*
G03X0001662Y0059542I0000000J0001312D01*
G01X0025034Y0045394D02*
G03X0024865Y0045894I0000825J0000000D01*
G01X0024339Y0063469D02*
G03X0024859Y0063269I0000520J0000575D01*
G01X0022344Y0050603D02*
G03X0022284Y0050294I0000765J0000309D01*
G01X0022433Y0021418D02*
G03X0022433Y0021444I0000924J0000026D01*
G01X0017574Y0026294D02*
G03X0017081Y0027219I0001115J0000000D01*
G01X0022034Y0049394D02*
G03X0021865Y0049894I0000825J0000000D01*
G01X0027284Y0045894D02*
G03X0027434Y0045436I0000775J0000000D01*
G01X0022275Y0063119D02*
G03X0022284Y0063239I0000816J0000120D01*
G01X0022368Y0061203D02*
G03X0021909Y0061393I0000459J0000459D01*
G01X0022909Y0060394D02*
G03X0022718Y0060853I0000650J0000000D01*
G01X0023118Y0052853D02*
G03X0022934Y0052983I0000459J0000459D01*
G01X0008914Y0059210D02*
G03X0008414Y0059058I0000000J0000900D01*
G03X0007914Y0059210I0000500J0000748D01*
G01X0004914D02*
G03X0004814Y0059205I0000000J0000900D01*
G01X0016553Y0022190D02*
G03X0017468Y0021373I0000915J0000104D01*
G01X0019659Y0024644D02*
G03X0019199Y0024453I0000000J0000650D01*
G01X0017492Y0020942D02*
G03X0017050Y0021125I0000442J0000442D01*
G01X0009284Y0026488D02*
G03X0009459Y0026469I0000175J0000806D01*
G01X0012147Y0043862D02*
G03X0011943Y0044475I0001025J0000000D01*
G01X0010107Y0043712D02*
G03X0011122Y0042836I0001015J0000150D01*
G01X0009825Y0046800D02*
G03X0010008Y0046358I0000625J0000000D01*
Y0050642D02*
G03X0009825Y0050200I0000442J0000442D01*
G01X0009465Y0049994D02*
G03X0009634Y0050494I0000656J0000500D01*
G01X0010784Y0052494D02*
G03X0010952Y0051994I0000825J0000000D01*
G01X0010750Y0051125D02*
G03X0010308Y0050942I0000000J0000625D01*
G01X0010784Y0051494D02*
G03X0010871Y0051125I0000825J0000000D01*
G01X0010952Y0051994D02*
G03X0010783Y0051494I0000657J0000500D01*
G01X0005914Y0059210D02*
G03X0005414Y0059058I0000000J0000900D01*
G01X0002588Y0057238D02*
G03X0002717Y0057052I0000571J0000256D01*
G01X0004517Y0047319D02*
G03X0004059Y0047469I0000458J0000625D01*
G01X0013414Y0059058D02*
G03X0012914Y0059210I0000500J0000748D01*
G01X0010634Y0063239D02*
G03X0010642Y0063119I0000825J0000000D01*
G01X0030850Y0044647D02*
G03X0031259Y0044582I0000409J0001247D01*
G01X0018052Y0043862D02*
G03X0018041Y0044012I0001025J0000000D01*
G01X0027459Y0029912D02*
G03X0027199Y0029753I0000200J0000618D01*
G01X0022284Y0050294D02*
G03X0022302Y0050119I0000825J0000000D01*
G01X0016958Y0078131D02*
G03X0016459Y0078293I0000499J0000687D01*
G01X0016958Y0076456D02*
G03X0017459Y0076293I0000501J0000688D01*
G01X0017784Y0078229D02*
G03X0017459Y0078294I0000325J0000785D01*
G01X0006408Y0043442D02*
G03X0006225Y0043000I0000442J0000442D01*
G01X0029946Y0045894D02*
G03X0030717Y0044698I0001313J0000000D01*
G01X0025034Y0057394D02*
G03X0024865Y0057894I0000825J0000000D01*
G01X0016309Y0076307D02*
G03X0016459Y0076294I0000150J0000837D01*
G01X0023279Y0067519D02*
G03X0023259Y0067519I0000020J0000775D01*
G01X0003559Y0060469D02*
G03X0003117Y0060286I0000000J0000625D01*
G01X0031254Y0059544D02*
G03X0029959Y0058232I0000017J0001312D01*
G01X0017784Y0073294D02*
G03X0017981Y0072817I0000675J0000000D01*
G01X0025034Y0053394D02*
G03X0024943Y0053769I0000825J0000000D01*
G01X0027609Y0052994D02*
G03X0027761Y0052508I0000850J0000000D01*
G01X0017492Y0020942D02*
G03X0017050Y0021125I0000442J0000442D01*
G01X0022015Y0045219D02*
G03X0022034Y0045394I0000806J0000175D01*
G01X0010539Y0026318D02*
G03X0010450Y0026324I0000089J0000618D01*
G01X0001731Y0056920D02*
G03X0002588Y0057238I0000000J0001312D01*
G01X0006875Y0044400D02*
G03X0006979Y0044012I0000775J0000000D01*
G01X0031259Y0044582D02*
G03X0031784Y0044691I0000000J0001312D01*
Y0047097D02*
G03X0031259Y0047207I0000525J0001203D01*
G01X0029156Y0023144D02*
G03X0029459Y0023794I0000547J0000650D01*
G01X0017120Y0023391D02*
G03X0017233Y0023794I0000661J0000403D01*
G01X0016617Y0030644D02*
G03X0016548Y0030294I0000851J0000350D01*
G01X0025659Y0026644D02*
G03X0026118Y0026834I0000000J0000650D01*
G01X0021509Y0020519D02*
G03X0021534Y0020519I0000000J0000925D01*
G01X0031784Y0019044D02*
G03X0030959Y0019409I0000825J0000750D01*
G01X0023118Y0052853D02*
G03X0022934Y0052983I0000459J0000459D01*
G01X0005031Y0044870D02*
G03X0004191Y0043862I0000185J0001008D01*
G01X0030717Y0044698D02*
G03X0030559Y0044718I0000158J0000604D01*
G01X0028574Y0061794D02*
G03X0028388Y0062410I0001115J0000000D01*
G01X0004959Y0023604D02*
G03X0005204Y0023639I0000000J0000875D01*
G01X0004084Y0025569D02*
G03X0004274Y0025024I0000875J0000000D01*
G01X0006735Y0046498D02*
G03X0007506Y0047321I0000054J0000823D01*
G01X0007784Y0049494D02*
G03X0007952Y0048994I0000825J0000000D01*
G01X0007784Y0050494D02*
G03X0007952Y0049994I0000825J0000000D01*
G01X0009465Y0050994D02*
G03X0009634Y0051494I0000656J0000500D01*
G01X0009465Y0048994D02*
G03X0009634Y0049494I0000656J0000500D01*
Y0050494D02*
G03X0009465Y0050994I0000825J0000000D01*
G01X0029446Y0049494D02*
G03X0029609Y0049994I0000687J0000500D01*
G01X0009634Y0052494D02*
G03X0009465Y0052994I0000825J0000000D01*
G01X0029959Y0032319D02*
G03X0029209Y0031992I0000000J0001025D01*
G01X0023118Y0029053D02*
G03X0022659Y0029243I0000459J0000459D01*
G01X0029208Y0031992D02*
G03X0028459Y0032318I0000749J0000698D01*
G01X0030334Y0043236D02*
G03X0030959Y0042919I0000625J0000458D01*
G01X0028459Y0032319D02*
G03X0027709Y0031992I0000000J0001025D01*
G01X0028459Y0042344D02*
G03X0028959Y0042501I0000000J0000875D01*
G01X0012275Y0063119D02*
G03X0012284Y0063239I0000816J0000120D01*
G01X0012414Y0059058D02*
G03X0011914Y0059210I0000500J0000748D01*
G01X0027259Y0046769D02*
G03X0027700Y0046952I0000000J0000625D01*
G01X0023184Y0054394D02*
G03X0023352Y0053894I0000825J0000000D01*
G01X0004196Y0045931D02*
G03X0004184Y0045794I0000763J0000137D01*
G01X0005865Y0047442D02*
G03X0005856Y0047321I0000816J0000121D01*
G01X0015641Y0021392D02*
G03X0016379Y0022294I0000182J0000902D01*
G01X0022434Y0019469D02*
G03X0022459Y0019469I0000025J0000925D01*
G01X0009634Y0048494D02*
G03X0009465Y0048994I0000825J0000000D01*
G01X0005884Y0052449D02*
G03X0006324Y0051719I0000825J0000000D01*
G01X0007093D02*
G03X0007534Y0052449I0000384J0000730D01*
G01X0016914Y0059210D02*
G03X0016414Y0059058I0000000J0000900D01*
G01X0005892Y0052569D02*
G03X0005883Y0052449I0000817J0000120D01*
G01X0020434Y0030694D02*
G03X0019779Y0031459I0000775J0000000D01*
G01X0017100Y0017500D02*
G03X0017600Y0017662I0000000J0000850D01*
G03X0018100Y0017500I0000500J0000688D01*
G01X0031734Y0043694D02*
G03X0031076Y0044460I0000775J0000000D01*
G01X0016184Y0065944D02*
G03X0016954Y0065169I0000775J0000000D01*
G01X0009459Y0028119D02*
G03X0009284Y0028100I0000000J0000825D01*
G01X0028559Y0044719D02*
G03X0028684Y0045094I0000500J0000375D01*
G01X0006914Y0059210D02*
G03X0006414Y0059058I0000000J0000900D01*
G01X0031271Y0056920D02*
G03X0031784Y0057024I0000000J0001312D01*
G01X0007784Y0051494D02*
G03X0007952Y0050994I0000825J0000000D01*
G01X0007621Y0053052D02*
G03X0007887Y0052894I0000442J0000442D01*
G01X0022735Y0023344D02*
G03X0022733Y0023294I0000774J0000050D01*
G01X0028459Y0030269D02*
G03X0029209Y0030595I0000000J0001025D01*
G01X0023352Y0057894D02*
G03X0023183Y0057394I0000657J0000500D01*
G01X0009465Y0051994D02*
G03X0009634Y0052494I0000656J0000500D01*
G54D54*
G01X0021459Y0063239D02*
X0011459D01*
X0019309Y0053894D02*
X0018309D01*
X0022109Y0051394D02*
X0021109D01*
X0009459Y0027294D02*
X0010459D01*
X0011459Y0026294D01*
X0028459Y0027294D02*
X0029759D01*
X0029959Y0027494D01*
Y0031294D01*
X0022109Y0051394D02*
X0023109Y0050394D01*
Y0050294D01*
X0024109Y0052394D02*
X0024859D01*
X0025459Y0052994D01*
X0028609D01*
X0017459Y0077294D02*
Y0071594D01*
X0016909Y0071044D01*
X0015559D01*
X0011459Y0066944D01*
Y0063239D01*
X0015459Y0060794D02*
Y0059374D01*
Y0059344D01*
X0018759D01*
X0018914Y0059189D01*
Y0058235D01*
X0015459Y0060794D02*
Y0059374D01*
X0015439Y0059344D01*
X0004259D01*
X0003914Y0058999D01*
Y0058235D01*
X0021059Y0036394D02*
X0021209Y0036244D01*
Y0030544D02*
X0019959Y0029294D01*
X0016459D01*
X0015459Y0030294D01*
X0011459Y0026294D02*
X0013059Y0024694D01*
X0017809D01*
X0019409Y0026294D01*
X0019459D01*
X0016100Y0018500D02*
Y0017950D01*
X0016550Y0017500D01*
X0027350D01*
X0029650Y0019800D01*
Y0022000D01*
X0029356Y0022294D01*
X0028459D01*
X0019459Y0026294D02*
Y0026044D01*
X0020109Y0025394D01*
X0022259D01*
X0022559Y0025694D01*
X0028359D01*
X0028459Y0025794D01*
X0010110Y0009210D02*
X0007450D01*
Y0010250D01*
X0002550Y0014850D02*
Y0014250D01*
X0002850Y0013950D01*
X0005840D01*
X0002550Y0006750D02*
Y0006150D01*
X0002850Y0005850D01*
X0005840D01*
X0021459Y0062294D02*
X0020959Y0061794D01*
Y0060794D01*
X0002550Y0004950D02*
X0001980D01*
X0001640Y0004610D01*
Y0001410D01*
X0001940Y0001110D01*
X0007450D01*
Y0002150D01*
X0002550Y0013050D02*
X0001980D01*
X0001640Y0012710D01*
Y0009510D01*
X0001940Y0009210D01*
X0007450D01*
Y0010250D01*
X0018959Y0031294D02*
X0014259D01*
Y0029444D01*
X0015109Y0028594D01*
X0022659D01*
X0022959Y0028294D01*
Y0027294D01*
X0018959Y0023294D02*
X0019659Y0023994D01*
X0028159D01*
X0028459Y0023694D01*
Y0023794D01*
X0018959Y0031294D02*
X0018909Y0031344D01*
X0014259D01*
X0014159D01*
X0012526Y0029711D01*
Y0029361D01*
X0022109Y0052394D02*
X0022659D01*
X0022859Y0052194D01*
Y0051494D01*
X0023959Y0050394D01*
X0024109D01*
X0011709Y0054494D02*
X0012309D01*
X0014609Y0052194D01*
X0021059D01*
X0021259Y0052394D01*
X0021109D01*
X0020959Y0060794D02*
X0021009Y0060744D01*
X0021909D01*
X0022259Y0060394D01*
Y0052544D01*
X0022109Y0052394D01*
X0006636Y0055867D02*
X0007836D01*
X0008409Y0055294D01*
X0010809D01*
X0011609Y0054494D01*
X0011709D01*
X0012309D01*
X0015859D01*
X0016793Y0055428D01*
X0017959D01*
X0010110Y0001110D02*
X0007450D01*
Y0002150D01*
X0013360Y0005300D02*
X0014220Y0006160D01*
X0014630D01*
Y0014260D02*
X0014220D01*
X0013360Y0013400D01*
X0022109Y0052394D02*
X0021259D01*
X0021109D01*
X0024109Y0050394D02*
X0026559D01*
X0028159Y0051994D01*
X0028609D01*
X0014630Y0006160D02*
X0014220D01*
X0013360Y0005300D01*
X0012526Y0029361D02*
Y0029711D01*
Y0029794D01*
X0008459D01*
X0022959Y0027294D02*
X0025659D01*
X0027659Y0029294D01*
X0028459D01*
X0018959Y0031294D02*
X0014259D01*
Y0031344D01*
X0014159D01*
X0012526Y0029711D01*
Y0029361D01*
G54D55*
G01X0010311Y0013317D02*
Y0012655D01*
X0010330Y0012640D01*
X0011070D01*
Y0013310D01*
Y0005210D02*
Y0004540D01*
X0010330D01*
X0010311Y0004555D01*
Y0005217D01*
X0011334Y0013317D02*
X0011079D01*
X0010823D01*
X0010311D02*
X0010055D01*
X0011334Y0005217D02*
X0011079D01*
X0010823D01*
X0010311D02*
X0010055D01*
X0011079Y0002185D02*
Y0001261D01*
X0011090Y0001250D01*
X0012102Y0005217D02*
Y0005782D01*
X0012470Y0006150D01*
X0013050D01*
X0011079Y0010285D02*
Y0009361D01*
X0011090Y0009350D01*
X0012102Y0013317D02*
Y0013882D01*
X0012470Y0014250D01*
X0013050D01*
X0012102Y0013317D02*
Y0013882D01*
Y0013900D01*
X0011500D01*
X0011334Y0013734D01*
Y0013317D01*
X0012102Y0005217D02*
Y0005782D01*
Y0005800D01*
X0011500D01*
X0011334Y0005634D01*
Y0005217D01*
X0011079Y0010285D02*
Y0010829D01*
X0011400Y0011150D01*
X0013370D01*
X0011079Y0002185D02*
Y0002729D01*
X0011400Y0003050D01*
X0013370D01*
X0010055Y0005217D02*
Y0004585D01*
Y0004560D01*
X0010045Y0004550D01*
X0010020D01*
X0009300D01*
X0009250D01*
X0008770Y0005030D01*
Y0005200D01*
X0010055Y0013317D02*
Y0012685D01*
Y0012660D01*
X0010045Y0012650D01*
X0010020D01*
X0009300D01*
X0009250D01*
X0008770Y0013130D01*
Y0013300D01*
X0010055Y0013317D02*
Y0012685D01*
Y0012660D01*
X0010045Y0012650D01*
X0010020D01*
X0009300D01*
X0008800Y0013150D01*
X0010055Y0005217D02*
Y0004585D01*
Y0004560D01*
X0010045Y0004550D01*
X0010020D01*
X0009300D01*
X0008800Y0005050D01*
X0009543Y0014543D02*
Y0013317D01*
X0014214Y0009650D02*
X0012750D01*
X0012614Y0009786D01*
Y0010285D01*
X0012870D02*
X0012920Y0010340D01*
X0013979D01*
X0014194Y0010550D01*
X0014214D01*
X0014180Y0013250D02*
X0013630Y0012700D01*
X0013150D01*
X0012870Y0012980D01*
Y0013317D01*
X0010250Y0009350D02*
X0010110Y0009210D01*
X0010311Y0010285D02*
Y0009410D01*
X0010250Y0009350D01*
X0011590Y0013317D02*
Y0013316D01*
Y0012120D01*
X0005950Y0013550D02*
Y0013170D01*
X0006270Y0012850D01*
X0008150D01*
X0009250Y0011750D01*
X0010400D01*
X0010650Y0011505D01*
X0012198D01*
X0012358Y0011644D01*
Y0011700D01*
Y0013317D01*
X0005950Y0005450D02*
Y0005070D01*
X0006270Y0004750D01*
X0008150D01*
X0009250Y0003650D01*
X0010400D01*
X0010650Y0003405D01*
X0012198D01*
X0012358Y0003544D01*
Y0003600D01*
Y0005217D01*
X0005840Y0013950D02*
Y0013660D01*
X0005850Y0013650D01*
X0005840Y0005850D02*
Y0005560D01*
X0005850Y0005550D01*
X0014180Y0003350D02*
X0013930Y0003600D01*
X0012350D01*
Y0005208D01*
X0012358Y0005217D01*
X0009543D02*
Y0006443D01*
X0009799Y0013317D02*
Y0013749D01*
X0010700Y0014650D01*
X0011650D01*
X0009799Y0005217D02*
Y0005649D01*
X0010700Y0006550D01*
X0011650D01*
X0014180Y0005150D02*
X0013630Y0004600D01*
X0013150D01*
X0012870Y0004880D01*
Y0005217D01*
X0014180Y0004250D02*
X0014080Y0004150D01*
X0013010D01*
X0012614Y0004546D01*
Y0005217D01*
X0014180Y0012350D02*
X0014080Y0012250D01*
X0013010D01*
X0012614Y0012646D01*
Y0013317D01*
X0009543D02*
Y0014543D01*
X0016580Y0013750D02*
X0016380D01*
X0014630Y0014300D02*
X0014610Y0014280D01*
X0012870Y0002185D02*
X0012920Y0002240D01*
X0013979D01*
X0014194Y0002450D01*
X0014214D01*
X0014180Y0011450D02*
X0013930Y0011700D01*
X0012350D01*
Y0013308D01*
X0012358Y0013317D01*
X0009543Y0010285D02*
Y0010600D01*
X0009493Y0010650D01*
X0009000D01*
X0008970Y0010680D01*
X0008880D01*
X0016580Y0005650D02*
X0016380D01*
X0014630Y0006200D02*
X0014610Y0006180D01*
X0011590Y0005217D02*
Y0005216D01*
Y0004020D01*
X0015080Y0009650D02*
Y0009330D01*
X0014790Y0009040D01*
X0012410D01*
X0012260Y0009190D01*
Y0009210D01*
X0011590Y0012120D02*
Y0013316D01*
Y0013317D01*
X0015080Y0001550D02*
Y0001230D01*
X0014790Y0000940D01*
X0012410D01*
X0012260Y0001090D01*
Y0001110D01*
X0011590Y0004020D02*
Y0005216D01*
Y0005217D01*
X0007960Y0012100D02*
X0008110D01*
X0011590Y0012120D02*
Y0013316D01*
Y0013317D01*
X0007960Y0004000D02*
X0008110D01*
X0011590Y0004020D02*
Y0005216D01*
Y0005217D01*
X0015550Y0011490D02*
X0015560Y0011480D01*
Y0011450D01*
X0016526Y0055861D02*
X0018677D01*
X0014214Y0001550D02*
X0012750D01*
X0012614Y0001686D01*
Y0002185D01*
X0008290Y0009870D02*
Y0011130D01*
X0008500Y0011340D01*
X0010130D01*
X0010567Y0010903D01*
Y0010285D01*
X0009543Y0006443D02*
Y0005217D01*
X0010250Y0001250D02*
X0010110Y0001110D01*
X0009543Y0002185D02*
Y0002500D01*
X0009493Y0002550D01*
X0009000D01*
X0008970Y0002580D01*
X0008880D01*
X0010311Y0002185D02*
Y0001310D01*
X0010250Y0001250D01*
X0015550Y0003390D02*
X0015560Y0003380D01*
Y0003350D01*
X0008290Y0001770D02*
Y0003030D01*
X0008500Y0003240D01*
X0010130D01*
X0010567Y0002803D01*
Y0002185D01*
X0015046Y0005150D02*
X0015520D01*
X0015700Y0004970D01*
Y0004250D01*
X0016300Y0003650D01*
X0016580D01*
X0011590Y0005217D02*
Y0005216D01*
Y0004020D01*
X0013450Y0005250D02*
Y0005220D01*
X0013410Y0005180D01*
X0013360D01*
Y0005300D01*
X0014630Y0006160D02*
X0014610Y0006180D01*
Y0014280D02*
X0014630Y0014260D01*
X0013360Y0013400D02*
Y0013280D01*
X0013410D01*
X0013450Y0013320D01*
Y0013350D01*
X0011590Y0012120D02*
Y0013316D01*
Y0013317D01*
X0014610Y0006180D02*
X0014630Y0006160D01*
X0013360Y0005300D02*
Y0005180D01*
X0013410D01*
X0013450Y0005220D01*
Y0005250D01*
X0012260Y0009210D02*
Y0009190D01*
X0012410Y0009040D01*
X0014790D01*
X0015080Y0009330D01*
Y0009650D01*
X0015046Y0013250D02*
X0015520D01*
X0015700Y0013070D01*
Y0012350D01*
X0016300Y0011750D01*
X0016580D01*
X0015550Y0011490D02*
X0015560Y0011480D01*
Y0011450D01*
X0009543Y0010285D02*
Y0010600D01*
X0009493Y0010650D01*
X0009000D01*
X0008970Y0010680D01*
X0008880D01*
X0010060Y0013280D02*
Y0012690D01*
X0010020Y0012650D01*
X0010045D01*
X0010055Y0012660D01*
Y0012685D01*
Y0013317D01*
X0010060Y0005180D02*
Y0004590D01*
X0010020Y0004550D01*
X0010045D01*
X0010055Y0004560D01*
Y0004585D01*
Y0005217D01*
G54D56*
G01X0021209Y0036244D02*
Y0030544D01*
G54D10*
X0009459Y0027294D03*
X0018309Y0052894D03*
X0019309D03*
X0021459Y0063239D03*
X0011459D03*
X0006636Y0055867D03*
X0023109Y0050294D03*
X0022109Y0051394D03*
X0006681Y0047321D03*
X0006709Y0049949D03*
Y0052449D03*
G54D11*
X0008459Y0027294D03*
X0018309Y0053894D03*
X0019309D03*
X0021459Y0062294D03*
X0011459D03*
X0006636Y0054921D03*
X0023109Y0049294D03*
X0022109Y0052394D03*
X0006681Y0048267D03*
X0006709Y0050894D03*
Y0053394D03*
G54D12*
X0015459Y0060794D03*
G54D13*
X0017459D03*
G54D14*
X0025459Y0031294D03*
G54D15*
X0004822Y0034020D03*
X0017027D03*
Y0043862D03*
X0005216D03*
X0011122D03*
Y0034020D03*
X0002460Y0041107D03*
Y0036776D03*
X0029959Y0031294D03*
X0026959D03*
X0028459D03*
G54D16*
X0002550Y0012050D03*
Y0011050D03*
Y0010050D03*
Y0003950D03*
Y0002950D03*
Y0001950D03*
X0028459Y0028294D03*
Y0027294D03*
Y0024794D03*
Y0023794D03*
Y0021294D03*
Y0020294D03*
X0028609Y0055394D03*
Y0056394D03*
Y0048994D03*
Y0049994D03*
Y0050994D03*
Y0051994D03*
Y0052994D03*
G54D17*
X0002550Y0013050D03*
Y0004950D03*
X0028459Y0029294D03*
Y0025794D03*
Y0022294D03*
X0028609Y0054394D03*
Y0047994D03*
G54D18*
X0021109Y0057394D03*
Y0056394D03*
Y0055394D03*
Y0054394D03*
Y0053394D03*
Y0052394D03*
Y0051394D03*
Y0050394D03*
Y0049394D03*
Y0048394D03*
Y0047394D03*
Y0046394D03*
Y0045394D03*
X0024109D03*
Y0046394D03*
Y0047394D03*
Y0048394D03*
Y0049394D03*
Y0050394D03*
Y0051394D03*
Y0052394D03*
Y0053394D03*
Y0054394D03*
Y0055394D03*
Y0056394D03*
Y0057394D03*
Y0058394D03*
X0008709Y0053494D03*
Y0052494D03*
Y0051494D03*
Y0050494D03*
Y0049494D03*
Y0048494D03*
Y0047494D03*
X0011709D03*
Y0048494D03*
Y0049494D03*
Y0050494D03*
Y0051494D03*
Y0052494D03*
Y0053494D03*
Y0054494D03*
G54D19*
X0021109Y0058394D03*
X0008709Y0054494D03*
G54D20*
X0005519Y0031034D03*
Y0021194D03*
G54D21*
X0006079Y0025024D03*
Y0026114D03*
Y0027204D03*
Y0028294D03*
X0004959Y0024479D03*
Y0025569D03*
Y0026659D03*
Y0027749D03*
G54D22*
X0006079Y0023934D03*
G54D23*
X0001731Y0058232D03*
X0031271D03*
X0031259Y0045894D03*
X0001709D03*
G54D24*
X0004914Y0058235D03*
X0005914D03*
X0006914D03*
X0007914D03*
X0008914D03*
X0009914D03*
X0010914D03*
X0011914D03*
X0012914D03*
X0013914D03*
X0014914D03*
X0015914D03*
X0016914D03*
X0017914D03*
X0018914D03*
G54D25*
X0003914D03*
G54D26*
X0021459Y0021444D03*
G54D27*
X0022459Y0020444D03*
G54D28*
X0021459Y0019444D03*
G54D29*
X0021059Y0036394D03*
G54D30*
X0020964Y0041500D03*
G54D31*
X0002550Y0014850D03*
Y0006750D03*
X0015100Y0018500D03*
X0015459Y0077294D03*
X0016459Y0072294D03*
X0015459D03*
X0025959Y0051394D03*
G54D32*
X0001959Y0018294D03*
X0030959D03*
X0016459Y0026294D03*
Y0069294D03*
X0005459Y0061794D03*
X0027459D03*
G54D33*
X0003550Y0014850D03*
X0004550D03*
X0003550Y0006750D03*
X0004550D03*
X0016100Y0018500D03*
X0017100D03*
X0018100D03*
X0016459Y0077294D03*
X0017459D03*
G54D34*
X0018959Y0023294D03*
Y0022428D03*
Y0031294D03*
Y0030428D03*
X0022959Y0027294D03*
Y0026428D03*
X0008459Y0029794D03*
Y0028928D03*
X0020959Y0060794D03*
Y0059928D03*
X0017959Y0056294D03*
Y0055428D03*
G54D35*
X0014180Y0013250D03*
X0015046D03*
X0014180Y0012350D03*
X0015046D03*
X0015080Y0010550D03*
X0014214D03*
X0015080Y0009650D03*
X0014214D03*
X0007450Y0010250D03*
X0006584D03*
X0007450Y0011250D03*
X0006584D03*
X0007450Y0012250D03*
X0006584D03*
X0014180Y0011450D03*
X0015046D03*
X0014180Y0005150D03*
X0015046D03*
X0014180Y0004250D03*
X0015046D03*
X0015080Y0002450D03*
X0014214D03*
X0015080Y0001550D03*
X0014214D03*
X0007450Y0002150D03*
X0006584D03*
X0007450Y0003150D03*
X0006584D03*
X0007450Y0004150D03*
X0006584D03*
X0014180Y0003350D03*
X0015046D03*
X0012526Y0029361D03*
X0013392D03*
G54D36*
X0011650Y0014650D03*
X0009650D03*
X0011650Y0006550D03*
X0009650D03*
X0018459Y0049294D03*
Y0051294D03*
X0015459Y0022294D03*
X0017468D03*
X0015459Y0030294D03*
X0017468D03*
X0019459Y0026294D03*
X0021468D03*
X0011459D03*
X0013468D03*
X0008009Y0023244D03*
X0010018D03*
G54D37*
X0008359Y0018644D03*
X0011902D03*
G54D38*
X0010130D03*
G54D39*
X0028459Y0043294D03*
X0029459D03*
G54D40*
X0027459D03*
G54D41*
Y0036144D03*
G54D42*
X0005950Y0013550D03*
X0006790D03*
X0010250Y0009350D03*
X0011090D03*
X0014610Y0014280D03*
Y0015120D03*
X0008250Y0014850D03*
Y0014010D03*
X0013050Y0014250D03*
Y0015090D03*
X0005950Y0005450D03*
X0006790D03*
X0010250Y0001250D03*
X0011090D03*
X0014610Y0006180D03*
Y0007020D03*
X0008250Y0006750D03*
Y0005910D03*
X0013050Y0006150D03*
Y0006990D03*
G54D43*
X0005850Y0014850D03*
X0007030D03*
X0005850Y0006750D03*
X0007030D03*
G54D44*
X0005650Y0010250D03*
X0004863D03*
X0005650Y0011250D03*
X0004863D03*
X0005650Y0012250D03*
X0004863D03*
X0005650Y0002150D03*
X0004863D03*
X0005650Y0003150D03*
X0004863D03*
X0005650Y0004150D03*
X0004863D03*
G54D45*
X0017580Y0014750D03*
Y0009750D03*
Y0006650D03*
Y0001650D03*
G54D46*
X0016580Y0012750D03*
Y0011750D03*
Y0010750D03*
Y0004650D03*
Y0003650D03*
Y0002650D03*
G54D47*
Y0013750D03*
Y0005650D03*
G54D48*
X0009543Y0010285D03*
X0009799D03*
X0010055D03*
X0010311D03*
X0010567D03*
X0010823D03*
X0011079D03*
X0011334D03*
X0011590D03*
X0011846D03*
X0012102D03*
X0012358D03*
X0012614D03*
X0012870D03*
Y0013317D03*
X0012614D03*
X0012358D03*
X0012102D03*
X0011846D03*
X0011590D03*
X0011334D03*
X0011079D03*
X0010823D03*
X0010567D03*
X0010311D03*
X0010055D03*
X0009799D03*
X0009543D03*
Y0002185D03*
X0009799D03*
X0010055D03*
X0010311D03*
X0010567D03*
X0010823D03*
X0011079D03*
X0011334D03*
X0011590D03*
X0011846D03*
X0012102D03*
X0012358D03*
X0012614D03*
X0012870D03*
Y0005217D03*
X0012614D03*
X0012358D03*
X0012102D03*
X0011846D03*
X0011590D03*
X0011334D03*
X0011079D03*
X0010823D03*
X0010567D03*
X0010311D03*
X0010055D03*
X0009799D03*
X0009543D03*
G54D53*
X0014059Y0048394D03*
X0016459Y0023794D03*
X0015759Y0053494D03*
X0015390Y0015110D03*
Y0007010D03*
X0013370Y0011160D03*
Y0003060D03*
X0008800Y0013150D03*
X0005050Y0013350D03*
X0008800Y0005050D03*
X0005050Y0005250D03*
X0012260Y0001110D03*
X0008110Y0012100D03*
Y0004000D03*
X0012659Y0055394D03*
X0014759Y0053494D03*
X0008880Y0002580D03*
X0011620Y0046330D03*
X0016959Y0050494D03*
X0018659Y0057094D03*
X0015550Y0003390D03*
X0008290Y0001770D03*
X0011590Y0004020D03*
X0013450Y0013350D03*
X0011590Y0012120D03*
X0013450Y0005250D03*
X0012260Y0009210D03*
X0015550Y0011490D03*
X0008290Y0009870D03*
X0008880Y0010680D03*
X0010350Y0024550D03*
X0024809Y0064994D03*
X0017709D03*
X0009750Y0044400D03*
X0019659Y0030694D03*
X0022159Y0027844D03*
X0007650Y0044400D03*
X0023509Y0023294D03*
X0016459Y0056494D03*
X0008959Y0056044D03*
X0022959Y0024794D03*
X0024859Y0064044D03*
X0015409Y0064144D03*
X0015559Y0057094D03*
X0028059Y0045894D03*
X0014300Y0046100D03*
X0013400Y0056800D03*
X0004059Y0046694D03*
X0030959Y0043694D03*
X0004959Y0045794D03*
X0016209Y0066794D03*
X0023259Y0066744D03*
X0016959Y0065944D03*
X0024059Y0065844D03*
M02*
