*
G04 Mass Parameters ***
*
G04 Image ***
*
%IND:\SOUND LEVEL METER PROJECT\MO PHONG_SOUND LEVEL METER_V3\SOUND LEVEL METER_OK\BOARD_NOISE LEVEL METER\GERBER\NOISE LEVEL METER-18.DRD*%
%ICAS*%
%MOIN*%
%IPPOS*%
%ASAXBY*%
G74*%FSLAN2X34Y34*%
*
G04 Aperture Definitions ***
*
%ADD10C,0.0600*%
%ADD11R,0.0600X0.0600*%
%ADD12C,0.0800*%
%ADD13R,0.0800X0.0800*%
%ADD14R,0.1000X0.1000*%
%ADD15C,0.1000*%
%ADD16O,0.0950X0.0650*%
%ADD17R,0.0950X0.0650*%
%ADD18O,0.0800X0.0600*%
%ADD19R,0.0800X0.0600*%
%ADD20R,0.1400X0.1900*%
%ADD21C,0.0700*%
%ADD22R,0.0700X0.0700*%
%ADD23C,0.1575*%
%ADD24O,0.0750X0.0900*%
%ADD25R,0.0750X0.0900*%
%ADD26O,0.0900X0.0800*%
%ADD27O,0.0800X0.0900*%
%ADD28R,0.0900X0.0800*%
%ADD29O,0.4000X0.3000*%
%ADD30R,0.4000X0.3000*%
%ADD31R,0.0650X0.0950*%
%ADD32C,0.1180*%
%ADD33O,0.0650X0.0950*%
%ADD34R,0.0590X0.0394*%
%ADD35R,0.0394X0.0590*%
%ADD36C,0.0790*%
%ADD37O,0.1181X0.1575*%
%ADD38R,0.1181X0.1575*%
%ADD39O,0.0700X0.0850*%
%ADD40R,0.0700X0.0850*%
%ADD41C,0.0500*%
%ADD42R,0.0500X0.0500*%
%ADD43R,0.0480X0.0740*%
%ADD44R,0.0512X0.0590*%
%ADD45O,0.1500X0.0800*%
%ADD46O,0.0850X0.0650*%
%ADD47R,0.0850X0.0650*%
%ADD48O,0.0149X0.0590*%
%ADD49O,0.0787X0.0157*%
%ADD50O,0.0157X0.0787*%
%ADD51R,0.0157X0.0787*%
%ADD52C,0.0300*%
%ADD53C,0.0100*%
%ADD54C,0.0350*%
%ADD55C,0.0200*%
%ADD56C,0.0500*%
%ADD57C,0.0500*%
%ADD58C,0.0150*%
%ADD59C,0.0250*%
%ADD60C,0.0500*%
%ADD61C,0.0787*%
%ADD62C,0.0400*%
%ADD63C,0.0065*%
%ADD64C,0.0060*%
%ADD65C,0.0070*%
%ADD66C,0.0080*%
%ADD67C,0.0830*%
%ADD68R,0.0830X0.0830*%
%ADD69C,0.0750*%
%ADD70R,0.0590X0.0669*%
%ADD71O,0.1600X0.0900*%
%ADD72C,0.0750*%
%ADD73C,0.0680*%
%ADD74R,0.0680X0.0680*%
%ADD75C,0.0880*%
%ADD76R,0.0880X0.0880*%
%ADD77R,0.1080X0.1080*%
%ADD78C,0.1080*%
%ADD79O,0.1030X0.0730*%
%ADD80R,0.1030X0.0730*%
%ADD81O,0.0880X0.0680*%
%ADD82R,0.0880X0.0680*%
%ADD83R,0.1480X0.1980*%
%ADD84C,0.0780*%
%ADD85R,0.0780X0.0780*%
%ADD86C,0.1650*%
%ADD87O,0.0830X0.0980*%
%ADD88R,0.0830X0.0980*%
%ADD89O,0.0980X0.0880*%
%ADD90O,0.0880X0.0980*%
%ADD91R,0.0980X0.0880*%
%ADD92O,0.4080X0.3080*%
%ADD93R,0.4080X0.3080*%
%ADD94R,0.0730X0.1030*%
%ADD95O,0.0730X0.1030*%
%ADD96R,0.0680X0.0480*%
%ADD97R,0.0480X0.0680*%
%ADD98C,0.0870*%
%ADD99O,0.1260X0.1650*%
%ADD100R,0.1260X0.1650*%
%ADD101O,0.0780X0.0950*%
%ADD102R,0.0780X0.0930*%
%ADD103C,0.0550*%
%ADD104R,0.0580X0.0580*%
%ADD105R,0.0560X0.0820*%
%ADD106O,0.1580X0.0880*%
%ADD107O,0.0930X0.0730*%
%ADD108R,0.0930X0.0730*%
%ADD109O,0.0230X0.0670*%
%ADD110O,0.0870X0.0240*%
%ADD111O,0.0240X0.0870*%
%ADD112R,0.0240X0.0870*%
%ADD113C,0.0550*%
%ADD114C,0.0004*%
%ADD115C,0.0050*%
%ADD116C,0.0020*%
%ADD117C,0.0079*%
%ADD118C,0.0118*%
%ADD119C,0.0039*%
%ADD120C,0.0010*%
%ADD121C,0.0012*%
%ADD122C,0.0394*%
%ADD123C,0.0030*%
%ADD124C,0.0090*%
%ADD125R,0.1200X0.1200*%
%ADD126C,0.1200*%
%ADD127O,0.0990X0.0670*%
%ADD128O,0.0800X0.0580*%
%ADD129R,0.0800X0.0580*%
%ADD130C,0.0630*%
%ADD131R,0.0630X0.0630*%
%ADD132O,0.0670X0.0990*%
%ADD133C,0.0710*%
%ADD134R,0.0710X0.0710*%
%ADD135C,0.0580*%
%ADD136O,0.0800X0.0320*%
*
G04 Plot Data ***
*
G54D52*
G01X0032159Y0000294D02*
Y0042794D01*
X0018159Y0056794D01*
Y0062794D01*
X0014159D01*
Y0056794D01*
X0000259Y0042894D01*
Y0000294D01*
X0032159D01*
G54D53*
G01X0058367Y-0084039D02*
X0058867Y-0083039D01*
X0058200D01*
X0057417Y-0084039D02*
X0057917Y-0083039D01*
X0057250D01*
X0056300Y-0083872D02*
X0056467Y-0084039D01*
X0056800D01*
X0056967Y-0083872D01*
Y-0083706D01*
X0056634Y-0083372D01*
X0056967Y-0083039D01*
X0056300D01*
X0046471Y-0084039D02*
X0045888D01*
Y-0083039D01*
X0045605Y-0083706D02*
X0044938D01*
X0045605Y-0084039D02*
Y-0083539D01*
X0045355Y-0083039D01*
X0045188D01*
X0044938Y-0083539D01*
Y-0084039D01*
X0044321D02*
Y-0083039D01*
X0044655D02*
X0043988D01*
X0043121Y-0084039D02*
X0043038Y-0083872D01*
Y-0083206D01*
X0043121Y-0083039D01*
X0043621D01*
X0043705Y-0083206D01*
Y-0083872D01*
X0043621Y-0084039D01*
X0043121D01*
X0042421D02*
Y-0083039D01*
X0042755D02*
X0042088D01*
X0058867Y-0082178D02*
X0058423D01*
X0058867Y-0081734D01*
Y-0081622D01*
X0058811Y-0081511D01*
X0058478D01*
X0058423Y-0081622D01*
X0044973Y-0082178D02*
X0044861Y-0082067D01*
X0044806Y-0081956D01*
Y-0081734D01*
X0044861Y-0081622D01*
X0044973Y-0081511D01*
X0045084D01*
X0045195Y-0081622D01*
X0045250Y-0081734D01*
Y-0081956D01*
X0045195Y-0082067D01*
X0045084Y-0082178D01*
X0044973D01*
X0044550D02*
X0044106D01*
X0044550Y-0081734D01*
Y-0081622D01*
X0044495Y-0081511D01*
X0044161D01*
X0044106Y-0081622D01*
X0043850Y-0082178D02*
X0043628D01*
X0043739D02*
Y-0081511D01*
X0043628Y-0081622D01*
X0043151Y-0082178D02*
X0043262D01*
Y-0082067D01*
X0043151D01*
Y-0082178D01*
X0042506D02*
X0042395Y-0082067D01*
X0042339Y-0081956D01*
Y-0081734D01*
X0042395Y-0081622D01*
X0042506Y-0081511D01*
X0042617D01*
X0042728Y-0081622D01*
X0042784Y-0081734D01*
Y-0081956D01*
X0042728Y-0082067D01*
X0042617Y-0082178D01*
X0042506D01*
X0058589Y-0080678D02*
X0058478Y-0080567D01*
X0058423Y-0080456D01*
Y-0080234D01*
X0058478Y-0080122D01*
X0058589Y-0080011D01*
X0058700D01*
X0058811Y-0080122D01*
X0058867Y-0080234D01*
Y-0080456D01*
X0058811Y-0080567D01*
X0058700Y-0080678D01*
X0058589D01*
X0058167D02*
X0057945D01*
X0058056D02*
Y-0080011D01*
X0057945Y-0080122D01*
X0045195Y-0080345D02*
X0045250Y-0080234D01*
Y-0080122D01*
X0045195Y-0080011D01*
X0044861D01*
X0044806Y-0080122D01*
Y-0080234D01*
X0044861Y-0080345D01*
X0045195D01*
X0045250Y-0080456D01*
Y-0080567D01*
X0045195Y-0080678D01*
X0044861D01*
X0044806Y-0080567D01*
Y-0080456D01*
X0044861Y-0080345D01*
X0044550Y-0080678D02*
X0044328D01*
X0044439D02*
Y-0080011D01*
X0044328Y-0080122D01*
X0043962Y-0080678D02*
X0043739D01*
X0043850D02*
Y-0080011D01*
X0043739Y-0080122D01*
X0043262Y-0080678D02*
X0043373D01*
Y-0080567D01*
X0043262D01*
Y-0080678D01*
X0042617D02*
X0042506Y-0080567D01*
X0042451Y-0080456D01*
Y-0080234D01*
X0042506Y-0080122D01*
X0042617Y-0080011D01*
X0042728D01*
X0042839Y-0080122D01*
X0042895Y-0080234D01*
Y-0080456D01*
X0042839Y-0080567D01*
X0042728Y-0080678D01*
X0042617D01*
X0058867Y-0079178D02*
X0058423D01*
X0058867Y-0078734D01*
Y-0078622D01*
X0058811Y-0078511D01*
X0058478D01*
X0058423Y-0078622D01*
X0044973Y-0079178D02*
X0044861Y-0079067D01*
X0044806Y-0078956D01*
Y-0078734D01*
X0044861Y-0078622D01*
X0044973Y-0078511D01*
X0045084D01*
X0045195Y-0078622D01*
X0045250Y-0078734D01*
Y-0078956D01*
X0045195Y-0079067D01*
X0045084Y-0079178D01*
X0044973D01*
X0044273D02*
X0044161Y-0079067D01*
X0044106Y-0078956D01*
Y-0078734D01*
X0044161Y-0078622D01*
X0044273Y-0078511D01*
X0044384D01*
X0044495Y-0078622D01*
X0044550Y-0078734D01*
Y-0078956D01*
X0044495Y-0079067D01*
X0044384Y-0079178D01*
X0044273D01*
X0043850D02*
X0043628D01*
X0043739D02*
Y-0078511D01*
X0043628Y-0078622D01*
X0043151Y-0079178D02*
X0043262D01*
Y-0079067D01*
X0043151D01*
Y-0079178D01*
X0042506D02*
X0042395Y-0079067D01*
X0042339Y-0078956D01*
Y-0078734D01*
X0042395Y-0078622D01*
X0042506Y-0078511D01*
X0042617D01*
X0042728Y-0078622D01*
X0042784Y-0078734D01*
Y-0078956D01*
X0042728Y-0079067D01*
X0042617Y-0079178D01*
X0042506D01*
X0058423Y-0077567D02*
X0058534Y-0077678D01*
X0058756D01*
X0058867Y-0077567D01*
Y-0077456D01*
X0058645Y-0077234D01*
X0058867Y-0077011D01*
X0058423D01*
X0044917Y-0077678D02*
X0045250Y-0077011D01*
X0044806D01*
X0044495Y-0077345D02*
X0044550Y-0077234D01*
Y-0077122D01*
X0044495Y-0077011D01*
X0044161D01*
X0044106Y-0077122D01*
Y-0077234D01*
X0044161Y-0077345D01*
X0044495D01*
X0044550Y-0077456D01*
Y-0077567D01*
X0044495Y-0077678D01*
X0044161D01*
X0044106Y-0077567D01*
Y-0077456D01*
X0044161Y-0077345D01*
X0043573Y-0077678D02*
X0043461Y-0077567D01*
X0043406Y-0077456D01*
Y-0077234D01*
X0043461Y-0077122D01*
X0043573Y-0077011D01*
X0043684D01*
X0043795Y-0077122D01*
X0043850Y-0077234D01*
Y-0077456D01*
X0043795Y-0077567D01*
X0043684Y-0077678D01*
X0043573D01*
X0043039D02*
X0043150D01*
Y-0077567D01*
X0043039D01*
Y-0077678D01*
X0042395D02*
X0042284Y-0077567D01*
X0042228Y-0077456D01*
Y-0077234D01*
X0042284Y-0077122D01*
X0042395Y-0077011D01*
X0042506D01*
X0042617Y-0077122D01*
X0042673Y-0077234D01*
Y-0077456D01*
X0042617Y-0077567D01*
X0042506Y-0077678D01*
X0042395D01*
X0058867Y-0075956D02*
X0058423D01*
X0058645Y-0075511D01*
X0058756D01*
Y-0076178D01*
X0044973D02*
X0044861Y-0076067D01*
X0044806Y-0075956D01*
Y-0075734D01*
X0044861Y-0075622D01*
X0044973Y-0075511D01*
X0045084D01*
X0045195Y-0075622D01*
X0045250Y-0075734D01*
Y-0075956D01*
X0045195Y-0076067D01*
X0045084Y-0076178D01*
X0044973D01*
X0044217D02*
X0044550Y-0075511D01*
X0044106D01*
X0043573Y-0076178D02*
X0043461Y-0076067D01*
X0043406Y-0075956D01*
Y-0075734D01*
X0043461Y-0075622D01*
X0043573Y-0075511D01*
X0043684D01*
X0043795Y-0075622D01*
X0043850Y-0075734D01*
Y-0075956D01*
X0043795Y-0076067D01*
X0043684Y-0076178D01*
X0043573D01*
X0043039D02*
X0043150D01*
Y-0076067D01*
X0043039D01*
Y-0076178D01*
X0042395D02*
X0042284Y-0076067D01*
X0042228Y-0075956D01*
Y-0075734D01*
X0042284Y-0075622D01*
X0042395Y-0075511D01*
X0042506D01*
X0042617Y-0075622D01*
X0042673Y-0075734D01*
Y-0075956D01*
X0042617Y-0076067D01*
X0042506Y-0076178D01*
X0042395D01*
X0058811Y-0074345D02*
X0058867Y-0074234D01*
Y-0074122D01*
X0058811Y-0074011D01*
X0058478D01*
X0058423Y-0074122D01*
Y-0074234D01*
X0058478Y-0074345D01*
X0058811D01*
X0058867Y-0074456D01*
Y-0074567D01*
X0058811Y-0074678D01*
X0058478D01*
X0058423Y-0074567D01*
Y-0074456D01*
X0058478Y-0074345D01*
X0044973Y-0074678D02*
X0044861Y-0074567D01*
X0044806Y-0074456D01*
Y-0074234D01*
X0044861Y-0074122D01*
X0044973Y-0074011D01*
X0045084D01*
X0045195Y-0074122D01*
X0045250Y-0074234D01*
Y-0074456D01*
X0045195Y-0074567D01*
X0045084Y-0074678D01*
X0044973D01*
X0044161Y-0074345D02*
X0044495D01*
X0044550Y-0074456D01*
Y-0074567D01*
X0044495Y-0074678D01*
X0044161D01*
X0044106Y-0074567D01*
Y-0074456D01*
X0044328Y-0074011D01*
X0043573Y-0074678D02*
X0043461Y-0074567D01*
X0043406Y-0074456D01*
Y-0074234D01*
X0043461Y-0074122D01*
X0043573Y-0074011D01*
X0043684D01*
X0043795Y-0074122D01*
X0043850Y-0074234D01*
Y-0074456D01*
X0043795Y-0074567D01*
X0043684Y-0074678D01*
X0043573D01*
X0043039D02*
X0043150D01*
Y-0074567D01*
X0043039D01*
Y-0074678D01*
X0042395D02*
X0042284Y-0074567D01*
X0042228Y-0074456D01*
Y-0074234D01*
X0042284Y-0074122D01*
X0042395Y-0074011D01*
X0042506D01*
X0042617Y-0074122D01*
X0042673Y-0074234D01*
Y-0074456D01*
X0042617Y-0074567D01*
X0042506Y-0074678D01*
X0042395D01*
X0058811Y-0072845D02*
X0058478D01*
X0058423Y-0072734D01*
Y-0072622D01*
X0058478Y-0072511D01*
X0058811D01*
X0058867Y-0072622D01*
Y-0072734D01*
X0058645Y-0073178D01*
X0044973D02*
X0044861Y-0073067D01*
X0044806Y-0072956D01*
Y-0072734D01*
X0044861Y-0072622D01*
X0044973Y-0072511D01*
X0045084D01*
X0045195Y-0072622D01*
X0045250Y-0072734D01*
Y-0072956D01*
X0045195Y-0073067D01*
X0045084Y-0073178D01*
X0044973D01*
X0044550Y-0072956D02*
X0044106D01*
X0044328Y-0072511D01*
X0044439D01*
Y-0073178D01*
X0043573D02*
X0043461Y-0073067D01*
X0043406Y-0072956D01*
Y-0072734D01*
X0043461Y-0072622D01*
X0043573Y-0072511D01*
X0043684D01*
X0043795Y-0072622D01*
X0043850Y-0072734D01*
Y-0072956D01*
X0043795Y-0073067D01*
X0043684Y-0073178D01*
X0043573D01*
X0043039D02*
X0043150D01*
Y-0073067D01*
X0043039D01*
Y-0073178D01*
X0042395D02*
X0042284Y-0073067D01*
X0042228Y-0072956D01*
Y-0072734D01*
X0042284Y-0072622D01*
X0042395Y-0072511D01*
X0042506D01*
X0042617Y-0072622D01*
X0042673Y-0072734D01*
Y-0072956D01*
X0042617Y-0073067D01*
X0042506Y-0073178D01*
X0042395D01*
X0058534Y-0071678D02*
X0058867Y-0071011D01*
X0058423D01*
X0057723Y-0071567D02*
X0057834Y-0071678D01*
X0058056D01*
X0058167Y-0071567D01*
Y-0071456D01*
X0057945Y-0071234D01*
X0058167Y-0071011D01*
X0057723D01*
X0045195Y-0071345D02*
X0045250Y-0071234D01*
Y-0071122D01*
X0045195Y-0071011D01*
X0044861D01*
X0044806Y-0071122D01*
Y-0071234D01*
X0044861Y-0071345D01*
X0045195D01*
X0045250Y-0071456D01*
Y-0071567D01*
X0045195Y-0071678D01*
X0044861D01*
X0044806Y-0071567D01*
Y-0071456D01*
X0044861Y-0071345D01*
X0044106Y-0071567D02*
X0044217Y-0071678D01*
X0044439D01*
X0044550Y-0071567D01*
Y-0071456D01*
X0044328Y-0071234D01*
X0044550Y-0071011D01*
X0044106D01*
X0043573Y-0071678D02*
X0043461Y-0071567D01*
X0043406Y-0071456D01*
Y-0071234D01*
X0043461Y-0071122D01*
X0043573Y-0071011D01*
X0043684D01*
X0043795Y-0071122D01*
X0043850Y-0071234D01*
Y-0071456D01*
X0043795Y-0071567D01*
X0043684Y-0071678D01*
X0043573D01*
X0043039D02*
X0043150D01*
Y-0071567D01*
X0043039D01*
Y-0071678D01*
X0042395D02*
X0042284Y-0071567D01*
X0042228Y-0071456D01*
Y-0071234D01*
X0042284Y-0071122D01*
X0042395Y-0071011D01*
X0042506D01*
X0042617Y-0071122D01*
X0042673Y-0071234D01*
Y-0071456D01*
X0042617Y-0071567D01*
X0042506Y-0071678D01*
X0042395D01*
X0058867Y-0070178D02*
X0058645D01*
X0058756D02*
Y-0069511D01*
X0058645Y-0069622D01*
X0058278Y-0069956D02*
X0057834D01*
X0058056Y-0069511D01*
X0058167D01*
Y-0070178D01*
X0057578D02*
X0057134D01*
X0057578Y-0069734D01*
Y-0069622D01*
X0057523Y-0069511D01*
X0057189D01*
X0057134Y-0069622D01*
X0045250Y-0069956D02*
X0044806D01*
X0045028Y-0069511D01*
X0045139D01*
Y-0070178D01*
X0044106Y-0070067D02*
X0044217Y-0070178D01*
X0044439D01*
X0044550Y-0070067D01*
Y-0069956D01*
X0044328Y-0069734D01*
X0044550Y-0069511D01*
X0044106D01*
X0043573Y-0070178D02*
X0043461Y-0070067D01*
X0043406Y-0069956D01*
Y-0069734D01*
X0043461Y-0069622D01*
X0043573Y-0069511D01*
X0043684D01*
X0043795Y-0069622D01*
X0043850Y-0069734D01*
Y-0069956D01*
X0043795Y-0070067D01*
X0043684Y-0070178D01*
X0043573D01*
X0043039D02*
X0043150D01*
Y-0070067D01*
X0043039D01*
Y-0070178D01*
X0042395D02*
X0042284Y-0070067D01*
X0042228Y-0069956D01*
Y-0069734D01*
X0042284Y-0069622D01*
X0042395Y-0069511D01*
X0042506D01*
X0042617Y-0069622D01*
X0042673Y-0069734D01*
Y-0069956D01*
X0042617Y-0070067D01*
X0042506Y-0070178D01*
X0042395D01*
X0058478Y-0068345D02*
X0058811D01*
X0058867Y-0068456D01*
Y-0068567D01*
X0058811Y-0068678D01*
X0058478D01*
X0058423Y-0068567D01*
Y-0068456D01*
X0058645Y-0068011D01*
X0045250Y-0068678D02*
X0044806D01*
X0045250Y-0068234D01*
Y-0068122D01*
X0045195Y-0068011D01*
X0044861D01*
X0044806Y-0068122D01*
X0044106Y-0068567D02*
X0044217Y-0068678D01*
X0044439D01*
X0044550Y-0068567D01*
Y-0068456D01*
X0044328Y-0068234D01*
X0044550Y-0068011D01*
X0044106D01*
X0043573Y-0068678D02*
X0043461Y-0068567D01*
X0043406Y-0068456D01*
Y-0068234D01*
X0043461Y-0068122D01*
X0043573Y-0068011D01*
X0043684D01*
X0043795Y-0068122D01*
X0043850Y-0068234D01*
Y-0068456D01*
X0043795Y-0068567D01*
X0043684Y-0068678D01*
X0043573D01*
X0043039D02*
X0043150D01*
Y-0068567D01*
X0043039D01*
Y-0068678D01*
X0042395D02*
X0042284Y-0068567D01*
X0042228Y-0068456D01*
Y-0068234D01*
X0042284Y-0068122D01*
X0042395Y-0068011D01*
X0042506D01*
X0042617Y-0068122D01*
X0042673Y-0068234D01*
Y-0068456D01*
X0042617Y-0068567D01*
X0042506Y-0068678D01*
X0042395D01*
X0058423Y-0067067D02*
X0058478Y-0067178D01*
X0058811D01*
X0058867Y-0067067D01*
Y-0066845D01*
X0058756Y-0066734D01*
X0058423D01*
Y-0066511D01*
X0058867D01*
X0057723Y-0067067D02*
X0057778Y-0067178D01*
X0058111D01*
X0058167Y-0067067D01*
Y-0066845D01*
X0058056Y-0066734D01*
X0057723D01*
Y-0066511D01*
X0058167D01*
X0045195Y-0066845D02*
X0045250Y-0066734D01*
Y-0066622D01*
X0045195Y-0066511D01*
X0044861D01*
X0044806Y-0066622D01*
Y-0066734D01*
X0044861Y-0066845D01*
X0045195D01*
X0045250Y-0066956D01*
Y-0067067D01*
X0045195Y-0067178D01*
X0044861D01*
X0044806Y-0067067D01*
Y-0066956D01*
X0044861Y-0066845D01*
X0044550Y-0067178D02*
X0044106D01*
X0044550Y-0066734D01*
Y-0066622D01*
X0044495Y-0066511D01*
X0044161D01*
X0044106Y-0066622D01*
X0043573Y-0067178D02*
X0043461Y-0067067D01*
X0043406Y-0066956D01*
Y-0066734D01*
X0043461Y-0066622D01*
X0043573Y-0066511D01*
X0043684D01*
X0043795Y-0066622D01*
X0043850Y-0066734D01*
Y-0066956D01*
X0043795Y-0067067D01*
X0043684Y-0067178D01*
X0043573D01*
X0043039D02*
X0043150D01*
Y-0067067D01*
X0043039D01*
Y-0067178D01*
X0042395D02*
X0042284Y-0067067D01*
X0042228Y-0066956D01*
Y-0066734D01*
X0042284Y-0066622D01*
X0042395Y-0066511D01*
X0042506D01*
X0042617Y-0066622D01*
X0042673Y-0066734D01*
Y-0066956D01*
X0042617Y-0067067D01*
X0042506Y-0067178D01*
X0042395D01*
X0067271Y-0065039D02*
X0066771D01*
X0067438Y-0065539D02*
X0066771D01*
Y-0064539D01*
X0067438D01*
X0066155Y-0065539D02*
Y-0064539D01*
X0066488D02*
X0065821D01*
X0064955Y-0065539D02*
X0064871Y-0065372D01*
Y-0064706D01*
X0064955Y-0064539D01*
X0065455D01*
X0065538Y-0064706D01*
Y-0065372D01*
X0065455Y-0065539D01*
X0064955D01*
X0064588Y-0064539D02*
Y-0065539D01*
X0064421Y-0065372D01*
X0064088Y-0064706D01*
X0063921Y-0064539D01*
Y-0065539D01*
X0058084D02*
Y-0065039D01*
X0058417Y-0064539D02*
X0058167Y-0065039D01*
X0058000D01*
X0057750Y-0064539D01*
X0057134Y-0065539D02*
Y-0064539D01*
X0057467D02*
X0056800D01*
X0056184Y-0065206D02*
X0056517Y-0065539D01*
X0055850Y-0065372D02*
X0055934Y-0065539D01*
X0056267D01*
X0056350Y-0065372D01*
X0056517Y-0065206D01*
Y-0064706D01*
X0056434Y-0064539D01*
X0055934D01*
X0055850Y-0064706D01*
Y-0065372D01*
X0051567Y-0065539D02*
X0050984D01*
Y-0064539D01*
X0050117Y-0065539D02*
X0050034Y-0065372D01*
Y-0064706D01*
X0050117Y-0064539D01*
X0050617D01*
X0050700Y-0064706D01*
Y-0065372D01*
X0050617Y-0065539D01*
X0050117D01*
X0049417D02*
Y-0064539D01*
X0049750D02*
X0049084D01*
X0043746Y-0065539D02*
Y-0064539D01*
X0043580Y-0064706D01*
X0043413Y-0065039D01*
X0043246Y-0064706D01*
X0043080Y-0064539D01*
Y-0065539D01*
X0042796Y-0065206D02*
X0042130D01*
X0042796Y-0065539D02*
Y-0065039D01*
X0042546Y-0064539D01*
X0042380D01*
X0042130Y-0065039D01*
Y-0065539D01*
X0041846D02*
X0041513D01*
X0041680D02*
Y-0064539D01*
X0041846D02*
X0041513D01*
X0040480Y-0065539D02*
Y-0064539D01*
X0040396Y-0065539D02*
X0040896D01*
X0041063Y-0065206D01*
Y-0064872D01*
X0040896Y-0064539D01*
X0040396D01*
X0037309Y-0065539D02*
Y-0064539D01*
X0037142Y-0064706D01*
X0036975Y-0065039D01*
X0036809Y-0064706D01*
X0036642Y-0064539D01*
Y-0065539D01*
X0036025D02*
Y-0065039D01*
X0036359Y-0064539D02*
X0036109Y-0065039D01*
X0035942D01*
X0035692Y-0064539D01*
X0035409Y-0064706D02*
X0035325Y-0064539D01*
X0034825D01*
X0034742Y-0064706D01*
Y-0064872D01*
X0034825Y-0065039D01*
X0035325D01*
X0035409Y-0065206D01*
Y-0065372D01*
X0035325Y-0065539D01*
X0034825D01*
X0034742Y-0065372D01*
X0057596Y-0063539D02*
Y-0062539D01*
X0057930D02*
X0057263D01*
X0056730Y-0063039D02*
X0056980Y-0063539D01*
X0056313Y-0063039D02*
X0056813D01*
X0056980Y-0062872D01*
Y-0062706D01*
X0056813Y-0062539D01*
X0056313D01*
Y-0063539D01*
X0056030Y-0063206D02*
X0055363D01*
X0056030Y-0063539D02*
Y-0063039D01*
X0055780Y-0062539D01*
X0055613D01*
X0055363Y-0063039D01*
Y-0063539D01*
X0055080Y-0063039D02*
X0054413D01*
X0055080Y-0063539D02*
Y-0062539D01*
X0054413Y-0063539D02*
Y-0062539D01*
X0054130Y-0063372D02*
X0054046Y-0063539D01*
X0053546D01*
X0053463Y-0063372D01*
Y-0062706D01*
X0053546Y-0062539D01*
X0054046D01*
X0054130Y-0062706D01*
X0051855Y-0063539D02*
X0051271D01*
Y-0062539D01*
X0050988Y-0063539D02*
X0050405D01*
Y-0062539D01*
X0050121Y-0063539D02*
X0049788D01*
X0049955D02*
Y-0062539D01*
X0050121D02*
X0049788D01*
X0049088Y-0063039D02*
X0049338Y-0063539D01*
X0048671Y-0063039D02*
X0049171D01*
X0049338Y-0062872D01*
Y-0062706D01*
X0049171Y-0062539D01*
X0048671D01*
Y-0063539D01*
X0047805D02*
Y-0062539D01*
X0047721Y-0063539D02*
X0048221D01*
X0048388Y-0063206D01*
Y-0062872D01*
X0048221Y-0062539D01*
X0047721D01*
X0013759Y0032144D02*
X0013509Y0031894D01*
X0014009D02*
X0013759Y0032144D01*
Y0031644D02*
X0014009Y0031894D01*
X0013509D02*
X0013759Y0031644D01*
X0016159Y0007544D02*
X0015909Y0007294D01*
X0016409D02*
X0016159Y0007544D01*
Y0007044D02*
X0016409Y0007294D01*
X0015909D02*
X0016159Y0007044D01*
X0015459Y0037244D02*
X0015209Y0036994D01*
X0015709D02*
X0015459Y0037244D01*
Y0036744D02*
X0015709Y0036994D01*
X0015209D02*
X0015459Y0036744D01*
X0047090Y0007260D02*
X0046840Y0007010D01*
X0047340D02*
X0047090Y0007260D01*
Y0006760D02*
X0047340Y0007010D01*
X0046840D02*
X0047090Y0006760D01*
Y0015060D02*
X0046840Y0014810D01*
X0047340D02*
X0047090Y0015060D01*
Y0014560D02*
X0047340Y0014810D01*
X0046840D02*
X0047090Y0014560D01*
X0045070Y0011110D02*
X0044820Y0010860D01*
X0045320D02*
X0045070Y0011110D01*
Y0010610D02*
X0045320Y0010860D01*
X0044820D02*
X0045070Y0010610D01*
Y0003310D02*
X0044820Y0003060D01*
X0045320D02*
X0045070Y0003310D01*
Y0002810D02*
X0045320Y0003060D01*
X0044820D02*
X0045070Y0002810D01*
X0040500Y0013100D02*
X0040250Y0012850D01*
X0040750D02*
X0040500Y0013100D01*
Y0012600D02*
X0040750Y0012850D01*
X0040250D02*
X0040500Y0012600D01*
X0036750Y0013300D02*
X0036500Y0013050D01*
X0037000D02*
X0036750Y0013300D01*
Y0012800D02*
X0037000Y0013050D01*
X0036500D02*
X0036750Y0012800D01*
X0040500Y0005300D02*
X0040250Y0005050D01*
X0040750D02*
X0040500Y0005300D01*
Y0004800D02*
X0040750Y0005050D01*
X0040250D02*
X0040500Y0004800D01*
X0036750Y0005500D02*
X0036500Y0005250D01*
X0037000D02*
X0036750Y0005500D01*
Y0005000D02*
X0037000Y0005250D01*
X0036500D02*
X0036750Y0005000D01*
X0014459Y0037244D02*
X0014209Y0036994D01*
X0014709D02*
X0014459Y0037244D01*
Y0036744D02*
X0014709Y0036994D01*
X0014209D02*
X0014459Y0036744D01*
X0009450Y0028150D02*
X0009200Y0027900D01*
X0009700D02*
X0009450Y0028150D01*
Y0027650D02*
X0009700Y0027900D01*
X0009200D02*
X0009450Y0027650D01*
X0011320Y0030080D02*
X0011070Y0029830D01*
X0011570D02*
X0011320Y0030080D01*
Y0029580D02*
X0011570Y0029830D01*
X0011070D02*
X0011320Y0029580D01*
X0016659Y0034244D02*
X0016409Y0033994D01*
X0016909D02*
X0016659Y0034244D01*
Y0033744D02*
X0016909Y0033994D01*
X0016409D02*
X0016659Y0033744D01*
X0018359Y0040844D02*
X0018109Y0040594D01*
X0018609D02*
X0018359Y0040844D01*
Y0040344D02*
X0018609Y0040594D01*
X0018109D02*
X0018359Y0040344D01*
X0039990Y0002020D02*
X0039740Y0001770D01*
X0040240D02*
X0039990Y0002020D01*
Y0001520D02*
X0040240Y0001770D01*
X0039740D02*
X0039990Y0001520D01*
X0013100Y0040550D02*
X0012850Y0040300D01*
X0013350D02*
X0013100Y0040550D01*
Y0040050D02*
X0013350Y0040300D01*
X0012850D02*
X0013100Y0040050D01*
X0014000Y0029850D02*
X0013750Y0029600D01*
X0014250D02*
X0014000Y0029850D01*
Y0029350D02*
X0014250Y0029600D01*
X0013750D02*
X0014000Y0029350D01*
X0027759Y0029644D02*
X0027509Y0029394D01*
X0028009D02*
X0027759Y0029644D01*
Y0029144D02*
X0028009Y0029394D01*
X0027509D02*
X0027759Y0029144D01*
X0016659Y0049694D02*
X0016409Y0049444D01*
X0016909D02*
X0016659Y0049694D01*
Y0049194D02*
X0016909Y0049444D01*
X0016409D02*
X0016659Y0049194D01*
X0023759Y0049594D02*
X0023509Y0049344D01*
X0024009D02*
X0023759Y0049594D01*
Y0049094D02*
X0024009Y0049344D01*
X0023509D02*
X0023759Y0049094D01*
X0043290Y0012070D02*
X0043040Y0011820D01*
X0043540D02*
X0043290Y0012070D01*
Y0011570D02*
X0043540Y0011820D01*
X0043040D02*
X0043290Y0011570D01*
X0040580Y0002830D02*
X0040330Y0002580D01*
X0040830D02*
X0040580Y0002830D01*
Y0002330D02*
X0040830Y0002580D01*
X0040330D02*
X0040580Y0002330D01*
Y0010630D02*
X0040330Y0010380D01*
X0040830D02*
X0040580Y0010630D01*
Y0010130D02*
X0040830Y0010380D01*
X0040330D02*
X0040580Y0010130D01*
X0043290Y0004270D02*
X0043040Y0004020D01*
X0043540D02*
X0043290Y0004270D01*
Y0003770D02*
X0043540Y0004020D01*
X0043040D02*
X0043290Y0003770D01*
X0043960Y0009160D02*
X0043710Y0008910D01*
X0044210D02*
X0043960Y0009160D01*
Y0008660D02*
X0044210Y0008910D01*
X0043710D02*
X0043960Y0008660D01*
X0043290Y0012070D02*
X0043040Y0011820D01*
X0043540D02*
X0043290Y0012070D01*
Y0011570D02*
X0043540Y0011820D01*
X0043040D02*
X0043290Y0011570D01*
X0043960Y0001360D02*
X0043710Y0001110D01*
X0044210D02*
X0043960Y0001360D01*
Y0000860D02*
X0044210Y0001110D01*
X0043710D02*
X0043960Y0000860D01*
X0043290Y0004270D02*
X0043040Y0004020D01*
X0043540D02*
X0043290Y0004270D01*
Y0003770D02*
X0043540Y0004020D01*
X0043040D02*
X0043290Y0003770D01*
X0039810Y0012050D02*
X0039560Y0011800D01*
X0040060D02*
X0039810Y0012050D01*
Y0011550D02*
X0040060Y0011800D01*
X0039560D02*
X0039810Y0011550D01*
X0043290Y0012070D02*
X0043040Y0011820D01*
X0043540D02*
X0043290Y0012070D01*
Y0011570D02*
X0043540Y0011820D01*
X0043040D02*
X0043290Y0011570D01*
X0039810Y0004250D02*
X0039560Y0004000D01*
X0040060D02*
X0039810Y0004250D01*
Y0003750D02*
X0040060Y0004000D01*
X0039560D02*
X0039810Y0003750D01*
X0043290Y0004270D02*
X0043040Y0004020D01*
X0043540D02*
X0043290Y0004270D01*
Y0003770D02*
X0043540Y0004020D01*
X0043040D02*
X0043290Y0003770D01*
X0010050Y0008300D02*
X0009800Y0008050D01*
X0010300D02*
X0010050Y0008300D01*
Y0007800D02*
X0010300Y0008050D01*
X0009800D02*
X0010050Y0007800D01*
X0012359Y0039144D02*
X0012109Y0038894D01*
X0012609D02*
X0012359Y0039144D01*
Y0038644D02*
X0012609Y0038894D01*
X0012109D02*
X0012359Y0038644D01*
X0039990Y0009820D02*
X0039740Y0009570D01*
X0040240D02*
X0039990Y0009820D01*
Y0009320D02*
X0040240Y0009570D01*
X0039740D02*
X0039990Y0009320D01*
X0021859Y0011594D02*
X0021609Y0011344D01*
X0022109D02*
X0021859Y0011594D01*
Y0011094D02*
X0022109Y0011344D01*
X0021609D02*
X0021859Y0011094D01*
X0015909Y0050544D02*
X0015659Y0050294D01*
X0016159D02*
X0015909Y0050544D01*
Y0050044D02*
X0016159Y0050294D01*
X0015659D02*
X0015909Y0050044D01*
X0022959Y0050494D02*
X0022709Y0050244D01*
X0023209D02*
X0022959Y0050494D01*
Y0049994D02*
X0023209Y0050244D01*
X0022709D02*
X0022959Y0049994D01*
X0043290Y0004270D02*
X0043040Y0004020D01*
X0043540D02*
X0043290Y0004270D01*
Y0003770D02*
X0043540Y0004020D01*
X0043040D02*
X0043290Y0003770D01*
X0045150Y0005500D02*
X0044900Y0005250D01*
X0045400D02*
X0045150Y0005500D01*
Y0005000D02*
X0045400Y0005250D01*
X0044900D02*
X0045150Y0005000D01*
X0043290Y0012070D02*
X0043040Y0011820D01*
X0043540D02*
X0043290Y0012070D01*
Y0011570D02*
X0043540Y0011820D01*
X0043040D02*
X0043290Y0011570D01*
X0045150Y0013300D02*
X0044900Y0013050D01*
X0045400D02*
X0045150Y0013300D01*
Y0012800D02*
X0045400Y0013050D01*
X0044900D02*
X0045150Y0012800D01*
X0043960Y0009160D02*
X0043710Y0008910D01*
X0044210D02*
X0043960Y0009160D01*
Y0008660D02*
X0044210Y0008910D01*
X0043710D02*
X0043960Y0008660D01*
X0045150Y0005500D02*
X0044900Y0005250D01*
X0045400D02*
X0045150Y0005500D01*
Y0005000D02*
X0045400Y0005250D01*
X0044900D02*
X0045150Y0005000D01*
X0016159Y0040244D02*
X0015909Y0039994D01*
X0016409D02*
X0016159Y0040244D01*
Y0039744D02*
X0016409Y0039994D01*
X0015909D02*
X0016159Y0039744D01*
X0008659Y0039794D02*
X0008409Y0039544D01*
X0008909D02*
X0008659Y0039794D01*
Y0039294D02*
X0008909Y0039544D01*
X0008409D02*
X0008659Y0039294D01*
X0047250Y0011440D02*
X0047000Y0011190D01*
X0047500D02*
X0047250Y0011440D01*
Y0010940D02*
X0047500Y0011190D01*
X0047000D02*
X0047250Y0010940D01*
Y0003640D02*
X0047000Y0003390D01*
X0047500D02*
X0047250Y0003640D01*
Y0003140D02*
X0047500Y0003390D01*
X0047000D02*
X0047250Y0003140D01*
X0022659Y0008544D02*
X0022409Y0008294D01*
X0022909D02*
X0022659Y0008544D01*
Y0008044D02*
X0022909Y0008294D01*
X0022409D02*
X0022659Y0008044D01*
X0024559Y0047794D02*
X0024309Y0047544D01*
X0024809D02*
X0024559Y0047794D01*
Y0047294D02*
X0024809Y0047544D01*
X0024309D02*
X0024559Y0047294D01*
X0015109Y0047894D02*
X0014859Y0047644D01*
X0015359D02*
X0015109Y0047894D01*
Y0047394D02*
X0015359Y0047644D01*
X0014859D02*
X0015109Y0047394D01*
X0013100Y0040550D02*
X0012850Y0040300D01*
X0013350D02*
X0013100Y0040550D01*
Y0040050D02*
X0013350Y0040300D01*
X0012850D02*
X0013100Y0040050D01*
X0019359Y0014444D02*
X0019109Y0014194D01*
X0019609D02*
X0019359Y0014444D01*
Y0013944D02*
X0019609Y0014194D01*
X0019109D02*
X0019359Y0013944D01*
X0040580Y0002830D02*
X0040330Y0002580D01*
X0040830D02*
X0040580Y0002830D01*
Y0002330D02*
X0040830Y0002580D01*
X0040330D02*
X0040580Y0002330D01*
Y0010630D02*
X0040330Y0010380D01*
X0040830D02*
X0040580Y0010630D01*
Y0010130D02*
X0040830Y0010380D01*
X0040330D02*
X0040580Y0010130D01*
X0039990Y0009820D02*
X0039740Y0009570D01*
X0040240D02*
X0039990Y0009820D01*
Y0009320D02*
X0040240Y0009570D01*
X0039740D02*
X0039990Y0009320D01*
X0003759Y0030444D02*
X0003509Y0030194D01*
X0004009D02*
X0003759Y0030444D01*
Y0029944D02*
X0004009Y0030194D01*
X0003509D02*
X0003759Y0029944D01*
X0027759Y0029644D02*
X0027509Y0029394D01*
X0028009D02*
X0027759Y0029644D01*
Y0029144D02*
X0028009Y0029394D01*
X0027509D02*
X0027759Y0029144D01*
X0014000Y0029850D02*
X0013750Y0029600D01*
X0014250D02*
X0014000Y0029850D01*
Y0029350D02*
X0014250Y0029600D01*
X0013750D02*
X0014000Y0029350D01*
X0013100Y0040550D02*
X0012850Y0040300D01*
X0013350D02*
X0013100Y0040550D01*
Y0040050D02*
X0013350Y0040300D01*
X0012850D02*
X0013100Y0040050D01*
X0023209Y0007044D02*
X0022959Y0006794D01*
X0023459D02*
X0023209Y0007044D01*
Y0006544D02*
X0023459Y0006794D01*
X0022959D02*
X0023209Y0006544D01*
X0015259Y0040844D02*
X0015009Y0040594D01*
X0015509D02*
X0015259Y0040844D01*
Y0040344D02*
X0015509Y0040594D01*
X0015009D02*
X0015259Y0040344D01*
X0030659Y0027444D02*
X0030409Y0027194D01*
X0030909D02*
X0030659Y0027444D01*
Y0026944D02*
X0030909Y0027194D01*
X0030409D02*
X0030659Y0026944D01*
X0004659Y0029544D02*
X0004409Y0029294D01*
X0004909D02*
X0004659Y0029544D01*
Y0029044D02*
X0004909Y0029294D01*
X0004409D02*
X0004659Y0029044D01*
X0024509Y0048744D02*
X0024259Y0048494D01*
X0024759D02*
X0024509Y0048744D01*
Y0048244D02*
X0024759Y0048494D01*
X0024259D02*
X0024509Y0048244D01*
X0017409Y0048744D02*
X0017159Y0048494D01*
X0017659D02*
X0017409Y0048744D01*
Y0048244D02*
X0017659Y0048494D01*
X0017159D02*
X0017409Y0048244D01*
X0007350Y0028150D02*
X0007100Y0027900D01*
X0007600D02*
X0007350Y0028150D01*
Y0027650D02*
X0007600Y0027900D01*
X0007100D02*
X0007350Y0027650D01*
X0016659Y0034244D02*
X0016409Y0033994D01*
X0016909D02*
X0016659Y0034244D01*
Y0033744D02*
X0016909Y0033994D01*
X0016409D02*
X0016659Y0033744D01*
X0047250Y0011440D02*
X0047000Y0011190D01*
X0047500D02*
X0047250Y0011440D01*
Y0010940D02*
X0047500Y0011190D01*
X0047000D02*
X0047250Y0010940D01*
X0010050Y0008300D02*
X0009800Y0008050D01*
X0010300D02*
X0010050Y0008300D01*
Y0007800D02*
X0010300Y0008050D01*
X0009800D02*
X0010050Y0007800D01*
X0035984Y-0081806D02*
X0035734Y-0082056D01*
X0036234D02*
X0035984Y-0081806D01*
X0035734Y-0082056D02*
X0036234D01*
X0035734Y-0080206D02*
Y-0080456D01*
X0035984Y-0080206D02*
X0035734D01*
X0035984Y-0080706D02*
Y-0080206D01*
X0036234Y-0080706D02*
X0035984D01*
X0036234Y-0080456D02*
Y-0080706D01*
X0035734Y-0080456D02*
X0036234D01*
X0035734Y-0078706D02*
Y-0079206D01*
X0036234Y-0078706D02*
X0035734D01*
X0036234Y-0079206D02*
Y-0078706D01*
X0035734Y-0079206D02*
X0036234D01*
Y-0078956D02*
X0035734D01*
X0035984Y-0078706D02*
Y-0079206D01*
X0035734Y-0077356D02*
Y-0077556D01*
X0035884Y-0077206D02*
X0035734Y-0077356D01*
X0036084Y-0077206D02*
X0035884D01*
X0036234Y-0077356D02*
X0036084Y-0077206D01*
X0036234Y-0077556D02*
Y-0077356D01*
X0036084Y-0077706D02*
X0036234Y-0077556D01*
X0035884Y-0077706D02*
X0036084D01*
X0035734Y-0077556D02*
X0035884Y-0077706D01*
X0035934Y-0077356D02*
Y-0077306D01*
X0035884Y-0077356D02*
X0035934D01*
X0035884Y-0077306D02*
Y-0077356D01*
X0035934Y-0077306D02*
X0035884D01*
X0036034D02*
Y-0077356D01*
X0036084Y-0077306D02*
X0036034D01*
X0036084Y-0077356D02*
Y-0077306D01*
X0036034Y-0077356D02*
X0036084D01*
X0035934Y-0077606D02*
X0035834Y-0077506D01*
X0036034Y-0077606D02*
X0035934D01*
X0036134Y-0077506D02*
X0036034Y-0077606D01*
X0035734Y-0075856D02*
Y-0076056D01*
X0035984Y-0076106D02*
X0035734Y-0075856D01*
X0036234D02*
X0035984Y-0076106D01*
X0036234Y-0076056D02*
Y-0075856D01*
X0035984Y-0075806D02*
X0036234Y-0076056D01*
X0035734D02*
X0035984Y-0075806D01*
X0035734Y-0074206D02*
Y-0074706D01*
X0036234Y-0074206D02*
X0035734D01*
X0036234Y-0074706D02*
Y-0074206D01*
X0035734Y-0074706D02*
X0036234D01*
Y-0074206D02*
X0035734Y-0074706D01*
X0036234D02*
X0035734Y-0074206D01*
Y-0072856D02*
Y-0073056D01*
X0035884Y-0072706D02*
X0035734Y-0072856D01*
X0036084Y-0072706D02*
X0035884D01*
X0036234Y-0072856D02*
X0036084Y-0072706D01*
X0036234Y-0073056D02*
Y-0072856D01*
X0036084Y-0073206D02*
X0036234Y-0073056D01*
X0035884Y-0073206D02*
X0036084D01*
X0035734Y-0073056D02*
X0035884Y-0073206D01*
X0036234Y-0071456D02*
X0035734D01*
X0035984Y-0071206D02*
Y-0071706D01*
X0036234Y-0069706D02*
X0035734Y-0070206D01*
X0036234D02*
X0035734Y-0069706D01*
X0036484Y-0067956D02*
X0035484Y-0068956D01*
X0036484D02*
X0035484Y-0067956D01*
X0035984Y-0066706D02*
X0035734Y-0066956D01*
X0036234D02*
X0035984Y-0066706D01*
Y-0067206D02*
X0036234Y-0066956D01*
X0035734D02*
X0035984Y-0067206D01*
X0071459Y-0084756D02*
X0034109D01*
X0071409Y-0084706D02*
X0034159D01*
X0071409Y-0082706D02*
X0034159D01*
X0071409Y-0081206D02*
X0034159D01*
X0071409Y-0079706D02*
X0034159D01*
X0071409Y-0078206D02*
X0034159D01*
X0071409Y-0076706D02*
X0034159D01*
X0071409Y-0075206D02*
X0034159D01*
X0071409Y-0073706D02*
X0034159D01*
X0071409Y-0072206D02*
X0034159D01*
X0071409Y-0070706D02*
X0034159D01*
X0071409Y-0069206D02*
X0034159D01*
X0071409Y-0067706D02*
X0034159D01*
X0071409Y-0066206D02*
X0034159D01*
X0071409Y-0066156D02*
X0034159D01*
X0071409Y-0064206D02*
X0034159D01*
X0071409Y-0064156D02*
X0034159D01*
X0071409Y-0062206D02*
X0034159D01*
X0071459Y-0062156D02*
X0034109D01*
X0071459Y-0084706D02*
Y-0062206D01*
X0071409Y-0084706D02*
Y-0062206D01*
X0059867Y-0084706D02*
Y-0064206D01*
X0054317Y-0084706D02*
Y-0064206D01*
X0046250Y-0082706D02*
Y-0064206D01*
X0037859Y-0082706D02*
Y-0064206D01*
X0037809Y-0082706D02*
Y-0064206D01*
X0034109Y-0084706D02*
Y-0062206D01*
X0034159Y-0084706D02*
Y-0062206D01*
X0034125Y0043000D02*
X0033625Y0042500D01*
X0034125D02*
X0033625Y0043000D01*
X0035125D02*
X0034625Y0042500D01*
X0035125D02*
X0034625Y0043000D01*
X0034125Y0042000D02*
X0033625Y0041500D01*
X0034125D02*
X0033625Y0042000D01*
X0035125D02*
X0034625Y0041500D01*
X0035125D02*
X0034625Y0042000D01*
X0034125Y0041000D02*
X0033625Y0040500D01*
X0034125D02*
X0033625Y0041000D01*
X0035125D02*
X0034625Y0040500D01*
X0035125D02*
X0034625Y0041000D01*
X0034125Y0040000D02*
X0033625Y0039500D01*
X0034125D02*
X0033625Y0040000D01*
X0035125D02*
X0034625Y0039500D01*
X0035125D02*
X0034625Y0040000D01*
X0034125Y0039000D02*
X0033625Y0038500D01*
X0034125D02*
X0033625Y0039000D01*
X0035125D02*
X0034625Y0038500D01*
X0035125D02*
X0034625Y0039000D01*
X0034125Y0038000D02*
X0033625Y0037500D01*
X0034125D02*
X0033625Y0038000D01*
X0035125D02*
X0034625Y0037500D01*
X0035125D02*
X0034625Y0038000D01*
X0034125Y0037000D02*
X0033625Y0036500D01*
X0034125D02*
X0033625Y0037000D01*
X0035125D02*
X0034625Y0036500D01*
X0035125D02*
X0034625Y0037000D01*
X0034125Y0036000D02*
X0033625Y0035500D01*
X0034125D02*
X0033625Y0036000D01*
X0035125D02*
X0034625Y0035500D01*
X0035125D02*
X0034625Y0036000D01*
X0043625Y0046000D02*
X0043125Y0045500D01*
X0043625D02*
X0043125Y0046000D01*
X0043625Y0045000D02*
X0043125Y0044500D01*
X0043625D02*
X0043125Y0045000D01*
X0042625Y0046000D02*
X0042125Y0045500D01*
X0042625D02*
X0042125Y0046000D01*
X0042625Y0045000D02*
X0042125Y0044500D01*
X0042625D02*
X0042125Y0045000D01*
X0041625Y0046000D02*
X0041125Y0045500D01*
X0041625D02*
X0041125Y0046000D01*
X0041625Y0045000D02*
X0041125Y0044500D01*
X0041625D02*
X0041125Y0045000D01*
X0040625Y0046000D02*
X0040125Y0045500D01*
X0040625D02*
X0040125Y0046000D01*
X0040625Y0045000D02*
X0040125Y0044500D01*
X0040625D02*
X0040125Y0045000D01*
X0039625Y0046000D02*
X0039125Y0045500D01*
X0039625D02*
X0039125Y0046000D01*
X0039625Y0045000D02*
X0039125Y0044500D01*
X0039625D02*
X0039125Y0045000D01*
X0038625Y0046000D02*
X0038125Y0045500D01*
X0038625D02*
X0038125Y0046000D01*
X0038625Y0045000D02*
X0038125Y0044500D01*
X0038625D02*
X0038125Y0045000D01*
X0037625Y0046000D02*
X0037125Y0045500D01*
X0037625D02*
X0037125Y0046000D01*
X0037625Y0045000D02*
X0037125Y0044500D01*
X0037625D02*
X0037125Y0045000D01*
X0036625Y0046000D02*
X0036125Y0045500D01*
X0036625D02*
X0036125Y0046000D01*
X0036625Y0045000D02*
X0036125Y0044500D01*
X0036625D02*
X0036125Y0045000D01*
X0046625Y0036500D02*
X0046125Y0036000D01*
X0046625D02*
X0046125Y0036500D01*
X0045625D02*
X0045125Y0036000D01*
X0045625D02*
X0045125Y0036500D01*
X0046625Y0037500D02*
X0046125Y0037000D01*
X0046625D02*
X0046125Y0037500D01*
X0045625D02*
X0045125Y0037000D01*
X0045625D02*
X0045125Y0037500D01*
X0046625Y0038500D02*
X0046125Y0038000D01*
X0046625D02*
X0046125Y0038500D01*
X0045625D02*
X0045125Y0038000D01*
X0045625D02*
X0045125Y0038500D01*
X0046625Y0039500D02*
X0046125Y0039000D01*
X0046625D02*
X0046125Y0039500D01*
X0045625D02*
X0045125Y0039000D01*
X0045625D02*
X0045125Y0039500D01*
X0046625Y0040500D02*
X0046125Y0040000D01*
X0046625D02*
X0046125Y0040500D01*
X0045625D02*
X0045125Y0040000D01*
X0045625D02*
X0045125Y0040500D01*
X0046625Y0041500D02*
X0046125Y0041000D01*
X0046625D02*
X0046125Y0041500D01*
X0045625D02*
X0045125Y0041000D01*
X0045625D02*
X0045125Y0041500D01*
X0046625Y0042500D02*
X0046125Y0042000D01*
X0046625D02*
X0046125Y0042500D01*
X0045625D02*
X0045125Y0042000D01*
X0045625D02*
X0045125Y0042500D01*
X0046625Y0043500D02*
X0046125Y0043000D01*
X0046625D02*
X0046125Y0043500D01*
X0045625D02*
X0045125Y0043000D01*
X0045625D02*
X0045125Y0043500D01*
X0037125Y0033500D02*
X0036625Y0033000D01*
X0037125D02*
X0036625Y0033500D01*
X0037125Y0034500D02*
X0036625Y0034000D01*
X0037125D02*
X0036625Y0034500D01*
X0038125Y0033500D02*
X0037625Y0033000D01*
X0038125D02*
X0037625Y0033500D01*
X0038125Y0034500D02*
X0037625Y0034000D01*
X0038125D02*
X0037625Y0034500D01*
X0039125Y0033500D02*
X0038625Y0033000D01*
X0039125D02*
X0038625Y0033500D01*
X0039125Y0034500D02*
X0038625Y0034000D01*
X0039125D02*
X0038625Y0034500D01*
X0040125Y0033500D02*
X0039625Y0033000D01*
X0040125D02*
X0039625Y0033500D01*
X0040125Y0034500D02*
X0039625Y0034000D01*
X0040125D02*
X0039625Y0034500D01*
X0041125Y0033500D02*
X0040625Y0033000D01*
X0041125D02*
X0040625Y0033500D01*
X0041125Y0034500D02*
X0040625Y0034000D01*
X0041125D02*
X0040625Y0034500D01*
X0042125Y0033500D02*
X0041625Y0033000D01*
X0042125D02*
X0041625Y0033500D01*
X0042125Y0034500D02*
X0041625Y0034000D01*
X0042125D02*
X0041625Y0034500D01*
X0043125Y0033500D02*
X0042625Y0033000D01*
X0043125D02*
X0042625Y0033500D01*
X0043125Y0034500D02*
X0042625Y0034000D01*
X0043125D02*
X0042625Y0034500D01*
X0044125Y0033500D02*
X0043625Y0033000D01*
X0044125D02*
X0043625Y0033500D01*
X0044125Y0034500D02*
X0043625Y0034000D01*
X0044125D02*
X0043625Y0034500D01*
X0034125Y0027000D02*
X0033625Y0026500D01*
X0034125D02*
X0033625Y0027000D01*
X0035125D02*
X0034625Y0026500D01*
X0035125D02*
X0034625Y0027000D01*
X0034125Y0026000D02*
X0033625Y0025500D01*
X0034125D02*
X0033625Y0026000D01*
X0035125D02*
X0034625Y0025500D01*
X0035125D02*
X0034625Y0026000D01*
X0034125Y0025000D02*
X0033625Y0024500D01*
X0034125D02*
X0033625Y0025000D01*
X0035125D02*
X0034625Y0024500D01*
X0035125D02*
X0034625Y0025000D01*
X0034125Y0024000D02*
X0033625Y0023500D01*
X0034125D02*
X0033625Y0024000D01*
X0035125D02*
X0034625Y0023500D01*
X0035125D02*
X0034625Y0024000D01*
X0034125Y0023000D02*
X0033625Y0022500D01*
X0034125D02*
X0033625Y0023000D01*
X0035125D02*
X0034625Y0022500D01*
X0035125D02*
X0034625Y0023000D01*
X0034125Y0022000D02*
X0033625Y0021500D01*
X0034125D02*
X0033625Y0022000D01*
X0035125D02*
X0034625Y0021500D01*
X0035125D02*
X0034625Y0022000D01*
X0034125Y0021000D02*
X0033625Y0020500D01*
X0034125D02*
X0033625Y0021000D01*
X0035125D02*
X0034625Y0020500D01*
X0035125D02*
X0034625Y0021000D01*
X0034125Y0020000D02*
X0033625Y0019500D01*
X0034125D02*
X0033625Y0020000D01*
X0035125D02*
X0034625Y0019500D01*
X0035125D02*
X0034625Y0020000D01*
X0043625Y0030000D02*
X0043125Y0029500D01*
X0043625D02*
X0043125Y0030000D01*
X0043625Y0029000D02*
X0043125Y0028500D01*
X0043625D02*
X0043125Y0029000D01*
X0042625Y0030000D02*
X0042125Y0029500D01*
X0042625D02*
X0042125Y0030000D01*
X0042625Y0029000D02*
X0042125Y0028500D01*
X0042625D02*
X0042125Y0029000D01*
X0041625Y0030000D02*
X0041125Y0029500D01*
X0041625D02*
X0041125Y0030000D01*
X0041625Y0029000D02*
X0041125Y0028500D01*
X0041625D02*
X0041125Y0029000D01*
X0040625Y0030000D02*
X0040125Y0029500D01*
X0040625D02*
X0040125Y0030000D01*
X0040625Y0029000D02*
X0040125Y0028500D01*
X0040625D02*
X0040125Y0029000D01*
X0039625Y0030000D02*
X0039125Y0029500D01*
X0039625D02*
X0039125Y0030000D01*
X0039625Y0029000D02*
X0039125Y0028500D01*
X0039625D02*
X0039125Y0029000D01*
X0038625Y0030000D02*
X0038125Y0029500D01*
X0038625D02*
X0038125Y0030000D01*
X0038625Y0029000D02*
X0038125Y0028500D01*
X0038625D02*
X0038125Y0029000D01*
X0037625Y0030000D02*
X0037125Y0029500D01*
X0037625D02*
X0037125Y0030000D01*
X0037625Y0029000D02*
X0037125Y0028500D01*
X0037625D02*
X0037125Y0029000D01*
X0036625Y0030000D02*
X0036125Y0029500D01*
X0036625D02*
X0036125Y0030000D01*
X0036625Y0029000D02*
X0036125Y0028500D01*
X0036625D02*
X0036125Y0029000D01*
X0046625Y0020500D02*
X0046125Y0020000D01*
X0046625D02*
X0046125Y0020500D01*
X0045625D02*
X0045125Y0020000D01*
X0045625D02*
X0045125Y0020500D01*
X0046625Y0021500D02*
X0046125Y0021000D01*
X0046625D02*
X0046125Y0021500D01*
X0045625D02*
X0045125Y0021000D01*
X0045625D02*
X0045125Y0021500D01*
X0046625Y0022500D02*
X0046125Y0022000D01*
X0046625D02*
X0046125Y0022500D01*
X0045625D02*
X0045125Y0022000D01*
X0045625D02*
X0045125Y0022500D01*
X0046625Y0023500D02*
X0046125Y0023000D01*
X0046625D02*
X0046125Y0023500D01*
X0045625D02*
X0045125Y0023000D01*
X0045625D02*
X0045125Y0023500D01*
X0046625Y0024500D02*
X0046125Y0024000D01*
X0046625D02*
X0046125Y0024500D01*
X0045625D02*
X0045125Y0024000D01*
X0045625D02*
X0045125Y0024500D01*
X0046625Y0025500D02*
X0046125Y0025000D01*
X0046625D02*
X0046125Y0025500D01*
X0045625D02*
X0045125Y0025000D01*
X0045625D02*
X0045125Y0025500D01*
X0046625Y0026500D02*
X0046125Y0026000D01*
X0046625D02*
X0046125Y0026500D01*
X0045625D02*
X0045125Y0026000D01*
X0045625D02*
X0045125Y0026500D01*
X0046625Y0027500D02*
X0046125Y0027000D01*
X0046625D02*
X0046125Y0027500D01*
X0045625D02*
X0045125Y0027000D01*
X0045625D02*
X0045125Y0027500D01*
X0037125Y0017500D02*
X0036625Y0017000D01*
X0037125D02*
X0036625Y0017500D01*
X0037125Y0018500D02*
X0036625Y0018000D01*
X0037125D02*
X0036625Y0018500D01*
X0038125Y0017500D02*
X0037625Y0017000D01*
X0038125D02*
X0037625Y0017500D01*
X0038125Y0018500D02*
X0037625Y0018000D01*
X0038125D02*
X0037625Y0018500D01*
X0039125Y0017500D02*
X0038625Y0017000D01*
X0039125D02*
X0038625Y0017500D01*
X0039125Y0018500D02*
X0038625Y0018000D01*
X0039125D02*
X0038625Y0018500D01*
X0040125Y0017500D02*
X0039625Y0017000D01*
X0040125D02*
X0039625Y0017500D01*
X0040125Y0018500D02*
X0039625Y0018000D01*
X0040125D02*
X0039625Y0018500D01*
X0041125Y0017500D02*
X0040625Y0017000D01*
X0041125D02*
X0040625Y0017500D01*
X0041125Y0018500D02*
X0040625Y0018000D01*
X0041125D02*
X0040625Y0018500D01*
X0042125Y0017500D02*
X0041625Y0017000D01*
X0042125D02*
X0041625Y0017500D01*
X0042125Y0018500D02*
X0041625Y0018000D01*
X0042125D02*
X0041625Y0018500D01*
X0043125Y0017500D02*
X0042625Y0017000D01*
X0043125D02*
X0042625Y0017500D01*
X0043125Y0018500D02*
X0042625Y0018000D01*
X0043125D02*
X0042625Y0018500D01*
X0044125Y0017500D02*
X0043625Y0017000D01*
X0044125D02*
X0043625Y0017500D01*
X0044125Y0018500D02*
X0043625Y0018000D01*
X0044125D02*
X0043625Y0018500D01*
X0043600Y0014350D02*
X0043100D01*
X0043350Y0014600D02*
Y0014100D01*
X0041600Y0014350D02*
X0041100D01*
X0041350Y0014600D02*
Y0014100D01*
X0048530Y0013450D02*
X0048030D01*
X0048280Y0013700D02*
Y0013200D01*
X0048780Y0012950D02*
X0047780Y0011950D01*
X0048780D02*
X0047780Y0012950D01*
X0048780Y0011950D02*
X0047780Y0010950D01*
X0048780D02*
X0047780Y0011950D01*
X0048780Y0010950D02*
X0047780Y0009950D01*
X0048780D02*
X0047780Y0010950D01*
X0034500Y0012000D02*
X0034000Y0011500D01*
X0034500D02*
X0034000Y0012000D01*
X0034500Y0011000D02*
X0034000Y0010500D01*
X0034500D02*
X0034000Y0011000D01*
X0034500Y0013000D02*
X0034000Y0012500D01*
X0034500D02*
X0034000Y0013000D01*
X0034500Y0010000D02*
X0034000Y0009500D01*
X0034500D02*
X0034000Y0010000D01*
X0035500Y0014800D02*
X0035000Y0014300D01*
X0035500D02*
X0035000Y0014800D01*
X0036500D02*
X0036000Y0014300D01*
X0036500D02*
X0036000Y0014800D01*
X0034500D02*
X0034000Y0014300D01*
X0034500D02*
X0034000Y0014800D01*
X0043600Y0006550D02*
X0043100D01*
X0043350Y0006800D02*
Y0006300D01*
X0041600Y0006550D02*
X0041100D01*
X0041350Y0006800D02*
Y0006300D01*
X0048530Y0005650D02*
X0048030D01*
X0048280Y0005900D02*
Y0005400D01*
X0048780Y0005150D02*
X0047780Y0004150D01*
X0048780D02*
X0047780Y0005150D01*
X0048780Y0004150D02*
X0047780Y0003150D01*
X0048780D02*
X0047780Y0004150D01*
X0048780Y0003150D02*
X0047780Y0002150D01*
X0048780D02*
X0047780Y0003150D01*
X0034500Y0004200D02*
X0034000Y0003700D01*
X0034500D02*
X0034000Y0004200D01*
X0034500Y0003200D02*
X0034000Y0002700D01*
X0034500D02*
X0034000Y0003200D01*
X0034500Y0005200D02*
X0034000Y0004700D01*
X0034500D02*
X0034000Y0005200D01*
X0034500Y0002200D02*
X0034000Y0001700D01*
X0034500D02*
X0034000Y0002200D01*
X0035500Y0007000D02*
X0035000Y0006500D01*
X0035500D02*
X0035000Y0007000D01*
X0036500D02*
X0036000Y0006500D01*
X0036500D02*
X0036000Y0007000D01*
X0034500D02*
X0034000Y0006500D01*
X0034500D02*
X0034000Y0007000D01*
X0016050Y0002250D02*
X0015550Y0001750D01*
X0016050D02*
X0015550Y0002250D01*
X0017050D02*
X0016550Y0001750D01*
X0017050D02*
X0016550Y0002250D01*
X0015050D02*
X0014550Y0001750D01*
X0015050D02*
X0014550Y0002250D01*
X0018050D02*
X0017550Y0001750D01*
X0018050D02*
X0017550Y0002250D01*
X0027159Y0019894D02*
X0026909Y0019644D01*
X0027409D02*
X0027159Y0019894D01*
Y0019394D02*
X0027409Y0019644D01*
X0026909D02*
X0027159Y0019394D01*
X0018409Y0032794D02*
X0017909D01*
X0018159Y0033044D02*
Y0032544D01*
X0018409Y0034794D02*
X0017909D01*
X0018159Y0035044D02*
Y0034544D01*
X0028409Y0012044D02*
X0027909Y0011544D01*
X0028409D02*
X0027909Y0012044D01*
X0028409Y0011044D02*
X0027909Y0010544D01*
X0028409D02*
X0027909Y0011044D01*
X0028409Y0013044D02*
X0027909Y0012544D01*
X0028409D02*
X0027909Y0013044D01*
X0027409Y0027044D02*
X0026909Y0026544D01*
X0027409D02*
X0026909Y0027044D01*
X0028409D02*
X0027909Y0026544D01*
X0028409D02*
X0027909Y0027044D01*
X0029409D02*
X0028909Y0026544D01*
X0029409D02*
X0028909Y0027044D01*
X0009580Y0002244D02*
Y0002044D01*
X0009730Y0002394D02*
X0009580Y0002244D01*
X0009930Y0002394D02*
X0009730D01*
X0010080Y0002244D02*
X0009930Y0002394D01*
X0010080Y0002044D02*
Y0002244D01*
X0009930Y0001894D02*
X0010080Y0002044D01*
X0009730Y0001894D02*
X0009930D01*
X0009580Y0002044D02*
X0009730Y0001894D01*
X0009780Y0002244D02*
Y0002294D01*
X0009730Y0002244D02*
X0009780D01*
X0009730Y0002294D02*
Y0002244D01*
X0009780Y0002294D02*
X0009730D01*
X0009880D02*
Y0002244D01*
X0009930Y0002294D02*
X0009880D01*
X0009930Y0002244D02*
Y0002294D01*
X0009880Y0002244D02*
X0009930D01*
X0009780Y0001994D02*
X0009680Y0002094D01*
X0009880Y0001994D02*
X0009780D01*
X0009980Y0002094D02*
X0009880Y0001994D01*
X0007809Y0002244D02*
Y0002044D01*
X0007959Y0002394D02*
X0007809Y0002244D01*
X0008159Y0002394D02*
X0007959D01*
X0008309Y0002244D02*
X0008159Y0002394D01*
X0008309Y0002044D02*
Y0002244D01*
X0008159Y0001894D02*
X0008309Y0002044D01*
X0007959Y0001894D02*
X0008159D01*
X0007809Y0002044D02*
X0007959Y0001894D01*
X0008009Y0002244D02*
Y0002294D01*
X0007959Y0002244D02*
X0008009D01*
X0007959Y0002294D02*
Y0002244D01*
X0008009Y0002294D02*
X0007959D01*
X0008109D02*
Y0002244D01*
X0008159Y0002294D02*
X0008109D01*
X0008159Y0002244D02*
Y0002294D01*
X0008109Y0002244D02*
X0008159D01*
X0008009Y0001994D02*
X0007909Y0002094D01*
X0008109Y0001994D02*
X0008009D01*
X0008209Y0002094D02*
X0008109Y0001994D01*
X0011352Y0002244D02*
Y0002044D01*
X0011502Y0002394D02*
X0011352Y0002244D01*
X0011702Y0002394D02*
X0011502D01*
X0011852Y0002244D02*
X0011702Y0002394D01*
X0011852Y0002044D02*
Y0002244D01*
X0011702Y0001894D02*
X0011852Y0002044D01*
X0011502Y0001894D02*
X0011702D01*
X0011352Y0002044D02*
X0011502Y0001894D01*
X0011552Y0002244D02*
Y0002294D01*
X0011502Y0002244D02*
X0011552D01*
X0011502Y0002294D02*
Y0002244D01*
X0011552Y0002294D02*
X0011502D01*
X0011652D02*
Y0002244D01*
X0011702Y0002294D02*
X0011652D01*
X0011702Y0002244D02*
Y0002294D01*
X0011652Y0002244D02*
X0011702D01*
X0011552Y0001994D02*
X0011452Y0002094D01*
X0011652Y0001994D02*
X0011552D01*
X0011752Y0002094D02*
X0011652Y0001994D01*
X0015409Y0005794D02*
X0014909D01*
X0015159Y0006044D02*
Y0005544D01*
X0017418Y0005794D02*
X0016918D01*
X0017168Y0006044D02*
Y0005544D01*
X0015409Y0013794D02*
X0014909D01*
X0015159Y0014044D02*
Y0013544D01*
X0017418Y0013794D02*
X0016918D01*
X0017168Y0014044D02*
Y0013544D01*
X0019409Y0009794D02*
X0018909D01*
X0019159Y0010044D02*
Y0009544D01*
X0021418Y0009794D02*
X0020918D01*
X0021168Y0010044D02*
Y0009544D01*
X0011409Y0009794D02*
X0010909D01*
X0011159Y0010044D02*
Y0009544D01*
X0013418Y0009794D02*
X0012918D01*
X0013168Y0010044D02*
Y0009544D01*
X0007959Y0006744D02*
X0007459D01*
X0007709Y0006994D02*
Y0006494D01*
X0009968Y0006744D02*
X0009468D01*
X0009718Y0006994D02*
Y0006494D01*
X0028409Y0008544D02*
X0027909Y0008044D01*
X0028409D02*
X0027909Y0008544D01*
X0028409Y0007544D02*
X0027909Y0007044D01*
X0028409D02*
X0027909Y0007544D01*
X0028409Y0009544D02*
X0027909Y0009044D01*
X0028409D02*
X0027909Y0009544D01*
X0028409Y0005044D02*
X0027909Y0004544D01*
X0028409D02*
X0027909Y0005044D01*
X0028409Y0004044D02*
X0027909Y0003544D01*
X0028409D02*
X0027909Y0004044D01*
X0028409Y0006044D02*
X0027909Y0005544D01*
X0028409D02*
X0027909Y0006044D01*
X0021059Y0042144D02*
X0020559Y0041644D01*
X0021059D02*
X0020559Y0042144D01*
X0021059Y0041144D02*
X0020559Y0040644D01*
X0021059D02*
X0020559Y0041144D01*
X0021059Y0040144D02*
X0020559Y0039644D01*
X0021059D02*
X0020559Y0040144D01*
X0021059Y0039144D02*
X0020559Y0038644D01*
X0021059D02*
X0020559Y0039144D01*
X0021059Y0038144D02*
X0020559Y0037644D01*
X0021059D02*
X0020559Y0038144D01*
X0021059Y0037144D02*
X0020559Y0036644D01*
X0021059D02*
X0020559Y0037144D01*
X0021059Y0036144D02*
X0020559Y0035644D01*
X0021059D02*
X0020559Y0036144D01*
X0021059Y0035144D02*
X0020559Y0034644D01*
X0021059D02*
X0020559Y0035144D01*
X0021059Y0034144D02*
X0020559Y0033644D01*
X0021059D02*
X0020559Y0034144D01*
X0021059Y0033144D02*
X0020559Y0032644D01*
X0021059D02*
X0020559Y0033144D01*
X0021059Y0032144D02*
X0020559Y0031644D01*
X0021059D02*
X0020559Y0032144D01*
X0021059Y0031144D02*
X0020559Y0030644D01*
X0021059D02*
X0020559Y0031144D01*
X0021059Y0030144D02*
X0020559Y0029644D01*
X0021059D02*
X0020559Y0030144D01*
X0021059Y0029144D02*
X0020559Y0028644D01*
X0021059D02*
X0020559Y0029144D01*
X0024059D02*
X0023559Y0028644D01*
X0024059D02*
X0023559Y0029144D01*
X0024059Y0030144D02*
X0023559Y0029644D01*
X0024059D02*
X0023559Y0030144D01*
X0024059Y0031144D02*
X0023559Y0030644D01*
X0024059D02*
X0023559Y0031144D01*
X0024059Y0032144D02*
X0023559Y0031644D01*
X0024059D02*
X0023559Y0032144D01*
X0024059Y0033144D02*
X0023559Y0032644D01*
X0024059D02*
X0023559Y0033144D01*
X0024059Y0034144D02*
X0023559Y0033644D01*
X0024059D02*
X0023559Y0034144D01*
X0024059Y0035144D02*
X0023559Y0034644D01*
X0024059D02*
X0023559Y0035144D01*
X0024059Y0036144D02*
X0023559Y0035644D01*
X0024059D02*
X0023559Y0036144D01*
X0024059Y0037144D02*
X0023559Y0036644D01*
X0024059D02*
X0023559Y0037144D01*
X0024059Y0038144D02*
X0023559Y0037644D01*
X0024059D02*
X0023559Y0038144D01*
X0024059Y0039144D02*
X0023559Y0038644D01*
X0024059D02*
X0023559Y0039144D01*
X0024059Y0040144D02*
X0023559Y0039644D01*
X0024059D02*
X0023559Y0040144D01*
X0024059Y0041144D02*
X0023559Y0040644D01*
X0024059D02*
X0023559Y0041144D01*
X0024059Y0042144D02*
X0023559Y0041644D01*
X0024059D02*
X0023559Y0042144D01*
X0016409Y0061044D02*
X0015909Y0060544D01*
X0016409D02*
X0015909Y0061044D01*
X0017409D02*
X0016909Y0060544D01*
X0017409D02*
X0016909Y0061044D01*
X0015409D02*
X0014909Y0060544D01*
X0015409D02*
X0014909Y0061044D01*
X0001409Y0002044D02*
Y0001794D01*
X0001659Y0002044D02*
X0001409D01*
X0001659Y0001544D02*
Y0002044D01*
X0001909Y0001544D02*
X0001659D01*
X0001909Y0001794D02*
Y0001544D01*
X0001409Y0001794D02*
X0001909D01*
X0030409Y0002044D02*
Y0001794D01*
X0030659Y0002044D02*
X0030409D01*
X0030659Y0001544D02*
Y0002044D01*
X0030909Y0001544D02*
X0030659D01*
X0030909Y0001794D02*
Y0001544D01*
X0030409Y0001794D02*
X0030909D01*
X0028559Y0039144D02*
X0028059Y0038644D01*
X0028559D02*
X0028059Y0039144D01*
X0028559Y0040144D02*
X0028059Y0039644D01*
X0028559D02*
X0028059Y0040144D01*
X0028559Y0038144D02*
X0028059Y0037644D01*
X0028559D02*
X0028059Y0038144D01*
X0016409Y0056044D02*
X0015909Y0055544D01*
X0016409D02*
X0015909Y0056044D01*
Y0010044D02*
Y0009794D01*
X0016159Y0010044D02*
X0015909D01*
X0016159Y0009544D02*
Y0010044D01*
X0016409Y0009544D02*
X0016159D01*
X0016409Y0009794D02*
Y0009544D01*
X0015909Y0009794D02*
X0016409D01*
X0015909Y0053044D02*
Y0052794D01*
X0016159Y0053044D02*
X0015909D01*
X0016159Y0052544D02*
Y0053044D01*
X0016409Y0052544D02*
X0016159D01*
X0016409Y0052794D02*
Y0052544D01*
X0015909Y0052794D02*
X0016409D01*
X0004909Y0045544D02*
Y0045294D01*
X0005159Y0045544D02*
X0004909D01*
X0005159Y0045044D02*
Y0045544D01*
X0005409Y0045044D02*
X0005159D01*
X0005409Y0045294D02*
Y0045044D01*
X0004909Y0045294D02*
X0005409D01*
X0026909Y0045544D02*
Y0045294D01*
X0027159Y0045544D02*
X0026909D01*
X0027159Y0045044D02*
Y0045544D01*
X0027409Y0045044D02*
X0027159D01*
X0027409Y0045294D02*
Y0045044D01*
X0026909Y0045294D02*
X0027409D01*
X0015409Y0056044D02*
X0014909Y0055544D01*
X0015409D02*
X0014909Y0056044D01*
X0025909Y0035144D02*
X0025409Y0034644D01*
X0025909D02*
X0025409Y0035144D01*
X0020414Y0025250D02*
Y0024750D01*
X0020914Y0025250D02*
X0020414D01*
X0020914Y0024750D02*
Y0025250D01*
X0020414Y0024750D02*
X0020914D01*
Y0025000D02*
X0020414D01*
X0020664Y0025250D02*
Y0024750D01*
X0004272Y0017770D02*
Y0017270D01*
X0004772Y0017770D02*
X0004272D01*
X0004772Y0017270D02*
Y0017770D01*
X0004272Y0017270D02*
X0004772D01*
Y0017770D02*
X0004272Y0017270D01*
X0004772D02*
X0004272Y0017770D01*
X0016477D02*
Y0017270D01*
X0016977Y0017770D02*
X0016477D01*
X0016977Y0017270D02*
Y0017770D01*
X0016477Y0017270D02*
X0016977D01*
Y0017770D02*
X0016477Y0017270D01*
X0016977D02*
X0016477Y0017770D01*
Y0027612D02*
Y0027112D01*
X0016977Y0027612D02*
X0016477D01*
X0016977Y0027112D02*
Y0027612D01*
X0016477Y0027112D02*
X0016977D01*
Y0027612D02*
X0016477Y0027112D01*
X0016977D02*
X0016477Y0027612D01*
X0004666D02*
Y0027112D01*
X0005166Y0027612D02*
X0004666D01*
X0005166Y0027112D02*
Y0027612D01*
X0004666Y0027112D02*
X0005166D01*
Y0027612D02*
X0004666Y0027112D01*
X0005166D02*
X0004666Y0027612D01*
X0010572D02*
Y0027112D01*
X0011072Y0027612D02*
X0010572D01*
X0011072Y0027112D02*
Y0027612D01*
X0010572Y0027112D02*
X0011072D01*
Y0027612D02*
X0010572Y0027112D01*
X0011072D02*
X0010572Y0027612D01*
Y0017770D02*
Y0017270D01*
X0011072Y0017770D02*
X0010572D01*
X0011072Y0017270D02*
Y0017770D01*
X0010572Y0017270D02*
X0011072D01*
Y0017770D02*
X0010572Y0017270D01*
X0011072D02*
X0010572Y0017770D01*
X0001910Y0024857D02*
Y0024357D01*
X0002410Y0024857D02*
X0001910D01*
X0002410Y0024357D02*
Y0024857D01*
X0001910Y0024357D02*
X0002410D01*
Y0024857D02*
X0001910Y0024357D01*
X0002410D02*
X0001910Y0024857D01*
Y0020526D02*
Y0020026D01*
X0002410Y0020526D02*
X0001910D01*
X0002410Y0020026D02*
Y0020526D01*
X0001910Y0020026D02*
X0002410D01*
Y0020526D02*
X0001910Y0020026D01*
X0002410D02*
X0001910Y0020526D01*
X0020509Y0020144D02*
Y0019644D01*
X0021009Y0020144D02*
X0020509D01*
X0021009Y0019644D02*
Y0020144D01*
X0020509Y0019644D02*
X0021009D01*
Y0019894D02*
X0020509D01*
X0020759Y0020144D02*
Y0019644D01*
X0021409Y0002944D02*
X0020909D01*
X0021159Y0003194D02*
Y0002694D01*
X0022409Y0003944D02*
X0021909D01*
X0022159Y0004194D02*
Y0003694D01*
X0021409Y0004944D02*
X0020909D01*
X0021159Y0005194D02*
Y0004694D01*
X0003864Y0041735D02*
X0003364D01*
X0003614Y0041985D02*
Y0041485D01*
X0004864Y0041735D02*
X0004364D01*
X0004614Y0041985D02*
Y0041485D01*
X0005864Y0041735D02*
X0005364D01*
X0005614Y0041985D02*
Y0041485D01*
X0006864Y0041735D02*
X0006364D01*
X0006614Y0041985D02*
Y0041485D01*
X0007864Y0041735D02*
X0007364D01*
X0007614Y0041985D02*
Y0041485D01*
X0008864Y0041735D02*
X0008364D01*
X0008614Y0041985D02*
Y0041485D01*
X0009864Y0041735D02*
X0009364D01*
X0009614Y0041985D02*
Y0041485D01*
X0010864Y0041735D02*
X0010364D01*
X0010614Y0041985D02*
Y0041485D01*
X0011864Y0041735D02*
X0011364D01*
X0011614Y0041985D02*
Y0041485D01*
X0012864Y0041735D02*
X0012364D01*
X0012614Y0041985D02*
Y0041485D01*
X0013864Y0041735D02*
X0013364D01*
X0013614Y0041985D02*
Y0041485D01*
X0014864Y0041735D02*
X0014364D01*
X0014614Y0041985D02*
Y0041485D01*
X0015864Y0041735D02*
X0015364D01*
X0015614Y0041985D02*
Y0041485D01*
X0016864Y0041735D02*
X0016364D01*
X0016614Y0041985D02*
Y0041485D01*
X0017864Y0041735D02*
X0017364D01*
X0017614Y0041985D02*
Y0041485D01*
X0018864Y0041735D02*
X0018364D01*
X0018614Y0041985D02*
Y0041485D01*
X0001181Y0041982D02*
Y0041732D01*
X0001431Y0041982D02*
X0001181D01*
X0001431Y0041482D02*
Y0041982D01*
X0001681Y0041482D02*
X0001431D01*
X0001681Y0041732D02*
Y0041482D01*
X0001181Y0041732D02*
X0001681D01*
X0030721Y0041982D02*
Y0041732D01*
X0030971Y0041982D02*
X0030721D01*
X0030971Y0041482D02*
Y0041982D01*
X0031221Y0041482D02*
X0030971D01*
X0031221Y0041732D02*
Y0041482D01*
X0030721Y0041732D02*
X0031221D01*
X0030709Y0029644D02*
Y0029394D01*
X0030959Y0029644D02*
X0030709D01*
X0030959Y0029144D02*
Y0029644D01*
X0031209Y0029144D02*
X0030959D01*
X0031209Y0029394D02*
Y0029144D01*
X0030709Y0029394D02*
X0031209D01*
X0001159Y0029644D02*
Y0029394D01*
X0001409Y0029644D02*
X0001159D01*
X0001409Y0029144D02*
Y0029644D01*
X0001659Y0029144D02*
X0001409D01*
X0001659Y0029394D02*
Y0029144D01*
X0001159Y0029394D02*
X0001659D01*
X0005529Y0007534D02*
Y0007334D01*
X0005679Y0007684D02*
X0005529Y0007534D01*
X0005879Y0007684D02*
X0005679D01*
X0006029Y0007534D02*
X0005879Y0007684D01*
X0006029Y0007334D02*
Y0007534D01*
X0005879Y0007184D02*
X0006029Y0007334D01*
X0005679Y0007184D02*
X0005879D01*
X0005529Y0007334D02*
X0005679Y0007184D01*
X0005529Y0008624D02*
Y0008424D01*
X0005679Y0008774D02*
X0005529Y0008624D01*
X0005879Y0008774D02*
X0005679D01*
X0006029Y0008624D02*
X0005879Y0008774D01*
X0006029Y0008424D02*
Y0008624D01*
X0005879Y0008274D02*
X0006029Y0008424D01*
X0005679Y0008274D02*
X0005879D01*
X0005529Y0008424D02*
X0005679Y0008274D01*
X0005529Y0009714D02*
Y0009514D01*
X0005679Y0009864D02*
X0005529Y0009714D01*
X0005879Y0009864D02*
X0005679D01*
X0006029Y0009714D02*
X0005879Y0009864D01*
X0006029Y0009514D02*
Y0009714D01*
X0005879Y0009364D02*
X0006029Y0009514D01*
X0005679Y0009364D02*
X0005879D01*
X0005529Y0009514D02*
X0005679Y0009364D01*
X0005529Y0010804D02*
Y0010604D01*
X0005679Y0010954D02*
X0005529Y0010804D01*
X0005879Y0010954D02*
X0005679D01*
X0006029Y0010804D02*
X0005879Y0010954D01*
X0006029Y0010604D02*
Y0010804D01*
X0005879Y0010454D02*
X0006029Y0010604D01*
X0005679Y0010454D02*
X0005879D01*
X0005529Y0010604D02*
X0005679Y0010454D01*
X0005529Y0011894D02*
Y0011694D01*
X0005679Y0012044D02*
X0005529Y0011894D01*
X0005879Y0012044D02*
X0005679D01*
X0006029Y0011894D02*
X0005879Y0012044D01*
X0006029Y0011694D02*
Y0011894D01*
X0005879Y0011544D02*
X0006029Y0011694D01*
X0005679Y0011544D02*
X0005879D01*
X0005529Y0011694D02*
X0005679Y0011544D01*
X0004409Y0008079D02*
Y0007879D01*
X0004559Y0008229D02*
X0004409Y0008079D01*
X0004759Y0008229D02*
X0004559D01*
X0004909Y0008079D02*
X0004759Y0008229D01*
X0004909Y0007879D02*
Y0008079D01*
X0004759Y0007729D02*
X0004909Y0007879D01*
X0004559Y0007729D02*
X0004759D01*
X0004409Y0007879D02*
X0004559Y0007729D01*
X0004409Y0009169D02*
Y0008969D01*
X0004559Y0009319D02*
X0004409Y0009169D01*
X0004759Y0009319D02*
X0004559D01*
X0004909Y0009169D02*
X0004759Y0009319D01*
X0004909Y0008969D02*
Y0009169D01*
X0004759Y0008819D02*
X0004909Y0008969D01*
X0004559Y0008819D02*
X0004759D01*
X0004409Y0008969D02*
X0004559Y0008819D01*
X0004409Y0010259D02*
Y0010059D01*
X0004559Y0010409D02*
X0004409Y0010259D01*
X0004759Y0010409D02*
X0004559D01*
X0004909Y0010259D02*
X0004759Y0010409D01*
X0004909Y0010059D02*
Y0010259D01*
X0004759Y0009909D02*
X0004909Y0010059D01*
X0004559Y0009909D02*
X0004759D01*
X0004409Y0010059D02*
X0004559Y0009909D01*
X0004409Y0011349D02*
Y0011149D01*
X0004559Y0011499D02*
X0004409Y0011349D01*
X0004759Y0011499D02*
X0004559D01*
X0004909Y0011349D02*
X0004759Y0011499D01*
X0004909Y0011149D02*
Y0011349D01*
X0004759Y0010999D02*
X0004909Y0011149D01*
X0004559Y0010999D02*
X0004759D01*
X0004409Y0011149D02*
X0004559Y0010999D01*
X0005219Y0014684D02*
X0004969Y0014434D01*
X0005469D02*
X0005219Y0014684D01*
X0004969Y0014434D02*
X0005469D01*
X0005219Y0004844D02*
X0004969Y0004594D01*
X0005469D02*
X0005219Y0004844D01*
X0004969Y0004594D02*
X0005469D01*
X0008659Y0038244D02*
X0008159Y0037744D01*
X0008659D02*
X0008159Y0038244D01*
X0008659Y0037244D02*
X0008159Y0036744D01*
X0008659D02*
X0008159Y0037244D01*
X0008659Y0036244D02*
X0008159Y0035744D01*
X0008659D02*
X0008159Y0036244D01*
X0008659Y0035244D02*
X0008159Y0034744D01*
X0008659D02*
X0008159Y0035244D01*
X0008659Y0034244D02*
X0008159Y0033744D01*
X0008659D02*
X0008159Y0034244D01*
X0008659Y0033244D02*
X0008159Y0032744D01*
X0008659D02*
X0008159Y0033244D01*
X0008659Y0032244D02*
X0008159Y0031744D01*
X0008659D02*
X0008159Y0032244D01*
X0008659Y0031244D02*
X0008159Y0030744D01*
X0008659D02*
X0008159Y0031244D01*
X0011659D02*
X0011159Y0030744D01*
X0011659D02*
X0011159Y0031244D01*
X0011659Y0032244D02*
X0011159Y0031744D01*
X0011659D02*
X0011159Y0032244D01*
X0011659Y0033244D02*
X0011159Y0032744D01*
X0011659D02*
X0011159Y0033244D01*
X0011659Y0034244D02*
X0011159Y0033744D01*
X0011659D02*
X0011159Y0034244D01*
X0011659Y0035244D02*
X0011159Y0034744D01*
X0011659D02*
X0011159Y0035244D01*
X0011659Y0036244D02*
X0011159Y0035744D01*
X0011659D02*
X0011159Y0036244D01*
X0011659Y0037244D02*
X0011159Y0036744D01*
X0011659D02*
X0011159Y0037244D01*
X0011659Y0038244D02*
X0011159Y0037744D01*
X0011659D02*
X0011159Y0038244D01*
X0028559Y0032744D02*
X0028059Y0032244D01*
X0028559D02*
X0028059Y0032744D01*
X0028559Y0033744D02*
X0028059Y0033244D01*
X0028559D02*
X0028059Y0033744D01*
X0028559Y0031744D02*
X0028059Y0031244D01*
X0028559D02*
X0028059Y0031744D01*
X0028559Y0034744D02*
X0028059Y0034244D01*
X0028559D02*
X0028059Y0034744D01*
X0028559Y0035744D02*
X0028059Y0035244D01*
X0028559D02*
X0028059Y0035744D01*
X0028559Y0036744D02*
X0028059Y0036244D01*
X0028559D02*
X0028059Y0036744D01*
X0008409Y0011044D02*
X0007909Y0010544D01*
X0008409D02*
X0007909Y0011044D01*
X0009409D02*
X0008909Y0010544D01*
X0009409D02*
X0008909Y0011044D01*
X0029409Y0014894D02*
Y0014694D01*
X0029659Y0014644D02*
X0029409Y0014894D01*
X0029909D02*
X0029659Y0014644D01*
X0029909Y0014694D02*
Y0014894D01*
X0029659Y0014944D02*
X0029909Y0014694D01*
X0029409D02*
X0029659Y0014944D01*
X0026409Y0014894D02*
Y0014694D01*
X0026659Y0014644D02*
X0026409Y0014894D01*
X0026909D02*
X0026659Y0014644D01*
X0026909Y0014694D02*
Y0014894D01*
X0026659Y0014944D02*
X0026909Y0014694D01*
X0026409D02*
X0026659Y0014944D01*
X0027909Y0014894D02*
Y0014694D01*
X0028159Y0014644D02*
X0027909Y0014894D01*
X0028409D02*
X0028159Y0014644D01*
X0028409Y0014694D02*
Y0014894D01*
X0028159Y0014944D02*
X0028409Y0014694D01*
X0027909D02*
X0028159Y0014944D01*
X0024909Y0014894D02*
Y0014694D01*
X0025159Y0014644D02*
X0024909Y0014894D01*
X0025409D02*
X0025159Y0014644D01*
X0025409Y0014694D02*
Y0014894D01*
X0025159Y0014944D02*
X0025409Y0014694D01*
X0024909D02*
X0025159Y0014944D01*
X0018259Y0037644D02*
X0017759Y0037144D01*
X0018259D02*
X0017759Y0037644D01*
X0018259Y0036644D02*
X0017759Y0036144D01*
X0018259D02*
X0017759Y0036644D01*
X0019259Y0037644D02*
X0018759Y0037144D01*
X0019259D02*
X0018759Y0037644D01*
X0019259Y0036644D02*
X0018759Y0036144D01*
X0019259D02*
X0018759Y0036644D01*
X0021409Y0046044D02*
X0020909Y0045544D01*
X0021409D02*
X0020909Y0046044D01*
X0021409Y0046989D02*
X0020909Y0046489D01*
X0021409D02*
X0020909Y0046989D01*
X0017409Y0044544D02*
X0016909Y0044044D01*
X0017409D02*
X0016909Y0044544D01*
X0015409D02*
X0014909Y0044044D01*
X0015409D02*
X0014909Y0044544D01*
X0011409Y0046044D02*
X0010909Y0045544D01*
X0011409D02*
X0010909Y0046044D01*
X0011409Y0046989D02*
X0010909Y0046489D01*
X0011409D02*
X0010909Y0046989D01*
X0006586Y0038671D02*
X0006086Y0038171D01*
X0006586D02*
X0006086Y0038671D01*
X0006586Y0039617D02*
X0006086Y0039117D01*
X0006586D02*
X0006086Y0039617D01*
X0023059Y0033044D02*
X0022559Y0032544D01*
X0023059D02*
X0022559Y0033044D01*
X0023059Y0034044D02*
X0022559Y0033544D01*
X0023059D02*
X0022559Y0034044D01*
X0022059Y0036144D02*
X0021559Y0035644D01*
X0022059D02*
X0021559Y0036144D01*
X0022059Y0035144D02*
X0021559Y0034644D01*
X0022059D02*
X0021559Y0035144D01*
X0006631Y0032017D02*
X0006131Y0031517D01*
X0006631D02*
X0006131Y0032017D01*
X0006631Y0031071D02*
X0006131Y0030571D01*
X0006631D02*
X0006131Y0031071D01*
X0006659Y0034644D02*
X0006159Y0034144D01*
X0006659D02*
X0006159Y0034644D01*
X0006659Y0033699D02*
X0006159Y0033199D01*
X0006659D02*
X0006159Y0033699D01*
X0006659Y0037144D02*
X0006159Y0036644D01*
X0006659D02*
X0006159Y0037144D01*
X0006659Y0036199D02*
X0006159Y0035699D01*
X0006659D02*
X0006159Y0036199D01*
G54D55*
G01X0032770Y0000470D02*
X0032780Y0000460D01*
X0050340D01*
Y0007800D01*
X0032770D01*
Y0000470D01*
X0036000Y0046750D02*
X0044375D01*
X0047375Y0043750D01*
Y0035250D01*
X0044375Y0032250D01*
X0035875D01*
X0032875Y0035250D01*
Y0043625D01*
X0036000Y0046750D01*
Y0030750D02*
X0044375D01*
X0047375Y0027750D01*
Y0019250D01*
X0044375Y0016250D01*
X0035875D01*
X0032875Y0019250D01*
Y0027625D01*
X0036000Y0030750D01*
X0032770Y0008270D02*
X0032780Y0008260D01*
X0050340D01*
Y0015600D01*
X0032770D01*
Y0008270D01*
G54D136*
X0049280Y0014450D03*
Y0009450D03*
Y0006650D03*
Y0001650D03*
M02*
