*
G04 Mass Parameters ***
*
G04 Image ***
*
%IND:\SOUND LEVEL METER PROJECT\MO PHONG_SOUND LEVEL METER_V3\SOUND LEVEL METER_OK\BOARD_NOISE LEVEL METER\GERBER\NOISE LEVEL METER-15.BOT*%
%ICAS*%
%MOIN*%
%IPPOS*%
%ASAXBY*%
G74*%FSLAN2X34Y34*%
*
G04 Aperture Definitions ***
*
%ADD10C,0.0600*%
%ADD11R,0.0600X0.0600*%
%ADD12C,0.0800*%
%ADD13R,0.0800X0.0800*%
%ADD14R,0.1000X0.1000*%
%ADD15C,0.1000*%
%ADD16O,0.0950X0.0650*%
%ADD17R,0.0950X0.0650*%
%ADD18O,0.0800X0.0600*%
%ADD19R,0.0800X0.0600*%
%ADD20R,0.1400X0.1900*%
%ADD21C,0.0700*%
%ADD22R,0.0700X0.0700*%
%ADD23C,0.1575*%
%ADD24O,0.0750X0.0900*%
%ADD25R,0.0750X0.0900*%
%ADD26O,0.0900X0.0800*%
%ADD27O,0.0800X0.0900*%
%ADD28R,0.0900X0.0800*%
%ADD29O,0.4000X0.3000*%
%ADD30R,0.4000X0.3000*%
%ADD31R,0.0650X0.0950*%
%ADD32C,0.1180*%
%ADD33O,0.0650X0.0950*%
%ADD34R,0.0590X0.0394*%
%ADD35R,0.0394X0.0590*%
%ADD36C,0.0790*%
%ADD37O,0.1181X0.1575*%
%ADD38R,0.1181X0.1575*%
%ADD39O,0.0700X0.0850*%
%ADD40R,0.0700X0.0850*%
%ADD41C,0.0500*%
%ADD42R,0.0500X0.0500*%
%ADD43R,0.0480X0.0740*%
%ADD44R,0.0512X0.0590*%
%ADD45O,0.1500X0.0800*%
%ADD46O,0.0850X0.0650*%
%ADD47R,0.0850X0.0650*%
%ADD48O,0.0149X0.0590*%
%ADD49C,0.0300*%
%ADD50C,0.0200*%
%ADD51C,0.0100*%
%ADD52C,0.0350*%
%ADD53C,0.0500*%
%ADD54C,0.0250*%
%ADD55C,0.0150*%
%ADD56C,0.0500*%
%ADD57C,0.0787*%
%ADD58C,0.0400*%
%ADD59C,0.0065*%
%ADD60C,0.0060*%
%ADD61C,0.0070*%
%ADD62C,0.0080*%
*
G04 Plot Data ***
*
G54D49*
G01X0016580Y0010750D02*
X0013780D01*
X0013770Y0010760D01*
X0014600D01*
X0014570Y0010790D01*
Y0013490D01*
X0015390Y0014310D01*
Y0015110D01*
Y0014310D01*
X0014570Y0013490D01*
Y0010790D01*
X0014600Y0010760D01*
X0013770D01*
X0013780Y0010750D01*
X0016580D01*
Y0002650D02*
X0013780D01*
X0013770Y0002660D01*
X0014600D01*
X0014570Y0002690D01*
Y0005390D01*
X0015390Y0006210D01*
Y0007010D01*
X0013370Y0011160D02*
X0013770Y0010760D01*
X0013780Y0010750D01*
X0016580D01*
X0013370Y0003060D02*
X0013770Y0002660D01*
X0013780Y0002650D01*
X0016580D01*
X0008800Y0013150D02*
X0005250D01*
X0005050Y0013350D01*
X0008800Y0005050D02*
X0005250D01*
X0005050Y0005250D01*
X0002550Y0004950D02*
X0003040D01*
X0003550Y0005460D01*
Y0006750D01*
X0011590Y0012120D02*
X0004560D01*
X0004340Y0012340D01*
Y0014640D01*
X0004550Y0014850D01*
X0002550Y0013050D02*
X0003040D01*
X0003550Y0013560D01*
Y0014850D01*
X0008880Y0010770D02*
X0008800Y0010850D01*
X0008790D02*
X0008730Y0010910D01*
X0002690D01*
X0011590Y0004020D02*
X0004560D01*
X0004340Y0004240D01*
Y0006540D01*
X0004550Y0006750D01*
X0012260Y0009210D02*
Y0010890D01*
X0012250Y0010900D02*
Y0012140D01*
X0012230Y0012120D02*
X0011630D01*
X0011590D01*
X0012260Y0001110D02*
Y0002790D01*
X0012250Y0002800D02*
Y0004040D01*
X0012230Y0004020D02*
X0011630D01*
X0011590D01*
X0011630Y0012120D02*
X0011590D01*
X0011630Y0004020D02*
X0011590D01*
X0016580Y0012750D02*
X0016050D01*
X0015550Y0012250D01*
Y0011680D01*
X0002550Y0010050D02*
X0008110D01*
X0008290Y0009870D01*
X0008880Y0002670D02*
X0008800Y0002750D01*
X0008790D02*
X0008730Y0002810D01*
X0002690D01*
X0016580Y0004650D02*
X0016050D01*
X0015550Y0004150D01*
Y0003580D01*
X0002550Y0001950D02*
X0008110D01*
X0008290Y0001770D01*
X0011590Y0004020D02*
X0011630D01*
X0012230D01*
X0012250Y0004040D02*
X0013360Y0005150D01*
Y0013250D02*
X0012250Y0012140D01*
X0012230Y0012120D02*
X0011630D01*
X0011590D01*
X0002550Y0010050D02*
X0008110D01*
X0008290Y0009870D01*
X0000559Y0016794D02*
X0032459D01*
Y0059294D01*
X0018459Y0073294D01*
Y0079294D01*
X0014459D01*
Y0073294D01*
X0000559Y0059394D01*
Y0016794D01*
G54D50*
G01X0014059Y0048394D02*
Y0058091D01*
X0013914Y0058235D01*
X0016459Y0023794D02*
X0014909Y0025344D01*
Y0027544D01*
X0016459Y0029094D01*
Y0031244D01*
X0015659Y0032044D01*
Y0046094D01*
X0014859Y0046894D01*
Y0052594D01*
X0015759Y0053494D01*
X0011709Y0049494D02*
X0011715Y0049500D01*
X0012659D01*
Y0032509D01*
X0010350Y0030200D01*
Y0024550D01*
X0011709Y0049494D02*
X0012659D01*
Y0055394D01*
X0014759Y0053494D02*
X0014659Y0053594D01*
X0014914Y0053849D01*
Y0058235D01*
X0009750Y0044400D02*
Y0044700D01*
X0011390Y0046340D01*
X0011610D01*
X0011620Y0046330D01*
X0016959Y0050494D02*
Y0052394D01*
X0017559Y0052994D01*
Y0056944D01*
X0017759Y0057144D01*
X0018609D01*
X0018659Y0057094D01*
X0013400Y0056800D02*
X0013409Y0056809D01*
Y0046059D01*
X0014209D01*
X0014230Y0046080D01*
X0014250Y0046100D01*
X0014300D01*
X0028059Y0045894D02*
X0027759Y0046194D01*
Y0050694D01*
X0028059Y0050994D01*
X0028609D01*
X0026959Y0031294D02*
Y0030894D01*
X0025859Y0029794D01*
Y0021294D01*
X0024959Y0020394D01*
X0022509D01*
X0022459Y0020444D01*
X0010130Y0018644D02*
Y0019916D01*
X0010969Y0020750D01*
X0018869D01*
X0019759Y0021644D01*
Y0022594D01*
X0020559Y0023394D01*
X0022159D01*
X0023109Y0022444D01*
X0024009D01*
X0024259Y0022694D01*
Y0032944D01*
X0027459Y0036144D01*
Y0043294D02*
X0027359D01*
X0026759Y0043894D01*
Y0058794D01*
X0025559Y0059994D01*
Y0064644D01*
X0025209Y0064994D01*
X0024809D01*
X0017709D02*
Y0061044D01*
X0017459Y0060794D01*
X0019659Y0030694D02*
Y0033794D01*
X0018209Y0035244D01*
Y0037994D01*
X0019109Y0038894D01*
X0022809D01*
X0023609Y0039694D01*
Y0043594D01*
X0022459Y0044744D01*
Y0050794D01*
X0022859Y0051194D01*
Y0054394D01*
X0021859Y0055394D01*
X0021109D01*
X0024109Y0045394D02*
X0024209D01*
X0024509Y0045094D01*
Y0035344D01*
X0022209Y0033044D01*
Y0027894D01*
X0022159Y0027844D01*
X0007650Y0044400D02*
X0007915D01*
X0010109Y0046594D01*
Y0051444D01*
X0011159Y0052494D01*
X0011709D01*
X0021468Y0026294D02*
Y0033003D01*
X0024059Y0035594D01*
Y0043994D01*
X0023159Y0044894D01*
Y0046094D01*
X0023459Y0046394D01*
X0024109D01*
X0027459Y0043294D02*
Y0036144D01*
X0025959Y0051394D02*
X0025409Y0050844D01*
Y0034844D01*
X0023659Y0033094D01*
Y0023444D01*
X0023509Y0023294D01*
X0018459Y0051294D02*
Y0051594D01*
X0019309Y0052444D01*
Y0052894D01*
X0011709Y0053494D02*
X0011359D01*
X0009559Y0051694D01*
Y0046894D01*
X0008709Y0046044D01*
X0006809D01*
Y0045994D01*
X0006009Y0046794D01*
Y0047944D01*
X0006331Y0048267D01*
X0006681D01*
X0021109Y0047394D02*
X0016959D01*
X0016259Y0048094D01*
Y0052394D01*
X0017059Y0053194D01*
Y0055894D01*
X0016459Y0056494D01*
X0008959Y0056044D02*
X0008914Y0056089D01*
Y0058235D01*
X0011709Y0051494D02*
X0011009D01*
X0010709Y0051194D01*
Y0046344D01*
X0008609Y0044244D01*
Y0043494D01*
X0007559Y0042444D01*
Y0026844D01*
X0006829Y0026114D01*
X0006079D01*
X0006709Y0050894D02*
X0007009Y0051194D01*
X0008409D01*
X0008709Y0051494D01*
X0022959Y0024794D02*
Y0033094D01*
X0024959Y0035094D01*
Y0052094D01*
X0025459Y0052594D01*
Y0059294D01*
X0024859Y0059894D01*
Y0064044D01*
X0015409Y0064144D02*
X0015359Y0064194D01*
X0015309D01*
X0014309Y0065194D01*
Y0071144D01*
X0015459Y0072294D01*
X0016459Y0077294D02*
Y0072294D01*
X0024109Y0053394D02*
X0023459D01*
X0023259Y0053594D01*
Y0055894D01*
X0022259Y0056894D01*
Y0066094D01*
X0016409Y0071944D01*
Y0072244D01*
X0016459Y0072294D01*
X0025459Y0031294D02*
X0025359D01*
X0025059Y0030994D01*
Y0022244D01*
X0024609Y0021794D01*
X0022909D01*
X0021959Y0022744D01*
X0020909D01*
X0020409Y0022244D01*
Y0021344D01*
X0019369Y0020250D01*
X0012910D01*
X0011902Y0019339D01*
Y0018644D01*
X0013408Y0056662D02*
Y0046059D01*
Y0045641D01*
X0014850Y0044200D01*
Y0033000D01*
X0012350Y0030499D01*
Y0025084D01*
X0010509Y0023244D01*
X0010018D01*
X0018459Y0049294D02*
Y0049994D01*
X0017659Y0050794D01*
Y0052244D01*
X0018309Y0052894D01*
X0006079Y0028294D02*
X0006309D01*
X0006859Y0028844D01*
Y0045944D01*
X0006809Y0045994D01*
X0006009Y0046794D01*
Y0047944D01*
X0006331Y0048267D01*
X0006681D01*
X0017509Y0035144D02*
X0018309Y0034344D01*
Y0029944D01*
X0018059Y0029694D01*
Y0024144D01*
X0016459Y0022544D01*
Y0021753D01*
X0016100Y0021394D01*
X0009459D01*
X0008359Y0020294D01*
Y0018644D01*
X0008709Y0049494D02*
X0008059D01*
X0007559Y0048994D01*
Y0047594D01*
X0007286Y0047321D01*
X0006681D01*
X0015559Y0057094D02*
Y0054894D01*
X0016559Y0053894D01*
Y0053294D01*
X0015709Y0052444D01*
Y0047244D01*
X0016559Y0046394D01*
X0021109D01*
X0028609Y0050994D02*
X0028059D01*
X0027759Y0050694D01*
Y0046194D01*
X0028059Y0045894D01*
X0014280Y0046080D02*
X0014230D01*
X0014209Y0046059D01*
X0013409D01*
Y0056809D01*
X0013400Y0056800D01*
X0006914Y0058235D02*
Y0059039D01*
X0006609Y0059344D01*
X0003509D01*
X0003159Y0058994D01*
Y0047594D01*
X0004059Y0046694D01*
X0015459Y0077294D02*
Y0072294D01*
X0028459Y0028294D02*
X0030259D01*
X0031459Y0029494D01*
Y0043194D01*
X0030959Y0043694D01*
X0004959Y0045794D02*
Y0053494D01*
X0005659Y0054194D01*
X0007259D01*
X0007459Y0054394D01*
Y0056094D01*
X0005759Y0057794D01*
Y0058075D01*
X0005914Y0058235D01*
X0006709Y0053394D02*
X0007259D01*
X0008359Y0054494D01*
X0008709D01*
X0021459Y0021444D02*
X0022459Y0020444D01*
X0008709Y0052494D02*
X0008663Y0052449D01*
X0006709D01*
X0015914Y0058235D02*
X0016009Y0058325D01*
Y0060144D01*
X0016259Y0060394D01*
Y0066744D01*
X0016209Y0066794D01*
X0023259Y0066744D02*
Y0058594D01*
X0023459Y0058394D01*
X0024109D01*
X0006709Y0049949D02*
X0006954Y0050194D01*
X0008409D01*
X0008709Y0050494D01*
X0016914Y0058235D02*
X0016859Y0058295D01*
Y0059994D01*
X0016659Y0060194D01*
Y0061494D01*
X0016959Y0061794D01*
Y0065944D01*
X0024059Y0065844D02*
X0024109Y0065794D01*
Y0059794D01*
X0024959Y0058944D01*
Y0057844D01*
X0024509Y0057394D01*
X0024109D01*
X0028459Y0031294D02*
Y0031094D01*
X0026859Y0029494D01*
Y0020494D01*
X0025859Y0019494D01*
X0021509D01*
X0021459Y0019444D01*
X0001070Y0015900D02*
Y0008560D01*
X0018640D01*
Y0015900D01*
X0001080D01*
X0011750Y0011542D02*
Y0010900D01*
X0003840Y0013143D02*
X0003396Y0012699D01*
X0004620Y0011620D02*
Y0011410D01*
X0008940Y0015450D02*
Y0014871D01*
X0006207Y0014777D02*
X0005225D01*
X0010994Y0015000D02*
X0010306D01*
X0016500Y0010075D02*
Y0009922D01*
X0003375Y0012375D02*
X0003291D01*
X0007500Y0015450D02*
Y0012620D01*
X0012941Y0011580D02*
X0012750D01*
X0003900Y0009550D02*
Y0009010D01*
X0003840Y0012480D02*
X0003375D01*
X0009300Y0015450D02*
Y0015306D01*
X0008400Y0015450D02*
Y0013597D01*
X0006207Y0015450D02*
Y0014777D01*
X0015960Y0015450D02*
Y0015297D01*
X0006060Y0009550D02*
Y0009010D01*
X0016554Y0010075D02*
X0016480D01*
X0005225Y0014777D02*
Y0014700D01*
X0011640Y0015450D02*
Y0015393D01*
X0005160Y0014411D02*
Y0013940D01*
X0016140Y0010167D02*
Y0009010D01*
X0017040Y0009024D02*
Y0009010D01*
X0013440Y0012623D02*
Y0011756D01*
X0008580Y0015450D02*
Y0013708D01*
X0015960Y0010319D02*
Y0009010D01*
X0015780Y0010936D02*
Y0009010D01*
X0015600Y0010892D02*
Y0009010D01*
X0015240Y0014529D02*
Y0012647D01*
X0014880Y0014794D02*
Y0009010D01*
X0014700Y0015450D02*
Y0009010D01*
X0013800Y0012862D02*
Y0011578D01*
X0009300Y0012818D02*
Y0012620D01*
X0014340Y0015450D02*
Y0009010D01*
X0013800Y0010741D02*
Y0009010D01*
X0013620Y0010614D02*
Y0009010D01*
X0013440Y0010564D02*
Y0009010D01*
X0012760Y0010890D02*
Y0009541D01*
X0009149Y0014100D02*
X0004859D01*
X0013260Y0010570D02*
Y0009010D01*
X0013980Y0013069D02*
Y0009010D01*
X0013080Y0012263D02*
Y0011685D01*
X0011280Y0014005D02*
Y0012634D01*
X0011640Y0011522D02*
Y0009010D01*
X0011280Y0011606D02*
Y0009010D01*
X0011100Y0011620D02*
Y0009010D01*
X0008760Y0009497D02*
Y0009010D01*
X0010920Y0011620D02*
Y0009010D01*
X0010740Y0011620D02*
Y0009010D01*
X0008994Y0015000D02*
X0006207D01*
X0008400Y0009280D02*
Y0009010D01*
X0009480Y0011620D02*
Y0009010D01*
X0009120Y0010130D02*
Y0009010D01*
X0010020Y0011620D02*
Y0009010D01*
X0008580Y0009345D02*
Y0009010D01*
X0008940Y0010083D02*
Y0009010D01*
X0008220Y0009274D02*
Y0009010D01*
X0003375Y0012679D02*
Y0012375D01*
X0007860Y0009451D02*
Y0009010D01*
X0007680Y0009550D02*
Y0009010D01*
X0007500Y0009550D02*
Y0009010D01*
X0007320Y0009550D02*
Y0009010D01*
X0007140Y0009550D02*
Y0009010D01*
X0006960Y0009550D02*
Y0009010D01*
X0006780Y0009550D02*
Y0009010D01*
X0005520Y0012977D02*
Y0012620D01*
X0006600Y0009550D02*
Y0009010D01*
X0006420Y0009550D02*
Y0009010D01*
X0006240Y0009550D02*
Y0009010D01*
X0005880Y0009550D02*
Y0009010D01*
X0004620Y0009550D02*
Y0009010D01*
X0004440Y0009550D02*
Y0009010D01*
X0003360Y0009550D02*
Y0009010D01*
X0005520Y0009550D02*
Y0009010D01*
X0005340Y0009550D02*
Y0009010D01*
X0005160Y0009550D02*
Y0009010D01*
X0005700Y0009550D02*
Y0009010D01*
X0012994Y0013740D02*
X0008909D01*
X0009300Y0013994D02*
Y0013481D01*
X0009120Y0012642D02*
Y0012620D01*
X0004980Y0009550D02*
Y0009010D01*
X0012000Y0015450D02*
Y0015306D01*
X0011128Y0015180D02*
X0010172D01*
X0009429Y0015360D02*
X0006207D01*
X0004260Y0009550D02*
Y0009010D01*
X0004840Y0014090D02*
Y0013912D01*
X0004862Y0013920D02*
X0004840D01*
X0014160Y0015450D02*
Y0009010D01*
X0007894Y0012660D02*
X0004840D01*
X0008906Y0014640D02*
X0005222D01*
X0009120Y0011620D02*
Y0011234D01*
X0009660Y0015450D02*
Y0015393D01*
X0009840Y0015450D02*
Y0015369D01*
X0016320Y0010094D02*
Y0009010D01*
X0010560Y0015450D02*
Y0012620D01*
X0011429Y0015360D02*
X0009871D01*
X0011005Y0014280D02*
X0010295D01*
X0010931Y0014460D02*
X0010369D01*
X0012180Y0015450D02*
Y0015172D01*
X0015420Y0014511D02*
Y0012827D01*
X0009660Y0013906D02*
Y0012620D01*
X0011760Y0010680D02*
X0009480D01*
X0015050Y0012250D02*
Y0011821D01*
X0016793Y0015360D02*
X0015935D01*
X0009840Y0011620D02*
Y0009010D01*
X0008940Y0014429D02*
Y0013733D01*
X0016556Y0009420D02*
X0012822D01*
X0016480Y0009780D02*
X0012760D01*
X0011760Y0010320D02*
X0009360D01*
X0015814Y0010860D02*
X0013889D01*
X0015693Y0013100D02*
X0015199Y0012606D01*
X0015153Y0011040D02*
X0013958D01*
X0011149Y0014100D02*
X0010150D01*
X0015014Y0011220D02*
X0013967D01*
X0012750Y0011933D02*
Y0010989D01*
X0011760Y0010140D02*
X0009141D01*
X0004260Y0011720D02*
Y0011410D01*
X0011750Y0011400D02*
X0008829D01*
X0012423Y0013020D02*
X0009386D01*
X0011694Y0009010D02*
X0003233D01*
X0012180Y0014128D02*
Y0012777D01*
X0015805Y0014425D02*
Y0013186D01*
Y0013200D02*
X0014031D01*
X0015805Y0013380D02*
X0014049D01*
X0015805Y0013560D02*
X0014012D01*
X0015805Y0013740D02*
X0013906D01*
X0007320Y0015450D02*
Y0012620D01*
X0012023D02*
X0011921D01*
X0008246Y0013380D02*
X0005649D01*
X0013080Y0015450D02*
Y0013822D01*
X0015805Y0013920D02*
X0013637D01*
X0011100Y0014149D02*
Y0012620D01*
X0015240Y0010976D02*
Y0009010D01*
X0010200Y0014149D02*
Y0012620D01*
X0010380Y0014508D02*
Y0012620D01*
X0010740Y0015450D02*
Y0012620D01*
X0013800Y0015450D02*
Y0013837D01*
X0015613Y0013020D02*
X0013951D01*
X0016483Y0014820D02*
X0015915D01*
X0012900Y0015450D02*
Y0013590D01*
X0013582Y0012764D02*
X0012750Y0011933D01*
X0012360Y0014429D02*
Y0012957D01*
X0010020Y0014005D02*
Y0012620D01*
X0012820Y0011400D02*
X0012750D01*
X0016191Y0010140D02*
X0012760D01*
X0015600Y0014548D02*
Y0013007D01*
X0007860Y0015450D02*
Y0012645D01*
X0009300Y0011620D02*
Y0011108D01*
X0016860Y0015450D02*
Y0015402D01*
X0005520Y0011620D02*
Y0011410D01*
X0006600Y0015450D02*
Y0012620D01*
X0014957Y0011400D02*
X0013920D01*
X0014957Y0011580D02*
X0013798D01*
X0012603Y0013200D02*
X0009398D01*
X0006780Y0011620D02*
Y0011410D01*
X0006420Y0015450D02*
Y0012620D01*
X0006960Y0011620D02*
Y0011410D01*
X0007680Y0011620D02*
Y0011410D01*
X0005700Y0011620D02*
Y0011410D01*
X0014794Y0015180D02*
X0012172D01*
X0008940Y0011620D02*
Y0011364D01*
X0011258Y0011620D02*
X0008470D01*
X0011460Y0011534D02*
Y0009010D01*
X0008760Y0015450D02*
Y0013748D01*
X0016320Y0015450D02*
Y0014425D01*
X0003233Y0009550D02*
Y0009010D01*
X0008214Y0013020D02*
X0005551D01*
X0008040Y0015450D02*
Y0012696D01*
X0015960Y0014922D02*
Y0014425D01*
X0012063Y0012660D02*
X0011851D01*
X0007782Y0009550D02*
X0003233D01*
X0009300Y0010251D02*
Y0009010D01*
X0011508Y0013920D02*
X0009792D01*
X0016538Y0014460D02*
X0012369D01*
X0003540Y0012843D02*
Y0011410D01*
X0006240Y0015450D02*
Y0012620D01*
X0011100Y0015450D02*
Y0015150D01*
X0011280Y0015450D02*
Y0015295D01*
X0003360Y0011908D02*
Y0011410D01*
X0008040Y0009324D02*
Y0009010D01*
X0015808Y0010680D02*
X0013730D01*
X0010200Y0015450D02*
Y0015150D01*
X0008220Y0011510D02*
Y0011410D01*
X0014844Y0015360D02*
X0011871D01*
X0008926Y0014820D02*
X0006207D01*
X0005340Y0012825D02*
Y0012620D01*
X0005880Y0014777D02*
Y0012620D01*
X0006060Y0014777D02*
Y0012620D01*
X0007140Y0015450D02*
Y0012620D01*
X0010560Y0011620D02*
Y0009010D01*
X0004800Y0009550D02*
Y0009010D01*
X0003841Y0012300D02*
X0003327D01*
X0004080Y0009550D02*
Y0009010D01*
X0005160Y0012760D02*
Y0012620D01*
X0009128Y0015180D02*
X0006207D01*
X0003840Y0013020D02*
X0003717D01*
X0011820Y0015450D02*
Y0015374D01*
X0010020Y0015450D02*
Y0015295D01*
X0009120Y0015450D02*
Y0015172D01*
X0007782Y0009550D02*
X0003233D01*
X0003720Y0013023D02*
Y0011410D01*
X0003840Y0012660D02*
X0003375D01*
X0015060Y0014609D02*
Y0012349D01*
X0003840Y0013143D02*
Y0012340D01*
X0014880Y0015450D02*
Y0015426D01*
X0003180Y0011575D02*
Y0011524D01*
X0008286Y0012840D02*
X0005366D01*
X0008202Y0013200D02*
X0005631D01*
X0015805Y0014280D02*
X0012295D01*
X0003840Y0012840D02*
X0003537D01*
X0005160Y0011620D02*
Y0011410D01*
X0008760Y0011620D02*
Y0011409D01*
X0011751Y0010860D02*
X0009452D01*
X0007893Y0009420D02*
X0003233D01*
X0011760Y0009600D02*
X0008826D01*
X0011750Y0011040D02*
X0009360D01*
X0007811Y0011580D02*
X0003184D01*
X0006240Y0011620D02*
Y0011410D01*
X0011760Y0009780D02*
X0008883D01*
X0009120Y0014128D02*
Y0013657D01*
X0004980Y0011620D02*
Y0011410D01*
X0007140Y0011620D02*
Y0011410D01*
X0006600Y0011620D02*
Y0011410D01*
X0007750Y0011620D02*
X0004560D01*
X0007320D02*
Y0011410D01*
X0007500Y0011620D02*
Y0011410D01*
X0009660Y0011620D02*
Y0009010D01*
X0005880Y0011620D02*
Y0011410D01*
X0012783Y0013380D02*
X0009354D01*
X0012888Y0013560D02*
X0009238D01*
X0008040Y0011504D02*
Y0011410D01*
X0011328Y0012660D02*
X0009146D01*
X0004980Y0012754D02*
Y0012620D01*
X0015420Y0010904D02*
Y0009010D01*
X0007860Y0011554D02*
Y0011410D01*
X0012243Y0012840D02*
X0009314D01*
X0011258Y0012620D02*
X0009081D01*
X0004213Y0011760D02*
X0003309D01*
X0010380Y0015450D02*
Y0014792D01*
X0011460Y0015450D02*
Y0015369D01*
X0016961Y0015450D02*
X0015884D01*
X0003900Y0012102D02*
Y0011410D01*
X0010926Y0014820D02*
X0010374D01*
X0010906Y0014640D02*
X0010393D01*
X0011679Y0009060D02*
X0003233D01*
X0016936D02*
X0012841D01*
X0016680Y0009240D02*
X0012859D01*
X0016495Y0009600D02*
X0012760D01*
X0013010Y0010680D02*
X0012760D01*
X0012782Y0011040D02*
X0012750D01*
X0013080Y0010635D02*
Y0009010D01*
X0011760Y0010500D02*
X0009452D01*
X0011760Y0010800D02*
Y0009541D01*
X0016615Y0015180D02*
X0015986D01*
X0012773Y0011220D02*
X0012750D01*
X0012850Y0010860D02*
X0012760D01*
X0012720Y0015450D02*
Y0013317D01*
X0013260Y0012443D02*
Y0011750D01*
X0015960Y0010320D02*
X0012760D01*
X0013260Y0015450D02*
Y0013919D01*
X0008580Y0011620D02*
Y0011410D01*
X0012000Y0013994D02*
Y0012620D01*
X0013980Y0015450D02*
Y0013631D01*
X0015106Y0012480D02*
X0013297D01*
X0015853Y0010500D02*
X0012760D01*
X0008362Y0013560D02*
X0005612D01*
X0011328Y0011580D02*
X0008409D01*
X0016488Y0014640D02*
X0015763D01*
X0016523Y0015000D02*
X0015980D01*
X0013262Y0013920D02*
X0011792D01*
X0010920Y0015450D02*
Y0014792D01*
Y0014508D02*
Y0012620D01*
X0011460Y0013931D02*
Y0012706D01*
X0011640Y0013906D02*
Y0012718D01*
X0011820Y0013926D02*
Y0012674D01*
X0012023Y0012620D02*
X0011921D01*
X0013620Y0015450D02*
Y0013925D01*
X0012540Y0015450D02*
Y0013137D01*
X0009480Y0013926D02*
Y0012620D01*
X0008220Y0015450D02*
Y0013303D01*
X0006420Y0011620D02*
Y0011410D01*
X0008220Y0012996D02*
Y0012690D01*
X0008519Y0012620D02*
X0008409D01*
X0005700Y0014777D02*
Y0012620D01*
X0008400Y0011575D02*
Y0011410D01*
X0014520Y0015450D02*
Y0009010D01*
X0015017Y0014640D02*
X0012393D01*
X0012900Y0010787D02*
Y0009010D01*
X0015433Y0012840D02*
X0013766D01*
X0003891Y0012120D02*
X0003371D01*
X0008454Y0012660D02*
X0008325D01*
X0017108Y0009010D02*
X0012826D01*
X0015052Y0012300D02*
X0013117D01*
X0015050Y0011940D02*
X0012757D01*
X0011750Y0011220D02*
X0009141D01*
X0009840Y0013931D02*
Y0012620D01*
X0007811D02*
X0004840D01*
X0014800Y0015000D02*
X0012306D01*
X0015780Y0014654D02*
Y0013171D01*
X0003540Y0009550D02*
Y0009010D01*
X0015253Y0012660D02*
X0013477D01*
X0014895Y0015450D02*
X0006207D01*
X0013620Y0012774D02*
Y0011705D01*
X0012360Y0015450D02*
Y0014871D01*
X0003720Y0009550D02*
Y0009010D01*
X0012900Y0012083D02*
Y0011533D01*
X0004440Y0011634D02*
Y0011410D01*
X0011760Y0009960D02*
X0008883D01*
X0011661Y0009240D02*
X0003233D01*
X0014865Y0014820D02*
X0012374D01*
X0006060Y0011620D02*
Y0011410D01*
X0009005Y0014280D02*
X0005078D01*
X0008730Y0011410D02*
X0003271D01*
X0016500Y0009578D02*
Y0009010D01*
X0009480Y0015450D02*
Y0015374D01*
X0004980Y0014180D02*
Y0013946D01*
X0016680Y0009240D02*
Y0009010D01*
X0003989Y0011983D02*
X0004203Y0011769D01*
X0004080Y0011893D02*
Y0011410D01*
X0007680Y0015450D02*
Y0012620D01*
X0015805Y0014100D02*
X0012150D01*
X0016860Y0009097D02*
Y0009010D01*
X0004840Y0012788D02*
Y0012620D01*
X0016500Y0014578D02*
Y0014425D01*
X0011698Y0009420D02*
X0008687D01*
X0016680Y0015450D02*
Y0015260D01*
X0016500Y0015450D02*
Y0014922D01*
X0016140Y0015450D02*
Y0014425D01*
X0008931Y0014460D02*
X0005181D01*
X0008691Y0013740D02*
X0005506D01*
X0005520Y0014777D02*
Y0013723D01*
X0004800Y0011620D02*
Y0011410D01*
X0015050Y0012120D02*
X0012937D01*
X0015060Y0011144D02*
Y0009010D01*
X0003360Y0012375D02*
Y0012191D01*
X0004033Y0011940D02*
X0003366D01*
X0016554Y0014425D02*
X0015805D01*
X0005340Y0014777D02*
Y0013875D01*
X0006780Y0015450D02*
Y0012620D01*
X0009508Y0013920D02*
X0005237D01*
X0008400Y0012703D02*
Y0012625D01*
X0005340Y0011620D02*
Y0011410D01*
X0013440Y0015450D02*
Y0013950D01*
X0012859Y0013456D02*
X0012023Y0012620D01*
X0010380Y0011620D02*
Y0009010D01*
X0016510Y0009960D02*
X0012760D01*
X0015014Y0011760D02*
X0012750D01*
X0010200Y0011620D02*
Y0009010D01*
X0006960Y0015450D02*
Y0012620D01*
X0012540Y0007350D02*
Y0005037D01*
X0006240Y0007350D02*
Y0004520D01*
X0007680Y0007350D02*
Y0004520D01*
X0003720Y0004923D02*
Y0003310D01*
X0008940Y0007350D02*
Y0006771D01*
X0006207Y0006677D02*
X0005225D01*
X0009660Y0007350D02*
Y0007293D01*
X0016500Y0001975D02*
Y0001822D01*
X0003375Y0004275D02*
X0003291D01*
X0004840Y0005990D02*
Y0005812D01*
X0014800Y0006900D02*
X0012306D01*
X0003720Y0001450D02*
Y0000910D01*
X0003840Y0004380D02*
X0003375D01*
X0015060Y0003044D02*
Y0000910D01*
X0004620Y0003520D02*
Y0003310D01*
X0006207Y0007350D02*
Y0006677D01*
X0011508Y0005820D02*
X0009792D01*
X0015960Y0007350D02*
Y0007197D01*
X0005880Y0001450D02*
Y0000910D01*
X0016554Y0001975D02*
X0016480D01*
X0005225Y0006677D02*
Y0006600D01*
X0011100Y0007350D02*
Y0007050D01*
X0009480Y0005826D02*
Y0004520D01*
X0016140Y0002067D02*
Y0000910D01*
X0017040Y0000924D02*
Y0000910D01*
X0016488Y0006540D02*
X0015763D01*
X0015960Y0002219D02*
Y0000910D01*
X0015780Y0002836D02*
Y0000910D01*
X0015600Y0002792D02*
Y0000910D01*
X0015420Y0002804D02*
Y0000910D01*
X0015060Y0006509D02*
Y0004249D01*
X0014880Y0006694D02*
Y0000910D01*
X0014700Y0007350D02*
Y0000910D01*
X0014160Y0007350D02*
Y0000910D01*
X0015960Y0006822D02*
Y0006325D01*
X0013980Y0004969D02*
Y0000910D01*
X0013800Y0002641D02*
Y0000910D01*
X0013260Y0002470D02*
Y0000910D01*
X0016480Y0001680D02*
X0012760D01*
X0009149Y0006000D02*
X0004859D01*
X0011760Y0002700D02*
Y0001441D01*
X0011460Y0005831D02*
Y0004606D01*
X0011760Y0002220D02*
X0009360D01*
X0003891Y0004020D02*
X0003371D01*
X0011640Y0003422D02*
Y0000910D01*
X0011280Y0003506D02*
Y0000910D01*
X0011100Y0003520D02*
Y0000910D01*
X0013440Y0007350D02*
Y0005850D01*
X0010920Y0003520D02*
Y0000910D01*
X0010740Y0003520D02*
Y0000910D01*
X0008994Y0006900D02*
X0006207D01*
X0008400Y0001180D02*
Y0000910D01*
X0008220Y0007350D02*
Y0005203D01*
X0008760Y0003520D02*
Y0003309D01*
X0011760Y0002040D02*
X0009141D01*
X0010020Y0003520D02*
Y0000910D01*
X0008760Y0001397D02*
Y0000910D01*
X0008580Y0001245D02*
Y0000910D01*
X0009120Y0002030D02*
Y0000910D01*
X0008940Y0001983D02*
Y0000910D01*
X0009480Y0003520D02*
Y0000910D01*
X0007680Y0001450D02*
Y0000910D01*
X0007500Y0001450D02*
Y0000910D01*
X0007320Y0001450D02*
Y0000910D01*
X0007140Y0001450D02*
Y0000910D01*
X0006960Y0001450D02*
Y0000910D01*
X0006780Y0001450D02*
Y0000910D01*
X0006600Y0001450D02*
Y0000910D01*
X0005340Y0006677D02*
Y0005775D01*
X0006420Y0001450D02*
Y0000910D01*
X0006240Y0001450D02*
Y0000910D01*
X0006060Y0001450D02*
Y0000910D01*
X0003360Y0001450D02*
Y0000910D01*
X0004440Y0001450D02*
Y0000910D01*
X0004260Y0001450D02*
Y0000910D01*
X0005520Y0001450D02*
Y0000910D01*
X0005340Y0001450D02*
Y0000910D01*
X0004620Y0001450D02*
Y0000910D01*
X0004800Y0001450D02*
Y0000910D01*
X0013800Y0007350D02*
Y0005737D01*
X0005700Y0001450D02*
Y0000910D01*
X0008040Y0003404D02*
Y0003310D01*
X0007894Y0004560D02*
X0004840D01*
X0006420Y0003520D02*
Y0003310D01*
X0004980Y0004654D02*
Y0004520D01*
X0006060Y0003520D02*
Y0003310D01*
X0004980Y0001450D02*
Y0000910D01*
X0011460Y0007350D02*
Y0007269D01*
X0009840Y0007350D02*
Y0007269D01*
X0009429Y0007260D02*
X0006207D01*
X0004080Y0001450D02*
Y0000910D01*
X0012000Y0007350D02*
Y0007206D01*
X0009120Y0006028D02*
Y0005557D01*
X0013440Y0002464D02*
Y0000910D01*
X0005160Y0006311D02*
Y0005840D01*
X0008940Y0003520D02*
Y0003264D01*
X0008906Y0006540D02*
X0005222D01*
X0010200Y0007350D02*
Y0007050D01*
X0009120Y0007350D02*
Y0007072D01*
X0009300Y0007350D02*
Y0007206D01*
X0016320Y0001994D02*
Y0000910D01*
X0010931Y0006360D02*
X0010369D01*
X0008400Y0007350D02*
Y0005497D01*
X0010926Y0006720D02*
X0010374D01*
X0010906Y0006540D02*
X0010393D01*
X0011640Y0007350D02*
Y0007293D01*
X0003840Y0005043D02*
X0003396Y0004599D01*
X0013080Y0004163D02*
Y0003585D01*
X0015433Y0004740D02*
X0013766D01*
X0015050Y0003840D02*
X0012757D01*
X0013260Y0004343D02*
Y0003650D01*
X0003840Y0005043D02*
Y0004240D01*
X0015017Y0006540D02*
X0012393D01*
X0015420Y0006411D02*
Y0004727D01*
X0015600Y0006448D02*
Y0004907D01*
X0015050Y0004150D02*
Y0003721D01*
X0015052Y0004200D02*
X0013117D01*
X0015240Y0006429D02*
Y0004547D01*
X0013440Y0004523D02*
Y0003656D01*
X0013620Y0004674D02*
Y0003605D01*
X0016615Y0007080D02*
X0015986D01*
X0013800Y0004762D02*
Y0003478D01*
X0016793Y0007260D02*
X0015935D01*
X0014880Y0007350D02*
Y0007326D01*
X0016961Y0007350D02*
X0015884D01*
X0016483Y0006720D02*
X0015915D01*
X0014520Y0007350D02*
Y0000910D01*
X0015693Y0005000D02*
X0015199Y0004506D01*
X0008580Y0007350D02*
Y0005608D01*
X0004213Y0003660D02*
X0003309D01*
X0011429Y0007260D02*
X0009871D01*
X0012603Y0005100D02*
X0009398D01*
X0009300Y0002151D02*
Y0000910D01*
X0011750Y0003120D02*
X0009141D01*
X0008519Y0004520D02*
X0008409D01*
X0011760Y0001860D02*
X0008883D01*
X0012782Y0002940D02*
X0012750D01*
X0007860Y0001351D02*
Y0000910D01*
X0005520Y0004877D02*
Y0004520D01*
X0011328Y0003480D02*
X0008409D01*
X0009660Y0003520D02*
Y0000910D01*
X0008286Y0004740D02*
X0005366D01*
X0005160Y0003520D02*
Y0003310D01*
X0008220Y0001174D02*
Y0000910D01*
X0008580Y0003520D02*
Y0003310D01*
X0010020Y0005905D02*
Y0004520D01*
X0012859Y0005356D02*
X0012023Y0004520D01*
X0007860Y0003454D02*
Y0003310D01*
X0012820Y0003300D02*
X0012750D01*
X0007860Y0007350D02*
Y0004545D01*
X0009300Y0004718D02*
Y0004520D01*
X0005520Y0006677D02*
Y0005623D01*
X0015805Y0005820D02*
X0013637D01*
X0015613Y0004920D02*
X0013951D01*
X0015106Y0004380D02*
X0013297D01*
X0015805Y0005100D02*
X0014031D01*
X0007140Y0003520D02*
Y0003310D01*
X0013262Y0005820D02*
X0011792D01*
X0015805Y0005280D02*
X0014049D01*
X0015805Y0005460D02*
X0014012D01*
X0015805Y0005640D02*
X0013906D01*
X0010560Y0007350D02*
Y0004520D01*
X0013260Y0007350D02*
Y0005819D01*
X0008362Y0005460D02*
X0005612D01*
X0012360Y0007350D02*
Y0006771D01*
X0007893Y0001320D02*
X0003233D01*
X0015780Y0006554D02*
Y0005071D01*
X0004980Y0003520D02*
Y0003310D01*
X0011760Y0002400D02*
X0009452D01*
X0016320Y0007350D02*
Y0006325D01*
X0003233Y0001450D02*
Y0000910D01*
X0016523Y0006900D02*
X0015980D01*
X0007680Y0003520D02*
Y0003310D01*
X0011258Y0003520D02*
X0008470D01*
X0010920Y0007350D02*
Y0006692D01*
X0014844Y0007260D02*
X0011871D01*
X0010020Y0007350D02*
Y0007195D01*
X0004980Y0006080D02*
Y0005846D01*
X0009005Y0006180D02*
X0005078D01*
X0009120Y0004542D02*
Y0004520D01*
X0003360Y0003808D02*
Y0003310D01*
X0003989Y0003883D02*
X0004203Y0003669D01*
X0015050Y0004020D02*
X0012937D01*
X0011149Y0006000D02*
X0010150D01*
X0006240Y0003520D02*
Y0003310D01*
X0015805Y0006000D02*
X0012150D01*
X0008926Y0006720D02*
X0006207D01*
X0009300Y0005894D02*
Y0005381D01*
X0006780Y0007350D02*
Y0004520D01*
X0011280Y0007350D02*
Y0007195D01*
X0007782Y0001450D02*
X0003233D01*
X0011258Y0004520D02*
X0009081D01*
X0003900Y0001450D02*
Y0000910D01*
X0014794Y0007080D02*
X0012172D01*
X0008400Y0004603D02*
Y0004525D01*
X0012180Y0007350D02*
Y0007072D01*
X0003180Y0003475D02*
Y0003424D01*
X0006960Y0007350D02*
Y0004520D01*
X0010560Y0003520D02*
Y0000910D01*
X0005160Y0004660D02*
Y0004520D01*
X0012243Y0004740D02*
X0009314D01*
X0012888Y0005460D02*
X0009238D01*
X0011460Y0003434D02*
Y0000910D01*
X0007750Y0003520D02*
X0004560D01*
X0015240Y0002876D02*
Y0000910D01*
X0008040Y0001224D02*
Y0000910D01*
X0003540Y0004743D02*
Y0003310D01*
X0007140Y0007350D02*
Y0004520D01*
X0008691Y0005640D02*
X0005506D01*
X0009300Y0003520D02*
Y0003008D01*
X0005880Y0006677D02*
Y0004520D01*
X0006060Y0006677D02*
Y0004520D01*
X0007320Y0007350D02*
Y0004520D01*
X0008214Y0004920D02*
X0005551D01*
X0003841Y0004200D02*
X0003327D01*
X0005160Y0001450D02*
Y0000910D01*
X0009128Y0007080D02*
X0006207D01*
X0011750Y0003300D02*
X0008829D01*
X0013582Y0004664D02*
X0012750Y0003833D01*
X0003540Y0001450D02*
Y0000910D01*
X0016936Y0000960D02*
X0012841D01*
X0014340Y0007350D02*
Y0000910D01*
X0016495Y0001500D02*
X0012760D01*
X0013010Y0002580D02*
X0012760D01*
X0013080Y0002535D02*
Y0000910D01*
X0015853Y0002400D02*
X0012760D01*
X0012773Y0003120D02*
X0012750D01*
X0012760Y0002790D02*
Y0001441D01*
X0016556Y0001320D02*
X0012822D01*
X0012850Y0002760D02*
X0012760D01*
X0012750Y0003833D02*
Y0002889D01*
X0006420Y0007350D02*
Y0004520D01*
X0016680Y0001140D02*
X0012859D01*
X0003900Y0004002D02*
Y0003310D01*
X0015960Y0002220D02*
X0012760D01*
X0014957Y0003480D02*
X0013798D01*
X0011760Y0002580D02*
X0009480D01*
X0011750Y0002940D02*
X0009360D01*
X0004260Y0003620D02*
Y0003310D01*
X0012023Y0004520D02*
X0011921D01*
X0012994Y0005640D02*
X0008909D01*
X0012180Y0006028D02*
Y0004677D01*
X0015253Y0004560D02*
X0013477D01*
X0009660Y0005806D02*
Y0004520D01*
X0011640Y0005806D02*
Y0004618D01*
X0007811Y0003480D02*
X0003184D01*
X0012360Y0006329D02*
Y0004857D01*
X0015805Y0006325D02*
Y0005086D01*
X0008246Y0005280D02*
X0005649D01*
X0016191Y0002040D02*
X0012760D01*
X0011820Y0005826D02*
Y0004574D01*
X0012720Y0007350D02*
Y0005217D01*
X0005520Y0003520D02*
Y0003310D01*
X0012063Y0004560D02*
X0011851D01*
X0012023Y0004520D02*
X0011921D01*
X0004800Y0003520D02*
Y0003310D01*
X0012783Y0005280D02*
X0009354D01*
X0005700Y0003520D02*
Y0003310D01*
X0008202Y0005100D02*
X0005631D01*
X0006960Y0003520D02*
Y0003310D01*
X0013980Y0007350D02*
Y0005531D01*
X0008220Y0003410D02*
Y0003310D01*
X0006600Y0003520D02*
Y0003310D01*
Y0007350D02*
Y0004520D01*
X0011750Y0003442D02*
Y0002800D01*
X0012000Y0005894D02*
Y0004520D01*
X0008760Y0007350D02*
Y0005648D01*
X0007320Y0003520D02*
Y0003310D01*
X0011280Y0005905D02*
Y0004534D01*
X0006780Y0003520D02*
Y0003310D01*
X0010380Y0003520D02*
Y0000910D01*
X0007500Y0003520D02*
Y0003310D01*
X0010200Y0003520D02*
Y0000910D01*
X0005880Y0003520D02*
Y0003310D01*
X0010200Y0006049D02*
Y0004520D01*
X0007811D02*
X0004840D01*
X0009840Y0005831D02*
Y0004520D01*
X0012900Y0002687D02*
Y0000910D01*
X0011760Y0001680D02*
X0008883D01*
X0010380Y0006408D02*
Y0004520D01*
X0010740Y0007350D02*
Y0004520D01*
X0009840Y0003520D02*
Y0000910D01*
X0014957Y0003300D02*
X0013920D01*
X0015808Y0002580D02*
X0013730D01*
X0008454Y0004560D02*
X0008325D01*
X0011751Y0002760D02*
X0009452D01*
X0008220Y0004896D02*
Y0004590D01*
X0013080Y0007350D02*
Y0005722D01*
X0015153Y0002940D02*
X0013958D01*
X0015014Y0003120D02*
X0013967D01*
X0015814Y0002760D02*
X0013889D01*
X0010920Y0006408D02*
Y0004520D01*
X0011100Y0006049D02*
Y0004520D01*
X0005340Y0004725D02*
Y0004520D01*
X0012941Y0003480D02*
X0012750D01*
X0017108Y0000910D02*
X0012826D01*
X0012900Y0003983D02*
Y0003433D01*
X0011760Y0001500D02*
X0008826D01*
X0005700Y0006677D02*
Y0004520D01*
X0004862Y0005820D02*
X0004840D01*
X0016510Y0001860D02*
X0012760D01*
X0010380Y0007350D02*
Y0006692D01*
X0012900Y0007350D02*
Y0005490D01*
X0009120Y0003520D02*
Y0003134D01*
X0004440Y0003534D02*
Y0003310D01*
X0011005Y0006180D02*
X0010295D01*
X0011328Y0004560D02*
X0009146D01*
X0008040Y0007350D02*
Y0004596D01*
X0016860Y0007350D02*
Y0007302D01*
X0013620Y0007350D02*
Y0005825D01*
X0010994Y0006900D02*
X0010306D01*
X0011128Y0007080D02*
X0010172D01*
X0016538Y0006360D02*
X0012369D01*
X0011694Y0000910D02*
X0003233D01*
X0011820Y0007350D02*
Y0007274D01*
X0003840Y0004740D02*
X0003537D01*
X0015014Y0003660D02*
X0012750D01*
X0011698Y0001320D02*
X0008687D01*
X0011679Y0000960D02*
X0003233D01*
X0014895Y0007350D02*
X0006207D01*
X0008730Y0003310D02*
X0003271D01*
X0016500Y0001478D02*
Y0000910D01*
X0009480Y0007350D02*
Y0007274D01*
X0004033Y0003840D02*
X0003366D01*
X0003840Y0004560D02*
X0003375D01*
X0016680Y0001140D02*
Y0000910D01*
X0003375Y0004579D02*
Y0004275D01*
X0008400Y0003475D02*
Y0003310D01*
X0015805Y0006180D02*
X0012295D01*
X0003840Y0004920D02*
X0003717D01*
X0016860Y0000997D02*
Y0000910D01*
X0004840Y0004688D02*
Y0004520D01*
X0013620Y0002514D02*
Y0000910D01*
X0016500Y0006478D02*
Y0006325D01*
X0011661Y0001140D02*
X0003233D01*
X0016680Y0007350D02*
Y0007160D01*
X0016500Y0007350D02*
Y0006822D01*
X0016140Y0007350D02*
Y0006325D01*
X0008931Y0006360D02*
X0005181D01*
X0009508Y0005820D02*
X0005237D01*
X0012423Y0004920D02*
X0009386D01*
X0005340Y0003520D02*
Y0003310D01*
X0004080Y0003793D02*
Y0003310D01*
X0014865Y0006720D02*
X0012374D01*
X0003360Y0004275D02*
Y0004091D01*
X0016554Y0006325D02*
X0015805D01*
X0007500Y0007350D02*
Y0004520D01*
X0008940Y0006329D02*
Y0005633D01*
X0001070Y0007800D02*
Y0000460D01*
X0018640D01*
Y0007800D01*
X0001080D01*
G01X0016554Y0010075D02*
G03X0016480Y0009750I0000676J0000325D01*
G01X0012826Y0009010D02*
G03X0012860Y0009210I0000566J0000200D01*
G01X0011921Y0012620D02*
G03X0011590Y0012720I0000331J0000500D01*
G01X0011660Y0009210D02*
G03X0011694Y0009010I0000600J0000000D01*
G01X0011590Y0012720D02*
G03X0011258Y0012620I0000000J0000600D01*
Y0011620D02*
G03X0011590Y0011520I0000332J0000500D01*
G01X0008890Y0009870D02*
G03X0008852Y0010080I0000600J0000000D01*
G03X0008880Y0010079I0000028J0000600D01*
G01X0009083Y0011263D02*
G03X0008730Y0011409I0000353J0000353D01*
G01X0004840Y0014090D02*
G03X0005225Y0014700I0000290J0000610D01*
G01X0014950Y0011490D02*
G03X0015550Y0010890I0000600J0000000D01*
G01X0003375Y0012679D02*
G03X0003393Y0012696I0000335J0000371D01*
G01X0007782Y0009550D02*
G03X0008290Y0009270I0000508J0000320D01*
G01X0014050Y0013350D02*
G03X0013450Y0013950I0000600J0000000D01*
G01X0013582Y0012764D02*
G03X0014051Y0013350I0000132J0000586D01*
G01X0013450Y0013950D02*
G03X0012859Y0013456I0000000J0000600D01*
G01X0012826Y0009010D02*
G03X0012860Y0009210I0000566J0000200D01*
G01X0011921Y0012620D02*
G03X0011590Y0012720I0000331J0000500D01*
G01X0011258Y0011620D02*
G03X0011590Y0011520I0000332J0000500D01*
G01X0011660Y0009210D02*
G03X0011694Y0009010I0000600J0000000D01*
G01X0012860Y0009210D02*
G03X0012760Y0009541I0000600J0000000D01*
G01X0014950Y0011490D02*
G03X0015550Y0010890I0000600J0000000D01*
G01X0016961Y0015450D02*
G03X0016480Y0014750I0000269J0000700D01*
G01X0008290Y0009270D02*
G03X0008890Y0009870I0000000J0000600D01*
G01X0008880Y0010080D02*
G03X0009480Y0010680I0000000J0000600D01*
G01X0008906Y0014650D02*
G03X0009650Y0013906I0000744J0000000D01*
G03X0010394Y0014650I0000000J0000744D01*
G03X0009650Y0015394I0000744J0000000D01*
G03X0008906Y0014650I0000000J0000744D01*
G01X0010906D02*
G03X0011650Y0013906I0000744J0000000D01*
G03X0012394Y0014650I0000000J0000744D01*
G03X0011650Y0015394I0000744J0000000D01*
G03X0010906Y0014650I0000000J0000744D01*
G01X0016480Y0009750D02*
G03X0017108Y0009010I0000750J0000000D01*
G01X0014895Y0015450D02*
G03X0014789Y0015110I0000495J0000340D01*
G01X0015805Y0013186D02*
G03X0015696Y0013103I0000245J0000436D01*
G01X0015805Y0010750D02*
G03X0016480Y0010075I0000675J0000000D01*
G01X0015550Y0010890D02*
G03X0015840Y0010965I0000000J0000600D01*
G01X0015550Y0010890D02*
G03X0015840Y0010965I0000000J0000600D01*
G01X0016480Y0014750D02*
G03X0016554Y0014425I0000750J0000000D01*
G01X0011590Y0011520D02*
G03X0011750Y0011542I0000000J0000600D01*
G01X0004206Y0011766D02*
G03X0004560Y0011619I0000354J0000354D01*
G01X0008110Y0012700D02*
G03X0007811Y0012620I0000000J0000600D01*
G01X0003840Y0012340D02*
G03X0003986Y0011986I0000500J0000000D01*
G01X0003375Y0012050D02*
G03X0003291Y0012375I0000675J0000000D01*
G01X0003375Y0012679D02*
G03X0003393Y0012696I0000335J0000371D01*
G01X0015840Y0010965D02*
G03X0015805Y0010750I0000640J0000215D01*
G01X0009480Y0010680D02*
G03X0009130Y0011225I0000600J0000000D01*
G03X0009089Y0011258I0000330J0000375D01*
G01X0003271Y0011410D02*
G03X0003153Y0011550I0000571J0000360D01*
G01X0012760Y0010890D02*
G03X0012750Y0010989I0000500J0000000D01*
G01X0011590Y0011520D02*
G03X0011750Y0011542I0000000J0000600D01*
G01X0012860Y0009210D02*
G03X0012760Y0009541I0000600J0000000D01*
G01X0011760D02*
G03X0011660Y0009210I0000500J0000331D01*
G01X0011750Y0010900D02*
G03X0011760Y0010800I0000500J0000000D01*
Y0009541D02*
G03X0011660Y0009210I0000500J0000331D01*
G01X0015196Y0012603D02*
G03X0015050Y0012250I0000354J0000353D01*
G01X0009081Y0012620D02*
G03X0009400Y0013150I0000281J0000530D01*
G01X0007750Y0011620D02*
G03X0008110Y0011500I0000360J0000480D01*
G03X0008470Y0011620I0000000J0000600D01*
G01X0015805Y0013186D02*
G03X0015696Y0013103I0000245J0000436D01*
G01X0015196Y0012603D02*
G03X0015050Y0012250I0000354J0000353D01*
Y0011821D02*
G03X0014950Y0011490I0000500J0000331D01*
G01X0015050Y0011821D02*
G03X0014950Y0011490I0000500J0000331D01*
G01X0003840Y0012340D02*
G03X0003986Y0011986I0000500J0000000D01*
G01X0009083Y0011263D02*
G03X0008730Y0011409I0000353J0000353D01*
G01X0003153Y0011550D02*
G03X0003375Y0012050I0000453J0000500D01*
G01X0014790Y0015110D02*
G03X0015390Y0014510I0000600J0000000D01*
G03X0015990Y0015110I0000000J0000600D01*
G03X0015884Y0015450I0000600J0000000D01*
G01X0014790Y0015110D02*
G03X0015390Y0014510I0000600J0000000D01*
G03X0015990Y0015110I0000000J0000600D01*
G01X0014895Y0015450D02*
G03X0014789Y0015110I0000495J0000340D01*
G01X0015990D02*
G03X0015884Y0015450I0000600J0000000D01*
G01X0012770Y0011160D02*
G03X0013370Y0010560I0000600J0000000D01*
G03X0013970Y0011160I0000000J0000600D01*
G03X0013370Y0011760I0000600J0000000D01*
G03X0012770Y0011160I0000000J0000600D01*
G01X0008409Y0012620D02*
G03X0008110Y0012700I0000299J0000520D01*
G01X0008200Y0013150D02*
G03X0008519Y0012620I0000600J0000000D01*
G01X0009400Y0013150D02*
G03X0008800Y0013750I0000600J0000000D01*
G03X0008200Y0013150I0000000J0000600D01*
G01X0005050Y0012750D02*
G03X0005650Y0013350I0000000J0000600D01*
G03X0005050Y0013950I0000600J0000000D01*
G01X0004840Y0012788D02*
G03X0005050Y0012750I0000210J0000562D01*
G01X0011590Y0012720D02*
G03X0011258Y0012620I0000000J0000600D01*
G01X0005050Y0013950D02*
G03X0004840Y0013912I0000000J0000600D01*
G01X0016554Y0001975D02*
G03X0016480Y0001650I0000676J0000325D01*
G01X0011590Y0003420D02*
G03X0011750Y0003442I0000000J0000600D01*
G01X0013450Y0005850D02*
G03X0012859Y0005356I0000000J0000600D01*
G01X0011921Y0004520D02*
G03X0011590Y0004620I0000331J0000500D01*
G01X0011921Y0004520D02*
G03X0011590Y0004620I0000331J0000500D01*
G03X0011258Y0004520I0000000J0000600D01*
Y0003520D02*
G03X0011590Y0003420I0000332J0000500D01*
G01X0003271Y0003310D02*
G03X0003153Y0003450I0000571J0000360D01*
G01X0015805Y0005086D02*
G03X0015696Y0005003I0000245J0000436D01*
G01X0015196Y0004503D02*
G03X0015050Y0004150I0000354J0000353D01*
Y0003721D02*
G03X0014950Y0003390I0000500J0000331D01*
G03X0015550Y0002790I0000600J0000000D01*
G01X0016961Y0007350D02*
G03X0016480Y0006650I0000269J0000700D01*
G01X0008290Y0001170D02*
G03X0008890Y0001770I0000000J0000600D01*
G01X0007782Y0001450D02*
G03X0008290Y0001170I0000508J0000320D01*
G01X0015840Y0002865D02*
G03X0015805Y0002650I0000640J0000215D01*
G01X0011258Y0003520D02*
G03X0011590Y0003420I0000332J0000500D01*
G01X0011760Y0001441D02*
G03X0011660Y0001110I0000500J0000331D01*
G01X0004840Y0005990D02*
G03X0005225Y0006600I0000290J0000610D01*
G01X0015196Y0004503D02*
G03X0015050Y0004150I0000354J0000353D01*
G01X0014050Y0005250D02*
G03X0013450Y0005850I0000600J0000000D01*
G01X0013582Y0004664D02*
G03X0014051Y0005250I0000132J0000586D01*
G01X0013450Y0005850D02*
G03X0012859Y0005356I0000000J0000600D01*
G01X0014050Y0005250D02*
G03X0013450Y0005850I0000600J0000000D01*
G01X0013582Y0004664D02*
G03X0014051Y0005250I0000132J0000586D01*
G01X0008906Y0006550D02*
G03X0009650Y0005806I0000744J0000000D01*
G03X0010394Y0006550I0000000J0000744D01*
G03X0009650Y0007294I0000744J0000000D01*
G03X0008906Y0006550I0000000J0000744D01*
G01X0010906D02*
G03X0011650Y0005806I0000744J0000000D01*
G03X0012394Y0006550I0000000J0000744D01*
G03X0011650Y0007294I0000744J0000000D01*
G03X0010906Y0006550I0000000J0000744D01*
G01X0016480Y0001650D02*
G03X0017108Y0000910I0000750J0000000D01*
G01X0014895Y0007350D02*
G03X0014789Y0007010I0000495J0000340D01*
G01X0015805Y0005086D02*
G03X0015696Y0005003I0000245J0000436D01*
G01X0015805Y0002650D02*
G03X0016480Y0001975I0000675J0000000D01*
G01X0015550Y0002790D02*
G03X0015840Y0002865I0000000J0000600D01*
G01X0016480Y0006650D02*
G03X0016554Y0006325I0000750J0000000D01*
G01X0009400Y0005050D02*
G03X0008800Y0005650I0000600J0000000D01*
G03X0008200Y0005050I0000000J0000600D01*
G01X0005050Y0004650D02*
G03X0005650Y0005250I0000000J0000600D01*
G03X0005050Y0005850I0000600J0000000D01*
G01X0004840Y0004688D02*
G03X0005050Y0004650I0000210J0000562D01*
Y0005850D02*
G03X0004840Y0005812I0000000J0000600D01*
G01X0003375Y0004579D02*
G03X0003393Y0004596I0000335J0000371D01*
G01X0003840Y0004240D02*
G03X0003986Y0003886I0000500J0000000D01*
G01X0011590Y0003420D02*
G03X0011750Y0003442I0000000J0000600D01*
G01X0004206Y0003666D02*
G03X0004560Y0003519I0000354J0000354D01*
G01X0003375Y0003950D02*
G03X0003291Y0004275I0000675J0000000D01*
G01X0003840Y0004240D02*
G03X0003986Y0003886I0000500J0000000D01*
G01X0012760Y0002790D02*
G03X0012750Y0002889I0000500J0000000D01*
G01X0012826Y0000910D02*
G03X0012860Y0001110I0000566J0000200D01*
G01X0011660D02*
G03X0011694Y0000910I0000600J0000000D01*
G01X0012860Y0001110D02*
G03X0012760Y0001441I0000600J0000000D01*
G01X0011750Y0002800D02*
G03X0011760Y0002700I0000500J0000000D01*
G01X0009083Y0003163D02*
G03X0008730Y0003309I0000353J0000353D01*
G01X0008110Y0004600D02*
G03X0007811Y0004520I0000000J0000600D01*
G01X0007750Y0003520D02*
G03X0008110Y0003400I0000360J0000480D01*
G03X0008470Y0003520I0000000J0000600D01*
G01X0008409Y0004520D02*
G03X0008110Y0004600I0000299J0000520D01*
G01X0008890Y0001770D02*
G03X0008852Y0001980I0000600J0000000D01*
G01X0008880D02*
G03X0009480Y0002580I0000000J0000600D01*
G01X0009130Y0003125D02*
G03X0009089Y0003158I0000330J0000375D01*
G01X0008852Y0001980D02*
G03X0008880Y0001979I0000028J0000600D01*
G01X0009081Y0004520D02*
G03X0009400Y0005050I0000281J0000530D01*
G01X0009083Y0003163D02*
G03X0008730Y0003309I0000353J0000353D01*
G01X0011590Y0004620D02*
G03X0011258Y0004520I0000000J0000600D01*
G01X0003153Y0003450D02*
G03X0003375Y0003950I0000453J0000500D01*
G01X0009480Y0002580D02*
G03X0009130Y0003125I0000600J0000000D01*
G01X0003375Y0004579D02*
G03X0003393Y0004596I0000335J0000371D01*
G01X0014790Y0007010D02*
G03X0015390Y0006410I0000600J0000000D01*
G03X0015990Y0007010I0000000J0000600D01*
G03X0015884Y0007350I0000600J0000000D01*
G01X0012770Y0003060D02*
G03X0013370Y0002460I0000600J0000000D01*
G03X0013970Y0003060I0000000J0000600D01*
G03X0013370Y0003660I0000600J0000000D01*
G03X0012770Y0003060I0000000J0000600D01*
G01X0008200Y0005050D02*
G03X0008519Y0004520I0000600J0000000D01*
G54D51*
G01X0013700Y0033852D02*
X0013950Y0033727D01*
X0013700Y0034061D02*
Y0033811D01*
X0013617Y0033727D01*
X0013534D01*
X0013450Y0033811D01*
Y0034061D01*
X0013950D01*
X0013700Y0034386D02*
Y0034636D01*
X0013950Y0034302D02*
Y0034636D01*
X0013450D01*
Y0034302D01*
X0013950Y0035044D02*
X0013450D01*
Y0034877D02*
Y0035211D01*
X0013700Y0035536D02*
Y0035786D01*
X0013950Y0035452D02*
Y0035786D01*
X0013450D01*
Y0035452D01*
X0013950Y0036027D02*
X0013450D01*
X0013534Y0036111D01*
X0013700Y0036194D01*
X0013534Y0036277D01*
X0013450Y0036361D01*
X0013950D01*
Y0037365D02*
Y0037656D01*
X0013450D01*
X0013700Y0037981D02*
Y0038231D01*
X0013950Y0037898D02*
Y0038231D01*
X0013450D01*
Y0037898D01*
Y0038473D02*
X0013617D01*
X0013950Y0038640D01*
X0013617Y0038806D01*
X0013450D01*
X0013700Y0039131D02*
Y0039381D01*
X0013950Y0039048D02*
Y0039381D01*
X0013450D01*
Y0039048D01*
X0013950Y0039623D02*
Y0039915D01*
X0013450D01*
X0013700Y0041002D02*
Y0041252D01*
X0013950Y0040919D02*
Y0041252D01*
X0013450D01*
Y0040919D01*
X0013534Y0041494D02*
X0013450Y0041536D01*
Y0041786D01*
X0013534Y0041827D01*
X0013617D01*
X0013700Y0041786D01*
Y0041536D01*
X0013784Y0041494D01*
X0013867D01*
X0013950Y0041536D01*
Y0041786D01*
X0013867Y0041827D01*
X0013950Y0042069D02*
Y0042236D01*
Y0042152D02*
X0013450D01*
Y0042069D02*
Y0042236D01*
X0013950Y0042852D02*
X0013867Y0042894D01*
X0013534D01*
X0013450Y0042852D01*
Y0042602D01*
X0013534Y0042561D01*
X0013867D01*
X0013950Y0042602D01*
Y0042852D01*
X0013450Y0043136D02*
X0013950D01*
X0013867Y0043219D01*
X0013534Y0043386D01*
X0013450Y0043469D01*
X0013950D01*
X0015849Y0014650D02*
X0015390Y0015110D01*
X0014930Y0014650D02*
X0015390Y0015110D01*
X0015849Y0014650D02*
X0015390Y0015110D01*
X0014930Y0014650D02*
X0015390Y0015110D01*
X0012910Y0011619D02*
X0013370Y0011160D01*
X0013829Y0010700D02*
X0013370Y0011160D01*
X0012910Y0010700D02*
X0013370Y0011160D01*
X0013829Y0011619D02*
X0013370Y0011160D01*
X0008340Y0013609D02*
X0008800Y0013150D01*
X0009259Y0012690D02*
X0008800Y0013150D01*
X0009259Y0013609D02*
X0008800Y0013150D01*
X0005509Y0012890D02*
X0005050Y0013350D01*
X0005509Y0013809D02*
X0005050Y0013350D01*
X0015755Y0010750D02*
X0016580D01*
X0003425Y0012050D02*
X0002550D01*
X0011459Y0025250D02*
Y0026294D01*
X0029584Y0027294D02*
X0028459D01*
X0009459Y0026344D02*
Y0027294D01*
X0028459Y0044369D02*
Y0043294D01*
Y0042219D02*
Y0043294D01*
X0014721Y0023032D02*
X0015459Y0022294D01*
X0014721Y0031032D02*
X0015459Y0030294D01*
X0014721Y0029556D02*
X0015459Y0030294D01*
X0018721Y0027032D02*
X0019459Y0026294D01*
X0020196Y0025556D02*
X0019459Y0026294D01*
X0018721Y0025556D02*
X0019459Y0026294D01*
X0020196Y0027032D02*
X0019459Y0026294D01*
X0007271Y0023982D02*
X0008009Y0023244D01*
X0008746Y0022506D02*
X0008009Y0023244D01*
X0007271Y0022506D02*
X0008009Y0023244D01*
X0008746Y0023982D02*
X0008009Y0023244D01*
X0029584Y0025794D02*
X0028459D01*
X0011459Y0027338D02*
Y0026294D01*
X0029584Y0022294D02*
X0028459D01*
X0020059Y0051394D02*
X0021109D01*
X0017459Y0078419D02*
Y0077294D01*
Y0076169D02*
Y0077294D01*
X0021059Y0034244D02*
Y0036394D01*
X0018914Y0059335D02*
Y0058235D01*
X0019939D02*
X0018914D01*
X0003914Y0057135D02*
Y0058235D01*
X0027484Y0052994D02*
X0028609D01*
X0029734D02*
X0028609D01*
X0029145Y0032107D02*
X0029959Y0031294D01*
X0029145Y0030481D02*
X0029959Y0031294D01*
X0018309Y0054844D02*
Y0053894D01*
X0020259D02*
X0019309D01*
X0009459Y0028244D02*
Y0027294D01*
X0019309Y0054844D02*
Y0053894D01*
X0020787Y0063911D02*
X0021459Y0063239D01*
X0014716Y0061536D02*
X0015459Y0060794D01*
X0014716Y0060051D02*
X0015459Y0060794D01*
X0012130Y0063911D02*
X0011459Y0063239D01*
X0010787Y0063911D02*
X0011459Y0063239D01*
X0015849Y0006550D02*
X0015390Y0007010D01*
X0014930Y0006550D02*
X0015390Y0007010D01*
X0012910Y0003519D02*
X0013370Y0003060D01*
X0013829Y0002600D02*
X0013370Y0003060D01*
X0012910Y0002600D02*
X0013370Y0003060D01*
X0013829Y0003519D02*
X0013370Y0003060D01*
X0008340Y0005509D02*
X0008800Y0005050D01*
X0009259Y0004590D02*
X0008800Y0005050D01*
X0009259Y0005509D02*
X0008800Y0005050D01*
X0005509Y0004790D02*
X0005050Y0005250D01*
X0005509Y0005709D02*
X0005050Y0005250D01*
X0015755Y0002650D02*
X0016580D01*
X0003425Y0003950D02*
X0002550D01*
G54D52*
G01X0012034Y0033165D02*
X0011687D01*
X0012034Y0040410D02*
X0008184D01*
X0012034Y0042930D02*
X0011547D01*
X0006234Y0043560D02*
X0006196D01*
X0006234Y0042930D02*
X0005642D01*
X0019833Y0070965D02*
X0018271D01*
X0020864Y0033165D02*
X0020284D01*
X0018684Y0025801D02*
Y0024144D01*
X0021723Y0069075D02*
X0020161D01*
X0019386Y0018045D02*
X0018893D01*
X0025170Y0017600D02*
Y0017469D01*
X0004334Y0047970D02*
X0003784D01*
X0002534D02*
X0001234D01*
X0028909Y0046080D02*
X0028811D01*
X0031784Y0047340D02*
X0030209D01*
X0028909Y0045450D02*
X0028694D01*
X0031784Y0056790D02*
X0029511D01*
X0004813Y0060885D02*
X0003004D01*
X0004851Y0054270D02*
X0003784D01*
X0002906Y0059625D02*
X0001744D01*
X0017925Y0059869D02*
Y0059210D01*
X0017484Y0059869D02*
Y0059101D01*
X0004380Y0061512D02*
Y0059969D01*
X0019814Y0058310D02*
Y0058160D01*
X0020221Y0053640D02*
X0020134D01*
X0031784Y0056160D02*
X0029576D01*
X0020202Y0057569D02*
X0020184D01*
Y0058680D02*
X0019734D01*
X0019518Y0071280D02*
X0017956D01*
X0021634Y0059219D02*
X0020184D01*
X0029283Y0061515D02*
X0028538D01*
X0002534Y0052380D02*
X0001234D01*
X0014460Y0064159D02*
Y0059087D01*
X0031155Y0056925D02*
Y0047202D01*
X0004334Y0053010D02*
X0003784D01*
X0011625Y0061469D02*
Y0059163D01*
X0015634Y0065610D02*
X0014934D01*
X0031785Y0057024D02*
Y0047096D01*
X0010680Y0061469D02*
Y0059179D01*
X0012885Y0070766D02*
Y0059210D01*
X0011940Y0061469D02*
Y0059210D01*
X0013200Y0071081D02*
Y0059164D01*
X0009105Y0066986D02*
Y0059190D01*
X0013515Y0071396D02*
Y0059117D01*
X0004929Y0062775D02*
X0004894D01*
X0007845Y0065726D02*
Y0059208D01*
X0015384Y0059625D02*
X0007211D01*
X0007530Y0065411D02*
Y0059144D01*
X0003120Y0046749D02*
Y0041891D01*
X0009050Y0043052D02*
X0008184Y0042185D01*
X0013830Y0071711D02*
Y0071546D01*
X0002805Y0045173D02*
Y0042072D01*
X0004695Y0060981D02*
Y0059969D01*
X0002490Y0060371D02*
Y0059303D01*
X0004294Y0022669D02*
Y0019719D01*
X0006744D02*
X0004294D01*
X0006744Y0022669D02*
Y0019719D01*
Y0022669D02*
X0004294D01*
Y0032509D02*
Y0029559D01*
X0012034Y0036000D02*
X0008184D01*
X0010392Y0034740D02*
X0008184D01*
X0006234Y0033165D02*
X0005388D01*
X0004422Y0028440D02*
X0001234D01*
X0010122Y0033795D02*
X0008184D01*
X0004256Y0027180D02*
X0001234D01*
X0009739Y0030330D02*
X0008184D01*
X0004695Y0033002D02*
Y0032509D01*
X0004102Y0024660D02*
X0001234D01*
X0004090Y0026550D02*
X0001234D01*
X0005955Y0019719D02*
Y0017469D01*
Y0023059D02*
Y0022669D01*
X0004084Y0025605D02*
X0001234D01*
X0004294Y0030645D02*
X0001234D01*
X0011486Y0032220D02*
X0008184D01*
X0012034Y0035685D02*
X0008184D01*
X0010680Y0033095D02*
Y0031414D01*
X0014541Y0030330D02*
X0013065D01*
X0006234Y0043737D02*
Y0032509D01*
X0015090Y0029452D02*
Y0028609D01*
X0004108Y0026865D02*
X0001234D01*
X0012034Y0041985D02*
X0008184D01*
X0010556Y0033165D02*
X0008184D01*
X0009725Y0028440D02*
X0008184D01*
X0006954Y0023059D02*
X0005204D01*
X0006954Y0024809D02*
Y0023059D01*
X0006234Y0029559D02*
X0004294D01*
X0007220Y0023715D02*
X0006954D01*
X0007215Y0022781D02*
Y0017469D01*
X0009420Y0067301D02*
Y0059062D01*
X0006829Y0025489D02*
X0006820D01*
X0031784Y0024660D02*
X0029448D01*
X0005010Y0033012D02*
Y0032509D01*
X0010226Y0030960D02*
X0008184D01*
X0030208Y0017469D02*
X0012438D01*
X0010995Y0022846D02*
Y0022019D01*
X0004207Y0024030D02*
X0001234D01*
X0006234Y0033480D02*
X0005694D01*
X0005640Y0023059D02*
Y0022669D01*
X0001230Y0044672D02*
Y0019138D01*
X0002805Y0035811D02*
Y0019020D01*
X0027690Y0053544D02*
Y0053357D01*
X0031784Y0052695D02*
X0029554D01*
X0027619Y0055530D02*
X0027384D01*
X0022020Y0017600D02*
Y0017469D01*
X0031784Y0053325D02*
X0029541D01*
X0031784Y0053640D02*
X0029609D01*
X0027609D02*
X0027384D01*
X0014921Y0028440D02*
X0012975D01*
X0027609Y0054270D02*
X0027384D01*
X0031784Y0049545D02*
X0030209D01*
X0027690Y0051631D02*
Y0051499D01*
X0031784Y0050490D02*
X0030209D01*
X0010050Y0043685D02*
Y0030784D01*
X0001860Y0040276D02*
Y0037607D01*
X0009725Y0025290D02*
X0006912D01*
X0011725Y0028125D02*
X0010975D01*
X0009725Y0026513D02*
Y0025008D01*
X0021634Y0059625D02*
X0017484D01*
X0028635Y0042362D02*
Y0032304D01*
X0018555Y0056326D02*
Y0054719D01*
X0019815Y0067654D02*
Y0054719D01*
X0023034Y0024022D02*
Y0023906D01*
X0020134Y0054719D02*
Y0053069D01*
X0020634Y0061515D02*
X0018384D01*
X0020634Y0063119D02*
Y0061469D01*
X0021240Y0064035D02*
X0018334D01*
X0021634Y0059940D02*
X0018384D01*
X0004351Y0053640D02*
X0003784D01*
X0018384Y0061719D02*
Y0059869D01*
X0014775Y0060171D02*
Y0059199D01*
X0010634Y0063119D02*
Y0061469D01*
X0012284D02*
X0010634D01*
X0012284Y0063119D02*
Y0061469D01*
X0015634Y0066274D02*
Y0064885D01*
X0005175Y0056160D02*
X0003784D01*
X0002534Y0053640D02*
X0001234D01*
X0016819Y0070650D02*
X0014934D01*
X0029610Y0030330D02*
X0028807D01*
X0020337Y0048915D02*
X0019295D01*
X0012034Y0040095D02*
X0008184D01*
X0007734Y0019935D02*
X0006744D01*
X0024225Y0017600D02*
Y0017469D01*
X0004294Y0021195D02*
X0001234D01*
X0003750Y0061631D02*
Y0059969D01*
X0001234Y0044670D02*
Y0019141D01*
X0031784Y0019305D02*
X0031429D01*
X0029459Y0030144D02*
Y0029944D01*
X0004334Y0051120D02*
X0003784D01*
X0003435Y0061316D02*
Y0059964D01*
X0002844Y0047025D02*
X0002374D01*
X0031784Y0028440D02*
X0031288D01*
X0031784Y0022455D02*
X0029459D01*
X0031784Y0028125D02*
X0030973D01*
X0028019Y0032220D02*
X0027398D01*
X0026484Y0032319D02*
Y0032202D01*
X0029997Y0017730D02*
X0026990D01*
X0024540Y0017600D02*
Y0017469D01*
X0021390Y0025378D02*
Y0024019D01*
X0023595Y0017600D02*
Y0017469D01*
X0020184Y0058365D02*
X0019812D01*
X0018870Y0056348D02*
Y0054719D01*
X0005811Y0055215D02*
X0003784D01*
X0017925Y0017518D02*
Y0017469D01*
X0009735Y0022370D02*
Y0022019D01*
X0020551Y0026235D02*
X0020375D01*
X0020463Y0070335D02*
X0018901D01*
X0022020Y0068778D02*
Y0067216D01*
X0012284Y0063119D02*
X0012275D01*
X0012255Y0024105D02*
Y0022019D01*
X0001557Y0037260D02*
X0001234D01*
X0011625Y0033127D02*
Y0032359D01*
X0018870Y0029669D02*
Y0026999D01*
X0009725Y0025920D02*
X0007518D01*
X0015720Y0017500D02*
Y0017469D01*
X0009284Y0028119D02*
Y0028100D01*
X0007344Y0019305D02*
X0002429D01*
X0012034Y0042300D02*
X0008298D01*
X0006954Y0024809D02*
X0006927D01*
X0008061Y0020880D02*
X0006744D01*
X0004157Y0025920D02*
X0001234D01*
X0006270Y0019719D02*
Y0017469D01*
X0005839Y0046080D02*
X0005679D01*
X0005640Y0029559D02*
Y0029051D01*
X0004294Y0030015D02*
X0001234D01*
X0005584Y0046335D02*
X0006234Y0045685D01*
X0001818Y0037575D02*
X0001234D01*
X0004294Y0021825D02*
X0001234D01*
X0029459Y0021444D02*
X0029445D01*
X0015405Y0078619D02*
Y0078294D01*
X0003750Y0045983D02*
Y0017469D01*
X0017784Y0078525D02*
X0015134D01*
X0015539Y0067185D02*
X0014934D01*
X0004334Y0053494D02*
Y0047418D01*
X0019969Y0067500D02*
X0016528D01*
X0015384Y0059872D02*
Y0059078D01*
X0020599Y0066870D02*
X0016980D01*
X0029536Y0042347D02*
X0030309Y0041575D01*
X0018258Y0072540D02*
X0017309D01*
X0014584Y0064035D02*
X0011677D01*
X0021634Y0060885D02*
X0018384D01*
X0021634Y0065295D02*
X0018423D01*
X0020788Y0063720D02*
X0018334D01*
X0010642Y0063119D02*
X0010634D01*
X0015634Y0062145D02*
X0012284D01*
X0026379Y0061515D02*
X0026184D01*
X0004851Y0056475D02*
X0003784D01*
X0002534Y0057105D02*
X0002404D01*
X0001860Y0059741D02*
Y0059538D01*
X0022335Y0017600D02*
Y0017469D01*
X0004334Y0052065D02*
X0003784D01*
X0002534Y0056160D02*
X0001234D01*
X0002534Y0054585D02*
X0001234D01*
X0004301Y0057105D02*
X0003784D01*
X0002534Y0055845D02*
X0001234D01*
X0002534Y0055215D02*
X0001234D01*
X0002534Y0053955D02*
X0001234D01*
X0002534Y0053010D02*
X0001234D01*
X0002534Y0052695D02*
X0001234D01*
X0004334Y0048285D02*
X0003784D01*
X0002534Y0052065D02*
X0001234D01*
X0002534Y0051435D02*
X0001234D01*
X0002534Y0051120D02*
X0001234D01*
X0002534Y0050490D02*
X0001234D01*
X0002534Y0050175D02*
X0001234D01*
X0004334Y0048600D02*
X0003784D01*
X0027060Y0017791D02*
Y0017469D01*
X0003784Y0057260D02*
Y0047853D01*
X0004400Y0062145D02*
X0004264D01*
X0002587Y0047340D02*
X0001234D01*
X0002534Y0056790D02*
X0001234D01*
X0005955Y0043152D02*
Y0032509D01*
X0001604Y0041670D02*
X0001234D01*
X0004380Y0043270D02*
Y0034944D01*
X0001437Y0041040D02*
X0001234D01*
X0004245Y0044190D02*
X0001234D01*
X0010696Y0042930D02*
X0008928D01*
X0004237Y0043560D02*
X0001234D01*
X0001860Y0035945D02*
Y0019404D01*
X0004851Y0044820D02*
X0002463D01*
X0002534Y0047655D02*
X0001234D01*
X0004418Y0044505D02*
X0001234D01*
X0001932Y0041985D02*
X0001234D01*
X0006234Y0036630D02*
X0003475D01*
X0002295Y0040095D02*
X0001234D01*
X0006234Y0039780D02*
X0001234D01*
X0006234Y0039465D02*
X0001234D01*
X0006234Y0039150D02*
X0001234D01*
X0006234Y0042300D02*
X0001234D01*
X0003120Y0040322D02*
Y0037560D01*
X0001708Y0040410D02*
X0001234D01*
X0003120Y0035991D02*
Y0017469D01*
X0006234Y0038520D02*
X0001234D01*
X0021376Y0033795D02*
X0020284D01*
X0006234Y0037890D02*
X0001234D01*
X0006234Y0040095D02*
X0002625D01*
X0004294Y0020250D02*
X0001234D01*
X0006234Y0035685D02*
X0001234D01*
X0004380Y0019719D02*
Y0017469D01*
X0006234Y0035055D02*
X0001234D01*
X0004093Y0034740D02*
X0001234D01*
X0021998Y0034417D02*
X0021027Y0033446D01*
X0004086Y0027810D02*
X0001234D01*
X0006234Y0032509D02*
X0004294D01*
X0004380Y0029559D02*
Y0028405D01*
X0006234Y0032535D02*
X0001234D01*
X0004294Y0031275D02*
X0001234D01*
X0004294Y0030960D02*
X0001234D01*
X0004129Y0025290D02*
X0001234D01*
X0006234Y0032850D02*
X0001234D01*
X0006234Y0029385D02*
X0001234D01*
X0010100Y0034110D02*
X0008184D01*
X0009284Y0026469D02*
X0008059D01*
X0003435Y0046234D02*
Y0041424D01*
X0004121Y0027495D02*
X0001234D01*
X0006900Y0023059D02*
Y0017469D01*
X0005204Y0023639D02*
Y0023059D01*
X0004238Y0024975D02*
X0001234D01*
X0004094Y0024345D02*
X0001234D01*
X0004532Y0023715D02*
X0001234D01*
X0005640Y0019719D02*
Y0017469D01*
X0007530Y0017700D02*
Y0017469D01*
X0005010Y0019719D02*
Y0017469D01*
X0007222Y0022770D02*
X0001234D01*
X0004294Y0022455D02*
X0001234D01*
X0004294Y0022140D02*
X0001234D01*
X0004380Y0023823D02*
Y0022669D01*
X0007560Y0019620D02*
X0001234D01*
X0009017Y0021836D02*
X0007918Y0020738D01*
X0005325Y0063206D02*
Y0062901D01*
X0004294Y0020880D02*
X0001234D01*
X0003120Y0061001D02*
Y0059833D01*
X0004334Y0051435D02*
X0003784D01*
X0002534Y0055530D02*
X0001234D01*
X0004551Y0045135D02*
X0002779D01*
X0004334Y0048915D02*
X0003784D01*
X0005010Y0045021D02*
Y0044866D01*
X0004065Y0057260D02*
Y0047571D01*
X0002534Y0054270D02*
X0001234D01*
X0011725Y0030015D02*
X0011049D01*
X0005811Y0054900D02*
X0003784D01*
X0030213Y0041670D02*
X0028084D01*
X0004334Y0052380D02*
X0003784D01*
X0011940Y0033403D02*
Y0032674D01*
X0006234Y0043245D02*
X0006034D01*
X0001488Y0019305D02*
X0001234D01*
X0010365Y0068246D02*
Y0059089D01*
X0013684Y0070650D02*
X0012769D01*
X0011940Y0069821D02*
Y0063909D01*
X0002490Y0057161D02*
Y0046948D01*
X0004527Y0056790D02*
X0003784D01*
X0015720Y0068459D02*
Y0067395D01*
X0011240Y0064035D02*
X0006154D01*
X0001234Y0057018D02*
Y0047117D01*
X0031784Y0047970D02*
X0030209D01*
X0002534Y0057193D02*
Y0047594D01*
X0009583Y0024660D02*
X0006954D01*
X0002534Y0048915D02*
X0001234D01*
X0028950Y0061848D02*
Y0057222D01*
X0030210Y0057459D02*
Y0046683D01*
X0005584Y0046335D02*
Y0046252D01*
X0004695Y0056627D02*
Y0054114D01*
X0010680Y0068561D02*
Y0063512D01*
X0029265Y0019754D02*
Y0017469D01*
X0021075Y0061469D02*
Y0059219D01*
X0011725Y0030499D02*
Y0027173D01*
X0010180Y0034425D02*
X0008184D01*
X0009725Y0025605D02*
X0007191D01*
X0009725Y0029070D02*
X0008184D01*
X0004334Y0050175D02*
X0003784D01*
X0028653Y0062145D02*
X0028517D01*
X0031155Y0059643D02*
Y0059539D01*
X0015090Y0059945D02*
Y0059193D01*
X0030840Y0056992D02*
Y0047138D01*
X0017610Y0059869D02*
Y0059157D01*
X0016665Y0068198D02*
Y0067420D01*
X0002534Y0056475D02*
X0001234D01*
X0020914Y0066555D02*
X0017435D01*
X0003067Y0059786D02*
X0002718Y0059438D01*
X0019185Y0068284D02*
Y0059168D01*
X0018709Y0068760D02*
X0017437D01*
X0015480D02*
X0014934D01*
X0020284Y0067185D02*
X0016878D01*
X0027393Y0063405D02*
X0026184D01*
X0031784Y0024345D02*
X0029330D01*
X0027612Y0056475D02*
X0027384D01*
X0019024Y0068445D02*
X0017181D01*
X0023910Y0017600D02*
Y0017469D01*
X0002534Y0050805D02*
X0001234D01*
X0009547Y0022455D02*
X0008479D01*
X0004398Y0043245D02*
X0001234D01*
X0015090Y0063437D02*
Y0061642D01*
X0002805Y0060686D02*
Y0059524D01*
X0014538Y0060885D02*
X0006104D01*
X0005325Y0060687D02*
Y0059969D01*
X0004334Y0052695D02*
X0003784D01*
X0004065Y0061946D02*
Y0059969D01*
X0029860Y0030015D02*
X0029459D01*
X0005217Y0054636D02*
X0004518Y0053938D01*
X0002619Y0059310D02*
X0002480D01*
X0015634Y0066240D02*
X0014934D01*
X0004529Y0062410D02*
X0001662Y0059542D01*
X0004334Y0051750D02*
X0003784D01*
X0030309Y0032535D02*
X0024884D01*
X0017925Y0069544D02*
Y0065738D01*
X0021544Y0065925D02*
X0017733D01*
X0020634Y0063090D02*
X0018334D01*
X0004334Y0053325D02*
X0003784D01*
X0020634Y0062460D02*
X0018334D01*
X0021229Y0066240D02*
X0017675D01*
X0017309Y0071928D02*
X0022484Y0066753D01*
X0026115Y0033916D02*
Y0032319D01*
X0026813Y0060885D02*
X0026184D01*
X0022668Y0068130D02*
X0021106D01*
X0021634Y0059310D02*
X0017484D01*
X0017295Y0068556D02*
Y0066642D01*
X0020843Y0029385D02*
X0018684D01*
X0031784Y0022140D02*
X0029459D01*
X0026400Y0062145D02*
X0026184D01*
X0029598Y0061200D02*
X0028402D01*
X0015384Y0059310D02*
X0007477D01*
X0026763Y0064035D02*
X0026184D01*
X0028005Y0060822D02*
Y0057113D01*
X0030309Y0036945D02*
X0028084D01*
X0026430Y0064368D02*
Y0062224D01*
X0027375Y0060682D02*
Y0058898D01*
X0031784Y0023715D02*
X0029455D01*
X0029580Y0030341D02*
Y0029944D01*
X0030210Y0041673D02*
Y0032288D01*
X0031784Y0026865D02*
X0029342D01*
X0028950Y0030394D02*
Y0030144D01*
X0031784Y0050805D02*
X0030209D01*
X0029459Y0026644D02*
X0029156D01*
X0010365Y0033328D02*
Y0031099D01*
X0012034Y0037575D02*
X0008184D01*
X0021075Y0066394D02*
Y0063970D01*
X0028320Y0019051D02*
Y0017469D01*
X0024855Y0017600D02*
Y0017469D01*
X0019185Y0048731D02*
Y0048019D01*
X0023280Y0017600D02*
Y0017469D01*
X0022335Y0068463D02*
Y0066901D01*
X0018555Y0017632D02*
Y0017469D01*
X0005500Y0055845D02*
X0003784D01*
X0014250Y0019500D02*
Y0017500D01*
X0015950D02*
X0014250D01*
X0020445Y0017600D02*
Y0017469D01*
X0018240Y0023441D02*
Y0022791D01*
X0014250Y0017730D02*
X0012756D01*
X0030309Y0036315D02*
X0028214D01*
X0030309Y0038205D02*
X0028084D01*
X0030309Y0035685D02*
X0028083D01*
X0017709Y0049860D02*
X0017404D01*
X0028320Y0042344D02*
Y0032309D01*
X0020293Y0050805D02*
X0019236D01*
X0003344Y0046395D02*
X0002921D01*
X0020634Y0062775D02*
X0018334D01*
X0020264Y0051750D02*
X0019498D01*
X0031784Y0028755D02*
X0031603D01*
X0029265Y0026754D02*
Y0026644D01*
X0028909Y0044190D02*
X0028761D01*
X0030309Y0037890D02*
X0028084D01*
X0028909Y0044505D02*
X0027384D01*
X0028909Y0047144D02*
Y0044119D01*
X0028005Y0045121D02*
Y0044244D01*
X0030309Y0040410D02*
X0028084D01*
X0027690Y0045212D02*
Y0044244D01*
X0007734Y0020250D02*
X0006744D01*
X0013017Y0018841D02*
Y0018447D01*
X0007243Y0018841D02*
Y0018447D01*
X0014145Y0025673D02*
Y0022019D01*
X0014775Y0017500D02*
Y0017469D01*
X0030522Y0059310D02*
X0027126D01*
X0012570Y0017554D02*
Y0017469D01*
X0018870Y0025589D02*
Y0021637D01*
X0019185Y0030080D02*
Y0027171D01*
X0014284Y0027495D02*
X0012975D01*
X0020760Y0034369D02*
Y0026880D01*
X0022334Y0025920D02*
X0022307D01*
X0017784Y0074115D02*
X0017084D01*
X0015339Y0024030D02*
X0012179D01*
X0011310Y0069191D02*
Y0064051D01*
X0015834Y0029353D02*
X0014468Y0027988D01*
X0015236Y0028755D02*
X0012975D01*
X0010995Y0029961D02*
Y0027087D01*
X0012975Y0030240D02*
Y0027069D01*
X0011216Y0027180D02*
X0010975D01*
X0010250Y0033480D02*
X0008184D01*
X0014991Y0023085D02*
X0011234D01*
X0011625Y0023476D02*
Y0022019D01*
X0029459Y0026644D02*
Y0024944D01*
X0030309Y0039780D02*
X0028084D01*
X0012034D02*
X0008184D01*
X0020130Y0025667D02*
Y0023849D01*
X0009231Y0022770D02*
X0008795D01*
X0030259Y0027669D02*
X0029371D01*
X0031784Y0028935D02*
X0030702Y0027854D01*
X0008691Y0021510D02*
X0006744D01*
X0029789Y0029944D02*
X0029459D01*
Y0023144D02*
Y0021444D01*
X0028635Y0019366D02*
Y0017469D01*
X0008475Y0066356D02*
Y0059096D01*
X0019500Y0025376D02*
Y0023219D01*
X0021634Y0064665D02*
X0018410D01*
X0029895Y0017959D02*
Y0017469D01*
X0031784Y0022770D02*
X0029459D01*
X0031784Y0026235D02*
X0029459D01*
X0026745Y0017616D02*
Y0017469D01*
X0027708Y0063090D02*
X0026184D01*
X0027060Y0060753D02*
Y0059376D01*
X0026184Y0064614D02*
Y0060253D01*
X0031784Y0025290D02*
X0029459D01*
X0026184Y0064614D02*
X0028075Y0062723D01*
X0016350Y0068184D02*
Y0067556D01*
X0030240Y0057420D02*
X0027384D01*
X0007538Y0022455D02*
X0006744D01*
X0015889Y0067500D02*
X0014934D01*
X0030309Y0033480D02*
X0025678D01*
X0013954Y0064665D02*
X0006784D01*
X0015437Y0066870D02*
X0014934D01*
X0008790Y0022761D02*
Y0021609D01*
X0027609Y0055215D02*
X0027384D01*
X0009284Y0026488D02*
Y0026469D01*
X0007530Y0025931D02*
Y0024028D01*
X0015720Y0023559D02*
Y0023175D01*
X0014760Y0063720D02*
X0012129D01*
X0013830Y0031095D02*
Y0027138D01*
X0014284Y0025872D02*
Y0025344D01*
X0027622Y0055244D02*
X0027609D01*
X0013515Y0030780D02*
Y0027211D01*
X0029913Y0060885D02*
X0028104D01*
X0014145Y0031410D02*
Y0026914D01*
X0027690Y0035404D02*
Y0032012D01*
X0025170Y0032971D02*
Y0032319D01*
X0029971Y0058050D02*
X0027384D01*
X0030309Y0034425D02*
X0026623D01*
X0013515Y0025376D02*
Y0022019D01*
X0028909Y0046710D02*
X0028384D01*
X0020748Y0026865D02*
X0020178D01*
X0021705Y0025406D02*
Y0024019D01*
X0030309Y0038520D02*
X0028084D01*
X0020200Y0049230D02*
X0019375D01*
X0019815Y0052077D02*
Y0048019D01*
X0016350Y0017537D02*
Y0017469D01*
X0019500Y0051751D02*
Y0048019D01*
X0020186Y0053325D02*
X0020134D01*
X0020310Y0053955D02*
X0020134D01*
X0020278Y0053010D02*
X0020125D01*
X0020130Y0067339D02*
Y0052972D01*
X0020284Y0033794D02*
Y0031152D01*
X0017795Y0073170D02*
X0017309D01*
X0031784Y0019620D02*
X0029126D01*
X0020348Y0054900D02*
X0018184D01*
X0020184Y0058050D02*
X0019807D01*
X0020206Y0054585D02*
X0020134D01*
X0020184Y0059219D02*
Y0057569D01*
X0020187Y0056475D02*
X0019125D01*
X0015720Y0078619D02*
Y0078294D01*
X0016980Y0078619D02*
Y0078146D01*
X0017610Y0078619D02*
Y0078280D01*
X0017090Y0078210D02*
X0016827D01*
X0017784Y0076320D02*
X0017667D01*
X0022621Y0067185D02*
X0022051D01*
X0016350Y0078619D02*
Y0078287D01*
X0016035Y0078619D02*
Y0078294D01*
X0017295Y0076310D02*
Y0073294D01*
X0013684Y0068130D02*
X0010249D01*
X0010995Y0061469D02*
Y0059207D01*
X0029580Y0027669D02*
Y0017469D01*
X0030525Y0027728D02*
Y0019321D01*
X0027609Y0055244D02*
Y0053544D01*
X0029609Y0055244D02*
Y0053544D01*
X0031784Y0054900D02*
X0029609D01*
X0028759Y0057244D02*
X0028459D01*
X0027738Y0055845D02*
X0027384D01*
X0027676Y0053325D02*
X0027384D01*
X0031784Y0055215D02*
X0029609D01*
X0029895Y0060903D02*
Y0052277D01*
X0017784Y0075060D02*
X0017084D01*
X0018394Y0069075D02*
X0017552D01*
X0008000Y0026402D02*
X0007272Y0025674D01*
X0028023Y0062775D02*
X0027988D01*
X0017309Y0073294D02*
X0017084D01*
X0015471Y0066555D02*
X0014934D01*
X0020760Y0070038D02*
Y0068476D01*
X0027609Y0054585D02*
X0027384D01*
X0021559Y0034369D02*
X0020559D01*
X0007845Y0026246D02*
Y0024148D01*
X0005325Y0029559D02*
Y0028738D01*
X0009725Y0028125D02*
X0008184D01*
X0008475Y0026469D02*
Y0024035D01*
Y0042476D02*
Y0028119D01*
X0009725Y0029385D02*
X0008184D01*
X0007215Y0025623D02*
Y0023706D01*
X0001860Y0056926D02*
Y0047197D01*
X0002534Y0051750D02*
X0001234D01*
X0002534Y0053325D02*
X0001234D01*
X0006900Y0025493D02*
Y0025326D01*
X0006234Y0029559D02*
Y0029155D01*
X0011625Y0069506D02*
Y0064047D01*
X0020628Y0025920D02*
X0020298D01*
X0030309Y0033165D02*
X0025363D01*
X0009725Y0026235D02*
X0007833D01*
X0030309Y0032850D02*
X0025048D01*
X0030309Y0038835D02*
X0028084D01*
X0027611Y0052065D02*
X0027384D01*
X0009234Y0043822D02*
Y0043494D01*
X0004464Y0056851D02*
X0005811Y0055542D01*
X0026564Y0062460D02*
X0026184D01*
X0030309Y0039465D02*
X0028084D01*
X0021634Y0061200D02*
X0018384D01*
X0026184Y0060253D02*
X0027199Y0059238D01*
X0030309Y0035370D02*
X0027568D01*
X0026929Y0062775D02*
X0026184D01*
X0015405Y0063369D02*
Y0061717D01*
X0015634Y0062460D02*
X0012284D01*
X0005811Y0055530D02*
X0003784D01*
X0015175Y0063405D02*
X0012267D01*
X0005811Y0055542D02*
Y0054819D01*
X0015634Y0063402D02*
Y0061702D01*
Y0061830D02*
X0012284D01*
X0015634Y0065925D02*
X0014934D01*
X0013684Y0070965D02*
X0013084D01*
X0015634Y0065295D02*
X0015091D01*
X0004380Y0056950D02*
Y0053730D01*
X0016309Y0078294D02*
X0015134D01*
X0013684Y0071144D02*
Y0065194D01*
X0015365Y0069075D02*
X0014934D01*
X0019203Y0071595D02*
X0017641D01*
X0017784Y0073800D02*
X0017084D01*
X0016189Y0071280D02*
X0015328D01*
X0015609Y0071294D02*
X0015342D01*
X0014775Y0063698D02*
Y0061417D01*
X0017784Y0075690D02*
X0017084D01*
X0018888Y0071910D02*
X0017326D01*
X0015634Y0064980D02*
X0015406D01*
X0030309Y0040725D02*
X0028084D01*
X0016059Y0070335D02*
X0014934D01*
X0015348Y0069390D02*
X0014934D01*
X0022650Y0068148D02*
Y0067224D01*
X0005204Y0023085D02*
X0001234D01*
X0027663Y0052695D02*
X0027384D01*
X0018384Y0061719D02*
X0018334D01*
X0006900Y0064781D02*
Y0059897D01*
X0021390Y0066079D02*
Y0064061D01*
X0021634Y0065610D02*
X0018179D01*
X0028968Y0061830D02*
X0028573D01*
X0017784Y0074430D02*
X0017084D01*
X0014609Y0072489D02*
Y0072328D01*
X0015405Y0071294D02*
Y0069659D01*
X0031784Y0055845D02*
X0029479D01*
X0018555Y0072243D02*
Y0070681D01*
X0026745Y0064053D02*
Y0062651D01*
X0029580Y0056175D02*
Y0055613D01*
X0019185Y0071613D02*
Y0070051D01*
X0026519Y0032220D02*
X0026484D01*
X0022965Y0024019D02*
Y0023846D01*
X0030309Y0041355D02*
X0028084D01*
X0004294Y0031590D02*
X0001234D01*
X0027375Y0035176D02*
Y0032230D01*
X0029898Y0041985D02*
X0028084D01*
X0015950Y0017513D02*
Y0017500D01*
X0021075Y0034369D02*
Y0033494D01*
X0017784Y0076358D02*
Y0073294D01*
X0020760Y0066709D02*
Y0063678D01*
X0017981Y0072817D02*
X0023279Y0067519D01*
X0023088Y0067500D02*
X0021736D01*
X0019500Y0071298D02*
Y0069736D01*
X0017784Y0075375D02*
X0017084D01*
X0022335Y0025991D02*
Y0025254D01*
X0019681Y0023400D02*
X0018198D01*
X0030309Y0040095D02*
X0028084D01*
X0017925Y0021497D02*
Y0021375D01*
X0019996Y0023715D02*
X0018513D01*
X0018870Y0071928D02*
Y0070366D01*
X0027576Y0035378D02*
X0024884Y0032685D01*
X0014673Y0022770D02*
X0010916D01*
X0020760Y0025708D02*
Y0024019D01*
X0020445Y0034372D02*
Y0024008D01*
X0021408Y0069390D02*
X0019846D01*
X0020445Y0070353D02*
Y0068791D01*
X0020843Y0028125D02*
X0018684D01*
X0014145Y0019625D02*
Y0017469D01*
X0022494Y0066870D02*
X0022366D01*
X0019710Y0017730D02*
X0018681D01*
X0020778Y0070020D02*
X0019216D01*
X0013200Y0019625D02*
Y0017469D01*
X0017610Y0021386D02*
Y0021375D01*
X0018950Y0018481D02*
Y0018350D01*
X0021093Y0069705D02*
X0019531D01*
X0019071Y0018360D02*
X0018950D01*
X0018573Y0072225D02*
X0017309D01*
X0010788Y0063720D02*
X0005839D01*
X0014145Y0064474D02*
Y0059180D01*
X0004790Y0042930D02*
X0001234D01*
X0017946Y0072855D02*
X0017309D01*
X0013684Y0067815D02*
X0009934D01*
X0013684Y0067500D02*
X0009619D01*
X0015090Y0031785D02*
Y0031135D01*
X0003881Y0034425D02*
X0001234D01*
X0015720Y0029413D02*
Y0029239D01*
X0009911Y0030645D02*
X0008184D01*
X0015034Y0032300D02*
Y0032044D01*
X0012034Y0032767D02*
X0009910Y0030644D01*
X0011940Y0023791D02*
Y0022019D01*
X0014284Y0027544D02*
Y0026716D01*
X0012034Y0036315D02*
X0008184D01*
X0010365Y0022393D02*
Y0022019D01*
X0013200Y0025415D02*
Y0022019D01*
X0011725Y0027810D02*
X0010975D01*
X0009112Y0023400D02*
X0008914D01*
X0018240Y0021796D02*
Y0021375D01*
X0010995Y0033003D02*
Y0031729D01*
X0020130Y0052816D02*
Y0048019D01*
X0029845Y0018360D02*
X0027629D01*
X0011725Y0028440D02*
X0010975D01*
X0017295Y0049796D02*
Y0048019D01*
X0016884Y0049722D02*
Y0048353D01*
X0020197Y0049545D02*
X0019342D01*
X0020328Y0049860D02*
X0019182D01*
X0017610Y0048942D02*
Y0048019D01*
X0020189Y0050490D02*
X0018903D01*
X0004294Y0020565D02*
X0001234D01*
X0030840Y0027991D02*
Y0019403D01*
X0005010Y0029559D02*
Y0028622D01*
X0004294Y0021510D02*
X0001234D01*
X0009229Y0023715D02*
X0008797D01*
X0005674Y0029070D02*
X0001234D01*
X0010541Y0031275D02*
X0008184D01*
X0011801Y0032535D02*
X0008184D01*
X0013225Y0027180D02*
X0012975D01*
X0012034Y0038520D02*
X0008184D01*
X0012034Y0038835D02*
X0008184D01*
X0006154Y0045765D02*
X0005733D01*
X0011725Y0029070D02*
X0010975D01*
X0004193Y0026235D02*
X0001234D01*
X0009725Y0030015D02*
X0008184D01*
X0004294Y0029700D02*
X0001234D01*
X0006234Y0045135D02*
X0005366D01*
X0005640Y0033401D02*
Y0032509D01*
X0008160Y0026469D02*
Y0024150D01*
X0012034Y0037890D02*
X0008184D01*
X0012034Y0039150D02*
X0008184D01*
X0010142Y0043560D02*
X0009234D01*
X0020843Y0027495D02*
X0018684D01*
X0029580Y0053544D02*
Y0053213D01*
X0012034Y0041670D02*
X0008184D01*
X0006234Y0044820D02*
X0005582D01*
X0009105Y0023139D02*
Y0021909D01*
X0020193Y0054270D02*
X0020134D01*
X0006234Y0045685D02*
Y0043987D01*
X0005640Y0042929D02*
Y0034638D01*
X0006234Y0034740D02*
X0005551D01*
X0021691Y0034110D02*
X0020198D01*
X0020130Y0030079D02*
Y0026921D01*
X0020843Y0032535D02*
X0020284D01*
X0018974Y0030330D02*
X0018934D01*
X0020086Y0034425D02*
X0019911D01*
X0019815Y0029935D02*
Y0027141D01*
X0018750Y0029502D02*
X0018684Y0029435D01*
X0020760Y0061469D02*
Y0059219D01*
X0031173Y0059625D02*
X0026811D01*
X0017295Y0017523D02*
Y0017469D01*
X0020843Y0027810D02*
X0018684D01*
X0019057Y0021825D02*
X0018257D01*
X0019134Y0021902D02*
X0018609Y0021375D01*
X0019185Y0025417D02*
Y0022842D01*
X0015405Y0023964D02*
Y0023211D01*
X0016035Y0017502D02*
Y0017469D01*
X0004695Y0023645D02*
Y0022669D01*
X0004065Y0045919D02*
Y0034710D01*
X0013830Y0019625D02*
Y0017469D01*
X0014460Y0019625D02*
Y0019500D01*
X0012570Y0024420D02*
Y0022019D01*
X0018739Y0026865D02*
X0018684D01*
X0007845Y0022340D02*
Y0020650D01*
X0007533Y0024030D02*
X0006954D01*
X0013830Y0025450D02*
Y0022019D01*
X0029722Y0052450D02*
X0030014Y0052157D01*
X0007795Y0020565D02*
X0006744D01*
X0014582Y0022019D02*
X0009459D01*
X0014467Y0024902D02*
X0015693Y0023676D01*
X0022353Y0068445D02*
X0020791D01*
X0011625Y0025390D02*
Y0025243D01*
X0009420Y0026470D02*
Y0023942D01*
X0011725Y0027180D02*
X0011701D01*
X0027993Y0057105D02*
X0027384D01*
X0020203Y0055215D02*
X0018184D01*
X0018555Y0048380D02*
Y0048019D01*
X0017622Y0048915D02*
X0016884D01*
X0020274Y0048019D02*
X0017217D01*
X0014191Y0071910D02*
X0014029D01*
X0031784Y0054585D02*
X0029609D01*
X0022600Y0023836D02*
X0022809Y0023627D01*
X0028635Y0047144D02*
Y0046412D01*
X0031784Y0050175D02*
X0030209D01*
X0027690Y0060703D02*
Y0056757D01*
X0006585Y0023059D02*
Y0022669D01*
X0029609Y0055244D02*
X0029595D01*
X0020210Y0048600D02*
X0019060D01*
X0013684Y0066240D02*
X0008359D01*
X0004267Y0057260D02*
X0003784D01*
X0021634Y0065835D02*
Y0064045D01*
X0013684Y0067185D02*
X0009304D01*
X0013684Y0066870D02*
X0008989D01*
X0019654Y0067815D02*
X0014934D01*
X0031784Y0052380D02*
X0029792D01*
X0017309Y0073294D02*
Y0071928D01*
X0018240Y0048402D02*
Y0048019D01*
X0005325Y0056015D02*
Y0054722D01*
X0002534Y0049545D02*
X0001234D01*
X0005010Y0060773D02*
Y0059969D01*
X0005640Y0060694D02*
Y0059969D01*
X0005010Y0062891D02*
Y0062815D01*
X0010050Y0067931D02*
Y0059200D01*
X0007050Y0059786D02*
X0007354Y0059482D01*
X0015103Y0059940D02*
X0006797D01*
X0007215Y0065096D02*
Y0059621D01*
X0006609Y0059969D02*
X0003509D01*
X0015342Y0071294D02*
X0014934Y0070885D01*
X0004184Y0045765D02*
X0003014D01*
X0004695Y0029559D02*
Y0028583D01*
X0001466Y0041355D02*
X0001234D01*
X0002534Y0049230D02*
X0001234D01*
X0002805Y0047064D02*
Y0046615D01*
X0003159Y0046710D02*
X0002736D01*
X0008184Y0042185D02*
Y0028119D01*
X0004334Y0049230D02*
X0003784D01*
X0004380Y0062261D02*
Y0062076D01*
X0004334Y0049860D02*
X0003784D01*
X0004334Y0049545D02*
X0003784D01*
X0014627Y0061200D02*
X0006402D01*
X0002534Y0048600D02*
X0001234D01*
X0004264Y0045450D02*
X0002943D01*
X0005584Y0046335D02*
X0006234Y0045685D01*
X0027706Y0056790D02*
X0027384D01*
X0004515Y0061200D02*
X0003319D01*
X0031784Y0056475D02*
X0029605D01*
X0016350Y0071119D02*
Y0070404D01*
X0020213Y0050175D02*
X0019057D01*
X0028519Y0030271D02*
X0028392Y0030144D01*
X0006234Y0040725D02*
X0003411D01*
X0004065Y0033329D02*
Y0017469D01*
X0003784Y0047853D02*
X0004176Y0047460D01*
X0031784Y0025920D02*
X0029459D01*
X0004294Y0019935D02*
X0001234D01*
X0013684Y0068445D02*
X0010564D01*
X0027902Y0045135D02*
X0027384D01*
X0022965Y0067833D02*
Y0067461D01*
X0028909Y0047025D02*
X0028384D01*
X0028320Y0045164D02*
Y0044244D01*
X0028635Y0045376D02*
Y0044226D01*
X0031784Y0051120D02*
X0030209D01*
X0027810Y0053544D02*
X0027609D01*
X0028909Y0045135D02*
X0028215D01*
X0031784Y0053010D02*
X0029608D01*
X0027617Y0051436D02*
X0027384Y0051203D01*
X0027644Y0051750D02*
X0027384D01*
X0022983Y0067815D02*
X0021421D01*
X0028950Y0019515D02*
Y0017469D01*
X0031784Y0049230D02*
X0030209D01*
X0011725Y0027495D02*
X0010975D01*
X0012885Y0024761D02*
Y0022019D01*
X0004294Y0031905D02*
X0001234D01*
X0030488Y0019305D02*
X0028574D01*
X0028334Y0042353D02*
Y0042344D01*
X0014269Y0064350D02*
X0006469D01*
X0031784Y0048915D02*
X0030209D01*
X0019339Y0068130D02*
X0014934D01*
X0021075Y0069723D02*
Y0068161D01*
X0011171Y0031905D02*
X0008184D01*
X0010975Y0025513D02*
Y0025008D01*
X0030210Y0027669D02*
Y0019120D01*
X0030309Y0036630D02*
X0028084D01*
X0031784Y0052065D02*
X0030092D01*
X0029459Y0030144D02*
X0028392D01*
X0025485Y0017600D02*
Y0017469D01*
X0026430Y0017600D02*
Y0017469D01*
X0019134Y0022594D02*
Y0021902D01*
X0022650Y0017600D02*
Y0017469D01*
X0027375Y0018106D02*
Y0017469D01*
X0021390Y0069408D02*
Y0067846D01*
X0008790Y0026469D02*
Y0023727D01*
X0025800Y0017600D02*
Y0017469D01*
X0014554Y0022455D02*
X0010488D01*
X0008475Y0022452D02*
Y0021294D01*
X0014460Y0031726D02*
Y0027979D01*
X0016504Y0070965D02*
X0015013D01*
X0011310Y0025387D02*
Y0024928D01*
X0008376Y0021195D02*
X0006744D01*
X0014250Y0019305D02*
X0012916D01*
X0012885Y0017920D02*
Y0017469D01*
X0019134Y0022140D02*
X0018373D01*
X0020130Y0070668D02*
Y0069106D01*
X0016980Y0021408D02*
Y0021375D01*
X0019159Y0022770D02*
X0018253D01*
X0009420Y0022546D02*
Y0022018D01*
X0019366Y0023085D02*
X0017935D01*
X0018743Y0021510D02*
X0017946D01*
X0018609Y0021375D02*
X0016956D01*
X0018555Y0023764D02*
Y0021375D01*
X0022159Y0024019D02*
X0020559D01*
X0019815Y0025447D02*
Y0023534D01*
X0022195Y0024660D02*
X0018684D01*
X0016175Y0071294D02*
X0015609D01*
X0025800Y0033601D02*
Y0032319D01*
X0020148Y0070650D02*
X0018586D01*
X0022205Y0024975D02*
X0018684D01*
X0016980Y0017508D02*
Y0017469D01*
X0030309Y0037575D02*
X0028084D01*
X0028950Y0042495D02*
Y0032193D01*
X0027609Y0054900D02*
X0027384D01*
X0028334Y0044244D02*
X0027384D01*
X0030203Y0058995D02*
X0027350D01*
X0027423Y0045450D02*
X0027384D01*
X0031784Y0047655D02*
X0030209D01*
X0030309Y0033795D02*
X0025993D01*
X0028084Y0042344D02*
Y0036602D01*
X0028384Y0047144D02*
Y0046597D01*
X0031784Y0049860D02*
X0030209D01*
X0026344Y0061830D02*
X0026184D01*
X0030309Y0034110D02*
X0026308D01*
X0030037Y0058680D02*
X0027384D01*
X0027078Y0063720D02*
X0026184D01*
X0030056Y0057735D02*
X0027384D01*
X0029580Y0061218D02*
Y0056613D01*
X0026448Y0064350D02*
X0026184D01*
X0026430Y0061364D02*
Y0060006D01*
X0020634Y0062145D02*
X0018334D01*
X0030228Y0060570D02*
X0026184D01*
X0018240Y0069229D02*
Y0065558D01*
X0015634Y0063090D02*
X0012284D01*
X0015834Y0029385D02*
X0015591D01*
X0018934Y0030420D02*
Y0029944D01*
X0020843Y0031905D02*
X0020284D01*
X0020843Y0029700D02*
X0018884D01*
X0020843Y0031590D02*
X0020284D01*
X0019285Y0030015D02*
X0018934D01*
X0022020Y0025560D02*
Y0024019D01*
X0020843Y0030015D02*
X0020032D01*
X0003801Y0034110D02*
X0001234D01*
X0028909Y0046395D02*
X0028650D01*
X0015405Y0017500D02*
Y0017469D01*
X0020184Y0057735D02*
X0019707D01*
X0027384Y0045513D02*
Y0044244D01*
X0010050Y0022326D02*
Y0022019D01*
X0027701Y0052380D02*
X0027384D01*
X0020236Y0057105D02*
X0019433D01*
X0015612Y0070020D02*
X0014934D01*
X0026745Y0034546D02*
Y0032296D01*
X0024884Y0032685D02*
Y0032319D01*
X0012975Y0025518D02*
Y0025084D01*
X0029895Y0041988D02*
Y0032317D01*
X0020843Y0028755D02*
X0018684D01*
X0022334Y0025290D02*
X0018684D01*
X0020843Y0028440D02*
X0018684D01*
X0020843Y0030645D02*
X0020432D01*
X0019833Y0034503D02*
X0020099Y0034238D01*
X0022334Y0025605D02*
X0022075D01*
X0020843Y0027180D02*
X0019701D01*
X0005955Y0045964D02*
Y0044573D01*
X0009725Y0030200D02*
Y0028075D01*
X0020843Y0033003D02*
Y0026967D01*
X0006234Y0045450D02*
X0005653D01*
X0012034Y0042615D02*
X0008613D01*
X0010680Y0022607D02*
Y0022019D01*
X0031470Y0056935D02*
Y0047189D01*
X0012570Y0070451D02*
Y0059142D01*
X0020760Y0017600D02*
Y0017469D01*
X0027690Y0018421D02*
Y0017469D01*
X0020860Y0025605D02*
X0020066D01*
X0022334Y0025987D02*
Y0025252D01*
X0005811Y0054819D02*
X0005659D01*
X0028909Y0044820D02*
X0027384D01*
X0020585Y0026550D02*
X0020341D01*
X0028909Y0045765D02*
X0028823D01*
X0030309Y0037260D02*
X0028084D01*
X0028334Y0044244D02*
Y0044235D01*
X0028384Y0047144D02*
Y0046597D01*
X0014343Y0027810D02*
X0012975D01*
X0029265Y0042366D02*
Y0032048D01*
X0017857Y0048600D02*
X0016884D01*
X0028909Y0047144D02*
X0028384D01*
X0030309Y0035055D02*
X0027253D01*
X0014284Y0027180D02*
X0013710D01*
X0028334Y0042344D02*
X0028084D01*
X0030309Y0041575D02*
Y0032257D01*
X0020252Y0052065D02*
X0019805D01*
X0020230Y0051120D02*
X0019361D01*
X0022650Y0024083D02*
Y0023786D01*
X0019134Y0054719D02*
X0018484D01*
X0019185Y0050731D02*
Y0049856D01*
X0021634Y0061469D02*
Y0059219D01*
X0019185Y0056525D02*
Y0054719D01*
X0018240Y0056442D02*
Y0054719D01*
X0031784Y0023400D02*
X0029362D01*
X0028005Y0018736D02*
Y0017469D01*
X0009006Y0021825D02*
X0006744D01*
X0002805Y0017568D02*
Y0017469D01*
X0029911Y0018675D02*
X0027944D01*
X0004344Y0061830D02*
X0003949D01*
X0010856Y0031590D02*
X0008184D01*
X0007734Y0020294D02*
Y0019765D01*
X0006234Y0044505D02*
X0006015D01*
X0006234Y0033795D02*
X0005822D01*
X0012034Y0036630D02*
X0008184D01*
X0012034Y0036945D02*
X0008184D01*
X0012034Y0037260D02*
X0008184D01*
X0004334Y0050490D02*
X0003784D01*
X0012034Y0039465D02*
X0008184D01*
X0005010Y0023605D02*
Y0022669D01*
X0002534Y0049860D02*
X0001234D01*
X0031784Y0051435D02*
X0030209D01*
X0011672Y0025290D02*
X0010975D01*
X0005640Y0046279D02*
Y0046163D01*
X0017925Y0048546D02*
Y0048019D01*
X0016980Y0049719D02*
Y0048256D01*
X0017575Y0049545D02*
X0016884D01*
X0020318Y0055845D02*
X0018184D01*
Y0056481D02*
Y0054719D01*
X0018484D02*
X0018184D01*
X0008160Y0066041D02*
Y0059176D01*
X0011310Y0061469D02*
Y0059118D01*
X0012255Y0061469D02*
Y0059143D01*
X0008790Y0066671D02*
Y0059202D01*
X0019500Y0029935D02*
Y0027212D01*
X0030309Y0036000D02*
X0028220D01*
X0012034Y0040725D02*
X0008184D01*
X0010303Y0043245D02*
X0009182D01*
X0012034Y0041355D02*
X0008184D01*
X0009105Y0043114D02*
Y0028119D01*
X0005335Y0028755D02*
X0001234D01*
X0008790Y0042791D02*
Y0028119D01*
X0005955Y0063836D02*
Y0062792D01*
X0001545Y0056933D02*
Y0047196D01*
X0003822Y0033795D02*
X0001234D01*
X0005325Y0033126D02*
Y0032509D01*
X0020843Y0029070D02*
X0018684D01*
X0029583Y0042300D02*
X0028084D01*
X0020130Y0034415D02*
Y0034204D01*
X0020184Y0052380D02*
X0019954D01*
X0005325Y0019719D02*
Y0017469D01*
X0009735Y0067616D02*
Y0059192D01*
X0004334Y0047655D02*
X0003981D01*
X0004379Y0061515D02*
X0003634D01*
X0014707Y0060255D02*
X0002374D01*
X0005955Y0029559D02*
Y0029160D01*
X0009284Y0028119D02*
X0008184D01*
X0005204Y0023400D02*
X0001234D01*
X0009542Y0024030D02*
X0008484D01*
X0006270Y0023059D02*
Y0022669D01*
X0005325Y0023059D02*
Y0022669D01*
X0007530Y0022460D02*
Y0019587D01*
X0027609Y0053955D02*
X0027384D01*
X0030525Y0060273D02*
Y0059312D01*
X0031784Y0051750D02*
X0030206D01*
X0031784Y0048600D02*
X0030209D01*
X0013684Y0065295D02*
X0007414D01*
X0027609Y0053010D02*
X0027384D01*
X0028005Y0035594D02*
Y0032213D01*
X0026115Y0017600D02*
Y0017469D01*
X0027060Y0034861D02*
Y0032314D01*
X0020650Y0063405D02*
X0018334D01*
X0020445Y0067024D02*
Y0059219D01*
X0020240Y0052695D02*
X0020109D01*
X0004536Y0053955D02*
X0003784D01*
X0031784Y0027810D02*
X0030654D01*
X0029609Y0053544D02*
X0029407D01*
X0029519Y0032220D02*
X0028898D01*
X0030309Y0039150D02*
X0028084D01*
X0014934Y0070885D02*
Y0065453D01*
X0021634Y0064350D02*
X0018334D01*
X0021634Y0060570D02*
X0018384D01*
X0003320Y0059940D02*
X0002059D01*
X0012255Y0070136D02*
Y0063455D01*
X0014284Y0025605D02*
X0014075D01*
X0005166Y0054585D02*
X0003784D01*
X0005010Y0056321D02*
Y0054429D01*
X0003951Y0033480D02*
X0001234D01*
X0004256Y0033165D02*
X0001234D01*
X0013684Y0069075D02*
X0011194D01*
X0014775Y0029680D02*
Y0028294D01*
X0020843Y0032850D02*
X0020284D01*
X0019815Y0017666D02*
Y0017469D01*
X0021061Y0033480D02*
X0020284D01*
X0018240Y0017511D02*
Y0017469D01*
X0016665Y0017620D02*
Y0017469D01*
X0020130Y0017600D02*
Y0017469D01*
X0018555Y0068914D02*
Y0059135D01*
X0018870Y0048472D02*
Y0048019D01*
X0021705Y0034374D02*
Y0034124D01*
X0031784Y0053955D02*
X0029609D01*
X0018500Y0023702D02*
X0017902Y0023103D01*
X0011725Y0025415D02*
Y0025343D01*
X0015229Y0031590D02*
X0014324D01*
X0011357Y0024975D02*
X0010998D01*
X0016175Y0071294D02*
X0021634Y0065835D01*
X0031784Y0025605D02*
X0029459D01*
X0016035Y0071294D02*
Y0070325D01*
X0018866Y0050470D02*
X0018900Y0050436D01*
X0018240Y0059869D02*
Y0059149D01*
X0031784Y0055530D02*
X0029598D01*
X0029265Y0030539D02*
Y0030144D01*
X0026484Y0032319D02*
X0024884D01*
X0029895Y0030271D02*
Y0030049D01*
X0020634Y0061830D02*
X0018334D01*
X0015634Y0062775D02*
X0012284D01*
X0015422Y0069705D02*
X0014934D01*
X0009602Y0024345D02*
X0006954D01*
X0031784Y0019935D02*
X0029379D01*
X0017084Y0076381D02*
Y0073294D01*
X0017610Y0017655D02*
Y0017469D01*
X0017784Y0076005D02*
X0017084D01*
X0026515Y0061200D02*
X0026184D01*
X0015134Y0078619D02*
Y0078294D01*
X0020184Y0058995D02*
X0019498D01*
X0027641Y0056160D02*
X0027384D01*
X0018240Y0072558D02*
Y0070996D01*
X0022858Y0023715D02*
X0022721D01*
X0013684Y0068760D02*
X0010879D01*
X0013684Y0065925D02*
X0008044D01*
X0013684Y0069390D02*
X0011509D01*
X0012034Y0041040D02*
X0008184D01*
X0030840Y0059958D02*
Y0059471D01*
X0014775Y0024594D02*
Y0022907D01*
X0013684Y0070020D02*
X0012139D01*
X0022828Y0024030D02*
X0018673D01*
X0015090Y0024279D02*
Y0023135D01*
X0014610Y0030645D02*
X0013380D01*
X0009702Y0024975D02*
X0006952D01*
X0015551Y0029070D02*
X0012975D01*
X0013830Y0064792D02*
Y0059206D01*
X0013684Y0070335D02*
X0012454D01*
X0017925Y0023126D02*
Y0023091D01*
X0014775Y0032041D02*
Y0030907D01*
X0006234Y0036000D02*
X0003130D01*
X0015834Y0029455D02*
Y0029353D01*
X0015034Y0032220D02*
X0014954D01*
X0015034Y0032300D02*
X0012975Y0030240D01*
X0015405Y0031414D02*
Y0031211D01*
X0021634Y0060255D02*
X0018384D01*
X0013721Y0064980D02*
X0007099D01*
X0010995Y0068876D02*
Y0063922D01*
X0013684Y0069705D02*
X0011824D01*
X0004168Y0028125D02*
X0001234D01*
X0011625Y0030591D02*
Y0027197D01*
X0013698Y0071280D02*
X0013399D01*
X0011742Y0030645D02*
X0011679D01*
X0014826Y0030960D02*
X0013695D01*
X0015405Y0029377D02*
Y0028924D01*
X0009725Y0029700D02*
X0008184D01*
X0011725D02*
X0010975D01*
X0011725Y0028755D02*
X0010975D01*
X0010680Y0042937D02*
Y0034945D01*
X0012034Y0034740D02*
X0011851D01*
X0011773Y0030739D02*
X0010975Y0029941D01*
X0009113Y0023085D02*
X0008913D01*
X0009725Y0028755D02*
X0008184D01*
X0013200Y0030465D02*
Y0027173D01*
X0030128Y0030283D02*
X0029789Y0029944D01*
X0019134Y0022455D02*
X0018372D01*
X0012788Y0024638D02*
X0010954Y0022805D01*
X0005640Y0055708D02*
Y0054819D01*
X0004695Y0045065D02*
Y0044745D01*
X0014561Y0060570D02*
X0002689D01*
X0031784Y0057024D02*
Y0047097D01*
X0020843Y0032220D02*
X0020284D01*
X0010634Y0062145D02*
X0006517D01*
X0027690Y0056031D02*
Y0055757D01*
X0006270Y0064151D02*
Y0062559D01*
Y0061029D02*
Y0059969D01*
X0002534Y0054900D02*
X0001234D01*
X0002175Y0056997D02*
Y0047121D01*
X0013515Y0019625D02*
Y0017469D01*
X0014250Y0018990D02*
X0013007D01*
X0014250Y0018675D02*
X0013017D01*
X0012885Y0019385D02*
Y0019368D01*
X0021705Y0017600D02*
Y0017469D01*
X0014250Y0018360D02*
X0013014D01*
X0014569Y0019625D02*
X0013150D01*
X0014565Y0019620D02*
X0013145D01*
X0022965Y0017600D02*
Y0017469D01*
X0007247Y0018360D02*
X0003072D01*
X0014500Y0019500D02*
X0014250D01*
X0020117Y0023836D02*
X0019318Y0023038D01*
X0026600Y0017600D02*
X0020100D01*
X0029459Y0023144D02*
X0029156D01*
X0029872Y0018045D02*
X0027314D01*
X0030087Y0018990D02*
X0028259D01*
X0031784Y0024975D02*
X0029459D01*
X0019185Y0018246D02*
Y0017469D01*
X0031784Y0020565D02*
X0029414D01*
X0007103Y0023400D02*
X0006954D01*
X0018870Y0017990D02*
Y0017469D01*
X0010995Y0025501D02*
Y0024979D01*
X0029459Y0024944D02*
X0029445D01*
X0031784Y0021195D02*
X0029453D01*
X0019500Y0017931D02*
Y0017469D01*
X0031784Y0020880D02*
X0029351D01*
X0031784Y0024030D02*
X0029425D01*
X0031784Y0023085D02*
X0029459D01*
X0019084Y0049994D02*
Y0049967D01*
X0011725Y0025343D02*
X0011105Y0024724D01*
X0029265Y0023254D02*
Y0023144D01*
X0030309Y0041040D02*
X0028084D01*
X0017561Y0050007D02*
X0017724Y0049845D01*
X0030525Y0057152D02*
Y0046982D01*
X0030593Y0047025D02*
X0030209D01*
X0031784Y0026550D02*
X0029459D01*
X0031784Y0048285D02*
X0030209D01*
X0031785Y0028936D02*
Y0019042D01*
X0031155Y0028306D02*
Y0019391D01*
X0004294Y0032220D02*
X0001234D01*
X0020134Y0053069D02*
X0020115D01*
X0026430Y0034231D02*
Y0032319D01*
X0029580Y0042303D02*
Y0032246D01*
X0031784Y0021510D02*
X0029459D01*
X0009105Y0026469D02*
Y0023349D01*
X0007104Y0023085D02*
X0006954D01*
X0021634Y0064980D02*
X0018483D01*
X0031784Y0021825D02*
X0029459D01*
X0015090Y0071041D02*
Y0065296D01*
X0012034Y0035055D02*
X0008184D01*
X0017610Y0069859D02*
Y0066364D01*
X0018334Y0064536D02*
Y0061719D01*
X0015024Y0024345D02*
X0012494D01*
X0013684Y0066555D02*
X0008674D01*
X0013876Y0071595D02*
X0013714D01*
X0021705Y0069093D02*
Y0067531D01*
X0014506Y0072225D02*
X0014344D01*
X0030231Y0046710D02*
X0030209D01*
X0027617Y0051436D02*
X0027384Y0051203D01*
X0014460Y0072341D02*
Y0072179D01*
X0011310Y0030276D02*
Y0027200D01*
X0014286Y0025290D02*
X0012975D01*
X0010975Y0029941D02*
Y0027075D01*
X0014284Y0026865D02*
X0014187D01*
X0016035Y0023145D02*
Y0023009D01*
X0031784Y0027180D02*
X0029451D01*
X0029895Y0027669D02*
Y0018628D01*
X0028635Y0030284D02*
Y0030144D01*
X0017925Y0072881D02*
Y0071311D01*
X0018950Y0018481D02*
X0019636Y0017794D01*
X0031784Y0054270D02*
X0029609D01*
X0028720Y0019451D02*
X0027063Y0017794D01*
X0025485Y0033286D02*
Y0032319D01*
X0014460Y0017500D02*
Y0017469D01*
X0029580Y0052775D02*
Y0052559D01*
X0020134Y0054719D02*
X0019134D01*
X0006234Y0044190D02*
X0006187D01*
X0005640Y0045424D02*
Y0044796D01*
X0011725Y0030330D02*
X0011364D01*
X0005325Y0042843D02*
Y0034913D01*
X0012034Y0033480D02*
X0011993D01*
X0020185Y0051435D02*
X0019366D01*
X0020191Y0048285D02*
X0016951D01*
X0017542Y0049230D02*
X0016884D01*
X0014460Y0024909D02*
Y0022019D01*
X0022038Y0068760D02*
X0020476D01*
X0017610Y0049959D02*
Y0049646D01*
X0020285Y0056790D02*
X0019371D01*
X0020195Y0055530D02*
X0018184D01*
X0002175Y0060056D02*
Y0059467D01*
X0031784Y0027495D02*
X0029434D01*
X0020217Y0056160D02*
X0018184D01*
X0019500Y0067969D02*
Y0058993D01*
Y0057477D02*
Y0054719D01*
X0015405Y0068929D02*
Y0064981D01*
X0018870Y0068599D02*
Y0059209D01*
X0009735Y0043625D02*
Y0030311D01*
X0013684Y0065610D02*
X0007729D01*
X0021075Y0017600D02*
Y0017469D01*
X0013150Y0019625D02*
X0012879Y0019379D01*
X0014250Y0018045D02*
X0012942D01*
X0008160Y0022338D02*
Y0020979D01*
X0014758Y0029700D02*
X0012975D01*
X0015090Y0017500D02*
Y0017469D01*
X0014709Y0024660D02*
X0012809D01*
X0017295Y0021392D02*
Y0021375D01*
X0027384Y0058794D02*
Y0051203D01*
X0022335Y0024334D02*
Y0023993D01*
X0021075Y0025463D02*
Y0024019D01*
X0011310Y0023161D02*
Y0022019D01*
X0014553Y0022140D02*
X0006744D01*
X0015326Y0029385D02*
X0012975D01*
X0014404Y0024975D02*
X0012965D01*
X0016116Y0023085D02*
X0015926D01*
X0015720Y0071294D02*
Y0070129D01*
X0019750Y0052002D02*
X0019331Y0051582D01*
X0015217Y0031602D02*
X0015620Y0031198D01*
X0016125Y0023094D02*
X0016038Y0023007D01*
X0020843Y0030330D02*
X0020343D01*
X0015544Y0031275D02*
X0014009D01*
X0012034Y0035370D02*
X0008184D01*
X0014583Y0030015D02*
X0012975D01*
X0020843Y0031275D02*
X0020284D01*
X0015654Y0023715D02*
X0011864D01*
X0019216Y0027180D02*
X0018684D01*
X0011310Y0033012D02*
Y0032044D01*
X0011725Y0029385D02*
X0010975D01*
X0018851Y0025605D02*
X0018684D01*
X0021634Y0061469D02*
X0020634D01*
X0020642Y0063119D02*
X0020634D01*
X0020184Y0057420D02*
X0019426D01*
X0021390Y0061469D02*
Y0059219D01*
X0017610Y0076307D02*
Y0071626D01*
X0018384Y0059869D02*
X0017484D01*
X0019815Y0070983D02*
Y0069421D01*
X0017250Y0076320D02*
X0017084D01*
X0017784Y0073485D02*
X0017084D01*
X0016309Y0078294D02*
Y0078280D01*
X0016665Y0078619D02*
Y0078268D01*
X0017784Y0078619D02*
Y0078229D01*
Y0078619D02*
X0015134D01*
X0017295D02*
Y0078278D01*
X0001545Y0040645D02*
Y0037237D01*
X0006585Y0019719D02*
Y0017469D01*
X0003586Y0046080D02*
X0003008D01*
X0006234Y0036315D02*
X0003376D01*
X0007318Y0018045D02*
X0003045D01*
X0002490Y0035751D02*
Y0019274D01*
X0002175Y0035791D02*
Y0019388D01*
X0001860Y0044590D02*
Y0041937D01*
X0013867Y0064752D02*
X0014655Y0063964D01*
X0004695Y0019719D02*
Y0017469D01*
X0001545Y0036315D02*
Y0019329D01*
X0007822Y0017469D02*
X0002709D01*
X0007253Y0018990D02*
X0002830D01*
X0007243Y0018675D02*
X0003006D01*
X0031784Y0028935D02*
Y0019044D01*
X0031470Y0028621D02*
Y0019285D01*
X0031784Y0020250D02*
X0029457D01*
X0026745Y0060937D02*
Y0059691D01*
X0028635Y0062163D02*
Y0057244D01*
X0030598Y0057105D02*
X0029224D01*
X0028320Y0061086D02*
Y0057232D01*
X0030210Y0060588D02*
Y0059005D01*
X0020843Y0030960D02*
X0020386D01*
X0004334Y0050805D02*
X0003784D01*
X0014606Y0028125D02*
X0012975D01*
X0015791Y0023400D02*
X0011549D01*
X0021390Y0017600D02*
Y0017469D01*
X0027616Y0051435D02*
X0027384D01*
X0018684Y0029435D02*
Y0026787D01*
X0022327Y0024345D02*
X0018684D01*
X0016980Y0068308D02*
Y0066869D01*
X0016035Y0068262D02*
Y0067549D01*
X0014609Y0072328D02*
X0013868Y0071588D01*
X0017295Y0070174D02*
Y0070031D01*
X0016980Y0070489D02*
Y0070279D01*
X0016665Y0070804D02*
Y0070390D01*
X0017134Y0070335D02*
X0016858D01*
X0017449Y0070020D02*
X0017305D01*
X0017764Y0069705D02*
X0017495D01*
X0018079Y0069390D02*
X0017569D01*
X0010634Y0061830D02*
X0006573D01*
X0006585Y0064466D02*
Y0059969D01*
X0005640Y0063521D02*
Y0062894D01*
X0005955Y0060795D02*
Y0059969D01*
X0014145Y0072026D02*
Y0071864D01*
X0010650Y0063405D02*
X0005524D01*
X0014609Y0072489D02*
X0004842Y0062723D01*
X0010634Y0062775D02*
X0005988D01*
X0010634Y0062460D02*
X0006353D01*
X0015736Y0068445D02*
X0014934D01*
X0014879Y0061515D02*
X0012284D01*
X0010634D02*
X0006538D01*
X0028388Y0062410D02*
X0031254Y0059544D01*
X0030858Y0059940D02*
X0026496D01*
X0028005Y0062793D02*
Y0062766D01*
X0027690Y0063108D02*
Y0062885D01*
X0010634Y0063090D02*
X0005209D01*
X0030543Y0060255D02*
X0026184D01*
X0027375Y0063423D02*
Y0062906D01*
X0027060Y0063738D02*
Y0062835D01*
X0029265Y0061533D02*
Y0057077D01*
X0017784Y0074745D02*
X0017084D01*
X0027690Y0052631D02*
Y0052357D01*
X0029965Y0058365D02*
X0027384D01*
X0014934Y0065453D02*
X0015470Y0064916D01*
X0030209Y0051694D02*
Y0046681D01*
X0021390Y0034369D02*
Y0033809D01*
X0030309Y0034740D02*
X0026938D01*
X0006234Y0038835D02*
X0001234D01*
X0001791Y0036000D02*
X0001234D01*
X0006234Y0038205D02*
X0001234D01*
X0006234Y0037575D02*
X0003102D01*
X0001545Y0044592D02*
Y0041568D01*
X0006234Y0036945D02*
X0003471D01*
X0002805Y0040141D02*
Y0037741D01*
X0001446Y0036630D02*
X0001234D01*
X0001449Y0036945D02*
X0001234D01*
X0002490Y0040082D02*
Y0037800D01*
X0002175Y0040122D02*
Y0037760D01*
X0006234Y0037260D02*
X0003364D01*
X0003435Y0036459D02*
Y0017469D01*
X0001545Y0036315D02*
X0001234D01*
X0006234Y0042615D02*
X0001234D01*
X0006234Y0041985D02*
X0002989D01*
X0006234Y0041670D02*
X0003316D01*
X0006234Y0041355D02*
X0003455D01*
X0004380Y0033095D02*
Y0032509D01*
X0002534Y0048285D02*
X0001234D01*
X0007504Y0017730D02*
X0002920D01*
X0001509Y0040725D02*
X0001234D01*
X0002490Y0044839D02*
Y0042131D01*
X0002175Y0044667D02*
Y0042091D01*
X0006234Y0035370D02*
X0001234D01*
X0012034Y0033552D02*
Y0032767D01*
Y0043394D02*
Y0034488D01*
X0011940Y0043245D02*
Y0034637D01*
X0011625Y0042969D02*
Y0034913D01*
X0011310Y0042855D02*
Y0035027D01*
X0012034Y0043245D02*
X0011940D01*
X0010365Y0043171D02*
Y0034711D01*
X0012034Y0032850D02*
X0008184D01*
X0009420Y0043699D02*
Y0028118D01*
X0010995Y0042845D02*
Y0035037D01*
X0002717Y0047152D02*
X0003293Y0046576D01*
X0004294Y0030330D02*
X0001234D01*
X0012034Y0038205D02*
X0008184D01*
X0006234Y0034110D02*
X0005843D01*
X0005325Y0045111D02*
Y0044881D01*
X0006234Y0041040D02*
X0003483D01*
X0006234Y0040410D02*
X0003212D01*
X0004380Y0045278D02*
Y0044455D01*
X0016884Y0048353D02*
X0017217Y0048019D01*
X0004191Y0043875D02*
X0001234D01*
X0003435Y0040789D02*
Y0037093D01*
X0015049Y0031905D02*
X0014639D01*
X0006234Y0034425D02*
X0005764D01*
X0004695Y0042980D02*
Y0035037D01*
X0005010Y0042858D02*
Y0035027D01*
G01X0011122Y0035045D02*
G03X0010097Y0034020I0000000J0001025D01*
G01X0004191Y0043862D02*
G03X0005216Y0042837I0001025J0000000D01*
Y0044887D02*
G03X0004191Y0043862I0000000J0001025D01*
G01X0003797Y0034020D02*
G03X0004822Y0032995I0001025J0000000D01*
G03X0005847Y0034020I0000000J0001025D01*
G03X0004822Y0035045I0001025J0000000D01*
G03X0003797Y0034020I0000000J0001025D01*
G01X0001709Y0044582D02*
G03X0003021Y0045894I0000000J0001312D01*
G03X0001709Y0047206I0001312J0000000D01*
G01X0029958Y0058232D02*
G03X0031271Y0056919I0001313J0000000D01*
G01X0002717Y0059436D02*
G03X0002581Y0059232I0000442J0000442D01*
G01X0019814Y0058310D02*
G03X0018914Y0059210I0000900J0000000D01*
G01X0020352Y0056894D02*
G03X0020183Y0056394I0000657J0000500D01*
G01X0020184Y0057394D02*
G03X0020352Y0056894I0000825J0000000D01*
G01X0014655Y0063964D02*
G03X0015409Y0063369I0000754J0000180D01*
G01X0012414Y0059058D02*
G03X0011914Y0059210I0000500J0000748D01*
G01X0011414Y0059058D02*
G03X0010914Y0059210I0000500J0000748D01*
G01X0011914D02*
G03X0011414Y0059058I0000000J0000900D01*
G01X0010414D02*
G03X0009914Y0059210I0000500J0000748D01*
G01X0007533Y0059126D02*
G03X0007356Y0059480I0000619J0000087D01*
G01X0002534Y0047594D02*
G03X0002717Y0047152I0000625J0000000D01*
G01X0004959Y0028624D02*
G03X0004084Y0027749I0000000J0000875D01*
G01X0006079Y0029169D02*
G03X0005250Y0028574I0000000J0000875D01*
G01X0006927Y0024809D02*
G03X0006954Y0025024I0000848J0000215D01*
G01X0004084Y0024479D02*
G03X0004959Y0023604I0000875J0000000D01*
G01X0004084Y0027749D02*
G03X0004274Y0027204I0000875J0000000D01*
G01X0012975Y0025518D02*
G03X0013468Y0025375I0000493J0000776D01*
G01X0005734Y0045794D02*
G03X0005584Y0046252I0000775J0000000D01*
G01X0016884Y0049722D02*
G03X0016959Y0049718I0000075J0000772D01*
G01X0029718Y0052453D02*
G03X0029508Y0052594I0000459J0000459D01*
G01X0029595Y0055244D02*
G03X0029608Y0055394I0000836J0000150D01*
G01X0027744Y0051534D02*
G03X0027617Y0051436I0000315J0000540D01*
G01X0030209Y0051694D02*
G03X0030018Y0052153I0000650J0000000D01*
G01X0029959Y0032319D02*
G03X0029209Y0031992I0000000J0001025D01*
G01X0019926Y0052347D02*
G03X0020134Y0052894I0000617J0000547D01*
G01X0021459Y0064064D02*
G03X0020634Y0063239I0000000J0000825D01*
G01X0015459Y0061719D02*
G03X0014534Y0060794I0000000J0000925D01*
G01X0015434Y0066794D02*
G03X0015634Y0066274I0000775J0000000D01*
G01X0012284Y0063239D02*
G03X0011459Y0064064I0000825J0000000D01*
G03X0010634Y0063239I0000000J0000825D01*
G01X0009050Y0043052D02*
G03X0009233Y0043494I0000441J0000442D01*
G01X0011122Y0042837D02*
G03X0012034Y0043394I0000000J0001025D01*
G01X0029208Y0030595D02*
G03X0029959Y0030268I0000751J0000699D01*
G01X0028519Y0030271D02*
G03X0029209Y0030595I0000060J0001023D01*
G01X0020352Y0050894D02*
G03X0020183Y0050394I0000657J0000500D01*
G01X0020352Y0048894D02*
G03X0020183Y0048394I0000657J0000500D01*
G01X0020352Y0052894D02*
G03X0020183Y0052394I0000657J0000500D01*
G01X0017100Y0017500D02*
G03X0017600Y0017662I0000000J0000850D01*
G01X0014569Y0019625D02*
G03X0014500Y0019500I0000531J0000375D01*
G01X0019317Y0023036D02*
G03X0019134Y0022594I0000442J0000442D01*
G01X0009284Y0026488D02*
G03X0009459Y0026469I0000175J0000806D01*
G01X0014914Y0059210D02*
G03X0014414Y0059058I0000000J0000900D01*
G03X0013914Y0059210I0000500J0000748D01*
G01X0002717Y0059436D02*
G03X0002581Y0059232I0000442J0000442D01*
G01X0004334Y0047418D02*
G03X0004176Y0047460I0000275J0000724D01*
G01X0004517Y0053936D02*
G03X0004334Y0053494I0000442J0000442D01*
G01X0001234Y0044670D02*
G03X0001709Y0044581I0000475J0001224D01*
G01X0005216Y0042837D02*
G03X0006234Y0043737I0000000J0001025D01*
Y0043987D02*
G03X0005216Y0044888I0001018J0000125D01*
G01X0017724Y0049845D02*
G03X0017540Y0049294I0000735J0000551D01*
G01X0015950Y0017513D02*
G03X0016100Y0017500I0000150J0000837D01*
G01X0007734Y0019765D02*
G03X0007243Y0018841I0000625J0000924D01*
G01X0010107Y0043712D02*
G03X0011122Y0042836I0001015J0000150D01*
G01X0004274Y0027204D02*
G03X0004084Y0026659I0000685J0000545D01*
G03X0004274Y0026114I0000875J0000000D01*
Y0025024D02*
G03X0004084Y0024479I0000685J0000545D01*
G01X0004517Y0053936D02*
G03X0004334Y0053494I0000442J0000442D01*
G01X0004184Y0045794D02*
G03X0004959Y0045019I0000775J0000000D01*
G03X0005734Y0045794I0000000J0000775D01*
G01X0012275Y0063119D02*
G03X0012284Y0063239I0000816J0000120D01*
G01X0005659Y0054819D02*
G03X0005217Y0054636I0000000J0000625D01*
G01X0008414Y0059058D02*
G03X0007914Y0059210I0000500J0000748D01*
G01X0027771Y0055894D02*
G03X0027609Y0055394I0000688J0000500D01*
G01X0010634Y0063239D02*
G03X0010642Y0063119I0000825J0000000D01*
G01X0020352Y0049894D02*
G03X0020183Y0049394I0000657J0000500D01*
G01X0009712Y0024110D02*
G03X0009100Y0023244I0000306J0000866D01*
G01X0016100Y0017500D02*
G03X0016600Y0017662I0000000J0000850D01*
G01X0002709Y0017469D02*
G03X0003074Y0018294I0000750J0000825D01*
G01X0002581Y0059232D02*
G03X0001731Y0059544I0000850J0001000D01*
G01X0014534Y0060794D02*
G03X0015384Y0059872I0000925J0000000D01*
G01X0016956Y0021375D02*
G03X0017025Y0021489I0000497J0000378D01*
G01X0015409Y0063369D02*
G03X0015634Y0063402I0000000J0000775D01*
G01X0017734Y0065944D02*
G03X0016980Y0066719I0000775J0000000D01*
G01X0018484Y0064994D02*
G03X0017713Y0065769I0000775J0000000D01*
G01X0016984Y0066794D02*
G03X0016209Y0067569I0000775J0000000D01*
G03X0015434Y0066794I0000000J0000775D01*
G01X0023279Y0067519D02*
G03X0023259Y0067519I0000020J0000775D01*
G01X0016981Y0066719D02*
G03X0016985Y0066794I0000772J0000075D01*
G01X0020134Y0052894D02*
G03X0020115Y0053069I0000825J0000000D01*
G01X0001731Y0056920D02*
G03X0002534Y0057193I0000000J0001312D01*
G01X0014284Y0026716D02*
G03X0013468Y0027213I0000816J0000422D01*
G01X0028574Y0061794D02*
G03X0028388Y0062410I0001115J0000000D01*
G01X0029156Y0023144D02*
G03X0029459Y0023794I0000547J0000650D01*
G01X0031254Y0059544D02*
G03X0029959Y0058232I0000017J0001312D01*
G01X0029459Y0023794D02*
G03X0029296Y0024294I0000850J0000000D01*
G01X0026600Y0017600D02*
G03X0027059Y0017790I0000000J0000650D01*
G01X0018100Y0017500D02*
G03X0018950Y0018350I0000000J0000850D01*
G01X0016600Y0017662D02*
G03X0017100Y0017500I0000500J0000688D01*
G01X0017540Y0049294D02*
G03X0018459Y0048375I0000919J0000000D01*
G03X0019378Y0049294I0000000J0000919D01*
G01X0004196Y0045931D02*
G03X0004184Y0045794I0000763J0000137D01*
G01X0029459Y0024794D02*
G03X0029445Y0024944I0000850J0000000D01*
G01X0030259Y0027669D02*
G03X0030700Y0027852I0000000J0000625D01*
G01X0018866Y0050470D02*
G03X0019378Y0051294I0000407J0000824D01*
G01X0016038Y0023007D02*
G03X0015459Y0023212I0000579J0000713D01*
G01X0017468Y0021375D02*
G03X0018387Y0022294I0000000J0000919D01*
G01X0015459Y0023213D02*
G03X0014540Y0022294I0000000J0000919D01*
G01X0014467Y0027986D02*
G03X0014284Y0027544I0000442J0000442D01*
G01X0014540Y0030294D02*
G03X0015459Y0029375I0000919J0000000D01*
G01X0015034Y0032044D02*
G03X0015217Y0031602I0000625J0000000D01*
G01X0015459Y0031213D02*
G03X0014540Y0030294I0000000J0000919D01*
G01X0020549Y0026294D02*
G03X0021468Y0025375I0000919J0000000D01*
G03X0022334Y0025987I0000000J0000919D01*
G01X0019459Y0025375D02*
G03X0020378Y0026294I0000000J0000919D01*
G01X0020377D02*
G03X0019459Y0027212I0000918J0000000D01*
G01X0009099Y0023244D02*
G03X0010018Y0022325I0000919J0000000D01*
G01X0007090Y0023244D02*
G03X0008009Y0022325I0000919J0000000D01*
G03X0008928Y0023244I0000000J0000919D01*
G01X0008927D02*
G03X0008009Y0024162I0000918J0000000D01*
Y0024163D02*
G03X0007090Y0023244I0000000J0000919D01*
G01X0029296Y0024294D02*
G03X0029459Y0024794I0000687J0000500D01*
G01X0029156Y0026644D02*
G03X0029459Y0027294I0000547J0000650D01*
G01X0015634Y0064885D02*
G03X0015470Y0064916I0000225J0000741D01*
G01X0009908Y0030642D02*
G03X0009725Y0030200I0000442J0000442D01*
G01X0012034Y0034488D02*
G03X0011122Y0035045I0000912J0000468D01*
G01X0019084Y0049994D02*
G03X0018900Y0050436I0000625J0000000D01*
G01X0020434Y0030694D02*
G03X0020284Y0031152I0000775J0000000D01*
G01X0019377Y0051294D02*
G03X0019331Y0051582I0000918J0000000D01*
G01X0020352Y0051894D02*
G03X0020183Y0051394I0000657J0000500D01*
G01X0016958Y0078131D02*
G03X0016459Y0078293I0000499J0000687D01*
G01X0020202Y0057569D02*
G03X0020183Y0057394I0000807J0000175D01*
G01X0003074Y0018294D02*
G03X0001959Y0019409I0001115J0000000D01*
G01X0030959D02*
G03X0029844Y0018294I0000000J0001115D01*
G01X0028459Y0057244D02*
G03X0027609Y0056394I0000000J0000850D01*
G01X0029609Y0055394D02*
G03X0029446Y0055894I0000850J0000000D01*
G01X0027810Y0053544D02*
G03X0027608Y0052994I0000649J0000550D01*
G01X0029609Y0056394D02*
G03X0028759Y0057244I0000850J0000000D01*
G01X0027609Y0056394D02*
G03X0027771Y0055894I0000850J0000000D01*
G01X0018684Y0025801D02*
G03X0019459Y0025375I0000775J0000493D01*
G01X0015344Y0069294D02*
G03X0016459Y0068179I0001115J0000000D01*
G03X0017574Y0069294I0000000J0001115D01*
G03X0016459Y0070409I0001115J0000000D01*
G03X0015344Y0069294I0000000J0001115D01*
G01X0004344Y0061794D02*
G03X0005459Y0060679I0001115J0000000D01*
G03X0006574Y0061794I0000000J0001115D01*
G03X0005459Y0062909I0001115J0000000D01*
G01X0026344Y0061794D02*
G03X0027459Y0060679I0001115J0000000D01*
G03X0028574Y0061794I0000000J0001115D01*
G01X0027459Y0062909D02*
G03X0026344Y0061794I0000000J0001115D01*
G01X0015384Y0059078D02*
G03X0014914Y0059210I0000470J0000768D01*
G01X0027576Y0035378D02*
G03X0028234Y0036144I0000117J0000766D01*
G01X0020284Y0033794D02*
G03X0020100Y0034236I0000625J0000000D01*
G01X0001435Y0036776D02*
G03X0002460Y0035751I0001025J0000000D01*
G03X0003485Y0036776I0000000J0001025D01*
G03X0002460Y0037801I0001025J0000000D01*
G03X0001435Y0036776I0000000J0001025D01*
Y0041107D02*
G03X0002460Y0040082I0001025J0000000D01*
G03X0003485Y0041107I0000000J0001025D01*
G03X0002460Y0042132I0001025J0000000D01*
G03X0001435Y0041107I0000000J0001025D01*
G01X0010097Y0034020D02*
G03X0011122Y0032995I0001025J0000000D01*
G01X0004274Y0026114D02*
G03X0004084Y0025569I0000685J0000545D01*
G01X0005250Y0028574D02*
G03X0004959Y0028624I0000291J0000825D01*
G01X0011459Y0027213D02*
G03X0010975Y0027075I0000000J0000919D01*
G01X0006829Y0025489D02*
G03X0007270Y0025672I0000000J0000625D01*
G01X0006829Y0025489D02*
G03X0007270Y0025672I0000000J0000625D01*
G01X0010914Y0059210D02*
G03X0010414Y0059058I0000000J0000900D01*
G01X0022184Y0024794D02*
G03X0022959Y0024019I0000775J0000000D01*
G01X0021634Y0064045D02*
G03X0021459Y0064064I0000175J0000806D01*
G01X0005459Y0062909D02*
G03X0004842Y0062723I0000000J0001115D01*
G01X0013867Y0071586D02*
G03X0013684Y0071144I0000442J0000442D01*
Y0065194D02*
G03X0013867Y0064752I0000625J0000000D01*
G01X0013684Y0065194D02*
G03X0013867Y0064752I0000625J0000000D01*
G01X0029446Y0055894D02*
G03X0029609Y0056394I0000687J0000500D01*
G01X0009459Y0028119D02*
G03X0009284Y0028100I0000000J0000825D01*
G01X0017914Y0059210D02*
G03X0017484Y0059101I0000000J0000900D01*
G01X0020184Y0055394D02*
G03X0020352Y0054894I0000825J0000000D01*
G01X0016459Y0078294D02*
G03X0016309Y0078280I0000000J0000850D01*
G01X0007533Y0059126D02*
G03X0007356Y0059480I0000619J0000087D01*
G01X0031271Y0056920D02*
G03X0031784Y0057024I0000000J0001312D01*
G01X0027609Y0051994D02*
G03X0027744Y0051534I0000850J0000000D01*
G01X0028459Y0032319D02*
G03X0027709Y0031992I0000000J0001025D01*
G01X0008000Y0026402D02*
G03X0008059Y0026469I0000441J0000442D01*
G01X0018500Y0023702D02*
G03X0018683Y0024144I0000441J0000442D01*
G01X0020559Y0024019D02*
G03X0020117Y0023836I0000000J0000625D01*
G01X0028334Y0042353D02*
G03X0028459Y0042344I0000125J0000866D01*
G01X0019640Y0017790D02*
G03X0020100Y0017599I0000460J0000460D01*
G01X0012438Y0017469D02*
G03X0013017Y0018447I0000536J0000978D01*
G01X0014569Y0019625D02*
G03X0014500Y0019500I0000531J0000375D01*
G01X0012792Y0024642D02*
G03X0012975Y0025084I0000442J0000442D01*
G01X0011773Y0030739D02*
G03X0011725Y0030499I0000577J0000240D01*
G01X0009725Y0025008D02*
G03X0009575Y0024550I0000625J0000458D01*
G01X0011105Y0024724D02*
G03X0010975Y0025008I0000755J0000174D01*
G01X0010725Y0022657D02*
G03X0010950Y0022802I0000216J0000587D01*
G01X0006954Y0025024D02*
G03X0006821Y0025489I0000875J0000000D01*
G01X0010725Y0022657D02*
G03X0010950Y0022802I0000216J0000587D01*
G01X0019084Y0049994D02*
G03X0018900Y0050436I0000625J0000000D01*
G01X0014540Y0022294D02*
G03X0014582Y0022019I0000919J0000000D01*
G01X0019377Y0049294D02*
G03X0019084Y0049967I0000918J0000000D01*
G01X0029959Y0030269D02*
G03X0030128Y0030283I0000000J0001025D01*
G01X0018750Y0029502D02*
G03X0018933Y0029944I0000441J0000442D01*
G01X0018500Y0023702D02*
G03X0018683Y0024144I0000441J0000442D01*
G01X0003293Y0046576D02*
G03X0004059Y0045919I0000766J0000118D01*
G01X0011459Y0025375D02*
G03X0011725Y0025415I0000000J0000919D01*
G01X0022959Y0024019D02*
G03X0023034Y0024022I0000000J0000775D01*
G01X0009459Y0022019D02*
G03X0009017Y0021836I0000000J0000625D01*
G01X0019833Y0034503D02*
G03X0020559Y0034368I0000726J0001891D01*
G01X0007917Y0020736D02*
G03X0007734Y0020294I0000442J0000442D01*
G01X0007917Y0020736D02*
G03X0007734Y0020294I0000442J0000442D01*
G01X0019376Y0057388D02*
G03X0019814Y0058160I0000462J0000772D01*
G01X0030209Y0051694D02*
G03X0030018Y0052153I0000650J0000000D01*
G01X0027744Y0051534D02*
G03X0027617Y0051436I0000315J0000540D01*
G01X0028834Y0045894D02*
G03X0028384Y0046597I0000775J0000000D01*
G01X0028958Y0042501D02*
G03X0029459Y0042343I0000501J0000718D01*
G01X0028059Y0045119D02*
G03X0028834Y0045894I0000000J0000775D01*
G01X0028075Y0062723D02*
G03X0027459Y0062909I0000616J0000929D01*
G01X0027384Y0045513D02*
G03X0028059Y0045119I0000675J0000381D01*
G01X0004267Y0057260D02*
G03X0004461Y0056854I0000647J0000061D01*
G01X0001731Y0059544D02*
G03X0001662Y0059542I0000000J0001312D01*
G01X0008914Y0059210D02*
G03X0008414Y0059058I0000000J0000900D01*
G01X0007050Y0059786D02*
G03X0006609Y0059968I0000441J0000442D01*
G01X0007050Y0059786D02*
G03X0006609Y0059968I0000441J0000442D01*
G01X0002534Y0047594D02*
G03X0002717Y0047152I0000625J0000000D01*
G01X0003509Y0059969D02*
G03X0003067Y0059786I0000000J0000625D01*
G01X0030259Y0027669D02*
G03X0030700Y0027852I0000000J0000625D01*
G01X0016959Y0049719D02*
G03X0017561Y0050007I0000000J0000775D01*
G01X0029459Y0027294D02*
G03X0029371Y0027669I0000850J0000000D01*
G01X0028059Y0045119D02*
G03X0028834Y0045894I0000000J0000775D01*
G01X0029609Y0052994D02*
G03X0029407Y0053544I0000850J0000000D01*
G01X0028909Y0044119D02*
G03X0028459Y0044244I0000450J0000750D01*
G01X0027384Y0045513D02*
G03X0028059Y0045119I0000675J0000381D01*
G01X0019750Y0052002D02*
G03X0019926Y0052347I0000441J0000442D01*
G01X0009575Y0024550D02*
G03X0009712Y0024110I0000775J0000000D01*
G01X0011105Y0024724D02*
G03X0010975Y0025008I0000755J0000174D01*
G01X0013017Y0018841D02*
G03X0012879Y0019379I0001115J0000000D01*
G01X0018386Y0022294D02*
G03X0017902Y0023103I0000918J0000000D01*
G01X0019317Y0023036D02*
G03X0019134Y0022594I0000442J0000442D01*
G01X0020559Y0024019D02*
G03X0020117Y0023836I0000000J0000625D01*
G01X0028834Y0045894D02*
G03X0028384Y0046597I0000775J0000000D01*
G01X0026959Y0032319D02*
G03X0026484Y0032202I0000000J0001025D01*
G01X0027771Y0052494D02*
G03X0027609Y0051994I0000688J0000500D01*
G01X0027384Y0058794D02*
G03X0027200Y0059236I0000625J0000000D01*
G01X0017714Y0065769D02*
G03X0017734Y0065944I0000755J0000175D01*
G01X0018334Y0064536D02*
G03X0018484Y0064994I0000625J0000458D01*
G01X0020284Y0033794D02*
G03X0020100Y0034236I0000625J0000000D01*
G01X0019659Y0029919D02*
G03X0020434Y0030694I0000000J0000775D01*
G01X0020843Y0026967D02*
G03X0020550Y0026294I0000625J0000673D01*
G01X0022334Y0025252D02*
G03X0022184Y0024794I0000625J0000458D01*
G01X0020184Y0054394D02*
G03X0020352Y0053894I0000825J0000000D01*
G01X0012914Y0059210D02*
G03X0012414Y0059058I0000000J0000900D01*
G01X0021026Y0033444D02*
G03X0020844Y0033003I0000442J0000441D01*
G01X0022600Y0023836D02*
G03X0022159Y0024018I0000441J0000442D01*
G01X0027744Y0051534D02*
G03X0027617Y0051436I0000315J0000540D01*
G01X0029459Y0042344D02*
G03X0029536Y0042347I0000000J0000875D01*
G01X0012792Y0024642D02*
G03X0012975Y0025084I0000442J0000442D01*
G01X0020184Y0050394D02*
G03X0020352Y0049894I0000825J0000000D01*
G01X0020184Y0051394D02*
G03X0020352Y0050894I0000825J0000000D01*
G01X0020184Y0052394D02*
G03X0020352Y0051894I0000825J0000000D01*
G01X0009725Y0028075D02*
G03X0009459Y0028119I0000266J0000781D01*
G01X0018914Y0059210D02*
G03X0018414Y0059058I0000000J0000900D01*
G01X0020184Y0048394D02*
G03X0020274Y0048019I0000825J0000000D01*
G01X0020184Y0056394D02*
G03X0020352Y0055894I0000825J0000000D01*
G01X0013914Y0059210D02*
G03X0013414Y0059058I0000000J0000900D01*
G01X0009050Y0043052D02*
G03X0009233Y0043494I0000441J0000442D01*
G01X0009234Y0043822D02*
G03X0009750Y0043625I0000516J0000578D01*
G01X0008000Y0026402D02*
G03X0008059Y0026469I0000441J0000442D01*
G01X0001709Y0047206D02*
G03X0001234Y0047117I0000000J0001312D01*
G01X0021559Y0034369D02*
G03X0021998Y0034417I0000000J0002025D01*
G01X0009914Y0059210D02*
G03X0009414Y0059058I0000000J0000900D01*
G01X0003509Y0059969D02*
G03X0003067Y0059786I0000000J0000625D01*
G01X0004959Y0023604D02*
G03X0005204Y0023639I0000000J0000875D01*
G01X0004084Y0025569D02*
G03X0004274Y0025024I0000875J0000000D01*
G01X0028234Y0036144D02*
G03X0028084Y0036602I0000775J0000000D01*
G01X0031259Y0047206D02*
G03X0030209Y0046681I0000000J0001312D01*
G01X0029208Y0031992D02*
G03X0028459Y0032318I0000749J0000698D01*
G01X0020184Y0053394D02*
G03X0020352Y0052894I0000825J0000000D01*
G01X0019750Y0052002D02*
G03X0019926Y0052347I0000441J0000442D01*
G01X0001234Y0057018D02*
G03X0001731Y0056920I0000497J0001214D01*
G01X0018184Y0056481D02*
G03X0018659Y0056319I0000475J0000613D01*
G01X0015634Y0061702D02*
G03X0015459Y0061719I0000175J0000908D01*
G01X0023259Y0067519D02*
G03X0022484Y0066753I0000000J0000775D01*
G01X0027384Y0058794D02*
G03X0027200Y0059236I0000625J0000000D01*
G01X0004059Y0045919D02*
G03X0004196Y0045931I0000000J0000775D01*
G01X0009725Y0025008D02*
G03X0009575Y0024550I0000625J0000458D01*
G01X0020352Y0053894D02*
G03X0020183Y0053394I0000657J0000500D01*
G01X0004529Y0062410D02*
G03X0004343Y0061794I0000930J0000616D01*
G01X0017784Y0073294D02*
G03X0017981Y0072817I0000675J0000000D01*
G01X0017784Y0073294D02*
G03X0017981Y0072817I0000675J0000000D01*
G01X0010018Y0022325D02*
G03X0010725Y0022657I0000000J0000919D01*
G01X0019459Y0027213D02*
G03X0018684Y0026787I0000000J0000919D01*
G01X0015693Y0023676D02*
G03X0016125Y0023094I0000766J0000118D01*
G01X0023034Y0023906D02*
G03X0022809Y0023627I0000475J0000612D01*
G01X0014284Y0025344D02*
G03X0014467Y0024902I0000625J0000000D01*
Y0027986D02*
G03X0014284Y0027544I0000442J0000442D01*
Y0025344D02*
G03X0014467Y0024902I0000625J0000000D01*
G01X0015459Y0029375D02*
G03X0015834Y0029455I0000000J0000919D01*
G01X0015034Y0032044D02*
G03X0015217Y0031602I0000625J0000000D01*
G01X0013867Y0071586D02*
G03X0013684Y0071144I0000442J0000442D01*
G01X0028459Y0044244D02*
G03X0028334Y0044235I0000000J0000875D01*
G01X0009908Y0030642D02*
G03X0009725Y0030200I0000442J0000442D01*
G01X0009575Y0024550D02*
G03X0009712Y0024110I0000775J0000000D01*
G01X0009459Y0026469D02*
G03X0009725Y0026513I0000000J0000825D01*
G01X0004267Y0057260D02*
G03X0004461Y0056854I0000647J0000061D01*
G01X0009414Y0059058D02*
G03X0008914Y0059210I0000500J0000748D01*
G01X0016956Y0021375D02*
G03X0017025Y0021489I0000497J0000378D01*
G03X0017468Y0021375I0000443J0000805D01*
G01X0022600Y0023836D02*
G03X0022159Y0024018I0000441J0000442D01*
G01X0026600Y0017600D02*
G03X0027059Y0017790I0000000J0000650D01*
G01X0019640D02*
G03X0020100Y0017599I0000460J0000460D01*
G01X0029844Y0018294D02*
G03X0030208Y0017469I0001115J0000000D01*
G01X0029459Y0020294D02*
G03X0029296Y0020794I0000850J0000000D01*
G03X0029459Y0021294I0000687J0000500D01*
G03X0029445Y0021444I0000850J0000000D01*
G01X0030309Y0032257D02*
G03X0029959Y0032319I0000350J0000963D01*
G01X0028459Y0042344D02*
G03X0028959Y0042501I0000000J0000875D01*
G01X0028720Y0019451D02*
G03X0029459Y0020294I0000111J0000843D01*
G01X0031784Y0019044D02*
G03X0030959Y0019409I0000825J0000750D01*
G01X0018750Y0029502D02*
G03X0018933Y0029944I0000441J0000442D01*
G01X0020634Y0063239D02*
G03X0020642Y0063119I0000825J0000000D01*
G01X0013468Y0027213D02*
G03X0012975Y0027069I0000000J0000919D01*
G01X0013414Y0059058D02*
G03X0012914Y0059210I0000500J0000748D01*
G01X0031784Y0047097D02*
G03X0031259Y0047207I0000525J0001203D01*
G01X0027744Y0051534D02*
G03X0027617Y0051436I0000315J0000540D01*
G01X0027609Y0052994D02*
G03X0027771Y0052494I0000850J0000000D01*
G01X0029718Y0052453D02*
G03X0029508Y0052594I0000459J0000459D01*
G01X0011122Y0032995D02*
G03X0012034Y0033552I0000000J0001025D01*
G01X0009234Y0043822D02*
G03X0009750Y0043625I0000516J0000578D01*
G03X0010107Y0043712I0000000J0000775D01*
G01X0018414Y0059058D02*
G03X0017914Y0059210I0000500J0000748D01*
G01X0019434Y0057094D02*
G03X0019376Y0057388I0000775J0000000D01*
G01X0018659Y0056319D02*
G03X0019434Y0057094I0000000J0000775D01*
G01X0020352Y0055894D02*
G03X0020183Y0055394I0000657J0000500D01*
G01X0017600Y0017662D02*
G03X0018100Y0017500I0000500J0000688D01*
G01X0007243Y0018447D02*
G03X0007822Y0017469I0001116J0000000D01*
G01X0009459Y0022019D02*
G03X0009017Y0021836I0000000J0000625D01*
G01X0011725Y0027173D02*
G03X0011459Y0027212I0000266J0000879D01*
G01X0013468Y0025375D02*
G03X0014284Y0025872I0000000J0000919D01*
G01X0018934Y0030420D02*
G03X0019659Y0029919I0000725J0000274D01*
G01X0020352Y0054894D02*
G03X0020183Y0054394I0000657J0000500D01*
G01X0017784Y0078229D02*
G03X0017459Y0078294I0000325J0000785D01*
G01X0017084Y0076381D02*
G03X0017459Y0076294I0000375J0000763D01*
Y0078294D02*
G03X0016959Y0078131I0000000J0000850D01*
G01X0001959Y0019409D02*
G03X0001234Y0019141I0000000J0001115D01*
G01X0027609Y0055394D02*
G03X0027622Y0055244I0000850J0000000D01*
G01X0007914Y0059210D02*
G03X0007533Y0059126I0000000J0000900D01*
G01X0029509Y0052594D02*
G03X0029609Y0052994I0000750J0000400D01*
G01X0017459Y0076294D02*
G03X0017784Y0076358I0000000J0000850D01*
G01X0027708Y0031992D02*
G03X0026959Y0032318I0000749J0000698D01*
G01X0021026Y0033444D02*
G03X0020844Y0033003I0000442J0000441D01*
G01X0005659Y0054819D02*
G03X0005217Y0054636I0000000J0000625D01*
G01X0010975Y0025513D02*
G03X0011459Y0025375I0000484J0000781D01*
G01X0006234Y0029155D02*
G03X0006079Y0029169I0000155J0000861D01*
G01X0011773Y0030739D02*
G03X0011725Y0030499I0000577J0000240D01*
G01X0020184Y0049394D02*
G03X0020352Y0048894I0000825J0000000D01*
G01X0015620Y0031198D02*
G03X0015459Y0031212I0000161J0000904D01*
G01X0009750Y0043625D02*
G03X0010107Y0043712I0000000J0000775D01*
G54D54*
G01X0028459Y0027294D02*
Y0025794D01*
X0029959Y0031294D02*
Y0041294D01*
X0028459Y0042794D01*
Y0043294D01*
X0015459Y0060794D02*
X0014959D01*
X0012513Y0063239D01*
X0011459D01*
X0019309Y0053894D02*
X0019409Y0053994D01*
Y0057944D01*
X0019117Y0058235D01*
X0018914D01*
X0019309Y0053894D02*
X0019659D01*
X0020159Y0053394D01*
Y0051794D01*
X0020559Y0051394D01*
X0021109D01*
X0024109Y0052394D02*
X0023459D01*
X0023359Y0052294D01*
Y0050494D01*
X0023159Y0050294D01*
X0023109D01*
X0028609Y0052994D02*
X0027859D01*
X0027259Y0052394D01*
Y0045094D01*
X0028459Y0043894D01*
Y0043294D01*
X0008009Y0023244D02*
X0007959Y0023294D01*
Y0024094D01*
X0009459Y0025594D01*
Y0027294D01*
X0015459Y0022294D02*
X0015409D01*
X0008350D01*
X0008009Y0022635D01*
Y0023244D01*
X0028459Y0025794D02*
X0029259D01*
X0029559Y0025494D01*
Y0022594D01*
X0029259Y0022294D01*
X0028459D01*
X0015459Y0030294D02*
X0014959Y0029794D01*
Y0028594D01*
X0014309Y0027944D01*
Y0023394D01*
X0015409Y0022294D01*
X0015459D01*
X0006636Y0055867D02*
X0006410D01*
X0004914Y0057321D01*
Y0058235D01*
X0015100Y0018500D02*
Y0019250D01*
X0015550Y0019700D01*
X0018650D01*
X0020100Y0018250D01*
X0026600D01*
X0028459Y0020109D01*
Y0020294D01*
X0027659D01*
X0027459Y0020494D01*
Y0023794D01*
X0028459D01*
X0029459Y0043294D02*
X0029509D01*
X0030959Y0041844D01*
Y0030194D01*
X0030059Y0029294D01*
X0028459D01*
Y0023794D02*
X0027459D01*
Y0028694D01*
X0028059Y0029294D01*
X0028459D01*
X0023109Y0049294D02*
X0023259D01*
Y0049594D01*
X0024059Y0050394D01*
X0024109D01*
X0029459Y0043294D02*
X0029559Y0043394D01*
Y0051694D01*
X0029259Y0051994D01*
X0028609D01*
G54D55*
G01X0008880Y0010680D02*
Y0010770D01*
X0008800Y0010850D02*
X0008790D01*
X0002690Y0010910D02*
X0002550Y0011050D01*
X0012260Y0010890D02*
X0012250Y0010900D01*
Y0012140D02*
X0012230Y0012120D01*
X0012260Y0002790D02*
X0012250Y0002800D01*
Y0004040D02*
X0012230Y0004020D01*
X0008110Y0012100D02*
X0011620D01*
X0011630Y0012110D01*
Y0012120D01*
X0008110Y0004000D02*
X0011620D01*
X0011630Y0004010D01*
Y0004020D01*
X0015550Y0011680D02*
X0015520Y0011650D01*
X0015550Y0011620D01*
Y0011490D01*
X0008880Y0002580D02*
Y0002670D01*
X0008800Y0002750D02*
X0008790D01*
X0002690Y0002810D02*
X0002550Y0002950D01*
X0015550Y0003580D02*
X0015520Y0003550D01*
X0015550Y0003520D01*
Y0003390D01*
X0012230Y0004020D02*
X0012250Y0004040D01*
X0013360Y0005150D02*
Y0005180D01*
Y0013280D02*
Y0013250D01*
X0012250Y0012140D02*
X0012230Y0012120D01*
G54D58*
G01X0020964Y0041500D02*
X0018015D01*
X0017509Y0040994D01*
Y0035144D01*
G54D59*
G01X0017811Y0010816D02*
X0017478D01*
X0017811Y0010843D02*
Y0010677D01*
X0017755Y0010621D01*
X0017700D01*
X0017644Y0010649D01*
Y0010816D02*
Y0010649D01*
X0017589Y0010621D01*
X0017533D01*
X0017478Y0010677D01*
Y0010843D01*
X0017533Y0011001D02*
X0017478Y0011029D01*
Y0011196D01*
X0017533Y0011223D01*
X0017589D01*
X0017644Y0011196D01*
Y0011029D01*
X0017700Y0011001D01*
X0017755D01*
X0017811Y0011029D01*
Y0011196D01*
X0017755Y0011223D01*
X0017478Y0011381D02*
X0017755D01*
X0017811Y0011409D01*
Y0011576D01*
X0017755Y0011603D01*
X0017478D01*
X0017644Y0011761D02*
Y0011983D01*
X0017811Y0012252D02*
X0017478D01*
Y0012141D02*
Y0012363D01*
X0017644Y0012604D02*
X0017811Y0012521D01*
X0017644Y0012743D02*
Y0012577D01*
X0017589Y0012521D01*
X0017533D01*
X0017478Y0012577D01*
Y0012743D01*
X0017811D01*
X0017700Y0012901D02*
Y0013123D01*
X0017811Y0012901D02*
X0017644D01*
X0017478Y0012984D01*
Y0013040D01*
X0017644Y0013123D01*
X0017811D01*
X0017533Y0013281D02*
X0017478Y0013309D01*
Y0013476D01*
X0017533Y0013503D01*
X0017589D01*
X0017644Y0013476D01*
Y0013309D01*
X0017700Y0013281D01*
X0017755D01*
X0017811Y0013309D01*
Y0013476D01*
X0017755Y0013503D01*
X0017478Y0013661D02*
X0017755D01*
X0017811Y0013689D01*
Y0013856D01*
X0017755Y0013883D01*
X0017478D01*
X0017811Y0002716D02*
X0017478D01*
X0017811Y0002743D02*
Y0002577D01*
X0017755Y0002521D01*
X0017700D01*
X0017644Y0002549D01*
Y0002716D02*
Y0002549D01*
X0017589Y0002521D01*
X0017533D01*
X0017478Y0002577D01*
Y0002743D01*
X0017533Y0002901D02*
X0017478Y0002929D01*
Y0003096D01*
X0017533Y0003123D01*
X0017589D01*
X0017644Y0003096D01*
Y0002929D01*
X0017700Y0002901D01*
X0017755D01*
X0017811Y0002929D01*
Y0003096D01*
X0017755Y0003123D01*
X0017478Y0003281D02*
X0017755D01*
X0017811Y0003309D01*
Y0003476D01*
X0017755Y0003503D01*
X0017478D01*
X0017644Y0003661D02*
Y0003883D01*
X0017811Y0004152D02*
X0017478D01*
Y0004041D02*
Y0004263D01*
X0017644Y0004504D02*
X0017811Y0004421D01*
X0017644Y0004643D02*
Y0004477D01*
X0017589Y0004421D01*
X0017533D01*
X0017478Y0004477D01*
Y0004643D01*
X0017811D01*
X0017700Y0004801D02*
Y0005023D01*
X0017811Y0004801D02*
X0017644D01*
X0017478Y0004884D01*
Y0004940D01*
X0017644Y0005023D01*
X0017811D01*
X0017533Y0005181D02*
X0017478Y0005209D01*
Y0005376D01*
X0017533Y0005403D01*
X0017589D01*
X0017644Y0005376D01*
Y0005209D01*
X0017700Y0005181D01*
X0017755D01*
X0017811Y0005209D01*
Y0005376D01*
X0017755Y0005403D01*
X0017478Y0005561D02*
X0017755D01*
X0017811Y0005589D01*
Y0005756D01*
X0017755Y0005783D01*
X0017478D01*
G54D60*
G01X0002393Y0013894D02*
X0002338Y0013839D01*
X0002227D01*
X0002171Y0013894D01*
Y0013950D01*
X0002282Y0014061D01*
X0002171Y0014172D01*
X0002393D01*
X0002597Y0013839D02*
X0002541D01*
Y0013894D01*
X0002597D01*
Y0013839D01*
X0003022Y0013894D02*
X0002967Y0013839D01*
X0002856D01*
X0002800Y0013894D01*
Y0013950D01*
X0002911Y0014061D01*
X0002800Y0014172D01*
X0003022D01*
X0002393Y0005794D02*
X0002338Y0005739D01*
X0002227D01*
X0002171Y0005794D01*
Y0005850D01*
X0002282Y0005961D01*
X0002171Y0006072D01*
X0002393D01*
X0002597Y0005739D02*
X0002541D01*
Y0005794D01*
X0002597D01*
Y0005739D01*
X0003022Y0005794D02*
X0002967Y0005739D01*
X0002856D01*
X0002800Y0005794D01*
Y0005850D01*
X0002911Y0005961D01*
X0002800Y0006072D01*
X0003022D01*
G54D61*
G01X0001768Y0012399D02*
X0001657D01*
X0001434Y0012288D01*
X0001657Y0012177D01*
X0001768D01*
X0001434Y0011870D02*
X0001490Y0011814D01*
X0001546Y0011787D01*
X0001657D01*
X0001712Y0011814D01*
X0001768Y0011870D01*
Y0011926D01*
X0001712Y0011981D01*
X0001657Y0012009D01*
X0001546D01*
X0001490Y0011981D01*
X0001434Y0011926D01*
Y0011870D01*
X0001405Y0014336D02*
X0001461Y0014309D01*
X0001683D01*
X0001739Y0014336D01*
Y0014503D01*
X0001683Y0014531D01*
X0001461D01*
X0001405Y0014503D01*
Y0014336D01*
Y0014141D02*
Y0014030D01*
Y0014085D02*
X0001739D01*
Y0014141D02*
Y0014030D01*
X0001461Y0013807D02*
X0001405Y0013779D01*
Y0013612D01*
X0001461Y0013584D01*
X0001683D01*
X0001739Y0013612D01*
Y0013779D01*
X0001683Y0013807D01*
X0001461Y0013417D02*
X0001405Y0013389D01*
Y0013222D01*
X0001461Y0013194D01*
X0001683D01*
X0001739Y0013222D01*
Y0013389D01*
X0001683Y0013417D01*
X0001739Y0013027D02*
X0001628D01*
X0001405Y0012915D01*
X0001628Y0012804D01*
X0001739D01*
X0001435Y0011241D02*
X0001769D01*
X0001435Y0011213D02*
Y0011380D01*
X0001547Y0011435D01*
X0001658D01*
X0001769Y0011380D01*
Y0011213D01*
X0001435Y0011045D02*
X0001769Y0010879D01*
Y0011045D02*
X0001435Y0010879D01*
Y0010572D02*
X0001769D01*
Y0010683D02*
Y0010461D01*
X0001768Y0004299D02*
X0001657D01*
X0001434Y0004188D01*
X0001657Y0004077D01*
X0001768D01*
X0001434Y0003770D02*
X0001490Y0003714D01*
X0001546Y0003687D01*
X0001657D01*
X0001712Y0003714D01*
X0001768Y0003770D01*
Y0003826D01*
X0001712Y0003881D01*
X0001657Y0003909D01*
X0001546D01*
X0001490Y0003881D01*
X0001434Y0003826D01*
Y0003770D01*
X0001405Y0006236D02*
X0001461Y0006209D01*
X0001683D01*
X0001739Y0006236D01*
Y0006403D01*
X0001683Y0006431D01*
X0001461D01*
X0001405Y0006403D01*
Y0006236D01*
Y0006041D02*
Y0005930D01*
Y0005985D02*
X0001739D01*
Y0006041D02*
Y0005930D01*
X0001461Y0005707D02*
X0001405Y0005679D01*
Y0005512D01*
X0001461Y0005484D01*
X0001683D01*
X0001739Y0005512D01*
Y0005679D01*
X0001683Y0005707D01*
X0001461Y0005317D02*
X0001405Y0005289D01*
Y0005122D01*
X0001461Y0005094D01*
X0001683D01*
X0001739Y0005122D01*
Y0005289D01*
X0001683Y0005317D01*
X0001739Y0004927D02*
X0001628D01*
X0001405Y0004815D01*
X0001628Y0004704D01*
X0001739D01*
X0001435Y0003141D02*
X0001769D01*
X0001435Y0003113D02*
Y0003280D01*
X0001547Y0003335D01*
X0001658D01*
X0001769Y0003280D01*
Y0003113D01*
X0001435Y0002945D02*
X0001769Y0002779D01*
Y0002945D02*
X0001435Y0002779D01*
Y0002472D02*
X0001769D01*
Y0002583D02*
Y0002361D01*
G54D62*
G01X0005090Y0015567D02*
Y0015433D01*
X0005223Y0015167D01*
X0005357Y0015433D01*
Y0015567D01*
X0005817Y0015233D02*
X0005783Y0015167D01*
X0005583D01*
X0005550Y0015233D01*
Y0015367D01*
X0005617Y0015433D01*
X0005817D01*
Y0015567D01*
X0005550D01*
X0001923Y0009017D02*
Y0009417D01*
X0001957Y0009017D02*
X0001757D01*
X0001690Y0009150D01*
Y0009283D01*
X0001757Y0009417D01*
X0001957D01*
X0002150Y0009017D02*
X0002350Y0009417D01*
X0002150D02*
X0002350Y0009017D01*
X0002677Y0009217D02*
X0002577Y0009017D01*
X0002843Y0009217D02*
X0002643D01*
X0002577Y0009283D01*
Y0009350D01*
X0002643Y0009417D01*
X0002843D01*
Y0009017D01*
X0005090Y0007467D02*
Y0007333D01*
X0005223Y0007067D01*
X0005357Y0007333D01*
Y0007467D01*
X0005817Y0007133D02*
X0005783Y0007067D01*
X0005583D01*
X0005550Y0007133D01*
Y0007267D01*
X0005617Y0007333D01*
X0005817D01*
Y0007467D01*
X0005550D01*
X0001923Y0000917D02*
Y0001317D01*
X0001957Y0000917D02*
X0001757D01*
X0001690Y0001050D01*
Y0001183D01*
X0001757Y0001317D01*
X0001957D01*
X0002150Y0000917D02*
X0002350Y0001317D01*
X0002150D02*
X0002350Y0000917D01*
X0002677Y0001117D02*
X0002577Y0000917D01*
X0002843Y0001117D02*
X0002643D01*
X0002577Y0001183D01*
Y0001250D01*
X0002643Y0001317D01*
X0002843D01*
Y0000917D01*
G54D10*
X0009459Y0027294D03*
X0018309Y0052894D03*
X0019309D03*
X0021459Y0063239D03*
X0011459D03*
X0006636Y0055867D03*
X0023109Y0050294D03*
X0022109Y0051394D03*
X0006681Y0047321D03*
X0006709Y0049949D03*
Y0052449D03*
G54D11*
X0008459Y0027294D03*
X0018309Y0053894D03*
X0019309D03*
X0021459Y0062294D03*
X0011459D03*
X0006636Y0054921D03*
X0023109Y0049294D03*
X0022109Y0052394D03*
X0006681Y0048267D03*
X0006709Y0050894D03*
Y0053394D03*
G54D12*
X0015459Y0060794D03*
G54D13*
X0017459D03*
G54D14*
X0025459Y0031294D03*
G54D15*
X0004822Y0034020D03*
X0017027D03*
Y0043862D03*
X0005216D03*
X0011122D03*
Y0034020D03*
X0002460Y0041107D03*
Y0036776D03*
X0029959Y0031294D03*
X0026959D03*
X0028459D03*
G54D16*
X0002550Y0012050D03*
Y0011050D03*
Y0010050D03*
Y0003950D03*
Y0002950D03*
Y0001950D03*
X0028459Y0028294D03*
Y0027294D03*
Y0024794D03*
Y0023794D03*
Y0021294D03*
Y0020294D03*
X0028609Y0055394D03*
Y0056394D03*
Y0048994D03*
Y0049994D03*
Y0050994D03*
Y0051994D03*
Y0052994D03*
G54D17*
X0002550Y0013050D03*
Y0004950D03*
X0028459Y0029294D03*
Y0025794D03*
Y0022294D03*
X0028609Y0054394D03*
Y0047994D03*
G54D18*
X0021109Y0057394D03*
Y0056394D03*
Y0055394D03*
Y0054394D03*
Y0053394D03*
Y0052394D03*
Y0051394D03*
Y0050394D03*
Y0049394D03*
Y0048394D03*
Y0047394D03*
Y0046394D03*
Y0045394D03*
X0024109D03*
Y0046394D03*
Y0047394D03*
Y0048394D03*
Y0049394D03*
Y0050394D03*
Y0051394D03*
Y0052394D03*
Y0053394D03*
Y0054394D03*
Y0055394D03*
Y0056394D03*
Y0057394D03*
Y0058394D03*
X0008709Y0053494D03*
Y0052494D03*
Y0051494D03*
Y0050494D03*
Y0049494D03*
Y0048494D03*
Y0047494D03*
X0011709D03*
Y0048494D03*
Y0049494D03*
Y0050494D03*
Y0051494D03*
Y0052494D03*
Y0053494D03*
Y0054494D03*
G54D19*
X0021109Y0058394D03*
X0008709Y0054494D03*
G54D20*
X0005519Y0031034D03*
Y0021194D03*
G54D21*
X0006079Y0025024D03*
Y0026114D03*
Y0027204D03*
Y0028294D03*
X0004959Y0024479D03*
Y0025569D03*
Y0026659D03*
Y0027749D03*
G54D22*
X0006079Y0023934D03*
G54D23*
X0001731Y0058232D03*
X0031271D03*
X0031259Y0045894D03*
X0001709D03*
G54D24*
X0004914Y0058235D03*
X0005914D03*
X0006914D03*
X0007914D03*
X0008914D03*
X0009914D03*
X0010914D03*
X0011914D03*
X0012914D03*
X0013914D03*
X0014914D03*
X0015914D03*
X0016914D03*
X0017914D03*
X0018914D03*
G54D25*
X0003914D03*
G54D26*
X0021459Y0021444D03*
G54D27*
X0022459Y0020444D03*
G54D28*
X0021459Y0019444D03*
G54D29*
X0021059Y0036394D03*
G54D30*
X0020964Y0041500D03*
G54D31*
X0002550Y0014850D03*
Y0006750D03*
X0015100Y0018500D03*
X0015459Y0077294D03*
X0016459Y0072294D03*
X0015459D03*
X0025959Y0051394D03*
G54D32*
X0001959Y0018294D03*
X0030959D03*
X0016459Y0026294D03*
Y0069294D03*
X0005459Y0061794D03*
X0027459D03*
G54D33*
X0003550Y0014850D03*
X0004550D03*
X0003550Y0006750D03*
X0004550D03*
X0016100Y0018500D03*
X0017100D03*
X0018100D03*
X0016459Y0077294D03*
X0017459D03*
G54D37*
X0008359Y0018644D03*
X0011902D03*
G54D38*
X0010130D03*
G54D39*
X0028459Y0043294D03*
X0029459D03*
G54D40*
X0027459D03*
G54D41*
Y0036144D03*
G54D45*
X0017580Y0014750D03*
Y0009750D03*
Y0006650D03*
Y0001650D03*
G54D46*
X0016580Y0012750D03*
Y0011750D03*
Y0010750D03*
Y0004650D03*
Y0003650D03*
Y0002650D03*
G54D47*
Y0013750D03*
Y0005650D03*
G54D53*
X0014059Y0048394D03*
X0016459Y0023794D03*
X0015759Y0053494D03*
X0015390Y0015110D03*
Y0007010D03*
X0013370Y0011160D03*
Y0003060D03*
X0008800Y0013150D03*
X0005050Y0013350D03*
X0008800Y0005050D03*
X0005050Y0005250D03*
X0012260Y0001110D03*
X0008110Y0012100D03*
Y0004000D03*
X0012659Y0055394D03*
X0014759Y0053494D03*
X0008880Y0002580D03*
X0011620Y0046330D03*
X0016959Y0050494D03*
X0018659Y0057094D03*
X0015550Y0003390D03*
X0008290Y0001770D03*
X0011590Y0004020D03*
X0013450Y0013350D03*
X0011590Y0012120D03*
X0013450Y0005250D03*
X0012260Y0009210D03*
X0015550Y0011490D03*
X0008290Y0009870D03*
X0008880Y0010680D03*
X0010350Y0024550D03*
X0024809Y0064994D03*
X0017709D03*
X0009750Y0044400D03*
X0019659Y0030694D03*
X0022159Y0027844D03*
X0007650Y0044400D03*
X0023509Y0023294D03*
X0016459Y0056494D03*
X0008959Y0056044D03*
X0022959Y0024794D03*
X0024859Y0064044D03*
X0015409Y0064144D03*
X0015559Y0057094D03*
X0028059Y0045894D03*
X0014300Y0046100D03*
X0013400Y0056800D03*
X0004059Y0046694D03*
X0030959Y0043694D03*
X0004959Y0045794D03*
X0016209Y0066794D03*
X0023259Y0066744D03*
X0016959Y0065944D03*
X0024059Y0065844D03*
G54D57*
X0011650Y0014650D03*
X0009650D03*
X0011650Y0006550D03*
X0009650D03*
X0018459Y0049294D03*
Y0051294D03*
X0015459Y0022294D03*
X0017468D03*
X0015459Y0030294D03*
X0017468D03*
X0019459Y0026294D03*
X0021468D03*
X0011459D03*
X0013468D03*
X0008009Y0023244D03*
X0010018D03*
M02*
