*
G04 Mass Parameters ***
*
G04 Image ***
*
%IND:\SOUND LEVEL METER PROJECT\MO PHONG_SOUND LEVEL METER_V3\SOUND LEVEL METER_OK\BOARD_NOISE LEVEL METER\GERBER\NOISE LEVEL METER-18.PWR*%
%ICAS*%
%MOIN*%
%IPPOS*%
%ASAXBY*%
G74*%FSLAN2X34Y34*%
*
G04 Aperture Definitions ***
*
%ADD10C,0.0600*%
%ADD11R,0.0600X0.0600*%
%ADD12C,0.0800*%
%ADD13R,0.0800X0.0800*%
%ADD14R,0.1000X0.1000*%
%ADD15C,0.1000*%
%ADD16O,0.0950X0.0650*%
%ADD17R,0.0950X0.0650*%
%ADD18O,0.0800X0.0600*%
%ADD19R,0.0800X0.0600*%
%ADD20R,0.1400X0.1900*%
%ADD21C,0.0700*%
%ADD22R,0.0700X0.0700*%
%ADD23C,0.1575*%
%ADD24O,0.0750X0.0900*%
%ADD25R,0.0750X0.0900*%
%ADD26O,0.0900X0.0800*%
%ADD27O,0.0800X0.0900*%
%ADD28R,0.0900X0.0800*%
%ADD29O,0.4000X0.3000*%
%ADD30R,0.4000X0.3000*%
%ADD31R,0.0650X0.0950*%
%ADD32C,0.1180*%
%ADD33O,0.0650X0.0950*%
%ADD34R,0.0590X0.0394*%
%ADD35R,0.0394X0.0590*%
%ADD36C,0.0790*%
%ADD37O,0.1181X0.1575*%
%ADD38R,0.1181X0.1575*%
%ADD39O,0.0700X0.0850*%
%ADD40R,0.0700X0.0850*%
%ADD41C,0.0500*%
%ADD42R,0.0500X0.0500*%
%ADD43R,0.0480X0.0740*%
%ADD44R,0.0512X0.0590*%
%ADD45O,0.1500X0.0800*%
%ADD46O,0.0850X0.0650*%
%ADD47R,0.0850X0.0650*%
%ADD48O,0.0149X0.0590*%
%ADD49O,0.0787X0.0157*%
%ADD50O,0.0157X0.0787*%
%ADD51R,0.0157X0.0787*%
%ADD52C,0.0300*%
%ADD53C,0.0100*%
%ADD54C,0.0350*%
%ADD55C,0.0200*%
%ADD56C,0.0500*%
%ADD57C,0.0500*%
%ADD58C,0.0150*%
%ADD59C,0.0250*%
%ADD60C,0.0500*%
%ADD61C,0.0787*%
%ADD62C,0.0400*%
%ADD63C,0.0065*%
%ADD64C,0.0060*%
%ADD65C,0.0070*%
%ADD66C,0.0080*%
%ADD67C,0.0830*%
%ADD68R,0.0830X0.0830*%
%ADD69C,0.0750*%
%ADD70R,0.0590X0.0669*%
%ADD71O,0.1600X0.0900*%
%ADD72C,0.0750*%
*
G04 Plot Data ***
*
G54D52*
G01X0032159Y0000294D02*
Y0042794D01*
X0018159Y0056794D01*
Y0062794D01*
X0014159D01*
Y0056794D01*
X0000259Y0042894D01*
Y0000294D01*
X0032159D01*
G54D55*
G01X0032770Y0000470D02*
X0032780Y0000460D01*
X0050340D01*
Y0007800D01*
X0032770D01*
Y0000470D01*
X0036000Y0046750D02*
X0044375D01*
X0047375Y0043750D01*
Y0035250D01*
X0044375Y0032250D01*
X0035875D01*
X0032875Y0035250D01*
Y0043625D01*
X0036000Y0046750D01*
Y0030750D02*
X0044375D01*
X0047375Y0027750D01*
Y0019250D01*
X0044375Y0016250D01*
X0035875D01*
X0032875Y0019250D01*
Y0027625D01*
X0036000Y0030750D01*
X0032770Y0008270D02*
X0032780Y0008260D01*
X0050340D01*
Y0015600D01*
X0032770D01*
Y0008270D01*
G54D10*
X0009159Y0010794D03*
X0018009Y0036394D03*
X0019009D03*
X0021159Y0046739D03*
X0011159D03*
X0006336Y0039367D03*
X0022809Y0033794D03*
X0021809Y0034894D03*
X0006381Y0030821D03*
X0006409Y0033449D03*
Y0035949D03*
G54D11*
X0008159Y0010794D03*
X0018009Y0037394D03*
X0019009D03*
X0021159Y0045794D03*
X0011159D03*
X0006336Y0038421D03*
X0022809Y0032794D03*
X0021809Y0035894D03*
X0006381Y0031767D03*
X0006409Y0034394D03*
Y0036894D03*
G54D12*
X0034875Y0042750D03*
X0033875Y0041750D03*
X0034875D03*
X0033875Y0040750D03*
X0034875D03*
X0033875Y0039750D03*
X0034875D03*
X0033875Y0038750D03*
X0034875D03*
X0033875Y0037750D03*
X0034875D03*
X0033875Y0036750D03*
X0034875D03*
X0033875Y0035750D03*
X0034875D03*
X0043375Y0044750D03*
X0042375Y0045750D03*
Y0044750D03*
X0041375Y0045750D03*
Y0044750D03*
X0040375Y0045750D03*
Y0044750D03*
X0039375Y0045750D03*
Y0044750D03*
X0038375Y0045750D03*
Y0044750D03*
X0037375Y0045750D03*
Y0044750D03*
X0036375Y0045750D03*
Y0044750D03*
X0045375Y0036250D03*
X0046375Y0037250D03*
X0045375D03*
X0046375Y0038250D03*
X0045375D03*
X0046375Y0039250D03*
X0045375D03*
X0046375Y0040250D03*
X0045375D03*
X0046375Y0041250D03*
X0045375D03*
X0046375Y0042250D03*
X0045375D03*
X0046375Y0043250D03*
X0045375D03*
X0036875Y0034250D03*
X0037875Y0033250D03*
Y0034250D03*
X0038875Y0033250D03*
Y0034250D03*
X0039875Y0033250D03*
Y0034250D03*
X0040875Y0033250D03*
Y0034250D03*
X0041875Y0033250D03*
Y0034250D03*
X0042875Y0033250D03*
Y0034250D03*
X0043875Y0033250D03*
Y0034250D03*
X0034875Y0026750D03*
X0033875Y0025750D03*
X0034875D03*
X0033875Y0024750D03*
X0034875D03*
X0033875Y0023750D03*
X0034875D03*
X0033875Y0022750D03*
X0034875D03*
X0033875Y0021750D03*
X0034875D03*
X0033875Y0020750D03*
X0034875D03*
X0033875Y0019750D03*
X0034875D03*
X0043375Y0028750D03*
X0042375Y0029750D03*
Y0028750D03*
X0041375Y0029750D03*
Y0028750D03*
X0040375Y0029750D03*
Y0028750D03*
X0039375Y0029750D03*
Y0028750D03*
X0038375Y0029750D03*
Y0028750D03*
X0037375Y0029750D03*
Y0028750D03*
X0036375Y0029750D03*
Y0028750D03*
X0045375Y0020250D03*
X0046375Y0021250D03*
X0045375D03*
X0046375Y0022250D03*
X0045375D03*
X0046375Y0023250D03*
X0045375D03*
X0046375Y0024250D03*
X0045375D03*
X0046375Y0025250D03*
X0045375D03*
X0046375Y0026250D03*
X0045375D03*
X0046375Y0027250D03*
X0045375D03*
X0036875Y0018250D03*
X0037875Y0017250D03*
Y0018250D03*
X0038875Y0017250D03*
Y0018250D03*
X0039875Y0017250D03*
Y0018250D03*
X0040875Y0017250D03*
Y0018250D03*
X0041875Y0017250D03*
Y0018250D03*
X0042875Y0017250D03*
Y0018250D03*
X0043875Y0017250D03*
Y0018250D03*
X0015159Y0044294D03*
G54D13*
X0033875Y0042750D03*
X0043375Y0045750D03*
X0046375Y0036250D03*
X0036875Y0033250D03*
X0033875Y0026750D03*
X0043375Y0029750D03*
X0046375Y0020250D03*
X0036875Y0017250D03*
X0017159Y0044294D03*
G54D14*
X0025159Y0014794D03*
G54D15*
X0004522Y0017520D03*
X0016727D03*
Y0027362D03*
X0004916D03*
X0010822D03*
Y0017520D03*
X0002160Y0024607D03*
Y0020276D03*
X0029659Y0014794D03*
X0026659D03*
X0028159D03*
G54D16*
X0034250Y0011750D03*
Y0010750D03*
Y0009750D03*
Y0003950D03*
Y0002950D03*
Y0001950D03*
X0028159Y0011794D03*
Y0010794D03*
Y0008294D03*
Y0007294D03*
Y0004794D03*
Y0003794D03*
X0028309Y0038894D03*
Y0039894D03*
Y0032494D03*
Y0033494D03*
Y0034494D03*
Y0035494D03*
Y0036494D03*
G54D17*
X0034250Y0012750D03*
Y0004950D03*
X0028159Y0012794D03*
Y0009294D03*
Y0005794D03*
X0028309Y0037894D03*
Y0031494D03*
G54D18*
X0020809Y0040894D03*
Y0039894D03*
Y0038894D03*
Y0037894D03*
Y0036894D03*
Y0035894D03*
Y0034894D03*
Y0033894D03*
Y0032894D03*
Y0031894D03*
Y0030894D03*
Y0029894D03*
Y0028894D03*
X0023809D03*
Y0029894D03*
Y0030894D03*
Y0031894D03*
Y0032894D03*
Y0033894D03*
Y0034894D03*
Y0035894D03*
Y0036894D03*
Y0037894D03*
Y0038894D03*
Y0039894D03*
Y0040894D03*
Y0041894D03*
X0008409Y0036994D03*
Y0035994D03*
Y0034994D03*
Y0033994D03*
Y0032994D03*
Y0031994D03*
Y0030994D03*
X0011409D03*
Y0031994D03*
Y0032994D03*
Y0033994D03*
Y0034994D03*
Y0035994D03*
Y0036994D03*
Y0037994D03*
G54D19*
X0020809Y0041894D03*
X0008409Y0037994D03*
G54D20*
X0005219Y0014534D03*
Y0004694D03*
G54D23*
X0001431Y0041732D03*
X0030971D03*
X0030959Y0029394D03*
X0001409D03*
G54D24*
X0004614Y0041735D03*
X0005614D03*
X0006614D03*
X0007614D03*
X0008614D03*
X0009614D03*
X0010614D03*
X0011614D03*
X0012614D03*
X0013614D03*
X0014614D03*
X0015614D03*
X0016614D03*
X0017614D03*
X0018614D03*
G54D25*
X0003614D03*
G54D26*
X0021159Y0004944D03*
G54D27*
X0022159Y0003944D03*
G54D28*
X0021159Y0002944D03*
G54D29*
X0020759Y0019894D03*
G54D30*
X0020664Y0025000D03*
G54D31*
X0034250Y0014550D03*
Y0006750D03*
X0014800Y0002000D03*
X0015159Y0060794D03*
X0016159Y0055794D03*
X0015159D03*
X0025659Y0034894D03*
G54D32*
X0001659Y0001794D03*
X0030659D03*
X0016159Y0009794D03*
Y0052794D03*
X0005159Y0045294D03*
X0027159D03*
G54D33*
X0035250Y0014550D03*
X0036250D03*
X0035250Y0006750D03*
X0036250D03*
X0015800Y0002000D03*
X0016800D03*
X0017800D03*
X0016159Y0060794D03*
X0017159D03*
G54D37*
X0008059Y0002144D03*
X0011602D03*
G54D38*
X0009830D03*
G54D39*
X0028159Y0026794D03*
X0029159D03*
G54D40*
X0027159D03*
G54D46*
X0048280Y0012450D03*
Y0011450D03*
Y0010450D03*
Y0004650D03*
Y0003650D03*
Y0002650D03*
G54D47*
Y0013450D03*
Y0005650D03*
G54D61*
X0043350Y0014350D03*
X0041350D03*
X0043350Y0006550D03*
X0041350D03*
X0018159Y0032794D03*
Y0034794D03*
X0015159Y0005794D03*
X0017168D03*
X0015159Y0013794D03*
X0017168D03*
X0019159Y0009794D03*
X0021168D03*
X0011159D03*
X0013168D03*
X0007709Y0006744D03*
X0009718D03*
G54D67*
X0005779Y0008524D03*
Y0009614D03*
Y0010704D03*
Y0011794D03*
X0004659Y0007979D03*
Y0009069D03*
Y0010159D03*
Y0011249D03*
G54D68*
X0005779Y0007434D03*
G54D69*
X0013759Y0031894D03*
X0016159Y0007294D03*
X0015459Y0036994D03*
X0047090Y0007010D03*
Y0014810D03*
X0045070Y0010860D03*
Y0003060D03*
X0040500Y0012850D03*
X0036750Y0013050D03*
X0040500Y0005050D03*
X0036750Y0005250D03*
X0014459Y0036994D03*
X0027159Y0019644D03*
G54D70*
X0037350Y0009950D03*
X0036563D03*
X0037350Y0010950D03*
X0036563D03*
X0037350Y0011950D03*
X0036563D03*
X0037350Y0002150D03*
X0036563D03*
X0037350Y0003150D03*
X0036563D03*
X0037350Y0004150D03*
X0036563D03*
G54D71*
X0049280Y0014450D03*
Y0009450D03*
Y0006650D03*
Y0001650D03*
G54D72*
X0009450Y0027900D03*
X0011320Y0029830D03*
X0018359Y0040594D03*
X0039990Y0001770D03*
X0016659Y0049444D03*
X0023759Y0049344D03*
X0043960Y0001110D03*
X0039810Y0011800D03*
Y0004000D03*
X0012359Y0038894D03*
X0021859Y0011344D03*
X0015909Y0050294D03*
X0022959Y0050244D03*
X0043290Y0004020D03*
Y0011820D03*
X0045150Y0013050D03*
X0043960Y0008910D03*
X0045150Y0005250D03*
X0016159Y0039994D03*
X0008659Y0039544D03*
X0047250Y0003390D03*
X0022659Y0008294D03*
X0024559Y0047544D03*
X0015109Y0047644D03*
X0019359Y0014194D03*
X0040580Y0002580D03*
Y0010380D03*
X0039990Y0009570D03*
X0003759Y0030194D03*
X0027759Y0029394D03*
X0014000Y0029600D03*
X0013100Y0040300D03*
X0023209Y0006794D03*
X0015259Y0040594D03*
X0030659Y0027194D03*
X0004659Y0029294D03*
X0024509Y0048494D03*
X0017409D03*
X0007350Y0027900D03*
X0016659Y0033994D03*
X0047250Y0011190D03*
X0010050Y0008050D03*
M02*
