*
G04 Mass Parameters ***
*
G04 Image ***
*
%IND:\SOUND LEVEL METER PROJECT\MO PHONG_SOUND LEVEL METER_V3\SOUND LEVEL METER_OK\BOARD_NOISE LEVEL METER\GERBER\NOISE LEVEL METER-18.AST*%
%ICAS*%
%MOIN*%
%IPPOS*%
%ASAXBY*%
G74*%FSLAN2X34Y34*%
*
G04 Aperture Definitions ***
*
%ADD10C,0.0600*%
%ADD11R,0.0600X0.0600*%
%ADD12C,0.0800*%
%ADD13R,0.0800X0.0800*%
%ADD14R,0.1000X0.1000*%
%ADD15C,0.1000*%
%ADD16O,0.0950X0.0650*%
%ADD17R,0.0950X0.0650*%
%ADD18O,0.0800X0.0600*%
%ADD19R,0.0800X0.0600*%
%ADD20R,0.1400X0.1900*%
%ADD21C,0.0700*%
%ADD22R,0.0700X0.0700*%
%ADD23C,0.1575*%
%ADD24O,0.0750X0.0900*%
%ADD25R,0.0750X0.0900*%
%ADD26O,0.0900X0.0800*%
%ADD27O,0.0800X0.0900*%
%ADD28R,0.0900X0.0800*%
%ADD29O,0.4000X0.3000*%
%ADD30R,0.4000X0.3000*%
%ADD31R,0.0650X0.0950*%
%ADD32C,0.1180*%
%ADD33O,0.0650X0.0950*%
%ADD34R,0.0590X0.0394*%
%ADD35R,0.0394X0.0590*%
%ADD36C,0.0790*%
%ADD37O,0.1181X0.1575*%
%ADD38R,0.1181X0.1575*%
%ADD39O,0.0700X0.0850*%
%ADD40R,0.0700X0.0850*%
%ADD41C,0.0500*%
%ADD42R,0.0500X0.0500*%
%ADD43R,0.0480X0.0740*%
%ADD44R,0.0512X0.0590*%
%ADD45O,0.1500X0.0800*%
%ADD46O,0.0850X0.0650*%
%ADD47R,0.0850X0.0650*%
%ADD48O,0.0149X0.0590*%
%ADD49O,0.0787X0.0157*%
%ADD50O,0.0157X0.0787*%
%ADD51R,0.0157X0.0787*%
%ADD52C,0.0300*%
%ADD53C,0.0100*%
%ADD54C,0.0350*%
%ADD55C,0.0200*%
%ADD56C,0.0500*%
%ADD57C,0.0500*%
%ADD58C,0.0150*%
%ADD59C,0.0250*%
%ADD60C,0.0500*%
%ADD61C,0.0787*%
%ADD62C,0.0400*%
%ADD63C,0.0065*%
%ADD64C,0.0060*%
%ADD65C,0.0070*%
%ADD66C,0.0080*%
%ADD67C,0.0830*%
%ADD68R,0.0830X0.0830*%
%ADD69C,0.0750*%
%ADD70R,0.0590X0.0669*%
%ADD71O,0.1600X0.0900*%
%ADD72C,0.0750*%
%ADD73C,0.0680*%
%ADD74R,0.0680X0.0680*%
%ADD75C,0.0880*%
%ADD76R,0.0880X0.0880*%
%ADD77R,0.1080X0.1080*%
%ADD78C,0.1080*%
%ADD79O,0.1030X0.0730*%
%ADD80R,0.1030X0.0730*%
%ADD81O,0.0880X0.0680*%
%ADD82R,0.0880X0.0680*%
%ADD83R,0.1480X0.1980*%
%ADD84C,0.0780*%
%ADD85R,0.0780X0.0780*%
%ADD86C,0.1650*%
%ADD87O,0.0830X0.0980*%
%ADD88R,0.0830X0.0980*%
%ADD89O,0.0980X0.0880*%
%ADD90O,0.0880X0.0980*%
%ADD91R,0.0980X0.0880*%
%ADD92O,0.4080X0.3080*%
%ADD93R,0.4080X0.3080*%
%ADD94R,0.0730X0.1030*%
%ADD95O,0.0730X0.1030*%
%ADD96R,0.0680X0.0480*%
%ADD97R,0.0480X0.0680*%
%ADD98C,0.0870*%
%ADD99O,0.1260X0.1650*%
%ADD100R,0.1260X0.1650*%
%ADD101O,0.0780X0.0950*%
%ADD102R,0.0780X0.0930*%
%ADD103C,0.0550*%
%ADD104R,0.0580X0.0580*%
%ADD105R,0.0560X0.0820*%
%ADD106O,0.1580X0.0880*%
%ADD107O,0.0930X0.0730*%
%ADD108R,0.0930X0.0730*%
%ADD109O,0.0230X0.0670*%
%ADD110O,0.0870X0.0240*%
%ADD111O,0.0240X0.0870*%
%ADD112R,0.0240X0.0870*%
%ADD113C,0.0550*%
%ADD114C,0.0004*%
%ADD115C,0.0050*%
%ADD116C,0.0020*%
%ADD117C,0.0079*%
%ADD118C,0.0118*%
%ADD119C,0.0039*%
%ADD120C,0.0010*%
%ADD121C,0.0012*%
%ADD122C,0.0394*%
%ADD123C,0.0030*%
%ADD124C,0.0090*%
%ADD125R,0.1200X0.1200*%
%ADD126C,0.1200*%
%ADD127O,0.0990X0.0670*%
%ADD128O,0.0800X0.0580*%
%ADD129R,0.0800X0.0580*%
%ADD130C,0.0630*%
%ADD131R,0.0630X0.0630*%
%ADD132O,0.0670X0.0990*%
%ADD133C,0.0710*%
%ADD134R,0.0710X0.0710*%
%ADD135C,0.0580*%
*
G04 Plot Data ***
*
G54D52*
G01X0032159Y0000294D02*
Y0042794D01*
X0018159Y0056794D01*
Y0062794D01*
X0014159D01*
Y0056794D01*
X0000259Y0042894D01*
Y0000294D01*
X0032159D01*
G54D53*
G01X0001060Y0043370D02*
X0001101Y0043287D01*
X0001351D01*
X0001393Y0043370D01*
Y0043537D01*
X0001310Y0043620D01*
X0001060D01*
Y0043787D01*
X0001393D01*
X0000526Y0043453D02*
Y0043370D01*
X0000568Y0043287D01*
X0000735D01*
X0000776Y0043370D01*
Y0043787D01*
X0000818D02*
X0000651D01*
X0030831Y0003283D02*
X0030564D01*
X0030520Y0003372D01*
Y0003461D01*
X0030564Y0003549D01*
X0030831D01*
X0030875Y0003461D01*
Y0003372D01*
X0030697Y0003016D01*
X0030275D02*
X0030098D01*
X0030186D02*
Y0003549D01*
X0030098Y0003461D01*
X0029453Y0003194D02*
Y0003105D01*
X0029498Y0003016D01*
X0029675D01*
X0029720Y0003105D01*
Y0003549D01*
X0029764D02*
X0029586D01*
X0005375Y0046516D02*
X0005020D01*
X0005375Y0046872D01*
Y0046961D01*
X0005331Y0047049D01*
X0005064D01*
X0005020Y0046961D01*
X0004775Y0046516D02*
X0004598D01*
X0004686D02*
Y0047049D01*
X0004598Y0046961D01*
X0003953Y0046694D02*
Y0046605D01*
X0003998Y0046516D01*
X0004175D01*
X0004220Y0046605D01*
Y0047049D01*
X0004264D02*
X0004086D01*
X0016020Y0054105D02*
X0016109Y0054016D01*
X0016286D01*
X0016375Y0054105D01*
Y0054194D01*
X0016197Y0054372D01*
X0016375Y0054549D01*
X0016020D01*
X0015775Y0054016D02*
X0015598D01*
X0015686D02*
Y0054549D01*
X0015598Y0054461D01*
X0014953Y0054194D02*
Y0054105D01*
X0014998Y0054016D01*
X0015175D01*
X0015220Y0054105D01*
Y0054549D01*
X0015264D02*
X0015086D01*
X0016064Y0011283D02*
X0016331D01*
X0016375Y0011194D01*
Y0011105D01*
X0016331Y0011016D01*
X0016064D01*
X0016020Y0011105D01*
Y0011194D01*
X0016197Y0011549D01*
X0015775Y0011016D02*
X0015598D01*
X0015686D02*
Y0011549D01*
X0015598Y0011461D01*
X0014953Y0011194D02*
Y0011105D01*
X0014998Y0011016D01*
X0015175D01*
X0015220Y0011105D01*
Y0011549D01*
X0015264D02*
X0015086D01*
X0027286Y0046516D02*
X0027109D01*
X0027197D02*
Y0047049D01*
X0027109Y0046961D01*
X0026775Y0046516D02*
X0026598D01*
X0026686D02*
Y0047049D01*
X0026598Y0046961D01*
X0025953Y0046694D02*
Y0046605D01*
X0025998Y0046516D01*
X0026175D01*
X0026220Y0046605D01*
Y0047049D01*
X0026264D02*
X0026086D01*
X0001742Y0003016D02*
X0001653Y0003105D01*
X0001609Y0003194D01*
Y0003372D01*
X0001653Y0003461D01*
X0001742Y0003549D01*
X0001831D01*
X0001920Y0003461D01*
X0001964Y0003372D01*
Y0003194D01*
X0001920Y0003105D01*
X0001831Y0003016D01*
X0001742D01*
X0001364D02*
X0001009D01*
X0001364Y0003372D01*
Y0003461D01*
X0001320Y0003549D01*
X0001053D01*
X0001009Y0003461D01*
X0000453Y0003194D02*
Y0003105D01*
X0000498Y0003016D01*
X0000675D01*
X0000720Y0003105D01*
Y0003549D01*
X0000764D02*
X0000586D01*
X0034750Y0005450D02*
X0033750D01*
Y0001450D01*
X0034750D01*
Y0005450D01*
X0033750Y0007250D02*
X0036750D01*
Y0006250D01*
X0033750D01*
Y0007250D01*
X0034750Y0013250D02*
X0033750D01*
Y0009250D01*
X0034750D01*
Y0013250D01*
X0033750Y0015050D02*
X0036750D01*
Y0014050D01*
X0033750D01*
Y0015050D01*
X0014300Y0002500D02*
Y0001500D01*
X0018300D01*
Y0002500D01*
X0014300D01*
X0027809Y0030994D02*
X0028809D01*
Y0036994D01*
X0027809D01*
Y0030994D01*
X0014659Y0056294D02*
Y0055294D01*
X0015659D01*
Y0056294D01*
X0014659D01*
X0015659D02*
Y0055294D01*
X0016659D01*
Y0056294D01*
X0015659D01*
X0012389Y0000963D02*
Y0003325D01*
X0007271D01*
Y0000963D01*
X0012389D01*
X0028659Y0013294D02*
Y0010294D01*
X0027659D01*
Y0013294D01*
X0028659D01*
X0014659Y0061294D02*
X0017659D01*
Y0060294D01*
X0014659D01*
Y0061294D01*
X0027809Y0037394D02*
Y0040394D01*
X0028809D01*
Y0037394D01*
X0027809D01*
X0028659Y0009794D02*
Y0006794D01*
X0027659D01*
Y0009794D01*
X0028659D01*
X0025159Y0035394D02*
Y0034394D01*
X0026159D01*
Y0035394D01*
X0025159D01*
X0028659Y0006294D02*
Y0003294D01*
X0027659D01*
Y0006294D01*
X0028659D01*
G54D55*
G01X0032770Y0000470D02*
X0032780Y0000460D01*
X0050340D01*
Y0007800D01*
X0032770D01*
Y0000470D01*
X0036000Y0046750D02*
X0044375D01*
X0047375Y0043750D01*
Y0035250D01*
X0044375Y0032250D01*
X0035875D01*
X0032875Y0035250D01*
Y0043625D01*
X0036000Y0046750D01*
Y0030750D02*
X0044375D01*
X0047375Y0027750D01*
Y0019250D01*
X0044375Y0016250D01*
X0035875D01*
X0032875Y0019250D01*
Y0027625D01*
X0036000Y0030750D01*
X0032770Y0008270D02*
X0032780Y0008260D01*
X0050340D01*
Y0015600D01*
X0032770D01*
Y0008270D01*
G54D64*
G01X0046685Y0015200D02*
X0045935D01*
Y0013600D01*
X0046685D01*
Y0015200D01*
X0043170Y0000875D02*
Y0001625D01*
X0041570D01*
Y0000875D01*
X0043170D01*
X0039130Y0006225D02*
Y0007275D01*
X0037150D01*
Y0006225D01*
X0039130D01*
X0045125Y0007370D02*
X0044375D01*
Y0005770D01*
X0045125D01*
Y0007370D01*
X0039575Y0005530D02*
X0040325D01*
Y0007130D01*
X0039575D01*
Y0005530D01*
X0038870Y0005075D02*
Y0005825D01*
X0037270D01*
Y0005075D01*
X0038870D01*
X0046685Y0007400D02*
X0045935D01*
Y0005800D01*
X0046685D01*
Y0007400D01*
X0043170Y0008675D02*
Y0009425D01*
X0041570D01*
Y0008675D01*
X0043170D01*
X0039130Y0014025D02*
Y0015075D01*
X0037150D01*
Y0014025D01*
X0039130D01*
X0045125Y0015170D02*
X0044375D01*
Y0013570D01*
X0045125D01*
Y0015170D01*
X0039575Y0013330D02*
X0040325D01*
Y0014930D01*
X0039575D01*
Y0013330D01*
X0038870Y0012875D02*
Y0013625D01*
X0037270D01*
Y0012875D01*
X0038870D01*
G54D66*
G01X0022058Y0033600D02*
X0022114Y0033572D01*
X0022169D01*
X0022225Y0033600D01*
Y0033767D01*
X0022169Y0033795D01*
X0022114D01*
X0022058Y0033767D01*
Y0033600D01*
X0022003Y0033572D01*
X0021947D01*
X0021891Y0033600D01*
Y0033767D01*
X0021947Y0033795D01*
X0022003D01*
X0022058Y0033767D01*
X0022003Y0034517D02*
Y0034740D01*
X0021891Y0034517D02*
X0022058D01*
X0022225Y0034601D01*
Y0034656D01*
X0022058Y0034740D01*
X0021891D01*
X0022058Y0035038D02*
Y0034927D01*
X0021947D01*
X0021891Y0034955D01*
Y0035122D01*
X0021947Y0035150D01*
X0022169D01*
X0022225Y0035122D01*
Y0034955D01*
X0022169Y0034927D01*
X0022058Y0035393D02*
Y0035560D01*
X0021891Y0035337D02*
Y0035560D01*
X0022225D01*
Y0035337D01*
X0021891Y0035747D02*
X0022225D01*
X0022169Y0035803D01*
X0022058Y0035858D01*
X0022169Y0035914D01*
X0022225Y0035970D01*
X0021891D01*
Y0036268D02*
X0022225D01*
Y0036157D02*
Y0036380D01*
X0022003Y0036567D02*
Y0036790D01*
X0021891Y0036567D02*
X0022058D01*
X0022225Y0036651D01*
Y0036706D01*
X0022058Y0036790D01*
X0021891D01*
X0022853Y0035651D02*
Y0035874D01*
X0023075Y0035762D01*
Y0035707D01*
X0022741D01*
X0022908Y0036284D02*
Y0036117D01*
X0022964Y0036061D01*
X0023019D01*
X0023075Y0036117D01*
Y0036284D01*
X0022741D01*
X0022853Y0036666D02*
X0022797D01*
X0022741Y0036638D01*
Y0036527D01*
X0022797Y0036499D01*
X0023075D01*
Y0036471D02*
Y0036582D01*
X0009698Y0011672D02*
X0009365D01*
Y0011784D02*
Y0011561D01*
X0009532Y0011290D02*
X0009698Y0011374D01*
X0009532Y0011151D02*
Y0011318D01*
X0009476Y0011374D01*
X0009420D01*
X0009365Y0011318D01*
Y0011151D01*
X0009698D01*
Y0010769D02*
X0009643Y0010741D01*
X0009420D01*
X0009365Y0010769D01*
Y0010936D01*
X0009420Y0010964D01*
X0009643D01*
X0009698Y0010936D01*
Y0010769D01*
X0009532Y0010331D02*
Y0010498D01*
X0009476Y0010554D01*
X0009420D01*
X0009365Y0010498D01*
Y0010331D01*
X0009698D01*
Y0009609D02*
X0009365D01*
X0009420Y0009553D01*
X0009532Y0009497D01*
X0009420Y0009442D01*
X0009365Y0009386D01*
X0009698D01*
Y0009004D02*
X0009643Y0008976D01*
X0009420D01*
X0009365Y0009004D01*
Y0009171D01*
X0009420Y0009199D01*
X0009643D01*
X0009698Y0009171D01*
Y0009004D01*
X0009643Y0008789D02*
X0009698Y0008761D01*
Y0008594D01*
X0009643Y0008566D01*
X0009420D01*
X0009365Y0008594D01*
Y0008761D01*
X0009420Y0008789D01*
X0003261Y0004781D02*
X0002928D01*
Y0004892D02*
Y0004670D01*
X0003261Y0004482D02*
X0003094Y0004316D01*
X0002928Y0004482D01*
Y0004260D02*
X0003261D01*
X0002983Y0004072D02*
X0002928Y0004044D01*
Y0003878D01*
X0002983Y0003850D01*
X0003039D01*
X0003094Y0003878D01*
Y0004044D01*
X0003150Y0004072D01*
X0003206D01*
X0003261Y0004044D01*
Y0003878D01*
X0003206Y0003850D01*
X0006761Y0007419D02*
Y0007308D01*
Y0007364D02*
X0006428D01*
X0006483Y0007308D01*
X0003844Y0011322D02*
Y0011156D01*
X0003789Y0011128D01*
X0003733D01*
X0003678Y0011156D01*
Y0011322D01*
X0003733Y0011350D01*
X0003789D01*
X0004011Y0011239D01*
X0006706Y0011753D02*
X0006761Y0011781D01*
Y0011947D01*
X0006706Y0011975D01*
X0006595D01*
X0006539Y0011919D01*
Y0011753D01*
X0006428D01*
Y0011975D01*
X0027302Y0016568D02*
X0027235D01*
X0027269D02*
Y0016768D01*
X0027235Y0016735D01*
X0026909Y0016568D02*
Y0016768D01*
X0026892Y0016568D02*
X0026992D01*
X0027025Y0016635D01*
Y0016702D01*
X0026992Y0016768D01*
X0026892D01*
X0003844Y0007906D02*
Y0008072D01*
X0003900Y0008100D01*
X0003956D01*
X0004011Y0008072D01*
Y0007906D01*
X0003956Y0007878D01*
X0003900D01*
X0003678Y0007989D01*
X0008393Y0009087D02*
X0008448Y0009143D01*
Y0009254D01*
X0008393Y0009310D01*
X0008337D01*
X0008226Y0009198D01*
X0008115Y0009310D01*
Y0009087D01*
X0008337Y0008705D02*
X0008393D01*
X0008448Y0008733D01*
Y0008844D01*
X0008393Y0008872D01*
X0008115D01*
Y0008900D02*
Y0008788D01*
X0009491Y0033395D02*
Y0033617D01*
X0009714Y0033395D01*
X0009769D01*
X0009825Y0033423D01*
Y0033590D01*
X0009769Y0033617D01*
X0009547Y0034027D02*
X0009491Y0033972D01*
Y0033861D01*
X0009547Y0033805D01*
X0009603D01*
X0009714Y0033916D01*
X0009825Y0033805D01*
Y0034027D01*
X0009491Y0034215D02*
Y0034437D01*
X0009714Y0034215D01*
X0009769D01*
X0009825Y0034243D01*
Y0034410D01*
X0009769Y0034437D01*
X0009491Y0034625D02*
X0009825Y0034792D01*
Y0034625D02*
X0009491Y0034792D01*
X0009603Y0035007D02*
Y0035230D01*
X0009491Y0035007D02*
X0009658D01*
X0009825Y0035091D01*
Y0035146D01*
X0009658Y0035230D01*
X0009491D01*
Y0035417D02*
X0009825D01*
X0009769Y0035473D01*
X0009658Y0035528D01*
X0009769Y0035584D01*
X0009825Y0035640D01*
X0009491D01*
X0010341Y0034967D02*
Y0035078D01*
Y0035022D02*
X0010675D01*
X0010619Y0035078D01*
X0010453Y0035516D02*
X0010397D01*
X0010341Y0035488D01*
Y0035377D01*
X0010397Y0035349D01*
X0010675D01*
Y0035321D02*
Y0035432D01*
X0017509Y0037894D02*
Y0035894D01*
X0022309Y0032294D02*
Y0034294D01*
X0023309D01*
Y0032294D01*
X0022309D01*
X0023309D02*
Y0034294D01*
X0022809Y0042394D02*
Y0042144D01*
X0021809D01*
Y0042394D01*
X0021309D01*
Y0028644D01*
X0023309D01*
Y0042394D01*
X0021809D01*
X0022309Y0036394D02*
Y0034394D01*
X0021309D01*
Y0036394D01*
X0022309D01*
X0021309D02*
Y0034394D01*
X0026109Y0026794D02*
X0026609D01*
X0026859Y0025294D02*
X0026109Y0026044D01*
Y0027544D01*
X0030209D01*
Y0026044D01*
X0029459Y0025294D01*
X0026859D01*
X0030209Y0026794D02*
X0029709D01*
X0002594Y0015739D02*
Y0003489D01*
X0002719Y0003364D02*
X0007719D01*
X0007844Y0003489D02*
Y0015739D01*
X0007719Y0015864D02*
X0002719D01*
X0003469Y0012364D02*
X0006969Y0012864D01*
Y0006364D01*
X0003469Y0006864D01*
Y0012364D01*
X0010409Y0038494D02*
Y0038244D01*
X0009409D01*
Y0038494D01*
X0008909D01*
Y0030494D01*
X0010909D01*
Y0038494D01*
X0009409D01*
X0019509Y0037894D02*
Y0035894D01*
X0018509D01*
Y0037894D01*
X0019509D01*
X0018509D02*
Y0035894D01*
Y0037894D02*
Y0035894D01*
X0017509D01*
Y0037894D01*
X0018509D01*
G01X0002594Y0003489D02*
G03X0002719Y0003364I0000125J0000000D01*
G01X0007719D02*
G03X0007844Y0003489I0000000J0000125D01*
Y0015739D02*
G03X0007719Y0015864I0000125J0000000D01*
G01X0002719D02*
G03X0002594Y0015739I0000000J0000125D01*
G54D10*
X0004522Y0017520D03*
X0016727D03*
Y0027362D03*
X0004916D03*
X0010822D03*
Y0017520D03*
X0002160Y0024607D03*
Y0020276D03*
G54D14*
X0020664Y0025000D03*
G54D15*
X0020759Y0019894D03*
G54D34*
X0018659Y0006794D03*
Y0005928D03*
Y0014794D03*
Y0013928D03*
X0022659Y0010794D03*
Y0009928D03*
X0008159Y0013294D03*
Y0012428D03*
X0020659Y0044294D03*
Y0043428D03*
X0017659Y0039794D03*
Y0038928D03*
G54D35*
X0045880Y0012950D03*
X0046746D03*
X0045880Y0012050D03*
X0046746D03*
X0046780Y0010250D03*
X0045914D03*
X0046780Y0009350D03*
X0045914D03*
X0039150Y0009950D03*
X0038284D03*
X0039150Y0010950D03*
X0038284D03*
X0039150Y0011950D03*
X0038284D03*
X0045880Y0011150D03*
X0046746D03*
X0045880Y0005150D03*
X0046746D03*
X0045880Y0004250D03*
X0046746D03*
X0046780Y0002450D03*
X0045914D03*
X0046780Y0001550D03*
X0045914D03*
X0039150Y0002150D03*
X0038284D03*
X0039150Y0003150D03*
X0038284D03*
X0039150Y0004150D03*
X0038284D03*
X0045880Y0003350D03*
X0046746D03*
X0012226Y0012861D03*
X0013092D03*
G54D42*
X0037650Y0013250D03*
X0038490D03*
X0041950Y0009050D03*
X0042790D03*
X0046310Y0013980D03*
Y0014820D03*
X0039950Y0014550D03*
Y0013710D03*
X0044750Y0013950D03*
Y0014790D03*
X0037650Y0005450D03*
X0038490D03*
X0041950Y0001250D03*
X0042790D03*
X0046310Y0006180D03*
Y0007020D03*
X0039950Y0006750D03*
Y0005910D03*
X0044750Y0006150D03*
Y0006990D03*
G54D43*
X0037550Y0014550D03*
X0038730D03*
X0037550Y0006750D03*
X0038730D03*
G54D48*
X0041243Y0009985D03*
X0041499D03*
X0041755D03*
X0042011D03*
X0042267D03*
X0042523D03*
X0042779D03*
X0043034D03*
X0043290D03*
X0043546D03*
X0043802D03*
X0044058D03*
X0044314D03*
X0044570D03*
Y0013017D03*
X0044314D03*
X0044058D03*
X0043802D03*
X0043546D03*
X0043290D03*
X0043034D03*
X0042779D03*
X0042523D03*
X0042267D03*
X0042011D03*
X0041755D03*
X0041499D03*
X0041243D03*
Y0002185D03*
X0041499D03*
X0041755D03*
X0042011D03*
X0042267D03*
X0042523D03*
X0042779D03*
X0043034D03*
X0043290D03*
X0043546D03*
X0043802D03*
X0044058D03*
X0044314D03*
X0044570D03*
Y0005217D03*
X0044314D03*
X0044058D03*
X0043802D03*
X0043546D03*
X0043290D03*
X0043034D03*
X0042779D03*
X0042523D03*
X0042267D03*
X0042011D03*
X0041755D03*
X0041499D03*
X0041243D03*
G54D49*
X0043222Y0037135D03*
Y0037450D03*
Y0037765D03*
Y0038079D03*
Y0038394D03*
Y0038709D03*
Y0039023D03*
Y0039338D03*
Y0039653D03*
Y0039967D03*
Y0040282D03*
Y0040597D03*
Y0040911D03*
Y0041226D03*
Y0041541D03*
Y0041855D03*
X0037007D03*
Y0041541D03*
Y0041226D03*
Y0040911D03*
Y0040597D03*
Y0040282D03*
Y0039967D03*
Y0039653D03*
Y0039338D03*
Y0039023D03*
Y0038709D03*
Y0038394D03*
Y0038079D03*
Y0037765D03*
Y0037450D03*
Y0037135D03*
X0043222Y0021135D03*
Y0021450D03*
Y0021765D03*
Y0022079D03*
Y0022394D03*
Y0022709D03*
Y0023023D03*
Y0023338D03*
Y0023653D03*
Y0023967D03*
Y0024282D03*
Y0024597D03*
Y0024911D03*
Y0025226D03*
Y0025541D03*
Y0025855D03*
X0037007D03*
Y0025541D03*
Y0025226D03*
Y0024911D03*
Y0024597D03*
Y0024282D03*
Y0023967D03*
Y0023653D03*
Y0023338D03*
Y0023023D03*
Y0022709D03*
Y0022394D03*
Y0022079D03*
Y0021765D03*
Y0021450D03*
Y0021135D03*
G54D50*
X0038070Y0036390D03*
X0038385D03*
X0038700D03*
X0039015D03*
X0039330D03*
X0039645D03*
X0039960D03*
X0040275D03*
X0040590D03*
X0040905D03*
X0041220D03*
X0041535D03*
X0041850D03*
X0042165D03*
X0042480D03*
X0042474Y0042603D03*
X0042160D03*
X0041845D03*
X0041530D03*
X0041216D03*
X0040901D03*
X0040586D03*
X0040272D03*
X0039957D03*
X0039642D03*
X0039328D03*
X0039013D03*
X0038698D03*
X0038384D03*
X0038069D03*
X0037754D03*
X0038070Y0020390D03*
X0038385D03*
X0038700D03*
X0039015D03*
X0039330D03*
X0039645D03*
X0039960D03*
X0040275D03*
X0040590D03*
X0040905D03*
X0041220D03*
X0041535D03*
X0041850D03*
X0042165D03*
X0042480D03*
X0042474Y0026603D03*
X0042160D03*
X0041845D03*
X0041530D03*
X0041216D03*
X0040901D03*
X0040586D03*
X0040272D03*
X0039957D03*
X0039642D03*
X0039328D03*
X0039013D03*
X0038698D03*
X0038384D03*
X0038069D03*
X0037754D03*
G54D51*
X0037755Y0036390D03*
Y0020390D03*
G54D61*
X0043350Y0014350D03*
X0041350D03*
X0043350Y0006550D03*
X0041350D03*
X0018159Y0032794D03*
Y0034794D03*
X0015159Y0005794D03*
X0017168D03*
X0015159Y0013794D03*
X0017168D03*
X0019159Y0009794D03*
X0021168D03*
X0011159D03*
X0013168D03*
X0007709Y0006744D03*
X0009718D03*
G54D103*
X0018009Y0036394D03*
X0019009D03*
X0022809Y0033794D03*
X0021809Y0034894D03*
G54D104*
X0033875Y0042750D03*
X0043375Y0045750D03*
X0046375Y0036250D03*
X0036875Y0033250D03*
X0033875Y0026750D03*
X0043375Y0029750D03*
X0046375Y0020250D03*
X0036875Y0017250D03*
G54D125*
X0025159Y0014794D03*
G54D126*
X0005219Y0014534D03*
Y0004694D03*
X0029659Y0014794D03*
X0026659D03*
X0028159D03*
G54D127*
X0034250Y0011750D03*
Y0010750D03*
Y0009750D03*
Y0003950D03*
Y0002950D03*
Y0001950D03*
X0028159Y0011794D03*
Y0010794D03*
Y0008294D03*
Y0007294D03*
Y0004794D03*
Y0003794D03*
X0028309Y0038894D03*
Y0039894D03*
Y0032494D03*
Y0033494D03*
Y0034494D03*
Y0035494D03*
Y0036494D03*
G54D128*
X0020809Y0040894D03*
Y0039894D03*
Y0038894D03*
Y0037894D03*
Y0036894D03*
Y0035894D03*
Y0034894D03*
Y0033894D03*
Y0032894D03*
Y0031894D03*
Y0030894D03*
Y0029894D03*
Y0028894D03*
X0023809D03*
Y0029894D03*
Y0030894D03*
Y0031894D03*
Y0032894D03*
Y0033894D03*
Y0034894D03*
Y0035894D03*
Y0036894D03*
Y0037894D03*
Y0038894D03*
Y0039894D03*
Y0040894D03*
Y0041894D03*
X0008409Y0036994D03*
Y0035994D03*
Y0034994D03*
Y0033994D03*
Y0032994D03*
Y0031994D03*
Y0030994D03*
X0011409D03*
Y0031994D03*
Y0032994D03*
Y0033994D03*
Y0034994D03*
Y0035994D03*
Y0036994D03*
Y0037994D03*
G54D129*
X0020809Y0041894D03*
X0008409Y0037994D03*
G54D130*
X0005779Y0008524D03*
Y0009614D03*
Y0010704D03*
Y0011794D03*
X0004659Y0007979D03*
Y0009069D03*
Y0010159D03*
Y0011249D03*
G54D131*
X0005779Y0007434D03*
G54D132*
X0035250Y0014550D03*
X0036250D03*
X0035250Y0006750D03*
X0036250D03*
X0015800Y0002000D03*
X0016800D03*
X0017800D03*
X0009830Y0002144D03*
X0016159Y0060794D03*
X0017159D03*
G54D133*
X0028159Y0026794D03*
X0029159D03*
G54D134*
X0027159D03*
G54D135*
X0034875Y0042750D03*
X0033875Y0041750D03*
X0034875D03*
X0033875Y0040750D03*
X0034875D03*
X0033875Y0039750D03*
X0034875D03*
X0033875Y0038750D03*
X0034875D03*
X0033875Y0037750D03*
X0034875D03*
X0033875Y0036750D03*
X0034875D03*
X0033875Y0035750D03*
X0034875D03*
X0043375Y0044750D03*
X0042375Y0045750D03*
Y0044750D03*
X0041375Y0045750D03*
Y0044750D03*
X0040375Y0045750D03*
Y0044750D03*
X0039375Y0045750D03*
Y0044750D03*
X0038375Y0045750D03*
Y0044750D03*
X0037375Y0045750D03*
Y0044750D03*
X0036375Y0045750D03*
Y0044750D03*
X0045375Y0036250D03*
X0046375Y0037250D03*
X0045375D03*
X0046375Y0038250D03*
X0045375D03*
X0046375Y0039250D03*
X0045375D03*
X0046375Y0040250D03*
X0045375D03*
X0046375Y0041250D03*
X0045375D03*
X0046375Y0042250D03*
X0045375D03*
X0046375Y0043250D03*
X0045375D03*
X0036875Y0034250D03*
X0037875Y0033250D03*
Y0034250D03*
X0038875Y0033250D03*
Y0034250D03*
X0039875Y0033250D03*
Y0034250D03*
X0040875Y0033250D03*
Y0034250D03*
X0041875Y0033250D03*
Y0034250D03*
X0042875Y0033250D03*
Y0034250D03*
X0043875Y0033250D03*
Y0034250D03*
X0034875Y0026750D03*
X0033875Y0025750D03*
X0034875D03*
X0033875Y0024750D03*
X0034875D03*
X0033875Y0023750D03*
X0034875D03*
X0033875Y0022750D03*
X0034875D03*
X0033875Y0021750D03*
X0034875D03*
X0033875Y0020750D03*
X0034875D03*
X0033875Y0019750D03*
X0034875D03*
X0043375Y0028750D03*
X0042375Y0029750D03*
Y0028750D03*
X0041375Y0029750D03*
Y0028750D03*
X0040375Y0029750D03*
Y0028750D03*
X0039375Y0029750D03*
Y0028750D03*
X0038375Y0029750D03*
Y0028750D03*
X0037375Y0029750D03*
Y0028750D03*
X0036375Y0029750D03*
Y0028750D03*
X0045375Y0020250D03*
X0046375Y0021250D03*
X0045375D03*
X0046375Y0022250D03*
X0045375D03*
X0046375Y0023250D03*
X0045375D03*
X0046375Y0024250D03*
X0045375D03*
X0046375Y0025250D03*
X0045375D03*
X0046375Y0026250D03*
X0045375D03*
X0046375Y0027250D03*
X0045375D03*
X0036875Y0018250D03*
X0037875Y0017250D03*
Y0018250D03*
X0038875Y0017250D03*
Y0018250D03*
X0039875Y0017250D03*
Y0018250D03*
X0040875Y0017250D03*
Y0018250D03*
X0041875Y0017250D03*
Y0018250D03*
X0042875Y0017250D03*
Y0018250D03*
X0043875Y0017250D03*
Y0018250D03*
M02*
