%
T1C0.0280F200S100
X003759Y030194
X004659Y029294
X007350Y027900
X008659Y039544
X009450Y027900
X010050Y008050
X011320Y029830
X012359Y038894
X013100Y040300
X013759Y031894
X014000Y029600
X014459Y036994
X015109Y047644
X015259Y040594
X015459Y036994
X015909Y050294
X016159Y007294
X016659Y033994
X016159Y039994
X016659Y049444
X017409Y048494
X018359Y040594
X019359Y014194
X021859Y011344
X022659Y008294
X022959Y050244
X023209Y006794
X023759Y049344
X024509Y048494
X024559Y047544
X027159Y019644
X027759Y029394
X030659Y027194
X036750Y005250
X036750Y013050
X039810Y004000
X039990Y001770
X039990Y009570
X039810Y011800
X040500Y005050
X040580Y002580
X040580Y010380
X040500Y012850
X043290Y004020
X043960Y001110
X043960Y008910
X043290Y011820
X045070Y003060
X045150Y005250
X045070Y010860
X045150Y013050
X047090Y007010
X047250Y003390
X047250Y011190
X047090Y014810
T3C0.0340F200S100
X006336Y038421
X006336Y039367
X006381Y030821
X006381Y031767
X006409Y033449
X006409Y034394
X006409Y035949
X006409Y036894
X008159Y010794
X008409Y030994
X008409Y031994
X008409Y032994
X008409Y033994
X008409Y034994
X008409Y035994
X008409Y036994
X008409Y037994
X009159Y010794
X011159Y045794
X011159Y046739
X011409Y030994
X011409Y031994
X011409Y032994
X011409Y033994
X011409Y034994
X011409Y035994
X011409Y036994
X011409Y037994
X014800Y002000
X015159Y044294
X015159Y055794
X015159Y060794
X015800Y002000
X016159Y055794
X016159Y060794
X016800Y002000
X017159Y044294
X017159Y060794
X017800Y002000
X018009Y036394
X018009Y037394
X019009Y036394
X019009Y037394
X020809Y028894
X020809Y029894
X020809Y030894
X020809Y031894
X020809Y032894
X020809Y033894
X020809Y034894
X020809Y035894
X020809Y036894
X020809Y037894
X020809Y038894
X020809Y039894
X020809Y040894
X020809Y041894
X021159Y045794
X021159Y046739
X021809Y034894
X021809Y035894
X022809Y032794
X022809Y033794
X023809Y028894
X023809Y029894
X023809Y030894
X023809Y031894
X023809Y032894
X023809Y033894
X023809Y034894
X023809Y035894
X023809Y036894
X023809Y037894
X023809Y038894
X023809Y039894
X023809Y040894
X023809Y041894
X025659Y034894
X027159Y026794
X028159Y003794
X028159Y004794
X028159Y005794
X028159Y007294
X028159Y008294
X028159Y009294
X028159Y010794
X028159Y011794
X028159Y012794
X028159Y026794
X028309Y031494
X028309Y032494
X028309Y033494
X028309Y034494
X028309Y035494
X028309Y036494
X028309Y037894
X028309Y038894
X028309Y039894
X029159Y026794
X033875Y019750
X033875Y020750
X033875Y021750
X033875Y022750
X033875Y023750
X033875Y024750
X033875Y025750
X033875Y026750
X033875Y035750
X033875Y036750
X033875Y037750
X033875Y038750
X033875Y039750
X033875Y040750
X033875Y041750
X033875Y042750
X034250Y001950
X034250Y002950
X034250Y003950
X034250Y004950
X034250Y006750
X034250Y009750
X034250Y010750
X034250Y011750
X034250Y012750
X034250Y014550
X034875Y019750
X034875Y020750
X034875Y021750
X034875Y022750
X034875Y023750
X034875Y024750
X034875Y025750
X034875Y026750
X034875Y035750
X034875Y036750
X034875Y037750
X034875Y038750
X034875Y039750
X034875Y040750
X034875Y041750
X034875Y042750
X035250Y006750
X036250Y006750
X036250Y014550
X035250Y014550
X036375Y028750
X036375Y029750
X036875Y017250
X036875Y018250
X036875Y033250
X036875Y034250
X036375Y044750
X036375Y045750
X037375Y028750
X037375Y029750
X037875Y017250
X037875Y018250
X037875Y033250
X037875Y034250
X037375Y044750
X037375Y045750
X038375Y028750
X038375Y029750
X038875Y017250
X038875Y018250
X038875Y033250
X038875Y034250
X038375Y044750
X038375Y045750
X039375Y028750
X039375Y029750
X039875Y017250
X039875Y018250
X039875Y033250
X039875Y034250
X039375Y044750
X039375Y045750
X040375Y028750
X040375Y029750
X040875Y017250
X040875Y018250
X040875Y033250
X040875Y034250
X040375Y044750
X040375Y045750
X041375Y028750
X041375Y029750
X041875Y017250
X041875Y018250
X041875Y033250
X041875Y034250
X041375Y044750
X041375Y045750
X042375Y028750
X042375Y029750
X042875Y017250
X042875Y018250
X042875Y033250
X042875Y034250
X042375Y044750
X042375Y045750
X043375Y028750
X043375Y029750
X043875Y017250
X043875Y018250
X043875Y033250
X043875Y034250
X043375Y044750
X043375Y045750
X045375Y020250
X045375Y021250
X045375Y022250
X045375Y023250
X045375Y024250
X045375Y025250
X045375Y026250
X045375Y027250
X046375Y020250
X046375Y021250
X046375Y022250
X046375Y023250
X046375Y024250
X046375Y025250
X046375Y026250
X046375Y027250
X046375Y036250
X045375Y036250
X045375Y037250
X045375Y038250
X045375Y039250
X045375Y040250
X045375Y041250
X045375Y042250
X045375Y043250
X046375Y037250
X046375Y038250
X046375Y039250
X046375Y040250
X046375Y041250
X046375Y042250
X046375Y043250
T10C0.1180F200S100
X001409Y029394
X001431Y041732
X001659Y001794
X005159Y045294
X016159Y009794
X027159Y045294
X016159Y052794
X030659Y001794
X030959Y029394
X030971Y041732
T4C0.0380F200S100
X003614Y041735
X004614Y041735
X005614Y041735
X006614Y041735
X007614Y041735
X007709Y006744
X008614Y041735
X009614Y041735
X009718Y006744
X010614Y041735
X011159Y009794
X011614Y041735
X012614Y041735
X013168Y009794
X013614Y041735
X014614Y041735
X015159Y005794
X015159Y013794
X015614Y041735
X016614Y041735
X017168Y005794
X017168Y013794
X017614Y041735
X018159Y032794
X018159Y034794
X018614Y041735
X019159Y009794
X021159Y002944
X021159Y004944
X021168Y009794
X022159Y003944
X041350Y006550
X041350Y014350
X043350Y006550
X048280Y005650
X048280Y013450
X043350Y014350
T5C0.0400F200S100
X004659Y007979
X004659Y009069
X004659Y010159
X004659Y011249
X005779Y007434
X005779Y008524
X005779Y009614
X005779Y010704
X005779Y011794
T11C0.1200F200S100
X005219Y004694
X005219Y014534
T9C0.1000F200S100
X020664Y025000
X020759Y019894
T6C0.0600F200S100
X002160Y020276
X004522Y017520
X002160Y024607
X004916Y027362
X010822Y017520
X010822Y027362
X016727Y017520
X016727Y027362
T7C0.0700F200S100
X025159Y014794
X026659Y014794
X028159Y014794
X029659Y014794
T8C0.0866F200S100
X008059Y002144
X009830Y002144
X011602Y002144
T2C0.0320F200S100
X048280Y002650
X048280Y003650
X048280Y004650
X048280Y010450
X048280Y011450
X048280Y012450
M30
